<?xml version="1.0" encoding="UTF-8"?>
<svg width="176px" height="24px" viewBox="0 0 176 24" version="1.1" xmlns="http://www.w3.org/2000/svg" xmlns:xlink="http://www.w3.org/1999/xlink">
    <title>comite_asesor</title>
    <g id="Page-1" stroke="none" stroke-width="1" fill="none" fill-rule="evenodd">
        <g id="comite_asesor">
            <path d="M4.9886,23.4029991 C5.76886667,23.4029991 6.37203333,23.2438658 6.7981,22.9255991 C7.22416667,22.6073325 7.5219,22.1684325 7.6913,21.6088991 C7.8607,21.0493658 7.9454,20.4051325 7.9454,19.6761991 L7.9454,19.6761991 L7.9454,18.9369991 L6.8366,18.9369991 L6.8366,19.7531991 C6.8366,20.2973325 6.79296667,20.7721658 6.7057,21.1776991 C6.61843333,21.5832325 6.4439,21.8989325 6.1821,22.1247991 C5.9203,22.3506658 5.5276,22.4635991 5.004,22.4635991 C4.49066667,22.4635991 4.09026667,22.3609325 3.8028,22.1555991 C3.51533333,21.9502658 3.31256667,21.6422658 3.1945,21.2315991 C3.07643333,20.8209325 3.0174,20.3075991 3.0174,19.6915991 L3.0174,19.6915991 L3.0174,14.3785991 C3.0174,13.8241991 3.06616667,13.3365325 3.1637,12.9155991 C3.26123333,12.4946658 3.45116667,12.1686991 3.7335,11.9376991 C4.01583333,11.7066991 4.43933333,11.5911991 5.004,11.5911991 C5.51733333,11.5911991 5.90746667,11.6989991 6.1744,11.9145991 C6.44133333,12.1301991 6.61843333,12.4330658 6.7057,12.8231991 C6.79296667,13.2133325 6.8366,13.6804658 6.8366,14.2245991 L6.8366,14.2245991 L6.8366,14.9483991 L7.9454,14.9483991 L7.9454,14.1937991 C7.9454,13.4648658 7.853,12.8360325 7.6682,12.3072991 C7.4834,11.7785658 7.17796667,11.3704658 6.7519,11.0829991 C6.32583333,10.7955325 5.73806667,10.6517991 4.9886,10.6517991 C4.16726667,10.6517991 3.5256,10.8160658 3.0636,11.1445991 C2.6016,11.4731325 2.28076667,11.9299991 2.1011,12.5151991 C1.92143333,13.1003991 1.8316,13.7779991 1.8316,14.5479991 L1.8316,14.5479991 L1.8316,19.5067991 C1.8316,20.2254658 1.91886667,20.8799658 2.0934,21.4702991 C2.26793333,22.0606325 2.58363333,22.5303325 3.0405,22.8793991 C3.49736667,23.2284658 4.14673333,23.4029991 4.9886,23.4029991 Z M11.7492,23.3875991 C12.3754667,23.3875991 12.858,23.2566991 13.1968,22.9948991 C13.5356,22.7330991 13.7768667,22.3532325 13.9206,21.8552991 C14.0643333,21.3573658 14.1362,20.7490658 14.1362,20.0303991 L14.1362,20.0303991 L14.1362,17.5663991 C14.1362,16.8477325 14.0643333,16.2394325 13.9206,15.7414991 C13.7768667,15.2435658 13.5356,14.8636991 13.1968,14.6018991 C12.858,14.3400991 12.3754667,14.2091991 11.7492,14.2091991 C11.1434667,14.2091991 10.6686333,14.3400991 10.3247,14.6018991 C9.98076667,14.8636991 9.73693333,15.2435658 9.5932,15.7414991 C9.44946667,16.2394325 9.3776,16.8477325 9.3776,17.5663991 L9.3776,17.5663991 L9.3776,20.0303991 C9.3776,20.7490658 9.44946667,21.3573658 9.5932,21.8552991 C9.73693333,22.3532325 9.98076667,22.7330991 10.3247,22.9948991 C10.6686333,23.2566991 11.1434667,23.3875991 11.7492,23.3875991 Z M11.7492,22.5405991 C11.3590667,22.5405991 11.0767333,22.4379325 10.9022,22.2325991 C10.7276667,22.0272658 10.6198667,21.7372325 10.5788,21.3624991 C10.5377333,20.9877658 10.5172,20.5642658 10.5172,20.0919991 L10.5172,20.0919991 L10.5172,17.5047991 C10.5172,17.0222658 10.5377333,16.5987658 10.5788,16.2342991 C10.6198667,15.8698325 10.7276667,15.5823658 10.9022,15.3718991 C11.0767333,15.1614325 11.3590667,15.0561991 11.7492,15.0561991 C12.1393333,15.0561991 12.4242333,15.1614325 12.6039,15.3718991 C12.7835667,15.5823658 12.8939333,15.8698325 12.935,16.2342991 C12.9760667,16.5987658 12.9966,17.0222658 12.9966,17.5047991 L12.9966,17.5047991 L12.9966,20.0919991 C12.9966,20.5642658 12.9760667,20.9877658 12.935,21.3624991 C12.8939333,21.7372325 12.7835667,22.0272658 12.6039,22.2325991 C12.4242333,22.4379325 12.1393333,22.5405991 11.7492,22.5405991 Z M16.7388,23.2489991 L16.7388,15.8723991 C16.9954667,15.5951991 17.2675333,15.3744658 17.555,15.2101991 C17.8424667,15.0459325 18.1248,14.9637991 18.402,14.9637991 C18.6586667,14.9637991 18.8717,15.0484991 19.0411,15.2178991 C19.2105,15.3872991 19.2952,15.7337991 19.2952,16.2573991 L19.2952,16.2573991 L19.2952,23.2489991 L20.3578,23.2489991 L20.3578,16.2265991 C20.3578,16.1649991 20.3552333,16.1059658 20.3501,16.0494991 C20.3449667,15.9930325 20.3372667,15.9391325 20.327,15.8877991 C20.5836667,15.6003325 20.8557333,15.3744658 21.1432,15.2101991 C21.4306667,15.0459325 21.7181333,14.9637991 22.0056,14.9637991 C22.2622667,14.9637991 22.4753,15.0484991 22.6447,15.2178991 C22.8141,15.3872991 22.8988,15.7337991 22.8988,16.2573991 L22.8988,16.2573991 L22.8988,23.2489991 L23.946,23.2489991 L23.946,16.2265991 C23.946,15.7132658 23.8741333,15.3077325 23.7304,15.0099991 C23.5866667,14.7122658 23.3993,14.5017991 23.1683,14.3785991 C22.9373,14.2553991 22.6934667,14.1937991 22.4368,14.1937991 C22.0261333,14.1937991 21.636,14.2913325 21.2664,14.4863991 C20.8968,14.6814658 20.558,14.9689325 20.25,15.3487991 C20.1370667,14.9073325 19.9497,14.6044658 19.6879,14.4401991 C19.4261,14.2759325 19.1412,14.1937991 18.8332,14.1937991 C18.4533333,14.1937991 18.0837333,14.2836325 17.7244,14.4632991 C17.3650667,14.6429658 17.0365333,14.9073325 16.7388,15.2563991 L16.7388,15.2563991 L16.7388,14.3477991 L15.6916,14.3477991 L15.6916,23.2489991 L16.7388,23.2489991 Z M26.8566,13.1157991 L26.8566,11.5911991 L25.7324,11.5911991 L25.7324,13.1157991 L26.8566,13.1157991 Z M26.8566,23.2489991 L26.8566,14.3477991 L25.7324,14.3477991 L25.7324,23.2489991 L26.8566,23.2489991 Z M30.8606,23.3567991 C31.0146,23.3567991 31.1737333,23.3490991 31.338,23.3336991 C31.5022667,23.3182991 31.6614,23.2951991 31.8154,23.2643991 L31.8154,23.2643991 L31.8154,22.4019991 C31.7127333,22.4225325 31.6023667,22.4404991 31.4843,22.4558991 C31.3662333,22.4712991 31.261,22.4789991 31.1686,22.4789991 C30.8400667,22.4789991 30.6270333,22.3891658 30.5295,22.2094991 C30.4319667,22.0298325 30.3832,21.7243991 30.3832,21.2931991 L30.3832,21.2931991 L30.3832,15.0869991 L31.8616,15.0869991 L31.8616,14.3477991 L30.3832,14.3477991 L30.3832,11.5911991 L29.259,11.5911991 L29.259,14.3477991 L28.1656,14.3477991 L28.1656,15.0869991 L29.259,15.0869991 L29.259,21.4009991 C29.259,21.7808658 29.3026333,22.1170991 29.3899,22.4096991 C29.4771667,22.7022991 29.6363,22.9332991 29.8673,23.1026991 C30.0983,23.2720991 30.4294,23.3567991 30.8606,23.3567991 Z M35.5422,13.6085991 L37.0514,10.5901991 L35.9272,10.5901991 L34.957,13.6085991 L35.5422,13.6085991 Z M35.2958,23.3875991 C36.1684667,23.3875991 36.7716333,23.1437658 37.1053,22.6560991 C37.4389667,22.1684325 37.6058,21.5190658 37.6058,20.7079991 L37.6058,20.7079991 L37.6058,20.2151991 L36.5124,20.2151991 L36.5124,20.8311991 C36.5124,21.2931991 36.4585,21.6499658 36.3507,21.9014991 C36.2429,22.1530325 36.0966,22.3224325 35.9118,22.4096991 C35.727,22.4969658 35.5216667,22.5405991 35.2958,22.5405991 C34.9980667,22.5405991 34.7542333,22.4687325 34.5643,22.3249991 C34.3743667,22.1812658 34.2357667,21.9425658 34.1485,21.6088991 C34.0612333,21.2752325 34.0176,20.8209325 34.0176,20.2459991 L34.0176,20.2459991 L34.0176,18.6905991 L37.6212,18.6905991 L37.6212,17.8897991 C37.6212,17.0479325 37.5570333,16.3574991 37.4287,15.8184991 C37.3003667,15.2794991 37.0719333,14.8765325 36.7434,14.6095991 C36.4148667,14.3426658 35.9374667,14.2091991 35.3112,14.2091991 C34.7670667,14.2091991 34.3153333,14.3144325 33.956,14.5248991 C33.5966667,14.7353658 33.3297333,15.0895658 33.1552,15.5874991 C32.9806667,16.0854325 32.8934,16.7758658 32.8934,17.6587991 L32.8934,17.6587991 L32.8934,19.9071991 C32.8934,20.7593325 32.9781,21.4420658 33.1475,21.9553991 C33.3169,22.4687325 33.5787,22.8357658 33.9329,23.0564991 C34.2871,23.2772325 34.7414,23.3875991 35.2958,23.3875991 Z M36.5124,18.0437991 L34.0176,18.0437991 L34.0176,17.4431991 C34.0176,16.8066658 34.0586667,16.3164325 34.1408,15.9724991 C34.2229333,15.6285658 34.3589667,15.3898658 34.5489,15.2563991 C34.7388333,15.1229325 34.9878,15.0561991 35.2958,15.0561991 C35.6654,15.0561991 35.9349,15.1460325 36.1043,15.3256991 C36.2737,15.5053658 36.3840667,15.7620325 36.4354,16.0956991 C36.4867333,16.4293658 36.5124,16.8323325 36.5124,17.3045991 L36.5124,17.3045991 L36.5124,18.0437991 Z M44.1816,22.4327991 C43.9146667,22.4327991 43.6785333,22.3326991 43.4732,22.1324991 C43.2678667,21.9322991 43.1652,21.5960658 43.1652,21.1237991 C43.1652,20.8260658 43.2114,20.5668325 43.3038,20.3460991 C43.3962,20.1253658 43.5399333,19.9277325 43.735,19.7531991 C43.9300667,19.5786658 44.1841667,19.3989991 44.4973,19.2141991 C44.8104333,19.0293991 45.1877333,18.8240658 45.6292,18.5981991 L45.6292,18.5981991 L45.6292,21.3701991 C45.5470667,21.5344658 45.4341333,21.6961658 45.2904,21.8552991 C45.1466667,22.0144325 44.9824,22.1504658 44.7976,22.2633991 C44.6128,22.3763325 44.4074667,22.4327991 44.1816,22.4327991 Z M45.66,22.018 L45.6705875,22.1339429 C45.6840625,22.2600304 45.7062,22.4135491 45.737,22.5944991 C45.7780667,22.8357658 45.8088667,23.0539325 45.8294,23.2489991 L45.8294,23.2489991 L46.8304,23.2489991 C46.8201333,23.1360658 46.8098667,22.9717991 46.7996,22.7561991 C46.7893333,22.5405991 46.7790667,22.3121658 46.7688,22.0708991 C46.7585333,21.8296325 46.7534,21.6319991 46.7534,21.4779991 L46.7534,21.4779991 L46.7534,17.1505991 C46.7534,16.1444658 46.5917,15.4026991 46.2683,14.9252991 C45.9449,14.4478991 45.3828,14.2091991 44.582,14.2091991 C43.7298667,14.2091991 43.1164333,14.4273658 42.7417,14.8636991 C42.3669667,15.3000325 42.1744667,15.9699325 42.1642,16.8733991 L42.1642,16.8733991 L43.273,16.8887991 L43.273,16.5807991 C43.273,16.1906658 43.3294667,15.8852325 43.4424,15.6644991 C43.5553333,15.4437658 43.7042,15.2871991 43.889,15.1947991 C44.0738,15.1023991 44.2842667,15.0561991 44.5204,15.0561991 C44.8078667,15.0561991 45.0311667,15.1229325 45.1903,15.2563991 C45.3494333,15.3898658 45.4623667,15.6131658 45.5291,15.9262991 C45.5958333,16.2394325 45.6292,16.6680658 45.6292,17.2121991 L45.6292,17.2121991 L45.6292,17.8435991 C44.9721333,18.1413325 44.4151667,18.4108325 43.9583,18.6520991 C43.5014333,18.8933658 43.1318333,19.1397658 42.8495,19.3912991 C42.5671667,19.6428325 42.3618333,19.9277325 42.2335,20.2459991 C42.1051667,20.5642658 42.041,20.9492658 42.041,21.4009991 C42.041,21.7603325 42.1154333,22.0914325 42.2643,22.3942991 C42.4131667,22.6971658 42.6210667,22.9384325 42.888,23.1180991 C43.1549333,23.2977658 43.4680667,23.3875991 43.8274,23.3875991 C44.2996667,23.3875991 44.6923667,23.2489991 45.0055,22.9717991 C45.3186333,22.6945991 45.5368,22.3763325 45.66,22.0169991 L45.66,22.018 Z M50.434,23.3875991 C50.896,23.3875991 51.2964,23.3028991 51.6352,23.1334991 C51.974,22.9640991 52.2383667,22.7228325 52.4283,22.4096991 C52.6182333,22.0965658 52.7132,21.7089991 52.7132,21.2469991 C52.7132,20.8363325 52.6413333,20.4795658 52.4976,20.1766991 C52.3538667,19.8738325 52.1690667,19.5991991 51.9432,19.3527991 C51.7173333,19.1063991 51.4812,18.8753991 51.2348,18.6597991 L51.2348,18.6597991 L49.972,17.5355991 C49.6948,17.2789325 49.5048667,17.0479325 49.4022,16.8425991 C49.2995333,16.6372658 49.2482,16.4011325 49.2482,16.1341991 C49.2482,15.7953991 49.3534333,15.5310325 49.5639,15.3410991 C49.7743667,15.1511658 50.049,15.0561991 50.3878,15.0561991 C50.6444667,15.0561991 50.8626333,15.1177991 51.0423,15.2409991 C51.2219667,15.3641991 51.3631333,15.5566991 51.4658,15.8184991 C51.5684667,16.0802991 51.6300667,16.4113991 51.6506,16.8117991 L51.6506,16.8117991 L52.4514,16.5499991 C52.4206,15.8621325 52.2306667,15.3000325 51.8816,14.8636991 C51.5325333,14.4273658 51.0192,14.2091991 50.3416,14.2091991 C49.9206667,14.2091991 49.5510667,14.2887658 49.2328,14.4478991 C48.9145333,14.6070325 48.6655667,14.8328991 48.4859,15.1254991 C48.3062333,15.4180991 48.2164,15.7799991 48.2164,16.2111991 C48.2164,16.6834658 48.3190667,17.0889991 48.5244,17.4277991 C48.7297333,17.7665991 49.0326,18.1053991 49.433,18.4441991 L49.433,18.4441991 L50.6496,19.4913991 C51.0192,19.8096658 51.2912667,20.1150991 51.4658,20.4076991 C51.6403333,20.7002991 51.7276,20.9903325 51.7276,21.2777991 C51.7276,21.6781991 51.6223667,21.9887658 51.4119,22.2094991 C51.2014333,22.4302325 50.9011333,22.5405991 50.511,22.5405991 C50.049,22.5405991 49.6896667,22.3840325 49.433,22.0708991 C49.1763333,21.7577658 49.0172,21.2572658 48.9556,20.5693991 L48.9556,20.5693991 L48.0162,20.8619991 C48.0778,21.6319991 48.3190667,22.2454325 48.74,22.7022991 C49.1609333,23.1591658 49.7256,23.3875991 50.434,23.3875991 Z M56.2244,23.3875991 C57.0970667,23.3875991 57.7002333,23.1437658 58.0339,22.6560991 C58.3675667,22.1684325 58.5344,21.5190658 58.5344,20.7079991 L58.5344,20.7079991 L58.5344,20.2151991 L57.441,20.2151991 L57.441,20.8311991 C57.441,21.2931991 57.3871,21.6499658 57.2793,21.9014991 C57.1715,22.1530325 57.0252,22.3224325 56.8404,22.4096991 C56.6556,22.4969658 56.4502667,22.5405991 56.2244,22.5405991 C55.9266667,22.5405991 55.6828333,22.4687325 55.4929,22.3249991 C55.3029667,22.1812658 55.1643667,21.9425658 55.0771,21.6088991 C54.9898333,21.2752325 54.9462,20.8209325 54.9462,20.2459991 L54.9462,20.2459991 L54.9462,18.6905991 L58.5498,18.6905991 L58.5498,17.8897991 C58.5498,17.0479325 58.4856333,16.3574991 58.3573,15.8184991 C58.2289667,15.2794991 58.0005333,14.8765325 57.672,14.6095991 C57.3434667,14.3426658 56.8660667,14.2091991 56.2398,14.2091991 C55.6956667,14.2091991 55.2439333,14.3144325 54.8846,14.5248991 C54.5252667,14.7353658 54.2583333,15.0895658 54.0838,15.5874991 C53.9092667,16.0854325 53.822,16.7758658 53.822,17.6587991 L53.822,17.6587991 L53.822,19.9071991 C53.822,20.7593325 53.9067,21.4420658 54.0761,21.9553991 C54.2455,22.4687325 54.5073,22.8357658 54.8615,23.0564991 C55.2157,23.2772325 55.67,23.3875991 56.2244,23.3875991 Z M57.441,18.0437991 L54.9462,18.0437991 L54.9462,17.4431991 C54.9462,16.8066658 54.9872667,16.3164325 55.0694,15.9724991 C55.1515333,15.6285658 55.2875667,15.3898658 55.4775,15.2563991 C55.6674333,15.1229325 55.9164,15.0561991 56.2244,15.0561991 C56.594,15.0561991 56.8635,15.1460325 57.0329,15.3256991 C57.2023,15.5053658 57.3126667,15.7620325 57.364,16.0956991 C57.4153333,16.4293658 57.441,16.8323325 57.441,17.3045991 L57.441,17.3045991 L57.441,18.0437991 Z M62.1072,23.3875991 C62.5692,23.3875991 62.9696,23.3028991 63.3084,23.1334991 C63.6472,22.9640991 63.9115667,22.7228325 64.1015,22.4096991 C64.2914333,22.0965658 64.3864,21.7089991 64.3864,21.2469991 C64.3864,20.8363325 64.3145333,20.4795658 64.1708,20.1766991 C64.0270667,19.8738325 63.8422667,19.5991991 63.6164,19.3527991 C63.3905333,19.1063991 63.1544,18.8753991 62.908,18.6597991 L62.908,18.6597991 L61.6452,17.5355991 C61.368,17.2789325 61.1780667,17.0479325 61.0754,16.8425991 C60.9727333,16.6372658 60.9214,16.4011325 60.9214,16.1341991 C60.9214,15.7953991 61.0266333,15.5310325 61.2371,15.3410991 C61.4475667,15.1511658 61.7222,15.0561991 62.061,15.0561991 C62.3176667,15.0561991 62.5358333,15.1177991 62.7155,15.2409991 C62.8951667,15.3641991 63.0363333,15.5566991 63.139,15.8184991 C63.2416667,16.0802991 63.3032667,16.4113991 63.3238,16.8117991 L63.3238,16.8117991 L64.1246,16.5499991 C64.0938,15.8621325 63.9038667,15.3000325 63.5548,14.8636991 C63.2057333,14.4273658 62.6924,14.2091991 62.0148,14.2091991 C61.5938667,14.2091991 61.2242667,14.2887658 60.906,14.4478991 C60.5877333,14.6070325 60.3387667,14.8328991 60.1591,15.1254991 C59.9794333,15.4180991 59.8896,15.7799991 59.8896,16.2111991 C59.8896,16.6834658 59.9922667,17.0889991 60.1976,17.4277991 C60.4029333,17.7665991 60.7058,18.1053991 61.1062,18.4441991 L61.1062,18.4441991 L62.3228,19.4913991 C62.6924,19.8096658 62.9644667,20.1150991 63.139,20.4076991 C63.3135333,20.7002991 63.4008,20.9903325 63.4008,21.2777991 C63.4008,21.6781991 63.2955667,21.9887658 63.0851,22.2094991 C62.8746333,22.4302325 62.5743333,22.5405991 62.1842,22.5405991 C61.7222,22.5405991 61.3628667,22.3840325 61.1062,22.0708991 C60.8495333,21.7577658 60.6904,21.2572658 60.6288,20.5693991 L60.6288,20.5693991 L59.6894,20.8619991 C59.751,21.6319991 59.9922667,22.2454325 60.4132,22.7022991 C60.8341333,23.1591658 61.3988,23.3875991 62.1072,23.3875991 Z M67.8668,23.3875991 C68.4930667,23.3875991 68.9756,23.2566991 69.3144,22.9948991 C69.6532,22.7330991 69.8944667,22.3532325 70.0382,21.8552991 C70.1819333,21.3573658 70.2538,20.7490658 70.2538,20.0303991 L70.2538,20.0303991 L70.2538,17.5663991 C70.2538,16.8477325 70.1819333,16.2394325 70.0382,15.7414991 C69.8944667,15.2435658 69.6532,14.8636991 69.3144,14.6018991 C68.9756,14.3400991 68.4930667,14.2091991 67.8668,14.2091991 C67.2610667,14.2091991 66.7862333,14.3400991 66.4423,14.6018991 C66.0983667,14.8636991 65.8545333,15.2435658 65.7108,15.7414991 C65.5670667,16.2394325 65.4952,16.8477325 65.4952,17.5663991 L65.4952,17.5663991 L65.4952,20.0303991 C65.4952,20.7490658 65.5670667,21.3573658 65.7108,21.8552991 C65.8545333,22.3532325 66.0983667,22.7330991 66.4423,22.9948991 C66.7862333,23.2566991 67.2610667,23.3875991 67.8668,23.3875991 Z M67.8668,22.5405991 C67.4766667,22.5405991 67.1943333,22.4379325 67.0198,22.2325991 C66.8452667,22.0272658 66.7374667,21.7372325 66.6964,21.3624991 C66.6553333,20.9877658 66.6348,20.5642658 66.6348,20.0919991 L66.6348,20.0919991 L66.6348,17.5047991 C66.6348,17.0222658 66.6553333,16.5987658 66.6964,16.2342991 C66.7374667,15.8698325 66.8452667,15.5823658 67.0198,15.3718991 C67.1943333,15.1614325 67.4766667,15.0561991 67.8668,15.0561991 C68.2569333,15.0561991 68.5418333,15.1614325 68.7215,15.3718991 C68.9011667,15.5823658 69.0115333,15.8698325 69.0526,16.2342991 C69.0936667,16.5987658 69.1142,17.0222658 69.1142,17.5047991 L69.1142,17.5047991 L69.1142,20.0919991 C69.1142,20.5642658 69.0936667,20.9877658 69.0526,21.3624991 C69.0115333,21.7372325 68.9011667,22.0272658 68.7215,22.2325991 C68.5418333,22.4379325 68.2569333,22.5405991 67.8668,22.5405991 Z M73.0258,23.2489991 L73.0258,16.4113991 C73.2414,16.0520658 73.4903667,15.7902658 73.7727,15.6259991 C74.0550333,15.4617325 74.3707333,15.3795991 74.7198,15.3795991 C74.8122,15.3795991 74.9097333,15.3872991 75.0124,15.4026991 C75.1150667,15.4180991 75.2023333,15.4411991 75.2742,15.4719991 L75.2742,15.4719991 L75.2742,14.2707991 C75.2331333,14.2605325 75.1972,14.2553991 75.1664,14.2553991 L75.1664,14.2553991 L75.074,14.2553991 C74.7352,14.2553991 74.381,14.3554991 74.0114,14.5556991 C73.6418,14.7558991 73.3132667,15.0921325 73.0258,15.5643991 L73.0258,15.5643991 L73.0258,14.3477991 L71.8862,14.3477991 L71.8862,23.2489991 L73.0258,23.2489991 Z" id="Comitéasesor" fill="#000000" fill-rule="nonzero"></path>
            <line x1="0.55" y1="0.5" x2="175.340882" y2="0.5" id="Path-5-Copy-3" stroke="#000000" stroke-width="0.5"></line>
        </g>
    </g>
</svg>