<?xml version="1.0" encoding="UTF-8"?>
<svg width="176px" height="27px" viewBox="0 0 176 27" version="1.1" xmlns="http://www.w3.org/2000/svg" xmlns:xlink="http://www.w3.org/1999/xlink">
    <title>equipo_BID</title>
    <g id="Page-1" stroke="none" stroke-width="1" fill="none" fill-rule="evenodd">
        <g id="equipo_BID">
            <path d="M6.621,23.2489991 L6.621,22.3711991 L3.2638,22.3711991 L3.2638,17.2275991 L5.9742,17.2275991 L5.9742,16.3651991 L3.2638,16.3651991 L3.2638,11.6835991 L6.5902,11.6835991 L6.5902,10.7749991 L2.078,10.7749991 L2.078,23.2489991 L6.621,23.2489991 Z M12.6424,26.1749991 L12.6424,14.3477991 L11.5182,14.3477991 L11.5182,14.9945991 C11.3436667,14.7892658 11.1255,14.6070325 10.8637,14.4478991 C10.6019,14.2887658 10.3016,14.2091991 9.9628,14.2091991 C9.38786667,14.2091991 8.94896667,14.3657658 8.6461,14.6788991 C8.34323333,14.9920325 8.13533333,15.4309325 8.0224,15.9955991 C7.90946667,16.5602658 7.853,17.2327325 7.853,18.0129991 L7.853,18.0129991 L7.853,19.6607991 C7.853,20.9954658 8.01983333,21.9502658 8.3535,22.5251991 C8.68716667,23.1001325 9.23386667,23.3875991 9.9936,23.3875991 C10.3324,23.3875991 10.6275667,23.3080325 10.8791,23.1488991 C11.1306333,22.9897658 11.3436667,22.8126658 11.5182,22.6175991 L11.5182,22.6175991 L11.5182,26.1749991 L12.6424,26.1749991 Z M10.2246,22.4943991 C9.8858,22.4943991 9.62656667,22.3917325 9.4469,22.1863991 C9.26723333,21.9810658 9.14403333,21.6730658 9.0773,21.2623991 C9.01056667,20.8517325 8.9772,20.3486658 8.9772,19.7531991 L8.9772,19.7531991 L8.9772,17.6433991 C8.9772,16.8117991 9.05676667,16.1778325 9.2159,15.7414991 C9.37503333,15.3051658 9.701,15.0869991 10.1938,15.0869991 C10.471,15.0869991 10.7225333,15.1562991 10.9484,15.2948991 C11.1742667,15.4334991 11.3642,15.5797991 11.5182,15.7337991 L11.5182,15.7337991 L11.5182,21.8937991 C11.3436667,22.0683325 11.1460333,22.2120658 10.9253,22.3249991 C10.7045667,22.4379325 10.471,22.4943991 10.2246,22.4943991 Z M15.6762,23.3875991 C16.0971333,23.3875991 16.4924,23.2823658 16.862,23.0718991 C17.2316,22.8614325 17.5601333,22.5919325 17.8476,22.2633991 L17.8476,22.2633991 L17.8476,23.2489991 L18.9718,23.2489991 L18.9718,14.3477991 L17.8476,14.3477991 L17.8476,21.6165991 C17.6114667,21.8732658 17.3573667,22.0837325 17.0853,22.2479991 C16.8132333,22.4122658 16.5437333,22.4943991 16.2768,22.4943991 C15.9893333,22.4943991 15.7763,22.4019991 15.6377,22.2171991 C15.4991,22.0323991 15.4298,21.7089991 15.4298,21.2469991 L15.4298,21.2469991 L15.4298,14.3477991 L14.2902,14.3477991 L14.2902,21.4933991 C14.2902,21.8937991 14.3441,22.2325991 14.4519,22.5097991 C14.5597,22.7869991 14.7162667,23.0025991 14.9216,23.1565991 C15.1269333,23.3105991 15.3784667,23.3875991 15.6762,23.3875991 Z M21.9594,13.1157991 L21.9594,11.5911991 L20.8352,11.5911991 L20.8352,13.1157991 L21.9594,13.1157991 Z M21.9594,23.2489991 L21.9594,14.3477991 L20.8352,14.3477991 L20.8352,23.2489991 L21.9594,23.2489991 Z M24.9778,26.1749991 L24.9778,22.5405991 C25.1523333,22.7356658 25.3705,22.9255991 25.6323,23.1103991 C25.8941,23.2951991 26.2046667,23.3875991 26.564,23.3875991 C27.1184,23.3875991 27.5521667,23.2310325 27.8653,22.9178991 C28.1784333,22.6047658 28.3966,22.1684325 28.5198,21.6088991 C28.643,21.0493658 28.7046,20.3897325 28.7046,19.6299991 L28.7046,19.6299991 L28.7046,17.7511991 C28.7046,17.3097325 28.6789333,16.8785325 28.6276,16.4575991 C28.5762667,16.0366658 28.4787333,15.6567991 28.335,15.3179991 C28.1912667,14.9791991 27.9885,14.7096991 27.7267,14.5094991 C27.4649,14.3092991 27.1184,14.2091991 26.6872,14.2091991 C26.2868,14.2091991 25.948,14.2990325 25.6708,14.4786991 C25.3936,14.6583658 25.1626,14.8611325 24.9778,15.0869991 L24.9778,15.0869991 L24.9778,14.3477991 L23.8536,14.3477991 L23.8536,26.1749991 L24.9778,26.1749991 Z M26.3946,22.4943991 C26.0968667,22.4943991 25.8273667,22.4302325 25.5861,22.3018991 C25.3448333,22.1735658 25.1420667,22.0221325 24.9778,21.8475991 L24.9778,21.8475991 L24.9778,15.7799991 C25.1318,15.6259991 25.3294333,15.4719991 25.5707,15.3179991 C25.8119667,15.1639991 26.0763333,15.0869991 26.3638,15.0869991 C26.7128667,15.0869991 26.9746667,15.1896658 27.1492,15.3949991 C27.3237333,15.6003325 27.4392333,15.9006325 27.4957,16.2958991 C27.5521667,16.6911658 27.5804,17.1762658 27.5804,17.7511991 L27.5804,17.7511991 L27.5804,19.6607991 C27.5804,20.2665325 27.5521667,20.7824325 27.4957,21.2084991 C27.4392333,21.6345658 27.3263,21.9553991 27.1569,22.1709991 C26.9875,22.3865991 26.7334,22.4943991 26.3946,22.4943991 Z M32.4776,23.3875991 C33.1038667,23.3875991 33.5864,23.2566991 33.9252,22.9948991 C34.264,22.7330991 34.5052667,22.3532325 34.649,21.8552991 C34.7927333,21.3573658 34.8646,20.7490658 34.8646,20.0303991 L34.8646,20.0303991 L34.8646,17.5663991 C34.8646,16.8477325 34.7927333,16.2394325 34.649,15.7414991 C34.5052667,15.2435658 34.264,14.8636991 33.9252,14.6018991 C33.5864,14.3400991 33.1038667,14.2091991 32.4776,14.2091991 C31.8718667,14.2091991 31.3970333,14.3400991 31.0531,14.6018991 C30.7091667,14.8636991 30.4653333,15.2435658 30.3216,15.7414991 C30.1778667,16.2394325 30.106,16.8477325 30.106,17.5663991 L30.106,17.5663991 L30.106,20.0303991 C30.106,20.7490658 30.1778667,21.3573658 30.3216,21.8552991 C30.4653333,22.3532325 30.7091667,22.7330991 31.0531,22.9948991 C31.3970333,23.2566991 31.8718667,23.3875991 32.4776,23.3875991 Z M32.4776,22.5405991 C32.0874667,22.5405991 31.8051333,22.4379325 31.6306,22.2325991 C31.4560667,22.0272658 31.3482667,21.7372325 31.3072,21.3624991 C31.2661333,20.9877658 31.2456,20.5642658 31.2456,20.0919991 L31.2456,20.0919991 L31.2456,17.5047991 C31.2456,17.0222658 31.2661333,16.5987658 31.3072,16.2342991 C31.3482667,15.8698325 31.4560667,15.5823658 31.6306,15.3718991 C31.8051333,15.1614325 32.0874667,15.0561991 32.4776,15.0561991 C32.8677333,15.0561991 33.1526333,15.1614325 33.3323,15.3718991 C33.5119667,15.5823658 33.6223333,15.8698325 33.6634,16.2342991 C33.7044667,16.5987658 33.725,17.0222658 33.725,17.5047991 L33.725,17.5047991 L33.725,20.0919991 C33.725,20.5642658 33.7044667,20.9877658 33.6634,21.3624991 C33.6223333,21.7372325 33.5119667,22.0272658 33.3323,22.2325991 C33.1526333,22.4379325 32.8677333,22.5405991 32.4776,22.5405991 Z M42.8726,23.2489991 C43.4578,23.2489991 43.9403333,23.1540325 44.3202,22.9640991 C44.7000667,22.7741658 45.0003667,22.5149325 45.2211,22.1863991 C45.4418333,21.8578658 45.5958333,21.4754325 45.6831,21.0390991 C45.7703667,20.6027658 45.814,20.1381991 45.814,19.6453991 C45.814,19.1936658 45.7601,18.7547658 45.6523,18.3286991 C45.5445,17.9026325 45.352,17.5278991 45.0748,17.2044991 C44.7976,16.8810991 44.4177333,16.6526658 43.9352,16.5191991 C44.3458667,16.4370658 44.6641333,16.2650991 44.89,16.0032991 C45.1158667,15.7414991 45.2775667,15.4232325 45.3751,15.0484991 C45.4726333,14.6737658 45.5214,14.2861991 45.5214,13.8857991 C45.5214,13.4237991 45.4675,13.0002991 45.3597,12.6152991 C45.2519,12.2302991 45.0799333,11.8991991 44.8438,11.6219991 C44.6076667,11.3447991 44.2945333,11.1343325 43.9044,10.9905991 C43.5142667,10.8468658 43.0368667,10.7749991 42.4722,10.7749991 L42.4722,10.7749991 L39.7926,10.7749991 L39.7926,23.2489991 L42.8726,23.2489991 Z M42.657,16.1495991 L40.963,16.1495991 L40.963,11.6835991 L42.0718,11.6835991 C42.7083333,11.6835991 43.196,11.7605991 43.5348,11.9145991 C43.8736,12.0685991 44.1123,12.3098658 44.2509,12.6383991 C44.3895,12.9669325 44.4588,13.3827325 44.4588,13.8857991 C44.4588,14.3477991 44.4074667,14.7456325 44.3048,15.0792991 C44.2021333,15.4129658 44.0224667,15.6747658 43.7658,15.8646991 C43.5091333,16.0546325 43.1395333,16.1495991 42.657,16.1495991 L42.657,16.1495991 Z M42.6416,22.3711991 L40.963,22.3711991 L40.963,17.0581991 L42.6724,17.0581991 C43.1754667,17.0581991 43.5733,17.1685658 43.8659,17.3892991 C44.1585,17.6100325 44.3664,17.9154658 44.4896,18.3055991 C44.6128,18.6957325 44.6744,19.1423325 44.6744,19.6453991 C44.6744,20.5796658 44.5383667,21.2675325 44.2663,21.7089991 C43.9942333,22.1504658 43.4526667,22.3711991 42.6416,22.3711991 L42.6416,22.3711991 Z M48.7246,23.2489991 L48.7246,10.7749991 L47.5542,10.7749991 L47.5542,23.2489991 L48.7246,23.2489991 Z M53.7604,23.2489991 C54.592,23.2489991 55.2439333,23.0898658 55.7162,22.7715991 C56.1884667,22.4533325 56.5272667,22.0041658 56.7326,21.4240991 C56.9379333,20.8440325 57.0406,20.1689991 57.0406,19.3989991 L57.0406,19.3989991 L57.0406,14.4401991 C57.0406,13.7112658 56.9379333,13.0695991 56.7326,12.5151991 C56.5272667,11.9607991 56.1807667,11.5321658 55.6931,11.2292991 C55.2054333,10.9264325 54.5252667,10.7749991 53.6526,10.7749991 L53.6526,10.7749991 L50.9422,10.7749991 L50.9422,23.2489991 L53.7604,23.2489991 Z M53.6834,22.3711991 L52.1126,22.3711991 L52.1126,11.6835991 L53.6372,11.6835991 C54.2634667,11.6835991 54.7331667,11.7939658 55.0463,12.0146991 C55.3594333,12.2354325 55.5699,12.5588325 55.6777,12.9848991 C55.7855,13.4109658 55.8394,13.9371325 55.8394,14.5633991 L55.8394,14.5633991 L55.8394,19.2141991 C55.8394,19.8199325 55.7983333,20.3614991 55.7162,20.8388991 C55.6340667,21.3162991 55.439,21.6910325 55.131,21.9630991 C54.823,22.2351658 54.3404667,22.3711991 53.6834,22.3711991 L53.6834,22.3711991 Z" id="EquipoBID" fill="#000000" fill-rule="nonzero"></path>
            <line x1="0.55" y1="0.5" x2="175.340882" y2="0.5" id="Path-5-Copy-4" stroke="#000000" stroke-width="0.5"></line>
        </g>
    </g>
</svg>