<?xml version="1.0" encoding="UTF-8"?>
<svg width="176px" height="24px" viewBox="0 0 176 24" version="1.1" xmlns="http://www.w3.org/2000/svg" xmlns:xlink="http://www.w3.org/1999/xlink">
    <title>jurado_bid18</title>
    <g id="Page-1" stroke="none" stroke-width="1" fill="none" fill-rule="evenodd">
        <g id="jurado_bid18">
            <path d="M1.693,23.7879991 C2.4014,23.7879991 2.93526667,23.6827658 3.2946,23.4722991 C3.65393333,23.2618325 3.8952,22.9358658 4.0184,22.4943991 C4.1416,22.0529325 4.2032,21.4882658 4.2032,20.8003991 L4.2032,20.8003991 L4.2032,10.7749991 L3.0328,10.7749991 L3.0328,20.7387991 C3.0328,21.1905325 3.01226667,21.5601325 2.9712,21.8475991 C2.93013333,22.1350658 2.84543333,22.3557991 2.7171,22.5097991 C2.58876667,22.6637991 2.39883333,22.7690325 2.1473,22.8254991 C1.89576667,22.8819658 1.5544,22.9101991 1.1232,22.9101991 L1.1232,22.9101991 L1.1232,23.7879991 L1.693,23.7879991 Z M7.468,23.3875991 C7.88893333,23.3875991 8.2842,23.2823658 8.6538,23.0718991 C9.0234,22.8614325 9.35193333,22.5919325 9.6394,22.2633991 L9.6394,22.2633991 L9.6394,23.2489991 L10.7636,23.2489991 L10.7636,14.3477991 L9.6394,14.3477991 L9.6394,21.6165991 C9.40326667,21.8732658 9.14916667,22.0837325 8.8771,22.2479991 C8.60503333,22.4122658 8.33553333,22.4943991 8.0686,22.4943991 C7.78113333,22.4943991 7.5681,22.4019991 7.4295,22.2171991 C7.2909,22.0323991 7.2216,21.7089991 7.2216,21.2469991 L7.2216,21.2469991 L7.2216,14.3477991 L6.082,14.3477991 L6.082,21.4933991 C6.082,21.8937991 6.1359,22.2325991 6.2437,22.5097991 C6.3515,22.7869991 6.50806667,23.0025991 6.7134,23.1565991 C6.91873333,23.3105991 7.17026667,23.3875991 7.468,23.3875991 Z M13.7204,23.2489991 L13.7204,16.4113991 C13.936,16.0520658 14.1849667,15.7902658 14.4673,15.6259991 C14.7496333,15.4617325 15.0653333,15.3795991 15.4144,15.3795991 C15.5068,15.3795991 15.6043333,15.3872991 15.707,15.4026991 C15.8096667,15.4180991 15.8969333,15.4411991 15.9688,15.4719991 L15.9688,15.4719991 L15.9688,14.2707991 C15.9277333,14.2605325 15.8918,14.2553991 15.861,14.2553991 L15.861,14.2553991 L15.7686,14.2553991 C15.4298,14.2553991 15.0756,14.3554991 14.706,14.5556991 C14.3364,14.7558991 14.0078667,15.0921325 13.7204,15.5643991 L13.7204,15.5643991 L13.7204,14.3477991 L12.5808,14.3477991 L12.5808,23.2489991 L13.7204,23.2489991 Z M18.941,22.4327991 C18.6740667,22.4327991 18.4379333,22.3326991 18.2326,22.1324991 C18.0272667,21.9322991 17.9246,21.5960658 17.9246,21.1237991 C17.9246,20.8260658 17.9708,20.5668325 18.0632,20.3460991 C18.1556,20.1253658 18.2993333,19.9277325 18.4944,19.7531991 C18.6894667,19.5786658 18.9435667,19.3989991 19.2567,19.2141991 C19.5698333,19.0293991 19.9471333,18.8240658 20.3886,18.5981991 L20.3886,18.5981991 L20.3886,21.3701991 C20.3064667,21.5344658 20.1935333,21.6961658 20.0498,21.8552991 C19.9060667,22.0144325 19.7418,22.1504658 19.557,22.2633991 C19.3722,22.3763325 19.1668667,22.4327991 18.941,22.4327991 Z M20.419,22.018 L20.4299875,22.1339429 C20.4434625,22.2600304 20.4656,22.4135491 20.4964,22.5944991 C20.5374667,22.8357658 20.5682667,23.0539325 20.5888,23.2489991 L20.5888,23.2489991 L21.5898,23.2489991 C21.5795333,23.1360658 21.5692667,22.9717991 21.559,22.7561991 C21.5487333,22.5405991 21.5384667,22.3121658 21.5282,22.0708991 C21.5179333,21.8296325 21.5128,21.6319991 21.5128,21.4779991 L21.5128,21.4779991 L21.5128,17.1505991 C21.5128,16.1444658 21.3511,15.4026991 21.0277,14.9252991 C20.7043,14.4478991 20.1422,14.2091991 19.3414,14.2091991 C18.4892667,14.2091991 17.8758333,14.4273658 17.5011,14.8636991 C17.1263667,15.3000325 16.9338667,15.9699325 16.9236,16.8733991 L16.9236,16.8733991 L18.0324,16.8887991 L18.0324,16.5807991 C18.0324,16.1906658 18.0888667,15.8852325 18.2018,15.6644991 C18.3147333,15.4437658 18.4636,15.2871991 18.6484,15.1947991 C18.8332,15.1023991 19.0436667,15.0561991 19.2798,15.0561991 C19.5672667,15.0561991 19.7905667,15.1229325 19.9497,15.2563991 C20.1088333,15.3898658 20.2217667,15.6131658 20.2885,15.9262991 C20.3552333,16.2394325 20.3886,16.6680658 20.3886,17.2121991 L20.3886,17.2121991 L20.3886,17.8435991 C19.7315333,18.1413325 19.1745667,18.4108325 18.7177,18.6520991 C18.2608333,18.8933658 17.8912333,19.1397658 17.6089,19.3912991 C17.3265667,19.6428325 17.1212333,19.9277325 16.9929,20.2459991 C16.8645667,20.5642658 16.8004,20.9492658 16.8004,21.4009991 C16.8004,21.7603325 16.8748333,22.0914325 17.0237,22.3942991 C17.1725667,22.6971658 17.3804667,22.9384325 17.6474,23.1180991 C17.9143333,23.2977658 18.2274667,23.3875991 18.5868,23.3875991 C19.0590667,23.3875991 19.4517667,23.2489991 19.7649,22.9717991 C20.0780333,22.6945991 20.2962,22.3763325 20.4194,22.0169991 L20.419,22.018 Z M25.1318,23.3875991 C25.4706,23.3875991 25.7657667,23.3080325 26.0173,23.1488991 C26.2688333,22.9897658 26.4818667,22.8126658 26.6564,22.6175991 L26.6564,22.6175991 L26.6564,23.2489991 L27.7806,23.2489991 L27.7806,10.7749991 L26.6564,10.7749991 L26.6564,14.9791991 C26.4818667,14.7841325 26.2637,14.6070325 26.0019,14.4478991 C25.7401,14.2887658 25.4346667,14.2091991 25.0856,14.2091991 C24.5209333,14.2091991 24.0871667,14.3657658 23.7843,14.6788991 C23.4814333,14.9920325 23.2735333,15.4309325 23.1606,15.9955991 C23.0476667,16.5602658 22.9912,17.2327325 22.9912,18.0129991 L22.9912,18.0129991 L22.9912,19.6607991 C22.9912,20.9954658 23.1580333,21.9502658 23.4917,22.5251991 C23.8253667,23.1001325 24.3720667,23.3875991 25.1318,23.3875991 Z M25.3628,22.4943991 C25.024,22.4943991 24.7647667,22.3917325 24.5851,22.1863991 C24.4054333,21.9810658 24.2822333,21.6730658 24.2155,21.2623991 C24.1487667,20.8517325 24.1154,20.3486658 24.1154,19.7531991 L24.1154,19.7531991 L24.1154,17.6433991 C24.1154,16.8117991 24.1949667,16.1778325 24.3541,15.7414991 C24.5132333,15.3051658 24.8392,15.0869991 25.332,15.0869991 C25.6092,15.0869991 25.8607333,15.1562991 26.0866,15.2948991 C26.3124667,15.4334991 26.5024,15.5746658 26.6564,15.7183991 L26.6564,15.7183991 L26.6564,21.9091991 C26.4818667,22.0734658 26.2842333,22.2120658 26.0635,22.3249991 C25.8427667,22.4379325 25.6092,22.4943991 25.3628,22.4943991 Z M31.723,23.3875991 C32.3492667,23.3875991 32.8318,23.2566991 33.1706,22.9948991 C33.5094,22.7330991 33.7506667,22.3532325 33.8944,21.8552991 C34.0381333,21.3573658 34.11,20.7490658 34.11,20.0303991 L34.11,20.0303991 L34.11,17.5663991 C34.11,16.8477325 34.0381333,16.2394325 33.8944,15.7414991 C33.7506667,15.2435658 33.5094,14.8636991 33.1706,14.6018991 C32.8318,14.3400991 32.3492667,14.2091991 31.723,14.2091991 C31.1172667,14.2091991 30.6424333,14.3400991 30.2985,14.6018991 C29.9545667,14.8636991 29.7107333,15.2435658 29.567,15.7414991 C29.4232667,16.2394325 29.3514,16.8477325 29.3514,17.5663991 L29.3514,17.5663991 L29.3514,20.0303991 C29.3514,20.7490658 29.4232667,21.3573658 29.567,21.8552991 C29.7107333,22.3532325 29.9545667,22.7330991 30.2985,22.9948991 C30.6424333,23.2566991 31.1172667,23.3875991 31.723,23.3875991 Z M31.723,22.5405991 C31.3328667,22.5405991 31.0505333,22.4379325 30.876,22.2325991 C30.7014667,22.0272658 30.5936667,21.7372325 30.5526,21.3624991 C30.5115333,20.9877658 30.491,20.5642658 30.491,20.0919991 L30.491,20.0919991 L30.491,17.5047991 C30.491,17.0222658 30.5115333,16.5987658 30.5526,16.2342991 C30.5936667,15.8698325 30.7014667,15.5823658 30.876,15.3718991 C31.0505333,15.1614325 31.3328667,15.0561991 31.723,15.0561991 C32.1131333,15.0561991 32.3980333,15.1614325 32.5777,15.3718991 C32.7573667,15.5823658 32.8677333,15.8698325 32.9088,16.2342991 C32.9498667,16.5987658 32.9704,17.0222658 32.9704,17.5047991 L32.9704,17.5047991 L32.9704,20.0919991 C32.9704,20.5642658 32.9498667,20.9877658 32.9088,21.3624991 C32.8677333,21.7372325 32.7573667,22.0272658 32.5777,22.2325991 C32.3980333,22.4379325 32.1131333,22.5405991 31.723,22.5405991 Z M42.118,23.2489991 C42.7032,23.2489991 43.1857333,23.1540325 43.5656,22.9640991 C43.9454667,22.7741658 44.2457667,22.5149325 44.4665,22.1863991 C44.6872333,21.8578658 44.8412333,21.4754325 44.9285,21.0390991 C45.0157667,20.6027658 45.0594,20.1381991 45.0594,19.6453991 C45.0594,19.1936658 45.0055,18.7547658 44.8977,18.3286991 C44.7899,17.9026325 44.5974,17.5278991 44.3202,17.2044991 C44.043,16.8810991 43.6631333,16.6526658 43.1806,16.5191991 C43.5912667,16.4370658 43.9095333,16.2650991 44.1354,16.0032991 C44.3612667,15.7414991 44.5229667,15.4232325 44.6205,15.0484991 C44.7180333,14.6737658 44.7668,14.2861991 44.7668,13.8857991 C44.7668,13.4237991 44.7129,13.0002991 44.6051,12.6152991 C44.4973,12.2302991 44.3253333,11.8991991 44.0892,11.6219991 C43.8530667,11.3447991 43.5399333,11.1343325 43.1498,10.9905991 C42.7596667,10.8468658 42.2822667,10.7749991 41.7176,10.7749991 L41.7176,10.7749991 L39.038,10.7749991 L39.038,23.2489991 L42.118,23.2489991 Z M41.9024,16.1495991 L40.2084,16.1495991 L40.2084,11.6835991 L41.3172,11.6835991 C41.9537333,11.6835991 42.4414,11.7605991 42.7802,11.9145991 C43.119,12.0685991 43.3577,12.3098658 43.4963,12.6383991 C43.6349,12.9669325 43.7042,13.3827325 43.7042,13.8857991 C43.7042,14.3477991 43.6528667,14.7456325 43.5502,15.0792991 C43.4475333,15.4129658 43.2678667,15.6747658 43.0112,15.8646991 C42.7545333,16.0546325 42.3849333,16.1495991 41.9024,16.1495991 L41.9024,16.1495991 Z M41.887,22.3711991 L40.2084,22.3711991 L40.2084,17.0581991 L41.9178,17.0581991 C42.4208667,17.0581991 42.8187,17.1685658 43.1113,17.3892991 C43.4039,17.6100325 43.6118,17.9154658 43.735,18.3055991 C43.8582,18.6957325 43.9198,19.1423325 43.9198,19.6453991 C43.9198,20.5796658 43.7837667,21.2675325 43.5117,21.7089991 C43.2396333,22.1504658 42.6980667,22.3711991 41.887,22.3711991 L41.887,22.3711991 Z M47.97,23.2489991 L47.97,10.7749991 L46.7996,10.7749991 L46.7996,23.2489991 L47.97,23.2489991 Z M53.0058,23.2489991 C53.8374,23.2489991 54.4893333,23.0898658 54.9616,22.7715991 C55.4338667,22.4533325 55.7726667,22.0041658 55.978,21.4240991 C56.1833333,20.8440325 56.286,20.1689991 56.286,19.3989991 L56.286,19.3989991 L56.286,14.4401991 C56.286,13.7112658 56.1833333,13.0695991 55.978,12.5151991 C55.7726667,11.9607991 55.4261667,11.5321658 54.9385,11.2292991 C54.4508333,10.9264325 53.7706667,10.7749991 52.898,10.7749991 L52.898,10.7749991 L50.1876,10.7749991 L50.1876,23.2489991 L53.0058,23.2489991 Z M52.9288,22.3711991 L51.358,22.3711991 L51.358,11.6835991 L52.8826,11.6835991 C53.5088667,11.6835991 53.9785667,11.7939658 54.2917,12.0146991 C54.6048333,12.2354325 54.8153,12.5588325 54.9231,12.9848991 C55.0309,13.4109658 55.0848,13.9371325 55.0848,14.5633991 L55.0848,14.5633991 L55.0848,19.2141991 C55.0848,19.8199325 55.0437333,20.3614991 54.9616,20.8388991 C54.8794667,21.3162991 54.6844,21.6910325 54.3764,21.9630991 C54.0684,22.2351658 53.5858667,22.3711991 52.9288,22.3711991 L52.9288,22.3711991 Z M63.986,23.2489991 L63.986,10.7749991 L63.0774,10.7749991 C62.9439333,10.9700658 62.7822333,11.1445991 62.5923,11.2985991 C62.4023667,11.4525991 62.2098667,11.5886325 62.0148,11.7066991 C61.8197333,11.8247658 61.6246667,11.9248658 61.4296,12.0069991 C61.2345333,12.0891325 61.0651333,12.1507325 60.9214,12.1917991 L60.9214,12.1917991 L60.9214,13.1003991 C60.9727333,13.0901325 61.0882333,13.0567658 61.2679,13.0002991 C61.4475667,12.9438325 61.6477667,12.8796658 61.8685,12.8077991 C62.0892333,12.7359325 62.292,12.6537991 62.4768,12.5613991 C62.6616,12.4689991 62.7848,12.3765991 62.8464,12.2841991 L62.8464,12.2841991 L62.8464,23.2489991 L63.986,23.2489991 Z M69.761,23.4029991 C70.4694,23.4029991 71.0392,23.2566991 71.4704,22.9640991 C71.9016,22.6714991 72.2121667,22.2633991 72.4021,21.7397991 C72.5920333,21.2161991 72.687,20.6053325 72.687,19.9071991 C72.687,19.3630658 72.6305333,18.9087658 72.5176,18.5442991 C72.4046667,18.1798325 72.2635,17.8795325 72.0941,17.6433991 C71.9247,17.4072658 71.7322,17.2173325 71.5166,17.0735991 C71.301,16.9298658 71.0905333,16.8066658 70.8852,16.7039991 C71.3882667,16.4883991 71.7912333,16.1495991 72.0941,15.6875991 C72.3969667,15.2255991 72.5484,14.5993325 72.5484,13.8087991 C72.5484,13.1927991 72.4585667,12.6486658 72.2789,12.1763991 C72.0992333,11.7041325 71.8040667,11.3319658 71.3934,11.0598991 C70.9827333,10.7878325 70.4386,10.6517991 69.761,10.6517991 C69.0834,10.6517991 68.5367,10.7852658 68.1209,11.0521991 C67.7051,11.3191325 67.4048,11.6887325 67.22,12.1609991 C67.0352,12.6332658 66.9428,13.1722658 66.9428,13.7779991 C66.9428,14.5685325 67.0968,15.2024991 67.4048,15.6798991 C67.7128,16.1572991 68.1183333,16.4986658 68.6214,16.7039991 C68.4160667,16.8066658 68.2056,16.9298658 67.99,17.0735991 C67.7744,17.2173325 67.5793333,17.4072658 67.4048,17.6433991 C67.2302667,17.8795325 67.0891,18.1798325 66.9813,18.5442991 C66.8735,18.9087658 66.8196,19.3630658 66.8196,19.9071991 C66.8196,20.6053325 66.9171333,21.2161991 67.1122,21.7397991 C67.3072667,22.2633991 67.6178333,22.6714991 68.0439,22.9640991 C68.4699667,23.2566991 69.0423333,23.4029991 69.761,23.4029991 Z M69.761,16.1957991 C69.3298,16.1752658 68.9884333,16.0571991 68.7369,15.8415991 C68.4853667,15.6259991 68.3082667,15.3359658 68.2056,14.9714991 C68.1029333,14.6070325 68.0516,14.2040658 68.0516,13.7625991 C68.0516,13.0439325 68.1876333,12.4972325 68.4597,12.1224991 C68.7317667,11.7477658 69.1655333,11.5603991 69.761,11.5603991 C70.3462,11.5603991 70.7722667,11.7477658 71.0392,12.1224991 C71.3061333,12.4972325 71.4396,13.0439325 71.4396,13.7625991 C71.4396,14.2040658 71.3882667,14.6070325 71.2856,14.9714991 C71.1829333,15.3359658 71.0109667,15.6259991 70.7697,15.8415991 C70.5284333,16.0571991 70.1922,16.1752658 69.761,16.1957991 Z M69.761,22.4943991 C69.3503333,22.4943991 69.0089667,22.4019991 68.7369,22.2171991 C68.4648333,22.0323991 68.2595,21.7474991 68.1209,21.3624991 C67.9823,20.9774991 67.913,20.4923991 67.913,19.9071991 C67.913,19.3938658 67.9720333,18.9446991 68.0901,18.5596991 C68.2081667,18.1746991 68.4032333,17.8641325 68.6753,17.6279991 C68.9473667,17.3918658 69.3092667,17.2583991 69.761,17.2275991 C70.2127333,17.2583991 70.5695,17.3918658 70.8313,17.6279991 C71.0931,17.8641325 71.2830333,18.1746991 71.4011,18.5596991 C71.5191667,18.9446991 71.5782,19.3938658 71.5782,19.9071991 C71.5782,20.4923991 71.5114667,20.9774991 71.378,21.3624991 C71.2445333,21.7474991 71.0443333,22.0323991 70.7774,22.2171991 C70.5104667,22.4019991 70.1716667,22.4943991 69.761,22.4943991 Z" id="JuradoBID18" fill="#000000" fill-rule="nonzero"></path>
            <line x1="0.55" y1="0.5" x2="175.340882" y2="0.5" id="Path-5-Copy-6" stroke="#000000" stroke-width="0.5"></line>
        </g>
    </g>
</svg>