<?xml version="1.0" encoding="UTF-8"?>
<svg width="183px" height="39px" viewBox="0 0 183 39" version="1.1" xmlns="http://www.w3.org/2000/svg" xmlns:xlink="http://www.w3.org/1999/xlink">
    <title>ciudad</title>
    <g id="Page-1" stroke="none" stroke-width="1" fill="none" fill-rule="evenodd">
        <g id="ciudad" transform="translate(-0.000000, 0.000000)">
            <path d="M51.9116,16.248999 C52.7432,16.248999 53.3951333,16.0898657 53.8674,15.771599 C54.3396667,15.4533323 54.6784667,15.0041657 54.8838,14.424099 C55.0891333,13.8440323 55.1918,13.168999 55.1918,12.398999 L55.1918,12.398999 L55.1918,7.440199 C55.1918,6.71126567 55.0891333,6.069599 54.8838,5.515199 C54.6784667,4.960799 54.3319667,4.53216567 53.8443,4.229299 C53.3566333,3.92643233 52.6764667,3.774999 51.8038,3.774999 L51.8038,3.774999 L49.0934,3.774999 L49.0934,16.248999 L51.9116,16.248999 Z M51.8346,15.371199 L50.2638,15.371199 L50.2638,4.683599 L51.7884,4.683599 C52.4146667,4.683599 52.8843667,4.79396567 53.1975,5.014699 C53.5106333,5.23543233 53.7211,5.55883233 53.8289,5.984899 C53.9367,6.41096567 53.9906,6.93713233 53.9906,7.563399 L53.9906,7.563399 L53.9906,12.214199 C53.9906,12.8199323 53.9495333,13.361499 53.8674,13.838899 C53.7852667,14.316299 53.5902,14.6910323 53.2822,14.963099 C52.9742,15.2351657 52.4916667,15.371199 51.8346,15.371199 L51.8346,15.371199 Z M58.1332,6.115799 L58.1332,4.591199 L57.009,4.591199 L57.009,6.115799 L58.1332,6.115799 Z M58.1332,16.248999 L58.1332,7.347799 L57.009,7.347799 L57.009,16.248999 L58.1332,16.248999 Z M62.0602,16.387599 C62.5222,16.387599 62.9226,16.302899 63.2614,16.133499 C63.6002,15.964099 63.8645667,15.7228323 64.0545,15.409699 C64.2444333,15.0965657 64.3394,14.708999 64.3394,14.246999 C64.3394,13.8363323 64.2675333,13.4795657 64.1238,13.176699 C63.9800667,12.8738323 63.7952667,12.599199 63.5694,12.352799 C63.3435333,12.106399 63.1074,11.875399 62.861,11.659799 L62.861,11.659799 L61.5982,10.535599 C61.321,10.2789323 61.1310667,10.0479323 61.0284,9.842599 C60.9257333,9.63726567 60.8744,9.40113233 60.8744,9.134199 C60.8744,8.795399 60.9796333,8.53103233 61.1901,8.341099 C61.4005667,8.15116567 61.6752,8.056199 62.014,8.056199 C62.2706667,8.056199 62.4888333,8.117799 62.6685,8.240999 C62.8481667,8.364199 62.9893333,8.556699 63.092,8.818499 C63.1946667,9.080299 63.2562667,9.411399 63.2768,9.811799 L63.2768,9.811799 L64.0776,9.549999 C64.0468,8.86213233 63.8568667,8.30003233 63.5078,7.863699 C63.1587333,7.42736567 62.6454,7.209199 61.9678,7.209199 C61.5468667,7.209199 61.1772667,7.28876567 60.859,7.447899 C60.5407333,7.60703233 60.2917667,7.832899 60.1121,8.125499 C59.9324333,8.418099 59.8426,8.779999 59.8426,9.211199 C59.8426,9.68346567 59.9452667,10.088999 60.1506,10.427799 C60.3559333,10.766599 60.6588,11.105399 61.0592,11.444199 L61.0592,11.444199 L62.2758,12.491399 C62.6454,12.8096657 62.9174667,13.115099 63.092,13.407699 C63.2665333,13.700299 63.3538,13.9903323 63.3538,14.277799 C63.3538,14.678199 63.2485667,14.9887657 63.0381,15.209499 C62.8276333,15.4302323 62.5273333,15.540599 62.1372,15.540599 C61.6752,15.540599 61.3158667,15.3840323 61.0592,15.070899 C60.8025333,14.7577657 60.6434,14.2572657 60.5818,13.569399 L60.5818,13.569399 L59.6424,13.861999 C59.704,14.631999 59.9452667,15.2454323 60.3662,15.702299 C60.7871333,16.1591657 61.3518,16.387599 62.0602,16.387599 Z M67.8506,16.387599 C68.7232667,16.387599 69.3264333,16.1437657 69.6601,15.656099 C69.9937667,15.1684323 70.1606,14.5190657 70.1606,13.707999 L70.1606,13.707999 L70.1606,13.215199 L69.0672,13.215199 L69.0672,13.831199 C69.0672,14.293199 69.0133,14.6499657 68.9055,14.901499 C68.7977,15.1530323 68.6514,15.3224323 68.4666,15.409699 C68.2818,15.4969657 68.0764667,15.540599 67.8506,15.540599 C67.5528667,15.540599 67.3090333,15.4687323 67.1191,15.324999 C66.9291667,15.1812657 66.7905667,14.9425657 66.7033,14.608899 C66.6160333,14.2752323 66.5724,13.8209323 66.5724,13.245999 L66.5724,13.245999 L66.5724,11.690599 L70.176,11.690599 L70.176,10.889799 C70.176,10.0479323 70.1118333,9.357499 69.9835,8.818499 C69.8551667,8.279499 69.6267333,7.87653233 69.2982,7.609599 C68.9696667,7.34266567 68.4922667,7.209199 67.866,7.209199 C67.3218667,7.209199 66.8701333,7.31443233 66.5108,7.524899 C66.1514667,7.73536567 65.8845333,8.08956567 65.71,8.587499 C65.5354667,9.08543233 65.4482,9.77586567 65.4482,10.658799 L65.4482,10.658799 L65.4482,12.907199 C65.4482,13.7593323 65.5329,14.4420657 65.7023,14.955399 C65.8717,15.4687323 66.1335,15.8357657 66.4877,16.056499 C66.8419,16.2772323 67.2962,16.387599 67.8506,16.387599 Z M69.0672,11.043799 L66.5724,11.043799 L66.5724,10.443199 C66.5724,9.80666567 66.6134667,9.31643233 66.6956,8.972499 C66.7777333,8.62856567 66.9137667,8.38986567 67.1037,8.256399 C67.2936333,8.12293233 67.5426,8.056199 67.8506,8.056199 C68.2202,8.056199 68.4897,8.14603233 68.6591,8.325699 C68.8285,8.50536567 68.9388667,8.76203233 68.9902,9.095699 C69.0415333,9.42936567 69.0672,9.83233233 69.0672,10.304599 L69.0672,10.304599 L69.0672,11.043799 Z M74.9346,5.592199 C75.2426,5.592199 75.4736,5.51263233 75.6276,5.353499 C75.7816,5.19436567 75.8817,5.00443233 75.9279,4.783699 C75.9741,4.56296567 75.9972,4.360199 75.9972,4.175399 L75.9972,4.175399 L75.3196,4.175399 C75.3196,4.421799 75.2785333,4.59376567 75.1964,4.691299 C75.1142667,4.78883233 74.9859333,4.837599 74.8114,4.837599 C74.6266,4.837599 74.4469333,4.775999 74.2724,4.652799 C74.0978667,4.529599 73.9130667,4.40896567 73.718,4.290899 C73.5229333,4.17283233 73.3022,4.113799 73.0558,4.113799 C72.7683333,4.113799 72.5476,4.190799 72.3936,4.344799 C72.2396,4.498799 72.1343667,4.68103233 72.0779,4.891499 C72.0214333,5.10196567 71.9932,5.29446567 71.9932,5.468999 L71.9932,5.468999 L72.6862,5.468999 C72.6862,5.26366567 72.7298333,5.10966567 72.8171,5.006999 C72.9043667,4.90433233 73.0301333,4.852999 73.1944,4.852999 C73.3792,4.852999 73.5563,4.914599 73.7257,5.037799 C73.8951,5.160999 74.0773333,5.284199 74.2724,5.407399 C74.4674667,5.530599 74.6882,5.592199 74.9346,5.592199 Z M72.8248,16.248999 L72.8248,8.918599 C73.0609333,8.672199 73.3124667,8.471999 73.5794,8.317999 C73.8463333,8.163999 74.1081333,8.086999 74.3648,8.086999 C74.6522667,8.086999 74.8653,8.18196567 75.0039,8.371899 C75.1425,8.56183233 75.2118,8.887799 75.2118,9.349799 L75.2118,9.349799 L75.2118,16.248999 L76.336,16.248999 L76.336,9.103399 C76.336,8.702999 76.2846667,8.36163233 76.182,8.079299 C76.0793333,7.79696567 75.9253333,7.58136567 75.72,7.432499 C75.5146667,7.28363233 75.2631333,7.209199 74.9654,7.209199 C74.5444667,7.209199 74.1543333,7.309299 73.795,7.509499 C73.4356667,7.709699 73.1122667,7.963799 72.8248,8.271799 L72.8248,8.271799 L72.8248,7.347799 L71.7006,7.347799 L71.7006,16.248999 L72.8248,16.248999 Z M80.2014,16.387599 C80.8276667,16.387599 81.3102,16.256699 81.649,15.994899 C81.9878,15.733099 82.2290667,15.3532323 82.3728,14.855299 C82.5165333,14.3573657 82.5884,13.7490657 82.5884,13.030399 L82.5884,13.030399 L82.5884,10.566399 C82.5884,9.84773233 82.5165333,9.23943233 82.3728,8.741499 C82.2290667,8.24356567 81.9878,7.863699 81.649,7.601899 C81.3102,7.340099 80.8276667,7.209199 80.2014,7.209199 C79.5956667,7.209199 79.1208333,7.340099 78.7769,7.601899 C78.4329667,7.863699 78.1891333,8.24356567 78.0454,8.741499 C77.9016667,9.23943233 77.8298,9.84773233 77.8298,10.566399 L77.8298,10.566399 L77.8298,13.030399 C77.8298,13.7490657 77.9016667,14.3573657 78.0454,14.855299 C78.1891333,15.3532323 78.4329667,15.733099 78.7769,15.994899 C79.1208333,16.256699 79.5956667,16.387599 80.2014,16.387599 Z M80.2014,15.540599 C79.8112667,15.540599 79.5289333,15.4379323 79.3544,15.232599 C79.1798667,15.0272657 79.0720667,14.7372323 79.031,14.362499 C78.9899333,13.9877657 78.9694,13.5642657 78.9694,13.091999 L78.9694,13.091999 L78.9694,10.504799 C78.9694,10.0222657 78.9899333,9.59876567 79.031,9.234299 C79.0720667,8.86983233 79.1798667,8.58236567 79.3544,8.371899 C79.5289333,8.16143233 79.8112667,8.056199 80.2014,8.056199 C80.5915333,8.056199 80.8764333,8.16143233 81.0561,8.371899 C81.2357667,8.58236567 81.3461333,8.86983233 81.3872,9.234299 C81.4282667,9.59876567 81.4488,10.0222657 81.4488,10.504799 L81.4488,10.504799 L81.4488,13.091999 C81.4488,13.5642657 81.4282667,13.9877657 81.3872,14.362499 C81.3461333,14.7372323 81.2357667,15.0272657 81.0561,15.232599 C80.8764333,15.4379323 80.5915333,15.540599 80.2014,15.540599 Z M87.3316,18.466599 C87.8346667,18.466599 88.2581667,18.412699 88.6021,18.304899 C88.9460333,18.197099 89.2232333,18.027699 89.4337,17.796699 C89.6441667,17.565699 89.7904667,17.2602657 89.8726,16.880399 L89.8726,16.880399 L92.0286,7.347799 L90.889,7.347799 L89.3952,14.924599 L87.8552,7.347799 L86.731,7.347799 L88.5636,15.186399 C88.6354667,15.4738657 88.7022,15.7510657 88.7638,16.017999 C88.8254,16.2849323 88.8562,16.5005323 88.8562,16.664799 C88.8562,16.849599 88.8125667,17.011299 88.7253,17.149899 C88.6380333,17.288499 88.4635,17.396299 88.2017,17.473299 C87.9399,17.550299 87.5523333,17.588799 87.039,17.588799 L87.039,17.588799 L87.039,18.466599 L87.3316,18.466599 Z M99.4206,16.402999 C100.200867,16.402999 100.804033,16.2438657 101.2301,15.925599 C101.656167,15.6073323 101.9539,15.1684323 102.1233,14.608899 C102.2927,14.0493657 102.3774,13.4051323 102.3774,12.676199 L102.3774,12.676199 L102.3774,11.936999 L101.2686,11.936999 L101.2686,12.753199 C101.2686,13.2973323 101.224967,13.7721657 101.1377,14.177699 C101.050433,14.5832323 100.8759,14.8989323 100.6141,15.124799 C100.3523,15.3506657 99.9596,15.463599 99.436,15.463599 C98.9226667,15.463599 98.5222667,15.3609323 98.2348,15.155599 C97.9473333,14.9502657 97.7445667,14.6422657 97.6265,14.231599 C97.5084333,13.8209323 97.4494,13.307599 97.4494,12.691599 L97.4494,12.691599 L97.4494,7.378599 C97.4494,6.824199 97.4981667,6.33653233 97.5957,5.915599 C97.6932333,5.49466567 97.8831667,5.168699 98.1655,4.937699 C98.4478333,4.706699 98.8713333,4.591199 99.436,4.591199 C99.9493333,4.591199 100.339467,4.698999 100.6064,4.914599 C100.873333,5.130199 101.050433,5.43306567 101.1377,5.823199 C101.224967,6.21333233 101.2686,6.68046567 101.2686,7.224599 L101.2686,7.224599 L101.2686,7.948399 L102.3774,7.948399 L102.3774,7.193799 C102.3774,6.46486567 102.285,5.83603233 102.1002,5.307299 C101.9154,4.77856567 101.609967,4.37046567 101.1839,4.082999 C100.757833,3.79553233 100.170067,3.651799 99.4206,3.651799 C98.5992667,3.651799 97.9576,3.81606567 97.4956,4.144599 C97.0336,4.47313233 96.7127667,4.929999 96.5331,5.515199 C96.3534333,6.100399 96.2636,6.777999 96.2636,7.547999 L96.2636,7.547999 L96.2636,12.506799 C96.2636,13.2254657 96.3508667,13.8799657 96.5254,14.470299 C96.6999333,15.0606323 97.0156333,15.5303323 97.4725,15.879399 C97.9293667,16.2284657 98.5787333,16.402999 99.4206,16.402999 Z M105.2264,6.115799 L105.2264,4.591199 L104.1022,4.591199 L104.1022,6.115799 L105.2264,6.115799 Z M105.2264,16.248999 L105.2264,7.347799 L104.1022,7.347799 L104.1022,16.248999 L105.2264,16.248999 Z M108.4296,16.387599 C108.850533,16.387599 109.2458,16.2823657 109.6154,16.071899 C109.985,15.8614323 110.313533,15.5919323 110.601,15.263399 L110.601,15.263399 L110.601,16.248999 L111.7252,16.248999 L111.7252,7.347799 L110.601,7.347799 L110.601,14.616599 C110.364867,14.8732657 110.110767,15.0837323 109.8387,15.247999 C109.566633,15.4122657 109.297133,15.494399 109.0302,15.494399 C108.742733,15.494399 108.5297,15.401999 108.3911,15.217199 C108.2525,15.032399 108.1832,14.708999 108.1832,14.246999 L108.1832,14.246999 L108.1832,7.347799 L107.0436,7.347799 L107.0436,14.493399 C107.0436,14.893799 107.0975,15.232599 107.2053,15.509799 C107.3131,15.786999 107.469667,16.002599 107.675,16.156599 C107.880333,16.310599 108.131867,16.387599 108.4296,16.387599 Z M115.4366,16.387599 C115.7754,16.387599 116.070567,16.3080323 116.3221,16.148899 C116.573633,15.9897657 116.786667,15.8126657 116.9612,15.617599 L116.9612,15.617599 L116.9612,16.248999 L118.0854,16.248999 L118.0854,3.774999 L116.9612,3.774999 L116.9612,7.979199 C116.786667,7.78413233 116.5685,7.60703233 116.3067,7.447899 C116.0449,7.28876567 115.739467,7.209199 115.3904,7.209199 C114.825733,7.209199 114.391967,7.36576567 114.0891,7.678899 C113.786233,7.99203233 113.578333,8.43093233 113.4654,8.995599 C113.352467,9.56026567 113.296,10.2327323 113.296,11.012999 L113.296,11.012999 L113.296,12.660799 C113.296,13.9954657 113.462833,14.9502657 113.7965,15.525199 C114.130167,16.1001323 114.676867,16.387599 115.4366,16.387599 Z M115.6676,15.494399 C115.3288,15.494399 115.069567,15.3917323 114.8899,15.186399 C114.710233,14.9810657 114.587033,14.6730657 114.5203,14.262399 C114.453567,13.8517323 114.4202,13.3486657 114.4202,12.753199 L114.4202,12.753199 L114.4202,10.643399 C114.4202,9.811799 114.499767,9.17783233 114.6589,8.741499 C114.818033,8.30516567 115.144,8.086999 115.6368,8.086999 C115.914,8.086999 116.165533,8.156299 116.3914,8.294899 C116.617267,8.433499 116.8072,8.57466567 116.9612,8.718399 L116.9612,8.718399 L116.9612,14.909199 C116.786667,15.0734657 116.589033,15.2120657 116.3683,15.324999 C116.147567,15.4379323 115.914,15.494399 115.6676,15.494399 Z M121.7198,15.432799 C121.452867,15.432799 121.216733,15.332699 121.0114,15.132499 C120.806067,14.932299 120.7034,14.5960657 120.7034,14.123799 C120.7034,13.8260657 120.7496,13.5668323 120.842,13.346099 C120.9344,13.1253657 121.078133,12.9277323 121.2732,12.753199 C121.468267,12.5786657 121.722367,12.398999 122.0355,12.214199 C122.348633,12.029399 122.725933,11.8240657 123.1674,11.598199 L123.1674,11.598199 L123.1674,14.370199 C123.085267,14.5344657 122.972333,14.6961657 122.8286,14.855299 C122.684867,15.0144323 122.5206,15.1504657 122.3358,15.263399 C122.151,15.3763323 121.945667,15.432799 121.7198,15.432799 Z M123.198,15.018 L123.208787,15.1339427 C123.222262,15.2600302 123.2444,15.413549 123.2752,15.594499 C123.316267,15.8357657 123.347067,16.0539323 123.3676,16.248999 L123.3676,16.248999 L124.3686,16.248999 C124.358333,16.1360657 124.348067,15.971799 124.3378,15.756199 C124.327533,15.540599 124.317267,15.3121657 124.307,15.070899 C124.296733,14.8296323 124.2916,14.631999 124.2916,14.477999 L124.2916,14.477999 L124.2916,10.150599 C124.2916,9.14446567 124.1299,8.402699 123.8065,7.925299 C123.4831,7.447899 122.921,7.209199 122.1202,7.209199 C121.268067,7.209199 120.654633,7.42736567 120.2799,7.863699 C119.905167,8.30003233 119.712667,8.96993233 119.7024,9.873399 L119.7024,9.873399 L120.8112,9.888799 L120.8112,9.580799 C120.8112,9.19066567 120.867667,8.88523233 120.9806,8.664499 C121.093533,8.44376567 121.2424,8.287199 121.4272,8.194799 C121.612,8.102399 121.822467,8.056199 122.0586,8.056199 C122.346067,8.056199 122.569367,8.12293233 122.7285,8.256399 C122.887633,8.38986567 123.000567,8.61316567 123.0673,8.926299 C123.134033,9.23943233 123.1674,9.66806567 123.1674,10.212199 L123.1674,10.212199 L123.1674,10.843599 C122.510333,11.1413323 121.953367,11.4108323 121.4965,11.652099 C121.039633,11.8933657 120.670033,12.1397657 120.3877,12.391299 C120.105367,12.6428323 119.900033,12.9277323 119.7717,13.245999 C119.643367,13.5642657 119.5792,13.9492657 119.5792,14.400999 C119.5792,14.7603323 119.653633,15.0914323 119.8025,15.394299 C119.951367,15.6971657 120.159267,15.9384323 120.4262,16.118099 C120.693133,16.2977657 121.006267,16.387599 121.3656,16.387599 C121.837867,16.387599 122.230567,16.248999 122.5437,15.971799 C122.856833,15.694599 123.075,15.3763323 123.1982,15.016999 L123.198,15.018 Z M127.9106,16.387599 C128.2494,16.387599 128.544567,16.3080323 128.7961,16.148899 C129.047633,15.9897657 129.260667,15.8126657 129.4352,15.617599 L129.4352,15.617599 L129.4352,16.248999 L130.5594,16.248999 L130.5594,3.774999 L129.4352,3.774999 L129.4352,7.979199 C129.260667,7.78413233 129.0425,7.60703233 128.7807,7.447899 C128.5189,7.28876567 128.213467,7.209199 127.8644,7.209199 C127.299733,7.209199 126.865967,7.36576567 126.5631,7.678899 C126.260233,7.99203233 126.052333,8.43093233 125.9394,8.995599 C125.826467,9.56026567 125.77,10.2327323 125.77,11.012999 L125.77,11.012999 L125.77,12.660799 C125.77,13.9954657 125.936833,14.9502657 126.2705,15.525199 C126.604167,16.1001323 127.150867,16.387599 127.9106,16.387599 Z M128.1416,15.494399 C127.8028,15.494399 127.543567,15.3917323 127.3639,15.186399 C127.184233,14.9810657 127.061033,14.6730657 126.9943,14.262399 C126.927567,13.8517323 126.8942,13.3486657 126.8942,12.753199 L126.8942,12.753199 L126.8942,10.643399 C126.8942,9.811799 126.973767,9.17783233 127.1329,8.741499 C127.292033,8.30516567 127.618,8.086999 128.1108,8.086999 C128.388,8.086999 128.639533,8.156299 128.8654,8.294899 C129.091267,8.433499 129.2812,8.57466567 129.4352,8.718399 L129.4352,8.718399 L129.4352,14.909199 C129.260667,15.0734657 129.063033,15.2120657 128.8423,15.324999 C128.621567,15.4379323 128.388,15.494399 128.1416,15.494399 Z M49.3706,32.497998 L52.9126,20.023998 L51.927,20.023998 L48.3696,32.497998 L49.3706,32.497998 Z M57.9946,32.497998 L58.626,29.156198 L61.5982,29.156198 L62.2142,32.497998 L63.3692,32.497998 L60.7204,20.023998 L59.4884,20.023998 L56.855,32.497998 L57.9946,32.497998 Z M61.4442,28.309198 L58.7954,28.309198 L60.1198,21.579398 L61.4442,28.309198 Z M64.6936,34.715598 C65.1966667,34.715598 65.6201667,34.661698 65.9641,34.553898 C66.3080333,34.446098 66.5852333,34.276698 66.7957,34.045698 C67.0061667,33.814698 67.1524667,33.5092647 67.2346,33.129398 L67.2346,33.129398 L69.3906,23.596798 L68.251,23.596798 L66.7572,31.173598 L65.2172,23.596798 L64.093,23.596798 L65.9256,31.435398 C65.9974667,31.7228647 66.0642,32.0000647 66.1258,32.266998 C66.1874,32.5339313 66.2182,32.7495313 66.2182,32.913798 C66.2182,33.098598 66.1745667,33.260298 66.0873,33.398898 C66.0000333,33.537498 65.8255,33.645298 65.5637,33.722298 C65.3019,33.799298 64.9143333,33.837798 64.401,33.837798 L64.401,33.837798 L64.401,34.715598 L64.6936,34.715598 Z M71.8238,32.636598 C72.2447333,32.636598 72.64,32.5313647 73.0096,32.320898 C73.3792,32.1104313 73.7077333,31.8409313 73.9952,31.512398 L73.9952,31.512398 L73.9952,32.497998 L75.1194,32.497998 L75.1194,23.596798 L73.9952,23.596798 L73.9952,30.865598 C73.7590667,31.1222647 73.5049667,31.3327313 73.2329,31.496998 C72.9608333,31.6612647 72.6913333,31.743398 72.4244,31.743398 C72.1369333,31.743398 71.9239,31.650998 71.7853,31.466198 C71.6467,31.281398 71.5774,30.957998 71.5774,30.495998 L71.5774,30.495998 L71.5774,23.596798 L70.4378,23.596798 L70.4378,30.742398 C70.4378,31.142798 70.4917,31.481598 70.5995,31.758798 C70.7073,32.035998 70.8638667,32.251598 71.0692,32.405598 C71.2745333,32.559598 71.5260667,32.636598 71.8238,32.636598 Z M77.9838,32.497998 L77.9838,25.167598 C78.2199333,24.921198 78.4714667,24.720998 78.7384,24.566998 C79.0053333,24.412998 79.2671333,24.335998 79.5238,24.335998 C79.8112667,24.335998 80.0243,24.4309647 80.1629,24.620898 C80.3015,24.8108313 80.3708,25.136798 80.3708,25.598798 L80.3708,25.598798 L80.3708,32.497998 L81.495,32.497998 L81.495,25.352398 C81.495,24.951998 81.4436667,24.6106313 81.341,24.328298 C81.2383333,24.0459647 81.0843333,23.8303647 80.879,23.681498 C80.6736667,23.5326313 80.4221333,23.458198 80.1244,23.458198 C79.7034667,23.458198 79.3133333,23.558298 78.954,23.758498 C78.5946667,23.958698 78.2712667,24.212798 77.9838,24.520798 L77.9838,24.520798 L77.9838,23.596798 L76.8596,23.596798 L76.8596,32.497998 L77.9838,32.497998 Z M85.268,32.605798 C85.422,32.605798 85.5811333,32.598098 85.7454,32.582698 C85.9096667,32.567298 86.0688,32.544198 86.2228,32.513398 L86.2228,32.513398 L86.2228,31.650998 C86.1201333,31.6715313 86.0097667,31.689498 85.8917,31.704898 C85.7736333,31.720298 85.6684,31.727998 85.576,31.727998 C85.2474667,31.727998 85.0344333,31.6381647 84.9369,31.458498 C84.8393667,31.2788313 84.7906,30.973398 84.7906,30.542198 L84.7906,30.542198 L84.7906,24.335998 L86.269,24.335998 L86.269,23.596798 L84.7906,23.596798 L84.7906,20.840198 L83.6664,20.840198 L83.6664,23.596798 L82.573,23.596798 L82.573,24.335998 L83.6664,24.335998 L83.6664,30.649998 C83.6664,31.0298647 83.7100333,31.366098 83.7973,31.658698 C83.8845667,31.951298 84.0437,32.182298 84.2747,32.351698 C84.5057,32.521098 84.8368,32.605798 85.268,32.605798 Z M89.3644,31.681798 C89.0974667,31.681798 88.8613333,31.581698 88.656,31.381498 C88.4506667,31.181298 88.348,30.8450647 88.348,30.372798 C88.348,30.0750647 88.3942,29.8158313 88.4866,29.595098 C88.579,29.3743647 88.7227333,29.1767313 88.9178,29.002198 C89.1128667,28.8276647 89.3669667,28.647998 89.6801,28.463198 C89.9932333,28.278398 90.3705333,28.0730647 90.812,27.847198 L90.812,27.847198 L90.812,30.619198 C90.7298667,30.7834647 90.6169333,30.9451647 90.4732,31.104298 C90.3294667,31.2634313 90.1652,31.3994647 89.9804,31.512398 C89.7956,31.6253313 89.5902667,31.681798 89.3644,31.681798 Z M90.842,31.267 L90.8533875,31.3829418 C90.8668625,31.5090293 90.889,31.662548 90.9198,31.843498 C90.9608667,32.0847647 90.9916667,32.3029313 91.0122,32.497998 L91.0122,32.497998 L92.0132,32.497998 C92.0080667,32.4415313 92.0029333,32.3722313 91.9978,32.290098 L91.9824,32.005198 C91.9721333,31.789598 91.9618667,31.5611647 91.9516,31.319898 C91.9413333,31.0786313 91.9362,30.880998 91.9362,30.726998 L91.9362,30.726998 L91.9362,26.399598 C91.9362,25.3934647 91.7745,24.651698 91.4511,24.174298 C91.1277,23.696898 90.5656,23.458198 89.7648,23.458198 C88.9126667,23.458198 88.2992333,23.6763647 87.9245,24.112698 C87.5497667,24.5490313 87.3572667,25.2189313 87.347,26.122398 L87.347,26.122398 L88.4558,26.137798 L88.4558,25.829798 C88.4558,25.4396647 88.5122667,25.1342313 88.6252,24.913498 C88.7381333,24.6927647 88.887,24.536198 89.0718,24.443798 C89.2566,24.351398 89.4670667,24.305198 89.7032,24.305198 C89.9906667,24.305198 90.2139667,24.3719313 90.3731,24.505398 C90.5322333,24.6388647 90.6451667,24.8621647 90.7119,25.175298 C90.7786333,25.4884313 90.812,25.9170647 90.812,26.461198 L90.812,26.461198 L90.812,27.092598 C90.1549333,27.3903313 89.5979667,27.6598313 89.1411,27.901098 C88.6842333,28.1423647 88.3146333,28.3887647 88.0323,28.640298 C87.7499667,28.8918313 87.5446333,29.1767313 87.4163,29.494998 C87.2879667,29.8132647 87.2238,30.1982647 87.2238,30.649998 C87.2238,31.0093313 87.2982333,31.3404313 87.4471,31.643298 C87.5959667,31.9461647 87.8038667,32.1874313 88.0708,32.367098 C88.3377333,32.5467647 88.6508667,32.636598 89.0102,32.636598 C89.4824667,32.636598 89.8751667,32.497998 90.1883,32.220798 C90.5014333,31.943598 90.7196,31.6253313 90.8428,31.265998 L90.842,31.267 Z M94.6312,32.497998 L94.6312,25.121398 C94.8878667,24.844198 95.1599333,24.6234647 95.4474,24.459198 C95.7348667,24.2949313 96.0172,24.212798 96.2944,24.212798 C96.5510667,24.212798 96.7641,24.297498 96.9335,24.466898 C97.1029,24.636298 97.1876,24.982798 97.1876,25.506398 L97.1876,25.506398 L97.1876,32.497998 L98.2502,32.497998 L98.2502,25.475598 C98.2502,25.413998 98.2476333,25.3549647 98.2425,25.298498 C98.2373667,25.2420313 98.2296667,25.1881313 98.2194,25.136798 C98.4760667,24.8493313 98.7481333,24.6234647 99.0356,24.459198 C99.3230667,24.2949313 99.6105333,24.212798 99.898,24.212798 C100.154667,24.212798 100.3677,24.297498 100.5371,24.466898 C100.7065,24.636298 100.7912,24.982798 100.7912,25.506398 L100.7912,25.506398 L100.7912,32.497998 L101.8384,32.497998 L101.8384,25.475598 C101.8384,24.9622647 101.766533,24.5567313 101.6228,24.258998 C101.479067,23.9612647 101.2917,23.750798 101.0607,23.627598 C100.8297,23.504398 100.585867,23.442798 100.3292,23.442798 C99.9185333,23.442798 99.5284,23.5403313 99.1588,23.735398 C98.7892,23.9304647 98.4504,24.2179313 98.1424,24.597798 C98.0294667,24.1563313 97.8421,23.8534647 97.5803,23.689198 C97.3185,23.5249313 97.0336,23.442798 96.7256,23.442798 C96.3457333,23.442798 95.9761333,23.5326313 95.6168,23.712298 C95.2574667,23.8919647 94.9289333,24.1563313 94.6312,24.505398 L94.6312,24.505398 L94.6312,23.596798 L93.584,23.596798 L93.584,32.497998 L94.6312,32.497998 Z M104.749,22.364798 L104.749,20.840198 L103.6248,20.840198 L103.6248,22.364798 L104.749,22.364798 Z M104.749,32.497998 L104.749,23.596798 L103.6248,23.596798 L103.6248,32.497998 L104.749,32.497998 Z M108.8762,32.636598 C109.748867,32.636598 110.352033,32.3927647 110.6857,31.905098 C111.019367,31.4174313 111.1862,30.7680647 111.1862,29.956998 L111.1862,29.956998 L111.1862,29.464198 L110.0928,29.464198 L110.0928,30.080198 C110.0928,30.542198 110.0389,30.8989647 109.9311,31.150498 C109.8233,31.4020313 109.677,31.5714313 109.4922,31.658698 C109.3074,31.7459647 109.102067,31.789598 108.8762,31.789598 C108.578467,31.789598 108.334633,31.7177313 108.1447,31.573998 C107.954767,31.4302647 107.816167,31.1915647 107.7289,30.857898 C107.641633,30.5242313 107.598,30.0699313 107.598,29.494998 L107.598,29.494998 L107.598,27.939598 L111.2016,27.939598 L111.2016,27.138798 C111.2016,26.2969313 111.137433,25.606498 111.0091,25.067498 C110.880767,24.528498 110.652333,24.1255313 110.3238,23.858598 C109.995267,23.5916647 109.517867,23.458198 108.8916,23.458198 C108.347467,23.458198 107.895733,23.5634313 107.5364,23.773898 C107.177067,23.9843647 106.910133,24.3385647 106.7356,24.836498 C106.561067,25.3344313 106.4738,26.0248647 106.4738,26.907798 L106.4738,26.907798 L106.4738,29.156198 C106.4738,30.0083313 106.5585,30.6910647 106.7279,31.204398 C106.8973,31.7177313 107.1591,32.0847647 107.5133,32.305498 C107.8675,32.5262313 108.3218,32.636598 108.8762,32.636598 Z M110.0928,27.292798 L107.598,27.292798 L107.598,26.692198 C107.598,26.0556647 107.639067,25.5654313 107.7212,25.221498 C107.803333,24.8775647 107.939367,24.6388647 108.1293,24.505398 C108.319233,24.3719313 108.5682,24.305198 108.8762,24.305198 C109.2458,24.305198 109.5153,24.3950313 109.6847,24.574698 C109.8541,24.7543647 109.964467,25.0110313 110.0158,25.344698 C110.067133,25.6783647 110.0928,26.0813313 110.0928,26.553598 L110.0928,26.553598 L110.0928,27.292798 Z M113.8504,32.497998 L113.8504,25.167598 C114.086533,24.921198 114.338067,24.720998 114.605,24.566998 C114.871933,24.412998 115.133733,24.335998 115.3904,24.335998 C115.677867,24.335998 115.8909,24.4309647 116.0295,24.620898 C116.1681,24.8108313 116.2374,25.136798 116.2374,25.598798 L116.2374,25.598798 L116.2374,32.497998 L117.3616,32.497998 L117.3616,25.352398 C117.3616,24.951998 117.310267,24.6106313 117.2076,24.328298 C117.104933,24.0459647 116.950933,23.8303647 116.7456,23.681498 C116.540267,23.5326313 116.288733,23.458198 115.991,23.458198 C115.570067,23.458198 115.179933,23.558298 114.8206,23.758498 C114.461267,23.958698 114.137867,24.212798 113.8504,24.520798 L113.8504,24.520798 L113.8504,23.596798 L112.7262,23.596798 L112.7262,32.497998 L113.8504,32.497998 Z M121.1346,32.605798 C121.2886,32.605798 121.447733,32.598098 121.612,32.582698 C121.776267,32.567298 121.9354,32.544198 122.0894,32.513398 L122.0894,32.513398 L122.0894,31.650998 C121.986733,31.6715313 121.876367,31.689498 121.7583,31.704898 C121.640233,31.720298 121.535,31.727998 121.4426,31.727998 C121.114067,31.727998 120.901033,31.6381647 120.8035,31.458498 C120.705967,31.2788313 120.6572,30.973398 120.6572,30.542198 L120.6572,30.542198 L120.6572,24.335998 L122.1356,24.335998 L122.1356,23.596798 L120.6572,23.596798 L120.6572,20.840198 L119.533,20.840198 L119.533,23.596798 L118.4396,23.596798 L118.4396,24.335998 L119.533,24.335998 L119.533,30.649998 C119.533,31.0298647 119.576633,31.366098 119.6639,31.658698 C119.751167,31.951298 119.9103,32.182298 120.1413,32.351698 C120.3723,32.521098 120.7034,32.605798 121.1346,32.605798 Z M125.539,32.636598 C126.165267,32.636598 126.6478,32.505698 126.9866,32.243898 C127.3254,31.982098 127.566667,31.6022313 127.7104,31.104298 C127.854133,30.6063647 127.926,29.9980647 127.926,29.279398 L127.926,29.279398 L127.926,26.815398 C127.926,26.0967313 127.854133,25.4884313 127.7104,24.990498 C127.566667,24.4925647 127.3254,24.112698 126.9866,23.850898 C126.6478,23.589098 126.165267,23.458198 125.539,23.458198 C124.933267,23.458198 124.458433,23.589098 124.1145,23.850898 C123.770567,24.112698 123.526733,24.4925647 123.383,24.990498 C123.239267,25.4884313 123.1674,26.0967313 123.1674,26.815398 L123.1674,26.815398 L123.1674,29.279398 C123.1674,29.9980647 123.239267,30.6063647 123.383,31.104298 C123.526733,31.6022313 123.770567,31.982098 124.1145,32.243898 C124.458433,32.505698 124.933267,32.636598 125.539,32.636598 Z M125.539,31.789598 C125.148867,31.789598 124.866533,31.6869313 124.692,31.481598 C124.517467,31.2762647 124.409667,30.9862313 124.3686,30.611498 C124.327533,30.2367647 124.307,29.8132647 124.307,29.340998 L124.307,29.340998 L124.307,26.753798 C124.307,26.2712647 124.327533,25.8477647 124.3686,25.483298 C124.409667,25.1188313 124.517467,24.8313647 124.692,24.620898 C124.866533,24.4104313 125.148867,24.305198 125.539,24.305198 C125.929133,24.305198 126.214033,24.4104313 126.3937,24.620898 C126.573367,24.8313647 126.683733,25.1188313 126.7248,25.483298 C126.765867,25.8477647 126.7864,26.2712647 126.7864,26.753798 L126.7864,26.753798 L126.7864,29.340998 C126.7864,29.8132647 126.765867,30.2367647 126.7248,30.611498 C126.683733,30.9862313 126.573367,31.2762647 126.3937,31.481598 C126.214033,31.6869313 125.929133,31.789598 125.539,31.789598 Z M134.5942,32.636598 C134.933,32.636598 135.228167,32.5570313 135.4797,32.397898 C135.731233,32.2387647 135.944267,32.0616647 136.1188,31.866598 L136.1188,31.866598 L136.1188,32.497998 L137.243,32.497998 L137.243,20.023998 L136.1188,20.023998 L136.1188,24.228198 C135.944267,24.0331313 135.7261,23.8560313 135.4643,23.696898 C135.2025,23.5377647 134.897067,23.458198 134.548,23.458198 C133.983333,23.458198 133.549567,23.6147647 133.2467,23.927898 C132.943833,24.2410313 132.735933,24.6799313 132.623,25.244598 C132.510067,25.8092647 132.4536,26.4817313 132.4536,27.261998 L132.4536,27.261998 L132.4536,28.909798 C132.4536,30.2444647 132.620433,31.1992647 132.9541,31.774198 C133.287767,32.3491313 133.834467,32.636598 134.5942,32.636598 Z M134.8252,31.743398 C134.4864,31.743398 134.227167,31.6407313 134.0475,31.435398 C133.867833,31.2300647 133.744633,30.9220647 133.6779,30.511398 C133.611167,30.1007313 133.5778,29.5976647 133.5778,29.002198 L133.5778,29.002198 L133.5778,26.892398 C133.5778,26.060798 133.657367,25.4268313 133.8165,24.990498 C133.975633,24.5541647 134.3016,24.335998 134.7944,24.335998 C135.0716,24.335998 135.323133,24.405298 135.549,24.543898 C135.774867,24.682498 135.9648,24.8236647 136.1188,24.967398 L136.1188,24.967398 L136.1188,31.158198 C135.944267,31.3224647 135.746633,31.4610647 135.5259,31.573998 C135.305167,31.6869313 135.0716,31.743398 134.8252,31.743398 Z M141.2162,32.636598 C142.088867,32.636598 142.692033,32.3927647 143.0257,31.905098 C143.359367,31.4174313 143.5262,30.7680647 143.5262,29.956998 L143.5262,29.956998 L143.5262,29.464198 L142.4328,29.464198 L142.4328,30.080198 C142.4328,30.542198 142.3789,30.8989647 142.2711,31.150498 C142.1633,31.4020313 142.017,31.5714313 141.8322,31.658698 C141.6474,31.7459647 141.442067,31.789598 141.2162,31.789598 C140.918467,31.789598 140.674633,31.7177313 140.4847,31.573998 C140.294767,31.4302647 140.156167,31.1915647 140.0689,30.857898 C139.981633,30.5242313 139.938,30.0699313 139.938,29.494998 L139.938,29.494998 L139.938,27.939598 L143.5416,27.939598 L143.5416,27.138798 C143.5416,26.2969313 143.477433,25.606498 143.3491,25.067498 C143.220767,24.528498 142.992333,24.1255313 142.6638,23.858598 C142.335267,23.5916647 141.857867,23.458198 141.2316,23.458198 C140.687467,23.458198 140.235733,23.5634313 139.8764,23.773898 C139.517067,23.9843647 139.250133,24.3385647 139.0756,24.836498 C138.901067,25.3344313 138.8138,26.0248647 138.8138,26.907798 L138.8138,26.907798 L138.8138,29.156198 C138.8138,30.0083313 138.8985,30.6910647 139.0679,31.204398 C139.2373,31.7177313 139.4991,32.0847647 139.8533,32.305498 C140.2075,32.5262313 140.6618,32.636598 141.2162,32.636598 Z M142.4328,27.292798 L139.938,27.292798 L139.938,26.692198 C139.938,26.0556647 139.979067,25.5654313 140.0612,25.221498 C140.143333,24.8775647 140.279367,24.6388647 140.4693,24.505398 C140.659233,24.3719313 140.9082,24.305198 141.2162,24.305198 C141.5858,24.305198 141.8553,24.3950313 142.0247,24.574698 C142.1941,24.7543647 142.304467,25.0110313 142.3558,25.344698 C142.407133,25.6783647 142.4328,26.0813313 142.4328,26.553598 L142.4328,26.553598 L142.4328,27.292798 Z M149.3012,32.497998 L149.5476,22.580398 L151.9038,32.497998 L152.6584,32.497998 L155.0454,22.564998 L155.2918,32.497998 L156.262,32.497998 L155.954,20.023998 L154.7836,20.023998 L152.2734,30.850198 L149.8094,20.023998 L148.639,20.023998 L148.331,32.497998 L149.3012,32.497998 Z M160.0042,31.681798 C159.737267,31.681798 159.501133,31.581698 159.2958,31.381498 C159.090467,31.181298 158.9878,30.8450647 158.9878,30.372798 C158.9878,30.0750647 159.034,29.8158313 159.1264,29.595098 C159.2188,29.3743647 159.362533,29.1767313 159.5576,29.002198 C159.752667,28.8276647 160.006767,28.647998 160.3199,28.463198 C160.633033,28.278398 161.010333,28.0730647 161.4518,27.847198 L161.4518,27.847198 L161.4518,30.619198 C161.369667,30.7834647 161.256733,30.9451647 161.113,31.104298 C160.969267,31.2634313 160.805,31.3994647 160.6202,31.512398 C160.4354,31.6253313 160.230067,31.681798 160.0042,31.681798 Z M161.482,31.267 L161.493187,31.3829418 C161.506662,31.5090293 161.5288,31.662548 161.5596,31.843498 C161.600667,32.0847647 161.631467,32.3029313 161.652,32.497998 L161.652,32.497998 L162.653,32.497998 C162.642733,32.3850647 162.632467,32.220798 162.6222,32.005198 C162.611933,31.789598 162.601667,31.5611647 162.5914,31.319898 C162.581133,31.0786313 162.576,30.880998 162.576,30.726998 L162.576,30.726998 L162.576,26.399598 C162.576,25.3934647 162.4143,24.651698 162.0909,24.174298 C161.7675,23.696898 161.2054,23.458198 160.4046,23.458198 C159.552467,23.458198 158.939033,23.6763647 158.5643,24.112698 C158.189567,24.5490313 157.997067,25.2189313 157.9868,26.122398 L157.9868,26.122398 L159.0956,26.137798 L159.0956,25.829798 C159.0956,25.4396647 159.152067,25.1342313 159.265,24.913498 C159.377933,24.6927647 159.5268,24.536198 159.7116,24.443798 C159.8964,24.351398 160.106867,24.305198 160.343,24.305198 C160.630467,24.305198 160.853767,24.3719313 161.0129,24.505398 C161.172033,24.6388647 161.284967,24.8621647 161.3517,25.175298 C161.418433,25.4884313 161.4518,25.9170647 161.4518,26.461198 L161.4518,26.461198 L161.4518,27.092598 C160.794733,27.3903313 160.237767,27.6598313 159.7809,27.901098 C159.324033,28.1423647 158.954433,28.3887647 158.6721,28.640298 C158.389767,28.8918313 158.184433,29.1767313 158.0561,29.494998 C157.927767,29.8132647 157.8636,30.1982647 157.8636,30.649998 C157.8636,31.0093313 157.938033,31.3404313 158.0869,31.643298 C158.235767,31.9461647 158.443667,32.1874313 158.7106,32.367098 C158.977533,32.5467647 159.290667,32.636598 159.65,32.636598 C160.122267,32.636598 160.514967,32.497998 160.8281,32.220798 C161.141233,31.943598 161.3594,31.6253313 161.4826,31.265998 L161.482,31.267 Z M166.195,32.636598 C166.5338,32.636598 166.828967,32.5570313 167.0805,32.397898 C167.332033,32.2387647 167.545067,32.0616647 167.7196,31.866598 L167.7196,31.866598 L167.7196,32.497998 L168.8438,32.497998 L168.8438,20.023998 L167.7196,20.023998 L167.7196,24.228198 C167.545067,24.0331313 167.3269,23.8560313 167.0651,23.696898 C166.8033,23.5377647 166.497867,23.458198 166.1488,23.458198 C165.584133,23.458198 165.150367,23.6147647 164.8475,23.927898 C164.544633,24.2410313 164.336733,24.6799313 164.2238,25.244598 C164.110867,25.8092647 164.0544,26.4817313 164.0544,27.261998 L164.0544,27.261998 L164.0544,28.909798 C164.0544,30.2444647 164.221233,31.1992647 164.5549,31.774198 C164.888567,32.3491313 165.435267,32.636598 166.195,32.636598 Z M166.426,31.743398 C166.0872,31.743398 165.827967,31.6407313 165.6483,31.435398 C165.468633,31.2300647 165.345433,30.9220647 165.2787,30.511398 C165.211967,30.1007313 165.1786,29.5976647 165.1786,29.002198 L165.1786,29.002198 L165.1786,26.892398 C165.1786,26.060798 165.258167,25.4268313 165.4173,24.990498 C165.576433,24.5541647 165.9024,24.335998 166.3952,24.335998 C166.6724,24.335998 166.923933,24.405298 167.1498,24.543898 C167.375667,24.682498 167.5656,24.8236647 167.7196,24.967398 L167.7196,24.967398 L167.7196,31.158198 C167.545067,31.3224647 167.347433,31.4610647 167.1267,31.573998 C166.905967,31.6869313 166.6724,31.743398 166.426,31.743398 Z M171.8006,32.497998 L171.8006,25.660398 C172.0162,25.3010647 172.265167,25.0392647 172.5475,24.874998 C172.829833,24.7107313 173.145533,24.628598 173.4946,24.628598 C173.587,24.628598 173.684533,24.636298 173.7872,24.651698 C173.889867,24.667098 173.977133,24.690198 174.049,24.720998 L174.049,24.720998 L174.049,23.519798 C174.007933,23.5095313 173.972,23.504398 173.9412,23.504398 L173.9412,23.504398 L173.8488,23.504398 C173.51,23.504398 173.1558,23.604498 172.7862,23.804698 C172.4166,24.004898 172.088067,24.3411313 171.8006,24.813398 L171.8006,24.813398 L171.8006,23.596798 L170.661,23.596798 L170.661,32.497998 L171.8006,32.497998 Z M176.4052,22.364798 L176.4052,20.840198 L175.281,20.840198 L175.281,22.364798 L176.4052,22.364798 Z M176.4052,32.497998 L176.4052,23.596798 L175.281,23.596798 L175.281,32.497998 L176.4052,32.497998 Z M180.2706,32.636598 C180.6094,32.636598 180.904567,32.5570313 181.1561,32.397898 C181.407633,32.2387647 181.620667,32.0616647 181.7952,31.866598 L181.7952,31.866598 L181.7952,32.497998 L182.9194,32.497998 L182.9194,20.023998 L181.7952,20.023998 L181.7952,24.228198 C181.620667,24.0331313 181.4025,23.8560313 181.1407,23.696898 C180.8789,23.5377647 180.573467,23.458198 180.2244,23.458198 C179.659733,23.458198 179.225967,23.6147647 178.9231,23.927898 C178.620233,24.2410313 178.412333,24.6799313 178.2994,25.244598 C178.186467,25.8092647 178.13,26.4817313 178.13,27.261998 L178.13,27.261998 L178.13,28.909798 C178.13,30.2444647 178.296833,31.1992647 178.6305,31.774198 C178.964167,32.3491313 179.510867,32.636598 180.2706,32.636598 Z M180.5016,31.743398 C180.1628,31.743398 179.903567,31.6407313 179.7239,31.435398 C179.544233,31.2300647 179.421033,30.9220647 179.3543,30.511398 C179.287567,30.1007313 179.2542,29.5976647 179.2542,29.002198 L179.2542,29.002198 L179.2542,26.892398 C179.2542,26.060798 179.333767,25.4268313 179.4929,24.990498 C179.652033,24.5541647 179.978,24.335998 180.4708,24.335998 C180.748,24.335998 180.999533,24.405298 181.2254,24.543898 C181.451267,24.682498 181.6412,24.8236647 181.7952,24.967398 L181.7952,24.967398 L181.7952,31.158198 C181.620667,31.3224647 181.423033,31.4610647 181.2023,31.573998 C180.981567,31.6869313 180.748,31.743398 180.5016,31.743398 Z" id="DiseñoyCiudad/AyuntamientodeMadrid" fill="#000000" fill-rule="nonzero"></path>
            <g id="Group-9-Copy-16" fill="#A4A49B">
                <path d="M20.8250502,22.9899281 C19.8078814,22.9899281 19.7914283,23.6847375 19.7914283,27.3290439 C19.7914283,30.9048565 19.875522,31.6680378 20.8250502,31.6680378 C21.7738471,31.6680378 21.8586721,30.9048565 21.8586721,27.3290439 C21.8586721,23.6847375 21.842219,22.9899281 20.8250502,22.9899281" id="Fill-1"></path>
                <path d="M25.1764876,11.529997 C24.1531031,11.529997 24.1692972,12.7051158 24.1692972,14.4007628 C24.1692972,16.5323566 24.3208032,17.4219223 25.1764876,17.4219223 C25.9825688,17.4219223 26.1340759,16.5323566 26.1340759,14.4007628 C26.1340759,12.7051158 26.150147,11.529997 25.1764876,11.529997" id="Fill-3"></path>
                <path d="M13.3565133,17.4218857 C14.2128071,17.4218857 14.3644333,16.53232 14.3644333,14.4007262 C14.3644333,12.7050793 14.3800196,11.5299605 13.3565133,11.5299605 C12.3833414,11.5299605 12.399777,12.7050793 12.399777,14.4007262 C12.399777,16.53232 12.5507977,17.4218857 13.3565133,17.4218857" id="Fill-5"></path>
                <path d="M29.7539543,20.6913289 L35.1675201,20.6913289 L35.1675201,19.8553883 L29.7539543,19.8553883 L29.7539543,20.6913289 Z M28.5007136,18.7153695 L26.2502917,18.7153695 L26.2502917,17.7751038 L26.2181167,17.7751038 C25.7811948,18.596907 25.1266041,18.8829476 24.2196103,18.8829476 C21.7688259,18.8829476 21.8526759,16.1635506 21.8526759,14.4170818 C21.8526759,12.7051036 21.7858884,10.0690692 24.1693978,10.0690692 C25.025326,10.0690692 25.6131291,10.3211067 26.0998979,11.0433379 L26.1341448,11.0433379 L26.1341448,6.59368151 L28.5007136,6.59368151 L28.5007136,18.7153695 Z M20.8250258,33.3966763 C17.6383601,33.3966763 17.4009476,31.0070731 17.4009476,27.295248 C17.4009476,22.7691759 17.909532,21.2606071 20.8250258,21.2606071 C23.7405197,21.2606071 24.2491041,22.7691759 24.2491041,27.295248 C24.2491041,31.0070731 24.0116916,33.3966763 20.8250258,33.3966763 L20.8250258,33.3966763 Z M16.9144225,33.2440888 L9.89722539,33.2440888 L9.89722539,31.1595387 C13.6256255,26.1932542 14.4053818,25.6169073 14.4053818,24.1422197 C14.4053818,23.5488103 14.1852756,22.9898915 13.5076505,22.9898915 C12.524363,22.9898915 12.4732974,23.9222353 12.4732974,24.6846854 L10.0835723,24.6846854 C9.91392227,22.4813071 11.1510754,21.2606071 13.3380005,21.2606071 C15.3887912,21.2606071 16.7958382,22.091429 16.7958382,24.3121135 C16.7958382,26.9728886 13.6939974,29.9899043 12.4056567,31.4135262 L16.9144225,31.4135262 L16.9144225,33.2440888 Z M10.0326285,6.59368151 L12.3998067,6.59368151 L12.3998067,11.0433379 L12.4338099,11.0433379 C12.9205786,10.3211067 13.5083818,10.0690692 14.3643099,10.0690692 C16.7479413,10.0690692 16.6810319,12.7051036 16.6810319,14.4170818 C16.6810319,16.1635506 16.7645163,18.8829476 14.3140974,18.8829476 C13.4071037,18.8829476 12.7521474,18.596907 12.3162005,17.7751038 L12.2821974,17.7751038 L12.2821974,18.7153695 L10.0326285,18.7153695 L10.0326285,6.59368151 Z M18.091857,18.7153695 L20.4586696,18.7153695 L20.4586696,10.2371348 L18.091857,10.2371348 L18.091857,18.7153695 Z M18.091857,8.45739409 L20.4586696,8.45739409 L20.4586696,6.59368151 L18.091857,6.59368151 L18.091857,8.45739409 Z M19.3699601,0.0164531257 C8.67152847,0.0164531257 0,8.68920035 0,19.3848289 C0,30.0841137 8.67152847,38.7562515 19.3699601,38.7562515 C30.0670512,38.7562515 38.7400422,30.0841137 38.7400422,19.3848289 C38.7400422,8.68920035 30.0670512,0.0164531257 19.3699601,0.0164531257 L19.3699601,0.0164531257 Z" id="Fill-7"></path>
            </g>
        </g>
    </g>
</svg>