<?xml version="1.0" encoding="UTF-8"?>
<svg width="223px" height="41px" viewBox="0 0 223 41" version="1.1" xmlns="http://www.w3.org/2000/svg" xmlns:xlink="http://www.w3.org/1999/xlink">
    <title>porycon_lacultura</title>
    <g id="Page-1" stroke="none" stroke-width="1" fill="none" fill-rule="evenodd">
        <g id="porycon_lacultura">
            <g id="cultura" transform="translate(0.000000, 2.000000)">
                <path d="M51.9116,18.248999 C52.7432,18.248999 53.3951333,18.0898657 53.8674,17.771599 C54.3396667,17.4533323 54.6784667,17.0041657 54.8838,16.424099 C55.0891333,15.8440323 55.1918,15.168999 55.1918,14.398999 L55.1918,14.398999 L55.1918,9.440199 C55.1918,8.71126567 55.0891333,8.069599 54.8838,7.515199 C54.6784667,6.960799 54.3319667,6.53216567 53.8443,6.229299 C53.3566333,5.92643233 52.6764667,5.774999 51.8038,5.774999 L51.8038,5.774999 L49.0934,5.774999 L49.0934,18.248999 L51.9116,18.248999 Z M51.8346,17.371199 L50.2638,17.371199 L50.2638,6.683599 L51.7884,6.683599 C52.4146667,6.683599 52.8843667,6.79396567 53.1975,7.014699 C53.5106333,7.23543233 53.7211,7.55883233 53.8289,7.984899 C53.9367,8.41096567 53.9906,8.93713233 53.9906,9.563399 L53.9906,9.563399 L53.9906,14.214199 C53.9906,14.8199323 53.9495333,15.361499 53.8674,15.838899 C53.7852667,16.316299 53.5902,16.6910323 53.2822,16.963099 C52.9742,17.2351657 52.4916667,17.371199 51.8346,17.371199 L51.8346,17.371199 Z M58.1332,8.115799 L58.1332,6.591199 L57.009,6.591199 L57.009,8.115799 L58.1332,8.115799 Z M58.1332,18.248999 L58.1332,9.347799 L57.009,9.347799 L57.009,18.248999 L58.1332,18.248999 Z M62.0602,18.387599 C62.5222,18.387599 62.9226,18.302899 63.2614,18.133499 C63.6002,17.964099 63.8645667,17.7228323 64.0545,17.409699 C64.2444333,17.0965657 64.3394,16.708999 64.3394,16.246999 C64.3394,15.8363323 64.2675333,15.4795657 64.1238,15.176699 C63.9800667,14.8738323 63.7952667,14.599199 63.5694,14.352799 C63.3435333,14.106399 63.1074,13.875399 62.861,13.659799 L62.861,13.659799 L61.5982,12.535599 C61.321,12.2789323 61.1310667,12.0479323 61.0284,11.842599 C60.9257333,11.6372657 60.8744,11.4011323 60.8744,11.134199 C60.8744,10.795399 60.9796333,10.5310323 61.1901,10.341099 C61.4005667,10.1511657 61.6752,10.056199 62.014,10.056199 C62.2706667,10.056199 62.4888333,10.117799 62.6685,10.240999 C62.8481667,10.364199 62.9893333,10.556699 63.092,10.818499 C63.1946667,11.080299 63.2562667,11.411399 63.2768,11.811799 L63.2768,11.811799 L64.0776,11.549999 C64.0468,10.8621323 63.8568667,10.3000323 63.5078,9.863699 C63.1587333,9.42736567 62.6454,9.209199 61.9678,9.209199 C61.5468667,9.209199 61.1772667,9.28876567 60.859,9.447899 C60.5407333,9.60703233 60.2917667,9.832899 60.1121,10.125499 C59.9324333,10.418099 59.8426,10.779999 59.8426,11.211199 C59.8426,11.6834657 59.9452667,12.088999 60.1506,12.427799 C60.3559333,12.766599 60.6588,13.105399 61.0592,13.444199 L61.0592,13.444199 L62.2758,14.491399 C62.6454,14.8096657 62.9174667,15.115099 63.092,15.407699 C63.2665333,15.700299 63.3538,15.9903323 63.3538,16.277799 C63.3538,16.678199 63.2485667,16.9887657 63.0381,17.209499 C62.8276333,17.4302323 62.5273333,17.540599 62.1372,17.540599 C61.6752,17.540599 61.3158667,17.3840323 61.0592,17.070899 C60.8025333,16.7577657 60.6434,16.2572657 60.5818,15.569399 L60.5818,15.569399 L59.6424,15.861999 C59.704,16.631999 59.9452667,17.2454323 60.3662,17.702299 C60.7871333,18.1591657 61.3518,18.387599 62.0602,18.387599 Z M67.8506,18.387599 C68.7232667,18.387599 69.3264333,18.1437657 69.6601,17.656099 C69.9937667,17.1684323 70.1606,16.5190657 70.1606,15.707999 L70.1606,15.707999 L70.1606,15.215199 L69.0672,15.215199 L69.0672,15.831199 C69.0672,16.293199 69.0133,16.6499657 68.9055,16.901499 C68.7977,17.1530323 68.6514,17.3224323 68.4666,17.409699 C68.2818,17.4969657 68.0764667,17.540599 67.8506,17.540599 C67.5528667,17.540599 67.3090333,17.4687323 67.1191,17.324999 C66.9291667,17.1812657 66.7905667,16.9425657 66.7033,16.608899 C66.6160333,16.2752323 66.5724,15.8209323 66.5724,15.245999 L66.5724,15.245999 L66.5724,13.690599 L70.176,13.690599 L70.176,12.889799 C70.176,12.0479323 70.1118333,11.357499 69.9835,10.818499 C69.8551667,10.279499 69.6267333,9.87653233 69.2982,9.609599 C68.9696667,9.34266567 68.4922667,9.209199 67.866,9.209199 C67.3218667,9.209199 66.8701333,9.31443233 66.5108,9.524899 C66.1514667,9.73536567 65.8845333,10.0895657 65.71,10.587499 C65.5354667,11.0854323 65.4482,11.7758657 65.4482,12.658799 L65.4482,12.658799 L65.4482,14.907199 C65.4482,15.7593323 65.5329,16.4420657 65.7023,16.955399 C65.8717,17.4687323 66.1335,17.8357657 66.4877,18.056499 C66.8419,18.2772323 67.2962,18.387599 67.8506,18.387599 Z M69.0672,13.043799 L66.5724,13.043799 L66.5724,12.443199 C66.5724,11.8066657 66.6134667,11.3164323 66.6956,10.972499 C66.7777333,10.6285657 66.9137667,10.3898657 67.1037,10.256399 C67.2936333,10.1229323 67.5426,10.056199 67.8506,10.056199 C68.2202,10.056199 68.4897,10.1460323 68.6591,10.325699 C68.8285,10.5053657 68.9388667,10.7620323 68.9902,11.095699 C69.0415333,11.4293657 69.0672,11.8323323 69.0672,12.304599 L69.0672,12.304599 L69.0672,13.043799 Z M74.9346,7.592199 C75.2426,7.592199 75.4736,7.51263233 75.6276,7.353499 C75.7816,7.19436567 75.8817,7.00443233 75.9279,6.783699 C75.9741,6.56296567 75.9972,6.360199 75.9972,6.175399 L75.9972,6.175399 L75.3196,6.175399 C75.3196,6.421799 75.2785333,6.59376567 75.1964,6.691299 C75.1142667,6.78883233 74.9859333,6.837599 74.8114,6.837599 C74.6266,6.837599 74.4469333,6.775999 74.2724,6.652799 C74.0978667,6.529599 73.9130667,6.40896567 73.718,6.290899 C73.5229333,6.17283233 73.3022,6.113799 73.0558,6.113799 C72.7683333,6.113799 72.5476,6.190799 72.3936,6.344799 C72.2396,6.498799 72.1343667,6.68103233 72.0779,6.891499 C72.0214333,7.10196567 71.9932,7.29446567 71.9932,7.468999 L71.9932,7.468999 L72.6862,7.468999 C72.6862,7.26366567 72.7298333,7.10966567 72.8171,7.006999 C72.9043667,6.90433233 73.0301333,6.852999 73.1944,6.852999 C73.3792,6.852999 73.5563,6.914599 73.7257,7.037799 C73.8951,7.160999 74.0773333,7.284199 74.2724,7.407399 C74.4674667,7.530599 74.6882,7.592199 74.9346,7.592199 Z M72.8248,18.248999 L72.8248,10.918599 C73.0609333,10.672199 73.3124667,10.471999 73.5794,10.317999 C73.8463333,10.163999 74.1081333,10.086999 74.3648,10.086999 C74.6522667,10.086999 74.8653,10.1819657 75.0039,10.371899 C75.1425,10.5618323 75.2118,10.887799 75.2118,11.349799 L75.2118,11.349799 L75.2118,18.248999 L76.336,18.248999 L76.336,11.103399 C76.336,10.702999 76.2846667,10.3616323 76.182,10.079299 C76.0793333,9.79696567 75.9253333,9.58136567 75.72,9.432499 C75.5146667,9.28363233 75.2631333,9.209199 74.9654,9.209199 C74.5444667,9.209199 74.1543333,9.309299 73.795,9.509499 C73.4356667,9.709699 73.1122667,9.963799 72.8248,10.271799 L72.8248,10.271799 L72.8248,9.347799 L71.7006,9.347799 L71.7006,18.248999 L72.8248,18.248999 Z M80.2014,18.387599 C80.8276667,18.387599 81.3102,18.256699 81.649,17.994899 C81.9878,17.733099 82.2290667,17.3532323 82.3728,16.855299 C82.5165333,16.3573657 82.5884,15.7490657 82.5884,15.030399 L82.5884,15.030399 L82.5884,12.566399 C82.5884,11.8477323 82.5165333,11.2394323 82.3728,10.741499 C82.2290667,10.2435657 81.9878,9.863699 81.649,9.601899 C81.3102,9.340099 80.8276667,9.209199 80.2014,9.209199 C79.5956667,9.209199 79.1208333,9.340099 78.7769,9.601899 C78.4329667,9.863699 78.1891333,10.2435657 78.0454,10.741499 C77.9016667,11.2394323 77.8298,11.8477323 77.8298,12.566399 L77.8298,12.566399 L77.8298,15.030399 C77.8298,15.7490657 77.9016667,16.3573657 78.0454,16.855299 C78.1891333,17.3532323 78.4329667,17.733099 78.7769,17.994899 C79.1208333,18.256699 79.5956667,18.387599 80.2014,18.387599 Z M80.2014,17.540599 C79.8112667,17.540599 79.5289333,17.4379323 79.3544,17.232599 C79.1798667,17.0272657 79.0720667,16.7372323 79.031,16.362499 C78.9899333,15.9877657 78.9694,15.5642657 78.9694,15.091999 L78.9694,15.091999 L78.9694,12.504799 C78.9694,12.0222657 78.9899333,11.5987657 79.031,11.234299 C79.0720667,10.8698323 79.1798667,10.5823657 79.3544,10.371899 C79.5289333,10.1614323 79.8112667,10.056199 80.2014,10.056199 C80.5915333,10.056199 80.8764333,10.1614323 81.0561,10.371899 C81.2357667,10.5823657 81.3461333,10.8698323 81.3872,11.234299 C81.4282667,11.5987657 81.4488,12.0222657 81.4488,12.504799 L81.4488,12.504799 L81.4488,15.091999 C81.4488,15.5642657 81.4282667,15.9877657 81.3872,16.362499 C81.3461333,16.7372323 81.2357667,17.0272657 81.0561,17.232599 C80.8764333,17.4379323 80.5915333,17.540599 80.2014,17.540599 Z M88.4096,21.174999 L88.4096,17.540599 C88.5841333,17.7356657 88.8023,17.925599 89.0641,18.110399 C89.3259,18.295199 89.6364667,18.387599 89.9958,18.387599 C90.5502,18.387599 90.9839667,18.2310323 91.2971,17.917899 C91.6102333,17.6047657 91.8284,17.1684323 91.9516,16.608899 C92.0748,16.0493657 92.1364,15.3897323 92.1364,14.629999 L92.1364,14.629999 L92.1364,12.751199 C92.1364,12.3097323 92.1107333,11.8785323 92.0594,11.457599 C92.0080667,11.0366657 91.9105333,10.656799 91.7668,10.317999 C91.6230667,9.979199 91.4203,9.709699 91.1585,9.509499 C90.8967,9.309299 90.5502,9.209199 90.119,9.209199 C89.7186,9.209199 89.3798,9.29903233 89.1026,9.478699 C88.8254,9.65836567 88.5944,9.86113233 88.4096,10.086999 L88.4096,10.086999 L88.4096,9.347799 L87.2854,9.347799 L87.2854,21.174999 L88.4096,21.174999 Z M89.8264,17.494399 C89.5286667,17.494399 89.2591667,17.4302323 89.0179,17.301899 C88.7766333,17.1735657 88.5738667,17.0221323 88.4096,16.847599 L88.4096,16.847599 L88.4096,10.779999 C88.5636,10.625999 88.7612333,10.471999 89.0025,10.317999 C89.2437667,10.163999 89.5081333,10.086999 89.7956,10.086999 C90.1446667,10.086999 90.4064667,10.1896657 90.581,10.394999 C90.7555333,10.6003323 90.8710333,10.9006323 90.9275,11.295899 C90.9839667,11.6911657 91.0122,12.1762657 91.0122,12.751199 L91.0122,12.751199 L91.0122,14.660799 C91.0122,15.2665323 90.9839667,15.7824323 90.9275,16.208499 C90.8710333,16.6345657 90.7581,16.955399 90.5887,17.170999 C90.4193,17.386599 90.1652,17.494399 89.8264,17.494399 Z M95.6014,17.432799 C95.3344667,17.432799 95.0983333,17.332699 94.893,17.132499 C94.6876667,16.932299 94.585,16.5960657 94.585,16.123799 C94.585,15.8260657 94.6312,15.5668323 94.7236,15.346099 C94.816,15.1253657 94.9597333,14.9277323 95.1548,14.753199 C95.3498667,14.5786657 95.6039667,14.398999 95.9171,14.214199 C96.2302333,14.029399 96.6075333,13.8240657 97.049,13.598199 L97.049,13.598199 L97.049,16.370199 C96.9668667,16.5344657 96.8539333,16.6961657 96.7102,16.855299 C96.5664667,17.0144323 96.4022,17.1504657 96.2174,17.263399 C96.0326,17.3763323 95.8272667,17.432799 95.6014,17.432799 Z M97.079,17.018 L97.0903875,17.1339428 C97.1038625,17.2600303 97.126,17.413549 97.1568,17.594499 C97.1978667,17.8357657 97.2286667,18.0539323 97.2492,18.248999 L97.2492,18.248999 L98.2502,18.248999 C98.2450667,18.1925323 98.2399333,18.1232323 98.2348,18.041099 L98.2194,17.756199 C98.2091333,17.540599 98.1988667,17.3121657 98.1886,17.070899 C98.1783333,16.8296323 98.1732,16.631999 98.1732,16.477999 L98.1732,16.477999 L98.1732,12.150599 C98.1732,11.1444657 98.0115,10.402699 97.6881,9.925299 C97.3647,9.447899 96.8026,9.209199 96.0018,9.209199 C95.1496667,9.209199 94.5362333,9.42736567 94.1615,9.863699 C93.7867667,10.3000323 93.5942667,10.9699323 93.584,11.873399 L93.584,11.873399 L94.6928,11.888799 L94.6928,11.580799 C94.6928,11.1906657 94.7492667,10.8852323 94.8622,10.664499 C94.9751333,10.4437657 95.124,10.287199 95.3088,10.194799 C95.4936,10.102399 95.7040667,10.056199 95.9402,10.056199 C96.2276667,10.056199 96.4509667,10.1229323 96.6101,10.256399 C96.7692333,10.3898657 96.8821667,10.6131657 96.9489,10.926299 C97.0156333,11.2394323 97.049,11.6680657 97.049,12.212199 L97.049,12.212199 L97.049,12.843599 C96.3919333,13.1413323 95.8349667,13.4108323 95.3781,13.652099 C94.9212333,13.8933657 94.5516333,14.1397657 94.2693,14.391299 C93.9869667,14.6428323 93.7816333,14.9277323 93.6533,15.245999 C93.5249667,15.5642657 93.4608,15.9492657 93.4608,16.400999 C93.4608,16.7603323 93.5352333,17.0914323 93.6841,17.394299 C93.8329667,17.6971657 94.0408667,17.9384323 94.3078,18.118099 C94.5747333,18.2977657 94.8878667,18.387599 95.2472,18.387599 C95.7194667,18.387599 96.1121667,18.248999 96.4253,17.971799 C96.7384333,17.694599 96.9566,17.3763323 97.0798,17.016999 L97.079,17.018 Z M101.0376,18.248999 L101.0376,11.411399 C101.2532,11.0520657 101.502167,10.7902657 101.7845,10.625999 C102.066833,10.4617323 102.382533,10.379599 102.7316,10.379599 C102.824,10.379599 102.921533,10.387299 103.0242,10.402699 C103.126867,10.418099 103.214133,10.441199 103.286,10.471999 L103.286,10.471999 L103.286,9.270799 C103.244933,9.26053233 103.209,9.255399 103.1782,9.255399 L103.1782,9.255399 L103.0858,9.255399 C102.747,9.255399 102.3928,9.355499 102.0232,9.555699 C101.6536,9.755899 101.325067,10.0921323 101.0376,10.564399 L101.0376,10.564399 L101.0376,9.347799 L99.898,9.347799 L99.898,18.248999 L101.0376,18.248999 Z M106.2582,17.432799 C105.991267,17.432799 105.755133,17.332699 105.5498,17.132499 C105.344467,16.932299 105.2418,16.5960657 105.2418,16.123799 C105.2418,15.8260657 105.288,15.5668323 105.3804,15.346099 C105.4728,15.1253657 105.616533,14.9277323 105.8116,14.753199 C106.006667,14.5786657 106.260767,14.398999 106.5739,14.214199 C106.887033,14.029399 107.264333,13.8240657 107.7058,13.598199 L107.7058,13.598199 L107.7058,16.370199 C107.623667,16.5344657 107.510733,16.6961657 107.367,16.855299 C107.223267,17.0144323 107.059,17.1504657 106.8742,17.263399 C106.6894,17.3763323 106.484067,17.432799 106.2582,17.432799 Z M107.736,17.018 L107.747188,17.1339428 C107.760663,17.2600303 107.7828,17.413549 107.8136,17.594499 C107.854667,17.8357657 107.885467,18.0539323 107.906,18.248999 L107.906,18.248999 L108.907,18.248999 C108.896733,18.1360657 108.886467,17.971799 108.8762,17.756199 C108.865933,17.540599 108.855667,17.3121657 108.8454,17.070899 C108.835133,16.8296323 108.83,16.631999 108.83,16.477999 L108.83,12.150599 C108.83,11.1444657 108.6683,10.402699 108.3449,9.925299 C108.0215,9.447899 107.4594,9.209199 106.6586,9.209199 C105.806467,9.209199 105.193033,9.42736567 104.8183,9.863699 C104.443567,10.3000323 104.251067,10.9699323 104.2408,11.873399 L104.2408,11.873399 L105.3496,11.888799 L105.3496,11.580799 C105.3496,11.1906657 105.406067,10.8852323 105.519,10.664499 C105.631933,10.4437657 105.7808,10.287199 105.9656,10.194799 C106.1504,10.102399 106.360867,10.056199 106.597,10.056199 C106.884467,10.056199 107.107767,10.1229323 107.2669,10.256399 C107.426033,10.3898657 107.538967,10.6131657 107.6057,10.926299 C107.672433,11.2394323 107.7058,11.6680657 107.7058,12.212199 L107.7058,12.212199 L107.7058,12.843599 C107.048733,13.1413323 106.491767,13.4108323 106.0349,13.652099 C105.578033,13.8933657 105.208433,14.1397657 104.9261,14.391299 C104.643767,14.6428323 104.438433,14.9277323 104.3101,15.245999 C104.181767,15.5642657 104.1176,15.9492657 104.1176,16.400999 C104.1176,16.7603323 104.192033,17.0914323 104.3409,17.394299 C104.489767,17.6971657 104.697667,17.9384323 104.9646,18.118099 C105.231533,18.2977657 105.544667,18.387599 105.904,18.387599 C106.376267,18.387599 106.768967,18.248999 107.0821,17.971799 C107.395233,17.694599 107.6134,17.3763323 107.7366,17.016999 L107.736,17.018 Z M116.5608,20.789999 L116.5608,20.004599 C116.180933,19.973799 115.888333,19.7710323 115.683,19.396299 C115.477667,19.0215657 115.331367,18.5236323 115.2441,17.902499 C115.156833,17.2813657 115.1055,16.570399 115.0901,15.769599 C115.0747,14.968799 115.067,14.1269323 115.067,13.243999 C115.067,12.3610657 115.0747,11.5217657 115.0901,10.726099 C115.1055,9.93043233 115.156833,9.21946567 115.2441,8.593199 C115.331367,7.96693233 115.480233,7.46643233 115.6907,7.091699 C115.901167,6.71696567 116.1912,6.514199 116.5608,6.483399 L116.5608,6.483399 L116.5608,5.682599 C116.057733,5.69286567 115.641933,5.83403233 115.3134,6.106099 C114.984867,6.37816567 114.730767,6.75033233 114.5511,7.222599 C114.371433,7.69486567 114.237967,8.24413233 114.1507,8.870399 C114.063433,9.49666567 114.0121,10.1819657 113.9967,10.926299 C113.9813,11.6706323 113.9736,12.443199 113.9736,13.243999 C113.9736,14.044799 113.9813,14.8122323 113.9967,15.546299 C114.0121,16.2803657 114.063433,16.9579657 114.1507,17.579099 C114.237967,18.2002323 114.371433,18.7443657 114.5511,19.211499 C114.730767,19.6786323 114.984867,20.050799 115.3134,20.327999 C115.641933,20.605199 116.057733,20.759199 116.5608,20.789999 L116.5608,20.789999 Z M119.0248,21.174999 L119.0248,17.540599 C119.199333,17.7356657 119.4175,17.925599 119.6793,18.110399 C119.9411,18.295199 120.251667,18.387599 120.611,18.387599 C121.1654,18.387599 121.599167,18.2310323 121.9123,17.917899 C122.225433,17.6047657 122.4436,17.1684323 122.5668,16.608899 C122.69,16.0493657 122.7516,15.3897323 122.7516,14.629999 L122.7516,14.629999 L122.7516,12.751199 C122.7516,12.3097323 122.725933,11.8785323 122.6746,11.457599 C122.623267,11.0366657 122.525733,10.656799 122.382,10.317999 C122.238267,9.979199 122.0355,9.709699 121.7737,9.509499 C121.5119,9.309299 121.1654,9.209199 120.7342,9.209199 C120.3338,9.209199 119.995,9.29903233 119.7178,9.478699 C119.4406,9.65836567 119.2096,9.86113233 119.0248,10.086999 L119.0248,10.086999 L119.0248,9.347799 L117.9006,9.347799 L117.9006,21.174999 L119.0248,21.174999 Z M120.4416,17.494399 C120.143867,17.494399 119.874367,17.4302323 119.6331,17.301899 C119.391833,17.1735657 119.189067,17.0221323 119.0248,16.847599 L119.0248,16.847599 L119.0248,10.779999 C119.1788,10.625999 119.376433,10.471999 119.6177,10.317999 C119.858967,10.163999 120.123333,10.086999 120.4108,10.086999 C120.759867,10.086999 121.021667,10.1896657 121.1962,10.394999 C121.370733,10.6003323 121.486233,10.9006323 121.5427,11.295899 C121.599167,11.6911657 121.6274,12.1762657 121.6274,12.751199 L121.6274,12.751199 L121.6274,14.660799 C121.6274,15.2665323 121.599167,15.7824323 121.5427,16.208499 C121.486233,16.6345657 121.3733,16.955399 121.2039,17.170999 C121.0345,17.386599 120.7804,17.494399 120.4416,17.494399 Z M126.5246,18.387599 C127.150867,18.387599 127.6334,18.256699 127.9722,17.994899 C128.311,17.733099 128.552267,17.3532323 128.696,16.855299 C128.839733,16.3573657 128.9116,15.7490657 128.9116,15.030399 L128.9116,15.030399 L128.9116,12.566399 C128.9116,11.8477323 128.839733,11.2394323 128.696,10.741499 C128.552267,10.2435657 128.311,9.863699 127.9722,9.601899 C127.6334,9.340099 127.150867,9.209199 126.5246,9.209199 C125.918867,9.209199 125.444033,9.340099 125.1001,9.601899 C124.756167,9.863699 124.512333,10.2435657 124.3686,10.741499 C124.224867,11.2394323 124.153,11.8477323 124.153,12.566399 L124.153,12.566399 L124.153,15.030399 C124.153,15.7490657 124.224867,16.3573657 124.3686,16.855299 C124.512333,17.3532323 124.756167,17.733099 125.1001,17.994899 C125.444033,18.256699 125.918867,18.387599 126.5246,18.387599 Z M126.5246,17.540599 C126.134467,17.540599 125.852133,17.4379323 125.6776,17.232599 C125.503067,17.0272657 125.395267,16.7372323 125.3542,16.362499 C125.313133,15.9877657 125.2926,15.5642657 125.2926,15.091999 L125.2926,15.091999 L125.2926,12.504799 C125.2926,12.0222657 125.313133,11.5987657 125.3542,11.234299 C125.395267,10.8698323 125.503067,10.5823657 125.6776,10.371899 C125.852133,10.1614323 126.134467,10.056199 126.5246,10.056199 C126.914733,10.056199 127.199633,10.1614323 127.3793,10.371899 C127.558967,10.5823657 127.669333,10.8698323 127.7104,11.234299 C127.751467,11.5987657 127.772,12.0222657 127.772,12.504799 L127.772,12.504799 L127.772,15.091999 C127.772,15.5642657 127.751467,15.9877657 127.7104,16.362499 C127.669333,16.7372323 127.558967,17.0272657 127.3793,17.232599 C127.199633,17.4379323 126.914733,17.540599 126.5246,17.540599 Z M131.6836,18.248999 L131.6836,11.411399 C131.8992,11.0520657 132.148167,10.7902657 132.4305,10.625999 C132.712833,10.4617323 133.028533,10.379599 133.3776,10.379599 C133.47,10.379599 133.567533,10.387299 133.6702,10.402699 C133.772867,10.418099 133.860133,10.441199 133.932,10.471999 L133.932,10.471999 L133.932,9.270799 C133.890933,9.26053233 133.855,9.255399 133.8242,9.255399 L133.8242,9.255399 L133.7318,9.255399 C133.393,9.255399 133.0388,9.355499 132.6692,9.555699 C132.2996,9.755899 131.971067,10.0921323 131.6836,10.564399 L131.6836,10.564399 L131.6836,9.347799 L130.544,9.347799 L130.544,18.248999 L131.6836,18.248999 Z M138.2286,20.466599 C138.731667,20.466599 139.155167,20.412699 139.4991,20.304899 C139.843033,20.197099 140.120233,20.027699 140.3307,19.796699 C140.541167,19.565699 140.687467,19.2602657 140.7696,18.880399 L140.7696,18.880399 L142.9256,9.347799 L141.786,9.347799 L140.2922,16.924599 L138.7522,9.347799 L137.628,9.347799 L139.4606,17.186399 C139.532467,17.4738657 139.5992,17.7510657 139.6608,18.017999 C139.7224,18.2849323 139.7532,18.5005323 139.7532,18.664799 C139.7532,18.849599 139.709567,19.011299 139.6223,19.149899 C139.535033,19.288499 139.3605,19.396299 139.0987,19.473299 C138.8369,19.550299 138.449333,19.588799 137.936,19.588799 L137.936,19.588799 L137.936,20.466599 L138.2286,20.466599 Z M149.409,18.387599 C150.045533,18.387599 150.528067,18.256699 150.8566,17.994899 C151.185133,17.733099 151.4033,17.3737657 151.5111,16.916899 C151.6189,16.4600323 151.6728,15.9338657 151.6728,15.338399 L151.6728,15.338399 L151.6728,14.907199 L150.6256,14.907199 L150.6256,15.399999 C150.6256,15.8722657 150.599933,16.2675323 150.5486,16.585799 C150.497267,16.9040657 150.384333,17.1427657 150.2098,17.301899 C150.035267,17.4610323 149.773467,17.540599 149.4244,17.540599 C148.921333,17.540599 148.582533,17.3583657 148.408,16.993899 C148.233467,16.6294323 148.1462,16.000599 148.1462,15.107399 L148.1462,15.107399 L148.1462,12.612599 C148.1462,11.9863323 148.177,11.4858323 148.2386,11.111099 C148.3002,10.7363657 148.4234,10.4668657 148.6082,10.302599 C148.793,10.1383323 149.059933,10.056199 149.409,10.056199 C149.706733,10.056199 149.945433,10.1152323 150.1251,10.233299 C150.304767,10.3513657 150.4331,10.5541323 150.5101,10.841599 C150.5871,11.1290657 150.6256,11.534599 150.6256,12.058199 L150.6256,12.058199 L150.6256,12.489399 L151.6728,12.489399 L151.6728,12.058199 C151.6728,11.4935323 151.616333,10.995599 151.5034,10.564399 C151.390467,10.133199 151.169733,9.79953233 150.8412,9.563399 C150.512667,9.32726567 150.035267,9.209199 149.409,9.209199 C148.772467,9.209199 148.282233,9.33753233 147.9383,9.594199 C147.594367,9.85086567 147.355667,10.2435657 147.2222,10.772299 C147.088733,11.3010323 147.022,11.9760657 147.022,12.797399 L147.022,12.797399 L147.022,14.876399 C147.022,15.5437323 147.0759,16.1417657 147.1837,16.670499 C147.2915,17.1992323 147.5148,17.617599 147.8536,17.925599 C148.1924,18.233599 148.710867,18.387599 149.409,18.387599 Z M155.3842,18.387599 C156.010467,18.387599 156.493,18.256699 156.8318,17.994899 C157.1706,17.733099 157.411867,17.3532323 157.5556,16.855299 C157.699333,16.3573657 157.7712,15.7490657 157.7712,15.030399 L157.7712,15.030399 L157.7712,12.566399 C157.7712,11.8477323 157.699333,11.2394323 157.5556,10.741499 C157.411867,10.2435657 157.1706,9.863699 156.8318,9.601899 C156.493,9.340099 156.010467,9.209199 155.3842,9.209199 C154.778467,9.209199 154.303633,9.340099 153.9597,9.601899 C153.615767,9.863699 153.371933,10.2435657 153.2282,10.741499 C153.084467,11.2394323 153.0126,11.8477323 153.0126,12.566399 L153.0126,12.566399 L153.0126,15.030399 C153.0126,15.7490657 153.084467,16.3573657 153.2282,16.855299 C153.371933,17.3532323 153.615767,17.733099 153.9597,17.994899 C154.303633,18.256699 154.778467,18.387599 155.3842,18.387599 Z M155.3842,17.540599 C154.994067,17.540599 154.711733,17.4379323 154.5372,17.232599 C154.362667,17.0272657 154.254867,16.7372323 154.2138,16.362499 C154.172733,15.9877657 154.1522,15.5642657 154.1522,15.091999 L154.1522,15.091999 L154.1522,12.504799 C154.1522,12.0222657 154.172733,11.5987657 154.2138,11.234299 C154.254867,10.8698323 154.362667,10.5823657 154.5372,10.371899 C154.711733,10.1614323 154.994067,10.056199 155.3842,10.056199 C155.774333,10.056199 156.059233,10.1614323 156.2389,10.371899 C156.418567,10.5823657 156.528933,10.8698323 156.57,11.234299 C156.611067,11.5987657 156.6316,12.0222657 156.6316,12.504799 L156.6316,12.504799 L156.6316,15.091999 C156.6316,15.5642657 156.611067,15.9877657 156.57,16.362499 C156.528933,16.7372323 156.418567,17.0272657 156.2389,17.232599 C156.059233,17.4379323 155.774333,17.540599 155.3842,17.540599 Z M160.4508,18.248999 L160.4508,10.918599 C160.686933,10.672199 160.938467,10.471999 161.2054,10.317999 C161.472333,10.163999 161.734133,10.086999 161.9908,10.086999 C162.278267,10.086999 162.4913,10.1819657 162.6299,10.371899 C162.7685,10.5618323 162.8378,10.887799 162.8378,11.349799 L162.8378,11.349799 L162.8378,18.248999 L163.962,18.248999 L163.962,11.103399 C163.962,10.702999 163.910667,10.3616323 163.808,10.079299 C163.705333,9.79696567 163.551333,9.58136567 163.346,9.432499 C163.140667,9.28363233 162.889133,9.209199 162.5914,9.209199 C162.170467,9.209199 161.780333,9.309299 161.421,9.509499 C161.061667,9.709699 160.738267,9.963799 160.4508,10.271799 L160.4508,10.271799 L160.4508,9.347799 L159.3266,9.347799 L159.3266,18.248999 L160.4508,18.248999 Z M165.2248,20.789999 C165.738133,20.759199 166.159067,20.605199 166.4876,20.327999 C166.816133,20.050799 167.0728,19.6786323 167.2576,19.211499 C167.4424,18.7443657 167.578433,18.1976657 167.6657,17.571399 C167.752967,16.9451323 167.8043,16.2649657 167.8197,15.530899 C167.8351,14.7968323 167.8428,14.029399 167.8428,13.228599 C167.8428,12.4175323 167.8351,11.642399 167.8197,10.903199 C167.8043,10.163999 167.752967,9.48126567 167.6657,8.854999 C167.578433,8.22873233 167.4424,7.67946567 167.2576,7.207199 C167.0728,6.73493233 166.816133,6.36533233 166.4876,6.098399 C166.159067,5.83146567 165.738133,5.69286567 165.2248,5.682599 L165.2248,5.682599 L165.2248,6.467999 C165.614933,6.50906567 165.912667,6.71696567 166.118,7.091699 C166.323333,7.46643233 166.469633,7.961799 166.5569,8.577799 C166.644167,9.193799 166.6955,9.902199 166.7109,10.702999 C166.7263,11.503799 166.734,12.3456657 166.734,13.228599 C166.734,14.1115323 166.7263,14.9508323 166.7109,15.746499 C166.6955,16.5421657 166.644167,17.2531323 166.5569,17.879399 C166.469633,18.5056657 166.323333,19.0061657 166.118,19.380899 C165.912667,19.7556323 165.614933,19.9635323 165.2248,20.004599 L165.2248,20.004599 L165.2248,20.789999 Z M50.1406,34.497998 L50.1406,22.023998 L49.0164,22.023998 L49.0164,34.497998 L50.1406,34.497998 Z M53.8674,33.681798 C53.6004667,33.681798 53.3643333,33.581698 53.159,33.381498 C52.9536667,33.181298 52.851,32.8450647 52.851,32.372798 C52.851,32.0750647 52.8972,31.8158313 52.9896,31.595098 C53.082,31.3743647 53.2257333,31.1767313 53.4208,31.002198 C53.6158667,30.8276647 53.8699667,30.647998 54.1831,30.463198 C54.4962333,30.278398 54.8735333,30.0730647 55.315,29.847198 L55.315,29.847198 L55.315,32.619198 C55.2328667,32.7834647 55.1199333,32.9451647 54.9762,33.104298 C54.8324667,33.2634313 54.6682,33.3994647 54.4834,33.512398 C54.2986,33.6253313 54.0932667,33.681798 53.8674,33.681798 Z M55.345,33.267 L55.3563875,33.3829418 C55.3698625,33.5090293 55.392,33.662548 55.4228,33.843498 C55.4638667,34.0847647 55.4946667,34.3029313 55.5152,34.497998 L55.5152,34.497998 L56.5162,34.497998 C56.5110667,34.4415313 56.5059333,34.3722313 56.5008,34.290098 L56.4854,34.005198 C56.4751333,33.789598 56.4648667,33.5611647 56.4546,33.319898 C56.4443333,33.0786313 56.4392,32.880998 56.4392,32.726998 L56.4392,32.726998 L56.4392,28.399598 C56.4392,27.3934647 56.2775,26.651698 55.9541,26.174298 C55.6307,25.696898 55.0686,25.458198 54.2678,25.458198 C53.4156667,25.458198 52.8022333,25.6763647 52.4275,26.112698 C52.0527667,26.5490313 51.8602667,27.2189313 51.85,28.122398 L51.85,28.122398 L52.9588,28.137798 L52.9588,27.829798 C52.9588,27.4396647 53.0152667,27.1342313 53.1282,26.913498 C53.2411333,26.6927647 53.39,26.536198 53.5748,26.443798 C53.7596,26.351398 53.9700667,26.305198 54.2062,26.305198 C54.4936667,26.305198 54.7169667,26.3719313 54.8761,26.505398 C55.0352333,26.6388647 55.1481667,26.8621647 55.2149,27.175298 C55.2816333,27.4884313 55.315,27.9170647 55.315,28.461198 L55.315,28.461198 L55.315,29.092598 C54.6579333,29.3903313 54.1009667,29.6598313 53.6441,29.901098 C53.1872333,30.1423647 52.8176333,30.3887647 52.5353,30.640298 C52.2529667,30.8918313 52.0476333,31.1767313 51.9193,31.494998 C51.7909667,31.8132647 51.7268,32.1982647 51.7268,32.649998 C51.7268,33.0093313 51.8012333,33.3404313 51.9501,33.643298 C52.0989667,33.9461647 52.3068667,34.1874313 52.5738,34.367098 C52.8407333,34.5467647 53.1538667,34.636598 53.5132,34.636598 C53.9854667,34.636598 54.3781667,34.497998 54.6913,34.220798 C55.0044333,33.943598 55.2226,33.6253313 55.3458,33.265998 L55.345,33.267 Z M64.3548,34.651998 C65.1350667,34.651998 65.7382333,34.4928647 66.1643,34.174598 C66.5903667,33.8563313 66.8881,33.4174313 67.0575,32.857898 C67.2269,32.2983647 67.3116,31.6541313 67.3116,30.925198 L67.3116,30.925198 L67.3116,30.185998 L66.2028,30.185998 L66.2028,31.002198 C66.2028,31.5463313 66.1591667,32.0211647 66.0719,32.426698 C65.9846333,32.8322313 65.8101,33.1479313 65.5483,33.373798 C65.2865,33.5996647 64.8938,33.712598 64.3702,33.712598 C63.8568667,33.712598 63.4564667,33.6099313 63.169,33.404598 C62.8815333,33.1992647 62.6787667,32.8912647 62.5607,32.480598 C62.4426333,32.0699313 62.3836,31.556598 62.3836,30.940598 L62.3836,30.940598 L62.3836,25.627598 C62.3836,25.073198 62.4323667,24.5855313 62.5299,24.164598 C62.6274333,23.7436647 62.8173667,23.417698 63.0997,23.186698 C63.3820333,22.955698 63.8055333,22.840198 64.3702,22.840198 C64.8835333,22.840198 65.2736667,22.947998 65.5406,23.163598 C65.8075333,23.379198 65.9846333,23.6820647 66.0719,24.072198 C66.1591667,24.4623313 66.2028,24.9294647 66.2028,25.473598 L66.2028,25.473598 L66.2028,26.197398 L67.3116,26.197398 L67.3116,25.442798 C67.3116,24.7138647 67.2192,24.0850313 67.0344,23.556298 C66.8496,23.0275647 66.5441667,22.6194647 66.1181,22.331998 C65.6920333,22.0445313 65.1042667,21.900798 64.3548,21.900798 C63.5334667,21.900798 62.8918,22.0650647 62.4298,22.393598 C61.9678,22.7221313 61.6469667,23.178998 61.4673,23.764198 C61.2876333,24.349398 61.1978,25.026998 61.1978,25.796998 L61.1978,25.796998 L61.1978,30.755798 C61.1978,31.4744647 61.2850667,32.1289647 61.4596,32.719298 C61.6341333,33.3096313 61.9498333,33.7793313 62.4067,34.128398 C62.8635667,34.4774647 63.5129333,34.651998 64.3548,34.651998 Z M70.2222,34.636598 C70.6431333,34.636598 71.0384,34.5313647 71.408,34.320898 C71.7776,34.1104313 72.1061333,33.8409313 72.3936,33.512398 L72.3936,33.512398 L72.3936,34.497998 L73.5178,34.497998 L73.5178,25.596798 L72.3936,25.596798 L72.3936,32.865598 C72.1574667,33.1222647 71.9033667,33.3327313 71.6313,33.496998 C71.3592333,33.6612647 71.0897333,33.743398 70.8228,33.743398 C70.5353333,33.743398 70.3223,33.650998 70.1837,33.466198 C70.0451,33.281398 69.9758,32.957998 69.9758,32.495998 L69.9758,32.495998 L69.9758,25.596798 L68.8362,25.596798 L68.8362,32.742398 C68.8362,33.142798 68.8901,33.481598 68.9979,33.758798 C69.1057,34.035998 69.2622667,34.251598 69.4676,34.405598 C69.6729333,34.559598 69.9244667,34.636598 70.2222,34.636598 Z M76.5362,34.497998 L76.5362,22.023998 L75.412,22.023998 L75.412,34.497998 L76.5362,34.497998 Z M80.4786,34.605798 C80.6326,34.605798 80.7917333,34.598098 80.956,34.582698 C81.1202667,34.567298 81.2794,34.544198 81.4334,34.513398 L81.4334,34.513398 L81.4334,33.650998 C81.3307333,33.6715313 81.2203667,33.689498 81.1023,33.704898 C80.9842333,33.720298 80.879,33.727998 80.7866,33.727998 C80.4580667,33.727998 80.2450333,33.6381647 80.1475,33.458498 C80.0499667,33.2788313 80.0012,32.973398 80.0012,32.542198 L80.0012,32.542198 L80.0012,26.335998 L81.4796,26.335998 L81.4796,25.596798 L80.0012,25.596798 L80.0012,22.840198 L78.877,22.840198 L78.877,25.596798 L77.7836,25.596798 L77.7836,26.335998 L78.877,26.335998 L78.877,32.649998 C78.877,33.0298647 78.9206333,33.366098 79.0079,33.658698 C79.0951667,33.951298 79.2543,34.182298 79.4853,34.351698 C79.7163,34.521098 80.0474,34.605798 80.4786,34.605798 Z M83.9898,34.636598 C84.4107333,34.636598 84.806,34.5313647 85.1756,34.320898 C85.5452,34.1104313 85.8737333,33.8409313 86.1612,33.512398 L86.1612,33.512398 L86.1612,34.497998 L87.2854,34.497998 L87.2854,25.596798 L86.1612,25.596798 L86.1612,32.865598 C85.9250667,33.1222647 85.6709667,33.3327313 85.3989,33.496998 C85.1268333,33.6612647 84.8573333,33.743398 84.5904,33.743398 C84.3029333,33.743398 84.0899,33.650998 83.9513,33.466198 C83.8127,33.281398 83.7434,32.957998 83.7434,32.495998 L83.7434,32.495998 L83.7434,25.596798 L82.6038,25.596798 L82.6038,32.742398 C82.6038,33.142798 82.6577,33.481598 82.7655,33.758798 C82.8733,34.035998 83.0298667,34.251598 83.2352,34.405598 C83.4405333,34.559598 83.6920667,34.636598 83.9898,34.636598 Z M90.2422,34.497998 L90.2422,27.660398 C90.4578,27.3010647 90.7067667,27.0392647 90.9891,26.874998 C91.2714333,26.7107313 91.5871333,26.628598 91.9362,26.628598 C92.0286,26.628598 92.1261333,26.636298 92.2288,26.651698 C92.3314667,26.667098 92.4187333,26.690198 92.4906,26.720998 L92.4906,26.720998 L92.4906,25.519798 C92.4495333,25.5095313 92.4136,25.504398 92.3828,25.504398 L92.3828,25.504398 L92.2904,25.504398 C91.9516,25.504398 91.5974,25.604498 91.2278,25.804698 C90.8582,26.004898 90.5296667,26.3411313 90.2422,26.813398 L90.2422,26.813398 L90.2422,25.596798 L89.1026,25.596798 L89.1026,34.497998 L90.2422,34.497998 Z M95.4628,33.681798 C95.1958667,33.681798 94.9597333,33.581698 94.7544,33.381498 C94.5490667,33.181298 94.4464,32.8450647 94.4464,32.372798 C94.4464,32.0750647 94.4926,31.8158313 94.585,31.595098 C94.6774,31.3743647 94.8211333,31.1767313 95.0162,31.002198 C95.2112667,30.8276647 95.4653667,30.647998 95.7785,30.463198 C96.0916333,30.278398 96.4689333,30.0730647 96.9104,29.847198 L96.9104,29.847198 L96.9104,32.619198 C96.8282667,32.7834647 96.7153333,32.9451647 96.5716,33.104298 C96.4278667,33.2634313 96.2636,33.3994647 96.0788,33.512398 C95.894,33.6253313 95.6886667,33.681798 95.4628,33.681798 Z M96.941,33.267 L96.9517875,33.3829418 C96.9652625,33.5090293 96.9874,33.662548 97.0182,33.843498 C97.0592667,34.0847647 97.0900667,34.3029313 97.1106,34.497998 L97.1106,34.497998 L98.1116,34.497998 C98.1013333,34.3850647 98.0910667,34.220798 98.0808,34.005198 C98.0705333,33.789598 98.0602667,33.5611647 98.05,33.319898 C98.0397333,33.0786313 98.0346,32.880998 98.0346,32.726998 L98.0346,32.726998 L98.0346,28.399598 C98.0346,27.3934647 97.8729,26.651698 97.5495,26.174298 C97.2261,25.696898 96.664,25.458198 95.8632,25.458198 C95.0110667,25.458198 94.3976333,25.6763647 94.0229,26.112698 C93.6481667,26.5490313 93.4556667,27.2189313 93.4454,28.122398 L93.4454,28.122398 L94.5542,28.137798 L94.5542,27.829798 C94.5542,27.4396647 94.6106667,27.1342313 94.7236,26.913498 C94.8365333,26.6927647 94.9854,26.536198 95.1702,26.443798 C95.355,26.351398 95.5654667,26.305198 95.8016,26.305198 C96.0890667,26.305198 96.3123667,26.3719313 96.4715,26.505398 C96.6306333,26.6388647 96.7435667,26.8621647 96.8103,27.175298 C96.8770333,27.4884313 96.9104,27.9170647 96.9104,28.461198 L96.9104,28.461198 L96.9104,29.092598 C96.2533333,29.3903313 95.6963667,29.6598313 95.2395,29.901098 C94.7826333,30.1423647 94.4130333,30.3887647 94.1307,30.640298 C93.8483667,30.8918313 93.6430333,31.1767313 93.5147,31.494998 C93.3863667,31.8132647 93.3222,32.1982647 93.3222,32.649998 C93.3222,33.0093313 93.3966333,33.3404313 93.5455,33.643298 C93.6943667,33.9461647 93.9022667,34.1874313 94.1692,34.367098 C94.4361333,34.5467647 94.7492667,34.636598 95.1086,34.636598 C95.5808667,34.636598 95.9735667,34.497998 96.2867,34.220798 C96.5998333,33.943598 96.818,33.6253313 96.9412,33.265998 L96.941,33.267 Z" id="Diseñopara(porycon)laCultura" fill="#000000" fill-rule="nonzero"></path>
                <g id="Group-9-Copy-11" fill="#A4A49B">
                    <path d="M20.8250502,22.9899281 C19.8078814,22.9899281 19.7914283,23.6847375 19.7914283,27.3290439 C19.7914283,30.9048565 19.875522,31.6680378 20.8250502,31.6680378 C21.7738471,31.6680378 21.8586721,30.9048565 21.8586721,27.3290439 C21.8586721,23.6847375 21.842219,22.9899281 20.8250502,22.9899281" id="Fill-1"></path>
                    <path d="M25.1764876,11.529997 C24.1531031,11.529997 24.1692972,12.7051158 24.1692972,14.4007628 C24.1692972,16.5323566 24.3208032,17.4219223 25.1764876,17.4219223 C25.9825688,17.4219223 26.1340759,16.5323566 26.1340759,14.4007628 C26.1340759,12.7051158 26.150147,11.529997 25.1764876,11.529997" id="Fill-3"></path>
                    <path d="M13.3565133,17.4218857 C14.2128071,17.4218857 14.3644333,16.53232 14.3644333,14.4007262 C14.3644333,12.7050793 14.3800196,11.5299605 13.3565133,11.5299605 C12.3833414,11.5299605 12.399777,12.7050793 12.399777,14.4007262 C12.399777,16.53232 12.5507977,17.4218857 13.3565133,17.4218857" id="Fill-5"></path>
                    <path d="M29.7539543,20.6913289 L35.1675201,20.6913289 L35.1675201,19.8553883 L29.7539543,19.8553883 L29.7539543,20.6913289 Z M28.5007136,18.7153695 L26.2502917,18.7153695 L26.2502917,17.7751038 L26.2181167,17.7751038 C25.7811948,18.596907 25.1266041,18.8829476 24.2196103,18.8829476 C21.7688259,18.8829476 21.8526759,16.1635506 21.8526759,14.4170818 C21.8526759,12.7051036 21.7858884,10.0690692 24.1693978,10.0690692 C25.025326,10.0690692 25.6131291,10.3211067 26.0998979,11.0433379 L26.1341448,11.0433379 L26.1341448,6.59368151 L28.5007136,6.59368151 L28.5007136,18.7153695 Z M20.8250258,33.3966763 C17.6383601,33.3966763 17.4009476,31.0070731 17.4009476,27.295248 C17.4009476,22.7691759 17.909532,21.2606071 20.8250258,21.2606071 C23.7405197,21.2606071 24.2491041,22.7691759 24.2491041,27.295248 C24.2491041,31.0070731 24.0116916,33.3966763 20.8250258,33.3966763 L20.8250258,33.3966763 Z M16.9144225,33.2440888 L9.89722539,33.2440888 L9.89722539,31.1595387 C13.6256255,26.1932542 14.4053818,25.6169073 14.4053818,24.1422197 C14.4053818,23.5488103 14.1852756,22.9898915 13.5076505,22.9898915 C12.524363,22.9898915 12.4732974,23.9222353 12.4732974,24.6846854 L10.0835723,24.6846854 C9.91392227,22.4813071 11.1510754,21.2606071 13.3380005,21.2606071 C15.3887912,21.2606071 16.7958382,22.091429 16.7958382,24.3121135 C16.7958382,26.9728886 13.6939974,29.9899043 12.4056567,31.4135262 L16.9144225,31.4135262 L16.9144225,33.2440888 Z M10.0326285,6.59368151 L12.3998067,6.59368151 L12.3998067,11.0433379 L12.4338099,11.0433379 C12.9205786,10.3211067 13.5083818,10.0690692 14.3643099,10.0690692 C16.7479413,10.0690692 16.6810319,12.7051036 16.6810319,14.4170818 C16.6810319,16.1635506 16.7645163,18.8829476 14.3140974,18.8829476 C13.4071037,18.8829476 12.7521474,18.596907 12.3162005,17.7751038 L12.2821974,17.7751038 L12.2821974,18.7153695 L10.0326285,18.7153695 L10.0326285,6.59368151 Z M18.091857,18.7153695 L20.4586696,18.7153695 L20.4586696,10.2371348 L18.091857,10.2371348 L18.091857,18.7153695 Z M18.091857,8.45739409 L20.4586696,8.45739409 L20.4586696,6.59368151 L18.091857,6.59368151 L18.091857,8.45739409 Z M19.3699601,0.0164531257 C8.67152847,0.0164531257 0,8.68920035 0,19.3848289 C0,30.0841137 8.67152847,38.7562515 19.3699601,38.7562515 C30.0670512,38.7562515 38.7400422,30.0841137 38.7400422,19.3848289 C38.7400422,8.68920035 30.0670512,0.0164531257 19.3699601,0.0164531257 L19.3699601,0.0164531257 Z" id="Fill-7"></path>
                </g>
            </g>
            <line x1="47.55" y1="0.5" x2="222.340882" y2="0.5" id="Path-5-Copy-19" stroke="#000000" stroke-width="0.5"></line>
        </g>
    </g>
</svg>