<?xml version="1.0" encoding="UTF-8"?>
<svg width="177px" height="39px" viewBox="0 0 177 39" version="1.1" xmlns="http://www.w3.org/2000/svg" xmlns:xlink="http://www.w3.org/1999/xlink">
    <title>desarrollo</title>
    <g id="Page-1" stroke="none" stroke-width="1" fill="none" fill-rule="evenodd">
        <g id="desarrollo" transform="translate(-0.000000, 0.000000)">
            <path d="M51.9116,18.248999 C52.7432,18.248999 53.3951333,18.0898657 53.8674,17.771599 C54.3396667,17.4533323 54.6784667,17.0041657 54.8838,16.424099 C55.0891333,15.8440323 55.1918,15.168999 55.1918,14.398999 L55.1918,14.398999 L55.1918,9.440199 C55.1918,8.71126567 55.0891333,8.069599 54.8838,7.515199 C54.6784667,6.960799 54.3319667,6.53216567 53.8443,6.229299 C53.3566333,5.92643233 52.6764667,5.774999 51.8038,5.774999 L51.8038,5.774999 L49.0934,5.774999 L49.0934,18.248999 L51.9116,18.248999 Z M51.8346,17.371199 L50.2638,17.371199 L50.2638,6.683599 L51.7884,6.683599 C52.4146667,6.683599 52.8843667,6.79396567 53.1975,7.014699 C53.5106333,7.23543233 53.7211,7.55883233 53.8289,7.984899 C53.9367,8.41096567 53.9906,8.93713233 53.9906,9.563399 L53.9906,9.563399 L53.9906,14.214199 C53.9906,14.8199323 53.9495333,15.361499 53.8674,15.838899 C53.7852667,16.316299 53.5902,16.6910323 53.2822,16.963099 C52.9742,17.2351657 52.4916667,17.371199 51.8346,17.371199 L51.8346,17.371199 Z M58.1332,8.115799 L58.1332,6.591199 L57.009,6.591199 L57.009,8.115799 L58.1332,8.115799 Z M58.1332,18.248999 L58.1332,9.347799 L57.009,9.347799 L57.009,18.248999 L58.1332,18.248999 Z M62.0602,18.387599 C62.5222,18.387599 62.9226,18.302899 63.2614,18.133499 C63.6002,17.964099 63.8645667,17.7228323 64.0545,17.409699 C64.2444333,17.0965657 64.3394,16.708999 64.3394,16.246999 C64.3394,15.8363323 64.2675333,15.4795657 64.1238,15.176699 C63.9800667,14.8738323 63.7952667,14.599199 63.5694,14.352799 C63.3435333,14.106399 63.1074,13.875399 62.861,13.659799 L62.861,13.659799 L61.5982,12.535599 C61.321,12.2789323 61.1310667,12.0479323 61.0284,11.842599 C60.9257333,11.6372657 60.8744,11.4011323 60.8744,11.134199 C60.8744,10.795399 60.9796333,10.5310323 61.1901,10.341099 C61.4005667,10.1511657 61.6752,10.056199 62.014,10.056199 C62.2706667,10.056199 62.4888333,10.117799 62.6685,10.240999 C62.8481667,10.364199 62.9893333,10.556699 63.092,10.818499 C63.1946667,11.080299 63.2562667,11.411399 63.2768,11.811799 L63.2768,11.811799 L64.0776,11.549999 C64.0468,10.8621323 63.8568667,10.3000323 63.5078,9.863699 C63.1587333,9.42736567 62.6454,9.209199 61.9678,9.209199 C61.5468667,9.209199 61.1772667,9.28876567 60.859,9.447899 C60.5407333,9.60703233 60.2917667,9.832899 60.1121,10.125499 C59.9324333,10.418099 59.8426,10.779999 59.8426,11.211199 C59.8426,11.6834657 59.9452667,12.088999 60.1506,12.427799 C60.3559333,12.766599 60.6588,13.105399 61.0592,13.444199 L61.0592,13.444199 L62.2758,14.491399 C62.6454,14.8096657 62.9174667,15.115099 63.092,15.407699 C63.2665333,15.700299 63.3538,15.9903323 63.3538,16.277799 C63.3538,16.678199 63.2485667,16.9887657 63.0381,17.209499 C62.8276333,17.4302323 62.5273333,17.540599 62.1372,17.540599 C61.6752,17.540599 61.3158667,17.3840323 61.0592,17.070899 C60.8025333,16.7577657 60.6434,16.2572657 60.5818,15.569399 L60.5818,15.569399 L59.6424,15.861999 C59.704,16.631999 59.9452667,17.2454323 60.3662,17.702299 C60.7871333,18.1591657 61.3518,18.387599 62.0602,18.387599 Z M67.8506,18.387599 C68.7232667,18.387599 69.3264333,18.1437657 69.6601,17.656099 C69.9937667,17.1684323 70.1606,16.5190657 70.1606,15.707999 L70.1606,15.707999 L70.1606,15.215199 L69.0672,15.215199 L69.0672,15.831199 C69.0672,16.293199 69.0133,16.6499657 68.9055,16.901499 C68.7977,17.1530323 68.6514,17.3224323 68.4666,17.409699 C68.2818,17.4969657 68.0764667,17.540599 67.8506,17.540599 C67.5528667,17.540599 67.3090333,17.4687323 67.1191,17.324999 C66.9291667,17.1812657 66.7905667,16.9425657 66.7033,16.608899 C66.6160333,16.2752323 66.5724,15.8209323 66.5724,15.245999 L66.5724,15.245999 L66.5724,13.690599 L70.176,13.690599 L70.176,12.889799 C70.176,12.0479323 70.1118333,11.357499 69.9835,10.818499 C69.8551667,10.279499 69.6267333,9.87653233 69.2982,9.609599 C68.9696667,9.34266567 68.4922667,9.209199 67.866,9.209199 C67.3218667,9.209199 66.8701333,9.31443233 66.5108,9.524899 C66.1514667,9.73536567 65.8845333,10.0895657 65.71,10.587499 C65.5354667,11.0854323 65.4482,11.7758657 65.4482,12.658799 L65.4482,12.658799 L65.4482,14.907199 C65.4482,15.7593323 65.5329,16.4420657 65.7023,16.955399 C65.8717,17.4687323 66.1335,17.8357657 66.4877,18.056499 C66.8419,18.2772323 67.2962,18.387599 67.8506,18.387599 Z M69.0672,13.043799 L66.5724,13.043799 L66.5724,12.443199 C66.5724,11.8066657 66.6134667,11.3164323 66.6956,10.972499 C66.7777333,10.6285657 66.9137667,10.3898657 67.1037,10.256399 C67.2936333,10.1229323 67.5426,10.056199 67.8506,10.056199 C68.2202,10.056199 68.4897,10.1460323 68.6591,10.325699 C68.8285,10.5053657 68.9388667,10.7620323 68.9902,11.095699 C69.0415333,11.4293657 69.0672,11.8323323 69.0672,12.304599 L69.0672,12.304599 L69.0672,13.043799 Z M74.9346,7.592199 C75.2426,7.592199 75.4736,7.51263233 75.6276,7.353499 C75.7816,7.19436567 75.8817,7.00443233 75.9279,6.783699 C75.9741,6.56296567 75.9972,6.360199 75.9972,6.175399 L75.9972,6.175399 L75.3196,6.175399 C75.3196,6.421799 75.2785333,6.59376567 75.1964,6.691299 C75.1142667,6.78883233 74.9859333,6.837599 74.8114,6.837599 C74.6266,6.837599 74.4469333,6.775999 74.2724,6.652799 C74.0978667,6.529599 73.9130667,6.40896567 73.718,6.290899 C73.5229333,6.17283233 73.3022,6.113799 73.0558,6.113799 C72.7683333,6.113799 72.5476,6.190799 72.3936,6.344799 C72.2396,6.498799 72.1343667,6.68103233 72.0779,6.891499 C72.0214333,7.10196567 71.9932,7.29446567 71.9932,7.468999 L71.9932,7.468999 L72.6862,7.468999 C72.6862,7.26366567 72.7298333,7.10966567 72.8171,7.006999 C72.9043667,6.90433233 73.0301333,6.852999 73.1944,6.852999 C73.3792,6.852999 73.5563,6.914599 73.7257,7.037799 C73.8951,7.160999 74.0773333,7.284199 74.2724,7.407399 C74.4674667,7.530599 74.6882,7.592199 74.9346,7.592199 Z M72.8248,18.248999 L72.8248,10.918599 C73.0609333,10.672199 73.3124667,10.471999 73.5794,10.317999 C73.8463333,10.163999 74.1081333,10.086999 74.3648,10.086999 C74.6522667,10.086999 74.8653,10.1819657 75.0039,10.371899 C75.1425,10.5618323 75.2118,10.887799 75.2118,11.349799 L75.2118,11.349799 L75.2118,18.248999 L76.336,18.248999 L76.336,11.103399 C76.336,10.702999 76.2846667,10.3616323 76.182,10.079299 C76.0793333,9.79696567 75.9253333,9.58136567 75.72,9.432499 C75.5146667,9.28363233 75.2631333,9.209199 74.9654,9.209199 C74.5444667,9.209199 74.1543333,9.309299 73.795,9.509499 C73.4356667,9.709699 73.1122667,9.963799 72.8248,10.271799 L72.8248,10.271799 L72.8248,9.347799 L71.7006,9.347799 L71.7006,18.248999 L72.8248,18.248999 Z M80.2014,18.387599 C80.8276667,18.387599 81.3102,18.256699 81.649,17.994899 C81.9878,17.733099 82.2290667,17.3532323 82.3728,16.855299 C82.5165333,16.3573657 82.5884,15.7490657 82.5884,15.030399 L82.5884,15.030399 L82.5884,12.566399 C82.5884,11.8477323 82.5165333,11.2394323 82.3728,10.741499 C82.2290667,10.2435657 81.9878,9.863699 81.649,9.601899 C81.3102,9.340099 80.8276667,9.209199 80.2014,9.209199 C79.5956667,9.209199 79.1208333,9.340099 78.7769,9.601899 C78.4329667,9.863699 78.1891333,10.2435657 78.0454,10.741499 C77.9016667,11.2394323 77.8298,11.8477323 77.8298,12.566399 L77.8298,12.566399 L77.8298,15.030399 C77.8298,15.7490657 77.9016667,16.3573657 78.0454,16.855299 C78.1891333,17.3532323 78.4329667,17.733099 78.7769,17.994899 C79.1208333,18.256699 79.5956667,18.387599 80.2014,18.387599 Z M80.2014,17.540599 C79.8112667,17.540599 79.5289333,17.4379323 79.3544,17.232599 C79.1798667,17.0272657 79.0720667,16.7372323 79.031,16.362499 C78.9899333,15.9877657 78.9694,15.5642657 78.9694,15.091999 L78.9694,15.091999 L78.9694,12.504799 C78.9694,12.0222657 78.9899333,11.5987657 79.031,11.234299 C79.0720667,10.8698323 79.1798667,10.5823657 79.3544,10.371899 C79.5289333,10.1614323 79.8112667,10.056199 80.2014,10.056199 C80.5915333,10.056199 80.8764333,10.1614323 81.0561,10.371899 C81.2357667,10.5823657 81.3461333,10.8698323 81.3872,11.234299 C81.4282667,11.5987657 81.4488,12.0222657 81.4488,12.504799 L81.4488,12.504799 L81.4488,15.091999 C81.4488,15.5642657 81.4282667,15.9877657 81.3872,16.362499 C81.3461333,16.7372323 81.2357667,17.0272657 81.0561,17.232599 C80.8764333,17.4379323 80.5915333,17.540599 80.2014,17.540599 Z M88.4096,21.174999 L88.4096,17.540599 C88.5841333,17.7356657 88.8023,17.925599 89.0641,18.110399 C89.3259,18.295199 89.6364667,18.387599 89.9958,18.387599 C90.5502,18.387599 90.9839667,18.2310323 91.2971,17.917899 C91.6102333,17.6047657 91.8284,17.1684323 91.9516,16.608899 C92.0748,16.0493657 92.1364,15.3897323 92.1364,14.629999 L92.1364,14.629999 L92.1364,12.751199 C92.1364,12.3097323 92.1107333,11.8785323 92.0594,11.457599 C92.0080667,11.0366657 91.9105333,10.656799 91.7668,10.317999 C91.6230667,9.979199 91.4203,9.709699 91.1585,9.509499 C90.8967,9.309299 90.5502,9.209199 90.119,9.209199 C89.7186,9.209199 89.3798,9.29903233 89.1026,9.478699 C88.8254,9.65836567 88.5944,9.86113233 88.4096,10.086999 L88.4096,10.086999 L88.4096,9.347799 L87.2854,9.347799 L87.2854,21.174999 L88.4096,21.174999 Z M89.8264,17.494399 C89.5286667,17.494399 89.2591667,17.4302323 89.0179,17.301899 C88.7766333,17.1735657 88.5738667,17.0221323 88.4096,16.847599 L88.4096,16.847599 L88.4096,10.779999 C88.5636,10.625999 88.7612333,10.471999 89.0025,10.317999 C89.2437667,10.163999 89.5081333,10.086999 89.7956,10.086999 C90.1446667,10.086999 90.4064667,10.1896657 90.581,10.394999 C90.7555333,10.6003323 90.8710333,10.9006323 90.9275,11.295899 C90.9839667,11.6911657 91.0122,12.1762657 91.0122,12.751199 L91.0122,12.751199 L91.0122,14.660799 C91.0122,15.2665323 90.9839667,15.7824323 90.9275,16.208499 C90.8710333,16.6345657 90.7581,16.955399 90.5887,17.170999 C90.4193,17.386599 90.1652,17.494399 89.8264,17.494399 Z M95.6014,17.432799 C95.3344667,17.432799 95.0983333,17.332699 94.893,17.132499 C94.6876667,16.932299 94.585,16.5960657 94.585,16.123799 C94.585,15.8260657 94.6312,15.5668323 94.7236,15.346099 C94.816,15.1253657 94.9597333,14.9277323 95.1548,14.753199 C95.3498667,14.5786657 95.6039667,14.398999 95.9171,14.214199 C96.2302333,14.029399 96.6075333,13.8240657 97.049,13.598199 L97.049,13.598199 L97.049,16.370199 C96.9668667,16.5344657 96.8539333,16.6961657 96.7102,16.855299 C96.5664667,17.0144323 96.4022,17.1504657 96.2174,17.263399 C96.0326,17.3763323 95.8272667,17.432799 95.6014,17.432799 Z M97.079,17.018 L97.0903875,17.1339427 C97.1038625,17.2600302 97.126,17.413549 97.1568,17.594499 C97.1978667,17.8357657 97.2286667,18.0539323 97.2492,18.248999 L97.2492,18.248999 L98.2502,18.248999 C98.2450667,18.1925323 98.2399333,18.1232323 98.2348,18.041099 L98.2194,17.756199 C98.2091333,17.540599 98.1988667,17.3121657 98.1886,17.070899 C98.1783333,16.8296323 98.1732,16.631999 98.1732,16.477999 L98.1732,16.477999 L98.1732,12.150599 C98.1732,11.1444657 98.0115,10.402699 97.6881,9.925299 C97.3647,9.447899 96.8026,9.209199 96.0018,9.209199 C95.1496667,9.209199 94.5362333,9.42736567 94.1615,9.863699 C93.7867667,10.3000323 93.5942667,10.9699323 93.584,11.873399 L93.584,11.873399 L94.6928,11.888799 L94.6928,11.580799 C94.6928,11.1906657 94.7492667,10.8852323 94.8622,10.664499 C94.9751333,10.4437657 95.124,10.287199 95.3088,10.194799 C95.4936,10.102399 95.7040667,10.056199 95.9402,10.056199 C96.2276667,10.056199 96.4509667,10.1229323 96.6101,10.256399 C96.7692333,10.3898657 96.8821667,10.6131657 96.9489,10.926299 C97.0156333,11.2394323 97.049,11.6680657 97.049,12.212199 L97.049,12.212199 L97.049,12.843599 C96.3919333,13.1413323 95.8349667,13.4108323 95.3781,13.652099 C94.9212333,13.8933657 94.5516333,14.1397657 94.2693,14.391299 C93.9869667,14.6428323 93.7816333,14.9277323 93.6533,15.245999 C93.5249667,15.5642657 93.4608,15.9492657 93.4608,16.400999 C93.4608,16.7603323 93.5352333,17.0914323 93.6841,17.394299 C93.8329667,17.6971657 94.0408667,17.9384323 94.3078,18.118099 C94.5747333,18.2977657 94.8878667,18.387599 95.2472,18.387599 C95.7194667,18.387599 96.1121667,18.248999 96.4253,17.971799 C96.7384333,17.694599 96.9566,17.3763323 97.0798,17.016999 L97.079,17.018 Z M101.0376,18.248999 L101.0376,11.411399 C101.2532,11.0520657 101.502167,10.7902657 101.7845,10.625999 C102.066833,10.4617323 102.382533,10.379599 102.7316,10.379599 C102.824,10.379599 102.921533,10.387299 103.0242,10.402699 C103.126867,10.418099 103.214133,10.441199 103.286,10.471999 L103.286,10.471999 L103.286,9.270799 C103.244933,9.26053233 103.209,9.255399 103.1782,9.255399 L103.1782,9.255399 L103.0858,9.255399 C102.747,9.255399 102.3928,9.355499 102.0232,9.555699 C101.6536,9.755899 101.325067,10.0921323 101.0376,10.564399 L101.0376,10.564399 L101.0376,9.347799 L99.898,9.347799 L99.898,18.248999 L101.0376,18.248999 Z M106.2582,17.432799 C105.991267,17.432799 105.755133,17.332699 105.5498,17.132499 C105.344467,16.932299 105.2418,16.5960657 105.2418,16.123799 C105.2418,15.8260657 105.288,15.5668323 105.3804,15.346099 C105.4728,15.1253657 105.616533,14.9277323 105.8116,14.753199 C106.006667,14.5786657 106.260767,14.398999 106.5739,14.214199 C106.887033,14.029399 107.264333,13.8240657 107.7058,13.598199 L107.7058,13.598199 L107.7058,16.370199 C107.623667,16.5344657 107.510733,16.6961657 107.367,16.855299 C107.223267,17.0144323 107.059,17.1504657 106.8742,17.263399 C106.6894,17.3763323 106.484067,17.432799 106.2582,17.432799 Z M107.736,17.018 L107.747188,17.1339427 C107.760663,17.2600302 107.7828,17.413549 107.8136,17.594499 C107.854667,17.8357657 107.885467,18.0539323 107.906,18.248999 L107.906,18.248999 L108.907,18.248999 C108.896733,18.1360657 108.886467,17.971799 108.8762,17.756199 C108.865933,17.540599 108.855667,17.3121657 108.8454,17.070899 C108.835133,16.8296323 108.83,16.631999 108.83,16.477999 L108.83,12.150599 C108.83,11.1444657 108.6683,10.402699 108.3449,9.925299 C108.0215,9.447899 107.4594,9.209199 106.6586,9.209199 C105.806467,9.209199 105.193033,9.42736567 104.8183,9.863699 C104.443567,10.3000323 104.251067,10.9699323 104.2408,11.873399 L104.2408,11.873399 L105.3496,11.888799 L105.3496,11.580799 C105.3496,11.1906657 105.406067,10.8852323 105.519,10.664499 C105.631933,10.4437657 105.7808,10.287199 105.9656,10.194799 C106.1504,10.102399 106.360867,10.056199 106.597,10.056199 C106.884467,10.056199 107.107767,10.1229323 107.2669,10.256399 C107.426033,10.3898657 107.538967,10.6131657 107.6057,10.926299 C107.672433,11.2394323 107.7058,11.6680657 107.7058,12.212199 L107.7058,12.212199 L107.7058,12.843599 C107.048733,13.1413323 106.491767,13.4108323 106.0349,13.652099 C105.578033,13.8933657 105.208433,14.1397657 104.9261,14.391299 C104.643767,14.6428323 104.438433,14.9277323 104.3101,15.245999 C104.181767,15.5642657 104.1176,15.9492657 104.1176,16.400999 C104.1176,16.7603323 104.192033,17.0914323 104.3409,17.394299 C104.489767,17.6971657 104.697667,17.9384323 104.9646,18.118099 C105.231533,18.2977657 105.544667,18.387599 105.904,18.387599 C106.376267,18.387599 106.768967,18.248999 107.0821,17.971799 C107.395233,17.694599 107.6134,17.3763323 107.7366,17.016999 L107.736,17.018 Z M115.8524,18.387599 C116.725067,18.387599 117.328233,18.1437657 117.6619,17.656099 C117.995567,17.1684323 118.1624,16.5190657 118.1624,15.707999 L118.1624,15.707999 L118.1624,15.215199 L117.069,15.215199 L117.069,15.831199 C117.069,16.293199 117.0151,16.6499657 116.9073,16.901499 C116.7995,17.1530323 116.6532,17.3224323 116.4684,17.409699 C116.2836,17.4969657 116.078267,17.540599 115.8524,17.540599 C115.554667,17.540599 115.310833,17.4687323 115.1209,17.324999 C114.930967,17.1812657 114.792367,16.9425657 114.7051,16.608899 C114.617833,16.2752323 114.5742,15.8209323 114.5742,15.245999 L114.5742,15.245999 L114.5742,13.690599 L118.1778,13.690599 L118.1778,12.889799 C118.1778,12.0479323 118.113633,11.357499 117.9853,10.818499 C117.856967,10.279499 117.628533,9.87653233 117.3,9.609599 C116.971467,9.34266567 116.494067,9.209199 115.8678,9.209199 C115.323667,9.209199 114.871933,9.31443233 114.5126,9.524899 C114.153267,9.73536567 113.886333,10.0895657 113.7118,10.587499 C113.537267,11.0854323 113.45,11.7758657 113.45,12.658799 L113.45,12.658799 L113.45,14.907199 C113.45,15.7593323 113.5347,16.4420657 113.7041,16.955399 C113.8735,17.4687323 114.1353,17.8357657 114.4895,18.056499 C114.8437,18.2772323 115.298,18.387599 115.8524,18.387599 Z M117.069,13.043799 L114.5742,13.043799 L114.5742,12.443199 C114.5742,11.8066657 114.615267,11.3164323 114.6974,10.972499 C114.779533,10.6285657 114.915567,10.3898657 115.1055,10.256399 C115.295433,10.1229323 115.5444,10.056199 115.8524,10.056199 C116.222,10.056199 116.4915,10.1460323 116.6609,10.325699 C116.8303,10.5053657 116.940667,10.7620323 116.992,11.095699 C117.043333,11.4293657 117.069,11.8323323 117.069,12.304599 L117.069,12.304599 L117.069,13.043799 Z M120.9806,18.248999 L120.9806,5.774999 L119.8564,5.774999 L119.8564,18.248999 L120.9806,18.248999 Z M127.926,18.387599 C128.2648,18.387599 128.559967,18.3080323 128.8115,18.148899 C129.063033,17.9897657 129.276067,17.8126657 129.4506,17.617599 L129.4506,17.617599 L129.4506,18.248999 L130.5748,18.248999 L130.5748,5.774999 L129.4506,5.774999 L129.4506,9.979199 C129.276067,9.78413233 129.0579,9.60703233 128.7961,9.447899 C128.5343,9.28876567 128.228867,9.209199 127.8798,9.209199 C127.315133,9.209199 126.881367,9.36576567 126.5785,9.678899 C126.275633,9.99203233 126.067733,10.4309323 125.9548,10.995599 C125.841867,11.5602657 125.7854,12.2327323 125.7854,13.012999 L125.7854,13.012999 L125.7854,14.660799 C125.7854,15.9954657 125.952233,16.9502657 126.2859,17.525199 C126.619567,18.1001323 127.166267,18.387599 127.926,18.387599 Z M128.157,17.494399 C127.8182,17.494399 127.558967,17.3917323 127.3793,17.186399 C127.199633,16.9810657 127.076433,16.6730657 127.0097,16.262399 C126.942967,15.8517323 126.9096,15.3486657 126.9096,14.753199 L126.9096,14.753199 L126.9096,12.643399 C126.9096,11.811799 126.989167,11.1778323 127.1483,10.741499 C127.307433,10.3051657 127.6334,10.086999 128.1262,10.086999 C128.4034,10.086999 128.654933,10.156299 128.8808,10.294899 C129.106667,10.433499 129.2966,10.5746657 129.4506,10.718399 L129.4506,10.718399 L129.4506,16.909199 C129.276067,17.0734657 129.078433,17.2120657 128.8577,17.324999 C128.636967,17.4379323 128.4034,17.494399 128.157,17.494399 Z M134.548,18.387599 C135.420667,18.387599 136.023833,18.1437657 136.3575,17.656099 C136.691167,17.1684323 136.858,16.5190657 136.858,15.707999 L136.858,15.707999 L136.858,15.215199 L135.7646,15.215199 L135.7646,15.831199 C135.7646,16.293199 135.7107,16.6499657 135.6029,16.901499 C135.4951,17.1530323 135.3488,17.3224323 135.164,17.409699 C134.9792,17.4969657 134.773867,17.540599 134.548,17.540599 C134.250267,17.540599 134.006433,17.4687323 133.8165,17.324999 C133.626567,17.1812657 133.487967,16.9425657 133.4007,16.608899 C133.313433,16.2752323 133.2698,15.8209323 133.2698,15.245999 L133.2698,15.245999 L133.2698,13.690599 L136.8734,13.690599 L136.8734,12.889799 C136.8734,12.0479323 136.809233,11.357499 136.6809,10.818499 C136.552567,10.279499 136.324133,9.87653233 135.9956,9.609599 C135.667067,9.34266567 135.189667,9.209199 134.5634,9.209199 C134.019267,9.209199 133.567533,9.31443233 133.2082,9.524899 C132.848867,9.73536567 132.581933,10.0895657 132.4074,10.587499 C132.232867,11.0854323 132.1456,11.7758657 132.1456,12.658799 L132.1456,12.658799 L132.1456,14.907199 C132.1456,15.7593323 132.2303,16.4420657 132.3997,16.955399 C132.5691,17.4687323 132.8309,17.8357657 133.1851,18.056499 C133.5393,18.2772323 133.9936,18.387599 134.548,18.387599 Z M135.7646,13.043799 L133.2698,13.043799 L133.2698,12.443199 C133.2698,11.8066657 133.310867,11.3164323 133.393,10.972499 C133.475133,10.6285657 133.611167,10.3898657 133.8011,10.256399 C133.991033,10.1229323 134.24,10.056199 134.548,10.056199 C134.9176,10.056199 135.1871,10.1460323 135.3565,10.325699 C135.5259,10.5053657 135.636267,10.7620323 135.6876,11.095699 C135.738933,11.4293657 135.7646,11.8323323 135.7646,12.304599 L135.7646,12.304599 L135.7646,13.043799 Z M140.4308,18.387599 C140.8928,18.387599 141.2932,18.302899 141.632,18.133499 C141.9708,17.964099 142.235167,17.7228323 142.4251,17.409699 C142.615033,17.0965657 142.71,16.708999 142.71,16.246999 C142.71,15.8363323 142.638133,15.4795657 142.4944,15.176699 C142.350667,14.8738323 142.165867,14.599199 141.94,14.352799 C141.714133,14.106399 141.478,13.875399 141.2316,13.659799 L141.2316,13.659799 L139.9688,12.535599 C139.6916,12.2789323 139.501667,12.0479323 139.399,11.842599 C139.296333,11.6372657 139.245,11.4011323 139.245,11.134199 C139.245,10.795399 139.350233,10.5310323 139.5607,10.341099 C139.771167,10.1511657 140.0458,10.056199 140.3846,10.056199 C140.641267,10.056199 140.859433,10.117799 141.0391,10.240999 C141.218767,10.364199 141.359933,10.556699 141.4626,10.818499 C141.565267,11.080299 141.626867,11.411399 141.6474,11.811799 L141.6474,11.811799 L142.4482,11.549999 C142.4174,10.8621323 142.227467,10.3000323 141.8784,9.863699 C141.529333,9.42736567 141.016,9.209199 140.3384,9.209199 C139.917467,9.209199 139.547867,9.28876567 139.2296,9.447899 C138.911333,9.60703233 138.662367,9.832899 138.4827,10.125499 C138.303033,10.418099 138.2132,10.779999 138.2132,11.211199 C138.2132,11.6834657 138.315867,12.088999 138.5212,12.427799 C138.726533,12.766599 139.0294,13.105399 139.4298,13.444199 L139.4298,13.444199 L140.6464,14.491399 C141.016,14.8096657 141.288067,15.115099 141.4626,15.407699 C141.637133,15.700299 141.7244,15.9903323 141.7244,16.277799 C141.7244,16.678199 141.619167,16.9887657 141.4087,17.209499 C141.198233,17.4302323 140.897933,17.540599 140.5078,17.540599 C140.0458,17.540599 139.686467,17.3840323 139.4298,17.070899 C139.173133,16.7577657 139.014,16.2572657 138.9524,15.569399 L138.9524,15.569399 L138.013,15.861999 C138.0746,16.631999 138.315867,17.2454323 138.7368,17.702299 C139.157733,18.1591657 139.7224,18.387599 140.4308,18.387599 Z M145.8824,17.432799 C145.615467,17.432799 145.379333,17.332699 145.174,17.132499 C144.968667,16.932299 144.866,16.5960657 144.866,16.123799 C144.866,15.8260657 144.9122,15.5668323 145.0046,15.346099 C145.097,15.1253657 145.240733,14.9277323 145.4358,14.753199 C145.630867,14.5786657 145.884967,14.398999 146.1981,14.214199 C146.511233,14.029399 146.888533,13.8240657 147.33,13.598199 L147.33,13.598199 L147.33,16.370199 C147.247867,16.5344657 147.134933,16.6961657 146.9912,16.855299 C146.847467,17.0144323 146.6832,17.1504657 146.4984,17.263399 C146.3136,17.3763323 146.108267,17.432799 145.8824,17.432799 Z M147.36,17.018 L147.371388,17.1339427 C147.384863,17.2600302 147.407,17.413549 147.4378,17.594499 C147.478867,17.8357657 147.509667,18.0539323 147.5302,18.248999 L147.5302,18.248999 L148.5312,18.248999 C148.526067,18.1925323 148.520933,18.1232323 148.5158,18.041099 L148.5004,17.756199 C148.490133,17.540599 148.479867,17.3121657 148.4696,17.070899 C148.459333,16.8296323 148.4542,16.631999 148.4542,16.477999 L148.4542,16.477999 L148.4542,12.150599 C148.4542,11.1444657 148.2925,10.402699 147.9691,9.925299 C147.6457,9.447899 147.0836,9.209199 146.2828,9.209199 C145.430667,9.209199 144.817233,9.42736567 144.4425,9.863699 C144.067767,10.3000323 143.875267,10.9699323 143.865,11.873399 L143.865,11.873399 L144.9738,11.888799 L144.9738,11.580799 C144.9738,11.1906657 145.030267,10.8852323 145.1432,10.664499 C145.256133,10.4437657 145.405,10.287199 145.5898,10.194799 C145.7746,10.102399 145.985067,10.056199 146.2212,10.056199 C146.508667,10.056199 146.731967,10.1229323 146.8911,10.256399 C147.050233,10.3898657 147.163167,10.6131657 147.2299,10.926299 C147.296633,11.2394323 147.33,11.6680657 147.33,12.212199 L147.33,12.212199 L147.33,12.843599 C146.672933,13.1413323 146.115967,13.4108323 145.6591,13.652099 C145.202233,13.8933657 144.832633,14.1397657 144.5503,14.391299 C144.267967,14.6428323 144.062633,14.9277323 143.9343,15.245999 C143.805967,15.5642657 143.7418,15.9492657 143.7418,16.400999 C143.7418,16.7603323 143.816233,17.0914323 143.9651,17.394299 C144.113967,17.6971657 144.321867,17.9384323 144.5888,18.118099 C144.855733,18.2977657 145.168867,18.387599 145.5282,18.387599 C146.000467,18.387599 146.393167,18.248999 146.7063,17.971799 C147.019433,17.694599 147.2376,17.3763323 147.3608,17.016999 L147.36,17.018 Z M151.3186,18.248999 L151.3186,11.411399 C151.5342,11.0520657 151.783167,10.7902657 152.0655,10.625999 C152.347833,10.4617323 152.663533,10.379599 153.0126,10.379599 C153.105,10.379599 153.202533,10.387299 153.3052,10.402699 C153.407867,10.418099 153.495133,10.441199 153.567,10.471999 L153.567,10.471999 L153.567,9.270799 C153.525933,9.26053233 153.49,9.255399 153.4592,9.255399 L153.4592,9.255399 L153.3668,9.255399 C153.028,9.255399 152.6738,9.355499 152.3042,9.555699 C151.9346,9.755899 151.606067,10.0921323 151.3186,10.564399 L151.3186,10.564399 L151.3186,9.347799 L150.179,9.347799 L150.179,18.248999 L151.3186,18.248999 Z M155.8924,18.248999 L155.8924,11.411399 C156.108,11.0520657 156.356967,10.7902657 156.6393,10.625999 C156.921633,10.4617323 157.237333,10.379599 157.5864,10.379599 C157.6788,10.379599 157.776333,10.387299 157.879,10.402699 C157.981667,10.418099 158.068933,10.441199 158.1408,10.471999 L158.1408,10.471999 L158.1408,9.270799 C158.099733,9.26053233 158.0638,9.255399 158.033,9.255399 L158.033,9.255399 L157.9406,9.255399 C157.6018,9.255399 157.2476,9.355499 156.878,9.555699 C156.5084,9.755899 156.179867,10.0921323 155.8924,10.564399 L155.8924,10.564399 L155.8924,9.347799 L154.7528,9.347799 L154.7528,18.248999 L155.8924,18.248999 Z M161.421,18.387599 C162.047267,18.387599 162.5298,18.256699 162.8686,17.994899 C163.2074,17.733099 163.448667,17.3532323 163.5924,16.855299 C163.736133,16.3573657 163.808,15.7490657 163.808,15.030399 L163.808,15.030399 L163.808,12.566399 C163.808,11.8477323 163.736133,11.2394323 163.5924,10.741499 C163.448667,10.2435657 163.2074,9.863699 162.8686,9.601899 C162.5298,9.340099 162.047267,9.209199 161.421,9.209199 C160.815267,9.209199 160.340433,9.340099 159.9965,9.601899 C159.652567,9.863699 159.408733,10.2435657 159.265,10.741499 C159.121267,11.2394323 159.0494,11.8477323 159.0494,12.566399 L159.0494,12.566399 L159.0494,15.030399 C159.0494,15.7490657 159.121267,16.3573657 159.265,16.855299 C159.408733,17.3532323 159.652567,17.733099 159.9965,17.994899 C160.340433,18.256699 160.815267,18.387599 161.421,18.387599 Z M161.421,17.540599 C161.030867,17.540599 160.748533,17.4379323 160.574,17.232599 C160.399467,17.0272657 160.291667,16.7372323 160.2506,16.362499 C160.209533,15.9877657 160.189,15.5642657 160.189,15.091999 L160.189,15.091999 L160.189,12.504799 C160.189,12.0222657 160.209533,11.5987657 160.2506,11.234299 C160.291667,10.8698323 160.399467,10.5823657 160.574,10.371899 C160.748533,10.1614323 161.030867,10.056199 161.421,10.056199 C161.811133,10.056199 162.096033,10.1614323 162.2757,10.371899 C162.455367,10.5823657 162.565733,10.8698323 162.6068,11.234299 C162.647867,11.5987657 162.6684,12.0222657 162.6684,12.504799 L162.6684,12.504799 L162.6684,15.091999 C162.6684,15.5642657 162.647867,15.9877657 162.6068,16.362499 C162.565733,16.7372323 162.455367,17.0272657 162.2757,17.232599 C162.096033,17.4379323 161.811133,17.540599 161.421,17.540599 Z M166.6416,18.248999 L166.6416,5.774999 L165.5174,5.774999 L165.5174,18.248999 L166.6416,18.248999 Z M169.7524,18.248999 L169.7524,5.774999 L168.6282,5.774999 L168.6282,18.248999 L169.7524,18.248999 Z M173.7872,18.387599 C174.413467,18.387599 174.896,18.256699 175.2348,17.994899 C175.5736,17.733099 175.814867,17.3532323 175.9586,16.855299 C176.102333,16.3573657 176.1742,15.7490657 176.1742,15.030399 L176.1742,15.030399 L176.1742,12.566399 C176.1742,11.8477323 176.102333,11.2394323 175.9586,10.741499 C175.814867,10.2435657 175.5736,9.863699 175.2348,9.601899 C174.896,9.340099 174.413467,9.209199 173.7872,9.209199 C173.181467,9.209199 172.706633,9.340099 172.3627,9.601899 C172.018767,9.863699 171.774933,10.2435657 171.6312,10.741499 C171.487467,11.2394323 171.4156,11.8477323 171.4156,12.566399 L171.4156,12.566399 L171.4156,15.030399 C171.4156,15.7490657 171.487467,16.3573657 171.6312,16.855299 C171.774933,17.3532323 172.018767,17.733099 172.3627,17.994899 C172.706633,18.256699 173.181467,18.387599 173.7872,18.387599 Z M173.7872,17.540599 C173.397067,17.540599 173.114733,17.4379323 172.9402,17.232599 C172.765667,17.0272657 172.657867,16.7372323 172.6168,16.362499 C172.575733,15.9877657 172.5552,15.5642657 172.5552,15.091999 L172.5552,15.091999 L172.5552,12.504799 C172.5552,12.0222657 172.575733,11.5987657 172.6168,11.234299 C172.657867,10.8698323 172.765667,10.5823657 172.9402,10.371899 C173.114733,10.1614323 173.397067,10.056199 173.7872,10.056199 C174.177333,10.056199 174.462233,10.1614323 174.6419,10.371899 C174.821567,10.5823657 174.931933,10.8698323 174.973,11.234299 C175.014067,11.5987657 175.0346,12.0222657 175.0346,12.504799 L175.0346,12.504799 L175.0346,15.091999 C175.0346,15.5642657 175.014067,15.9877657 174.973,16.362499 C174.931933,16.7372323 174.821567,17.0272657 174.6419,17.232599 C174.462233,17.4379323 174.177333,17.540599 173.7872,17.540599 Z M49.3706,34.497998 L52.9126,22.023998 L51.927,22.023998 L48.3696,34.497998 L49.3706,34.497998 Z M60.4278,34.651998 C61.2080667,34.651998 61.8112333,34.4928647 62.2373,34.174598 C62.6633667,33.8563313 62.9611,33.4174313 63.1305,32.857898 C63.2999,32.2983647 63.3846,31.6541313 63.3846,30.925198 L63.3846,30.925198 L63.3846,30.185998 L62.2758,30.185998 L62.2758,31.002198 C62.2758,31.5463313 62.2321667,32.0211647 62.1449,32.426698 C62.0576333,32.8322313 61.8831,33.1479313 61.6213,33.373798 C61.3595,33.5996647 60.9668,33.712598 60.4432,33.712598 C59.9298667,33.712598 59.5294667,33.6099313 59.242,33.404598 C58.9545333,33.1992647 58.7517667,32.8912647 58.6337,32.480598 C58.5156333,32.0699313 58.4566,31.556598 58.4566,30.940598 L58.4566,30.940598 L58.4566,25.627598 C58.4566,25.073198 58.5053667,24.5855313 58.6029,24.164598 C58.7004333,23.7436647 58.8903667,23.417698 59.1727,23.186698 C59.4550333,22.955698 59.8785333,22.840198 60.4432,22.840198 C60.9565333,22.840198 61.3466667,22.947998 61.6136,23.163598 C61.8805333,23.379198 62.0576333,23.6820647 62.1449,24.072198 C62.2321667,24.4623313 62.2758,24.9294647 62.2758,25.473598 L62.2758,25.473598 L62.2758,26.197398 L63.3846,26.197398 L63.3846,25.442798 C63.3846,24.7138647 63.2922,24.0850313 63.1074,23.556298 C62.9226,23.0275647 62.6171667,22.6194647 62.1911,22.331998 C61.7650333,22.0445313 61.1772667,21.900798 60.4278,21.900798 C59.6064667,21.900798 58.9648,22.0650647 58.5028,22.393598 C58.0408,22.7221313 57.7199667,23.178998 57.5403,23.764198 C57.3606333,24.349398 57.2708,25.026998 57.2708,25.796998 L57.2708,25.796998 L57.2708,30.755798 C57.2708,31.4744647 57.3580667,32.1289647 57.5326,32.719298 C57.7071333,33.3096313 58.0228333,33.7793313 58.4797,34.128398 C58.9365667,34.4774647 59.5859333,34.651998 60.4278,34.651998 Z M67.1884,34.636598 C67.8146667,34.636598 68.2972,34.505698 68.636,34.243898 C68.9748,33.982098 69.2160667,33.6022313 69.3598,33.104298 C69.5035333,32.6063647 69.5754,31.9980647 69.5754,31.279398 L69.5754,31.279398 L69.5754,28.815398 C69.5754,28.0967313 69.5035333,27.4884313 69.3598,26.990498 C69.2160667,26.4925647 68.9748,26.112698 68.636,25.850898 C68.2972,25.589098 67.8146667,25.458198 67.1884,25.458198 C66.5826667,25.458198 66.1078333,25.589098 65.7639,25.850898 C65.4199667,26.112698 65.1761333,26.4925647 65.0324,26.990498 C64.8886667,27.4884313 64.8168,28.0967313 64.8168,28.815398 L64.8168,28.815398 L64.8168,31.279398 C64.8168,31.9980647 64.8886667,32.6063647 65.0324,33.104298 C65.1761333,33.6022313 65.4199667,33.982098 65.7639,34.243898 C66.1078333,34.505698 66.5826667,34.636598 67.1884,34.636598 Z M67.1884,33.789598 C66.7982667,33.789598 66.5159333,33.6869313 66.3414,33.481598 C66.1668667,33.2762647 66.0590667,32.9862313 66.018,32.611498 C65.9769333,32.2367647 65.9564,31.8132647 65.9564,31.340998 L65.9564,31.340998 L65.9564,28.753798 C65.9564,28.2712647 65.9769333,27.8477647 66.018,27.483298 C66.0590667,27.1188313 66.1668667,26.8313647 66.3414,26.620898 C66.5159333,26.4104313 66.7982667,26.305198 67.1884,26.305198 C67.5785333,26.305198 67.8634333,26.4104313 68.0431,26.620898 C68.2227667,26.8313647 68.3331333,27.1188313 68.3742,27.483298 C68.4152667,27.8477647 68.4358,28.2712647 68.4358,28.753798 L68.4358,28.753798 L68.4358,31.340998 C68.4358,31.8132647 68.4152667,32.2367647 68.3742,32.611498 C68.3331333,32.9862313 68.2227667,33.2762647 68.0431,33.481598 C67.8634333,33.6869313 67.5785333,33.789598 67.1884,33.789598 Z M73.333,34.636598 C73.9592667,34.636598 74.4418,34.505698 74.7806,34.243898 C75.1194,33.982098 75.3606667,33.6022313 75.5044,33.104298 C75.6481333,32.6063647 75.72,31.9980647 75.72,31.279398 L75.72,31.279398 L75.72,28.815398 C75.72,28.0967313 75.6481333,27.4884313 75.5044,26.990498 C75.3606667,26.4925647 75.1194,26.112698 74.7806,25.850898 C74.4418,25.589098 73.9592667,25.458198 73.333,25.458198 C72.7272667,25.458198 72.2524333,25.589098 71.9085,25.850898 C71.5645667,26.112698 71.3207333,26.4925647 71.177,26.990498 C71.0332667,27.4884313 70.9614,28.0967313 70.9614,28.815398 L70.9614,28.815398 L70.9614,31.279398 C70.9614,31.9980647 71.0332667,32.6063647 71.177,33.104298 C71.3207333,33.6022313 71.5645667,33.982098 71.9085,34.243898 C72.2524333,34.505698 72.7272667,34.636598 73.333,34.636598 Z M73.333,33.789598 C72.9428667,33.789598 72.6605333,33.6869313 72.486,33.481598 C72.3114667,33.2762647 72.2036667,32.9862313 72.1626,32.611498 C72.1215333,32.2367647 72.101,31.8132647 72.101,31.340998 L72.101,31.340998 L72.101,28.753798 C72.101,28.2712647 72.1215333,27.8477647 72.1626,27.483298 C72.2036667,27.1188313 72.3114667,26.8313647 72.486,26.620898 C72.6605333,26.4104313 72.9428667,26.305198 73.333,26.305198 C73.7231333,26.305198 74.0080333,26.4104313 74.1877,26.620898 C74.3673667,26.8313647 74.4777333,27.1188313 74.5188,27.483298 C74.5598667,27.8477647 74.5804,28.2712647 74.5804,28.753798 L74.5804,28.753798 L74.5804,31.340998 C74.5804,31.8132647 74.5598667,32.2367647 74.5188,32.611498 C74.4777333,32.9862313 74.3673667,33.2762647 74.1877,33.481598 C74.0080333,33.6869313 73.7231333,33.789598 73.333,33.789598 Z M78.3996,37.423998 L78.3996,33.789598 C78.5741333,33.9846647 78.7923,34.174598 79.0541,34.359398 C79.3159,34.544198 79.6264667,34.636598 79.9858,34.636598 C80.5402,34.636598 80.9739667,34.4800313 81.2871,34.166898 C81.6002333,33.8537647 81.8184,33.4174313 81.9416,32.857898 C82.0648,32.2983647 82.1264,31.6387313 82.1264,30.878998 L82.1264,30.878998 L82.1264,29.000198 C82.1264,28.5587313 82.1007333,28.1275313 82.0494,27.706598 C81.9980667,27.2856647 81.9005333,26.905798 81.7568,26.566998 C81.6130667,26.228198 81.4103,25.958698 81.1485,25.758498 C80.8867,25.558298 80.5402,25.458198 80.109,25.458198 C79.7086,25.458198 79.3698,25.5480313 79.0926,25.727698 C78.8154,25.9073647 78.5844,26.1101313 78.3996,26.335998 L78.3996,26.335998 L78.3996,25.596798 L77.2754,25.596798 L77.2754,37.423998 L78.3996,37.423998 Z M79.8164,33.743398 C79.5186667,33.743398 79.2491667,33.6792313 79.0079,33.550898 C78.7666333,33.4225647 78.5638667,33.2711313 78.3996,33.096598 L78.3996,33.096598 L78.3996,27.028998 C78.5536,26.874998 78.7512333,26.720998 78.9925,26.566998 C79.2337667,26.412998 79.4981333,26.335998 79.7856,26.335998 C80.1346667,26.335998 80.3964667,26.4386647 80.571,26.643998 C80.7455333,26.8493313 80.8610333,27.1496313 80.9175,27.544898 C80.9739667,27.9401647 81.0022,28.4252647 81.0022,29.000198 L81.0022,29.000198 L81.0022,30.909798 C81.0022,31.5155313 80.9739667,32.0314313 80.9175,32.457498 C80.8610333,32.8835647 80.7481,33.204398 80.5787,33.419998 C80.4093,33.635598 80.1552,33.743398 79.8164,33.743398 Z M85.9302,34.636598 C86.8028667,34.636598 87.4060333,34.3927647 87.7397,33.905098 C88.0733667,33.4174313 88.2402,32.7680647 88.2402,31.956998 L88.2402,31.956998 L88.2402,31.464198 L87.1468,31.464198 L87.1468,32.080198 C87.1468,32.542198 87.0929,32.8989647 86.9851,33.150498 C86.8773,33.4020313 86.731,33.5714313 86.5462,33.658698 C86.3614,33.7459647 86.1560667,33.789598 85.9302,33.789598 C85.6324667,33.789598 85.3886333,33.7177313 85.1987,33.573998 C85.0087667,33.4302647 84.8701667,33.1915647 84.7829,32.857898 C84.6956333,32.5242313 84.652,32.0699313 84.652,31.494998 L84.652,31.494998 L84.652,29.939598 L88.2556,29.939598 L88.2556,29.138798 C88.2556,28.2969313 88.1914333,27.606498 88.0631,27.067498 C87.9347667,26.528498 87.7063333,26.1255313 87.3778,25.858598 C87.0492667,25.5916647 86.5718667,25.458198 85.9456,25.458198 C85.4014667,25.458198 84.9497333,25.5634313 84.5904,25.773898 C84.2310667,25.9843647 83.9641333,26.3385647 83.7896,26.836498 C83.6150667,27.3344313 83.5278,28.0248647 83.5278,28.907798 L83.5278,28.907798 L83.5278,31.156198 C83.5278,32.0083313 83.6125,32.6910647 83.7819,33.204398 C83.9513,33.7177313 84.2131,34.0847647 84.5673,34.305498 C84.9215,34.5262313 85.3758,34.636598 85.9302,34.636598 Z M87.1468,29.292798 L84.652,29.292798 L84.652,28.692198 C84.652,28.0556647 84.6930667,27.5654313 84.7752,27.221498 C84.8573333,26.8775647 84.9933667,26.6388647 85.1833,26.505398 C85.3732333,26.3719313 85.6222,26.305198 85.9302,26.305198 C86.2998,26.305198 86.5693,26.3950313 86.7387,26.574698 C86.9081,26.7543647 87.0184667,27.0110313 87.0698,27.344698 C87.1211333,27.6783647 87.1468,28.0813313 87.1468,28.553598 L87.1468,28.553598 L87.1468,29.292798 Z M90.9968,34.497998 L90.9968,27.660398 C91.2124,27.3010647 91.4613667,27.0392647 91.7437,26.874998 C92.0260333,26.7107313 92.3417333,26.628598 92.6908,26.628598 C92.7832,26.628598 92.8807333,26.636298 92.9834,26.651698 C93.0860667,26.667098 93.1733333,26.690198 93.2452,26.720998 L93.2452,26.720998 L93.2452,25.519798 C93.2041333,25.5095313 93.1682,25.504398 93.1374,25.504398 L93.1374,25.504398 L93.045,25.504398 C92.7062,25.504398 92.352,25.604498 91.9824,25.804698 C91.6128,26.004898 91.2842667,26.3411313 90.9968,26.813398 L90.9968,26.813398 L90.9968,25.596798 L89.8572,25.596798 L89.8572,34.497998 L90.9968,34.497998 Z M96.2174,33.681798 C95.9504667,33.681798 95.7143333,33.581698 95.509,33.381498 C95.3036667,33.181298 95.201,32.8450647 95.201,32.372798 C95.201,32.0750647 95.2472,31.8158313 95.3396,31.595098 C95.432,31.3743647 95.5757333,31.1767313 95.7708,31.002198 C95.9658667,30.8276647 96.2199667,30.647998 96.5331,30.463198 C96.8462333,30.278398 97.2235333,30.0730647 97.665,29.847198 L97.665,29.847198 L97.665,32.619198 C97.5828667,32.7834647 97.4699333,32.9451647 97.3262,33.104298 C97.1824667,33.2634313 97.0182,33.3994647 96.8334,33.512398 C96.6486,33.6253313 96.4432667,33.681798 96.2174,33.681798 Z M97.695,33.267 L97.7063875,33.3829417 C97.7198625,33.5090292 97.742,33.662548 97.7728,33.843498 C97.8138667,34.0847647 97.8446667,34.3029313 97.8652,34.497998 L97.8652,34.497998 L98.8662,34.497998 C98.8610667,34.4415313 98.8559333,34.3722313 98.8508,34.290098 L98.8354,34.005198 C98.8251333,33.789598 98.8148667,33.5611647 98.8046,33.319898 C98.7943333,33.0786313 98.7892,32.880998 98.7892,32.726998 L98.7892,32.726998 L98.7892,28.399598 C98.7892,27.3934647 98.6275,26.651698 98.3041,26.174298 C97.9807,25.696898 97.4186,25.458198 96.6178,25.458198 C95.7656667,25.458198 95.1522333,25.6763647 94.7775,26.112698 C94.4027667,26.5490313 94.2102667,27.2189313 94.2,28.122398 L94.2,28.122398 L95.3088,28.137798 L95.3088,27.829798 C95.3088,27.4396647 95.3652667,27.1342313 95.4782,26.913498 C95.5911333,26.6927647 95.74,26.536198 95.9248,26.443798 C96.1096,26.351398 96.3200667,26.305198 96.5562,26.305198 C96.8436667,26.305198 97.0669667,26.3719313 97.2261,26.505398 C97.3852333,26.6388647 97.4981667,26.8621647 97.5649,27.175298 C97.6316333,27.4884313 97.665,27.9170647 97.665,28.461198 L97.665,28.461198 L97.665,29.092598 C97.0079333,29.3903313 96.4509667,29.6598313 95.9941,29.901098 C95.5372333,30.1423647 95.1676333,30.3887647 94.8853,30.640298 C94.6029667,30.8918313 94.3976333,31.1767313 94.2693,31.494998 C94.1409667,31.8132647 94.0768,32.1982647 94.0768,32.649998 C94.0768,33.0093313 94.1512333,33.3404313 94.3001,33.643298 C94.4489667,33.9461647 94.6568667,34.1874313 94.9238,34.367098 C95.1907333,34.5467647 95.5038667,34.636598 95.8632,34.636598 C96.3354667,34.636598 96.7281667,34.497998 97.0413,34.220798 C97.3544333,33.943598 97.5726,33.6253313 97.6958,33.265998 L97.695,33.267 Z M102.6546,34.636598 C103.291133,34.636598 103.773667,34.505698 104.1022,34.243898 C104.430733,33.982098 104.6489,33.6227647 104.7567,33.165898 C104.8645,32.7090313 104.9184,32.1828647 104.9184,31.587398 L104.9184,31.587398 L104.9184,31.156198 L103.8712,31.156198 L103.8712,31.648998 C103.8712,32.1212647 103.845533,32.5165313 103.7942,32.834798 C103.742867,33.1530647 103.629933,33.3917647 103.4554,33.550898 C103.280867,33.7100313 103.019067,33.789598 102.67,33.789598 C102.166933,33.789598 101.828133,33.6073647 101.6536,33.242898 C101.479067,32.8784313 101.3918,32.249598 101.3918,31.356398 L101.3918,31.356398 L101.3918,28.861598 C101.3918,28.2353313 101.4226,27.7348313 101.4842,27.360098 C101.5458,26.9853647 101.669,26.7158647 101.8538,26.551598 C102.0386,26.3873313 102.305533,26.305198 102.6546,26.305198 C102.952333,26.305198 103.191033,26.3642313 103.3707,26.482298 C103.550367,26.6003647 103.6787,26.8031313 103.7557,27.090598 C103.8327,27.3780647 103.8712,27.783598 103.8712,28.307198 L103.8712,28.307198 L103.8712,28.738398 L104.9184,28.738398 L104.9184,28.307198 C104.9184,27.7425313 104.861933,27.244598 104.749,26.813398 C104.636067,26.382198 104.415333,26.0485313 104.0868,25.812398 C103.758267,25.5762647 103.280867,25.458198 102.6546,25.458198 C102.018067,25.458198 101.527833,25.5865313 101.1839,25.843198 C100.839967,26.0998647 100.601267,26.4925647 100.4678,27.021298 C100.334333,27.5500313 100.2676,28.2250647 100.2676,29.046398 L100.2676,29.046398 L100.2676,31.125398 C100.2676,31.7927313 100.3215,32.3907647 100.4293,32.919498 C100.5371,33.4482313 100.7604,33.866598 101.0992,34.174598 C101.438,34.482598 101.956467,34.636598 102.6546,34.636598 Z M107.675,24.364798 L107.675,22.840198 L106.5508,22.840198 L106.5508,24.364798 L107.675,24.364798 Z M107.675,34.497998 L107.675,25.596798 L106.5508,25.596798 L106.5508,34.497998 L107.675,34.497998 Z M112.0794,24.857598 L113.5886,21.839198 L112.4644,21.839198 L111.4942,24.857598 L112.0794,24.857598 Z M111.7714,34.636598 C112.397667,34.636598 112.8802,34.505698 113.219,34.243898 C113.5578,33.982098 113.799067,33.6022313 113.9428,33.104298 C114.086533,32.6063647 114.1584,31.9980647 114.1584,31.279398 L114.1584,31.279398 L114.1584,28.815398 C114.1584,28.0967313 114.086533,27.4884313 113.9428,26.990498 C113.799067,26.4925647 113.5578,26.112698 113.219,25.850898 C112.8802,25.589098 112.397667,25.458198 111.7714,25.458198 C111.165667,25.458198 110.690833,25.589098 110.3469,25.850898 C110.002967,26.112698 109.759133,26.4925647 109.6154,26.990498 C109.471667,27.4884313 109.3998,28.0967313 109.3998,28.815398 L109.3998,28.815398 L109.3998,31.279398 C109.3998,31.9980647 109.471667,32.6063647 109.6154,33.104298 C109.759133,33.6022313 110.002967,33.982098 110.3469,34.243898 C110.690833,34.505698 111.165667,34.636598 111.7714,34.636598 Z M111.7714,33.789598 C111.381267,33.789598 111.098933,33.6869313 110.9244,33.481598 C110.749867,33.2762647 110.642067,32.9862313 110.601,32.611498 C110.559933,32.2367647 110.5394,31.8132647 110.5394,31.340998 L110.5394,31.340998 L110.5394,28.753798 C110.5394,28.2712647 110.559933,27.8477647 110.601,27.483298 C110.642067,27.1188313 110.749867,26.8313647 110.9244,26.620898 C111.098933,26.4104313 111.381267,26.305198 111.7714,26.305198 C112.161533,26.305198 112.446433,26.4104313 112.6261,26.620898 C112.805767,26.8313647 112.916133,27.1188313 112.9572,27.483298 C112.998267,27.8477647 113.0188,28.2712647 113.0188,28.753798 L113.0188,28.753798 L113.0188,31.340998 C113.0188,31.8132647 112.998267,32.2367647 112.9572,32.611498 C112.916133,32.9862313 112.805767,33.2762647 112.6261,33.481598 C112.446433,33.6869313 112.161533,33.789598 111.7714,33.789598 Z M116.838,34.497998 L116.838,27.167598 C117.074133,26.921198 117.325667,26.720998 117.5926,26.566998 C117.859533,26.412998 118.121333,26.335998 118.378,26.335998 C118.665467,26.335998 118.8785,26.4309647 119.0171,26.620898 C119.1557,26.8108313 119.225,27.136798 119.225,27.598798 L119.225,27.598798 L119.225,34.497998 L120.3492,34.497998 L120.3492,27.352398 C120.3492,26.951998 120.297867,26.6106313 120.1952,26.328298 C120.092533,26.0459647 119.938533,25.8303647 119.7332,25.681498 C119.527867,25.5326313 119.276333,25.458198 118.9786,25.458198 C118.557667,25.458198 118.167533,25.558298 117.8082,25.758498 C117.448867,25.958698 117.125467,26.212798 116.838,26.520798 L116.838,26.520798 L116.838,25.596798 L115.7138,25.596798 L115.7138,34.497998 L116.838,34.497998 Z M127.387,34.636598 C128.259667,34.636598 128.862833,34.3927647 129.1965,33.905098 C129.530167,33.4174313 129.697,32.7680647 129.697,31.956998 L129.697,31.956998 L129.697,31.464198 L128.6036,31.464198 L128.6036,32.080198 C128.6036,32.542198 128.5497,32.8989647 128.4419,33.150498 C128.3341,33.4020313 128.1878,33.5714313 128.003,33.658698 C127.8182,33.7459647 127.612867,33.789598 127.387,33.789598 C127.089267,33.789598 126.845433,33.7177313 126.6555,33.573998 C126.465567,33.4302647 126.326967,33.1915647 126.2397,32.857898 C126.152433,32.5242313 126.1088,32.0699313 126.1088,31.494998 L126.1088,31.494998 L126.1088,29.939598 L129.7124,29.939598 L129.7124,29.138798 C129.7124,28.2969313 129.648233,27.606498 129.5199,27.067498 C129.391567,26.528498 129.163133,26.1255313 128.8346,25.858598 C128.506067,25.5916647 128.028667,25.458198 127.4024,25.458198 C126.858267,25.458198 126.406533,25.5634313 126.0472,25.773898 C125.687867,25.9843647 125.420933,26.3385647 125.2464,26.836498 C125.071867,27.3344313 124.9846,28.0248647 124.9846,28.907798 L124.9846,28.907798 L124.9846,31.156198 C124.9846,32.0083313 125.0693,32.6910647 125.2387,33.204398 C125.4081,33.7177313 125.6699,34.0847647 126.0241,34.305498 C126.3783,34.5262313 126.8326,34.636598 127.387,34.636598 Z M128.6036,29.292798 L126.1088,29.292798 L126.1088,28.692198 C126.1088,28.0556647 126.149867,27.5654313 126.232,27.221498 C126.314133,26.8775647 126.450167,26.6388647 126.6401,26.505398 C126.830033,26.3719313 127.079,26.305198 127.387,26.305198 C127.7566,26.305198 128.0261,26.3950313 128.1955,26.574698 C128.3649,26.7543647 128.475267,27.0110313 128.5266,27.344698 C128.577933,27.6783647 128.6036,28.0813313 128.6036,28.553598 L128.6036,28.553598 L128.6036,29.292798 Z M133.2698,34.636598 C133.7318,34.636598 134.1322,34.551898 134.471,34.382498 C134.8098,34.213098 135.074167,33.9718313 135.2641,33.658698 C135.454033,33.3455647 135.549,32.957998 135.549,32.495998 C135.549,32.0853313 135.477133,31.7285647 135.3334,31.425698 C135.189667,31.1228313 135.004867,30.848198 134.779,30.601798 C134.553133,30.355398 134.317,30.124398 134.0706,29.908798 L134.0706,29.908798 L132.8078,28.784598 C132.5306,28.5279313 132.340667,28.2969313 132.238,28.091598 C132.135333,27.8862647 132.084,27.6501313 132.084,27.383198 C132.084,27.044398 132.189233,26.7800313 132.3997,26.590098 C132.610167,26.4001647 132.8848,26.305198 133.2236,26.305198 C133.480267,26.305198 133.698433,26.366798 133.8781,26.489998 C134.057767,26.613198 134.198933,26.805698 134.3016,27.067498 C134.404267,27.329298 134.465867,27.660398 134.4864,28.060798 L134.4864,28.060798 L135.2872,27.798998 C135.2564,27.1111313 135.066467,26.5490313 134.7174,26.112698 C134.368333,25.6763647 133.855,25.458198 133.1774,25.458198 C132.756467,25.458198 132.386867,25.5377647 132.0686,25.696898 C131.750333,25.8560313 131.501367,26.081898 131.3217,26.374498 C131.142033,26.667098 131.0522,27.028998 131.0522,27.460198 C131.0522,27.9324647 131.154867,28.337998 131.3602,28.676798 C131.565533,29.015598 131.8684,29.354398 132.2688,29.693198 L132.2688,29.693198 L133.4854,30.740398 C133.855,31.0586647 134.127067,31.364098 134.3016,31.656698 C134.476133,31.949298 134.5634,32.2393313 134.5634,32.526798 C134.5634,32.927198 134.458167,33.2377647 134.2477,33.458498 C134.037233,33.6792313 133.736933,33.789598 133.3468,33.789598 C132.8848,33.789598 132.525467,33.6330313 132.2688,33.319898 C132.012133,33.0067647 131.853,32.5062647 131.7914,31.818398 L131.7914,31.818398 L130.852,32.110998 C130.9136,32.880998 131.154867,33.4944313 131.5758,33.951298 C131.996733,34.4081647 132.5614,34.636598 133.2698,34.636598 Z M137.9514,37.423998 L137.9514,33.789598 C138.125933,33.9846647 138.3441,34.174598 138.6059,34.359398 C138.8677,34.544198 139.178267,34.636598 139.5376,34.636598 C140.092,34.636598 140.525767,34.4800313 140.8389,34.166898 C141.152033,33.8537647 141.3702,33.4174313 141.4934,32.857898 C141.6166,32.2983647 141.6782,31.6387313 141.6782,30.878998 L141.6782,30.878998 L141.6782,29.000198 C141.6782,28.5587313 141.652533,28.1275313 141.6012,27.706598 C141.549867,27.2856647 141.452333,26.905798 141.3086,26.566998 C141.164867,26.228198 140.9621,25.958698 140.7003,25.758498 C140.4385,25.558298 140.092,25.458198 139.6608,25.458198 C139.2604,25.458198 138.9216,25.5480313 138.6444,25.727698 C138.3672,25.9073647 138.1362,26.1101313 137.9514,26.335998 L137.9514,26.335998 L137.9514,25.596798 L136.8272,25.596798 L136.8272,37.423998 L137.9514,37.423998 Z M139.3682,33.743398 C139.070467,33.743398 138.800967,33.6792313 138.5597,33.550898 C138.318433,33.4225647 138.115667,33.2711313 137.9514,33.096598 L137.9514,33.096598 L137.9514,27.028998 C138.1054,26.874998 138.303033,26.720998 138.5443,26.566998 C138.785567,26.412998 139.049933,26.335998 139.3374,26.335998 C139.686467,26.335998 139.948267,26.4386647 140.1228,26.643998 C140.297333,26.8493313 140.412833,27.1496313 140.4693,27.544898 C140.525767,27.9401647 140.554,28.4252647 140.554,29.000198 L140.554,29.000198 L140.554,30.909798 C140.554,31.5155313 140.525767,32.0314313 140.4693,32.457498 C140.412833,32.8835647 140.2999,33.204398 140.1305,33.419998 C139.9611,33.635598 139.707,33.743398 139.3682,33.743398 Z M145.1432,33.681798 C144.876267,33.681798 144.640133,33.581698 144.4348,33.381498 C144.229467,33.181298 144.1268,32.8450647 144.1268,32.372798 C144.1268,32.0750647 144.173,31.8158313 144.2654,31.595098 C144.3578,31.3743647 144.501533,31.1767313 144.6966,31.002198 C144.891667,30.8276647 145.145767,30.647998 145.4589,30.463198 C145.772033,30.278398 146.149333,30.0730647 146.5908,29.847198 L146.5908,29.847198 L146.5908,32.619198 C146.508667,32.7834647 146.395733,32.9451647 146.252,33.104298 C146.108267,33.2634313 145.944,33.3994647 145.7592,33.512398 C145.5744,33.6253313 145.369067,33.681798 145.1432,33.681798 Z M146.621,33.267 L146.632188,33.3829417 C146.645663,33.5090292 146.6678,33.662548 146.6986,33.843498 C146.739667,34.0847647 146.770467,34.3029313 146.791,34.497998 L146.791,34.497998 L147.792,34.497998 C147.781733,34.3850647 147.771467,34.220798 147.7612,34.005198 C147.750933,33.789598 147.740667,33.5611647 147.7304,33.319898 C147.720133,33.0786313 147.715,32.880998 147.715,32.726998 L147.715,28.399598 C147.715,27.3934647 147.5533,26.651698 147.2299,26.174298 C146.9065,25.696898 146.3444,25.458198 145.5436,25.458198 C144.691467,25.458198 144.078033,25.6763647 143.7033,26.112698 C143.328567,26.5490313 143.136067,27.2189313 143.1258,28.122398 L143.1258,28.122398 L144.2346,28.137798 L144.2346,27.829798 C144.2346,27.4396647 144.291067,27.1342313 144.404,26.913498 C144.516933,26.6927647 144.6658,26.536198 144.8506,26.443798 C145.0354,26.351398 145.245867,26.305198 145.482,26.305198 C145.769467,26.305198 145.992767,26.3719313 146.1519,26.505398 C146.311033,26.6388647 146.423967,26.8621647 146.4907,27.175298 C146.557433,27.4884313 146.5908,27.9170647 146.5908,28.461198 L146.5908,28.461198 L146.5908,29.092598 C145.933733,29.3903313 145.376767,29.6598313 144.9199,29.901098 C144.463033,30.1423647 144.093433,30.3887647 143.8111,30.640298 C143.528767,30.8918313 143.323433,31.1767313 143.1951,31.494998 C143.066767,31.8132647 143.0026,32.1982647 143.0026,32.649998 C143.0026,33.0093313 143.077033,33.3404313 143.2259,33.643298 C143.374767,33.9461647 143.582667,34.1874313 143.8496,34.367098 C144.116533,34.5467647 144.429667,34.636598 144.789,34.636598 C145.261267,34.636598 145.653967,34.497998 145.9671,34.220798 C146.280233,33.943598 146.4984,33.6253313 146.6216,33.265998 L146.621,33.267 Z M152.5968,23.841198 C152.9048,23.841198 153.1358,23.7616313 153.2898,23.602498 C153.4438,23.4433647 153.5439,23.2534313 153.5901,23.032698 C153.6363,22.8119647 153.6594,22.609198 153.6594,22.424398 L153.6594,22.424398 L152.9818,22.424398 C152.9818,22.670798 152.940733,22.8427647 152.8586,22.940298 C152.776467,23.0378313 152.648133,23.086598 152.4736,23.086598 C152.2888,23.086598 152.109133,23.024998 151.9346,22.901798 C151.760067,22.778598 151.575267,22.6579647 151.3802,22.539898 C151.185133,22.4218313 150.9644,22.362798 150.718,22.362798 C150.430533,22.362798 150.2098,22.439798 150.0558,22.593798 C149.9018,22.747798 149.796567,22.9300313 149.7401,23.140498 C149.683633,23.3509647 149.6554,23.5434647 149.6554,23.717998 L149.6554,23.717998 L150.3484,23.717998 C150.3484,23.5126647 150.392033,23.3586647 150.4793,23.255998 C150.566567,23.1533313 150.692333,23.101998 150.8566,23.101998 C151.0414,23.101998 151.2185,23.163598 151.3879,23.286798 C151.5573,23.409998 151.739533,23.533198 151.9346,23.656398 C152.129667,23.779598 152.3504,23.841198 152.5968,23.841198 Z M150.487,34.497998 L150.487,27.167598 C150.723133,26.921198 150.974667,26.720998 151.2416,26.566998 C151.508533,26.412998 151.770333,26.335998 152.027,26.335998 C152.314467,26.335998 152.5275,26.4309647 152.6661,26.620898 C152.8047,26.8108313 152.874,27.136798 152.874,27.598798 L152.874,27.598798 L152.874,34.497998 L153.9982,34.497998 L153.9982,27.352398 C153.9982,26.951998 153.946867,26.6106313 153.8442,26.328298 C153.741533,26.0459647 153.587533,25.8303647 153.3822,25.681498 C153.176867,25.5326313 152.925333,25.458198 152.6276,25.458198 C152.206667,25.458198 151.816533,25.558298 151.4572,25.758498 C151.097867,25.958698 150.774467,26.212798 150.487,26.520798 L150.487,26.520798 L150.487,25.596798 L149.3628,25.596798 L149.3628,34.497998 L150.487,34.497998 Z M157.8636,34.636598 C158.489867,34.636598 158.9724,34.505698 159.3112,34.243898 C159.65,33.982098 159.891267,33.6022313 160.035,33.104298 C160.178733,32.6063647 160.2506,31.9980647 160.2506,31.279398 L160.2506,31.279398 L160.2506,28.815398 C160.2506,28.0967313 160.178733,27.4884313 160.035,26.990498 C159.891267,26.4925647 159.65,26.112698 159.3112,25.850898 C158.9724,25.589098 158.489867,25.458198 157.8636,25.458198 C157.257867,25.458198 156.783033,25.589098 156.4391,25.850898 C156.095167,26.112698 155.851333,26.4925647 155.7076,26.990498 C155.563867,27.4884313 155.492,28.0967313 155.492,28.815398 L155.492,28.815398 L155.492,31.279398 C155.492,31.9980647 155.563867,32.6063647 155.7076,33.104298 C155.851333,33.6022313 156.095167,33.982098 156.4391,34.243898 C156.783033,34.505698 157.257867,34.636598 157.8636,34.636598 Z M157.8636,33.789598 C157.473467,33.789598 157.191133,33.6869313 157.0166,33.481598 C156.842067,33.2762647 156.734267,32.9862313 156.6932,32.611498 C156.652133,32.2367647 156.6316,31.8132647 156.6316,31.340998 L156.6316,31.340998 L156.6316,28.753798 C156.6316,28.2712647 156.652133,27.8477647 156.6932,27.483298 C156.734267,27.1188313 156.842067,26.8313647 157.0166,26.620898 C157.191133,26.4104313 157.473467,26.305198 157.8636,26.305198 C158.253733,26.305198 158.538633,26.4104313 158.7183,26.620898 C158.897967,26.8313647 159.008333,27.1188313 159.0494,27.483298 C159.090467,27.8477647 159.111,28.2712647 159.111,28.753798 L159.111,28.753798 L159.111,31.340998 C159.111,31.8132647 159.090467,32.2367647 159.0494,32.611498 C159.008333,32.9862313 158.897967,33.2762647 158.7183,33.481598 C158.538633,33.6869313 158.253733,33.789598 157.8636,33.789598 Z M163.0842,34.497998 L163.0842,22.023998 L161.96,22.023998 L161.96,34.497998 L163.0842,34.497998 Z M166.811,33.681798 C166.544067,33.681798 166.307933,33.581698 166.1026,33.381498 C165.897267,33.181298 165.7946,32.8450647 165.7946,32.372798 C165.7946,32.0750647 165.8408,31.8158313 165.9332,31.595098 C166.0256,31.3743647 166.169333,31.1767313 166.3644,31.002198 C166.559467,30.8276647 166.813567,30.647998 167.1267,30.463198 C167.439833,30.278398 167.817133,30.0730647 168.2586,29.847198 L168.2586,29.847198 L168.2586,32.619198 C168.176467,32.7834647 168.063533,32.9451647 167.9198,33.104298 C167.776067,33.2634313 167.6118,33.3994647 167.427,33.512398 C167.2422,33.6253313 167.036867,33.681798 166.811,33.681798 Z M168.289,33.267 L168.299988,33.3829417 C168.313463,33.5090292 168.3356,33.662548 168.3664,33.843498 C168.407467,34.0847647 168.438267,34.3029313 168.4588,34.497998 L168.4588,34.497998 L169.4598,34.497998 C169.449533,34.3850647 169.439267,34.220798 169.429,34.005198 C169.418733,33.789598 169.408467,33.5611647 169.3982,33.319898 C169.387933,33.0786313 169.3828,32.880998 169.3828,32.726998 L169.3828,32.726998 L169.3828,28.399598 C169.3828,27.3934647 169.2211,26.651698 168.8977,26.174298 C168.5743,25.696898 168.0122,25.458198 167.2114,25.458198 C166.359267,25.458198 165.745833,25.6763647 165.3711,26.112698 C164.996367,26.5490313 164.803867,27.2189313 164.7936,28.122398 L164.7936,28.122398 L165.9024,28.137798 L165.9024,27.829798 C165.9024,27.4396647 165.958867,27.1342313 166.0718,26.913498 C166.184733,26.6927647 166.3336,26.536198 166.5184,26.443798 C166.7032,26.351398 166.913667,26.305198 167.1498,26.305198 C167.437267,26.305198 167.660567,26.3719313 167.8197,26.505398 C167.978833,26.6388647 168.091767,26.8621647 168.1585,27.175298 C168.225233,27.4884313 168.2586,27.9170647 168.2586,28.461198 L168.2586,28.461198 L168.2586,29.092598 C167.601533,29.3903313 167.044567,29.6598313 166.5877,29.901098 C166.130833,30.1423647 165.761233,30.3887647 165.4789,30.640298 C165.196567,30.8918313 164.991233,31.1767313 164.8629,31.494998 C164.734567,31.8132647 164.6704,32.1982647 164.6704,32.649998 C164.6704,33.0093313 164.744833,33.3404313 164.8937,33.643298 C165.042567,33.9461647 165.250467,34.1874313 165.5174,34.367098 C165.784333,34.5467647 166.097467,34.636598 166.4568,34.636598 C166.929067,34.636598 167.321767,34.497998 167.6349,34.220798 C167.948033,33.943598 168.1662,33.6253313 168.2894,33.265998 L168.289,33.267 Z" id="Diseoparaeldesarrollo/Cooperacinespaola" fill="#000000" fill-rule="nonzero"></path>
            <g id="Group-9-Copy-12" fill="#A4A49B">
                <path d="M20.8250502,22.9899281 C19.8078814,22.9899281 19.7914283,23.6847375 19.7914283,27.3290439 C19.7914283,30.9048565 19.875522,31.6680378 20.8250502,31.6680378 C21.7738471,31.6680378 21.8586721,30.9048565 21.8586721,27.3290439 C21.8586721,23.6847375 21.842219,22.9899281 20.8250502,22.9899281" id="Fill-1"></path>
                <path d="M25.1764876,11.529997 C24.1531031,11.529997 24.1692972,12.7051158 24.1692972,14.4007628 C24.1692972,16.5323566 24.3208032,17.4219223 25.1764876,17.4219223 C25.9825688,17.4219223 26.1340759,16.5323566 26.1340759,14.4007628 C26.1340759,12.7051158 26.150147,11.529997 25.1764876,11.529997" id="Fill-3"></path>
                <path d="M13.3565133,17.4218857 C14.2128071,17.4218857 14.3644333,16.53232 14.3644333,14.4007262 C14.3644333,12.7050793 14.3800196,11.5299605 13.3565133,11.5299605 C12.3833414,11.5299605 12.399777,12.7050793 12.399777,14.4007262 C12.399777,16.53232 12.5507977,17.4218857 13.3565133,17.4218857" id="Fill-5"></path>
                <path d="M29.7539543,20.6913289 L35.1675201,20.6913289 L35.1675201,19.8553883 L29.7539543,19.8553883 L29.7539543,20.6913289 Z M28.5007136,18.7153695 L26.2502917,18.7153695 L26.2502917,17.7751038 L26.2181167,17.7751038 C25.7811948,18.596907 25.1266041,18.8829476 24.2196103,18.8829476 C21.7688259,18.8829476 21.8526759,16.1635506 21.8526759,14.4170818 C21.8526759,12.7051036 21.7858884,10.0690692 24.1693978,10.0690692 C25.025326,10.0690692 25.6131291,10.3211067 26.0998979,11.0433379 L26.1341448,11.0433379 L26.1341448,6.59368151 L28.5007136,6.59368151 L28.5007136,18.7153695 Z M20.8250258,33.3966763 C17.6383601,33.3966763 17.4009476,31.0070731 17.4009476,27.295248 C17.4009476,22.7691759 17.909532,21.2606071 20.8250258,21.2606071 C23.7405197,21.2606071 24.2491041,22.7691759 24.2491041,27.295248 C24.2491041,31.0070731 24.0116916,33.3966763 20.8250258,33.3966763 L20.8250258,33.3966763 Z M16.9144225,33.2440888 L9.89722539,33.2440888 L9.89722539,31.1595387 C13.6256255,26.1932542 14.4053818,25.6169073 14.4053818,24.1422197 C14.4053818,23.5488103 14.1852756,22.9898915 13.5076505,22.9898915 C12.524363,22.9898915 12.4732974,23.9222353 12.4732974,24.6846854 L10.0835723,24.6846854 C9.91392227,22.4813071 11.1510754,21.2606071 13.3380005,21.2606071 C15.3887912,21.2606071 16.7958382,22.091429 16.7958382,24.3121135 C16.7958382,26.9728886 13.6939974,29.9899043 12.4056567,31.4135262 L16.9144225,31.4135262 L16.9144225,33.2440888 Z M10.0326285,6.59368151 L12.3998067,6.59368151 L12.3998067,11.0433379 L12.4338099,11.0433379 C12.9205786,10.3211067 13.5083818,10.0690692 14.3643099,10.0690692 C16.7479413,10.0690692 16.6810319,12.7051036 16.6810319,14.4170818 C16.6810319,16.1635506 16.7645163,18.8829476 14.3140974,18.8829476 C13.4071037,18.8829476 12.7521474,18.596907 12.3162005,17.7751038 L12.2821974,17.7751038 L12.2821974,18.7153695 L10.0326285,18.7153695 L10.0326285,6.59368151 Z M18.091857,18.7153695 L20.4586696,18.7153695 L20.4586696,10.2371348 L18.091857,10.2371348 L18.091857,18.7153695 Z M18.091857,8.45739409 L20.4586696,8.45739409 L20.4586696,6.59368151 L18.091857,6.59368151 L18.091857,8.45739409 Z M19.3699601,0.0164531257 C8.67152847,0.0164531257 0,8.68920035 0,19.3848289 C0,30.0841137 8.67152847,38.7562515 19.3699601,38.7562515 C30.0670512,38.7562515 38.7400422,30.0841137 38.7400422,19.3848289 C38.7400422,8.68920035 30.0670512,0.0164531257 19.3699601,0.0164531257 L19.3699601,0.0164531257 Z" id="Fill-7"></path>
            </g>
        </g>
    </g>
</svg>