<?xml version="1.0" encoding="UTF-8"?>
<svg width="223px" height="42px" viewBox="0 0 223 42" version="1.1" xmlns="http://www.w3.org/2000/svg" xmlns:xlink="http://www.w3.org/1999/xlink">
    <title>digital</title>
    <g id="Page-1" stroke="none" stroke-width="1" fill="none" fill-rule="evenodd">
        <g id="digital">
            <g transform="translate(0.000000, 2.000000)">
                <path d="M52.9116,26.2489991 C53.7432,26.2489991 54.3951333,26.0898658 54.8674,25.7715991 C55.3396667,25.4533325 55.6784667,25.0041658 55.8838,24.4240991 C56.0891333,23.8440325 56.1918,23.1689991 56.1918,22.3989991 L56.1918,22.3989991 L56.1918,17.4401991 C56.1918,16.7112658 56.0891333,16.0695991 55.8838,15.5151991 C55.6784667,14.9607991 55.3319667,14.5321658 54.8443,14.2292991 C54.3566333,13.9264325 53.6764667,13.7749991 52.8038,13.7749991 L52.8038,13.7749991 L50.0934,13.7749991 L50.0934,26.2489991 L52.9116,26.2489991 Z M52.8346,25.3711991 L51.2638,25.3711991 L51.2638,14.6835991 L52.7884,14.6835991 C53.4146667,14.6835991 53.8843667,14.7939658 54.1975,15.0146991 C54.5106333,15.2354325 54.7211,15.5588325 54.8289,15.9848991 C54.9367,16.4109658 54.9906,16.9371325 54.9906,17.5633991 L54.9906,17.5633991 L54.9906,22.2141991 C54.9906,22.8199325 54.9495333,23.3614991 54.8674,23.8388991 C54.7852667,24.3162991 54.5902,24.6910325 54.2822,24.9630991 C53.9742,25.2351658 53.4916667,25.3711991 52.8346,25.3711991 L52.8346,25.3711991 Z M59.1332,16.1157991 L59.1332,14.5911991 L58.009,14.5911991 L58.009,16.1157991 L59.1332,16.1157991 Z M59.1332,26.2489991 L59.1332,17.3477991 L58.009,17.3477991 L58.009,26.2489991 L59.1332,26.2489991 Z M63.0602,26.3875991 C63.5222,26.3875991 63.9226,26.3028991 64.2614,26.1334991 C64.6002,25.9640991 64.8645667,25.7228325 65.0545,25.4096991 C65.2444333,25.0965658 65.3394,24.7089991 65.3394,24.2469991 C65.3394,23.8363325 65.2675333,23.4795658 65.1238,23.1766991 C64.9800667,22.8738325 64.7952667,22.5991991 64.5694,22.3527991 C64.3435333,22.1063991 64.1074,21.8753991 63.861,21.6597991 L63.861,21.6597991 L62.5982,20.5355991 C62.321,20.2789325 62.1310667,20.0479325 62.0284,19.8425991 C61.9257333,19.6372658 61.8744,19.4011325 61.8744,19.1341991 C61.8744,18.7953991 61.9796333,18.5310325 62.1901,18.3410991 C62.4005667,18.1511658 62.6752,18.0561991 63.014,18.0561991 C63.2706667,18.0561991 63.4888333,18.1177991 63.6685,18.2409991 C63.8481667,18.3641991 63.9893333,18.5566991 64.092,18.8184991 C64.1946667,19.0802991 64.2562667,19.4113991 64.2768,19.8117991 L64.2768,19.8117991 L65.0776,19.5499991 C65.0468,18.8621325 64.8568667,18.3000325 64.5078,17.8636991 C64.1587333,17.4273658 63.6454,17.2091991 62.9678,17.2091991 C62.5468667,17.2091991 62.1772667,17.2887658 61.859,17.4478991 C61.5407333,17.6070325 61.2917667,17.8328991 61.1121,18.1254991 C60.9324333,18.4180991 60.8426,18.7799991 60.8426,19.2111991 C60.8426,19.6834658 60.9452667,20.0889991 61.1506,20.4277991 C61.3559333,20.7665991 61.6588,21.1053991 62.0592,21.4441991 L62.0592,21.4441991 L63.2758,22.4913991 C63.6454,22.8096658 63.9174667,23.1150991 64.092,23.4076991 C64.2665333,23.7002991 64.3538,23.9903325 64.3538,24.2777991 C64.3538,24.6781991 64.2485667,24.9887658 64.0381,25.2094991 C63.8276333,25.4302325 63.5273333,25.5405991 63.1372,25.5405991 C62.6752,25.5405991 62.3158667,25.3840325 62.0592,25.0708991 C61.8025333,24.7577658 61.6434,24.2572658 61.5818,23.5693991 L61.5818,23.5693991 L60.6424,23.8619991 C60.704,24.6319991 60.9452667,25.2454325 61.3662,25.7022991 C61.7871333,26.1591658 62.3518,26.3875991 63.0602,26.3875991 Z M68.8506,26.3875991 C69.7232667,26.3875991 70.3264333,26.1437658 70.6601,25.6560991 C70.9937667,25.1684325 71.1606,24.5190658 71.1606,23.7079991 L71.1606,23.7079991 L71.1606,23.2151991 L70.0672,23.2151991 L70.0672,23.8311991 C70.0672,24.2931991 70.0133,24.6499658 69.9055,24.9014991 C69.7977,25.1530325 69.6514,25.3224325 69.4666,25.4096991 C69.2818,25.4969658 69.0764667,25.5405991 68.8506,25.5405991 C68.5528667,25.5405991 68.3090333,25.4687325 68.1191,25.3249991 C67.9291667,25.1812658 67.7905667,24.9425658 67.7033,24.6088991 C67.6160333,24.2752325 67.5724,23.8209325 67.5724,23.2459991 L67.5724,23.2459991 L67.5724,21.6905991 L71.176,21.6905991 L71.176,20.8897991 C71.176,20.0479325 71.1118333,19.3574991 70.9835,18.8184991 C70.8551667,18.2794991 70.6267333,17.8765325 70.2982,17.6095991 C69.9696667,17.3426658 69.4922667,17.2091991 68.866,17.2091991 C68.3218667,17.2091991 67.8701333,17.3144325 67.5108,17.5248991 C67.1514667,17.7353658 66.8845333,18.0895658 66.71,18.5874991 C66.5354667,19.0854325 66.4482,19.7758658 66.4482,20.6587991 L66.4482,20.6587991 L66.4482,22.9071991 C66.4482,23.7593325 66.5329,24.4420658 66.7023,24.9553991 C66.8717,25.4687325 67.1335,25.8357658 67.4877,26.0564991 C67.8419,26.2772325 68.2962,26.3875991 68.8506,26.3875991 Z M70.0672,21.0437991 L67.5724,21.0437991 L67.5724,20.4431991 C67.5724,19.8066658 67.6134667,19.3164325 67.6956,18.9724991 C67.7777333,18.6285658 67.9137667,18.3898658 68.1037,18.2563991 C68.2936333,18.1229325 68.5426,18.0561991 68.8506,18.0561991 C69.2202,18.0561991 69.4897,18.1460325 69.6591,18.3256991 C69.8285,18.5053658 69.9388667,18.7620325 69.9902,19.0956991 C70.0415333,19.4293658 70.0672,19.8323325 70.0672,20.3045991 L70.0672,20.3045991 L70.0672,21.0437991 Z M75.9346,15.5921991 C76.2426,15.5921991 76.4736,15.5126325 76.6276,15.3534991 C76.7816,15.1943658 76.8817,15.0044325 76.9279,14.7836991 C76.9741,14.5629658 76.9972,14.3601991 76.9972,14.1753991 L76.9972,14.1753991 L76.3196,14.1753991 C76.3196,14.4217991 76.2785333,14.5937658 76.1964,14.6912991 C76.1142667,14.7888325 75.9859333,14.8375991 75.8114,14.8375991 C75.6266,14.8375991 75.4469333,14.7759991 75.2724,14.6527991 C75.0978667,14.5295991 74.9130667,14.4089658 74.718,14.2908991 C74.5229333,14.1728325 74.3022,14.1137991 74.0558,14.1137991 C73.7683333,14.1137991 73.5476,14.1907991 73.3936,14.3447991 C73.2396,14.4987991 73.1343667,14.6810325 73.0779,14.8914991 C73.0214333,15.1019658 72.9932,15.2944658 72.9932,15.4689991 L72.9932,15.4689991 L73.6862,15.4689991 C73.6862,15.2636658 73.7298333,15.1096658 73.8171,15.0069991 C73.9043667,14.9043325 74.0301333,14.8529991 74.1944,14.8529991 C74.3792,14.8529991 74.5563,14.9145991 74.7257,15.0377991 C74.8951,15.1609991 75.0773333,15.2841991 75.2724,15.4073991 C75.4674667,15.5305991 75.6882,15.5921991 75.9346,15.5921991 Z M73.8248,26.2489991 L73.8248,18.9185991 C74.0609333,18.6721991 74.3124667,18.4719991 74.5794,18.3179991 C74.8463333,18.1639991 75.1081333,18.0869991 75.3648,18.0869991 C75.6522667,18.0869991 75.8653,18.1819658 76.0039,18.3718991 C76.1425,18.5618325 76.2118,18.8877991 76.2118,19.3497991 L76.2118,19.3497991 L76.2118,26.2489991 L77.336,26.2489991 L77.336,19.1033991 C77.336,18.7029991 77.2846667,18.3616325 77.182,18.0792991 C77.0793333,17.7969658 76.9253333,17.5813658 76.72,17.4324991 C76.5146667,17.2836325 76.2631333,17.2091991 75.9654,17.2091991 C75.5444667,17.2091991 75.1543333,17.3092991 74.795,17.5094991 C74.4356667,17.7096991 74.1122667,17.9637991 73.8248,18.2717991 L73.8248,18.2717991 L73.8248,17.3477991 L72.7006,17.3477991 L72.7006,26.2489991 L73.8248,26.2489991 Z M81.2014,26.3875991 C81.8276667,26.3875991 82.3102,26.2566991 82.649,25.9948991 C82.9878,25.7330991 83.2290667,25.3532325 83.3728,24.8552991 C83.5165333,24.3573658 83.5884,23.7490658 83.5884,23.0303991 L83.5884,23.0303991 L83.5884,20.5663991 C83.5884,19.8477325 83.5165333,19.2394325 83.3728,18.7414991 C83.2290667,18.2435658 82.9878,17.8636991 82.649,17.6018991 C82.3102,17.3400991 81.8276667,17.2091991 81.2014,17.2091991 C80.5956667,17.2091991 80.1208333,17.3400991 79.7769,17.6018991 C79.4329667,17.8636991 79.1891333,18.2435658 79.0454,18.7414991 C78.9016667,19.2394325 78.8298,19.8477325 78.8298,20.5663991 L78.8298,20.5663991 L78.8298,23.0303991 C78.8298,23.7490658 78.9016667,24.3573658 79.0454,24.8552991 C79.1891333,25.3532325 79.4329667,25.7330991 79.7769,25.9948991 C80.1208333,26.2566991 80.5956667,26.3875991 81.2014,26.3875991 Z M81.2014,25.5405991 C80.8112667,25.5405991 80.5289333,25.4379325 80.3544,25.2325991 C80.1798667,25.0272658 80.0720667,24.7372325 80.031,24.3624991 C79.9899333,23.9877658 79.9694,23.5642658 79.9694,23.0919991 L79.9694,23.0919991 L79.9694,20.5047991 C79.9694,20.0222658 79.9899333,19.5987658 80.031,19.2342991 C80.0720667,18.8698325 80.1798667,18.5823658 80.3544,18.3718991 C80.5289333,18.1614325 80.8112667,18.0561991 81.2014,18.0561991 C81.5915333,18.0561991 81.8764333,18.1614325 82.0561,18.3718991 C82.2357667,18.5823658 82.3461333,18.8698325 82.3872,19.2342991 C82.4282667,19.5987658 82.4488,20.0222658 82.4488,20.5047991 L82.4488,20.5047991 L82.4488,23.0919991 C82.4488,23.5642658 82.4282667,23.9877658 82.3872,24.3624991 C82.3461333,24.7372325 82.2357667,25.0272658 82.0561,25.2325991 C81.8764333,25.4379325 81.5915333,25.5405991 81.2014,25.5405991 Z M90.2566,26.3875991 C90.5954,26.3875991 90.8905667,26.3080325 91.1421,26.1488991 C91.3936333,25.9897658 91.6066667,25.8126658 91.7812,25.6175991 L91.7812,25.6175991 L91.7812,26.2489991 L92.9054,26.2489991 L92.9054,13.7749991 L91.7812,13.7749991 L91.7812,17.9791991 C91.6066667,17.7841325 91.3885,17.6070325 91.1267,17.4478991 C90.8649,17.2887658 90.5594667,17.2091991 90.2104,17.2091991 C89.6457333,17.2091991 89.2119667,17.3657658 88.9091,17.6788991 C88.6062333,17.9920325 88.3983333,18.4309325 88.2854,18.9955991 C88.1724667,19.5602658 88.116,20.2327325 88.116,21.0129991 L88.116,21.0129991 L88.116,22.6607991 C88.116,23.9954658 88.2828333,24.9502658 88.6165,25.5251991 C88.9501667,26.1001325 89.4968667,26.3875991 90.2566,26.3875991 Z M90.4876,25.4943991 C90.1488,25.4943991 89.8895667,25.3917325 89.7099,25.1863991 C89.5302333,24.9810658 89.4070333,24.6730658 89.3403,24.2623991 C89.2735667,23.8517325 89.2402,23.3486658 89.2402,22.7531991 L89.2402,22.7531991 L89.2402,20.6433991 C89.2402,19.8117991 89.3197667,19.1778325 89.4789,18.7414991 C89.6380333,18.3051658 89.964,18.0869991 90.4568,18.0869991 C90.734,18.0869991 90.9855333,18.1562991 91.2114,18.2948991 C91.4372667,18.4334991 91.6272,18.5746658 91.7812,18.7183991 L91.7812,18.7183991 L91.7812,24.9091991 C91.6066667,25.0734658 91.4090333,25.2120658 91.1883,25.3249991 C90.9675667,25.4379325 90.734,25.4943991 90.4876,25.4943991 Z M95.893,16.1157991 L95.893,14.5911991 L94.7688,14.5911991 L94.7688,16.1157991 L95.893,16.1157991 Z M95.893,26.2489991 L95.893,17.3477991 L94.7688,17.3477991 L94.7688,26.2489991 L95.893,26.2489991 Z M100.051,29.1749991 C100.6362,29.1749991 101.146967,29.1005658 101.5833,28.9516991 C102.019633,28.8028325 102.363567,28.5743991 102.6151,28.2663991 C102.866633,27.9583991 102.9924,27.5733991 102.9924,27.1113991 C102.9924,26.4953991 102.7999,26.0231325 102.4149,25.6945991 C102.0299,25.3660658 101.478067,25.1504658 100.7594,25.0477991 L100.7594,25.0477991 L99.3426,24.8321991 C99.0859333,24.8013991 98.8985667,24.7474991 98.7805,24.6704991 C98.6624333,24.5934991 98.6034,24.4831325 98.6034,24.3393991 C98.6034,24.1751325 98.6675667,24.0031658 98.7959,23.8234991 C98.9242333,23.6438325 99.0602667,23.4769991 99.204,23.3229991 C99.3169333,23.3537991 99.4581,23.3845991 99.6275,23.4153991 C99.7969,23.4461991 99.9586,23.4615991 100.1126,23.4615991 C100.718333,23.4615991 101.1983,23.3255658 101.5525,23.0534991 C101.9067,22.7814325 102.163367,22.4092658 102.3225,21.9369991 C102.481633,21.4647325 102.5612,20.9359991 102.5612,20.3507991 C102.5612,20.1351991 102.532967,19.8682658 102.4765,19.5499991 C102.420033,19.2317325 102.355867,18.9801991 102.284,18.7953991 C102.366133,18.6927325 102.4919,18.5900658 102.6613,18.4873991 C102.8307,18.3847325 103.012933,18.2897658 103.208,18.2024991 C103.403067,18.1152325 103.582733,18.0561991 103.747,18.0253991 L103.747,18.0253991 L103.439,17.2399991 L103.208,17.3169991 C102.951333,17.4196658 102.710067,17.5762325 102.4842,17.7866991 C102.258333,17.9971658 102.0992,18.1742658 102.0068,18.3179991 C101.8528,18.0099991 101.626933,17.7481991 101.3292,17.5325991 C101.031467,17.3169991 100.6208,17.2091991 100.0972,17.2091991 C99.5222667,17.2091991 99.0525667,17.3503658 98.6881,17.6326991 C98.3236333,17.9150325 98.0515667,18.2897658 97.8719,18.7568991 C97.6922333,19.2240325 97.6024,19.7450658 97.6024,20.3199991 C97.6024,20.9359991 97.6871,21.4698658 97.8565,21.9215991 C98.0259,22.3733325 98.3159333,22.7429325 98.7266,23.0303991 C98.3980667,23.3075991 98.1388333,23.5693991 97.9489,23.8157991 C97.7589667,24.0621991 97.664,24.3393991 97.664,24.6473991 C97.664,24.8732658 97.7435667,25.0683325 97.9027,25.2325991 C98.0618333,25.3968658 98.3108,25.5251991 98.6496,25.6175991 C98.4134667,25.7407991 98.1824667,25.8973658 97.9566,26.0872991 C97.7307333,26.2772325 97.5459333,26.4953991 97.4022,26.7417991 C97.2584667,26.9881991 97.1866,27.2602658 97.1866,27.5579991 C97.1866,27.9275991 97.3021,28.2330325 97.5331,28.4742991 C97.7641,28.7155658 98.0952,28.8926658 98.5264,29.0055991 C98.9576,29.1185325 99.4658,29.1749991 100.051,29.1749991 Z M100.1126,22.6453991 C99.7943333,22.6453991 99.5351,22.5735325 99.3349,22.4297991 C99.1347,22.2860658 98.9807,22.0986991 98.8729,21.8676991 C98.7651,21.6366991 98.6958,21.3825991 98.665,21.1053991 C98.6342,20.8281991 98.6188,20.5663991 98.6188,20.3199991 C98.6188,20.0633325 98.6367667,19.8015325 98.6727,19.5345991 C98.7086333,19.2676658 98.7805,19.0186991 98.8883,18.7876991 C98.9961,18.5566991 99.1501,18.3693325 99.3503,18.2255991 C99.5505,18.0818658 99.8046,18.0099991 100.1126,18.0099991 C100.4206,18.0099991 100.669567,18.0792991 100.8595,18.2178991 C101.049433,18.3564991 101.195733,18.5412991 101.2984,18.7722991 C101.401067,19.0032991 101.472933,19.2522658 101.514,19.5191991 C101.555067,19.7861325 101.5756,20.0530658 101.5756,20.3199991 C101.5756,20.5869325 101.557633,20.8589991 101.5217,21.1361991 C101.485767,21.4133991 101.419033,21.6649325 101.3215,21.8907991 C101.223967,22.1166658 101.080233,22.2988991 100.8903,22.4374991 C100.700367,22.5760991 100.441133,22.6453991 100.1126,22.6453991 Z M100.0972,28.2663991 C99.4401333,28.2663991 98.9499,28.1868325 98.6265,28.0276991 C98.3031,27.8685658 98.1414,27.6195991 98.1414,27.2807991 C98.1414,27.0446658 98.2055667,26.8341991 98.3339,26.6493991 C98.4622333,26.4645991 98.6136667,26.2977658 98.7882,26.1488991 C98.9627333,26.0000325 99.127,25.8742658 99.281,25.7715991 L99.281,25.7715991 L100.4206,25.9255991 C100.8826,25.9974658 101.234233,26.0872991 101.4755,26.1950991 C101.716767,26.3028991 101.881033,26.4337991 101.9683,26.5877991 C102.055567,26.7417991 102.0992,26.9214658 102.0992,27.1267991 C102.0992,27.5271991 101.9144,27.8172325 101.5448,27.9968991 C101.1752,28.1765658 100.692667,28.2663991 100.0972,28.2663991 Z M105.672,16.1157991 L105.672,14.5911991 L104.5478,14.5911991 L104.5478,16.1157991 L105.672,16.1157991 Z M105.672,26.2489991 L105.672,17.3477991 L104.5478,17.3477991 L104.5478,26.2489991 L105.672,26.2489991 Z M109.676,26.3567991 C109.83,26.3567991 109.989133,26.3490991 110.1534,26.3336991 C110.317667,26.3182991 110.4768,26.2951991 110.6308,26.2643991 L110.6308,26.2643991 L110.6308,25.4019991 C110.528133,25.4225325 110.417767,25.4404991 110.2997,25.4558991 C110.181633,25.4712991 110.0764,25.4789991 109.984,25.4789991 C109.655467,25.4789991 109.442433,25.3891658 109.3449,25.2094991 C109.247367,25.0298325 109.1986,24.7243991 109.1986,24.2931991 L109.1986,24.2931991 L109.1986,18.0869991 L110.677,18.0869991 L110.677,17.3477991 L109.1986,17.3477991 L109.1986,14.5911991 L108.0744,14.5911991 L108.0744,17.3477991 L106.981,17.3477991 L106.981,18.0869991 L108.0744,18.0869991 L108.0744,24.4009991 C108.0744,24.7808658 108.118033,25.1170991 108.2053,25.4096991 C108.292567,25.7022991 108.4517,25.9332991 108.6827,26.1026991 C108.9137,26.2720991 109.2448,26.3567991 109.676,26.3567991 Z M113.7724,25.4327991 C113.505467,25.4327991 113.269333,25.3326991 113.064,25.1324991 C112.858667,24.9322991 112.756,24.5960658 112.756,24.1237991 C112.756,23.8260658 112.8022,23.5668325 112.8946,23.3460991 C112.987,23.1253658 113.130733,22.9277325 113.3258,22.7531991 C113.520867,22.5786658 113.774967,22.3989991 114.0881,22.2141991 C114.401233,22.0293991 114.778533,21.8240658 115.22,21.5981991 L115.22,21.5981991 L115.22,24.3701991 C115.137867,24.5344658 115.024933,24.6961658 114.8812,24.8552991 C114.737467,25.0144325 114.5732,25.1504658 114.3884,25.2633991 C114.2036,25.3763325 113.998267,25.4327991 113.7724,25.4327991 Z M115.25,25.018 L115.261388,25.1339429 C115.274863,25.2600304 115.297,25.4135491 115.3278,25.5944991 C115.368867,25.8357658 115.399667,26.0539325 115.4202,26.2489991 L115.4202,26.2489991 L116.4212,26.2489991 C116.416067,26.1925325 116.410933,26.1232325 116.4058,26.0410991 L116.3904,25.7561991 C116.380133,25.5405991 116.369867,25.3121658 116.3596,25.0708991 C116.349333,24.8296325 116.3442,24.6319991 116.3442,24.4779991 L116.3442,24.4779991 L116.3442,20.1505991 C116.3442,19.1444658 116.1825,18.4026991 115.8591,17.9252991 C115.5357,17.4478991 114.9736,17.2091991 114.1728,17.2091991 C113.320667,17.2091991 112.707233,17.4273658 112.3325,17.8636991 C111.957767,18.3000325 111.765267,18.9699325 111.755,19.8733991 L111.755,19.8733991 L112.8638,19.8887991 L112.8638,19.5807991 C112.8638,19.1906658 112.920267,18.8852325 113.0332,18.6644991 C113.146133,18.4437658 113.295,18.2871991 113.4798,18.1947991 C113.6646,18.1023991 113.875067,18.0561991 114.1112,18.0561991 C114.398667,18.0561991 114.621967,18.1229325 114.7811,18.2563991 C114.940233,18.3898658 115.053167,18.6131658 115.1199,18.9262991 C115.186633,19.2394325 115.22,19.6680658 115.22,20.2121991 L115.22,20.2121991 L115.22,20.8435991 C114.562933,21.1413325 114.005967,21.4108325 113.5491,21.6520991 C113.092233,21.8933658 112.722633,22.1397658 112.4403,22.3912991 C112.157967,22.6428325 111.952633,22.9277325 111.8243,23.2459991 C111.695967,23.5642658 111.6318,23.9492658 111.6318,24.4009991 C111.6318,24.7603325 111.706233,25.0914325 111.8551,25.3942991 C112.003967,25.6971658 112.211867,25.9384325 112.4788,26.1180991 C112.745733,26.2977658 113.058867,26.3875991 113.4182,26.3875991 C113.890467,26.3875991 114.283167,26.2489991 114.5963,25.9717991 C114.909433,25.6945991 115.1276,25.3763325 115.2508,25.0169991 L115.25,25.018 Z M119.2702,26.2489991 L119.2702,13.7749991 L118.146,13.7749991 L118.146,26.2489991 L119.2702,26.2489991 Z" id="Diseñodigital" fill="#000000" fill-rule="nonzero"></path>
                <g id="Group-9" fill="#007ABF" transform="translate(0.000000, 0.105422)">
                    <path d="M20.8250502,22.9899281 C19.8078814,22.9899281 19.7914283,23.6847375 19.7914283,27.3290439 C19.7914283,30.9048565 19.875522,31.6680378 20.8250502,31.6680378 C21.7738471,31.6680378 21.8586721,30.9048565 21.8586721,27.3290439 C21.8586721,23.6847375 21.842219,22.9899281 20.8250502,22.9899281" id="Fill-1"></path>
                    <path d="M25.1764876,11.529997 C24.1531031,11.529997 24.1692972,12.7051158 24.1692972,14.4007628 C24.1692972,16.5323566 24.3208032,17.4219223 25.1764876,17.4219223 C25.9825688,17.4219223 26.1340759,16.5323566 26.1340759,14.4007628 C26.1340759,12.7051158 26.150147,11.529997 25.1764876,11.529997" id="Fill-3"></path>
                    <path d="M13.3565133,17.4218857 C14.2128071,17.4218857 14.3644333,16.53232 14.3644333,14.4007262 C14.3644333,12.7050793 14.3800196,11.5299605 13.3565133,11.5299605 C12.3833414,11.5299605 12.399777,12.7050793 12.399777,14.4007262 C12.399777,16.53232 12.5507977,17.4218857 13.3565133,17.4218857" id="Fill-5"></path>
                    <path d="M29.7539543,20.6913289 L35.1675201,20.6913289 L35.1675201,19.8553883 L29.7539543,19.8553883 L29.7539543,20.6913289 Z M28.5007136,18.7153695 L26.2502917,18.7153695 L26.2502917,17.7751038 L26.2181167,17.7751038 C25.7811948,18.596907 25.1266041,18.8829476 24.2196103,18.8829476 C21.7688259,18.8829476 21.8526759,16.1635506 21.8526759,14.4170818 C21.8526759,12.7051036 21.7858884,10.0690692 24.1693978,10.0690692 C25.025326,10.0690692 25.6131291,10.3211067 26.0998979,11.0433379 L26.1341448,11.0433379 L26.1341448,6.59368151 L28.5007136,6.59368151 L28.5007136,18.7153695 Z M20.8250258,33.3966763 C17.6383601,33.3966763 17.4009476,31.0070731 17.4009476,27.295248 C17.4009476,22.7691759 17.909532,21.2606071 20.8250258,21.2606071 C23.7405197,21.2606071 24.2491041,22.7691759 24.2491041,27.295248 C24.2491041,31.0070731 24.0116916,33.3966763 20.8250258,33.3966763 L20.8250258,33.3966763 Z M16.9144225,33.2440888 L9.89722539,33.2440888 L9.89722539,31.1595387 C13.6256255,26.1932542 14.4053818,25.6169073 14.4053818,24.1422197 C14.4053818,23.5488103 14.1852756,22.9898915 13.5076505,22.9898915 C12.524363,22.9898915 12.4732974,23.9222353 12.4732974,24.6846854 L10.0835723,24.6846854 C9.91392227,22.4813071 11.1510754,21.2606071 13.3380005,21.2606071 C15.3887912,21.2606071 16.7958382,22.091429 16.7958382,24.3121135 C16.7958382,26.9728886 13.6939974,29.9899043 12.4056567,31.4135262 L16.9144225,31.4135262 L16.9144225,33.2440888 Z M10.0326285,6.59368151 L12.3998067,6.59368151 L12.3998067,11.0433379 L12.4338099,11.0433379 C12.9205786,10.3211067 13.5083818,10.0690692 14.3643099,10.0690692 C16.7479413,10.0690692 16.6810319,12.7051036 16.6810319,14.4170818 C16.6810319,16.1635506 16.7645163,18.8829476 14.3140974,18.8829476 C13.4071037,18.8829476 12.7521474,18.596907 12.3162005,17.7751038 L12.2821974,17.7751038 L12.2821974,18.7153695 L10.0326285,18.7153695 L10.0326285,6.59368151 Z M18.091857,18.7153695 L20.4586696,18.7153695 L20.4586696,10.2371348 L18.091857,10.2371348 L18.091857,18.7153695 Z M18.091857,8.45739409 L20.4586696,8.45739409 L20.4586696,6.59368151 L18.091857,6.59368151 L18.091857,8.45739409 Z M19.3699601,0.0164531257 C8.67152847,0.0164531257 0,8.68920035 0,19.3848289 C0,30.0841137 8.67152847,38.7562515 19.3699601,38.7562515 C30.0670512,38.7562515 38.7400422,30.0841137 38.7400422,19.3848289 C38.7400422,8.68920035 30.0670512,0.0164531257 19.3699601,0.0164531257 L19.3699601,0.0164531257 Z" id="Fill-7"></path>
                </g>
            </g>
            <line x1="47.55" y1="0.5" x2="222.340882" y2="0.5" id="Path-5-Copy-3" stroke="#000000" stroke-width="0.5"></line>
        </g>
    </g>
</svg>