<?xml version="1.0" encoding="UTF-8"?>
<svg width="223px" height="41px" viewBox="0 0 223 41" version="1.1" xmlns="http://www.w3.org/2000/svg" xmlns:xlink="http://www.w3.org/1999/xlink">
    <title>dise침o_innovacion</title>
    <g id="Page-1" stroke="none" stroke-width="1" fill="none" fill-rule="evenodd">
        <g id="dise침o_innovacion">
            <g id="cultura" transform="translate(0.000000, 2.000000)">
                <path d="M52.064,26 C52.928,26 53.6053333,25.8346667 54.096,25.504 C54.5866667,25.1733333 54.9386667,24.7066667 55.152,24.104 C55.3653333,23.5013333 55.472,22.8 55.472,22 L55.472,22 L55.472,16.848 C55.472,16.0906667 55.3653333,15.424 55.152,14.848 C54.9386667,14.272 54.5786667,13.8266667 54.072,13.512 C53.5653333,13.1973333 52.8586667,13.04 51.952,13.04 L51.952,13.04 L49.136,13.04 L49.136,26 L52.064,26 Z M51.984,25.088 L50.352,25.088 L50.352,13.984 L51.936,13.984 C52.5866667,13.984 53.0746667,14.0986667 53.4,14.328 C53.7253333,14.5573333 53.944,14.8933333 54.056,15.336 C54.168,15.7786667 54.224,16.3253333 54.224,16.976 L54.224,16.976 L54.224,21.808 C54.224,22.4373333 54.1813333,23 54.096,23.496 C54.0106667,23.992 53.808,24.3813333 53.488,24.664 C53.168,24.9466667 52.6666667,25.088 51.984,25.088 L51.984,25.088 Z M58.328,15.472 L58.328,13.888 L57.16,13.888 L57.16,15.472 L58.328,15.472 Z M58.328,26 L58.328,16.752 L57.16,16.752 L57.16,26 L58.328,26 Z M62.208,26.144 C62.688,26.144 63.104,26.056 63.456,25.88 C63.808,25.704 64.0826667,25.4533333 64.28,25.128 C64.4773333,24.8026667 64.576,24.4 64.576,23.92 C64.576,23.4933333 64.5013333,23.1226667 64.352,22.808 C64.2026667,22.4933333 64.0106667,22.208 63.776,21.952 C63.5413333,21.696 63.296,21.456 63.04,21.232 L63.04,21.232 L61.728,20.064 C61.44,19.7973333 61.2426667,19.5573333 61.136,19.344 C61.0293333,19.1306667 60.976,18.8853333 60.976,18.608 C60.976,18.256 61.0853333,17.9813333 61.304,17.784 C61.5226667,17.5866667 61.808,17.488 62.16,17.488 C62.4266667,17.488 62.6533333,17.552 62.84,17.68 C63.0266667,17.808 63.1733333,18.008 63.28,18.28 C63.3866667,18.552 63.4506667,18.896 63.472,19.312 L63.472,19.312 L64.304,19.04 C64.272,18.3253333 64.0746667,17.7413333 63.712,17.288 C63.3493333,16.8346667 62.816,16.608 62.112,16.608 C61.6746667,16.608 61.2906667,16.6906667 60.96,16.856 C60.6293333,17.0213333 60.3706667,17.256 60.184,17.56 C59.9973333,17.864 59.904,18.24 59.904,18.688 C59.904,19.1786667 60.0106667,19.6 60.224,19.952 C60.4373333,20.304 60.752,20.656 61.168,21.008 L61.168,21.008 L62.432,22.096 C62.816,22.4266667 63.0986667,22.744 63.28,23.048 C63.4613333,23.352 63.552,23.6533333 63.552,23.952 C63.552,24.368 63.4426667,24.6906667 63.224,24.92 C63.0053333,25.1493333 62.6933333,25.264 62.288,25.264 C61.808,25.264 61.4346667,25.1013333 61.168,24.776 C60.9013333,24.4506667 60.736,23.9306667 60.672,23.216 L60.672,23.216 L59.696,23.52 C59.76,24.32 60.0106667,24.9573333 60.448,25.432 C60.8853333,25.9066667 61.472,26.144 62.208,26.144 Z M68.024,26.144 C68.9306667,26.144 69.5573333,25.8906667 69.904,25.384 C70.2506667,24.8773333 70.424,24.2026667 70.424,23.36 L70.424,23.36 L70.424,22.848 L69.288,22.848 L69.288,23.488 C69.288,23.968 69.232,24.3386667 69.12,24.6 C69.008,24.8613333 68.856,25.0373333 68.664,25.128 C68.472,25.2186667 68.2586667,25.264 68.024,25.264 C67.7146667,25.264 67.4613333,25.1893333 67.264,25.04 C67.0666667,24.8906667 66.9226667,24.6426667 66.832,24.296 C66.7413333,23.9493333 66.696,23.4773333 66.696,22.88 L66.696,22.88 L66.696,21.264 L70.44,21.264 L70.44,20.432 C70.44,19.5573333 70.3733333,18.84 70.24,18.28 C70.1066667,17.72 69.8693333,17.3013333 69.528,17.024 C69.1866667,16.7466667 68.6906667,16.608 68.04,16.608 C67.4746667,16.608 67.0053333,16.7173333 66.632,16.936 C66.2586667,17.1546667 65.9813333,17.5226667 65.8,18.04 C65.6186667,18.5573333 65.528,19.2746667 65.528,20.192 L65.528,20.192 L65.528,22.528 C65.528,23.4133333 65.616,24.1226667 65.792,24.656 C65.968,25.1893333 66.24,25.5706667 66.608,25.8 C66.976,26.0293333 67.448,26.144 68.024,26.144 Z M69.288,20.592 L66.696,20.592 L66.696,19.968 C66.696,19.3066667 66.7386667,18.7973333 66.824,18.44 C66.9093333,18.0826667 67.0506667,17.8346667 67.248,17.696 C67.4453333,17.5573333 67.704,17.488 68.024,17.488 C68.408,17.488 68.688,17.5813333 68.864,17.768 C69.04,17.9546667 69.1546667,18.2213333 69.208,18.568 C69.2613333,18.9146667 69.288,19.3333333 69.288,19.824 L69.288,19.824 L69.288,20.592 Z M75.184,14.928 C75.504,14.928 75.744,14.8453333 75.904,14.68 C76.064,14.5146667 76.168,14.3173333 76.216,14.088 C76.264,13.8586667 76.288,13.648 76.288,13.456 L76.288,13.456 L75.584,13.456 C75.584,13.712 75.5413333,13.8906667 75.456,13.992 C75.3706667,14.0933333 75.2373333,14.144 75.056,14.144 C74.864,14.144 74.6773333,14.08 74.496,13.952 C74.3146667,13.824 74.1226667,13.6986667 73.92,13.576 C73.7173333,13.4533333 73.488,13.392 73.232,13.392 C72.9333333,13.392 72.704,13.472 72.544,13.632 C72.384,13.792 72.2746667,13.9813333 72.216,14.2 C72.1573333,14.4186667 72.128,14.6186667 72.128,14.8 L72.128,14.8 L72.848,14.8 C72.848,14.5866667 72.8933333,14.4266667 72.984,14.32 C73.0746667,14.2133333 73.2053333,14.16 73.376,14.16 C73.568,14.16 73.752,14.224 73.928,14.352 C74.104,14.48 74.2933333,14.608 74.496,14.736 C74.6986667,14.864 74.928,14.928 75.184,14.928 Z M72.992,26 L72.992,18.384 C73.2373333,18.128 73.4986667,17.92 73.776,17.76 C74.0533333,17.6 74.3253333,17.52 74.592,17.52 C74.8906667,17.52 75.112,17.6186667 75.256,17.816 C75.4,18.0133333 75.472,18.352 75.472,18.832 L75.472,18.832 L75.472,26 L76.64,26 L76.64,18.576 C76.64,18.16 76.5866667,17.8053333 76.48,17.512 C76.3733333,17.2186667 76.2133333,16.9946667 76,16.84 C75.7866667,16.6853333 75.5253333,16.608 75.216,16.608 C74.7786667,16.608 74.3733333,16.712 74,16.92 C73.6266667,17.128 73.2906667,17.392 72.992,17.712 L72.992,17.712 L72.992,16.752 L71.824,16.752 L71.824,26 L72.992,26 Z M80.456,26.144 C81.1066667,26.144 81.608,26.008 81.96,25.736 C82.312,25.464 82.5626667,25.0693333 82.712,24.552 C82.8613333,24.0346667 82.936,23.4026667 82.936,22.656 L82.936,22.656 L82.936,20.096 C82.936,19.3493333 82.8613333,18.7173333 82.712,18.2 C82.5626667,17.6826667 82.312,17.288 81.96,17.016 C81.608,16.744 81.1066667,16.608 80.456,16.608 C79.8266667,16.608 79.3333333,16.744 78.976,17.016 C78.6186667,17.288 78.3653333,17.6826667 78.216,18.2 C78.0666667,18.7173333 77.992,19.3493333 77.992,20.096 L77.992,20.096 L77.992,22.656 C77.992,23.4026667 78.0666667,24.0346667 78.216,24.552 C78.3653333,25.0693333 78.6186667,25.464 78.976,25.736 C79.3333333,26.008 79.8266667,26.144 80.456,26.144 Z M80.456,25.264 C80.0506667,25.264 79.7573333,25.1573333 79.576,24.944 C79.3946667,24.7306667 79.2826667,24.4293333 79.24,24.04 C79.1973333,23.6506667 79.176,23.2106667 79.176,22.72 L79.176,22.72 L79.176,20.032 C79.176,19.5306667 79.1973333,19.0906667 79.24,18.712 C79.2826667,18.3333333 79.3946667,18.0346667 79.576,17.816 C79.7573333,17.5973333 80.0506667,17.488 80.456,17.488 C80.8613333,17.488 81.1573333,17.5973333 81.344,17.816 C81.5306667,18.0346667 81.6453333,18.3333333 81.688,18.712 C81.7306667,19.0906667 81.752,19.5306667 81.752,20.032 L81.752,20.032 L81.752,22.72 C81.752,23.2106667 81.7306667,23.6506667 81.688,24.04 C81.6453333,24.4293333 81.5306667,24.7306667 81.344,24.944 C81.1573333,25.1573333 80.8613333,25.264 80.456,25.264 Z M89.736,26.144 C90.6426667,26.144 91.2693333,25.8906667 91.616,25.384 C91.9626667,24.8773333 92.136,24.2026667 92.136,23.36 L92.136,23.36 L92.136,22.848 L91,22.848 L91,23.488 C91,23.968 90.944,24.3386667 90.832,24.6 C90.72,24.8613333 90.568,25.0373333 90.376,25.128 C90.184,25.2186667 89.9706667,25.264 89.736,25.264 C89.4266667,25.264 89.1733333,25.1893333 88.976,25.04 C88.7786667,24.8906667 88.6346667,24.6426667 88.544,24.296 C88.4533333,23.9493333 88.408,23.4773333 88.408,22.88 L88.408,22.88 L88.408,21.264 L92.152,21.264 L92.152,20.432 C92.152,19.5573333 92.0853333,18.84 91.952,18.28 C91.8186667,17.72 91.5813333,17.3013333 91.24,17.024 C90.8986667,16.7466667 90.4026667,16.608 89.752,16.608 C89.1866667,16.608 88.7173333,16.7173333 88.344,16.936 C87.9706667,17.1546667 87.6933333,17.5226667 87.512,18.04 C87.3306667,18.5573333 87.24,19.2746667 87.24,20.192 L87.24,20.192 L87.24,22.528 C87.24,23.4133333 87.328,24.1226667 87.504,24.656 C87.68,25.1893333 87.952,25.5706667 88.32,25.8 C88.688,26.0293333 89.16,26.144 89.736,26.144 Z M91,20.592 L88.408,20.592 L88.408,19.968 C88.408,19.3066667 88.4506667,18.7973333 88.536,18.44 C88.6213333,18.0826667 88.7626667,17.8346667 88.96,17.696 C89.1573333,17.5573333 89.416,17.488 89.736,17.488 C90.12,17.488 90.4,17.5813333 90.576,17.768 C90.752,17.9546667 90.8666667,18.2213333 90.92,18.568 C90.9733333,18.9146667 91,19.3333333 91,19.824 L91,19.824 L91,20.592 Z M97.896,15.472 L97.896,13.888 L96.728,13.888 L96.728,15.472 L97.896,15.472 Z M97.896,26 L97.896,16.752 L96.728,16.752 L96.728,26 L97.896,26 Z M100.832,26 L100.832,18.384 C101.077333,18.128 101.338667,17.92 101.616,17.76 C101.893333,17.6 102.165333,17.52 102.432,17.52 C102.730667,17.52 102.952,17.6186667 103.096,17.816 C103.24,18.0133333 103.312,18.352 103.312,18.832 L103.312,18.832 L103.312,26 L104.48,26 L104.48,18.576 C104.48,18.16 104.426667,17.8053333 104.32,17.512 C104.213333,17.2186667 104.053333,16.9946667 103.84,16.84 C103.626667,16.6853333 103.365333,16.608 103.056,16.608 C102.618667,16.608 102.213333,16.712 101.84,16.92 C101.466667,17.128 101.130667,17.392 100.832,17.712 L100.832,17.712 L100.832,16.752 L99.664,16.752 L99.664,26 L100.832,26 Z M107.176,26 L107.176,18.384 C107.421333,18.128 107.682667,17.92 107.96,17.76 C108.237333,17.6 108.509333,17.52 108.776,17.52 C109.074667,17.52 109.296,17.6186667 109.44,17.816 C109.584,18.0133333 109.656,18.352 109.656,18.832 L109.656,18.832 L109.656,26 L110.824,26 L110.824,18.576 C110.824,18.16 110.770667,17.8053333 110.664,17.512 C110.557333,17.2186667 110.397333,16.9946667 110.184,16.84 C109.970667,16.6853333 109.709333,16.608 109.4,16.608 C108.962667,16.608 108.557333,16.712 108.184,16.92 C107.810667,17.128 107.474667,17.392 107.176,17.712 L107.176,17.712 L107.176,16.752 L106.008,16.752 L106.008,26 L107.176,26 Z M114.64,26.144 C115.290667,26.144 115.792,26.008 116.144,25.736 C116.496,25.464 116.746667,25.0693333 116.896,24.552 C117.045333,24.0346667 117.12,23.4026667 117.12,22.656 L117.12,22.656 L117.12,20.096 C117.12,19.3493333 117.045333,18.7173333 116.896,18.2 C116.746667,17.6826667 116.496,17.288 116.144,17.016 C115.792,16.744 115.290667,16.608 114.64,16.608 C114.010667,16.608 113.517333,16.744 113.16,17.016 C112.802667,17.288 112.549333,17.6826667 112.4,18.2 C112.250667,18.7173333 112.176,19.3493333 112.176,20.096 L112.176,20.096 L112.176,22.656 C112.176,23.4026667 112.250667,24.0346667 112.4,24.552 C112.549333,25.0693333 112.802667,25.464 113.16,25.736 C113.517333,26.008 114.010667,26.144 114.64,26.144 Z M114.64,25.264 C114.234667,25.264 113.941333,25.1573333 113.76,24.944 C113.578667,24.7306667 113.466667,24.4293333 113.424,24.04 C113.381333,23.6506667 113.36,23.2106667 113.36,22.72 L113.36,22.72 L113.36,20.032 C113.36,19.5306667 113.381333,19.0906667 113.424,18.712 C113.466667,18.3333333 113.578667,18.0346667 113.76,17.816 C113.941333,17.5973333 114.234667,17.488 114.64,17.488 C115.045333,17.488 115.341333,17.5973333 115.528,17.816 C115.714667,18.0346667 115.829333,18.3333333 115.872,18.712 C115.914667,19.0906667 115.936,19.5306667 115.936,20.032 L115.936,20.032 L115.936,22.72 C115.936,23.2106667 115.914667,23.6506667 115.872,24.04 C115.829333,24.4293333 115.714667,24.7306667 115.528,24.944 C115.341333,25.1573333 115.045333,25.264 114.64,25.264 Z M121.304,26 L123.24,16.752 L122.104,16.752 L120.616,24.656 L119.112,16.752 L117.928,16.752 L119.928,26 L121.304,26 Z M126.192,25.152 C125.914667,25.152 125.669333,25.048 125.456,24.84 C125.242667,24.632 125.136,24.2826667 125.136,23.792 C125.136,23.4826667 125.184,23.2133333 125.28,22.984 C125.376,22.7546667 125.525333,22.5493333 125.728,22.368 C125.930667,22.1866667 126.194667,22 126.52,21.808 C126.845333,21.616 127.237333,21.4026667 127.696,21.168 L127.696,21.168 L127.696,24.048 C127.610667,24.2186667 127.493333,24.3866667 127.344,24.552 C127.194667,24.7173333 127.024,24.8586667 126.832,24.976 C126.64,25.0933333 126.426667,25.152 126.192,25.152 Z M127.728,24.721 L127.739,24.8415 C127.753,24.9725 127.776,25.132 127.808,25.32 C127.850667,25.5706667 127.882667,25.7973333 127.904,26 L127.904,26 L128.944,26 C128.933333,25.8826667 128.922667,25.712 128.912,25.488 C128.901333,25.264 128.890667,25.0266667 128.88,24.776 C128.869333,24.5253333 128.864,24.32 128.864,24.16 L128.864,24.16 L128.864,19.664 C128.864,18.6186667 128.696,17.848 128.36,17.352 C128.024,16.856 127.44,16.608 126.608,16.608 C125.722667,16.608 125.085333,16.8346667 124.696,17.288 C124.306667,17.7413333 124.106667,18.4373333 124.096,19.376 L124.096,19.376 L125.248,19.392 L125.248,19.072 C125.248,18.6666667 125.306667,18.3493333 125.424,18.12 C125.541333,17.8906667 125.696,17.728 125.888,17.632 C126.08,17.536 126.298667,17.488 126.544,17.488 C126.842667,17.488 127.074667,17.5573333 127.24,17.696 C127.405333,17.8346667 127.522667,18.0666667 127.592,18.392 C127.661333,18.7173333 127.696,19.1626667 127.696,19.728 L127.696,19.728 L127.696,20.384 C127.013333,20.6933333 126.434667,20.9733333 125.96,21.224 C125.485333,21.4746667 125.101333,21.7306667 124.808,21.992 C124.514667,22.2533333 124.301333,22.5493333 124.168,22.88 C124.034667,23.2106667 123.968,23.6106667 123.968,24.08 C123.968,24.4533333 124.045333,24.7973333 124.2,25.112 C124.354667,25.4266667 124.570667,25.6773333 124.848,25.864 C125.125333,26.0506667 125.450667,26.144 125.824,26.144 C126.314667,26.144 126.722667,26 127.048,25.712 C127.373333,25.424 127.6,25.0933333 127.728,24.72 L127.728,24.721 Z M132.68,26.144 C133.341333,26.144 133.842667,26.008 134.184,25.736 C134.525333,25.464 134.752,25.0906667 134.864,24.616 C134.976,24.1413333 135.032,23.5946667 135.032,22.976 L135.032,22.976 L135.032,22.528 L133.944,22.528 L133.944,23.04 C133.944,23.5306667 133.917333,23.9413333 133.864,24.272 C133.810667,24.6026667 133.693333,24.8506667 133.512,25.016 C133.330667,25.1813333 133.058667,25.264 132.696,25.264 C132.173333,25.264 131.821333,25.0746667 131.64,24.696 C131.458667,24.3173333 131.368,23.664 131.368,22.736 L131.368,22.736 L131.368,20.144 C131.368,19.4933333 131.4,18.9733333 131.464,18.584 C131.528,18.1946667 131.656,17.9146667 131.848,17.744 C132.04,17.5733333 132.317333,17.488 132.68,17.488 C132.989333,17.488 133.237333,17.5493333 133.424,17.672 C133.610667,17.7946667 133.744,18.0053333 133.824,18.304 C133.904,18.6026667 133.944,19.024 133.944,19.568 L133.944,19.568 L133.944,20.016 L135.032,20.016 L135.032,19.568 C135.032,18.9813333 134.973333,18.464 134.856,18.016 C134.738667,17.568 134.509333,17.2213333 134.168,16.976 C133.826667,16.7306667 133.330667,16.608 132.68,16.608 C132.018667,16.608 131.509333,16.7413333 131.152,17.008 C130.794667,17.2746667 130.546667,17.6826667 130.408,18.232 C130.269333,18.7813333 130.2,19.4826667 130.2,20.336 L130.2,20.336 L130.2,22.496 C130.2,23.1893333 130.256,23.8106667 130.368,24.36 C130.48,24.9093333 130.712,25.344 131.064,25.664 C131.416,25.984 131.954667,26.144 132.68,26.144 Z M137.696,15.472 L137.696,13.888 L136.528,13.888 L136.528,15.472 L137.696,15.472 Z M137.696,26 L137.696,16.752 L136.528,16.752 L136.528,26 L137.696,26 Z M142.072,15.984 L143.64,12.848 L142.472,12.848 L141.464,15.984 L142.072,15.984 Z M141.752,26.144 C142.402667,26.144 142.904,26.008 143.256,25.736 C143.608,25.464 143.858667,25.0693333 144.008,24.552 C144.157333,24.0346667 144.232,23.4026667 144.232,22.656 L144.232,22.656 L144.232,20.096 C144.232,19.3493333 144.157333,18.7173333 144.008,18.2 C143.858667,17.6826667 143.608,17.288 143.256,17.016 C142.904,16.744 142.402667,16.608 141.752,16.608 C141.122667,16.608 140.629333,16.744 140.272,17.016 C139.914667,17.288 139.661333,17.6826667 139.512,18.2 C139.362667,18.7173333 139.288,19.3493333 139.288,20.096 L139.288,20.096 L139.288,22.656 C139.288,23.4026667 139.362667,24.0346667 139.512,24.552 C139.661333,25.0693333 139.914667,25.464 140.272,25.736 C140.629333,26.008 141.122667,26.144 141.752,26.144 Z M141.752,25.264 C141.346667,25.264 141.053333,25.1573333 140.872,24.944 C140.690667,24.7306667 140.578667,24.4293333 140.536,24.04 C140.493333,23.6506667 140.472,23.2106667 140.472,22.72 L140.472,22.72 L140.472,20.032 C140.472,19.5306667 140.493333,19.0906667 140.536,18.712 C140.578667,18.3333333 140.690667,18.0346667 140.872,17.816 C141.053333,17.5973333 141.346667,17.488 141.752,17.488 C142.157333,17.488 142.453333,17.5973333 142.64,17.816 C142.826667,18.0346667 142.941333,18.3333333 142.984,18.712 C143.026667,19.0906667 143.048,19.5306667 143.048,20.032 L143.048,20.032 L143.048,22.72 C143.048,23.2106667 143.026667,23.6506667 142.984,24.04 C142.941333,24.4293333 142.826667,24.7306667 142.64,24.944 C142.453333,25.1573333 142.157333,25.264 141.752,25.264 Z M146.816,26 L146.816,18.384 C147.061333,18.128 147.322667,17.92 147.6,17.76 C147.877333,17.6 148.149333,17.52 148.416,17.52 C148.714667,17.52 148.936,17.6186667 149.08,17.816 C149.224,18.0133333 149.296,18.352 149.296,18.832 L149.296,18.832 L149.296,26 L150.464,26 L150.464,18.576 C150.464,18.16 150.410667,17.8053333 150.304,17.512 C150.197333,17.2186667 150.037333,16.9946667 149.824,16.84 C149.610667,16.6853333 149.349333,16.608 149.04,16.608 C148.602667,16.608 148.197333,16.712 147.824,16.92 C147.450667,17.128 147.114667,17.392 146.816,17.712 L146.816,17.712 L146.816,16.752 L145.648,16.752 L145.648,26 L146.816,26 Z" id="Dise침oeinnovaci칩n" fill="#000000" fill-rule="nonzero"></path>
                <g id="Group-9-Copy-11" fill="#A4A49B">
                    <path d="M20.8250502,22.9899281 C19.8078814,22.9899281 19.7914283,23.6847375 19.7914283,27.3290439 C19.7914283,30.9048565 19.875522,31.6680378 20.8250502,31.6680378 C21.7738471,31.6680378 21.8586721,30.9048565 21.8586721,27.3290439 C21.8586721,23.6847375 21.842219,22.9899281 20.8250502,22.9899281" id="Fill-1"></path>
                    <path d="M25.1764876,11.529997 C24.1531031,11.529997 24.1692972,12.7051158 24.1692972,14.4007628 C24.1692972,16.5323566 24.3208032,17.4219223 25.1764876,17.4219223 C25.9825688,17.4219223 26.1340759,16.5323566 26.1340759,14.4007628 C26.1340759,12.7051158 26.150147,11.529997 25.1764876,11.529997" id="Fill-3"></path>
                    <path d="M13.3565133,17.4218857 C14.2128071,17.4218857 14.3644333,16.53232 14.3644333,14.4007262 C14.3644333,12.7050793 14.3800196,11.5299605 13.3565133,11.5299605 C12.3833414,11.5299605 12.399777,12.7050793 12.399777,14.4007262 C12.399777,16.53232 12.5507977,17.4218857 13.3565133,17.4218857" id="Fill-5"></path>
                    <path d="M29.7539543,20.6913289 L35.1675201,20.6913289 L35.1675201,19.8553883 L29.7539543,19.8553883 L29.7539543,20.6913289 Z M28.5007136,18.7153695 L26.2502917,18.7153695 L26.2502917,17.7751038 L26.2181167,17.7751038 C25.7811948,18.596907 25.1266041,18.8829476 24.2196103,18.8829476 C21.7688259,18.8829476 21.8526759,16.1635506 21.8526759,14.4170818 C21.8526759,12.7051036 21.7858884,10.0690692 24.1693978,10.0690692 C25.025326,10.0690692 25.6131291,10.3211067 26.0998979,11.0433379 L26.1341448,11.0433379 L26.1341448,6.59368151 L28.5007136,6.59368151 L28.5007136,18.7153695 Z M20.8250258,33.3966763 C17.6383601,33.3966763 17.4009476,31.0070731 17.4009476,27.295248 C17.4009476,22.7691759 17.909532,21.2606071 20.8250258,21.2606071 C23.7405197,21.2606071 24.2491041,22.7691759 24.2491041,27.295248 C24.2491041,31.0070731 24.0116916,33.3966763 20.8250258,33.3966763 L20.8250258,33.3966763 Z M16.9144225,33.2440888 L9.89722539,33.2440888 L9.89722539,31.1595387 C13.6256255,26.1932542 14.4053818,25.6169073 14.4053818,24.1422197 C14.4053818,23.5488103 14.1852756,22.9898915 13.5076505,22.9898915 C12.524363,22.9898915 12.4732974,23.9222353 12.4732974,24.6846854 L10.0835723,24.6846854 C9.91392227,22.4813071 11.1510754,21.2606071 13.3380005,21.2606071 C15.3887912,21.2606071 16.7958382,22.091429 16.7958382,24.3121135 C16.7958382,26.9728886 13.6939974,29.9899043 12.4056567,31.4135262 L16.9144225,31.4135262 L16.9144225,33.2440888 Z M10.0326285,6.59368151 L12.3998067,6.59368151 L12.3998067,11.0433379 L12.4338099,11.0433379 C12.9205786,10.3211067 13.5083818,10.0690692 14.3643099,10.0690692 C16.7479413,10.0690692 16.6810319,12.7051036 16.6810319,14.4170818 C16.6810319,16.1635506 16.7645163,18.8829476 14.3140974,18.8829476 C13.4071037,18.8829476 12.7521474,18.596907 12.3162005,17.7751038 L12.2821974,17.7751038 L12.2821974,18.7153695 L10.0326285,18.7153695 L10.0326285,6.59368151 Z M18.091857,18.7153695 L20.4586696,18.7153695 L20.4586696,10.2371348 L18.091857,10.2371348 L18.091857,18.7153695 Z M18.091857,8.45739409 L20.4586696,8.45739409 L20.4586696,6.59368151 L18.091857,6.59368151 L18.091857,8.45739409 Z M19.3699601,0.0164531257 C8.67152847,0.0164531257 0,8.68920035 0,19.3848289 C0,30.0841137 8.67152847,38.7562515 19.3699601,38.7562515 C30.0670512,38.7562515 38.7400422,30.0841137 38.7400422,19.3848289 C38.7400422,8.68920035 30.0670512,0.0164531257 19.3699601,0.0164531257 L19.3699601,0.0164531257 Z" id="Fill-7"></path>
                </g>
            </g>
            <line x1="47.55" y1="0.5" x2="222.340882" y2="0.5" id="Path-5-Copy-19" stroke="#000000" stroke-width="0.5"></line>
        </g>
    </g>
</svg>