<?xml version="1.0" encoding="UTF-8"?>
<svg width="223px" height="41px" viewBox="0 0 223 41" version="1.1" xmlns="http://www.w3.org/2000/svg" xmlns:xlink="http://www.w3.org/1999/xlink">
    <title>emprendimiento</title>
    <g id="Page-1" stroke="none" stroke-width="1" fill="none" fill-rule="evenodd">
        <g id="emprendimiento" transform="translate(-0.000000, 0.000000)">
            <g transform="translate(0.000000, 2.000000)">
                <path d="M51.9116,26.248999 C52.7432,26.248999 53.3951333,26.0898657 53.8674,25.771599 C54.3396667,25.4533323 54.6784667,25.0041657 54.8838,24.424099 C55.0891333,23.8440323 55.1918,23.168999 55.1918,22.398999 L55.1918,22.398999 L55.1918,17.440199 C55.1918,16.7112657 55.0891333,16.069599 54.8838,15.515199 C54.6784667,14.960799 54.3319667,14.5321657 53.8443,14.229299 C53.3566333,13.9264323 52.6764667,13.774999 51.8038,13.774999 L51.8038,13.774999 L49.0934,13.774999 L49.0934,26.248999 L51.9116,26.248999 Z M51.8346,25.371199 L50.2638,25.371199 L50.2638,14.683599 L51.7884,14.683599 C52.4146667,14.683599 52.8843667,14.7939657 53.1975,15.014699 C53.5106333,15.2354323 53.7211,15.5588323 53.8289,15.984899 C53.9367,16.4109657 53.9906,16.9371323 53.9906,17.563399 L53.9906,17.563399 L53.9906,22.214199 C53.9906,22.8199323 53.9495333,23.361499 53.8674,23.838899 C53.7852667,24.316299 53.5902,24.6910323 53.2822,24.963099 C52.9742,25.2351657 52.4916667,25.371199 51.8346,25.371199 L51.8346,25.371199 Z M58.1332,16.115799 L58.1332,14.591199 L57.009,14.591199 L57.009,16.115799 L58.1332,16.115799 Z M58.1332,26.248999 L58.1332,17.347799 L57.009,17.347799 L57.009,26.248999 L58.1332,26.248999 Z M62.0602,26.387599 C62.5222,26.387599 62.9226,26.302899 63.2614,26.133499 C63.6002,25.964099 63.8645667,25.7228323 64.0545,25.409699 C64.2444333,25.0965657 64.3394,24.708999 64.3394,24.246999 C64.3394,23.8363323 64.2675333,23.4795657 64.1238,23.176699 C63.9800667,22.8738323 63.7952667,22.599199 63.5694,22.352799 C63.3435333,22.106399 63.1074,21.875399 62.861,21.659799 L62.861,21.659799 L61.5982,20.535599 C61.321,20.2789323 61.1310667,20.0479323 61.0284,19.842599 C60.9257333,19.6372657 60.8744,19.4011323 60.8744,19.134199 C60.8744,18.795399 60.9796333,18.5310323 61.1901,18.341099 C61.4005667,18.1511657 61.6752,18.056199 62.014,18.056199 C62.2706667,18.056199 62.4888333,18.117799 62.6685,18.240999 C62.8481667,18.364199 62.9893333,18.556699 63.092,18.818499 C63.1946667,19.080299 63.2562667,19.411399 63.2768,19.811799 L63.2768,19.811799 L64.0776,19.549999 C64.0468,18.8621323 63.8568667,18.3000323 63.5078,17.863699 C63.1587333,17.4273657 62.6454,17.209199 61.9678,17.209199 C61.5468667,17.209199 61.1772667,17.2887657 60.859,17.447899 C60.5407333,17.6070323 60.2917667,17.832899 60.1121,18.125499 C59.9324333,18.418099 59.8426,18.779999 59.8426,19.211199 C59.8426,19.6834657 59.9452667,20.088999 60.1506,20.427799 C60.3559333,20.766599 60.6588,21.105399 61.0592,21.444199 L61.0592,21.444199 L62.2758,22.491399 C62.6454,22.8096657 62.9174667,23.115099 63.092,23.407699 C63.2665333,23.700299 63.3538,23.9903323 63.3538,24.277799 C63.3538,24.678199 63.2485667,24.9887657 63.0381,25.209499 C62.8276333,25.4302323 62.5273333,25.540599 62.1372,25.540599 C61.6752,25.540599 61.3158667,25.3840323 61.0592,25.070899 C60.8025333,24.7577657 60.6434,24.2572657 60.5818,23.569399 L60.5818,23.569399 L59.6424,23.861999 C59.704,24.631999 59.9452667,25.2454323 60.3662,25.702299 C60.7871333,26.1591657 61.3518,26.387599 62.0602,26.387599 Z M67.8506,26.387599 C68.7232667,26.387599 69.3264333,26.1437657 69.6601,25.656099 C69.9937667,25.1684323 70.1606,24.5190657 70.1606,23.707999 L70.1606,23.707999 L70.1606,23.215199 L69.0672,23.215199 L69.0672,23.831199 C69.0672,24.293199 69.0133,24.6499657 68.9055,24.901499 C68.7977,25.1530323 68.6514,25.3224323 68.4666,25.409699 C68.2818,25.4969657 68.0764667,25.540599 67.8506,25.540599 C67.5528667,25.540599 67.3090333,25.4687323 67.1191,25.324999 C66.9291667,25.1812657 66.7905667,24.9425657 66.7033,24.608899 C66.6160333,24.2752323 66.5724,23.8209323 66.5724,23.245999 L66.5724,23.245999 L66.5724,21.690599 L70.176,21.690599 L70.176,20.889799 C70.176,20.0479323 70.1118333,19.357499 69.9835,18.818499 C69.8551667,18.279499 69.6267333,17.8765323 69.2982,17.609599 C68.9696667,17.3426657 68.4922667,17.209199 67.866,17.209199 C67.3218667,17.209199 66.8701333,17.3144323 66.5108,17.524899 C66.1514667,17.7353657 65.8845333,18.0895657 65.71,18.587499 C65.5354667,19.0854323 65.4482,19.7758657 65.4482,20.658799 L65.4482,20.658799 L65.4482,22.907199 C65.4482,23.7593323 65.5329,24.4420657 65.7023,24.955399 C65.8717,25.4687323 66.1335,25.8357657 66.4877,26.056499 C66.8419,26.2772323 67.2962,26.387599 67.8506,26.387599 Z M69.0672,21.043799 L66.5724,21.043799 L66.5724,20.443199 C66.5724,19.8066657 66.6134667,19.3164323 66.6956,18.972499 C66.7777333,18.6285657 66.9137667,18.3898657 67.1037,18.256399 C67.2936333,18.1229323 67.5426,18.056199 67.8506,18.056199 C68.2202,18.056199 68.4897,18.1460323 68.6591,18.325699 C68.8285,18.5053657 68.9388667,18.7620323 68.9902,19.095699 C69.0415333,19.4293657 69.0672,19.8323323 69.0672,20.304599 L69.0672,20.304599 L69.0672,21.043799 Z M74.9346,15.592199 C75.2426,15.592199 75.4736,15.5126323 75.6276,15.353499 C75.7816,15.1943657 75.8817,15.0044323 75.9279,14.783699 C75.9741,14.5629657 75.9972,14.360199 75.9972,14.175399 L75.9972,14.175399 L75.3196,14.175399 C75.3196,14.421799 75.2785333,14.5937657 75.1964,14.691299 C75.1142667,14.7888323 74.9859333,14.837599 74.8114,14.837599 C74.6266,14.837599 74.4469333,14.775999 74.2724,14.652799 C74.0978667,14.529599 73.9130667,14.4089657 73.718,14.290899 C73.5229333,14.1728323 73.3022,14.113799 73.0558,14.113799 C72.7683333,14.113799 72.5476,14.190799 72.3936,14.344799 C72.2396,14.498799 72.1343667,14.6810323 72.0779,14.891499 C72.0214333,15.1019657 71.9932,15.2944657 71.9932,15.468999 L71.9932,15.468999 L72.6862,15.468999 C72.6862,15.2636657 72.7298333,15.1096657 72.8171,15.006999 C72.9043667,14.9043323 73.0301333,14.852999 73.1944,14.852999 C73.3792,14.852999 73.5563,14.914599 73.7257,15.037799 C73.8951,15.160999 74.0773333,15.284199 74.2724,15.407399 C74.4674667,15.530599 74.6882,15.592199 74.9346,15.592199 Z M72.8248,26.248999 L72.8248,18.918599 C73.0609333,18.672199 73.3124667,18.471999 73.5794,18.317999 C73.8463333,18.163999 74.1081333,18.086999 74.3648,18.086999 C74.6522667,18.086999 74.8653,18.1819657 75.0039,18.371899 C75.1425,18.5618323 75.2118,18.887799 75.2118,19.349799 L75.2118,19.349799 L75.2118,26.248999 L76.336,26.248999 L76.336,19.103399 C76.336,18.702999 76.2846667,18.3616323 76.182,18.079299 C76.0793333,17.7969657 75.9253333,17.5813657 75.72,17.432499 C75.5146667,17.2836323 75.2631333,17.209199 74.9654,17.209199 C74.5444667,17.209199 74.1543333,17.309299 73.795,17.509499 C73.4356667,17.709699 73.1122667,17.963799 72.8248,18.271799 L72.8248,18.271799 L72.8248,17.347799 L71.7006,17.347799 L71.7006,26.248999 L72.8248,26.248999 Z M80.2014,26.387599 C80.8276667,26.387599 81.3102,26.256699 81.649,25.994899 C81.9878,25.733099 82.2290667,25.3532323 82.3728,24.855299 C82.5165333,24.3573657 82.5884,23.7490657 82.5884,23.030399 L82.5884,23.030399 L82.5884,20.566399 C82.5884,19.8477323 82.5165333,19.2394323 82.3728,18.741499 C82.2290667,18.2435657 81.9878,17.863699 81.649,17.601899 C81.3102,17.340099 80.8276667,17.209199 80.2014,17.209199 C79.5956667,17.209199 79.1208333,17.340099 78.7769,17.601899 C78.4329667,17.863699 78.1891333,18.2435657 78.0454,18.741499 C77.9016667,19.2394323 77.8298,19.8477323 77.8298,20.566399 L77.8298,20.566399 L77.8298,23.030399 C77.8298,23.7490657 77.9016667,24.3573657 78.0454,24.855299 C78.1891333,25.3532323 78.4329667,25.733099 78.7769,25.994899 C79.1208333,26.256699 79.5956667,26.387599 80.2014,26.387599 Z M80.2014,25.540599 C79.8112667,25.540599 79.5289333,25.4379323 79.3544,25.232599 C79.1798667,25.0272657 79.0720667,24.7372323 79.031,24.362499 C78.9899333,23.9877657 78.9694,23.5642657 78.9694,23.091999 L78.9694,23.091999 L78.9694,20.504799 C78.9694,20.0222657 78.9899333,19.5987657 79.031,19.234299 C79.0720667,18.8698323 79.1798667,18.5823657 79.3544,18.371899 C79.5289333,18.1614323 79.8112667,18.056199 80.2014,18.056199 C80.5915333,18.056199 80.8764333,18.1614323 81.0561,18.371899 C81.2357667,18.5823657 81.3461333,18.8698323 81.3872,19.234299 C81.4282667,19.5987657 81.4488,20.0222657 81.4488,20.504799 L81.4488,20.504799 L81.4488,23.091999 C81.4488,23.5642657 81.4282667,23.9877657 81.3872,24.362499 C81.3461333,24.7372323 81.2357667,25.0272657 81.0561,25.232599 C80.8764333,25.4379323 80.5915333,25.540599 80.2014,25.540599 Z M87.3316,28.466599 C87.8346667,28.466599 88.2581667,28.412699 88.6021,28.304899 C88.9460333,28.197099 89.2232333,28.027699 89.4337,27.796699 C89.6441667,27.565699 89.7904667,27.2602657 89.8726,26.880399 L89.8726,26.880399 L92.0286,17.347799 L90.889,17.347799 L89.3952,24.924599 L87.8552,17.347799 L86.731,17.347799 L88.5636,25.186399 C88.6354667,25.4738657 88.7022,25.7510657 88.7638,26.017999 C88.8254,26.2849323 88.8562,26.5005323 88.8562,26.664799 C88.8562,26.849599 88.8125667,27.011299 88.7253,27.149899 C88.6380333,27.288499 88.4635,27.396299 88.2017,27.473299 C87.9399,27.550299 87.5523333,27.588799 87.039,27.588799 L87.039,27.588799 L87.039,28.466599 L87.3316,28.466599 Z M101.053,26.248999 L101.053,25.371199 L97.6958,25.371199 L97.6958,20.227599 L100.4062,20.227599 L100.4062,19.365199 L97.6958,19.365199 L97.6958,14.683599 L101.0222,14.683599 L101.0222,13.774999 L96.51,13.774999 L96.51,26.248999 L101.053,26.248999 Z M103.4708,26.248999 L103.4708,18.872399 C103.727467,18.595199 103.999533,18.3744657 104.287,18.210199 C104.574467,18.0459323 104.8568,17.963799 105.134,17.963799 C105.390667,17.963799 105.6037,18.048499 105.7731,18.217899 C105.9425,18.387299 106.0272,18.733799 106.0272,19.257399 L106.0272,19.257399 L106.0272,26.248999 L107.0898,26.248999 L107.0898,19.226599 C107.0898,19.164999 107.087233,19.1059657 107.0821,19.049499 C107.076967,18.9930323 107.069267,18.9391323 107.059,18.887799 C107.315667,18.6003323 107.587733,18.3744657 107.8752,18.210199 C108.162667,18.0459323 108.450133,17.963799 108.7376,17.963799 C108.994267,17.963799 109.2073,18.048499 109.3767,18.217899 C109.5461,18.387299 109.6308,18.733799 109.6308,19.257399 L109.6308,19.257399 L109.6308,26.248999 L110.678,26.248999 L110.678,19.226599 C110.678,18.7132657 110.606133,18.3077323 110.4624,18.009999 C110.318667,17.7122657 110.1313,17.501799 109.9003,17.378599 C109.6693,17.255399 109.425467,17.193799 109.1688,17.193799 C108.758133,17.193799 108.368,17.2913323 107.9984,17.486399 C107.6288,17.6814657 107.29,17.9689323 106.982,18.348799 C106.869067,17.9073323 106.6817,17.6044657 106.4199,17.440199 C106.1581,17.2759323 105.8732,17.193799 105.5652,17.193799 C105.185333,17.193799 104.815733,17.2836323 104.4564,17.463299 C104.097067,17.6429657 103.768533,17.9073323 103.4708,18.256399 L103.4708,18.256399 L103.4708,17.347799 L102.4236,17.347799 L102.4236,26.248999 L103.4708,26.248999 Z M113.4654,29.174999 L113.4654,25.540599 C113.639933,25.7356657 113.8581,25.925599 114.1199,26.110399 C114.3817,26.295199 114.692267,26.387599 115.0516,26.387599 C115.606,26.387599 116.039767,26.2310323 116.3529,25.917899 C116.666033,25.6047657 116.8842,25.1684323 117.0074,24.608899 C117.1306,24.0493657 117.1922,23.3897323 117.1922,22.629999 L117.1922,22.629999 L117.1922,20.751199 C117.1922,20.3097323 117.166533,19.8785323 117.1152,19.457599 C117.063867,19.0366657 116.966333,18.656799 116.8226,18.317999 C116.678867,17.979199 116.4761,17.709699 116.2143,17.509499 C115.9525,17.309299 115.606,17.209199 115.1748,17.209199 C114.7744,17.209199 114.4356,17.2990323 114.1584,17.478699 C113.8812,17.6583657 113.6502,17.8611323 113.4654,18.086999 L113.4654,18.086999 L113.4654,17.347799 L112.3412,17.347799 L112.3412,29.174999 L113.4654,29.174999 Z M114.8822,25.494399 C114.584467,25.494399 114.314967,25.4302323 114.0737,25.301899 C113.832433,25.1735657 113.629667,25.0221323 113.4654,24.847599 L113.4654,24.847599 L113.4654,18.779999 C113.6194,18.625999 113.817033,18.471999 114.0583,18.317999 C114.299567,18.163999 114.563933,18.086999 114.8514,18.086999 C115.200467,18.086999 115.462267,18.1896657 115.6368,18.394999 C115.811333,18.6003323 115.926833,18.9006323 115.9833,19.295899 C116.039767,19.6911657 116.068,20.1762657 116.068,20.751199 L116.068,20.751199 L116.068,22.660799 C116.068,23.2665323 116.039767,23.7824323 115.9833,24.208499 C115.926833,24.6345657 115.8139,24.955399 115.6445,25.170999 C115.4751,25.386599 115.221,25.494399 114.8822,25.494399 Z M119.9796,26.248999 L119.9796,19.411399 C120.1952,19.0520657 120.444167,18.7902657 120.7265,18.625999 C121.008833,18.4617323 121.324533,18.379599 121.6736,18.379599 C121.766,18.379599 121.863533,18.387299 121.9662,18.402699 C122.068867,18.418099 122.156133,18.441199 122.228,18.471999 L122.228,18.471999 L122.228,17.270799 C122.186933,17.2605323 122.151,17.255399 122.1202,17.255399 L122.1202,17.255399 L122.0278,17.255399 C121.689,17.255399 121.3348,17.355499 120.9652,17.555699 C120.5956,17.755899 120.267067,18.0921323 119.9796,18.564399 L119.9796,18.564399 L119.9796,17.347799 L118.84,17.347799 L118.84,26.248999 L119.9796,26.248999 Z M125.539,26.387599 C126.411667,26.387599 127.014833,26.1437657 127.3485,25.656099 C127.682167,25.1684323 127.849,24.5190657 127.849,23.707999 L127.849,23.707999 L127.849,23.215199 L126.7556,23.215199 L126.7556,23.831199 C126.7556,24.293199 126.7017,24.6499657 126.5939,24.901499 C126.4861,25.1530323 126.3398,25.3224323 126.155,25.409699 C125.9702,25.4969657 125.764867,25.540599 125.539,25.540599 C125.241267,25.540599 124.997433,25.4687323 124.8075,25.324999 C124.617567,25.1812657 124.478967,24.9425657 124.3917,24.608899 C124.304433,24.2752323 124.2608,23.8209323 124.2608,23.245999 L124.2608,23.245999 L124.2608,21.690599 L127.8644,21.690599 L127.8644,20.889799 C127.8644,20.0479323 127.800233,19.357499 127.6719,18.818499 C127.543567,18.279499 127.315133,17.8765323 126.9866,17.609599 C126.658067,17.3426657 126.180667,17.209199 125.5544,17.209199 C125.010267,17.209199 124.558533,17.3144323 124.1992,17.524899 C123.839867,17.7353657 123.572933,18.0895657 123.3984,18.587499 C123.223867,19.0854323 123.1366,19.7758657 123.1366,20.658799 L123.1366,20.658799 L123.1366,22.907199 C123.1366,23.7593323 123.2213,24.4420657 123.3907,24.955399 C123.5601,25.4687323 123.8219,25.8357657 124.1761,26.056499 C124.5303,26.2772323 124.9846,26.387599 125.539,26.387599 Z M126.7556,21.043799 L124.2608,21.043799 L124.2608,20.443199 C124.2608,19.8066657 124.301867,19.3164323 124.384,18.972499 C124.466133,18.6285657 124.602167,18.3898657 124.7921,18.256399 C124.982033,18.1229323 125.231,18.056199 125.539,18.056199 C125.9086,18.056199 126.1781,18.1460323 126.3475,18.325699 C126.5169,18.5053657 126.627267,18.7620323 126.6786,19.095699 C126.729933,19.4293657 126.7556,19.8323323 126.7556,20.304599 L126.7556,20.304599 L126.7556,21.043799 Z M130.5132,26.248999 L130.5132,18.918599 C130.749333,18.672199 131.000867,18.471999 131.2678,18.317999 C131.534733,18.163999 131.796533,18.086999 132.0532,18.086999 C132.340667,18.086999 132.5537,18.1819657 132.6923,18.371899 C132.8309,18.5618323 132.9002,18.887799 132.9002,19.349799 L132.9002,19.349799 L132.9002,26.248999 L134.0244,26.248999 L134.0244,19.103399 C134.0244,18.702999 133.973067,18.3616323 133.8704,18.079299 C133.767733,17.7969657 133.613733,17.5813657 133.4084,17.432499 C133.203067,17.2836323 132.951533,17.209199 132.6538,17.209199 C132.232867,17.209199 131.842733,17.309299 131.4834,17.509499 C131.124067,17.709699 130.800667,17.963799 130.5132,18.271799 L130.5132,18.271799 L130.5132,17.347799 L129.389,17.347799 L129.389,26.248999 L130.5132,26.248999 Z M137.6588,26.387599 C137.9976,26.387599 138.292767,26.3080323 138.5443,26.148899 C138.795833,25.9897657 139.008867,25.8126657 139.1834,25.617599 L139.1834,25.617599 L139.1834,26.248999 L140.3076,26.248999 L140.3076,13.774999 L139.1834,13.774999 L139.1834,17.979199 C139.008867,17.7841323 138.7907,17.6070323 138.5289,17.447899 C138.2671,17.2887657 137.961667,17.209199 137.6126,17.209199 C137.047933,17.209199 136.614167,17.3657657 136.3113,17.678899 C136.008433,17.9920323 135.800533,18.4309323 135.6876,18.995599 C135.574667,19.5602657 135.5182,20.2327323 135.5182,21.012999 L135.5182,21.012999 L135.5182,22.660799 C135.5182,23.9954657 135.685033,24.9502657 136.0187,25.525199 C136.352367,26.1001323 136.899067,26.387599 137.6588,26.387599 Z M137.8898,25.494399 C137.551,25.494399 137.291767,25.3917323 137.1121,25.186399 C136.932433,24.9810657 136.809233,24.6730657 136.7425,24.262399 C136.675767,23.8517323 136.6424,23.3486657 136.6424,22.753199 L136.6424,22.753199 L136.6424,20.643399 C136.6424,19.811799 136.721967,19.1778323 136.8811,18.741499 C137.040233,18.3051657 137.3662,18.086999 137.859,18.086999 C138.1362,18.086999 138.387733,18.156299 138.6136,18.294899 C138.839467,18.433499 139.0294,18.5746657 139.1834,18.718399 L139.1834,18.718399 L139.1834,24.909199 C139.008867,25.0734657 138.811233,25.2120657 138.5905,25.324999 C138.369767,25.4379323 138.1362,25.494399 137.8898,25.494399 Z M143.2952,16.115799 L143.2952,14.591199 L142.171,14.591199 L142.171,16.115799 L143.2952,16.115799 Z M143.2952,26.248999 L143.2952,17.347799 L142.171,17.347799 L142.171,26.248999 L143.2952,26.248999 Z M146.2366,26.248999 L146.2366,18.872399 C146.493267,18.595199 146.765333,18.3744657 147.0528,18.210199 C147.340267,18.0459323 147.6226,17.963799 147.8998,17.963799 C148.156467,17.963799 148.3695,18.048499 148.5389,18.217899 C148.7083,18.387299 148.793,18.733799 148.793,19.257399 L148.793,19.257399 L148.793,26.248999 L149.8556,26.248999 L149.8556,19.226599 C149.8556,19.164999 149.853033,19.1059657 149.8479,19.049499 C149.842767,18.9930323 149.835067,18.9391323 149.8248,18.887799 C150.081467,18.6003323 150.353533,18.3744657 150.641,18.210199 C150.928467,18.0459323 151.215933,17.963799 151.5034,17.963799 C151.760067,17.963799 151.9731,18.048499 152.1425,18.217899 C152.3119,18.387299 152.3966,18.733799 152.3966,19.257399 L152.3966,19.257399 L152.3966,26.248999 L153.4438,26.248999 L153.4438,19.226599 C153.4438,18.7132657 153.371933,18.3077323 153.2282,18.009999 C153.084467,17.7122657 152.8971,17.501799 152.6661,17.378599 C152.4351,17.255399 152.191267,17.193799 151.9346,17.193799 C151.523933,17.193799 151.1338,17.2913323 150.7642,17.486399 C150.3946,17.6814657 150.0558,17.9689323 149.7478,18.348799 C149.634867,17.9073323 149.4475,17.6044657 149.1857,17.440199 C148.9239,17.2759323 148.639,17.193799 148.331,17.193799 C147.951133,17.193799 147.581533,17.2836323 147.2222,17.463299 C146.862867,17.6429657 146.534333,17.9073323 146.2366,18.256399 L146.2366,18.256399 L146.2366,17.347799 L145.1894,17.347799 L145.1894,26.248999 L146.2366,26.248999 Z M156.3544,16.115799 L156.3544,14.591199 L155.2302,14.591199 L155.2302,16.115799 L156.3544,16.115799 Z M156.3544,26.248999 L156.3544,17.347799 L155.2302,17.347799 L155.2302,26.248999 L156.3544,26.248999 Z M160.4816,26.387599 C161.354267,26.387599 161.957433,26.1437657 162.2911,25.656099 C162.624767,25.1684323 162.7916,24.5190657 162.7916,23.707999 L162.7916,23.707999 L162.7916,23.215199 L161.6982,23.215199 L161.6982,23.831199 C161.6982,24.293199 161.6443,24.6499657 161.5365,24.901499 C161.4287,25.1530323 161.2824,25.3224323 161.0976,25.409699 C160.9128,25.4969657 160.707467,25.540599 160.4816,25.540599 C160.183867,25.540599 159.940033,25.4687323 159.7501,25.324999 C159.560167,25.1812657 159.421567,24.9425657 159.3343,24.608899 C159.247033,24.2752323 159.2034,23.8209323 159.2034,23.245999 L159.2034,23.245999 L159.2034,21.690599 L162.807,21.690599 L162.807,20.889799 C162.807,20.0479323 162.742833,19.357499 162.6145,18.818499 C162.486167,18.279499 162.257733,17.8765323 161.9292,17.609599 C161.600667,17.3426657 161.123267,17.209199 160.497,17.209199 C159.952867,17.209199 159.501133,17.3144323 159.1418,17.524899 C158.782467,17.7353657 158.515533,18.0895657 158.341,18.587499 C158.166467,19.0854323 158.0792,19.7758657 158.0792,20.658799 L158.0792,20.658799 L158.0792,22.907199 C158.0792,23.7593323 158.1639,24.4420657 158.3333,24.955399 C158.5027,25.4687323 158.7645,25.8357657 159.1187,26.056499 C159.4729,26.2772323 159.9272,26.387599 160.4816,26.387599 Z M161.6982,21.043799 L159.2034,21.043799 L159.2034,20.443199 C159.2034,19.8066657 159.244467,19.3164323 159.3266,18.972499 C159.408733,18.6285657 159.544767,18.3898657 159.7347,18.256399 C159.924633,18.1229323 160.1736,18.056199 160.4816,18.056199 C160.8512,18.056199 161.1207,18.1460323 161.2901,18.325699 C161.4595,18.5053657 161.569867,18.7620323 161.6212,19.095699 C161.672533,19.4293657 161.6982,19.8323323 161.6982,20.304599 L161.6982,20.304599 L161.6982,21.043799 Z M165.4558,26.248999 L165.4558,18.918599 C165.691933,18.672199 165.943467,18.471999 166.2104,18.317999 C166.477333,18.163999 166.739133,18.086999 166.9958,18.086999 C167.283267,18.086999 167.4963,18.1819657 167.6349,18.371899 C167.7735,18.5618323 167.8428,18.887799 167.8428,19.349799 L167.8428,19.349799 L167.8428,26.248999 L168.967,26.248999 L168.967,19.103399 C168.967,18.702999 168.915667,18.3616323 168.813,18.079299 C168.710333,17.7969657 168.556333,17.5813657 168.351,17.432499 C168.145667,17.2836323 167.894133,17.209199 167.5964,17.209199 C167.175467,17.209199 166.785333,17.309299 166.426,17.509499 C166.066667,17.709699 165.743267,17.963799 165.4558,18.271799 L165.4558,18.271799 L165.4558,17.347799 L164.3316,17.347799 L164.3316,26.248999 L165.4558,26.248999 Z M172.74,26.356799 C172.894,26.356799 173.053133,26.349099 173.2174,26.333699 C173.381667,26.318299 173.5408,26.295199 173.6948,26.264399 L173.6948,26.264399 L173.6948,25.401999 C173.592133,25.4225323 173.481767,25.440499 173.3637,25.455899 C173.245633,25.471299 173.1404,25.478999 173.048,25.478999 C172.719467,25.478999 172.506433,25.3891657 172.4089,25.209499 C172.311367,25.0298323 172.2626,24.724399 172.2626,24.293199 L172.2626,24.293199 L172.2626,18.086999 L173.741,18.086999 L173.741,17.347799 L172.2626,17.347799 L172.2626,14.591199 L171.1384,14.591199 L171.1384,17.347799 L170.045,17.347799 L170.045,18.086999 L171.1384,18.086999 L171.1384,24.400999 C171.1384,24.7808657 171.182033,25.117099 171.2693,25.409699 C171.356567,25.702299 171.5157,25.933299 171.7467,26.102699 C171.9777,26.272099 172.3088,26.356799 172.74,26.356799 Z M177.1444,26.387599 C177.770667,26.387599 178.2532,26.256699 178.592,25.994899 C178.9308,25.733099 179.172067,25.3532323 179.3158,24.855299 C179.459533,24.3573657 179.5314,23.7490657 179.5314,23.030399 L179.5314,23.030399 L179.5314,20.566399 C179.5314,19.8477323 179.459533,19.2394323 179.3158,18.741499 C179.172067,18.2435657 178.9308,17.863699 178.592,17.601899 C178.2532,17.340099 177.770667,17.209199 177.1444,17.209199 C176.538667,17.209199 176.063833,17.340099 175.7199,17.601899 C175.375967,17.863699 175.132133,18.2435657 174.9884,18.741499 C174.844667,19.2394323 174.7728,19.8477323 174.7728,20.566399 L174.7728,20.566399 L174.7728,23.030399 C174.7728,23.7490657 174.844667,24.3573657 174.9884,24.855299 C175.132133,25.3532323 175.375967,25.733099 175.7199,25.994899 C176.063833,26.256699 176.538667,26.387599 177.1444,26.387599 Z M177.1444,25.540599 C176.754267,25.540599 176.471933,25.4379323 176.2974,25.232599 C176.122867,25.0272657 176.015067,24.7372323 175.974,24.362499 C175.932933,23.9877657 175.9124,23.5642657 175.9124,23.091999 L175.9124,23.091999 L175.9124,20.504799 C175.9124,20.0222657 175.932933,19.5987657 175.974,19.234299 C176.015067,18.8698323 176.122867,18.5823657 176.2974,18.371899 C176.471933,18.1614323 176.754267,18.056199 177.1444,18.056199 C177.534533,18.056199 177.819433,18.1614323 177.9991,18.371899 C178.178767,18.5823657 178.289133,18.8698323 178.3302,19.234299 C178.371267,19.5987657 178.3918,20.0222657 178.3918,20.504799 L178.3918,20.504799 L178.3918,23.091999 C178.3918,23.5642657 178.371267,23.9877657 178.3302,24.362499 C178.289133,24.7372323 178.178767,25.0272657 177.9991,25.232599 C177.819433,25.4379323 177.534533,25.540599 177.1444,25.540599 Z" id="DiseñoyEmprendimiento" fill="#000000" fill-rule="nonzero"></path>
                <g id="Group-9-Copy-17" fill="#A4A49B">
                    <path d="M20.8250502,22.9899281 C19.8078814,22.9899281 19.7914283,23.6847375 19.7914283,27.3290439 C19.7914283,30.9048565 19.875522,31.6680378 20.8250502,31.6680378 C21.7738471,31.6680378 21.8586721,30.9048565 21.8586721,27.3290439 C21.8586721,23.6847375 21.842219,22.9899281 20.8250502,22.9899281" id="Fill-1"></path>
                    <path d="M25.1764876,11.529997 C24.1531031,11.529997 24.1692972,12.7051158 24.1692972,14.4007628 C24.1692972,16.5323566 24.3208032,17.4219223 25.1764876,17.4219223 C25.9825688,17.4219223 26.1340759,16.5323566 26.1340759,14.4007628 C26.1340759,12.7051158 26.150147,11.529997 25.1764876,11.529997" id="Fill-3"></path>
                    <path d="M13.3565133,17.4218857 C14.2128071,17.4218857 14.3644333,16.53232 14.3644333,14.4007262 C14.3644333,12.7050793 14.3800196,11.5299605 13.3565133,11.5299605 C12.3833414,11.5299605 12.399777,12.7050793 12.399777,14.4007262 C12.399777,16.53232 12.5507977,17.4218857 13.3565133,17.4218857" id="Fill-5"></path>
                    <path d="M29.7539543,20.6913289 L35.1675201,20.6913289 L35.1675201,19.8553883 L29.7539543,19.8553883 L29.7539543,20.6913289 Z M28.5007136,18.7153695 L26.2502917,18.7153695 L26.2502917,17.7751038 L26.2181167,17.7751038 C25.7811948,18.596907 25.1266041,18.8829476 24.2196103,18.8829476 C21.7688259,18.8829476 21.8526759,16.1635506 21.8526759,14.4170818 C21.8526759,12.7051036 21.7858884,10.0690692 24.1693978,10.0690692 C25.025326,10.0690692 25.6131291,10.3211067 26.0998979,11.0433379 L26.1341448,11.0433379 L26.1341448,6.59368151 L28.5007136,6.59368151 L28.5007136,18.7153695 Z M20.8250258,33.3966763 C17.6383601,33.3966763 17.4009476,31.0070731 17.4009476,27.295248 C17.4009476,22.7691759 17.909532,21.2606071 20.8250258,21.2606071 C23.7405197,21.2606071 24.2491041,22.7691759 24.2491041,27.295248 C24.2491041,31.0070731 24.0116916,33.3966763 20.8250258,33.3966763 L20.8250258,33.3966763 Z M16.9144225,33.2440888 L9.89722539,33.2440888 L9.89722539,31.1595387 C13.6256255,26.1932542 14.4053818,25.6169073 14.4053818,24.1422197 C14.4053818,23.5488103 14.1852756,22.9898915 13.5076505,22.9898915 C12.524363,22.9898915 12.4732974,23.9222353 12.4732974,24.6846854 L10.0835723,24.6846854 C9.91392227,22.4813071 11.1510754,21.2606071 13.3380005,21.2606071 C15.3887912,21.2606071 16.7958382,22.091429 16.7958382,24.3121135 C16.7958382,26.9728886 13.6939974,29.9899043 12.4056567,31.4135262 L16.9144225,31.4135262 L16.9144225,33.2440888 Z M10.0326285,6.59368151 L12.3998067,6.59368151 L12.3998067,11.0433379 L12.4338099,11.0433379 C12.9205786,10.3211067 13.5083818,10.0690692 14.3643099,10.0690692 C16.7479413,10.0690692 16.6810319,12.7051036 16.6810319,14.4170818 C16.6810319,16.1635506 16.7645163,18.8829476 14.3140974,18.8829476 C13.4071037,18.8829476 12.7521474,18.596907 12.3162005,17.7751038 L12.2821974,17.7751038 L12.2821974,18.7153695 L10.0326285,18.7153695 L10.0326285,6.59368151 Z M18.091857,18.7153695 L20.4586696,18.7153695 L20.4586696,10.2371348 L18.091857,10.2371348 L18.091857,18.7153695 Z M18.091857,8.45739409 L20.4586696,8.45739409 L20.4586696,6.59368151 L18.091857,6.59368151 L18.091857,8.45739409 Z M19.3699601,0.0164531257 C8.67152847,0.0164531257 0,8.68920035 0,19.3848289 C0,30.0841137 8.67152847,38.7562515 19.3699601,38.7562515 C30.0670512,38.7562515 38.7400422,30.0841137 38.7400422,19.3848289 C38.7400422,8.68920035 30.0670512,0.0164531257 19.3699601,0.0164531257 L19.3699601,0.0164531257 Z" id="Fill-7"></path>
                </g>
            </g>
            <line x1="47.55" y1="0.5" x2="222.340882" y2="0.5" id="Path-5-Copy-31" stroke="#000000" stroke-width="0.5"></line>
        </g>
    </g>
</svg>