<?xml version="1.0" encoding="UTF-8"?>
<svg width="223px" height="41px" viewBox="0 0 223 41" version="1.1" xmlns="http://www.w3.org/2000/svg" xmlns:xlink="http://www.w3.org/1999/xlink">
    <title>grafico</title>
    <g id="Page-1" stroke="none" stroke-width="1" fill="none" fill-rule="evenodd">
        <g id="grafico" transform="translate(-0.000000, 0.000000)">
            <g transform="translate(-0.000000, 2.000000)">
                <path d="M51.9116,18.2489991 C52.7432,18.2489991 53.3951333,18.0898658 53.8674,17.7715991 C54.3396667,17.4533325 54.6784667,17.0041658 54.8838,16.4240991 C55.0891333,15.8440325 55.1918,15.1689991 55.1918,14.3989991 L55.1918,14.3989991 L55.1918,9.44019912 C55.1918,8.71126579 55.0891333,8.06959912 54.8838,7.51519912 C54.6784667,6.96079912 54.3319667,6.53216579 53.8443,6.22929912 C53.3566333,5.92643245 52.6764667,5.77499912 51.8038,5.77499912 L51.8038,5.77499912 L49.0934,5.77499912 L49.0934,18.2489991 L51.9116,18.2489991 Z M51.8346,17.3711991 L50.2638,17.3711991 L50.2638,6.68359912 L51.7884,6.68359912 C52.4146667,6.68359912 52.8843667,6.79396579 53.1975,7.01469912 C53.5106333,7.23543245 53.7211,7.55883245 53.8289,7.98489912 C53.9367,8.41096579 53.9906,8.93713245 53.9906,9.56339912 L53.9906,9.56339912 L53.9906,14.2141991 C53.9906,14.8199325 53.9495333,15.3614991 53.8674,15.8388991 C53.7852667,16.3162991 53.5902,16.6910325 53.2822,16.9630991 C52.9742,17.2351658 52.4916667,17.3711991 51.8346,17.3711991 L51.8346,17.3711991 Z M58.1332,8.11579912 L58.1332,6.59119912 L57.009,6.59119912 L57.009,8.11579912 L58.1332,8.11579912 Z M58.1332,18.2489991 L58.1332,9.34779912 L57.009,9.34779912 L57.009,18.2489991 L58.1332,18.2489991 Z M62.0602,18.3875991 C62.5222,18.3875991 62.9226,18.3028991 63.2614,18.1334991 C63.6002,17.9640991 63.8645667,17.7228325 64.0545,17.4096991 C64.2444333,17.0965658 64.3394,16.7089991 64.3394,16.2469991 C64.3394,15.8363325 64.2675333,15.4795658 64.1238,15.1766991 C63.9800667,14.8738325 63.7952667,14.5991991 63.5694,14.3527991 C63.3435333,14.1063991 63.1074,13.8753991 62.861,13.6597991 L62.861,13.6597991 L61.5982,12.5355991 C61.321,12.2789325 61.1310667,12.0479325 61.0284,11.8425991 C60.9257333,11.6372658 60.8744,11.4011325 60.8744,11.1341991 C60.8744,10.7953991 60.9796333,10.5310325 61.1901,10.3410991 C61.4005667,10.1511658 61.6752,10.0561991 62.014,10.0561991 C62.2706667,10.0561991 62.4888333,10.1177991 62.6685,10.2409991 C62.8481667,10.3641991 62.9893333,10.5566991 63.092,10.8184991 C63.1946667,11.0802991 63.2562667,11.4113991 63.2768,11.8117991 L63.2768,11.8117991 L64.0776,11.5499991 C64.0468,10.8621325 63.8568667,10.3000325 63.5078,9.86369912 C63.1587333,9.42736579 62.6454,9.20919912 61.9678,9.20919912 C61.5468667,9.20919912 61.1772667,9.28876579 60.859,9.44789912 C60.5407333,9.60703245 60.2917667,9.83289912 60.1121,10.1254991 C59.9324333,10.4180991 59.8426,10.7799991 59.8426,11.2111991 C59.8426,11.6834658 59.9452667,12.0889991 60.1506,12.4277991 C60.3559333,12.7665991 60.6588,13.1053991 61.0592,13.4441991 L61.0592,13.4441991 L62.2758,14.4913991 C62.6454,14.8096658 62.9174667,15.1150991 63.092,15.4076991 C63.2665333,15.7002991 63.3538,15.9903325 63.3538,16.2777991 C63.3538,16.6781991 63.2485667,16.9887658 63.0381,17.2094991 C62.8276333,17.4302325 62.5273333,17.5405991 62.1372,17.5405991 C61.6752,17.5405991 61.3158667,17.3840325 61.0592,17.0708991 C60.8025333,16.7577658 60.6434,16.2572658 60.5818,15.5693991 L60.5818,15.5693991 L59.6424,15.8619991 C59.704,16.6319991 59.9452667,17.2454325 60.3662,17.7022991 C60.7871333,18.1591658 61.3518,18.3875991 62.0602,18.3875991 Z M67.8506,18.3875991 C68.7232667,18.3875991 69.3264333,18.1437658 69.6601,17.6560991 C69.9937667,17.1684325 70.1606,16.5190658 70.1606,15.7079991 L70.1606,15.7079991 L70.1606,15.2151991 L69.0672,15.2151991 L69.0672,15.8311991 C69.0672,16.2931991 69.0133,16.6499658 68.9055,16.9014991 C68.7977,17.1530325 68.6514,17.3224325 68.4666,17.4096991 C68.2818,17.4969658 68.0764667,17.5405991 67.8506,17.5405991 C67.5528667,17.5405991 67.3090333,17.4687325 67.1191,17.3249991 C66.9291667,17.1812658 66.7905667,16.9425658 66.7033,16.6088991 C66.6160333,16.2752325 66.5724,15.8209325 66.5724,15.2459991 L66.5724,15.2459991 L66.5724,13.6905991 L70.176,13.6905991 L70.176,12.8897991 C70.176,12.0479325 70.1118333,11.3574991 69.9835,10.8184991 C69.8551667,10.2794991 69.6267333,9.87653245 69.2982,9.60959912 C68.9696667,9.34266579 68.4922667,9.20919912 67.866,9.20919912 C67.3218667,9.20919912 66.8701333,9.31443245 66.5108,9.52489912 C66.1514667,9.73536579 65.8845333,10.0895658 65.71,10.5874991 C65.5354667,11.0854325 65.4482,11.7758658 65.4482,12.6587991 L65.4482,12.6587991 L65.4482,14.9071991 C65.4482,15.7593325 65.5329,16.4420658 65.7023,16.9553991 C65.8717,17.4687325 66.1335,17.8357658 66.4877,18.0564991 C66.8419,18.2772325 67.2962,18.3875991 67.8506,18.3875991 Z M69.0672,13.0437991 L66.5724,13.0437991 L66.5724,12.4431991 C66.5724,11.8066658 66.6134667,11.3164325 66.6956,10.9724991 C66.7777333,10.6285658 66.9137667,10.3898658 67.1037,10.2563991 C67.2936333,10.1229325 67.5426,10.0561991 67.8506,10.0561991 C68.2202,10.0561991 68.4897,10.1460325 68.6591,10.3256991 C68.8285,10.5053658 68.9388667,10.7620325 68.9902,11.0956991 C69.0415333,11.4293658 69.0672,11.8323325 69.0672,12.3045991 L69.0672,12.3045991 L69.0672,13.0437991 Z M74.9346,7.59219912 C75.2426,7.59219912 75.4736,7.51263245 75.6276,7.35349912 C75.7816,7.19436579 75.8817,7.00443245 75.9279,6.78369912 C75.9741,6.56296579 75.9972,6.36019912 75.9972,6.17539912 L75.9972,6.17539912 L75.3196,6.17539912 C75.3196,6.42179912 75.2785333,6.59376579 75.1964,6.69129912 C75.1142667,6.78883245 74.9859333,6.83759912 74.8114,6.83759912 C74.6266,6.83759912 74.4469333,6.77599912 74.2724,6.65279912 C74.0978667,6.52959912 73.9130667,6.40896579 73.718,6.29089912 C73.5229333,6.17283245 73.3022,6.11379912 73.0558,6.11379912 C72.7683333,6.11379912 72.5476,6.19079912 72.3936,6.34479912 C72.2396,6.49879912 72.1343667,6.68103245 72.0779,6.89149912 C72.0214333,7.10196579 71.9932,7.29446579 71.9932,7.46899912 L71.9932,7.46899912 L72.6862,7.46899912 C72.6862,7.26366579 72.7298333,7.10966579 72.8171,7.00699912 C72.9043667,6.90433245 73.0301333,6.85299912 73.1944,6.85299912 C73.3792,6.85299912 73.5563,6.91459912 73.7257,7.03779912 C73.8951,7.16099912 74.0773333,7.28419912 74.2724,7.40739912 C74.4674667,7.53059912 74.6882,7.59219912 74.9346,7.59219912 Z M72.8248,18.2489991 L72.8248,10.9185991 C73.0609333,10.6721991 73.3124667,10.4719991 73.5794,10.3179991 C73.8463333,10.1639991 74.1081333,10.0869991 74.3648,10.0869991 C74.6522667,10.0869991 74.8653,10.1819658 75.0039,10.3718991 C75.1425,10.5618325 75.2118,10.8877991 75.2118,11.3497991 L75.2118,11.3497991 L75.2118,18.2489991 L76.336,18.2489991 L76.336,11.1033991 C76.336,10.7029991 76.2846667,10.3616325 76.182,10.0792991 C76.0793333,9.79696579 75.9253333,9.58136579 75.72,9.43249912 C75.5146667,9.28363245 75.2631333,9.20919912 74.9654,9.20919912 C74.5444667,9.20919912 74.1543333,9.30929912 73.795,9.50949912 C73.4356667,9.70969912 73.1122667,9.96379912 72.8248,10.2717991 L72.8248,10.2717991 L72.8248,9.34779912 L71.7006,9.34779912 L71.7006,18.2489991 L72.8248,18.2489991 Z M80.2014,18.3875991 C80.8276667,18.3875991 81.3102,18.2566991 81.649,17.9948991 C81.9878,17.7330991 82.2290667,17.3532325 82.3728,16.8552991 C82.5165333,16.3573658 82.5884,15.7490658 82.5884,15.0303991 L82.5884,15.0303991 L82.5884,12.5663991 C82.5884,11.8477325 82.5165333,11.2394325 82.3728,10.7414991 C82.2290667,10.2435658 81.9878,9.86369912 81.649,9.60189912 C81.3102,9.34009912 80.8276667,9.20919912 80.2014,9.20919912 C79.5956667,9.20919912 79.1208333,9.34009912 78.7769,9.60189912 C78.4329667,9.86369912 78.1891333,10.2435658 78.0454,10.7414991 C77.9016667,11.2394325 77.8298,11.8477325 77.8298,12.5663991 L77.8298,12.5663991 L77.8298,15.0303991 C77.8298,15.7490658 77.9016667,16.3573658 78.0454,16.8552991 C78.1891333,17.3532325 78.4329667,17.7330991 78.7769,17.9948991 C79.1208333,18.2566991 79.5956667,18.3875991 80.2014,18.3875991 Z M80.2014,17.5405991 C79.8112667,17.5405991 79.5289333,17.4379325 79.3544,17.2325991 C79.1798667,17.0272658 79.0720667,16.7372325 79.031,16.3624991 C78.9899333,15.9877658 78.9694,15.5642658 78.9694,15.0919991 L78.9694,15.0919991 L78.9694,12.5047991 C78.9694,12.0222658 78.9899333,11.5987658 79.031,11.2342991 C79.0720667,10.8698325 79.1798667,10.5823658 79.3544,10.3718991 C79.5289333,10.1614325 79.8112667,10.0561991 80.2014,10.0561991 C80.5915333,10.0561991 80.8764333,10.1614325 81.0561,10.3718991 C81.2357667,10.5823658 81.3461333,10.8698325 81.3872,11.2342991 C81.4282667,11.5987658 81.4488,12.0222658 81.4488,12.5047991 L81.4488,12.5047991 L81.4488,15.0919991 C81.4488,15.5642658 81.4282667,15.9877658 81.3872,16.3624991 C81.3461333,16.7372325 81.2357667,17.0272658 81.0561,17.2325991 C80.8764333,17.4379325 80.5915333,17.5405991 80.2014,17.5405991 Z M89.5492,21.1749991 C90.1344,21.1749991 90.6451667,21.1005658 91.0815,20.9516991 C91.5178333,20.8028325 91.8617667,20.5743991 92.1133,20.2663991 C92.3648333,19.9583991 92.4906,19.5733991 92.4906,19.1113991 C92.4906,18.4953991 92.2981,18.0231325 91.9131,17.6945991 C91.5281,17.3660658 90.9762667,17.1504658 90.2576,17.0477991 L90.2576,17.0477991 L88.8408,16.8321991 C88.5841333,16.8013991 88.3967667,16.7474991 88.2787,16.6704991 C88.1606333,16.5934991 88.1016,16.4831325 88.1016,16.3393991 C88.1016,16.1751325 88.1657667,16.0031658 88.2941,15.8234991 C88.4224333,15.6438325 88.5584667,15.4769991 88.7022,15.3229991 C88.8151333,15.3537991 88.9563,15.3845991 89.1257,15.4153991 C89.2951,15.4461991 89.4568,15.4615991 89.6108,15.4615991 C90.2165333,15.4615991 90.6965,15.3255658 91.0507,15.0534991 C91.4049,14.7814325 91.6615667,14.4092658 91.8207,13.9369991 C91.9798333,13.4647325 92.0594,12.9359991 92.0594,12.3507991 C92.0594,12.1351991 92.0311667,11.8682658 91.9747,11.5499991 C91.9182333,11.2317325 91.8540667,10.9801991 91.7822,10.7953991 C91.8643333,10.6927325 91.9901,10.5900658 92.1595,10.4873991 C92.3289,10.3847325 92.5111333,10.2897658 92.7062,10.2024991 C92.9012667,10.1152325 93.0809333,10.0561991 93.2452,10.0253991 L93.2452,10.0253991 L92.9372,9.23999912 L92.7062,9.31699912 C92.4495333,9.41966579 92.2082667,9.57623245 91.9824,9.78669912 C91.7565333,9.99716579 91.5974,10.1742658 91.505,10.3179991 C91.351,10.0099991 91.1251333,9.74819912 90.8274,9.53259912 C90.5296667,9.31699912 90.119,9.20919912 89.5954,9.20919912 C89.0204667,9.20919912 88.5507667,9.35036579 88.1863,9.63269912 C87.8218333,9.91503245 87.5497667,10.2897658 87.3701,10.7568991 C87.1904333,11.2240325 87.1006,11.7450658 87.1006,12.3199991 C87.1006,12.9359991 87.1853,13.4698658 87.3547,13.9215991 C87.5241,14.3733325 87.8141333,14.7429325 88.2248,15.0303991 C87.8962667,15.3075991 87.6370333,15.5693991 87.4471,15.8157991 C87.2571667,16.0621991 87.1622,16.3393991 87.1622,16.6473991 C87.1622,16.8732658 87.2417667,17.0683325 87.4009,17.2325991 C87.5600333,17.3968658 87.809,17.5251991 88.1478,17.6175991 C87.9116667,17.7407991 87.6806667,17.8973658 87.4548,18.0872991 C87.2289333,18.2772325 87.0441333,18.4953991 86.9004,18.7417991 C86.7566667,18.9881991 86.6848,19.2602658 86.6848,19.5579991 C86.6848,19.9275991 86.8003,20.2330325 87.0313,20.4742991 C87.2623,20.7155658 87.5934,20.8926658 88.0246,21.0055991 C88.4558,21.1185325 88.964,21.1749991 89.5492,21.1749991 Z M89.6108,14.6453991 C89.2925333,14.6453991 89.0333,14.5735325 88.8331,14.4297991 C88.6329,14.2860658 88.4789,14.0986991 88.3711,13.8676991 C88.2633,13.6366991 88.194,13.3825991 88.1632,13.1053991 C88.1324,12.8281991 88.117,12.5663991 88.117,12.3199991 C88.117,12.0633325 88.1349667,11.8015325 88.1709,11.5345991 C88.2068333,11.2676658 88.2787,11.0186991 88.3865,10.7876991 C88.4943,10.5566991 88.6483,10.3693325 88.8485,10.2255991 C89.0487,10.0818658 89.3028,10.0099991 89.6108,10.0099991 C89.9188,10.0099991 90.1677667,10.0792991 90.3577,10.2178991 C90.5476333,10.3564991 90.6939333,10.5412991 90.7966,10.7722991 C90.8992667,11.0032991 90.9711333,11.2522658 91.0122,11.5191991 C91.0532667,11.7861325 91.0738,12.0530658 91.0738,12.3199991 C91.0738,12.5869325 91.0558333,12.8589991 91.0199,13.1361991 C90.9839667,13.4133991 90.9172333,13.6649325 90.8197,13.8907991 C90.7221667,14.1166658 90.5784333,14.2988991 90.3885,14.4374991 C90.1985667,14.5760991 89.9393333,14.6453991 89.6108,14.6453991 Z M89.5954,20.2663991 C88.9383333,20.2663991 88.4481,20.1868325 88.1247,20.0276991 C87.8013,19.8685658 87.6396,19.6195991 87.6396,19.2807991 C87.6396,19.0446658 87.7037667,18.8341991 87.8321,18.6493991 C87.9604333,18.4645991 88.1118667,18.2977658 88.2864,18.1488991 C88.4609333,18.0000325 88.6252,17.8742658 88.7792,17.7715991 L88.7792,17.7715991 L89.9188,17.9255991 C90.3808,17.9974658 90.7324333,18.0872991 90.9737,18.1950991 C91.2149667,18.3028991 91.3792333,18.4337991 91.4665,18.5877991 C91.5537667,18.7417991 91.5974,18.9214658 91.5974,19.1267991 C91.5974,19.5271991 91.4126,19.8172325 91.043,19.9968991 C90.6734,20.1765658 90.1908667,20.2663991 89.5954,20.2663991 Z M95.1394,18.2489991 L95.1394,11.4113991 C95.355,11.0520658 95.6039667,10.7902658 95.8863,10.6259991 C96.1686333,10.4617325 96.4843333,10.3795991 96.8334,10.3795991 C96.9258,10.3795991 97.0233333,10.3872991 97.126,10.4026991 C97.2286667,10.4180991 97.3159333,10.4411991 97.3878,10.4719991 L97.3878,10.4719991 L97.3878,9.27079912 C97.3467333,9.26053245 97.3108,9.25539912 97.28,9.25539912 L97.28,9.25539912 L97.1876,9.25539912 C96.8488,9.25539912 96.4946,9.35549912 96.125,9.55569912 C95.7554,9.75589912 95.4268667,10.0921325 95.1394,10.5643991 L95.1394,10.5643991 L95.1394,9.34779912 L93.9998,9.34779912 L93.9998,18.2489991 L95.1394,18.2489991 Z M101.0376,8.60859912 L102.5468,5.59019912 L101.4226,5.59019912 L100.4524,8.60859912 L101.0376,8.60859912 Z M100.36,17.4327991 C100.093067,17.4327991 99.8569333,17.3326991 99.6516,17.1324991 C99.4462667,16.9322991 99.3436,16.5960658 99.3436,16.1237991 C99.3436,15.8260658 99.3898,15.5668325 99.4822,15.3460991 C99.5746,15.1253658 99.7183333,14.9277325 99.9134,14.7531991 C100.108467,14.5786658 100.362567,14.3989991 100.6757,14.2141991 C100.988833,14.0293991 101.366133,13.8240658 101.8076,13.5981991 L101.8076,13.5981991 L101.8076,16.3701991 C101.725467,16.5344658 101.612533,16.6961658 101.4688,16.8552991 C101.325067,17.0144325 101.1608,17.1504658 100.976,17.2633991 C100.7912,17.3763325 100.585867,17.4327991 100.36,17.4327991 Z M101.838,17.0180001 L101.848987,17.1339429 C101.862462,17.2600304 101.8846,17.4135491 101.9154,17.5944991 C101.956467,17.8357658 101.987267,18.0539325 102.0078,18.2489991 L102.0078,18.2489991 L103.0088,18.2489991 C102.998533,18.1360658 102.988267,17.9717991 102.978,17.7561991 C102.967733,17.5405991 102.957467,17.3121658 102.9472,17.0708991 C102.936933,16.8296325 102.9318,16.6319991 102.9318,16.4779991 L102.9318,16.4779991 L102.9318,12.1505991 C102.9318,11.1444658 102.7701,10.4026991 102.4467,9.92529912 C102.1233,9.44789912 101.5612,9.20919912 100.7604,9.20919912 C99.9082667,9.20919912 99.2948333,9.42736579 98.9201,9.86369912 C98.5453667,10.3000325 98.3528667,10.9699325 98.3426,11.8733991 L98.3426,11.8733991 L99.4514,11.8887991 L99.4514,11.5807991 C99.4514,11.1906658 99.5078667,10.8852325 99.6208,10.6644991 C99.7337333,10.4437658 99.8826,10.2871991 100.0674,10.1947991 C100.2522,10.1023991 100.462667,10.0561991 100.6988,10.0561991 C100.986267,10.0561991 101.209567,10.1229325 101.3687,10.2563991 C101.527833,10.3898658 101.640767,10.6131658 101.7075,10.9262991 C101.774233,11.2394325 101.8076,11.6680658 101.8076,12.2121991 L101.8076,12.2121991 L101.8076,12.8435991 C101.150533,13.1413325 100.593567,13.4108325 100.1367,13.6520991 C99.6798333,13.8933658 99.3102333,14.1397658 99.0279,14.3912991 C98.7455667,14.6428325 98.5402333,14.9277325 98.4119,15.2459991 C98.2835667,15.5642658 98.2194,15.9492658 98.2194,16.4009991 C98.2194,16.7603325 98.2938333,17.0914325 98.4427,17.3942991 C98.5915667,17.6971658 98.7994667,17.9384325 99.0664,18.1180991 C99.3333333,18.2977658 99.6464667,18.3875991 100.0058,18.3875991 C100.478067,18.3875991 100.870767,18.2489991 101.1839,17.9717991 C101.497033,17.6945991 101.7152,17.3763325 101.8384,17.0169991 L101.838,17.0180001 Z M106.2736,18.2489991 L106.2736,10.1639991 L108.522,10.1639991 L108.522,18.2489991 L109.6462,18.2489991 L109.6462,9.34779912 L106.2736,9.34779912 L106.2736,8.31599912 C106.2736,7.83346579 106.3198,7.49979912 106.4122,7.31499912 C106.5046,7.13019912 106.7202,7.03779912 107.059,7.03779912 C107.161667,7.03779912 107.264333,7.04293245 107.367,7.05319912 C107.469667,7.06346579 107.572333,7.07886579 107.675,7.09939912 L107.675,7.09939912 L107.675,6.25239912 C107.5518,6.23186579 107.415767,6.21389912 107.2669,6.19849912 C107.118033,6.18309912 106.982,6.17539912 106.8588,6.17539912 C106.386533,6.17539912 106.024633,6.26523245 105.7731,6.44489912 C105.521567,6.62456579 105.352167,6.88123245 105.2649,7.21489912 C105.177633,7.54856579 105.134,7.95153245 105.134,8.42379912 L105.134,8.42379912 L105.134,9.34779912 L103.9944,9.34779912 L103.9944,10.1639991 L105.134,10.1639991 L105.134,18.2489991 L106.2736,18.2489991 Z M109.6616,8.11579912 L109.6616,6.59119912 L108.6144,6.59119912 L108.6144,8.11579912 L109.6616,8.11579912 Z M113.758,18.3875991 C114.394533,18.3875991 114.877067,18.2566991 115.2056,17.9948991 C115.534133,17.7330991 115.7523,17.3737658 115.8601,16.9168991 C115.9679,16.4600325 116.0218,15.9338658 116.0218,15.3383991 L116.0218,15.3383991 L116.0218,14.9071991 L114.9746,14.9071991 L114.9746,15.3999991 C114.9746,15.8722658 114.948933,16.2675325 114.8976,16.5857991 C114.846267,16.9040658 114.733333,17.1427658 114.5588,17.3018991 C114.384267,17.4610325 114.122467,17.5405991 113.7734,17.5405991 C113.270333,17.5405991 112.931533,17.3583658 112.757,16.9938991 C112.582467,16.6294325 112.4952,16.0005991 112.4952,15.1073991 L112.4952,15.1073991 L112.4952,12.6125991 C112.4952,11.9863325 112.526,11.4858325 112.5876,11.1110991 C112.6492,10.7363658 112.7724,10.4668658 112.9572,10.3025991 C113.142,10.1383325 113.408933,10.0561991 113.758,10.0561991 C114.055733,10.0561991 114.294433,10.1152325 114.4741,10.2332991 C114.653767,10.3513658 114.7821,10.5541325 114.8591,10.8415991 C114.9361,11.1290658 114.9746,11.5345991 114.9746,12.0581991 L114.9746,12.0581991 L114.9746,12.4893991 L116.0218,12.4893991 L116.0218,12.0581991 C116.0218,11.4935325 115.965333,10.9955991 115.8524,10.5643991 C115.739467,10.1331991 115.518733,9.79953245 115.1902,9.56339912 C114.861667,9.32726579 114.384267,9.20919912 113.758,9.20919912 C113.121467,9.20919912 112.631233,9.33753245 112.2873,9.59419912 C111.943367,9.85086579 111.704667,10.2435658 111.5712,10.7722991 C111.437733,11.3010325 111.371,11.9760658 111.371,12.7973991 L111.371,12.7973991 L111.371,14.8763991 C111.371,15.5437325 111.4249,16.1417658 111.5327,16.6704991 C111.6405,17.1992325 111.8638,17.6175991 112.2026,17.9255991 C112.5414,18.2335991 113.059867,18.3875991 113.758,18.3875991 Z M119.7332,18.3875991 C120.359467,18.3875991 120.842,18.2566991 121.1808,17.9948991 C121.5196,17.7330991 121.760867,17.3532325 121.9046,16.8552991 C122.048333,16.3573658 122.1202,15.7490658 122.1202,15.0303991 L122.1202,15.0303991 L122.1202,12.5663991 C122.1202,11.8477325 122.048333,11.2394325 121.9046,10.7414991 C121.760867,10.2435658 121.5196,9.86369912 121.1808,9.60189912 C120.842,9.34009912 120.359467,9.20919912 119.7332,9.20919912 C119.127467,9.20919912 118.652633,9.34009912 118.3087,9.60189912 C117.964767,9.86369912 117.720933,10.2435658 117.5772,10.7414991 C117.433467,11.2394325 117.3616,11.8477325 117.3616,12.5663991 L117.3616,12.5663991 L117.3616,15.0303991 C117.3616,15.7490658 117.433467,16.3573658 117.5772,16.8552991 C117.720933,17.3532325 117.964767,17.7330991 118.3087,17.9948991 C118.652633,18.2566991 119.127467,18.3875991 119.7332,18.3875991 Z M119.7332,17.5405991 C119.343067,17.5405991 119.060733,17.4379325 118.8862,17.2325991 C118.711667,17.0272658 118.603867,16.7372325 118.5628,16.3624991 C118.521733,15.9877658 118.5012,15.5642658 118.5012,15.0919991 L118.5012,15.0919991 L118.5012,12.5047991 C118.5012,12.0222658 118.521733,11.5987658 118.5628,11.2342991 C118.603867,10.8698325 118.711667,10.5823658 118.8862,10.3718991 C119.060733,10.1614325 119.343067,10.0561991 119.7332,10.0561991 C120.123333,10.0561991 120.408233,10.1614325 120.5879,10.3718991 C120.767567,10.5823658 120.877933,10.8698325 120.919,11.2342991 C120.960067,11.5987658 120.9806,12.0222658 120.9806,12.5047991 L120.9806,12.5047991 L120.9806,15.0919991 C120.9806,15.5642658 120.960067,15.9877658 120.919,16.3624991 C120.877933,16.7372325 120.767567,17.0272658 120.5879,17.2325991 C120.408233,17.4379325 120.123333,17.5405991 119.7332,17.5405991 Z M48.9086,36.7155981 C49.4116667,36.7155981 49.8351667,36.6616981 50.1791,36.5538981 C50.5230333,36.4460981 50.8002333,36.2766981 51.0107,36.0456981 C51.2211667,35.8146981 51.3674667,35.5092648 51.4496,35.1293981 L51.4496,35.1293981 L53.6056,25.5967981 L52.466,25.5967981 L50.9722,33.1735981 L49.4322,25.5967981 L48.308,25.5967981 L50.1406,33.4353981 C50.2124667,33.7228648 50.2792,34.0000648 50.3408,34.2669981 C50.4024,34.5339315 50.4332,34.7495315 50.4332,34.9137981 C50.4332,35.0985981 50.3895667,35.2602981 50.3023,35.3988981 C50.2150333,35.5374981 50.0405,35.6452981 49.7787,35.7222981 C49.5169,35.7992981 49.1293333,35.8377981 48.616,35.8377981 L48.616,35.8377981 L48.616,36.7155981 L48.9086,36.7155981 Z M60.089,34.6365981 C60.7255333,34.6365981 61.2080667,34.5056981 61.5366,34.2438981 C61.8651333,33.9820981 62.0833,33.6227648 62.1911,33.1658981 C62.2989,32.7090315 62.3528,32.1828648 62.3528,31.5873981 L62.3528,31.5873981 L62.3528,31.1561981 L61.3056,31.1561981 L61.3056,31.6489981 C61.3056,32.1212648 61.2799333,32.5165315 61.2286,32.8347981 C61.1772667,33.1530648 61.0643333,33.3917648 60.8898,33.5508981 C60.7152667,33.7100315 60.4534667,33.7895981 60.1044,33.7895981 C59.6013333,33.7895981 59.2625333,33.6073648 59.088,33.2428981 C58.9134667,32.8784315 58.8262,32.2495981 58.8262,31.3563981 L58.8262,31.3563981 L58.8262,28.8615981 C58.8262,28.2353315 58.857,27.7348315 58.9186,27.3600981 C58.9802,26.9853648 59.1034,26.7158648 59.2882,26.5515981 C59.473,26.3873315 59.7399333,26.3051981 60.089,26.3051981 C60.3867333,26.3051981 60.6254333,26.3642315 60.8051,26.4822981 C60.9847667,26.6003648 61.1131,26.8031315 61.1901,27.0905981 C61.2671,27.3780648 61.3056,27.7835981 61.3056,28.3071981 L61.3056,28.3071981 L61.3056,28.7383981 L62.3528,28.7383981 L62.3528,28.3071981 C62.3528,27.7425315 62.2963333,27.2445981 62.1834,26.8133981 C62.0704667,26.3821981 61.8497333,26.0485315 61.5212,25.8123981 C61.1926667,25.5762648 60.7152667,25.4581981 60.089,25.4581981 C59.4524667,25.4581981 58.9622333,25.5865315 58.6183,25.8431981 C58.2743667,26.0998648 58.0356667,26.4925648 57.9022,27.0212981 C57.7687333,27.5500315 57.702,28.2250648 57.702,29.0463981 L57.702,29.0463981 L57.702,31.1253981 C57.702,31.7927315 57.7559,32.3907648 57.8637,32.9194981 C57.9715,33.4482315 58.1948,33.8665981 58.5336,34.1745981 C58.8724,34.4825981 59.3908667,34.6365981 60.089,34.6365981 Z M66.0642,34.6365981 C66.6904667,34.6365981 67.173,34.5056981 67.5118,34.2438981 C67.8506,33.9820981 68.0918667,33.6022315 68.2356,33.1042981 C68.3793333,32.6063648 68.4512,31.9980648 68.4512,31.2793981 L68.4512,31.2793981 L68.4512,28.8153981 C68.4512,28.0967315 68.3793333,27.4884315 68.2356,26.9904981 C68.0918667,26.4925648 67.8506,26.1126981 67.5118,25.8508981 C67.173,25.5890981 66.6904667,25.4581981 66.0642,25.4581981 C65.4584667,25.4581981 64.9836333,25.5890981 64.6397,25.8508981 C64.2957667,26.1126981 64.0519333,26.4925648 63.9082,26.9904981 C63.7644667,27.4884315 63.6926,28.0967315 63.6926,28.8153981 L63.6926,28.8153981 L63.6926,31.2793981 C63.6926,31.9980648 63.7644667,32.6063648 63.9082,33.1042981 C64.0519333,33.6022315 64.2957667,33.9820981 64.6397,34.2438981 C64.9836333,34.5056981 65.4584667,34.6365981 66.0642,34.6365981 Z M66.0642,33.7895981 C65.6740667,33.7895981 65.3917333,33.6869315 65.2172,33.4815981 C65.0426667,33.2762648 64.9348667,32.9862315 64.8938,32.6114981 C64.8527333,32.2367648 64.8322,31.8132648 64.8322,31.3409981 L64.8322,31.3409981 L64.8322,28.7537981 C64.8322,28.2712648 64.8527333,27.8477648 64.8938,27.4832981 C64.9348667,27.1188315 65.0426667,26.8313648 65.2172,26.6208981 C65.3917333,26.4104315 65.6740667,26.3051981 66.0642,26.3051981 C66.4543333,26.3051981 66.7392333,26.4104315 66.9189,26.6208981 C67.0985667,26.8313648 67.2089333,27.1188315 67.25,27.4832981 C67.2910667,27.8477648 67.3116,28.2712648 67.3116,28.7537981 L67.3116,28.7537981 L67.3116,31.3409981 C67.3116,31.8132648 67.2910667,32.2367648 67.25,32.6114981 C67.2089333,32.9862315 67.0985667,33.2762648 66.9189,33.4815981 C66.7392333,33.6869315 66.4543333,33.7895981 66.0642,33.7895981 Z M71.0538,34.4979981 L71.0538,27.1213981 C71.3104667,26.8441981 71.5825333,26.6234648 71.87,26.4591981 C72.1574667,26.2949315 72.4398,26.2127981 72.717,26.2127981 C72.9736667,26.2127981 73.1867,26.2974981 73.3561,26.4668981 C73.5255,26.6362981 73.6102,26.9827981 73.6102,27.5063981 L73.6102,27.5063981 L73.6102,34.4979981 L74.6728,34.4979981 L74.6728,27.4755981 C74.6728,27.4139981 74.6702333,27.3549648 74.6651,27.2984981 C74.6599667,27.2420315 74.6522667,27.1881315 74.642,27.1367981 C74.8986667,26.8493315 75.1707333,26.6234648 75.4582,26.4591981 C75.7456667,26.2949315 76.0331333,26.2127981 76.3206,26.2127981 C76.5772667,26.2127981 76.7903,26.2974981 76.9597,26.4668981 C77.1291,26.6362981 77.2138,26.9827981 77.2138,27.5063981 L77.2138,27.5063981 L77.2138,34.4979981 L78.261,34.4979981 L78.261,27.4755981 C78.261,26.9622648 78.1891333,26.5567315 78.0454,26.2589981 C77.9016667,25.9612648 77.7143,25.7507981 77.4833,25.6275981 C77.2523,25.5043981 77.0084667,25.4427981 76.7518,25.4427981 C76.3411333,25.4427981 75.951,25.5403315 75.5814,25.7353981 C75.2118,25.9304648 74.873,26.2179315 74.565,26.5977981 C74.4520667,26.1563315 74.2647,25.8534648 74.0029,25.6891981 C73.7411,25.5249315 73.4562,25.4427981 73.1482,25.4427981 C72.7683333,25.4427981 72.3987333,25.5326315 72.0394,25.7122981 C71.6800667,25.8919648 71.3515333,26.1563315 71.0538,26.5053981 L71.0538,26.5053981 L71.0538,25.5967981 L70.0066,25.5967981 L70.0066,34.4979981 L71.0538,34.4979981 Z M81.2332,34.6365981 C81.6541333,34.6365981 82.0494,34.5313648 82.419,34.3208981 C82.7886,34.1104315 83.1171333,33.8409315 83.4046,33.5123981 L83.4046,33.5123981 L83.4046,34.4979981 L84.5288,34.4979981 L84.5288,25.5967981 L83.4046,25.5967981 L83.4046,32.8655981 C83.1684667,33.1222648 82.9143667,33.3327315 82.6423,33.4969981 C82.3702333,33.6612648 82.1007333,33.7433981 81.8338,33.7433981 C81.5463333,33.7433981 81.3333,33.6509981 81.1947,33.4661981 C81.0561,33.2813981 80.9868,32.9579981 80.9868,32.4959981 L80.9868,32.4959981 L80.9868,25.5967981 L79.8472,25.5967981 L79.8472,32.7423981 C79.8472,33.1427981 79.9011,33.4815981 80.0089,33.7587981 C80.1167,34.0359981 80.2732667,34.2515981 80.4786,34.4055981 C80.6839333,34.5595981 80.9354667,34.6365981 81.2332,34.6365981 Z M87.3932,34.4979981 L87.3932,27.1675981 C87.6293333,26.9211981 87.8808667,26.7209981 88.1478,26.5669981 C88.4147333,26.4129981 88.6765333,26.3359981 88.9332,26.3359981 C89.2206667,26.3359981 89.4337,26.4309648 89.5723,26.6208981 C89.7109,26.8108315 89.7802,27.1367981 89.7802,27.5987981 L89.7802,27.5987981 L89.7802,34.4979981 L90.9044,34.4979981 L90.9044,27.3523981 C90.9044,26.9519981 90.8530667,26.6106315 90.7504,26.3282981 C90.6477333,26.0459648 90.4937333,25.8303648 90.2884,25.6814981 C90.0830667,25.5326315 89.8315333,25.4581981 89.5338,25.4581981 C89.1128667,25.4581981 88.7227333,25.5582981 88.3634,25.7584981 C88.0040667,25.9586981 87.6806667,26.2127981 87.3932,26.5207981 L87.3932,26.5207981 L87.3932,25.5967981 L86.269,25.5967981 L86.269,34.4979981 L87.3932,34.4979981 Z M93.815,24.3647981 L93.815,22.8401981 L92.6908,22.8401981 L92.6908,24.3647981 L93.815,24.3647981 Z M93.815,34.4979981 L93.815,25.5967981 L92.6908,25.5967981 L92.6908,34.4979981 L93.815,34.4979981 Z M97.9268,34.6365981 C98.5633333,34.6365981 99.0458667,34.5056981 99.3744,34.2438981 C99.7029333,33.9820981 99.9211,33.6227648 100.0289,33.1658981 C100.1367,32.7090315 100.1906,32.1828648 100.1906,31.5873981 L100.1906,31.5873981 L100.1906,31.1561981 L99.1434,31.1561981 L99.1434,31.6489981 C99.1434,32.1212648 99.1177333,32.5165315 99.0664,32.8347981 C99.0150667,33.1530648 98.9021333,33.3917648 98.7276,33.5508981 C98.5530667,33.7100315 98.2912667,33.7895981 97.9422,33.7895981 C97.4391333,33.7895981 97.1003333,33.6073648 96.9258,33.2428981 C96.7512667,32.8784315 96.664,32.2495981 96.664,31.3563981 L96.664,31.3563981 L96.664,28.8615981 C96.664,28.2353315 96.6948,27.7348315 96.7564,27.3600981 C96.818,26.9853648 96.9412,26.7158648 97.126,26.5515981 C97.3108,26.3873315 97.5777333,26.3051981 97.9268,26.3051981 C98.2245333,26.3051981 98.4632333,26.3642315 98.6429,26.4822981 C98.8225667,26.6003648 98.9509,26.8031315 99.0279,27.0905981 C99.1049,27.3780648 99.1434,27.7835981 99.1434,28.3071981 L99.1434,28.3071981 L99.1434,28.7383981 L100.1906,28.7383981 L100.1906,28.3071981 C100.1906,27.7425315 100.134133,27.2445981 100.0212,26.8133981 C99.9082667,26.3821981 99.6875333,26.0485315 99.359,25.8123981 C99.0304667,25.5762648 98.5530667,25.4581981 97.9268,25.4581981 C97.2902667,25.4581981 96.8000333,25.5865315 96.4561,25.8431981 C96.1121667,26.0998648 95.8734667,26.4925648 95.74,27.0212981 C95.6065333,27.5500315 95.5398,28.2250648 95.5398,29.0463981 L95.5398,29.0463981 L95.5398,31.1253981 C95.5398,31.7927315 95.5937,32.3907648 95.7015,32.9194981 C95.8093,33.4482315 96.0326,33.8665981 96.3714,34.1745981 C96.7102,34.4825981 97.2286667,34.6365981 97.9268,34.6365981 Z M103.594,33.6817981 C103.327067,33.6817981 103.090933,33.5816981 102.8856,33.3814981 C102.680267,33.1812981 102.5776,32.8450648 102.5776,32.3727981 C102.5776,32.0750648 102.6238,31.8158315 102.7162,31.5950981 C102.8086,31.3743648 102.952333,31.1767315 103.1474,31.0021981 C103.342467,30.8276648 103.596567,30.6479981 103.9097,30.4631981 C104.222833,30.2783981 104.600133,30.0730648 105.0416,29.8471981 L105.0416,29.8471981 L105.0416,32.6191981 C104.959467,32.7834648 104.846533,32.9451648 104.7028,33.1042981 C104.559067,33.2634315 104.3948,33.3994648 104.21,33.5123981 C104.0252,33.6253315 103.819867,33.6817981 103.594,33.6817981 Z M105.072,33.2670001 L105.082988,33.3829419 C105.096463,33.5090294 105.1186,33.6625481 105.1494,33.8434981 C105.190467,34.0847648 105.221267,34.3029315 105.2418,34.4979981 L105.2418,34.4979981 L106.2428,34.4979981 C106.232533,34.3850648 106.222267,34.2207981 106.212,34.0051981 C106.201733,33.7895981 106.191467,33.5611648 106.1812,33.3198981 C106.170933,33.0786315 106.1658,32.8809981 106.1658,32.7269981 L106.1658,32.7269981 L106.1658,28.3995981 C106.1658,27.3934648 106.0041,26.6516981 105.6807,26.1742981 C105.3573,25.6968981 104.7952,25.4581981 103.9944,25.4581981 C103.142267,25.4581981 102.528833,25.6763648 102.1541,26.1126981 C101.779367,26.5490315 101.586867,27.2189315 101.5766,28.1223981 L101.5766,28.1223981 L102.6854,28.1377981 L102.6854,27.8297981 C102.6854,27.4396648 102.741867,27.1342315 102.8548,26.9134981 C102.967733,26.6927648 103.1166,26.5361981 103.3014,26.4437981 C103.4862,26.3513981 103.696667,26.3051981 103.9328,26.3051981 C104.220267,26.3051981 104.443567,26.3719315 104.6027,26.5053981 C104.761833,26.6388648 104.874767,26.8621648 104.9415,27.1752981 C105.008233,27.4884315 105.0416,27.9170648 105.0416,28.4611981 L105.0416,28.4611981 L105.0416,29.0925981 C104.384533,29.3903315 103.827567,29.6598315 103.3707,29.9010981 C102.913833,30.1423648 102.544233,30.3887648 102.2619,30.6402981 C101.979567,30.8918315 101.774233,31.1767315 101.6459,31.4949981 C101.517567,31.8132648 101.4534,32.1982648 101.4534,32.6499981 C101.4534,33.0093315 101.527833,33.3404315 101.6767,33.6432981 C101.825567,33.9461648 102.033467,34.1874315 102.3004,34.3670981 C102.567333,34.5467648 102.880467,34.6365981 103.2398,34.6365981 C103.712067,34.6365981 104.104767,34.4979981 104.4179,34.2207981 C104.731033,33.9435981 104.9492,33.6253315 105.0724,33.2659981 L105.072,33.2670001 Z M110.0312,34.6365981 C110.667733,34.6365981 111.150267,34.5056981 111.4788,34.2438981 C111.807333,33.9820981 112.0255,33.6227648 112.1333,33.1658981 C112.2411,32.7090315 112.295,32.1828648 112.295,31.5873981 L112.295,31.5873981 L112.295,31.1561981 L111.2478,31.1561981 L111.2478,31.6489981 C111.2478,32.1212648 111.222133,32.5165315 111.1708,32.8347981 C111.119467,33.1530648 111.006533,33.3917648 110.832,33.5508981 C110.657467,33.7100315 110.395667,33.7895981 110.0466,33.7895981 C109.543533,33.7895981 109.204733,33.6073648 109.0302,33.2428981 C108.855667,32.8784315 108.7684,32.2495981 108.7684,31.3563981 L108.7684,31.3563981 L108.7684,28.8615981 C108.7684,28.2353315 108.7992,27.7348315 108.8608,27.3600981 C108.9224,26.9853648 109.0456,26.7158648 109.2304,26.5515981 C109.4152,26.3873315 109.682133,26.3051981 110.0312,26.3051981 C110.328933,26.3051981 110.567633,26.3642315 110.7473,26.4822981 C110.926967,26.6003648 111.0553,26.8031315 111.1323,27.0905981 C111.2093,27.3780648 111.2478,27.7835981 111.2478,28.3071981 L111.2478,28.3071981 L111.2478,28.7383981 L112.295,28.7383981 L112.295,28.3071981 C112.295,27.7425315 112.238533,27.2445981 112.1256,26.8133981 C112.012667,26.3821981 111.791933,26.0485315 111.4634,25.8123981 C111.134867,25.5762648 110.657467,25.4581981 110.0312,25.4581981 C109.394667,25.4581981 108.904433,25.5865315 108.5605,25.8431981 C108.216567,26.0998648 107.977867,26.4925648 107.8444,27.0212981 C107.710933,27.5500315 107.6442,28.2250648 107.6442,29.0463981 L107.6442,29.0463981 L107.6442,31.1253981 C107.6442,31.7927315 107.6981,32.3907648 107.8059,32.9194981 C107.9137,33.4482315 108.137,33.8665981 108.4758,34.1745981 C108.8146,34.4825981 109.333067,34.6365981 110.0312,34.6365981 Z M115.0516,24.3647981 L115.0516,22.8401981 L113.9274,22.8401981 L113.9274,24.3647981 L115.0516,24.3647981 Z M115.0516,34.4979981 L115.0516,25.5967981 L113.9274,25.5967981 L113.9274,34.4979981 L115.0516,34.4979981 Z M119.456,24.8575981 L120.9652,21.8391981 L119.841,21.8391981 L118.8708,24.8575981 L119.456,24.8575981 Z M119.148,34.6365981 C119.774267,34.6365981 120.2568,34.5056981 120.5956,34.2438981 C120.9344,33.9820981 121.175667,33.6022315 121.3194,33.1042981 C121.463133,32.6063648 121.535,31.9980648 121.535,31.2793981 L121.535,31.2793981 L121.535,28.8153981 C121.535,28.0967315 121.463133,27.4884315 121.3194,26.9904981 C121.175667,26.4925648 120.9344,26.1126981 120.5956,25.8508981 C120.2568,25.5890981 119.774267,25.4581981 119.148,25.4581981 C118.542267,25.4581981 118.067433,25.5890981 117.7235,25.8508981 C117.379567,26.1126981 117.135733,26.4925648 116.992,26.9904981 C116.848267,27.4884315 116.7764,28.0967315 116.7764,28.8153981 L116.7764,28.8153981 L116.7764,31.2793981 C116.7764,31.9980648 116.848267,32.6063648 116.992,33.1042981 C117.135733,33.6022315 117.379567,33.9820981 117.7235,34.2438981 C118.067433,34.5056981 118.542267,34.6365981 119.148,34.6365981 Z M119.148,33.7895981 C118.757867,33.7895981 118.475533,33.6869315 118.301,33.4815981 C118.126467,33.2762648 118.018667,32.9862315 117.9776,32.6114981 C117.936533,32.2367648 117.916,31.8132648 117.916,31.3409981 L117.916,31.3409981 L117.916,28.7537981 C117.916,28.2712648 117.936533,27.8477648 117.9776,27.4832981 C118.018667,27.1188315 118.126467,26.8313648 118.301,26.6208981 C118.475533,26.4104315 118.757867,26.3051981 119.148,26.3051981 C119.538133,26.3051981 119.823033,26.4104315 120.0027,26.6208981 C120.182367,26.8313648 120.292733,27.1188315 120.3338,27.4832981 C120.374867,27.8477648 120.3954,28.2712648 120.3954,28.7537981 L120.3954,28.7537981 L120.3954,31.3409981 C120.3954,31.8132648 120.374867,32.2367648 120.3338,32.6114981 C120.292733,32.9862315 120.182367,33.2762648 120.0027,33.4815981 C119.823033,33.6869315 119.538133,33.7895981 119.148,33.7895981 Z M124.2146,34.4979981 L124.2146,27.1675981 C124.450733,26.9211981 124.702267,26.7209981 124.9692,26.5669981 C125.236133,26.4129981 125.497933,26.3359981 125.7546,26.3359981 C126.042067,26.3359981 126.2551,26.4309648 126.3937,26.6208981 C126.5323,26.8108315 126.6016,27.1367981 126.6016,27.5987981 L126.6016,27.5987981 L126.6016,34.4979981 L127.7258,34.4979981 L127.7258,27.3523981 C127.7258,26.9519981 127.674467,26.6106315 127.5718,26.3282981 C127.469133,26.0459648 127.315133,25.8303648 127.1098,25.6814981 C126.904467,25.5326315 126.652933,25.4581981 126.3552,25.4581981 C125.934267,25.4581981 125.544133,25.5582981 125.1848,25.7584981 C124.825467,25.9586981 124.502067,26.2127981 124.2146,26.5207981 L124.2146,26.5207981 L124.2146,25.5967981 L123.0904,25.5967981 L123.0904,34.4979981 L124.2146,34.4979981 Z M135.1948,34.4979981 L137.0582,25.5967981 L135.9648,25.5967981 L134.5326,33.2043981 L133.085,25.5967981 L131.9454,25.5967981 L133.8704,34.4979981 L135.1948,34.4979981 Z M139.4452,24.3647981 L139.4452,22.8401981 L138.321,22.8401981 L138.321,24.3647981 L139.4452,24.3647981 Z M139.4452,34.4979981 L139.4452,25.5967981 L138.321,25.5967981 L138.321,34.4979981 L139.4452,34.4979981 Z M143.3722,34.6365981 C143.8342,34.6365981 144.2346,34.5518981 144.5734,34.3824981 C144.9122,34.2130981 145.176567,33.9718315 145.3665,33.6586981 C145.556433,33.3455648 145.6514,32.9579981 145.6514,32.4959981 C145.6514,32.0853315 145.579533,31.7285648 145.4358,31.4256981 C145.292067,31.1228315 145.107267,30.8481981 144.8814,30.6017981 C144.655533,30.3553981 144.4194,30.1243981 144.173,29.9087981 L144.173,29.9087981 L142.9102,28.7845981 C142.633,28.5279315 142.443067,28.2969315 142.3404,28.0915981 C142.237733,27.8862648 142.1864,27.6501315 142.1864,27.3831981 C142.1864,27.0443981 142.291633,26.7800315 142.5021,26.5900981 C142.712567,26.4001648 142.9872,26.3051981 143.326,26.3051981 C143.582667,26.3051981 143.800833,26.3667981 143.9805,26.4899981 C144.160167,26.6131981 144.301333,26.8056981 144.404,27.0674981 C144.506667,27.3292981 144.568267,27.6603981 144.5888,28.0607981 L144.5888,28.0607981 L145.3896,27.7989981 C145.3588,27.1111315 145.168867,26.5490315 144.8198,26.1126981 C144.470733,25.6763648 143.9574,25.4581981 143.2798,25.4581981 C142.858867,25.4581981 142.489267,25.5377648 142.171,25.6968981 C141.852733,25.8560315 141.603767,26.0818981 141.4241,26.3744981 C141.244433,26.6670981 141.1546,27.0289981 141.1546,27.4601981 C141.1546,27.9324648 141.257267,28.3379981 141.4626,28.6767981 C141.667933,29.0155981 141.9708,29.3543981 142.3712,29.6931981 L142.3712,29.6931981 L143.5878,30.7403981 C143.9574,31.0586648 144.229467,31.3640981 144.404,31.6566981 C144.578533,31.9492981 144.6658,32.2393315 144.6658,32.5267981 C144.6658,32.9271981 144.560567,33.2377648 144.3501,33.4584981 C144.139633,33.6792315 143.839333,33.7895981 143.4492,33.7895981 C142.9872,33.7895981 142.627867,33.6330315 142.3712,33.3198981 C142.114533,33.0067648 141.9554,32.5062648 141.8938,31.8183981 L141.8938,31.8183981 L140.9544,32.1109981 C141.016,32.8809981 141.257267,33.4944315 141.6782,33.9512981 C142.099133,34.4081648 142.6638,34.6365981 143.3722,34.6365981 Z M148.2386,34.6365981 C148.659533,34.6365981 149.0548,34.5313648 149.4244,34.3208981 C149.794,34.1104315 150.122533,33.8409315 150.41,33.5123981 L150.41,33.5123981 L150.41,34.4979981 L151.5342,34.4979981 L151.5342,25.5967981 L150.41,25.5967981 L150.41,32.8655981 C150.173867,33.1222648 149.919767,33.3327315 149.6477,33.4969981 C149.375633,33.6612648 149.106133,33.7433981 148.8392,33.7433981 C148.551733,33.7433981 148.3387,33.6509981 148.2001,33.4661981 C148.0615,33.2813981 147.9922,32.9579981 147.9922,32.4959981 L147.9922,32.4959981 L147.9922,25.5967981 L146.8526,25.5967981 L146.8526,32.7423981 C146.8526,33.1427981 146.9065,33.4815981 147.0143,33.7587981 C147.1221,34.0359981 147.278667,34.2515981 147.484,34.4055981 C147.689333,34.5595981 147.940867,34.6365981 148.2386,34.6365981 Z M155.1686,33.6817981 C154.901667,33.6817981 154.665533,33.5816981 154.4602,33.3814981 C154.254867,33.1812981 154.1522,32.8450648 154.1522,32.3727981 C154.1522,32.0750648 154.1984,31.8158315 154.2908,31.5950981 C154.3832,31.3743648 154.526933,31.1767315 154.722,31.0021981 C154.917067,30.8276648 155.171167,30.6479981 155.4843,30.4631981 C155.797433,30.2783981 156.174733,30.0730648 156.6162,29.8471981 L156.6162,29.8471981 L156.6162,32.6191981 C156.534067,32.7834648 156.421133,32.9451648 156.2774,33.1042981 C156.133667,33.2634315 155.9694,33.3994648 155.7846,33.5123981 C155.5998,33.6253315 155.394467,33.6817981 155.1686,33.6817981 Z M156.646,33.2670001 L156.657587,33.3829419 C156.671063,33.5090294 156.6932,33.6625481 156.724,33.8434981 C156.765067,34.0847648 156.795867,34.3029315 156.8164,34.4979981 L156.8164,34.4979981 L157.8174,34.4979981 C157.812267,34.4415315 157.807133,34.3722315 157.802,34.2900981 L157.7866,34.0051981 C157.776333,33.7895981 157.766067,33.5611648 157.7558,33.3198981 C157.745533,33.0786315 157.7404,32.8809981 157.7404,32.7269981 L157.7404,32.7269981 L157.7404,28.3995981 C157.7404,27.3934648 157.5787,26.6516981 157.2553,26.1742981 C156.9319,25.6968981 156.3698,25.4581981 155.569,25.4581981 C154.716867,25.4581981 154.103433,25.6763648 153.7287,26.1126981 C153.353967,26.5490315 153.161467,27.2189315 153.1512,28.1223981 L153.1512,28.1223981 L154.26,28.1377981 L154.26,27.8297981 C154.26,27.4396648 154.316467,27.1342315 154.4294,26.9134981 C154.542333,26.6927648 154.6912,26.5361981 154.876,26.4437981 C155.0608,26.3513981 155.271267,26.3051981 155.5074,26.3051981 C155.794867,26.3051981 156.018167,26.3719315 156.1773,26.5053981 C156.336433,26.6388648 156.449367,26.8621648 156.5161,27.1752981 C156.582833,27.4884315 156.6162,27.9170648 156.6162,28.4611981 L156.6162,28.4611981 L156.6162,29.0925981 C155.959133,29.3903315 155.402167,29.6598315 154.9453,29.9010981 C154.488433,30.1423648 154.118833,30.3887648 153.8365,30.6402981 C153.554167,30.8918315 153.348833,31.1767315 153.2205,31.4949981 C153.092167,31.8132648 153.028,32.1982648 153.028,32.6499981 C153.028,33.0093315 153.102433,33.3404315 153.2513,33.6432981 C153.400167,33.9461648 153.608067,34.1874315 153.875,34.3670981 C154.141933,34.5467648 154.455067,34.6365981 154.8144,34.6365981 C155.286667,34.6365981 155.679367,34.4979981 155.9925,34.2207981 C156.305633,33.9435981 156.5238,33.6253315 156.647,33.2659981 L156.646,33.2670001 Z M160.6664,34.4979981 L160.6664,22.0239981 L159.5422,22.0239981 L159.5422,34.4979981 L160.6664,34.4979981 Z" id="Diseñográfcoycomunicaciónvisual" fill="#000000" fill-rule="nonzero"></path>
                <g id="Group-9" fill="#BE351A">
                    <path d="M20.8250502,22.9899281 C19.8078814,22.9899281 19.7914283,23.6847375 19.7914283,27.3290439 C19.7914283,30.9048565 19.875522,31.6680378 20.8250502,31.6680378 C21.7738471,31.6680378 21.8586721,30.9048565 21.8586721,27.3290439 C21.8586721,23.6847375 21.842219,22.9899281 20.8250502,22.9899281" id="Fill-1"></path>
                    <path d="M25.1764876,11.529997 C24.1531031,11.529997 24.1692972,12.7051158 24.1692972,14.4007628 C24.1692972,16.5323566 24.3208032,17.4219223 25.1764876,17.4219223 C25.9825688,17.4219223 26.1340759,16.5323566 26.1340759,14.4007628 C26.1340759,12.7051158 26.150147,11.529997 25.1764876,11.529997" id="Fill-3"></path>
                    <path d="M13.3565133,17.4218857 C14.2128071,17.4218857 14.3644333,16.53232 14.3644333,14.4007262 C14.3644333,12.7050793 14.3800196,11.5299605 13.3565133,11.5299605 C12.3833414,11.5299605 12.399777,12.7050793 12.399777,14.4007262 C12.399777,16.53232 12.5507977,17.4218857 13.3565133,17.4218857" id="Fill-5"></path>
                    <path d="M29.7539543,20.6913289 L35.1675201,20.6913289 L35.1675201,19.8553883 L29.7539543,19.8553883 L29.7539543,20.6913289 Z M28.5007136,18.7153695 L26.2502917,18.7153695 L26.2502917,17.7751038 L26.2181167,17.7751038 C25.7811948,18.596907 25.1266041,18.8829476 24.2196103,18.8829476 C21.7688259,18.8829476 21.8526759,16.1635506 21.8526759,14.4170818 C21.8526759,12.7051036 21.7858884,10.0690692 24.1693978,10.0690692 C25.025326,10.0690692 25.6131291,10.3211067 26.0998979,11.0433379 L26.1341448,11.0433379 L26.1341448,6.59368151 L28.5007136,6.59368151 L28.5007136,18.7153695 Z M20.8250258,33.3966763 C17.6383601,33.3966763 17.4009476,31.0070731 17.4009476,27.295248 C17.4009476,22.7691759 17.909532,21.2606071 20.8250258,21.2606071 C23.7405197,21.2606071 24.2491041,22.7691759 24.2491041,27.295248 C24.2491041,31.0070731 24.0116916,33.3966763 20.8250258,33.3966763 L20.8250258,33.3966763 Z M16.9144225,33.2440888 L9.89722539,33.2440888 L9.89722539,31.1595387 C13.6256255,26.1932542 14.4053818,25.6169073 14.4053818,24.1422197 C14.4053818,23.5488103 14.1852756,22.9898915 13.5076505,22.9898915 C12.524363,22.9898915 12.4732974,23.9222353 12.4732974,24.6846854 L10.0835723,24.6846854 C9.91392227,22.4813071 11.1510754,21.2606071 13.3380005,21.2606071 C15.3887912,21.2606071 16.7958382,22.091429 16.7958382,24.3121135 C16.7958382,26.9728886 13.6939974,29.9899043 12.4056567,31.4135262 L16.9144225,31.4135262 L16.9144225,33.2440888 Z M10.0326285,6.59368151 L12.3998067,6.59368151 L12.3998067,11.0433379 L12.4338099,11.0433379 C12.9205786,10.3211067 13.5083818,10.0690692 14.3643099,10.0690692 C16.7479413,10.0690692 16.6810319,12.7051036 16.6810319,14.4170818 C16.6810319,16.1635506 16.7645163,18.8829476 14.3140974,18.8829476 C13.4071037,18.8829476 12.7521474,18.596907 12.3162005,17.7751038 L12.2821974,17.7751038 L12.2821974,18.7153695 L10.0326285,18.7153695 L10.0326285,6.59368151 Z M18.091857,18.7153695 L20.4586696,18.7153695 L20.4586696,10.2371348 L18.091857,10.2371348 L18.091857,18.7153695 Z M18.091857,8.45739409 L20.4586696,8.45739409 L20.4586696,6.59368151 L18.091857,6.59368151 L18.091857,8.45739409 Z M19.3699601,0.0164531257 C8.67152847,0.0164531257 0,8.68920035 0,19.3848289 C0,30.0841137 8.67152847,38.7562515 19.3699601,38.7562515 C30.0670512,38.7562515 38.7400422,30.0841137 38.7400422,19.3848289 C38.7400422,8.68920035 30.0670512,0.0164531257 19.3699601,0.0164531257 L19.3699601,0.0164531257 Z" id="Fill-7"></path>
                </g>
            </g>
            <line x1="47.55" y1="0.5" x2="222.340882" y2="0.5" id="Path-5-Copy-6" stroke="#000000" stroke-width="0.5"></line>
        </g>
    </g>
</svg>