<?xml version="1.0" encoding="UTF-8"?>
<svg width="223px" height="41px" viewBox="0 0 223 41" version="1.1" xmlns="http://www.w3.org/2000/svg" xmlns:xlink="http://www.w3.org/1999/xlink">
    <title>interiores</title>
    <g id="Page-1" stroke="none" stroke-width="1" fill="none" fill-rule="evenodd">
        <g id="interiores" transform="translate(-0.000000, 0.000000)">
            <g transform="translate(0.000000, 2.000000)">
                <path d="M51.9116,18.2489991 C52.7432,18.2489991 53.3951333,18.0898658 53.8674,17.7715991 C54.3396667,17.4533325 54.6784667,17.0041658 54.8838,16.4240991 C55.0891333,15.8440325 55.1918,15.1689991 55.1918,14.3989991 L55.1918,14.3989991 L55.1918,9.44019912 C55.1918,8.71126579 55.0891333,8.06959912 54.8838,7.51519912 C54.6784667,6.96079912 54.3319667,6.53216579 53.8443,6.22929912 C53.3566333,5.92643245 52.6764667,5.77499912 51.8038,5.77499912 L51.8038,5.77499912 L49.0934,5.77499912 L49.0934,18.2489991 L51.9116,18.2489991 Z M51.8346,17.3711991 L50.2638,17.3711991 L50.2638,6.68359912 L51.7884,6.68359912 C52.4146667,6.68359912 52.8843667,6.79396579 53.1975,7.01469912 C53.5106333,7.23543245 53.7211,7.55883245 53.8289,7.98489912 C53.9367,8.41096579 53.9906,8.93713245 53.9906,9.56339912 L53.9906,9.56339912 L53.9906,14.2141991 C53.9906,14.8199325 53.9495333,15.3614991 53.8674,15.8388991 C53.7852667,16.3162991 53.5902,16.6910325 53.2822,16.9630991 C52.9742,17.2351658 52.4916667,17.3711991 51.8346,17.3711991 L51.8346,17.3711991 Z M58.1332,8.11579912 L58.1332,6.59119912 L57.009,6.59119912 L57.009,8.11579912 L58.1332,8.11579912 Z M58.1332,18.2489991 L58.1332,9.34779912 L57.009,9.34779912 L57.009,18.2489991 L58.1332,18.2489991 Z M62.0602,18.3875991 C62.5222,18.3875991 62.9226,18.3028991 63.2614,18.1334991 C63.6002,17.9640991 63.8645667,17.7228325 64.0545,17.4096991 C64.2444333,17.0965658 64.3394,16.7089991 64.3394,16.2469991 C64.3394,15.8363325 64.2675333,15.4795658 64.1238,15.1766991 C63.9800667,14.8738325 63.7952667,14.5991991 63.5694,14.3527991 C63.3435333,14.1063991 63.1074,13.8753991 62.861,13.6597991 L62.861,13.6597991 L61.5982,12.5355991 C61.321,12.2789325 61.1310667,12.0479325 61.0284,11.8425991 C60.9257333,11.6372658 60.8744,11.4011325 60.8744,11.1341991 C60.8744,10.7953991 60.9796333,10.5310325 61.1901,10.3410991 C61.4005667,10.1511658 61.6752,10.0561991 62.014,10.0561991 C62.2706667,10.0561991 62.4888333,10.1177991 62.6685,10.2409991 C62.8481667,10.3641991 62.9893333,10.5566991 63.092,10.8184991 C63.1946667,11.0802991 63.2562667,11.4113991 63.2768,11.8117991 L63.2768,11.8117991 L64.0776,11.5499991 C64.0468,10.8621325 63.8568667,10.3000325 63.5078,9.86369912 C63.1587333,9.42736579 62.6454,9.20919912 61.9678,9.20919912 C61.5468667,9.20919912 61.1772667,9.28876579 60.859,9.44789912 C60.5407333,9.60703245 60.2917667,9.83289912 60.1121,10.1254991 C59.9324333,10.4180991 59.8426,10.7799991 59.8426,11.2111991 C59.8426,11.6834658 59.9452667,12.0889991 60.1506,12.4277991 C60.3559333,12.7665991 60.6588,13.1053991 61.0592,13.4441991 L61.0592,13.4441991 L62.2758,14.4913991 C62.6454,14.8096658 62.9174667,15.1150991 63.092,15.4076991 C63.2665333,15.7002991 63.3538,15.9903325 63.3538,16.2777991 C63.3538,16.6781991 63.2485667,16.9887658 63.0381,17.2094991 C62.8276333,17.4302325 62.5273333,17.5405991 62.1372,17.5405991 C61.6752,17.5405991 61.3158667,17.3840325 61.0592,17.0708991 C60.8025333,16.7577658 60.6434,16.2572658 60.5818,15.5693991 L60.5818,15.5693991 L59.6424,15.8619991 C59.704,16.6319991 59.9452667,17.2454325 60.3662,17.7022991 C60.7871333,18.1591658 61.3518,18.3875991 62.0602,18.3875991 Z M67.8506,18.3875991 C68.7232667,18.3875991 69.3264333,18.1437658 69.6601,17.6560991 C69.9937667,17.1684325 70.1606,16.5190658 70.1606,15.7079991 L70.1606,15.7079991 L70.1606,15.2151991 L69.0672,15.2151991 L69.0672,15.8311991 C69.0672,16.2931991 69.0133,16.6499658 68.9055,16.9014991 C68.7977,17.1530325 68.6514,17.3224325 68.4666,17.4096991 C68.2818,17.4969658 68.0764667,17.5405991 67.8506,17.5405991 C67.5528667,17.5405991 67.3090333,17.4687325 67.1191,17.3249991 C66.9291667,17.1812658 66.7905667,16.9425658 66.7033,16.6088991 C66.6160333,16.2752325 66.5724,15.8209325 66.5724,15.2459991 L66.5724,15.2459991 L66.5724,13.6905991 L70.176,13.6905991 L70.176,12.8897991 C70.176,12.0479325 70.1118333,11.3574991 69.9835,10.8184991 C69.8551667,10.2794991 69.6267333,9.87653245 69.2982,9.60959912 C68.9696667,9.34266579 68.4922667,9.20919912 67.866,9.20919912 C67.3218667,9.20919912 66.8701333,9.31443245 66.5108,9.52489912 C66.1514667,9.73536579 65.8845333,10.0895658 65.71,10.5874991 C65.5354667,11.0854325 65.4482,11.7758658 65.4482,12.6587991 L65.4482,12.6587991 L65.4482,14.9071991 C65.4482,15.7593325 65.5329,16.4420658 65.7023,16.9553991 C65.8717,17.4687325 66.1335,17.8357658 66.4877,18.0564991 C66.8419,18.2772325 67.2962,18.3875991 67.8506,18.3875991 Z M69.0672,13.0437991 L66.5724,13.0437991 L66.5724,12.4431991 C66.5724,11.8066658 66.6134667,11.3164325 66.6956,10.9724991 C66.7777333,10.6285658 66.9137667,10.3898658 67.1037,10.2563991 C67.2936333,10.1229325 67.5426,10.0561991 67.8506,10.0561991 C68.2202,10.0561991 68.4897,10.1460325 68.6591,10.3256991 C68.8285,10.5053658 68.9388667,10.7620325 68.9902,11.0956991 C69.0415333,11.4293658 69.0672,11.8323325 69.0672,12.3045991 L69.0672,12.3045991 L69.0672,13.0437991 Z M74.9346,7.59219912 C75.2426,7.59219912 75.4736,7.51263245 75.6276,7.35349912 C75.7816,7.19436579 75.8817,7.00443245 75.9279,6.78369912 C75.9741,6.56296579 75.9972,6.36019912 75.9972,6.17539912 L75.9972,6.17539912 L75.3196,6.17539912 C75.3196,6.42179912 75.2785333,6.59376579 75.1964,6.69129912 C75.1142667,6.78883245 74.9859333,6.83759912 74.8114,6.83759912 C74.6266,6.83759912 74.4469333,6.77599912 74.2724,6.65279912 C74.0978667,6.52959912 73.9130667,6.40896579 73.718,6.29089912 C73.5229333,6.17283245 73.3022,6.11379912 73.0558,6.11379912 C72.7683333,6.11379912 72.5476,6.19079912 72.3936,6.34479912 C72.2396,6.49879912 72.1343667,6.68103245 72.0779,6.89149912 C72.0214333,7.10196579 71.9932,7.29446579 71.9932,7.46899912 L71.9932,7.46899912 L72.6862,7.46899912 C72.6862,7.26366579 72.7298333,7.10966579 72.8171,7.00699912 C72.9043667,6.90433245 73.0301333,6.85299912 73.1944,6.85299912 C73.3792,6.85299912 73.5563,6.91459912 73.7257,7.03779912 C73.8951,7.16099912 74.0773333,7.28419912 74.2724,7.40739912 C74.4674667,7.53059912 74.6882,7.59219912 74.9346,7.59219912 Z M72.8248,18.2489991 L72.8248,10.9185991 C73.0609333,10.6721991 73.3124667,10.4719991 73.5794,10.3179991 C73.8463333,10.1639991 74.1081333,10.0869991 74.3648,10.0869991 C74.6522667,10.0869991 74.8653,10.1819658 75.0039,10.3718991 C75.1425,10.5618325 75.2118,10.8877991 75.2118,11.3497991 L75.2118,11.3497991 L75.2118,18.2489991 L76.336,18.2489991 L76.336,11.1033991 C76.336,10.7029991 76.2846667,10.3616325 76.182,10.0792991 C76.0793333,9.79696579 75.9253333,9.58136579 75.72,9.43249912 C75.5146667,9.28363245 75.2631333,9.20919912 74.9654,9.20919912 C74.5444667,9.20919912 74.1543333,9.30929912 73.795,9.50949912 C73.4356667,9.70969912 73.1122667,9.96379912 72.8248,10.2717991 L72.8248,10.2717991 L72.8248,9.34779912 L71.7006,9.34779912 L71.7006,18.2489991 L72.8248,18.2489991 Z M80.2014,18.3875991 C80.8276667,18.3875991 81.3102,18.2566991 81.649,17.9948991 C81.9878,17.7330991 82.2290667,17.3532325 82.3728,16.8552991 C82.5165333,16.3573658 82.5884,15.7490658 82.5884,15.0303991 L82.5884,15.0303991 L82.5884,12.5663991 C82.5884,11.8477325 82.5165333,11.2394325 82.3728,10.7414991 C82.2290667,10.2435658 81.9878,9.86369912 81.649,9.60189912 C81.3102,9.34009912 80.8276667,9.20919912 80.2014,9.20919912 C79.5956667,9.20919912 79.1208333,9.34009912 78.7769,9.60189912 C78.4329667,9.86369912 78.1891333,10.2435658 78.0454,10.7414991 C77.9016667,11.2394325 77.8298,11.8477325 77.8298,12.5663991 L77.8298,12.5663991 L77.8298,15.0303991 C77.8298,15.7490658 77.9016667,16.3573658 78.0454,16.8552991 C78.1891333,17.3532325 78.4329667,17.7330991 78.7769,17.9948991 C79.1208333,18.2566991 79.5956667,18.3875991 80.2014,18.3875991 Z M80.2014,17.5405991 C79.8112667,17.5405991 79.5289333,17.4379325 79.3544,17.2325991 C79.1798667,17.0272658 79.0720667,16.7372325 79.031,16.3624991 C78.9899333,15.9877658 78.9694,15.5642658 78.9694,15.0919991 L78.9694,15.0919991 L78.9694,12.5047991 C78.9694,12.0222658 78.9899333,11.5987658 79.031,11.2342991 C79.0720667,10.8698325 79.1798667,10.5823658 79.3544,10.3718991 C79.5289333,10.1614325 79.8112667,10.0561991 80.2014,10.0561991 C80.5915333,10.0561991 80.8764333,10.1614325 81.0561,10.3718991 C81.2357667,10.5823658 81.3461333,10.8698325 81.3872,11.2342991 C81.4282667,11.5987658 81.4488,12.0222658 81.4488,12.5047991 L81.4488,12.5047991 L81.4488,15.0919991 C81.4488,15.5642658 81.4282667,15.9877658 81.3872,16.3624991 C81.3461333,16.7372325 81.2357667,17.0272658 81.0561,17.2325991 C80.8764333,17.4379325 80.5915333,17.5405991 80.2014,17.5405991 Z M89.2566,18.3875991 C89.5954,18.3875991 89.8905667,18.3080325 90.1421,18.1488991 C90.3936333,17.9897658 90.6066667,17.8126658 90.7812,17.6175991 L90.7812,17.6175991 L90.7812,18.2489991 L91.9054,18.2489991 L91.9054,5.77499912 L90.7812,5.77499912 L90.7812,9.97919912 C90.6066667,9.78413245 90.3885,9.60703245 90.1267,9.44789912 C89.8649,9.28876579 89.5594667,9.20919912 89.2104,9.20919912 C88.6457333,9.20919912 88.2119667,9.36576579 87.9091,9.67889912 C87.6062333,9.99203245 87.3983333,10.4309325 87.2854,10.9955991 C87.1724667,11.5602658 87.116,12.2327325 87.116,13.0129991 L87.116,13.0129991 L87.116,14.6607991 C87.116,15.9954658 87.2828333,16.9502658 87.6165,17.5251991 C87.9501667,18.1001325 88.4968667,18.3875991 89.2566,18.3875991 Z M89.4876,17.4943991 C89.1488,17.4943991 88.8895667,17.3917325 88.7099,17.1863991 C88.5302333,16.9810658 88.4070333,16.6730658 88.3403,16.2623991 C88.2735667,15.8517325 88.2402,15.3486658 88.2402,14.7531991 L88.2402,14.7531991 L88.2402,12.6433991 C88.2402,11.8117991 88.3197667,11.1778325 88.4789,10.7414991 C88.6380333,10.3051658 88.964,10.0869991 89.4568,10.0869991 C89.734,10.0869991 89.9855333,10.1562991 90.2114,10.2948991 C90.4372667,10.4334991 90.6272,10.5746658 90.7812,10.7183991 L90.7812,10.7183991 L90.7812,16.9091991 C90.6066667,17.0734658 90.4090333,17.2120658 90.1883,17.3249991 C89.9675667,17.4379325 89.734,17.4943991 89.4876,17.4943991 Z M95.8786,18.3875991 C96.7512667,18.3875991 97.3544333,18.1437658 97.6881,17.6560991 C98.0217667,17.1684325 98.1886,16.5190658 98.1886,15.7079991 L98.1886,15.7079991 L98.1886,15.2151991 L97.0952,15.2151991 L97.0952,15.8311991 C97.0952,16.2931991 97.0413,16.6499658 96.9335,16.9014991 C96.8257,17.1530325 96.6794,17.3224325 96.4946,17.4096991 C96.3098,17.4969658 96.1044667,17.5405991 95.8786,17.5405991 C95.5808667,17.5405991 95.3370333,17.4687325 95.1471,17.3249991 C94.9571667,17.1812658 94.8185667,16.9425658 94.7313,16.6088991 C94.6440333,16.2752325 94.6004,15.8209325 94.6004,15.2459991 L94.6004,15.2459991 L94.6004,13.6905991 L98.204,13.6905991 L98.204,12.8897991 C98.204,12.0479325 98.1398333,11.3574991 98.0115,10.8184991 C97.8831667,10.2794991 97.6547333,9.87653245 97.3262,9.60959912 C96.9976667,9.34266579 96.5202667,9.20919912 95.894,9.20919912 C95.3498667,9.20919912 94.8981333,9.31443245 94.5388,9.52489912 C94.1794667,9.73536579 93.9125333,10.0895658 93.738,10.5874991 C93.5634667,11.0854325 93.4762,11.7758658 93.4762,12.6587991 L93.4762,12.6587991 L93.4762,14.9071991 C93.4762,15.7593325 93.5609,16.4420658 93.7303,16.9553991 C93.8997,17.4687325 94.1615,17.8357658 94.5157,18.0564991 C94.8699,18.2772325 95.3242,18.3875991 95.8786,18.3875991 Z M97.0952,13.0437991 L94.6004,13.0437991 L94.6004,12.4431991 C94.6004,11.8066658 94.6414667,11.3164325 94.7236,10.9724991 C94.8057333,10.6285658 94.9417667,10.3898658 95.1317,10.2563991 C95.3216333,10.1229325 95.5706,10.0561991 95.8786,10.0561991 C96.2482,10.0561991 96.5177,10.1460325 96.6871,10.3256991 C96.8565,10.5053658 96.9668667,10.7620325 97.0182,11.0956991 C97.0695333,11.4293658 97.0952,11.8323325 97.0952,12.3045991 L97.0952,12.3045991 L97.0952,13.0437991 Z M104.1176,8.11579912 L104.1176,6.59119912 L102.9934,6.59119912 L102.9934,8.11579912 L104.1176,8.11579912 Z M104.1176,18.2489991 L104.1176,9.34779912 L102.9934,9.34779912 L102.9934,18.2489991 L104.1176,18.2489991 Z M107.136,18.2489991 L107.136,10.9185991 C107.372133,10.6721991 107.623667,10.4719991 107.8906,10.3179991 C108.157533,10.1639991 108.419333,10.0869991 108.676,10.0869991 C108.963467,10.0869991 109.1765,10.1819658 109.3151,10.3718991 C109.4537,10.5618325 109.523,10.8877991 109.523,11.3497991 L109.523,11.3497991 L109.523,18.2489991 L110.6472,18.2489991 L110.6472,11.1033991 C110.6472,10.7029991 110.595867,10.3616325 110.4932,10.0792991 C110.390533,9.79696579 110.236533,9.58136579 110.0312,9.43249912 C109.825867,9.28363245 109.574333,9.20919912 109.2766,9.20919912 C108.855667,9.20919912 108.465533,9.30929912 108.1062,9.50949912 C107.746867,9.70969912 107.423467,9.96379912 107.136,10.2717991 L107.136,10.2717991 L107.136,9.34779912 L106.0118,9.34779912 L106.0118,18.2489991 L107.136,18.2489991 Z M114.4202,18.3567991 C114.5742,18.3567991 114.733333,18.3490991 114.8976,18.3336991 C115.061867,18.3182991 115.221,18.2951991 115.375,18.2643991 L115.375,18.2643991 L115.375,17.4019991 C115.272333,17.4225325 115.161967,17.4404991 115.0439,17.4558991 C114.925833,17.4712991 114.8206,17.4789991 114.7282,17.4789991 C114.399667,17.4789991 114.186633,17.3891658 114.0891,17.2094991 C113.991567,17.0298325 113.9428,16.7243991 113.9428,16.2931991 L113.9428,16.2931991 L113.9428,10.0869991 L115.4212,10.0869991 L115.4212,9.34779912 L113.9428,9.34779912 L113.9428,6.59119912 L112.8186,6.59119912 L112.8186,9.34779912 L111.7252,9.34779912 L111.7252,10.0869991 L112.8186,10.0869991 L112.8186,16.4009991 C112.8186,16.7808658 112.862233,17.1170991 112.9495,17.4096991 C113.036767,17.7022991 113.1959,17.9332991 113.4269,18.1026991 C113.6579,18.2720991 113.989,18.3567991 114.4202,18.3567991 Z M118.8554,18.3875991 C119.728067,18.3875991 120.331233,18.1437658 120.6649,17.6560991 C120.998567,17.1684325 121.1654,16.5190658 121.1654,15.7079991 L121.1654,15.7079991 L121.1654,15.2151991 L120.072,15.2151991 L120.072,15.8311991 C120.072,16.2931991 120.0181,16.6499658 119.9103,16.9014991 C119.8025,17.1530325 119.6562,17.3224325 119.4714,17.4096991 C119.2866,17.4969658 119.081267,17.5405991 118.8554,17.5405991 C118.557667,17.5405991 118.313833,17.4687325 118.1239,17.3249991 C117.933967,17.1812658 117.795367,16.9425658 117.7081,16.6088991 C117.620833,16.2752325 117.5772,15.8209325 117.5772,15.2459991 L117.5772,15.2459991 L117.5772,13.6905991 L121.1808,13.6905991 L121.1808,12.8897991 C121.1808,12.0479325 121.116633,11.3574991 120.9883,10.8184991 C120.859967,10.2794991 120.631533,9.87653245 120.303,9.60959912 C119.974467,9.34266579 119.497067,9.20919912 118.8708,9.20919912 C118.326667,9.20919912 117.874933,9.31443245 117.5156,9.52489912 C117.156267,9.73536579 116.889333,10.0895658 116.7148,10.5874991 C116.540267,11.0854325 116.453,11.7758658 116.453,12.6587991 L116.453,12.6587991 L116.453,14.9071991 C116.453,15.7593325 116.5377,16.4420658 116.7071,16.9553991 C116.8765,17.4687325 117.1383,17.8357658 117.4925,18.0564991 C117.8467,18.2772325 118.301,18.3875991 118.8554,18.3875991 Z M120.072,13.0437991 L117.5772,13.0437991 L117.5772,12.4431991 C117.5772,11.8066658 117.618267,11.3164325 117.7004,10.9724991 C117.782533,10.6285658 117.918567,10.3898658 118.1085,10.2563991 C118.298433,10.1229325 118.5474,10.0561991 118.8554,10.0561991 C119.225,10.0561991 119.4945,10.1460325 119.6639,10.3256991 C119.8333,10.5053658 119.943667,10.7620325 119.995,11.0956991 C120.046333,11.4293658 120.072,11.8323325 120.072,12.3045991 L120.072,12.3045991 L120.072,13.0437991 Z M123.922,18.2489991 L123.922,11.4113991 C124.1376,11.0520658 124.386567,10.7902658 124.6689,10.6259991 C124.951233,10.4617325 125.266933,10.3795991 125.616,10.3795991 C125.7084,10.3795991 125.805933,10.3872991 125.9086,10.4026991 C126.011267,10.4180991 126.098533,10.4411991 126.1704,10.4719991 L126.1704,10.4719991 L126.1704,9.27079912 C126.129333,9.26053245 126.0934,9.25539912 126.0626,9.25539912 L126.0626,9.25539912 L125.9702,9.25539912 C125.6314,9.25539912 125.2772,9.35549912 124.9076,9.55569912 C124.538,9.75589912 124.209467,10.0921325 123.922,10.5643991 L123.922,10.5643991 L123.922,9.34779912 L122.7824,9.34779912 L122.7824,18.2489991 L123.922,18.2489991 Z M128.5266,8.11579912 L128.5266,6.59119912 L127.4024,6.59119912 L127.4024,8.11579912 L128.5266,8.11579912 Z M128.5266,18.2489991 L128.5266,9.34779912 L127.4024,9.34779912 L127.4024,18.2489991 L128.5266,18.2489991 Z M132.623,18.3875991 C133.249267,18.3875991 133.7318,18.2566991 134.0706,17.9948991 C134.4094,17.7330991 134.650667,17.3532325 134.7944,16.8552991 C134.938133,16.3573658 135.01,15.7490658 135.01,15.0303991 L135.01,15.0303991 L135.01,12.5663991 C135.01,11.8477325 134.938133,11.2394325 134.7944,10.7414991 C134.650667,10.2435658 134.4094,9.86369912 134.0706,9.60189912 C133.7318,9.34009912 133.249267,9.20919912 132.623,9.20919912 C132.017267,9.20919912 131.542433,9.34009912 131.1985,9.60189912 C130.854567,9.86369912 130.610733,10.2435658 130.467,10.7414991 C130.323267,11.2394325 130.2514,11.8477325 130.2514,12.5663991 L130.2514,12.5663991 L130.2514,15.0303991 C130.2514,15.7490658 130.323267,16.3573658 130.467,16.8552991 C130.610733,17.3532325 130.854567,17.7330991 131.1985,17.9948991 C131.542433,18.2566991 132.017267,18.3875991 132.623,18.3875991 Z M132.623,17.5405991 C132.232867,17.5405991 131.950533,17.4379325 131.776,17.2325991 C131.601467,17.0272658 131.493667,16.7372325 131.4526,16.3624991 C131.411533,15.9877658 131.391,15.5642658 131.391,15.0919991 L131.391,15.0919991 L131.391,12.5047991 C131.391,12.0222658 131.411533,11.5987658 131.4526,11.2342991 C131.493667,10.8698325 131.601467,10.5823658 131.776,10.3718991 C131.950533,10.1614325 132.232867,10.0561991 132.623,10.0561991 C133.013133,10.0561991 133.298033,10.1614325 133.4777,10.3718991 C133.657367,10.5823658 133.767733,10.8698325 133.8088,11.2342991 C133.849867,11.5987658 133.8704,12.0222658 133.8704,12.5047991 L133.8704,12.5047991 L133.8704,15.0919991 C133.8704,15.5642658 133.849867,15.9877658 133.8088,16.3624991 C133.767733,16.7372325 133.657367,17.0272658 133.4777,17.2325991 C133.298033,17.4379325 133.013133,17.5405991 132.623,17.5405991 Z M137.782,18.2489991 L137.782,11.4113991 C137.9976,11.0520658 138.246567,10.7902658 138.5289,10.6259991 C138.811233,10.4617325 139.126933,10.3795991 139.476,10.3795991 C139.5684,10.3795991 139.665933,10.3872991 139.7686,10.4026991 C139.871267,10.4180991 139.958533,10.4411991 140.0304,10.4719991 L140.0304,10.4719991 L140.0304,9.27079912 C139.989333,9.26053245 139.9534,9.25539912 139.9226,9.25539912 L139.9226,9.25539912 L139.8302,9.25539912 C139.4914,9.25539912 139.1372,9.35549912 138.7676,9.55569912 C138.398,9.75589912 138.069467,10.0921325 137.782,10.5643991 L137.782,10.5643991 L137.782,9.34779912 L136.6424,9.34779912 L136.6424,18.2489991 L137.782,18.2489991 Z M143.3414,18.3875991 C144.214067,18.3875991 144.817233,18.1437658 145.1509,17.6560991 C145.484567,17.1684325 145.6514,16.5190658 145.6514,15.7079991 L145.6514,15.7079991 L145.6514,15.2151991 L144.558,15.2151991 L144.558,15.8311991 C144.558,16.2931991 144.5041,16.6499658 144.3963,16.9014991 C144.2885,17.1530325 144.1422,17.3224325 143.9574,17.4096991 C143.7726,17.4969658 143.567267,17.5405991 143.3414,17.5405991 C143.043667,17.5405991 142.799833,17.4687325 142.6099,17.3249991 C142.419967,17.1812658 142.281367,16.9425658 142.1941,16.6088991 C142.106833,16.2752325 142.0632,15.8209325 142.0632,15.2459991 L142.0632,15.2459991 L142.0632,13.6905991 L145.6668,13.6905991 L145.6668,12.8897991 C145.6668,12.0479325 145.602633,11.3574991 145.4743,10.8184991 C145.345967,10.2794991 145.117533,9.87653245 144.789,9.60959912 C144.460467,9.34266579 143.983067,9.20919912 143.3568,9.20919912 C142.812667,9.20919912 142.360933,9.31443245 142.0016,9.52489912 C141.642267,9.73536579 141.375333,10.0895658 141.2008,10.5874991 C141.026267,11.0854325 140.939,11.7758658 140.939,12.6587991 L140.939,12.6587991 L140.939,14.9071991 C140.939,15.7593325 141.0237,16.4420658 141.1931,16.9553991 C141.3625,17.4687325 141.6243,17.8357658 141.9785,18.0564991 C142.3327,18.2772325 142.787,18.3875991 143.3414,18.3875991 Z M144.558,13.0437991 L142.0632,13.0437991 L142.0632,12.4431991 C142.0632,11.8066658 142.104267,11.3164325 142.1864,10.9724991 C142.268533,10.6285658 142.404567,10.3898658 142.5945,10.2563991 C142.784433,10.1229325 143.0334,10.0561991 143.3414,10.0561991 C143.711,10.0561991 143.9805,10.1460325 144.1499,10.3256991 C144.3193,10.5053658 144.429667,10.7620325 144.481,11.0956991 C144.532333,11.4293658 144.558,11.8323325 144.558,12.3045991 L144.558,12.3045991 L144.558,13.0437991 Z M149.2242,18.3875991 C149.6862,18.3875991 150.0866,18.3028991 150.4254,18.1334991 C150.7642,17.9640991 151.028567,17.7228325 151.2185,17.4096991 C151.408433,17.0965658 151.5034,16.7089991 151.5034,16.2469991 C151.5034,15.8363325 151.431533,15.4795658 151.2878,15.1766991 C151.144067,14.8738325 150.959267,14.5991991 150.7334,14.3527991 C150.507533,14.1063991 150.2714,13.8753991 150.025,13.6597991 L150.025,13.6597991 L148.7622,12.5355991 C148.485,12.2789325 148.295067,12.0479325 148.1924,11.8425991 C148.089733,11.6372658 148.0384,11.4011325 148.0384,11.1341991 C148.0384,10.7953991 148.143633,10.5310325 148.3541,10.3410991 C148.564567,10.1511658 148.8392,10.0561991 149.178,10.0561991 C149.434667,10.0561991 149.652833,10.1177991 149.8325,10.2409991 C150.012167,10.3641991 150.153333,10.5566991 150.256,10.8184991 C150.358667,11.0802991 150.420267,11.4113991 150.4408,11.8117991 L150.4408,11.8117991 L151.2416,11.5499991 C151.2108,10.8621325 151.020867,10.3000325 150.6718,9.86369912 C150.322733,9.42736579 149.8094,9.20919912 149.1318,9.20919912 C148.710867,9.20919912 148.341267,9.28876579 148.023,9.44789912 C147.704733,9.60703245 147.455767,9.83289912 147.2761,10.1254991 C147.096433,10.4180991 147.0066,10.7799991 147.0066,11.2111991 C147.0066,11.6834658 147.109267,12.0889991 147.3146,12.4277991 C147.519933,12.7665991 147.8228,13.1053991 148.2232,13.4441991 L148.2232,13.4441991 L149.4398,14.4913991 C149.8094,14.8096658 150.081467,15.1150991 150.256,15.4076991 C150.430533,15.7002991 150.5178,15.9903325 150.5178,16.2777991 C150.5178,16.6781991 150.412567,16.9887658 150.2021,17.2094991 C149.991633,17.4302325 149.691333,17.5405991 149.3012,17.5405991 C148.8392,17.5405991 148.479867,17.3840325 148.2232,17.0708991 C147.966533,16.7577658 147.8074,16.2572658 147.7458,15.5693991 L147.7458,15.5693991 L146.8064,15.8619991 C146.868,16.6319991 147.109267,17.2454325 147.5302,17.7022991 C147.951133,18.1591658 148.5158,18.3875991 149.2242,18.3875991 Z M49.3706,34.4979981 L52.9126,22.0239981 L51.927,22.0239981 L48.3696,34.4979981 L49.3706,34.4979981 Z M59.5346,34.6365981 C60.4072667,34.6365981 61.0104333,34.3927648 61.3441,33.9050981 C61.6777667,33.4174315 61.8446,32.7680648 61.8446,31.9569981 L61.8446,31.9569981 L61.8446,31.4641981 L60.7512,31.4641981 L60.7512,32.0801981 C60.7512,32.5421981 60.6973,32.8989648 60.5895,33.1504981 C60.4817,33.4020315 60.3354,33.5714315 60.1506,33.6586981 C59.9658,33.7459648 59.7604667,33.7895981 59.5346,33.7895981 C59.2368667,33.7895981 58.9930333,33.7177315 58.8031,33.5739981 C58.6131667,33.4302648 58.4745667,33.1915648 58.3873,32.8578981 C58.3000333,32.5242315 58.2564,32.0699315 58.2564,31.4949981 L58.2564,31.4949981 L58.2564,29.9395981 L61.86,29.9395981 L61.86,29.1387981 C61.86,28.2969315 61.7958333,27.6064981 61.6675,27.0674981 C61.5391667,26.5284981 61.3107333,26.1255315 60.9822,25.8585981 C60.6536667,25.5916648 60.1762667,25.4581981 59.55,25.4581981 C59.0058667,25.4581981 58.5541333,25.5634315 58.1948,25.7738981 C57.8354667,25.9843648 57.5685333,26.3385648 57.394,26.8364981 C57.2194667,27.3344315 57.1322,28.0248648 57.1322,28.9077981 L57.1322,28.9077981 L57.1322,31.1561981 C57.1322,32.0083315 57.2169,32.6910648 57.3863,33.2043981 C57.5557,33.7177315 57.8175,34.0847648 58.1717,34.3054981 C58.5259,34.5262315 58.9802,34.6365981 59.5346,34.6365981 Z M60.7512,29.2927981 L58.2564,29.2927981 L58.2564,28.6921981 C58.2564,28.0556648 58.2974667,27.5654315 58.3796,27.2214981 C58.4617333,26.8775648 58.5977667,26.6388648 58.7877,26.5053981 C58.9776333,26.3719315 59.2266,26.3051981 59.5346,26.3051981 C59.9042,26.3051981 60.1737,26.3950315 60.3431,26.5746981 C60.5125,26.7543648 60.6228667,27.0110315 60.6742,27.3446981 C60.7255333,27.6783648 60.7512,28.0813315 60.7512,28.5535981 L60.7512,28.5535981 L60.7512,29.2927981 Z M65.4174,34.6365981 C65.8794,34.6365981 66.2798,34.5518981 66.6186,34.3824981 C66.9574,34.2130981 67.2217667,33.9718315 67.4117,33.6586981 C67.6016333,33.3455648 67.6966,32.9579981 67.6966,32.4959981 C67.6966,32.0853315 67.6247333,31.7285648 67.481,31.4256981 C67.3372667,31.1228315 67.1524667,30.8481981 66.9266,30.6017981 C66.7007333,30.3553981 66.4646,30.1243981 66.2182,29.9087981 L66.2182,29.9087981 L64.9554,28.7845981 C64.6782,28.5279315 64.4882667,28.2969315 64.3856,28.0915981 C64.2829333,27.8862648 64.2316,27.6501315 64.2316,27.3831981 C64.2316,27.0443981 64.3368333,26.7800315 64.5473,26.5900981 C64.7577667,26.4001648 65.0324,26.3051981 65.3712,26.3051981 C65.6278667,26.3051981 65.8460333,26.3667981 66.0257,26.4899981 C66.2053667,26.6131981 66.3465333,26.8056981 66.4492,27.0674981 C66.5518667,27.3292981 66.6134667,27.6603981 66.634,28.0607981 L66.634,28.0607981 L67.4348,27.7989981 C67.404,27.1111315 67.2140667,26.5490315 66.865,26.1126981 C66.5159333,25.6763648 66.0026,25.4581981 65.325,25.4581981 C64.9040667,25.4581981 64.5344667,25.5377648 64.2162,25.6968981 C63.8979333,25.8560315 63.6489667,26.0818981 63.4693,26.3744981 C63.2896333,26.6670981 63.1998,27.0289981 63.1998,27.4601981 C63.1998,27.9324648 63.3024667,28.3379981 63.5078,28.6767981 C63.7131333,29.0155981 64.016,29.3543981 64.4164,29.6931981 L64.4164,29.6931981 L65.633,30.7403981 C66.0026,31.0586648 66.2746667,31.3640981 66.4492,31.6566981 C66.6237333,31.9492981 66.711,32.2393315 66.711,32.5267981 C66.711,32.9271981 66.6057667,33.2377648 66.3953,33.4584981 C66.1848333,33.6792315 65.8845333,33.7895981 65.4944,33.7895981 C65.0324,33.7895981 64.6730667,33.6330315 64.4164,33.3198981 C64.1597333,33.0067648 64.0006,32.5062648 63.939,31.8183981 L63.939,31.8183981 L62.9996,32.1109981 C63.0612,32.8809981 63.3024667,33.4944315 63.7234,33.9512981 C64.1443333,34.4081648 64.709,34.6365981 65.4174,34.6365981 Z M70.099,37.4239981 L70.099,33.7895981 C70.2735333,33.9846648 70.4917,34.1745981 70.7535,34.3593981 C71.0153,34.5441981 71.3258667,34.6365981 71.6852,34.6365981 C72.2396,34.6365981 72.6733667,34.4800315 72.9865,34.1668981 C73.2996333,33.8537648 73.5178,33.4174315 73.641,32.8578981 C73.7642,32.2983648 73.8258,31.6387315 73.8258,30.8789981 L73.8258,30.8789981 L73.8258,29.0001981 C73.8258,28.5587315 73.8001333,28.1275315 73.7488,27.7065981 C73.6974667,27.2856648 73.5999333,26.9057981 73.4562,26.5669981 C73.3124667,26.2281981 73.1097,25.9586981 72.8479,25.7584981 C72.5861,25.5582981 72.2396,25.4581981 71.8084,25.4581981 C71.408,25.4581981 71.0692,25.5480315 70.792,25.7276981 C70.5148,25.9073648 70.2838,26.1101315 70.099,26.3359981 L70.099,26.3359981 L70.099,25.5967981 L68.9748,25.5967981 L68.9748,37.4239981 L70.099,37.4239981 Z M71.5158,33.7433981 C71.2180667,33.7433981 70.9485667,33.6792315 70.7073,33.5508981 C70.4660333,33.4225648 70.2632667,33.2711315 70.099,33.0965981 L70.099,33.0965981 L70.099,27.0289981 C70.253,26.8749981 70.4506333,26.7209981 70.6919,26.5669981 C70.9331667,26.4129981 71.1975333,26.3359981 71.485,26.3359981 C71.8340667,26.3359981 72.0958667,26.4386648 72.2704,26.6439981 C72.4449333,26.8493315 72.5604333,27.1496315 72.6169,27.5448981 C72.6733667,27.9401648 72.7016,28.4252648 72.7016,29.0001981 L72.7016,29.0001981 L72.7016,30.9097981 C72.7016,31.5155315 72.6733667,32.0314315 72.6169,32.4574981 C72.5604333,32.8835648 72.4475,33.2043981 72.2781,33.4199981 C72.1087,33.6355981 71.8546,33.7433981 71.5158,33.7433981 Z M77.2908,33.6817981 C77.0238667,33.6817981 76.7877333,33.5816981 76.5824,33.3814981 C76.3770667,33.1812981 76.2744,32.8450648 76.2744,32.3727981 C76.2744,32.0750648 76.3206,31.8158315 76.413,31.5950981 C76.5054,31.3743648 76.6491333,31.1767315 76.8442,31.0021981 C77.0392667,30.8276648 77.2933667,30.6479981 77.6065,30.4631981 C77.9196333,30.2783981 78.2969333,30.0730648 78.7384,29.8471981 L78.7384,29.8471981 L78.7384,32.6191981 C78.6562667,32.7834648 78.5433333,32.9451648 78.3996,33.1042981 C78.2558667,33.2634315 78.0916,33.3994648 77.9068,33.5123981 C77.722,33.6253315 77.5166667,33.6817981 77.2908,33.6817981 Z M78.769,33.2670001 L78.7797875,33.3829419 C78.7932625,33.5090294 78.8154,33.6625481 78.8462,33.8434981 C78.8872667,34.0847648 78.9180667,34.3029315 78.9386,34.4979981 L78.9386,34.4979981 L79.9396,34.4979981 C79.9293333,34.3850648 79.9190667,34.2207981 79.9088,34.0051981 C79.8985333,33.7895981 79.8882667,33.5611648 79.878,33.3198981 C79.8677333,33.0786315 79.8626,32.8809981 79.8626,32.7269981 L79.8626,32.7269981 L79.8626,28.3995981 C79.8626,27.3934648 79.7009,26.6516981 79.3775,26.1742981 C79.0541,25.6968981 78.492,25.4581981 77.6912,25.4581981 C76.8390667,25.4581981 76.2256333,25.6763648 75.8509,26.1126981 C75.4761667,26.5490315 75.2836667,27.2189315 75.2734,28.1223981 L75.2734,28.1223981 L76.3822,28.1377981 L76.3822,27.8297981 C76.3822,27.4396648 76.4386667,27.1342315 76.5516,26.9134981 C76.6645333,26.6927648 76.8134,26.5361981 76.9982,26.4437981 C77.183,26.3513981 77.3934667,26.3051981 77.6296,26.3051981 C77.9170667,26.3051981 78.1403667,26.3719315 78.2995,26.5053981 C78.4586333,26.6388648 78.5715667,26.8621648 78.6383,27.1752981 C78.7050333,27.4884315 78.7384,27.9170648 78.7384,28.4611981 L78.7384,28.4611981 L78.7384,29.0925981 C78.0813333,29.3903315 77.5243667,29.6598315 77.0675,29.9010981 C76.6106333,30.1423648 76.2410333,30.3887648 75.9587,30.6402981 C75.6763667,30.8918315 75.4710333,31.1767315 75.3427,31.4949981 C75.2143667,31.8132648 75.1502,32.1982648 75.1502,32.6499981 C75.1502,33.0093315 75.2246333,33.3404315 75.3735,33.6432981 C75.5223667,33.9461648 75.7302667,34.1874315 75.9972,34.3670981 C76.2641333,34.5467648 76.5772667,34.6365981 76.9366,34.6365981 C77.4088667,34.6365981 77.8015667,34.4979981 78.1147,34.2207981 C78.4278333,33.9435981 78.646,33.6253315 78.7692,33.2659981 L78.769,33.2670001 Z M83.728,34.6365981 C84.3645333,34.6365981 84.8470667,34.5056981 85.1756,34.2438981 C85.5041333,33.9820981 85.7223,33.6227648 85.8301,33.1658981 C85.9379,32.7090315 85.9918,32.1828648 85.9918,31.5873981 L85.9918,31.5873981 L85.9918,31.1561981 L84.9446,31.1561981 L84.9446,31.6489981 C84.9446,32.1212648 84.9189333,32.5165315 84.8676,32.8347981 C84.8162667,33.1530648 84.7033333,33.3917648 84.5288,33.5508981 C84.3542667,33.7100315 84.0924667,33.7895981 83.7434,33.7895981 C83.2403333,33.7895981 82.9015333,33.6073648 82.727,33.2428981 C82.5524667,32.8784315 82.4652,32.2495981 82.4652,31.3563981 L82.4652,31.3563981 L82.4652,28.8615981 C82.4652,28.2353315 82.496,27.7348315 82.5576,27.3600981 C82.6192,26.9853648 82.7424,26.7158648 82.9272,26.5515981 C83.112,26.3873315 83.3789333,26.3051981 83.728,26.3051981 C84.0257333,26.3051981 84.2644333,26.3642315 84.4441,26.4822981 C84.6237667,26.6003648 84.7521,26.8031315 84.8291,27.0905981 C84.9061,27.3780648 84.9446,27.7835981 84.9446,28.3071981 L84.9446,28.3071981 L84.9446,28.7383981 L85.9918,28.7383981 L85.9918,28.3071981 C85.9918,27.7425315 85.9353333,27.2445981 85.8224,26.8133981 C85.7094667,26.3821981 85.4887333,26.0485315 85.1602,25.8123981 C84.8316667,25.5762648 84.3542667,25.4581981 83.728,25.4581981 C83.0914667,25.4581981 82.6012333,25.5865315 82.2573,25.8431981 C81.9133667,26.0998648 81.6746667,26.4925648 81.5412,27.0212981 C81.4077333,27.5500315 81.341,28.2250648 81.341,29.0463981 L81.341,29.0463981 L81.341,31.1253981 C81.341,31.7927315 81.3949,32.3907648 81.5027,32.9194981 C81.6105,33.4482315 81.8338,33.8665981 82.1726,34.1745981 C82.5114,34.4825981 83.0298667,34.6365981 83.728,34.6365981 Z M88.7484,24.3647981 L88.7484,22.8401981 L87.6242,22.8401981 L87.6242,24.3647981 L88.7484,24.3647981 Z M88.7484,34.4979981 L88.7484,25.5967981 L87.6242,25.5967981 L87.6242,34.4979981 L88.7484,34.4979981 Z M92.8448,34.6365981 C93.4710667,34.6365981 93.9536,34.5056981 94.2924,34.2438981 C94.6312,33.9820981 94.8724667,33.6022315 95.0162,33.1042981 C95.1599333,32.6063648 95.2318,31.9980648 95.2318,31.2793981 L95.2318,31.2793981 L95.2318,28.8153981 C95.2318,28.0967315 95.1599333,27.4884315 95.0162,26.9904981 C94.8724667,26.4925648 94.6312,26.1126981 94.2924,25.8508981 C93.9536,25.5890981 93.4710667,25.4581981 92.8448,25.4581981 C92.2390667,25.4581981 91.7642333,25.5890981 91.4203,25.8508981 C91.0763667,26.1126981 90.8325333,26.4925648 90.6888,26.9904981 C90.5450667,27.4884315 90.4732,28.0967315 90.4732,28.8153981 L90.4732,28.8153981 L90.4732,31.2793981 C90.4732,31.9980648 90.5450667,32.6063648 90.6888,33.1042981 C90.8325333,33.6022315 91.0763667,33.9820981 91.4203,34.2438981 C91.7642333,34.5056981 92.2390667,34.6365981 92.8448,34.6365981 Z M92.8448,33.7895981 C92.4546667,33.7895981 92.1723333,33.6869315 91.9978,33.4815981 C91.8232667,33.2762648 91.7154667,32.9862315 91.6744,32.6114981 C91.6333333,32.2367648 91.6128,31.8132648 91.6128,31.3409981 L91.6128,31.3409981 L91.6128,28.7537981 C91.6128,28.2712648 91.6333333,27.8477648 91.6744,27.4832981 C91.7154667,27.1188315 91.8232667,26.8313648 91.9978,26.6208981 C92.1723333,26.4104315 92.4546667,26.3051981 92.8448,26.3051981 C93.2349333,26.3051981 93.5198333,26.4104315 93.6995,26.6208981 C93.8791667,26.8313648 93.9895333,27.1188315 94.0306,27.4832981 C94.0716667,27.8477648 94.0922,28.2712648 94.0922,28.7537981 L94.0922,28.7537981 L94.0922,31.3409981 C94.0922,31.8132648 94.0716667,32.2367648 94.0306,32.6114981 C93.9895333,32.9862315 93.8791667,33.2762648 93.6995,33.4815981 C93.5198333,33.6869315 93.2349333,33.7895981 92.8448,33.7895981 Z M98.82,34.6365981 C99.282,34.6365981 99.6824,34.5518981 100.0212,34.3824981 C100.36,34.2130981 100.624367,33.9718315 100.8143,33.6586981 C101.004233,33.3455648 101.0992,32.9579981 101.0992,32.4959981 C101.0992,32.0853315 101.027333,31.7285648 100.8836,31.4256981 C100.739867,31.1228315 100.555067,30.8481981 100.3292,30.6017981 C100.103333,30.3553981 99.8672,30.1243981 99.6208,29.9087981 L99.6208,29.9087981 L98.358,28.7845981 C98.0808,28.5279315 97.8908667,28.2969315 97.7882,28.0915981 C97.6855333,27.8862648 97.6342,27.6501315 97.6342,27.3831981 C97.6342,27.0443981 97.7394333,26.7800315 97.9499,26.5900981 C98.1603667,26.4001648 98.435,26.3051981 98.7738,26.3051981 C99.0304667,26.3051981 99.2486333,26.3667981 99.4283,26.4899981 C99.6079667,26.6131981 99.7491333,26.8056981 99.8518,27.0674981 C99.9544667,27.3292981 100.016067,27.6603981 100.0366,28.0607981 L100.0366,28.0607981 L100.8374,27.7989981 C100.8066,27.1111315 100.616667,26.5490315 100.2676,26.1126981 C99.9185333,25.6763648 99.4052,25.4581981 98.7276,25.4581981 C98.3066667,25.4581981 97.9370667,25.5377648 97.6188,25.6968981 C97.3005333,25.8560315 97.0515667,26.0818981 96.8719,26.3744981 C96.6922333,26.6670981 96.6024,27.0289981 96.6024,27.4601981 C96.6024,27.9324648 96.7050667,28.3379981 96.9104,28.6767981 C97.1157333,29.0155981 97.4186,29.3543981 97.819,29.6931981 L97.819,29.6931981 L99.0356,30.7403981 C99.4052,31.0586648 99.6772667,31.3640981 99.8518,31.6566981 C100.026333,31.9492981 100.1136,32.2393315 100.1136,32.5267981 C100.1136,32.9271981 100.008367,33.2377648 99.7979,33.4584981 C99.5874333,33.6792315 99.2871333,33.7895981 98.897,33.7895981 C98.435,33.7895981 98.0756667,33.6330315 97.819,33.3198981 C97.5623333,33.0067648 97.4032,32.5062648 97.3416,31.8183981 L97.3416,31.8183981 L96.4022,32.1109981 C96.4638,32.8809981 96.7050667,33.4944315 97.126,33.9512981 C97.5469333,34.4081648 98.1116,34.6365981 98.82,34.6365981 Z" id="Diseñodeinteriores/espacios" fill="#000000" fill-rule="nonzero"></path>
                <g id="Group-9" fill="#55A5A4">
                    <path d="M20.8250502,22.9899281 C19.8078814,22.9899281 19.7914283,23.6847375 19.7914283,27.3290439 C19.7914283,30.9048565 19.875522,31.6680378 20.8250502,31.6680378 C21.7738471,31.6680378 21.8586721,30.9048565 21.8586721,27.3290439 C21.8586721,23.6847375 21.842219,22.9899281 20.8250502,22.9899281" id="Fill-1"></path>
                    <path d="M25.1764876,11.529997 C24.1531031,11.529997 24.1692972,12.7051158 24.1692972,14.4007628 C24.1692972,16.5323566 24.3208032,17.4219223 25.1764876,17.4219223 C25.9825688,17.4219223 26.1340759,16.5323566 26.1340759,14.4007628 C26.1340759,12.7051158 26.150147,11.529997 25.1764876,11.529997" id="Fill-3"></path>
                    <path d="M13.3565133,17.4218857 C14.2128071,17.4218857 14.3644333,16.53232 14.3644333,14.4007262 C14.3644333,12.7050793 14.3800196,11.5299605 13.3565133,11.5299605 C12.3833414,11.5299605 12.399777,12.7050793 12.399777,14.4007262 C12.399777,16.53232 12.5507977,17.4218857 13.3565133,17.4218857" id="Fill-5"></path>
                    <path d="M29.7539543,20.6913289 L35.1675201,20.6913289 L35.1675201,19.8553883 L29.7539543,19.8553883 L29.7539543,20.6913289 Z M28.5007136,18.7153695 L26.2502917,18.7153695 L26.2502917,17.7751038 L26.2181167,17.7751038 C25.7811948,18.596907 25.1266041,18.8829476 24.2196103,18.8829476 C21.7688259,18.8829476 21.8526759,16.1635506 21.8526759,14.4170818 C21.8526759,12.7051036 21.7858884,10.0690692 24.1693978,10.0690692 C25.025326,10.0690692 25.6131291,10.3211067 26.0998979,11.0433379 L26.1341448,11.0433379 L26.1341448,6.59368151 L28.5007136,6.59368151 L28.5007136,18.7153695 Z M20.8250258,33.3966763 C17.6383601,33.3966763 17.4009476,31.0070731 17.4009476,27.295248 C17.4009476,22.7691759 17.909532,21.2606071 20.8250258,21.2606071 C23.7405197,21.2606071 24.2491041,22.7691759 24.2491041,27.295248 C24.2491041,31.0070731 24.0116916,33.3966763 20.8250258,33.3966763 L20.8250258,33.3966763 Z M16.9144225,33.2440888 L9.89722539,33.2440888 L9.89722539,31.1595387 C13.6256255,26.1932542 14.4053818,25.6169073 14.4053818,24.1422197 C14.4053818,23.5488103 14.1852756,22.9898915 13.5076505,22.9898915 C12.524363,22.9898915 12.4732974,23.9222353 12.4732974,24.6846854 L10.0835723,24.6846854 C9.91392227,22.4813071 11.1510754,21.2606071 13.3380005,21.2606071 C15.3887912,21.2606071 16.7958382,22.091429 16.7958382,24.3121135 C16.7958382,26.9728886 13.6939974,29.9899043 12.4056567,31.4135262 L16.9144225,31.4135262 L16.9144225,33.2440888 Z M10.0326285,6.59368151 L12.3998067,6.59368151 L12.3998067,11.0433379 L12.4338099,11.0433379 C12.9205786,10.3211067 13.5083818,10.0690692 14.3643099,10.0690692 C16.7479413,10.0690692 16.6810319,12.7051036 16.6810319,14.4170818 C16.6810319,16.1635506 16.7645163,18.8829476 14.3140974,18.8829476 C13.4071037,18.8829476 12.7521474,18.596907 12.3162005,17.7751038 L12.2821974,17.7751038 L12.2821974,18.7153695 L10.0326285,18.7153695 L10.0326285,6.59368151 Z M18.091857,18.7153695 L20.4586696,18.7153695 L20.4586696,10.2371348 L18.091857,10.2371348 L18.091857,18.7153695 Z M18.091857,8.45739409 L20.4586696,8.45739409 L20.4586696,6.59368151 L18.091857,6.59368151 L18.091857,8.45739409 Z M19.3699601,0.0164531257 C8.67152847,0.0164531257 0,8.68920035 0,19.3848289 C0,30.0841137 8.67152847,38.7562515 19.3699601,38.7562515 C30.0670512,38.7562515 38.7400422,30.0841137 38.7400422,19.3848289 C38.7400422,8.68920035 30.0670512,0.0164531257 19.3699601,0.0164531257 L19.3699601,0.0164531257 Z" id="Fill-7"></path>
                </g>
            </g>
            <line x1="47.55" y1="0.5" x2="222.340882" y2="0.5" id="Path-5-Copy-4" stroke="#000000" stroke-width="0.5"></line>
        </g>
    </g>
</svg>