<?xml version="1.0" encoding="UTF-8"?>
<svg width="126px" height="39px" viewBox="0 0 126 39" version="1.1" xmlns="http://www.w3.org/2000/svg" xmlns:xlink="http://www.w3.org/1999/xlink">
    <title>integral</title>
    <g id="Page-1" stroke="none" stroke-width="1" fill="none" fill-rule="evenodd">
        <g id="integral" transform="translate(-0.000000, 0.000000)">
            <path d="M51.9116,18.2489991 C52.7432,18.2489991 53.3951333,18.0898658 53.8674,17.7715991 C54.3396667,17.4533325 54.6784667,17.0041658 54.8838,16.4240991 C55.0891333,15.8440325 55.1918,15.1689991 55.1918,14.3989991 L55.1918,14.3989991 L55.1918,9.44019912 C55.1918,8.71126579 55.0891333,8.06959912 54.8838,7.51519912 C54.6784667,6.96079912 54.3319667,6.53216579 53.8443,6.22929912 C53.3566333,5.92643245 52.6764667,5.77499912 51.8038,5.77499912 L51.8038,5.77499912 L49.0934,5.77499912 L49.0934,18.2489991 L51.9116,18.2489991 Z M51.8346,17.3711991 L50.2638,17.3711991 L50.2638,6.68359912 L51.7884,6.68359912 C52.4146667,6.68359912 52.8843667,6.79396579 53.1975,7.01469912 C53.5106333,7.23543245 53.7211,7.55883245 53.8289,7.98489912 C53.9367,8.41096579 53.9906,8.93713245 53.9906,9.56339912 L53.9906,9.56339912 L53.9906,14.2141991 C53.9906,14.8199325 53.9495333,15.3614991 53.8674,15.8388991 C53.7852667,16.3162991 53.5902,16.6910325 53.2822,16.9630991 C52.9742,17.2351658 52.4916667,17.3711991 51.8346,17.3711991 L51.8346,17.3711991 Z M58.1332,8.11579912 L58.1332,6.59119912 L57.009,6.59119912 L57.009,8.11579912 L58.1332,8.11579912 Z M58.1332,18.2489991 L58.1332,9.34779912 L57.009,9.34779912 L57.009,18.2489991 L58.1332,18.2489991 Z M62.0602,18.3875991 C62.5222,18.3875991 62.9226,18.3028991 63.2614,18.1334991 C63.6002,17.9640991 63.8645667,17.7228325 64.0545,17.4096991 C64.2444333,17.0965658 64.3394,16.7089991 64.3394,16.2469991 C64.3394,15.8363325 64.2675333,15.4795658 64.1238,15.1766991 C63.9800667,14.8738325 63.7952667,14.5991991 63.5694,14.3527991 C63.3435333,14.1063991 63.1074,13.8753991 62.861,13.6597991 L62.861,13.6597991 L61.5982,12.5355991 C61.321,12.2789325 61.1310667,12.0479325 61.0284,11.8425991 C60.9257333,11.6372658 60.8744,11.4011325 60.8744,11.1341991 C60.8744,10.7953991 60.9796333,10.5310325 61.1901,10.3410991 C61.4005667,10.1511658 61.6752,10.0561991 62.014,10.0561991 C62.2706667,10.0561991 62.4888333,10.1177991 62.6685,10.2409991 C62.8481667,10.3641991 62.9893333,10.5566991 63.092,10.8184991 C63.1946667,11.0802991 63.2562667,11.4113991 63.2768,11.8117991 L63.2768,11.8117991 L64.0776,11.5499991 C64.0468,10.8621325 63.8568667,10.3000325 63.5078,9.86369912 C63.1587333,9.42736579 62.6454,9.20919912 61.9678,9.20919912 C61.5468667,9.20919912 61.1772667,9.28876579 60.859,9.44789912 C60.5407333,9.60703245 60.2917667,9.83289912 60.1121,10.1254991 C59.9324333,10.4180991 59.8426,10.7799991 59.8426,11.2111991 C59.8426,11.6834658 59.9452667,12.0889991 60.1506,12.4277991 C60.3559333,12.7665991 60.6588,13.1053991 61.0592,13.4441991 L61.0592,13.4441991 L62.2758,14.4913991 C62.6454,14.8096658 62.9174667,15.1150991 63.092,15.4076991 C63.2665333,15.7002991 63.3538,15.9903325 63.3538,16.2777991 C63.3538,16.6781991 63.2485667,16.9887658 63.0381,17.2094991 C62.8276333,17.4302325 62.5273333,17.5405991 62.1372,17.5405991 C61.6752,17.5405991 61.3158667,17.3840325 61.0592,17.0708991 C60.8025333,16.7577658 60.6434,16.2572658 60.5818,15.5693991 L60.5818,15.5693991 L59.6424,15.8619991 C59.704,16.6319991 59.9452667,17.2454325 60.3662,17.7022991 C60.7871333,18.1591658 61.3518,18.3875991 62.0602,18.3875991 Z M67.8506,18.3875991 C68.7232667,18.3875991 69.3264333,18.1437658 69.6601,17.6560991 C69.9937667,17.1684325 70.1606,16.5190658 70.1606,15.7079991 L70.1606,15.7079991 L70.1606,15.2151991 L69.0672,15.2151991 L69.0672,15.8311991 C69.0672,16.2931991 69.0133,16.6499658 68.9055,16.9014991 C68.7977,17.1530325 68.6514,17.3224325 68.4666,17.4096991 C68.2818,17.4969658 68.0764667,17.5405991 67.8506,17.5405991 C67.5528667,17.5405991 67.3090333,17.4687325 67.1191,17.3249991 C66.9291667,17.1812658 66.7905667,16.9425658 66.7033,16.6088991 C66.6160333,16.2752325 66.5724,15.8209325 66.5724,15.2459991 L66.5724,15.2459991 L66.5724,13.6905991 L70.176,13.6905991 L70.176,12.8897991 C70.176,12.0479325 70.1118333,11.3574991 69.9835,10.8184991 C69.8551667,10.2794991 69.6267333,9.87653245 69.2982,9.60959912 C68.9696667,9.34266579 68.4922667,9.20919912 67.866,9.20919912 C67.3218667,9.20919912 66.8701333,9.31443245 66.5108,9.52489912 C66.1514667,9.73536579 65.8845333,10.0895658 65.71,10.5874991 C65.5354667,11.0854325 65.4482,11.7758658 65.4482,12.6587991 L65.4482,12.6587991 L65.4482,14.9071991 C65.4482,15.7593325 65.5329,16.4420658 65.7023,16.9553991 C65.8717,17.4687325 66.1335,17.8357658 66.4877,18.0564991 C66.8419,18.2772325 67.2962,18.3875991 67.8506,18.3875991 Z M69.0672,13.0437991 L66.5724,13.0437991 L66.5724,12.4431991 C66.5724,11.8066658 66.6134667,11.3164325 66.6956,10.9724991 C66.7777333,10.6285658 66.9137667,10.3898658 67.1037,10.2563991 C67.2936333,10.1229325 67.5426,10.0561991 67.8506,10.0561991 C68.2202,10.0561991 68.4897,10.1460325 68.6591,10.3256991 C68.8285,10.5053658 68.9388667,10.7620325 68.9902,11.0956991 C69.0415333,11.4293658 69.0672,11.8323325 69.0672,12.3045991 L69.0672,12.3045991 L69.0672,13.0437991 Z M74.9346,7.59219912 C75.2426,7.59219912 75.4736,7.51263245 75.6276,7.35349912 C75.7816,7.19436579 75.8817,7.00443245 75.9279,6.78369912 C75.9741,6.56296579 75.9972,6.36019912 75.9972,6.17539912 L75.9972,6.17539912 L75.3196,6.17539912 C75.3196,6.42179912 75.2785333,6.59376579 75.1964,6.69129912 C75.1142667,6.78883245 74.9859333,6.83759912 74.8114,6.83759912 C74.6266,6.83759912 74.4469333,6.77599912 74.2724,6.65279912 C74.0978667,6.52959912 73.9130667,6.40896579 73.718,6.29089912 C73.5229333,6.17283245 73.3022,6.11379912 73.0558,6.11379912 C72.7683333,6.11379912 72.5476,6.19079912 72.3936,6.34479912 C72.2396,6.49879912 72.1343667,6.68103245 72.0779,6.89149912 C72.0214333,7.10196579 71.9932,7.29446579 71.9932,7.46899912 L71.9932,7.46899912 L72.6862,7.46899912 C72.6862,7.26366579 72.7298333,7.10966579 72.8171,7.00699912 C72.9043667,6.90433245 73.0301333,6.85299912 73.1944,6.85299912 C73.3792,6.85299912 73.5563,6.91459912 73.7257,7.03779912 C73.8951,7.16099912 74.0773333,7.28419912 74.2724,7.40739912 C74.4674667,7.53059912 74.6882,7.59219912 74.9346,7.59219912 Z M72.8248,18.2489991 L72.8248,10.9185991 C73.0609333,10.6721991 73.3124667,10.4719991 73.5794,10.3179991 C73.8463333,10.1639991 74.1081333,10.0869991 74.3648,10.0869991 C74.6522667,10.0869991 74.8653,10.1819658 75.0039,10.3718991 C75.1425,10.5618325 75.2118,10.8877991 75.2118,11.3497991 L75.2118,11.3497991 L75.2118,18.2489991 L76.336,18.2489991 L76.336,11.1033991 C76.336,10.7029991 76.2846667,10.3616325 76.182,10.0792991 C76.0793333,9.79696579 75.9253333,9.58136579 75.72,9.43249912 C75.5146667,9.28363245 75.2631333,9.20919912 74.9654,9.20919912 C74.5444667,9.20919912 74.1543333,9.30929912 73.795,9.50949912 C73.4356667,9.70969912 73.1122667,9.96379912 72.8248,10.2717991 L72.8248,10.2717991 L72.8248,9.34779912 L71.7006,9.34779912 L71.7006,18.2489991 L72.8248,18.2489991 Z M80.2014,18.3875991 C80.8276667,18.3875991 81.3102,18.2566991 81.649,17.9948991 C81.9878,17.7330991 82.2290667,17.3532325 82.3728,16.8552991 C82.5165333,16.3573658 82.5884,15.7490658 82.5884,15.0303991 L82.5884,15.0303991 L82.5884,12.5663991 C82.5884,11.8477325 82.5165333,11.2394325 82.3728,10.7414991 C82.2290667,10.2435658 81.9878,9.86369912 81.649,9.60189912 C81.3102,9.34009912 80.8276667,9.20919912 80.2014,9.20919912 C79.5956667,9.20919912 79.1208333,9.34009912 78.7769,9.60189912 C78.4329667,9.86369912 78.1891333,10.2435658 78.0454,10.7414991 C77.9016667,11.2394325 77.8298,11.8477325 77.8298,12.5663991 L77.8298,12.5663991 L77.8298,15.0303991 C77.8298,15.7490658 77.9016667,16.3573658 78.0454,16.8552991 C78.1891333,17.3532325 78.4329667,17.7330991 78.7769,17.9948991 C79.1208333,18.2566991 79.5956667,18.3875991 80.2014,18.3875991 Z M80.2014,17.5405991 C79.8112667,17.5405991 79.5289333,17.4379325 79.3544,17.2325991 C79.1798667,17.0272658 79.0720667,16.7372325 79.031,16.3624991 C78.9899333,15.9877658 78.9694,15.5642658 78.9694,15.0919991 L78.9694,15.0919991 L78.9694,12.5047991 C78.9694,12.0222658 78.9899333,11.5987658 79.031,11.2342991 C79.0720667,10.8698325 79.1798667,10.5823658 79.3544,10.3718991 C79.5289333,10.1614325 79.8112667,10.0561991 80.2014,10.0561991 C80.5915333,10.0561991 80.8764333,10.1614325 81.0561,10.3718991 C81.2357667,10.5823658 81.3461333,10.8698325 81.3872,11.2342991 C81.4282667,11.5987658 81.4488,12.0222658 81.4488,12.5047991 L81.4488,12.5047991 L81.4488,15.0919991 C81.4488,15.5642658 81.4282667,15.9877658 81.3872,16.3624991 C81.3461333,16.7372325 81.2357667,17.0272658 81.0561,17.2325991 C80.8764333,17.4379325 80.5915333,17.5405991 80.2014,17.5405991 Z M88.5328,8.11579912 L88.5328,6.59119912 L87.4086,6.59119912 L87.4086,8.11579912 L88.5328,8.11579912 Z M88.5328,18.2489991 L88.5328,9.34779912 L87.4086,9.34779912 L87.4086,18.2489991 L88.5328,18.2489991 Z M91.5512,18.2489991 L91.5512,10.9185991 C91.7873333,10.6721991 92.0388667,10.4719991 92.3058,10.3179991 C92.5727333,10.1639991 92.8345333,10.0869991 93.0912,10.0869991 C93.3786667,10.0869991 93.5917,10.1819658 93.7303,10.3718991 C93.8689,10.5618325 93.9382,10.8877991 93.9382,11.3497991 L93.9382,11.3497991 L93.9382,18.2489991 L95.0624,18.2489991 L95.0624,11.1033991 C95.0624,10.7029991 95.0110667,10.3616325 94.9084,10.0792991 C94.8057333,9.79696579 94.6517333,9.58136579 94.4464,9.43249912 C94.2410667,9.28363245 93.9895333,9.20919912 93.6918,9.20919912 C93.2708667,9.20919912 92.8807333,9.30929912 92.5214,9.50949912 C92.1620667,9.70969912 91.8386667,9.96379912 91.5512,10.2717991 L91.5512,10.2717991 L91.5512,9.34779912 L90.427,9.34779912 L90.427,18.2489991 L91.5512,18.2489991 Z M98.8354,18.3567991 C98.9894,18.3567991 99.1485333,18.3490991 99.3128,18.3336991 C99.4770667,18.3182991 99.6362,18.2951991 99.7902,18.2643991 L99.7902,18.2643991 L99.7902,17.4019991 C99.6875333,17.4225325 99.5771667,17.4404991 99.4591,17.4558991 C99.3410333,17.4712991 99.2358,17.4789991 99.1434,17.4789991 C98.8148667,17.4789991 98.6018333,17.3891658 98.5043,17.2094991 C98.4067667,17.0298325 98.358,16.7243991 98.358,16.2931991 L98.358,16.2931991 L98.358,10.0869991 L99.8364,10.0869991 L99.8364,9.34779912 L98.358,9.34779912 L98.358,6.59119912 L97.2338,6.59119912 L97.2338,9.34779912 L96.1404,9.34779912 L96.1404,10.0869991 L97.2338,10.0869991 L97.2338,16.4009991 C97.2338,16.7808658 97.2774333,17.1170991 97.3647,17.4096991 C97.4519667,17.7022991 97.6111,17.9332991 97.8421,18.1026991 C98.0731,18.2720991 98.4042,18.3567991 98.8354,18.3567991 Z M103.2706,18.3875991 C104.143267,18.3875991 104.746433,18.1437658 105.0801,17.6560991 C105.413767,17.1684325 105.5806,16.5190658 105.5806,15.7079991 L105.5806,15.7079991 L105.5806,15.2151991 L104.4872,15.2151991 L104.4872,15.8311991 C104.4872,16.2931991 104.4333,16.6499658 104.3255,16.9014991 C104.2177,17.1530325 104.0714,17.3224325 103.8866,17.4096991 C103.7018,17.4969658 103.496467,17.5405991 103.2706,17.5405991 C102.972867,17.5405991 102.729033,17.4687325 102.5391,17.3249991 C102.349167,17.1812658 102.210567,16.9425658 102.1233,16.6088991 C102.036033,16.2752325 101.9924,15.8209325 101.9924,15.2459991 L101.9924,15.2459991 L101.9924,13.6905991 L105.596,13.6905991 L105.596,12.8897991 C105.596,12.0479325 105.531833,11.3574991 105.4035,10.8184991 C105.275167,10.2794991 105.046733,9.87653245 104.7182,9.60959912 C104.389667,9.34266579 103.912267,9.20919912 103.286,9.20919912 C102.741867,9.20919912 102.290133,9.31443245 101.9308,9.52489912 C101.571467,9.73536579 101.304533,10.0895658 101.13,10.5874991 C100.955467,11.0854325 100.8682,11.7758658 100.8682,12.6587991 L100.8682,12.6587991 L100.8682,14.9071991 C100.8682,15.7593325 100.9529,16.4420658 101.1223,16.9553991 C101.2917,17.4687325 101.5535,17.8357658 101.9077,18.0564991 C102.2619,18.2772325 102.7162,18.3875991 103.2706,18.3875991 Z M104.4872,13.0437991 L101.9924,13.0437991 L101.9924,12.4431991 C101.9924,11.8066658 102.033467,11.3164325 102.1156,10.9724991 C102.197733,10.6285658 102.333767,10.3898658 102.5237,10.2563991 C102.713633,10.1229325 102.9626,10.0561991 103.2706,10.0561991 C103.6402,10.0561991 103.9097,10.1460325 104.0791,10.3256991 C104.2485,10.5053658 104.358867,10.7620325 104.4102,11.0956991 C104.461533,11.4293658 104.4872,11.8323325 104.4872,12.3045991 L104.4872,12.3045991 L104.4872,13.0437991 Z M109.3844,21.1749991 C109.9696,21.1749991 110.480367,21.1005658 110.9167,20.9516991 C111.353033,20.8028325 111.696967,20.5743991 111.9485,20.2663991 C112.200033,19.9583991 112.3258,19.5733991 112.3258,19.1113991 C112.3258,18.4953991 112.1333,18.0231325 111.7483,17.6945991 C111.3633,17.3660658 110.811467,17.1504658 110.0928,17.0477991 L110.0928,17.0477991 L108.676,16.8321991 C108.419333,16.8013991 108.231967,16.7474991 108.1139,16.6704991 C107.995833,16.5934991 107.9368,16.4831325 107.9368,16.3393991 C107.9368,16.1751325 108.000967,16.0031658 108.1293,15.8234991 C108.257633,15.6438325 108.393667,15.4769991 108.5374,15.3229991 C108.650333,15.3537991 108.7915,15.3845991 108.9609,15.4153991 C109.1303,15.4461991 109.292,15.4615991 109.446,15.4615991 C110.051733,15.4615991 110.5317,15.3255658 110.8859,15.0534991 C111.2401,14.7814325 111.496767,14.4092658 111.6559,13.9369991 C111.815033,13.4647325 111.8946,12.9359991 111.8946,12.3507991 C111.8946,12.1351991 111.866367,11.8682658 111.8099,11.5499991 C111.753433,11.2317325 111.689267,10.9801991 111.6174,10.7953991 C111.699533,10.6927325 111.8253,10.5900658 111.9947,10.4873991 C112.1641,10.3847325 112.346333,10.2897658 112.5414,10.2024991 C112.736467,10.1152325 112.916133,10.0561991 113.0804,10.0253991 L113.0804,10.0253991 L112.7724,9.23999912 L112.5414,9.31699912 C112.284733,9.41966579 112.043467,9.57623245 111.8176,9.78669912 C111.591733,9.99716579 111.4326,10.1742658 111.3402,10.3179991 C111.1862,10.0099991 110.960333,9.74819912 110.6626,9.53259912 C110.364867,9.31699912 109.9542,9.20919912 109.4306,9.20919912 C108.855667,9.20919912 108.385967,9.35036579 108.0215,9.63269912 C107.657033,9.91503245 107.384967,10.2897658 107.2053,10.7568991 C107.025633,11.2240325 106.9358,11.7450658 106.9358,12.3199991 C106.9358,12.9359991 107.0205,13.4698658 107.1899,13.9215991 C107.3593,14.3733325 107.649333,14.7429325 108.06,15.0303991 C107.731467,15.3075991 107.472233,15.5693991 107.2823,15.8157991 C107.092367,16.0621991 106.9974,16.3393991 106.9974,16.6473991 C106.9974,16.8732658 107.076967,17.0683325 107.2361,17.2325991 C107.395233,17.3968658 107.6442,17.5251991 107.983,17.6175991 C107.746867,17.7407991 107.515867,17.8973658 107.29,18.0872991 C107.064133,18.2772325 106.879333,18.4953991 106.7356,18.7417991 C106.591867,18.9881991 106.52,19.2602658 106.52,19.5579991 C106.52,19.9275991 106.6355,20.2330325 106.8665,20.4742991 C107.0975,20.7155658 107.4286,20.8926658 107.8598,21.0055991 C108.291,21.1185325 108.7992,21.1749991 109.3844,21.1749991 Z M109.446,14.6453991 C109.127733,14.6453991 108.8685,14.5735325 108.6683,14.4297991 C108.4681,14.2860658 108.3141,14.0986991 108.2063,13.8676991 C108.0985,13.6366991 108.0292,13.3825991 107.9984,13.1053991 C107.9676,12.8281991 107.9522,12.5663991 107.9522,12.3199991 C107.9522,12.0633325 107.970167,11.8015325 108.0061,11.5345991 C108.042033,11.2676658 108.1139,11.0186991 108.2217,10.7876991 C108.3295,10.5566991 108.4835,10.3693325 108.6837,10.2255991 C108.8839,10.0818658 109.138,10.0099991 109.446,10.0099991 C109.754,10.0099991 110.002967,10.0792991 110.1929,10.2178991 C110.382833,10.3564991 110.529133,10.5412991 110.6318,10.7722991 C110.734467,11.0032991 110.806333,11.2522658 110.8474,11.5191991 C110.888467,11.7861325 110.909,12.0530658 110.909,12.3199991 C110.909,12.5869325 110.891033,12.8589991 110.8551,13.1361991 C110.819167,13.4133991 110.752433,13.6649325 110.6549,13.8907991 C110.557367,14.1166658 110.413633,14.2988991 110.2237,14.4374991 C110.033767,14.5760991 109.774533,14.6453991 109.446,14.6453991 Z M109.4306,20.2663991 C108.773533,20.2663991 108.2833,20.1868325 107.9599,20.0276991 C107.6365,19.8685658 107.4748,19.6195991 107.4748,19.2807991 C107.4748,19.0446658 107.538967,18.8341991 107.6673,18.6493991 C107.795633,18.4645991 107.947067,18.2977658 108.1216,18.1488991 C108.296133,18.0000325 108.4604,17.8742658 108.6144,17.7715991 L108.6144,17.7715991 L109.754,17.9255991 C110.216,17.9974658 110.567633,18.0872991 110.8089,18.1950991 C111.050167,18.3028991 111.214433,18.4337991 111.3017,18.5877991 C111.388967,18.7417991 111.4326,18.9214658 111.4326,19.1267991 C111.4326,19.5271991 111.2478,19.8172325 110.8782,19.9968991 C110.5086,20.1765658 110.026067,20.2663991 109.4306,20.2663991 Z M114.9746,18.2489991 L114.9746,11.4113991 C115.1902,11.0520658 115.439167,10.7902658 115.7215,10.6259991 C116.003833,10.4617325 116.319533,10.3795991 116.6686,10.3795991 C116.761,10.3795991 116.858533,10.3872991 116.9612,10.4026991 C117.063867,10.4180991 117.151133,10.4411991 117.223,10.4719991 L117.223,10.4719991 L117.223,9.27079912 C117.181933,9.26053245 117.146,9.25539912 117.1152,9.25539912 L117.1152,9.25539912 L117.0228,9.25539912 C116.684,9.25539912 116.3298,9.35549912 115.9602,9.55569912 C115.5906,9.75589912 115.262067,10.0921325 114.9746,10.5643991 L114.9746,10.5643991 L114.9746,9.34779912 L113.835,9.34779912 L113.835,18.2489991 L114.9746,18.2489991 Z M120.1952,17.4327991 C119.928267,17.4327991 119.692133,17.3326991 119.4868,17.1324991 C119.281467,16.9322991 119.1788,16.5960658 119.1788,16.1237991 C119.1788,15.8260658 119.225,15.5668325 119.3174,15.3460991 C119.4098,15.1253658 119.553533,14.9277325 119.7486,14.7531991 C119.943667,14.5786658 120.197767,14.3989991 120.5109,14.2141991 C120.824033,14.0293991 121.201333,13.8240658 121.6428,13.5981991 L121.6428,13.5981991 L121.6428,16.3701991 C121.560667,16.5344658 121.447733,16.6961658 121.304,16.8552991 C121.160267,17.0144325 120.996,17.1504658 120.8112,17.2633991 C120.6264,17.3763325 120.421067,17.4327991 120.1952,17.4327991 Z M121.673,17.0180001 L121.684188,17.1339429 C121.697663,17.2600304 121.7198,17.4135491 121.7506,17.5944991 C121.791667,17.8357658 121.822467,18.0539325 121.843,18.2489991 L121.843,18.2489991 L122.844,18.2489991 C122.833733,18.1360658 122.823467,17.9717991 122.8132,17.7561991 C122.802933,17.5405991 122.792667,17.3121658 122.7824,17.0708991 C122.772133,16.8296325 122.767,16.6319991 122.767,16.4779991 L122.767,12.1505991 C122.767,11.1444658 122.6053,10.4026991 122.2819,9.92529912 C121.9585,9.44789912 121.3964,9.20919912 120.5956,9.20919912 C119.743467,9.20919912 119.130033,9.42736579 118.7553,9.86369912 C118.380567,10.3000325 118.188067,10.9699325 118.1778,11.8733991 L118.1778,11.8733991 L119.2866,11.8887991 L119.2866,11.5807991 C119.2866,11.1906658 119.343067,10.8852325 119.456,10.6644991 C119.568933,10.4437658 119.7178,10.2871991 119.9026,10.1947991 C120.0874,10.1023991 120.297867,10.0561991 120.534,10.0561991 C120.821467,10.0561991 121.044767,10.1229325 121.2039,10.2563991 C121.363033,10.3898658 121.475967,10.6131658 121.5427,10.9262991 C121.609433,11.2394325 121.6428,11.6680658 121.6428,12.2121991 L121.6428,12.2121991 L121.6428,12.8435991 C120.985733,13.1413325 120.428767,13.4108325 119.9719,13.6520991 C119.515033,13.8933658 119.145433,14.1397658 118.8631,14.3912991 C118.580767,14.6428325 118.375433,14.9277325 118.2471,15.2459991 C118.118767,15.5642658 118.0546,15.9492658 118.0546,16.4009991 C118.0546,16.7603325 118.129033,17.0914325 118.2779,17.3942991 C118.426767,17.6971658 118.634667,17.9384325 118.9016,18.1180991 C119.168533,18.2977658 119.481667,18.3875991 119.841,18.3875991 C120.313267,18.3875991 120.705967,18.2489991 121.0191,17.9717991 C121.332233,17.6945991 121.5504,17.3763325 121.6736,17.0169991 L121.673,17.0180001 Z M125.693,18.2489991 L125.693,5.77499912 L124.5688,5.77499912 L124.5688,18.2489991 L125.693,18.2489991 Z M49.3706,34.4979981 L52.9126,22.0239981 L51.927,22.0239981 L48.3696,34.4979981 L49.3706,34.4979981 Z M59.4114,34.6057981 C59.5654,34.6057981 59.7245333,34.5980981 59.8888,34.5826981 C60.0530667,34.5672981 60.2122,34.5441981 60.3662,34.5133981 L60.3662,34.5133981 L60.3662,33.6509981 C60.2635333,33.6715315 60.1531667,33.6894981 60.0351,33.7048981 C59.9170333,33.7202981 59.8118,33.7279981 59.7194,33.7279981 C59.3908667,33.7279981 59.1778333,33.6381648 59.0803,33.4584981 C58.9827667,33.2788315 58.934,32.9733981 58.934,32.5421981 L58.934,32.5421981 L58.934,26.3359981 L60.4124,26.3359981 L60.4124,25.5967981 L58.934,25.5967981 L58.934,22.8401981 L57.8098,22.8401981 L57.8098,25.5967981 L56.7164,25.5967981 L56.7164,26.3359981 L57.8098,26.3359981 L57.8098,32.6499981 C57.8098,33.0298648 57.8534333,33.3660981 57.9407,33.6586981 C58.0279667,33.9512981 58.1871,34.1822981 58.4181,34.3516981 C58.6491,34.5210981 58.9802,34.6057981 59.4114,34.6057981 Z M62.8302,34.4979981 L62.8302,27.6603981 C63.0458,27.3010648 63.2947667,27.0392648 63.5771,26.8749981 C63.8594333,26.7107315 64.1751333,26.6285981 64.5242,26.6285981 C64.6166,26.6285981 64.7141333,26.6362981 64.8168,26.6516981 C64.9194667,26.6670981 65.0067333,26.6901981 65.0786,26.7209981 L65.0786,26.7209981 L65.0786,25.5197981 C65.0375333,25.5095315 65.0016,25.5043981 64.9708,25.5043981 L64.9708,25.5043981 L64.8784,25.5043981 C64.5396,25.5043981 64.1854,25.6044981 63.8158,25.8046981 C63.4462,26.0048981 63.1176667,26.3411315 62.8302,26.8133981 L62.8302,26.8133981 L62.8302,25.5967981 L61.6906,25.5967981 L61.6906,34.4979981 L62.8302,34.4979981 Z M68.0508,33.6817981 C67.7838667,33.6817981 67.5477333,33.5816981 67.3424,33.3814981 C67.1370667,33.1812981 67.0344,32.8450648 67.0344,32.3727981 C67.0344,32.0750648 67.0806,31.8158315 67.173,31.5950981 C67.2654,31.3743648 67.4091333,31.1767315 67.6042,31.0021981 C67.7992667,30.8276648 68.0533667,30.6479981 68.3665,30.4631981 C68.6796333,30.2783981 69.0569333,30.0730648 69.4984,29.8471981 L69.4984,29.8471981 L69.4984,32.6191981 C69.4162667,32.7834648 69.3033333,32.9451648 69.1596,33.1042981 C69.0158667,33.2634315 68.8516,33.3994648 68.6668,33.5123981 C68.482,33.6253315 68.2766667,33.6817981 68.0508,33.6817981 Z M69.529,33.2670001 L69.5397875,33.3829419 C69.5532625,33.5090294 69.5754,33.6625481 69.6062,33.8434981 C69.6472667,34.0847648 69.6780667,34.3029315 69.6986,34.4979981 L69.6986,34.4979981 L70.6996,34.4979981 C70.6893333,34.3850648 70.6790667,34.2207981 70.6688,34.0051981 C70.6585333,33.7895981 70.6482667,33.5611648 70.638,33.3198981 C70.6277333,33.0786315 70.6226,32.8809981 70.6226,32.7269981 L70.6226,32.7269981 L70.6226,28.3995981 C70.6226,27.3934648 70.4609,26.6516981 70.1375,26.1742981 C69.8141,25.6968981 69.252,25.4581981 68.4512,25.4581981 C67.5990667,25.4581981 66.9856333,25.6763648 66.6109,26.1126981 C66.2361667,26.5490315 66.0436667,27.2189315 66.0334,28.1223981 L66.0334,28.1223981 L67.1422,28.1377981 L67.1422,27.8297981 C67.1422,27.4396648 67.1986667,27.1342315 67.3116,26.9134981 C67.4245333,26.6927648 67.5734,26.5361981 67.7582,26.4437981 C67.943,26.3513981 68.1534667,26.3051981 68.3896,26.3051981 C68.6770667,26.3051981 68.9003667,26.3719315 69.0595,26.5053981 C69.2186333,26.6388648 69.3315667,26.8621648 69.3983,27.1752981 C69.4650333,27.4884315 69.4984,27.9170648 69.4984,28.4611981 L69.4984,28.4611981 L69.4984,29.0925981 C68.8413333,29.3903315 68.2843667,29.6598315 67.8275,29.9010981 C67.3706333,30.1423648 67.0010333,30.3887648 66.7187,30.6402981 C66.4363667,30.8918315 66.2310333,31.1767315 66.1027,31.4949981 C65.9743667,31.8132648 65.9102,32.1982648 65.9102,32.6499981 C65.9102,33.0093315 65.9846333,33.3404315 66.1335,33.6432981 C66.2823667,33.9461648 66.4902667,34.1874315 66.7572,34.3670981 C67.0241333,34.5467648 67.3372667,34.6365981 67.6966,34.6365981 C68.1688667,34.6365981 68.5615667,34.4979981 68.8747,34.2207981 C69.1878333,33.9435981 69.406,33.6253315 69.5292,33.2659981 L69.529,33.2670001 Z M73.3946,34.4979981 L73.3946,27.1675981 C73.6307333,26.9211981 73.8822667,26.7209981 74.1492,26.5669981 C74.4161333,26.4129981 74.6779333,26.3359981 74.9346,26.3359981 C75.2220667,26.3359981 75.4351,26.4309648 75.5737,26.6208981 C75.7123,26.8108315 75.7816,27.1367981 75.7816,27.5987981 L75.7816,27.5987981 L75.7816,34.4979981 L76.9058,34.4979981 L76.9058,27.3523981 C76.9058,26.9519981 76.8544667,26.6106315 76.7518,26.3282981 C76.6491333,26.0459648 76.4951333,25.8303648 76.2898,25.6814981 C76.0844667,25.5326315 75.8329333,25.4581981 75.5352,25.4581981 C75.1142667,25.4581981 74.7241333,25.5582981 74.3648,25.7584981 C74.0054667,25.9586981 73.6820667,26.2127981 73.3946,26.5207981 L73.3946,26.5207981 L73.3946,25.5967981 L72.2704,25.5967981 L72.2704,34.4979981 L73.3946,34.4979981 Z M80.6018,34.6365981 C81.0638,34.6365981 81.4642,34.5518981 81.803,34.3824981 C82.1418,34.2130981 82.4061667,33.9718315 82.5961,33.6586981 C82.7860333,33.3455648 82.881,32.9579981 82.881,32.4959981 C82.881,32.0853315 82.8091333,31.7285648 82.6654,31.4256981 C82.5216667,31.1228315 82.3368667,30.8481981 82.111,30.6017981 C81.8851333,30.3553981 81.649,30.1243981 81.4026,29.9087981 L81.4026,29.9087981 L80.1398,28.7845981 C79.8626,28.5279315 79.6726667,28.2969315 79.57,28.0915981 C79.4673333,27.8862648 79.416,27.6501315 79.416,27.3831981 C79.416,27.0443981 79.5212333,26.7800315 79.7317,26.5900981 C79.9421667,26.4001648 80.2168,26.3051981 80.5556,26.3051981 C80.8122667,26.3051981 81.0304333,26.3667981 81.2101,26.4899981 C81.3897667,26.6131981 81.5309333,26.8056981 81.6336,27.0674981 C81.7362667,27.3292981 81.7978667,27.6603981 81.8184,28.0607981 L81.8184,28.0607981 L82.6192,27.7989981 C82.5884,27.1111315 82.3984667,26.5490315 82.0494,26.1126981 C81.7003333,25.6763648 81.187,25.4581981 80.5094,25.4581981 C80.0884667,25.4581981 79.7188667,25.5377648 79.4006,25.6968981 C79.0823333,25.8560315 78.8333667,26.0818981 78.6537,26.3744981 C78.4740333,26.6670981 78.3842,27.0289981 78.3842,27.4601981 C78.3842,27.9324648 78.4868667,28.3379981 78.6922,28.6767981 C78.8975333,29.0155981 79.2004,29.3543981 79.6008,29.6931981 L79.6008,29.6931981 L80.8174,30.7403981 C81.187,31.0586648 81.4590667,31.3640981 81.6336,31.6566981 C81.8081333,31.9492981 81.8954,32.2393315 81.8954,32.5267981 C81.8954,32.9271981 81.7901667,33.2377648 81.5797,33.4584981 C81.3692333,33.6792315 81.0689333,33.7895981 80.6788,33.7895981 C80.2168,33.7895981 79.8574667,33.6330315 79.6008,33.3198981 C79.3441333,33.0067648 79.185,32.5062648 79.1234,31.8183981 L79.1234,31.8183981 L78.184,32.1109981 C78.2456,32.8809981 78.4868667,33.4944315 78.9078,33.9512981 C79.3287333,34.4081648 79.8934,34.6365981 80.6018,34.6365981 Z M86.8234,34.4979981 L88.6868,25.5967981 L87.5934,25.5967981 L86.1612,33.2043981 L84.7136,25.5967981 L83.574,25.5967981 L85.499,34.4979981 L86.8234,34.4979981 Z M92.0594,34.6365981 C92.9320667,34.6365981 93.5352333,34.3927648 93.8689,33.9050981 C94.2025667,33.4174315 94.3694,32.7680648 94.3694,31.9569981 L94.3694,31.9569981 L94.3694,31.4641981 L93.276,31.4641981 L93.276,32.0801981 C93.276,32.5421981 93.2221,32.8989648 93.1143,33.1504981 C93.0065,33.4020315 92.8602,33.5714315 92.6754,33.6586981 C92.4906,33.7459648 92.2852667,33.7895981 92.0594,33.7895981 C91.7616667,33.7895981 91.5178333,33.7177315 91.3279,33.5739981 C91.1379667,33.4302648 90.9993667,33.1915648 90.9121,32.8578981 C90.8248333,32.5242315 90.7812,32.0699315 90.7812,31.4949981 L90.7812,31.4949981 L90.7812,29.9395981 L94.3848,29.9395981 L94.3848,29.1387981 C94.3848,28.2969315 94.3206333,27.6064981 94.1923,27.0674981 C94.0639667,26.5284981 93.8355333,26.1255315 93.507,25.8585981 C93.1784667,25.5916648 92.7010667,25.4581981 92.0748,25.4581981 C91.5306667,25.4581981 91.0789333,25.5634315 90.7196,25.7738981 C90.3602667,25.9843648 90.0933333,26.3385648 89.9188,26.8364981 C89.7442667,27.3344315 89.657,28.0248648 89.657,28.9077981 L89.657,28.9077981 L89.657,31.1561981 C89.657,32.0083315 89.7417,32.6910648 89.9111,33.2043981 C90.0805,33.7177315 90.3423,34.0847648 90.6965,34.3054981 C91.0507,34.5262315 91.505,34.6365981 92.0594,34.6365981 Z M93.276,29.2927981 L90.7812,29.2927981 L90.7812,28.6921981 C90.7812,28.0556648 90.8222667,27.5654315 90.9044,27.2214981 C90.9865333,26.8775648 91.1225667,26.6388648 91.3125,26.5053981 C91.5024333,26.3719315 91.7514,26.3051981 92.0594,26.3051981 C92.429,26.3051981 92.6985,26.3950315 92.8679,26.5746981 C93.0373,26.7543648 93.1476667,27.0110315 93.199,27.3446981 C93.2503333,27.6783648 93.276,28.0813315 93.276,28.5535981 L93.276,28.5535981 L93.276,29.2927981 Z M97.126,34.4979981 L97.126,27.6603981 C97.3416,27.3010648 97.5905667,27.0392648 97.8729,26.8749981 C98.1552333,26.7107315 98.4709333,26.6285981 98.82,26.6285981 C98.9124,26.6285981 99.0099333,26.6362981 99.1126,26.6516981 C99.2152667,26.6670981 99.3025333,26.6901981 99.3744,26.7209981 L99.3744,26.7209981 L99.3744,25.5197981 C99.3333333,25.5095315 99.2974,25.5043981 99.2666,25.5043981 L99.2666,25.5043981 L99.1742,25.5043981 C98.8354,25.5043981 98.4812,25.6044981 98.1116,25.8046981 C97.742,26.0048981 97.4134667,26.3411315 97.126,26.8133981 L97.126,26.8133981 L97.126,25.5967981 L95.9864,25.5967981 L95.9864,34.4979981 L97.126,34.4979981 Z M102.516,34.6365981 C102.978,34.6365981 103.3784,34.5518981 103.7172,34.3824981 C104.056,34.2130981 104.320367,33.9718315 104.5103,33.6586981 C104.700233,33.3455648 104.7952,32.9579981 104.7952,32.4959981 C104.7952,32.0853315 104.723333,31.7285648 104.5796,31.4256981 C104.435867,31.1228315 104.251067,30.8481981 104.0252,30.6017981 C103.799333,30.3553981 103.5632,30.1243981 103.3168,29.9087981 L103.3168,29.9087981 L102.054,28.7845981 C101.7768,28.5279315 101.586867,28.2969315 101.4842,28.0915981 C101.381533,27.8862648 101.3302,27.6501315 101.3302,27.3831981 C101.3302,27.0443981 101.435433,26.7800315 101.6459,26.5900981 C101.856367,26.4001648 102.131,26.3051981 102.4698,26.3051981 C102.726467,26.3051981 102.944633,26.3667981 103.1243,26.4899981 C103.303967,26.6131981 103.445133,26.8056981 103.5478,27.0674981 C103.650467,27.3292981 103.712067,27.6603981 103.7326,28.0607981 L103.7326,28.0607981 L104.5334,27.7989981 C104.5026,27.1111315 104.312667,26.5490315 103.9636,26.1126981 C103.614533,25.6763648 103.1012,25.4581981 102.4236,25.4581981 C102.002667,25.4581981 101.633067,25.5377648 101.3148,25.6968981 C100.996533,25.8560315 100.747567,26.0818981 100.5679,26.3744981 C100.388233,26.6670981 100.2984,27.0289981 100.2984,27.4601981 C100.2984,27.9324648 100.401067,28.3379981 100.6064,28.6767981 C100.811733,29.0155981 101.1146,29.3543981 101.515,29.6931981 L101.515,29.6931981 L102.7316,30.7403981 C103.1012,31.0586648 103.373267,31.3640981 103.5478,31.6566981 C103.722333,31.9492981 103.8096,32.2393315 103.8096,32.5267981 C103.8096,32.9271981 103.704367,33.2377648 103.4939,33.4584981 C103.283433,33.6792315 102.983133,33.7895981 102.593,33.7895981 C102.131,33.7895981 101.771667,33.6330315 101.515,33.3198981 C101.258333,33.0067648 101.0992,32.5062648 101.0376,31.8183981 L101.0376,31.8183981 L100.0982,32.1109981 C100.1598,32.8809981 100.401067,33.4944315 100.822,33.9512981 C101.242933,34.4081648 101.8076,34.6365981 102.516,34.6365981 Z M107.9676,33.6817981 C107.700667,33.6817981 107.464533,33.5816981 107.2592,33.3814981 C107.053867,33.1812981 106.9512,32.8450648 106.9512,32.3727981 C106.9512,32.0750648 106.9974,31.8158315 107.0898,31.5950981 C107.1822,31.3743648 107.325933,31.1767315 107.521,31.0021981 C107.716067,30.8276648 107.970167,30.6479981 108.2833,30.4631981 C108.596433,30.2783981 108.973733,30.0730648 109.4152,29.8471981 L109.4152,29.8471981 L109.4152,32.6191981 C109.333067,32.7834648 109.220133,32.9451648 109.0764,33.1042981 C108.932667,33.2634315 108.7684,33.3994648 108.5836,33.5123981 C108.3988,33.6253315 108.193467,33.6817981 107.9676,33.6817981 Z M109.446,33.2670001 L109.456588,33.3829419 C109.470063,33.5090294 109.4922,33.6625481 109.523,33.8434981 C109.564067,34.0847648 109.594867,34.3029315 109.6154,34.4979981 L109.6154,34.4979981 L110.6164,34.4979981 C110.606133,34.3850648 110.595867,34.2207981 110.5856,34.0051981 C110.575333,33.7895981 110.565067,33.5611648 110.5548,33.3198981 C110.544533,33.0786315 110.5394,32.8809981 110.5394,32.7269981 L110.5394,32.7269981 L110.5394,28.3995981 C110.5394,27.3934648 110.3777,26.6516981 110.0543,26.1742981 C109.7309,25.6968981 109.1688,25.4581981 108.368,25.4581981 C107.515867,25.4581981 106.902433,25.6763648 106.5277,26.1126981 C106.152967,26.5490315 105.960467,27.2189315 105.9502,28.1223981 L105.9502,28.1223981 L107.059,28.1377981 L107.059,27.8297981 C107.059,27.4396648 107.115467,27.1342315 107.2284,26.9134981 C107.341333,26.6927648 107.4902,26.5361981 107.675,26.4437981 C107.8598,26.3513981 108.070267,26.3051981 108.3064,26.3051981 C108.593867,26.3051981 108.817167,26.3719315 108.9763,26.5053981 C109.135433,26.6388648 109.248367,26.8621648 109.3151,27.1752981 C109.381833,27.4884315 109.4152,27.9170648 109.4152,28.4611981 L109.4152,28.4611981 L109.4152,29.0925981 C108.758133,29.3903315 108.201167,29.6598315 107.7443,29.9010981 C107.287433,30.1423648 106.917833,30.3887648 106.6355,30.6402981 C106.353167,30.8918315 106.147833,31.1767315 106.0195,31.4949981 C105.891167,31.8132648 105.827,32.1982648 105.827,32.6499981 C105.827,33.0093315 105.901433,33.3404315 106.0503,33.6432981 C106.199167,33.9461648 106.407067,34.1874315 106.674,34.3670981 C106.940933,34.5467648 107.254067,34.6365981 107.6134,34.6365981 C108.085667,34.6365981 108.478367,34.4979981 108.7915,34.2207981 C109.104633,33.9435981 109.3228,33.6253315 109.446,33.2659981 L109.446,33.2670001 Z M113.4654,34.4979981 L113.4654,22.0239981 L112.3412,22.0239981 L112.3412,34.4979981 L113.4654,34.4979981 Z" id="Diseñointegral/transversal" fill="#000000" fill-rule="nonzero"></path>
            <g id="Group-9" fill="#A9087C">
                <path d="M20.8250502,22.9899281 C19.8078814,22.9899281 19.7914283,23.6847375 19.7914283,27.3290439 C19.7914283,30.9048565 19.875522,31.6680378 20.8250502,31.6680378 C21.7738471,31.6680378 21.8586721,30.9048565 21.8586721,27.3290439 C21.8586721,23.6847375 21.842219,22.9899281 20.8250502,22.9899281" id="Fill-1"></path>
                <path d="M25.1764876,11.529997 C24.1531031,11.529997 24.1692972,12.7051158 24.1692972,14.4007628 C24.1692972,16.5323566 24.3208032,17.4219223 25.1764876,17.4219223 C25.9825688,17.4219223 26.1340759,16.5323566 26.1340759,14.4007628 C26.1340759,12.7051158 26.150147,11.529997 25.1764876,11.529997" id="Fill-3"></path>
                <path d="M13.3565133,17.4218857 C14.2128071,17.4218857 14.3644333,16.53232 14.3644333,14.4007262 C14.3644333,12.7050793 14.3800196,11.5299605 13.3565133,11.5299605 C12.3833414,11.5299605 12.399777,12.7050793 12.399777,14.4007262 C12.399777,16.53232 12.5507977,17.4218857 13.3565133,17.4218857" id="Fill-5"></path>
                <path d="M29.7539543,20.6913289 L35.1675201,20.6913289 L35.1675201,19.8553883 L29.7539543,19.8553883 L29.7539543,20.6913289 Z M28.5007136,18.7153695 L26.2502917,18.7153695 L26.2502917,17.7751038 L26.2181167,17.7751038 C25.7811948,18.596907 25.1266041,18.8829476 24.2196103,18.8829476 C21.7688259,18.8829476 21.8526759,16.1635506 21.8526759,14.4170818 C21.8526759,12.7051036 21.7858884,10.0690692 24.1693978,10.0690692 C25.025326,10.0690692 25.6131291,10.3211067 26.0998979,11.0433379 L26.1341448,11.0433379 L26.1341448,6.59368151 L28.5007136,6.59368151 L28.5007136,18.7153695 Z M20.8250258,33.3966763 C17.6383601,33.3966763 17.4009476,31.0070731 17.4009476,27.295248 C17.4009476,22.7691759 17.909532,21.2606071 20.8250258,21.2606071 C23.7405197,21.2606071 24.2491041,22.7691759 24.2491041,27.295248 C24.2491041,31.0070731 24.0116916,33.3966763 20.8250258,33.3966763 L20.8250258,33.3966763 Z M16.9144225,33.2440888 L9.89722539,33.2440888 L9.89722539,31.1595387 C13.6256255,26.1932542 14.4053818,25.6169073 14.4053818,24.1422197 C14.4053818,23.5488103 14.1852756,22.9898915 13.5076505,22.9898915 C12.524363,22.9898915 12.4732974,23.9222353 12.4732974,24.6846854 L10.0835723,24.6846854 C9.91392227,22.4813071 11.1510754,21.2606071 13.3380005,21.2606071 C15.3887912,21.2606071 16.7958382,22.091429 16.7958382,24.3121135 C16.7958382,26.9728886 13.6939974,29.9899043 12.4056567,31.4135262 L16.9144225,31.4135262 L16.9144225,33.2440888 Z M10.0326285,6.59368151 L12.3998067,6.59368151 L12.3998067,11.0433379 L12.4338099,11.0433379 C12.9205786,10.3211067 13.5083818,10.0690692 14.3643099,10.0690692 C16.7479413,10.0690692 16.6810319,12.7051036 16.6810319,14.4170818 C16.6810319,16.1635506 16.7645163,18.8829476 14.3140974,18.8829476 C13.4071037,18.8829476 12.7521474,18.596907 12.3162005,17.7751038 L12.2821974,17.7751038 L12.2821974,18.7153695 L10.0326285,18.7153695 L10.0326285,6.59368151 Z M18.091857,18.7153695 L20.4586696,18.7153695 L20.4586696,10.2371348 L18.091857,10.2371348 L18.091857,18.7153695 Z M18.091857,8.45739409 L20.4586696,8.45739409 L20.4586696,6.59368151 L18.091857,6.59368151 L18.091857,8.45739409 Z M19.3699601,0.0164531257 C8.67152847,0.0164531257 0,8.68920035 0,19.3848289 C0,30.0841137 8.67152847,38.7562515 19.3699601,38.7562515 C30.0670512,38.7562515 38.7400422,30.0841137 38.7400422,19.3848289 C38.7400422,8.68920035 30.0670512,0.0164531257 19.3699601,0.0164531257 L19.3699601,0.0164531257 Z" id="Fill-7"></path>
            </g>
        </g>
    </g>
</svg>