<?xml version="1.0" encoding="UTF-8"?>
<svg width="164px" height="39px" viewBox="0 0 164 39" version="1.1" xmlns="http://www.w3.org/2000/svg" xmlns:xlink="http://www.w3.org/1999/xlink">
    <title>investigacion</title>
    <g id="Page-1" stroke="none" stroke-width="1" fill="none" fill-rule="evenodd">
        <g id="investigacion" transform="translate(-0.000000, 0.000000)">
            <path d="M50.2946,25.248999 L50.2946,12.774999 L49.1242,12.774999 L49.1242,25.248999 L50.2946,25.248999 Z M53.4054,25.248999 L53.4054,17.918599 C53.6415333,17.672199 53.8930667,17.471999 54.16,17.317999 C54.4269333,17.163999 54.6887333,17.086999 54.9454,17.086999 C55.2328667,17.086999 55.4459,17.1819657 55.5845,17.371899 C55.7231,17.5618323 55.7924,17.887799 55.7924,18.349799 L55.7924,18.349799 L55.7924,25.248999 L56.9166,25.248999 L56.9166,18.103399 C56.9166,17.702999 56.8652667,17.3616323 56.7626,17.079299 C56.6599333,16.7969657 56.5059333,16.5813657 56.3006,16.432499 C56.0952667,16.2836323 55.8437333,16.209199 55.546,16.209199 C55.1250667,16.209199 54.7349333,16.309299 54.3756,16.509499 C54.0162667,16.709699 53.6928667,16.963799 53.4054,17.271799 L53.4054,17.271799 L53.4054,16.347799 L52.2812,16.347799 L52.2812,25.248999 L53.4054,25.248999 Z M61.244,25.248999 L63.1074,16.347799 L62.014,16.347799 L60.5818,23.955399 L59.1342,16.347799 L57.9946,16.347799 L59.9196,25.248999 L61.244,25.248999 Z M66.48,25.387599 C67.3526667,25.387599 67.9558333,25.1437657 68.2895,24.656099 C68.6231667,24.1684323 68.79,23.5190657 68.79,22.707999 L68.79,22.707999 L68.79,22.215199 L67.6966,22.215199 L67.6966,22.831199 C67.6966,23.293199 67.6427,23.6499657 67.5349,23.901499 C67.4271,24.1530323 67.2808,24.3224323 67.096,24.409699 C66.9112,24.4969657 66.7058667,24.540599 66.48,24.540599 C66.1822667,24.540599 65.9384333,24.4687323 65.7485,24.324999 C65.5585667,24.1812657 65.4199667,23.9425657 65.3327,23.608899 C65.2454333,23.2752323 65.2018,22.8209323 65.2018,22.245999 L65.2018,22.245999 L65.2018,20.690599 L68.8054,20.690599 L68.8054,19.889799 C68.8054,19.0479323 68.7412333,18.357499 68.6129,17.818499 C68.4845667,17.279499 68.2561333,16.8765323 67.9276,16.609599 C67.5990667,16.3426657 67.1216667,16.209199 66.4954,16.209199 C65.9512667,16.209199 65.4995333,16.3144323 65.1402,16.524899 C64.7808667,16.7353657 64.5139333,17.0895657 64.3394,17.587499 C64.1648667,18.0854323 64.0776,18.7758657 64.0776,19.658799 L64.0776,19.658799 L64.0776,21.907199 C64.0776,22.7593323 64.1623,23.4420657 64.3317,23.955399 C64.5011,24.4687323 64.7629,24.8357657 65.1171,25.056499 C65.4713,25.2772323 65.9256,25.387599 66.48,25.387599 Z M67.6966,20.043799 L65.2018,20.043799 L65.2018,19.443199 C65.2018,18.8066657 65.2428667,18.3164323 65.325,17.972499 C65.4071333,17.6285657 65.5431667,17.3898657 65.7331,17.256399 C65.9230333,17.1229323 66.172,17.056199 66.48,17.056199 C66.8496,17.056199 67.1191,17.1460323 67.2885,17.325699 C67.4579,17.5053657 67.5682667,17.7620323 67.6196,18.095699 C67.6709333,18.4293657 67.6966,18.8323323 67.6966,19.304599 L67.6966,19.304599 L67.6966,20.043799 Z M72.3628,25.387599 C72.8248,25.387599 73.2252,25.302899 73.564,25.133499 C73.9028,24.964099 74.1671667,24.7228323 74.3571,24.409699 C74.5470333,24.0965657 74.642,23.708999 74.642,23.246999 C74.642,22.8363323 74.5701333,22.4795657 74.4264,22.176699 C74.2826667,21.8738323 74.0978667,21.599199 73.872,21.352799 C73.6461333,21.106399 73.41,20.875399 73.1636,20.659799 L73.1636,20.659799 L71.9008,19.535599 C71.6236,19.2789323 71.4336667,19.0479323 71.331,18.842599 C71.2283333,18.6372657 71.177,18.4011323 71.177,18.134199 C71.177,17.795399 71.2822333,17.5310323 71.4927,17.341099 C71.7031667,17.1511657 71.9778,17.056199 72.3166,17.056199 C72.5732667,17.056199 72.7914333,17.117799 72.9711,17.240999 C73.1507667,17.364199 73.2919333,17.556699 73.3946,17.818499 C73.4972667,18.080299 73.5588667,18.411399 73.5794,18.811799 L73.5794,18.811799 L74.3802,18.549999 C74.3494,17.8621323 74.1594667,17.3000323 73.8104,16.863699 C73.4613333,16.4273657 72.948,16.209199 72.2704,16.209199 C71.8494667,16.209199 71.4798667,16.2887657 71.1616,16.447899 C70.8433333,16.6070323 70.5943667,16.832899 70.4147,17.125499 C70.2350333,17.418099 70.1452,17.779999 70.1452,18.211199 C70.1452,18.6834657 70.2478667,19.088999 70.4532,19.427799 C70.6585333,19.766599 70.9614,20.105399 71.3618,20.444199 L71.3618,20.444199 L72.5784,21.491399 C72.948,21.8096657 73.2200667,22.115099 73.3946,22.407699 C73.5691333,22.700299 73.6564,22.9903323 73.6564,23.277799 C73.6564,23.678199 73.5511667,23.9887657 73.3407,24.209499 C73.1302333,24.4302323 72.8299333,24.540599 72.4398,24.540599 C71.9778,24.540599 71.6184667,24.3840323 71.3618,24.070899 C71.1051333,23.7577657 70.946,23.2572657 70.8844,22.569399 L70.8844,22.569399 L69.945,22.861999 C70.0066,23.631999 70.2478667,24.2454323 70.6688,24.702299 C71.0897333,25.1591657 71.6544,25.387599 72.3628,25.387599 Z M78.03,25.356799 C78.184,25.356799 78.3431333,25.349099 78.5074,25.333699 C78.6716667,25.318299 78.8308,25.295199 78.9848,25.264399 L78.9848,25.264399 L78.9848,24.401999 C78.8821333,24.4225323 78.7717667,24.440499 78.6537,24.455899 C78.5356333,24.471299 78.4304,24.478999 78.338,24.478999 C78.0094667,24.478999 77.7964333,24.3891657 77.6989,24.209499 C77.6013667,24.0298323 77.5526,23.724399 77.5526,23.293199 L77.5526,23.293199 L77.5526,17.086999 L79.031,17.086999 L79.031,16.347799 L77.5526,16.347799 L77.5526,13.591199 L76.4284,13.591199 L76.4284,16.347799 L75.335,16.347799 L75.335,17.086999 L76.4284,17.086999 L76.4284,23.400999 C76.4284,23.7808657 76.4720333,24.117099 76.5593,24.409699 C76.6465667,24.702299 76.8057,24.933299 77.0367,25.102699 C77.2677,25.272099 77.5988,25.356799 78.03,25.356799 Z M81.4796,15.115799 L81.4796,13.591199 L80.3554,13.591199 L80.3554,15.115799 L81.4796,15.115799 Z M81.4796,25.248999 L81.4796,16.347799 L80.3554,16.347799 L80.3554,25.248999 L81.4796,25.248999 Z M85.6376,28.174999 C86.2228,28.174999 86.7335667,28.1005657 87.1699,27.951699 C87.6062333,27.8028323 87.9501667,27.574399 88.2017,27.266399 C88.4532333,26.958399 88.579,26.573399 88.579,26.111399 C88.579,25.495399 88.3865,25.0231323 88.0015,24.694599 C87.6165,24.3660657 87.0646667,24.1504657 86.346,24.047799 L86.346,24.047799 L84.9292,23.832199 C84.6725333,23.801399 84.4851667,23.747499 84.3671,23.670499 C84.2490333,23.593499 84.19,23.4831323 84.19,23.339399 C84.19,23.1751323 84.2541667,23.0031657 84.3825,22.823499 C84.5108333,22.6438323 84.6468667,22.476999 84.7906,22.322999 C84.9035333,22.353799 85.0447,22.384599 85.2141,22.415399 C85.3835,22.446199 85.5452,22.461599 85.6992,22.461599 C86.3049333,22.461599 86.7849,22.3255657 87.1391,22.053499 C87.4933,21.7814323 87.7499667,21.4092657 87.9091,20.936999 C88.0682333,20.4647323 88.1478,19.935999 88.1478,19.350799 C88.1478,19.135199 88.1195667,18.8682657 88.0631,18.549999 C88.0066333,18.2317323 87.9424667,17.980199 87.8706,17.795399 C87.9527333,17.6927323 88.0785,17.5900657 88.2479,17.487399 C88.4173,17.3847323 88.5995333,17.2897657 88.7946,17.202499 C88.9896667,17.1152323 89.1693333,17.056199 89.3336,17.025399 L89.3336,17.025399 L89.0256,16.239999 L88.7946,16.316999 C88.5379333,16.4196657 88.2966667,16.5762323 88.0708,16.786699 C87.8449333,16.9971657 87.6858,17.1742657 87.5934,17.317999 C87.4394,17.009999 87.2135333,16.748199 86.9158,16.532599 C86.6180667,16.316999 86.2074,16.209199 85.6838,16.209199 C85.1088667,16.209199 84.6391667,16.3503657 84.2747,16.632699 C83.9102333,16.9150323 83.6381667,17.2897657 83.4585,17.756899 C83.2788333,18.2240323 83.189,18.7450657 83.189,19.319999 C83.189,19.935999 83.2737,20.4698657 83.4431,20.921599 C83.6125,21.3733323 83.9025333,21.7429323 84.3132,22.030399 C83.9846667,22.307599 83.7254333,22.569399 83.5355,22.815799 C83.3455667,23.062199 83.2506,23.339399 83.2506,23.647399 C83.2506,23.8732657 83.3301667,24.0683323 83.4893,24.232599 C83.6484333,24.3968657 83.8974,24.525199 84.2362,24.617599 C84.0000667,24.740799 83.7690667,24.8973657 83.5432,25.087299 C83.3173333,25.2772323 83.1325333,25.495399 82.9888,25.741799 C82.8450667,25.988199 82.7732,26.2602657 82.7732,26.557999 C82.7732,26.927599 82.8887,27.2330323 83.1197,27.474299 C83.3507,27.7155657 83.6818,27.8926657 84.113,28.005599 C84.5442,28.1185323 85.0524,28.174999 85.6376,28.174999 Z M85.6992,21.645399 C85.3809333,21.645399 85.1217,21.5735323 84.9215,21.429799 C84.7213,21.2860657 84.5673,21.098699 84.4595,20.867699 C84.3517,20.636699 84.2824,20.382599 84.2516,20.105399 C84.2208,19.828199 84.2054,19.566399 84.2054,19.319999 C84.2054,19.0633323 84.2233667,18.8015323 84.2593,18.534599 C84.2952333,18.2676657 84.3671,18.018699 84.4749,17.787699 C84.5827,17.556699 84.7367,17.3693323 84.9369,17.225599 C85.1371,17.0818657 85.3912,17.009999 85.6992,17.009999 C86.0072,17.009999 86.2561667,17.079299 86.4461,17.217899 C86.6360333,17.356499 86.7823333,17.541299 86.885,17.772299 C86.9876667,18.003299 87.0595333,18.2522657 87.1006,18.519199 C87.1416667,18.7861323 87.1622,19.0530657 87.1622,19.319999 C87.1622,19.5869323 87.1442333,19.858999 87.1083,20.136199 C87.0723667,20.413399 87.0056333,20.6649323 86.9081,20.890799 C86.8105667,21.1166657 86.6668333,21.298899 86.4769,21.437499 C86.2869667,21.576099 86.0277333,21.645399 85.6992,21.645399 Z M85.6838,27.266399 C85.0267333,27.266399 84.5365,27.1868323 84.2131,27.027699 C83.8897,26.8685657 83.728,26.619599 83.728,26.280799 C83.728,26.0446657 83.7921667,25.834199 83.9205,25.649399 C84.0488333,25.464599 84.2002667,25.2977657 84.3748,25.148899 C84.5493333,25.0000323 84.7136,24.8742657 84.8676,24.771599 L84.8676,24.771599 L86.0072,24.925599 C86.4692,24.9974657 86.8208333,25.087299 87.0621,25.195099 C87.3033667,25.302899 87.4676333,25.433799 87.5549,25.587799 C87.6421667,25.741799 87.6858,25.9214657 87.6858,26.126799 C87.6858,26.527199 87.501,26.8172323 87.1314,26.996899 C86.7618,27.1765657 86.2792667,27.266399 85.6838,27.266399 Z M91.9054,24.432799 C91.6384667,24.432799 91.4023333,24.332699 91.197,24.132499 C90.9916667,23.932299 90.889,23.5960657 90.889,23.123799 C90.889,22.8260657 90.9352,22.5668323 91.0276,22.346099 C91.12,22.1253657 91.2637333,21.9277323 91.4588,21.753199 C91.6538667,21.5786657 91.9079667,21.398999 92.2211,21.214199 C92.5342333,21.029399 92.9115333,20.8240657 93.353,20.598199 L93.353,20.598199 L93.353,23.370199 C93.2708667,23.5344657 93.1579333,23.6961657 93.0142,23.855299 C92.8704667,24.0144323 92.7062,24.1504657 92.5214,24.263399 C92.3366,24.3763323 92.1312667,24.432799 91.9054,24.432799 Z M93.383,24.018 L93.3943875,24.1339428 C93.4078625,24.2600303 93.43,24.413549 93.4608,24.594499 C93.5018667,24.8357657 93.5326667,25.0539323 93.5532,25.248999 L93.5532,25.248999 L94.5542,25.248999 C94.5490667,25.1925323 94.5439333,25.1232323 94.5388,25.041099 L94.5234,24.756199 C94.5131333,24.540599 94.5028667,24.3121657 94.4926,24.070899 C94.4823333,23.8296323 94.4772,23.631999 94.4772,23.477999 L94.4772,23.477999 L94.4772,19.150599 C94.4772,18.1444657 94.3155,17.402699 93.9921,16.925299 C93.6687,16.447899 93.1066,16.209199 92.3058,16.209199 C91.4536667,16.209199 90.8402333,16.4273657 90.4655,16.863699 C90.0907667,17.3000323 89.8982667,17.9699323 89.888,18.873399 L89.888,18.873399 L90.9968,18.888799 L90.9968,18.580799 C90.9968,18.1906657 91.0532667,17.8852323 91.1662,17.664499 C91.2791333,17.4437657 91.428,17.287199 91.6128,17.194799 C91.7976,17.102399 92.0080667,17.056199 92.2442,17.056199 C92.5316667,17.056199 92.7549667,17.1229323 92.9141,17.256399 C93.0732333,17.3898657 93.1861667,17.6131657 93.2529,17.926299 C93.3196333,18.2394323 93.353,18.6680657 93.353,19.212199 L93.353,19.212199 L93.353,19.843599 C92.6959333,20.1413323 92.1389667,20.4108323 91.6821,20.652099 C91.2252333,20.8933657 90.8556333,21.1397657 90.5733,21.391299 C90.2909667,21.6428323 90.0856333,21.9277323 89.9573,22.245999 C89.8289667,22.5642657 89.7648,22.9492657 89.7648,23.400999 C89.7648,23.7603323 89.8392333,24.0914323 89.9881,24.394299 C90.1369667,24.6971657 90.3448667,24.9384323 90.6118,25.118099 C90.8787333,25.2977657 91.1918667,25.387599 91.5512,25.387599 C92.0234667,25.387599 92.4161667,25.248999 92.7293,24.971799 C93.0424333,24.694599 93.2606,24.3763323 93.3838,24.016999 L93.383,24.018 Z M98.3426,25.387599 C98.9791333,25.387599 99.4616667,25.256699 99.7902,24.994899 C100.118733,24.733099 100.3369,24.3737657 100.4447,23.916899 C100.5525,23.4600323 100.6064,22.9338657 100.6064,22.338399 L100.6064,22.338399 L100.6064,21.907199 L99.5592,21.907199 L99.5592,22.399999 C99.5592,22.8722657 99.5335333,23.2675323 99.4822,23.585799 C99.4308667,23.9040657 99.3179333,24.1427657 99.1434,24.301899 C98.9688667,24.4610323 98.7070667,24.540599 98.358,24.540599 C97.8549333,24.540599 97.5161333,24.3583657 97.3416,23.993899 C97.1670667,23.6294323 97.0798,23.000599 97.0798,22.107399 L97.0798,22.107399 L97.0798,19.612599 C97.0798,18.9863323 97.1106,18.4858323 97.1722,18.111099 C97.2338,17.7363657 97.357,17.4668657 97.5418,17.302599 C97.7266,17.1383323 97.9935333,17.056199 98.3426,17.056199 C98.6403333,17.056199 98.8790333,17.1152323 99.0587,17.233299 C99.2383667,17.3513657 99.3667,17.5541323 99.4437,17.841599 C99.5207,18.1290657 99.5592,18.534599 99.5592,19.058199 L99.5592,19.058199 L99.5592,19.489399 L100.6064,19.489399 L100.6064,19.058199 C100.6064,18.4935323 100.549933,17.995599 100.437,17.564399 C100.324067,17.133199 100.103333,16.7995323 99.7748,16.563399 C99.4462667,16.3272657 98.9688667,16.209199 98.3426,16.209199 C97.7060667,16.209199 97.2158333,16.3375323 96.8719,16.594199 C96.5279667,16.8508657 96.2892667,17.2435657 96.1558,17.772299 C96.0223333,18.3010323 95.9556,18.9760657 95.9556,19.797399 L95.9556,19.797399 L95.9556,21.876399 C95.9556,22.5437323 96.0095,23.1417657 96.1173,23.670499 C96.2251,24.1992323 96.4484,24.617599 96.7872,24.925599 C97.126,25.233599 97.6444667,25.387599 98.3426,25.387599 Z M103.363,15.115799 L103.363,13.591199 L102.2388,13.591199 L102.2388,15.115799 L103.363,15.115799 Z M103.363,25.248999 L103.363,16.347799 L102.2388,16.347799 L102.2388,25.248999 L103.363,25.248999 Z M107.7674,15.608599 L109.2766,12.590199 L108.1524,12.590199 L107.1822,15.608599 L107.7674,15.608599 Z M107.4594,25.387599 C108.085667,25.387599 108.5682,25.256699 108.907,24.994899 C109.2458,24.733099 109.487067,24.3532323 109.6308,23.855299 C109.774533,23.3573657 109.8464,22.7490657 109.8464,22.030399 L109.8464,22.030399 L109.8464,19.566399 C109.8464,18.8477323 109.774533,18.2394323 109.6308,17.741499 C109.487067,17.2435657 109.2458,16.863699 108.907,16.601899 C108.5682,16.340099 108.085667,16.209199 107.4594,16.209199 C106.853667,16.209199 106.378833,16.340099 106.0349,16.601899 C105.690967,16.863699 105.447133,17.2435657 105.3034,17.741499 C105.159667,18.2394323 105.0878,18.8477323 105.0878,19.566399 L105.0878,19.566399 L105.0878,22.030399 C105.0878,22.7490657 105.159667,23.3573657 105.3034,23.855299 C105.447133,24.3532323 105.690967,24.733099 106.0349,24.994899 C106.378833,25.256699 106.853667,25.387599 107.4594,25.387599 Z M107.4594,24.540599 C107.069267,24.540599 106.786933,24.4379323 106.6124,24.232599 C106.437867,24.0272657 106.330067,23.7372323 106.289,23.362499 C106.247933,22.9877657 106.2274,22.5642657 106.2274,22.091999 L106.2274,22.091999 L106.2274,19.504799 C106.2274,19.0222657 106.247933,18.5987657 106.289,18.234299 C106.330067,17.8698323 106.437867,17.5823657 106.6124,17.371899 C106.786933,17.1614323 107.069267,17.056199 107.4594,17.056199 C107.849533,17.056199 108.134433,17.1614323 108.3141,17.371899 C108.493767,17.5823657 108.604133,17.8698323 108.6452,18.234299 C108.686267,18.5987657 108.7068,19.0222657 108.7068,19.504799 L108.7068,19.504799 L108.7068,22.091999 C108.7068,22.5642657 108.686267,22.9877657 108.6452,23.362499 C108.604133,23.7372323 108.493767,24.0272657 108.3141,24.232599 C108.134433,24.4379323 107.849533,24.540599 107.4594,24.540599 Z M112.526,25.248999 L112.526,17.918599 C112.762133,17.672199 113.013667,17.471999 113.2806,17.317999 C113.547533,17.163999 113.809333,17.086999 114.066,17.086999 C114.353467,17.086999 114.5665,17.1819657 114.7051,17.371899 C114.8437,17.5618323 114.913,17.887799 114.913,18.349799 L114.913,18.349799 L114.913,25.248999 L116.0372,25.248999 L116.0372,18.103399 C116.0372,17.702999 115.985867,17.3616323 115.8832,17.079299 C115.780533,16.7969657 115.626533,16.5813657 115.4212,16.432499 C115.215867,16.2836323 114.964333,16.209199 114.6666,16.209199 C114.245667,16.209199 113.855533,16.309299 113.4962,16.509499 C113.136867,16.709699 112.813467,16.963799 112.526,17.271799 L112.526,17.271799 L112.526,16.347799 L111.4018,16.347799 L111.4018,25.248999 L112.526,25.248999 Z M120.8882,27.466599 C121.391267,27.466599 121.814767,27.412699 122.1587,27.304899 C122.502633,27.197099 122.779833,27.027699 122.9903,26.796699 C123.200767,26.565699 123.347067,26.2602657 123.4292,25.880399 L123.4292,25.880399 L125.5852,16.347799 L124.4456,16.347799 L122.9518,23.924599 L121.4118,16.347799 L120.2876,16.347799 L122.1202,24.186399 C122.192067,24.4738657 122.2588,24.7510657 122.3204,25.017999 C122.382,25.2849323 122.4128,25.5005323 122.4128,25.664799 C122.4128,25.849599 122.369167,26.011299 122.2819,26.149899 C122.194633,26.288499 122.0201,26.396299 121.7583,26.473299 C121.4965,26.550299 121.108933,26.588799 120.5956,26.588799 L120.5956,26.588799 L120.5956,27.466599 L120.8882,27.466599 Z M132.9002,25.248999 C133.7318,25.248999 134.383733,25.0898657 134.856,24.771599 C135.328267,24.4533323 135.667067,24.0041657 135.8724,23.424099 C136.077733,22.8440323 136.1804,22.168999 136.1804,21.398999 L136.1804,21.398999 L136.1804,16.440199 C136.1804,15.7112657 136.077733,15.069599 135.8724,14.515199 C135.667067,13.960799 135.320567,13.5321657 134.8329,13.229299 C134.345233,12.9264323 133.665067,12.774999 132.7924,12.774999 L132.7924,12.774999 L130.082,12.774999 L130.082,25.248999 L132.9002,25.248999 Z M132.8232,24.371199 L131.2524,24.371199 L131.2524,13.683599 L132.777,13.683599 C133.403267,13.683599 133.872967,13.7939657 134.1861,14.014699 C134.499233,14.2354323 134.7097,14.5588323 134.8175,14.984899 C134.9253,15.4109657 134.9792,15.9371323 134.9792,16.563399 L134.9792,16.563399 L134.9792,21.214199 C134.9792,21.8199323 134.938133,22.361499 134.856,22.838899 C134.773867,23.316299 134.5788,23.6910323 134.2708,23.963099 C133.9628,24.2351657 133.480267,24.371199 132.8232,24.371199 L132.8232,24.371199 Z M139.1218,15.115799 L139.1218,13.591199 L137.9976,13.591199 L137.9976,15.115799 L139.1218,15.115799 Z M139.1218,25.248999 L139.1218,16.347799 L137.9976,16.347799 L137.9976,25.248999 L139.1218,25.248999 Z M143.0488,25.387599 C143.5108,25.387599 143.9112,25.302899 144.25,25.133499 C144.5888,24.964099 144.853167,24.7228323 145.0431,24.409699 C145.233033,24.0965657 145.328,23.708999 145.328,23.246999 C145.328,22.8363323 145.256133,22.4795657 145.1124,22.176699 C144.968667,21.8738323 144.783867,21.599199 144.558,21.352799 C144.332133,21.106399 144.096,20.875399 143.8496,20.659799 L143.8496,20.659799 L142.5868,19.535599 C142.3096,19.2789323 142.119667,19.0479323 142.017,18.842599 C141.914333,18.6372657 141.863,18.4011323 141.863,18.134199 C141.863,17.795399 141.968233,17.5310323 142.1787,17.341099 C142.389167,17.1511657 142.6638,17.056199 143.0026,17.056199 C143.259267,17.056199 143.477433,17.117799 143.6571,17.240999 C143.836767,17.364199 143.977933,17.556699 144.0806,17.818499 C144.183267,18.080299 144.244867,18.411399 144.2654,18.811799 L144.2654,18.811799 L145.0662,18.549999 C145.0354,17.8621323 144.845467,17.3000323 144.4964,16.863699 C144.147333,16.4273657 143.634,16.209199 142.9564,16.209199 C142.535467,16.209199 142.165867,16.2887657 141.8476,16.447899 C141.529333,16.6070323 141.280367,16.832899 141.1007,17.125499 C140.921033,17.418099 140.8312,17.779999 140.8312,18.211199 C140.8312,18.6834657 140.933867,19.088999 141.1392,19.427799 C141.344533,19.766599 141.6474,20.105399 142.0478,20.444199 L142.0478,20.444199 L143.2644,21.491399 C143.634,21.8096657 143.906067,22.115099 144.0806,22.407699 C144.255133,22.700299 144.3424,22.9903323 144.3424,23.277799 C144.3424,23.678199 144.237167,23.9887657 144.0267,24.209499 C143.816233,24.4302323 143.515933,24.540599 143.1258,24.540599 C142.6638,24.540599 142.304467,24.3840323 142.0478,24.070899 C141.791133,23.7577657 141.632,23.2572657 141.5704,22.569399 L141.5704,22.569399 L140.631,22.861999 C140.6926,23.631999 140.933867,24.2454323 141.3548,24.702299 C141.775733,25.1591657 142.3404,25.387599 143.0488,25.387599 Z M148.8392,25.387599 C149.711867,25.387599 150.315033,25.1437657 150.6487,24.656099 C150.982367,24.1684323 151.1492,23.5190657 151.1492,22.707999 L151.1492,22.707999 L151.1492,22.215199 L150.0558,22.215199 L150.0558,22.831199 C150.0558,23.293199 150.0019,23.6499657 149.8941,23.901499 C149.7863,24.1530323 149.64,24.3224323 149.4552,24.409699 C149.2704,24.4969657 149.065067,24.540599 148.8392,24.540599 C148.541467,24.540599 148.297633,24.4687323 148.1077,24.324999 C147.917767,24.1812657 147.779167,23.9425657 147.6919,23.608899 C147.604633,23.2752323 147.561,22.8209323 147.561,22.245999 L147.561,22.245999 L147.561,20.690599 L151.1646,20.690599 L151.1646,19.889799 C151.1646,19.0479323 151.100433,18.357499 150.9721,17.818499 C150.843767,17.279499 150.615333,16.8765323 150.2868,16.609599 C149.958267,16.3426657 149.480867,16.209199 148.8546,16.209199 C148.310467,16.209199 147.858733,16.3144323 147.4994,16.524899 C147.140067,16.7353657 146.873133,17.0895657 146.6986,17.587499 C146.524067,18.0854323 146.4368,18.7758657 146.4368,19.658799 L146.4368,19.658799 L146.4368,21.907199 C146.4368,22.7593323 146.5215,23.4420657 146.6909,23.955399 C146.8603,24.4687323 147.1221,24.8357657 147.4763,25.056499 C147.8305,25.2772323 148.2848,25.387599 148.8392,25.387599 Z M150.0558,20.043799 L147.561,20.043799 L147.561,19.443199 C147.561,18.8066657 147.602067,18.3164323 147.6842,17.972499 C147.766333,17.6285657 147.902367,17.3898657 148.0923,17.256399 C148.282233,17.1229323 148.5312,17.056199 148.8392,17.056199 C149.2088,17.056199 149.4783,17.1460323 149.6477,17.325699 C149.8171,17.5053657 149.927467,17.7620323 149.9788,18.095699 C150.030133,18.4293657 150.0558,18.8323323 150.0558,19.304599 L150.0558,19.304599 L150.0558,20.043799 Z M155.9232,14.592199 C156.2312,14.592199 156.4622,14.5126323 156.6162,14.353499 C156.7702,14.1943657 156.8703,14.0044323 156.9165,13.783699 C156.9627,13.5629657 156.9858,13.360199 156.9858,13.175399 L156.9858,13.175399 L156.3082,13.175399 C156.3082,13.421799 156.267133,13.5937657 156.185,13.691299 C156.102867,13.7888323 155.974533,13.837599 155.8,13.837599 C155.6152,13.837599 155.435533,13.775999 155.261,13.652799 C155.086467,13.529599 154.901667,13.4089657 154.7066,13.290899 C154.511533,13.1728323 154.2908,13.113799 154.0444,13.113799 C153.756933,13.113799 153.5362,13.190799 153.3822,13.344799 C153.2282,13.498799 153.122967,13.6810323 153.0665,13.891499 C153.010033,14.1019657 152.9818,14.2944657 152.9818,14.468999 L152.9818,14.468999 L153.6748,14.468999 C153.6748,14.2636657 153.718433,14.1096657 153.8057,14.006999 C153.892967,13.9043323 154.018733,13.852999 154.183,13.852999 C154.3678,13.852999 154.5449,13.914599 154.7143,14.037799 C154.8837,14.160999 155.065933,14.284199 155.261,14.407399 C155.456067,14.530599 155.6768,14.592199 155.9232,14.592199 Z M153.8134,25.248999 L153.8134,17.918599 C154.049533,17.672199 154.301067,17.471999 154.568,17.317999 C154.834933,17.163999 155.096733,17.086999 155.3534,17.086999 C155.640867,17.086999 155.8539,17.1819657 155.9925,17.371899 C156.1311,17.5618323 156.2004,17.887799 156.2004,18.349799 L156.2004,18.349799 L156.2004,25.248999 L157.3246,25.248999 L157.3246,18.103399 C157.3246,17.702999 157.273267,17.3616323 157.1706,17.079299 C157.067933,16.7969657 156.913933,16.5813657 156.7086,16.432499 C156.503267,16.2836323 156.251733,16.209199 155.954,16.209199 C155.533067,16.209199 155.142933,16.309299 154.7836,16.509499 C154.424267,16.709699 154.100867,16.963799 153.8134,17.271799 L153.8134,17.271799 L153.8134,16.347799 L152.6892,16.347799 L152.6892,25.248999 L153.8134,25.248999 Z M161.19,25.387599 C161.816267,25.387599 162.2988,25.256699 162.6376,24.994899 C162.9764,24.733099 163.217667,24.3532323 163.3614,23.855299 C163.505133,23.3573657 163.577,22.7490657 163.577,22.030399 L163.577,22.030399 L163.577,19.566399 C163.577,18.8477323 163.505133,18.2394323 163.3614,17.741499 C163.217667,17.2435657 162.9764,16.863699 162.6376,16.601899 C162.2988,16.340099 161.816267,16.209199 161.19,16.209199 C160.584267,16.209199 160.109433,16.340099 159.7655,16.601899 C159.421567,16.863699 159.177733,17.2435657 159.034,17.741499 C158.890267,18.2394323 158.8184,18.8477323 158.8184,19.566399 L158.8184,19.566399 L158.8184,22.030399 C158.8184,22.7490657 158.890267,23.3573657 159.034,23.855299 C159.177733,24.3532323 159.421567,24.733099 159.7655,24.994899 C160.109433,25.256699 160.584267,25.387599 161.19,25.387599 Z M161.19,24.540599 C160.799867,24.540599 160.517533,24.4379323 160.343,24.232599 C160.168467,24.0272657 160.060667,23.7372323 160.0196,23.362499 C159.978533,22.9877657 159.958,22.5642657 159.958,22.091999 L159.958,22.091999 L159.958,19.504799 C159.958,19.0222657 159.978533,18.5987657 160.0196,18.234299 C160.060667,17.8698323 160.168467,17.5823657 160.343,17.371899 C160.517533,17.1614323 160.799867,17.056199 161.19,17.056199 C161.580133,17.056199 161.865033,17.1614323 162.0447,17.371899 C162.224367,17.5823657 162.334733,17.8698323 162.3758,18.234299 C162.416867,18.5987657 162.4374,19.0222657 162.4374,19.504799 L162.4374,19.504799 L162.4374,22.091999 C162.4374,22.5642657 162.416867,22.9877657 162.3758,23.362499 C162.334733,23.7372323 162.224367,24.0272657 162.0447,24.232599 C161.865033,24.4379323 161.580133,24.540599 161.19,24.540599 Z" id="InvestigaciónyDiseño" fill="#000000" fill-rule="nonzero"></path>
            <g id="Group-9-Copy-3" fill="#A4A49B">
                <path d="M20.8250502,22.9899281 C19.8078814,22.9899281 19.7914283,23.6847375 19.7914283,27.3290439 C19.7914283,30.9048565 19.875522,31.6680378 20.8250502,31.6680378 C21.7738471,31.6680378 21.8586721,30.9048565 21.8586721,27.3290439 C21.8586721,23.6847375 21.842219,22.9899281 20.8250502,22.9899281" id="Fill-1"></path>
                <path d="M25.1764876,11.529997 C24.1531031,11.529997 24.1692972,12.7051158 24.1692972,14.4007628 C24.1692972,16.5323566 24.3208032,17.4219223 25.1764876,17.4219223 C25.9825688,17.4219223 26.1340759,16.5323566 26.1340759,14.4007628 C26.1340759,12.7051158 26.150147,11.529997 25.1764876,11.529997" id="Fill-3"></path>
                <path d="M13.3565133,17.4218857 C14.2128071,17.4218857 14.3644333,16.53232 14.3644333,14.4007262 C14.3644333,12.7050793 14.3800196,11.5299605 13.3565133,11.5299605 C12.3833414,11.5299605 12.399777,12.7050793 12.399777,14.4007262 C12.399777,16.53232 12.5507977,17.4218857 13.3565133,17.4218857" id="Fill-5"></path>
                <path d="M29.7539543,20.6913289 L35.1675201,20.6913289 L35.1675201,19.8553883 L29.7539543,19.8553883 L29.7539543,20.6913289 Z M28.5007136,18.7153695 L26.2502917,18.7153695 L26.2502917,17.7751038 L26.2181167,17.7751038 C25.7811948,18.596907 25.1266041,18.8829476 24.2196103,18.8829476 C21.7688259,18.8829476 21.8526759,16.1635506 21.8526759,14.4170818 C21.8526759,12.7051036 21.7858884,10.0690692 24.1693978,10.0690692 C25.025326,10.0690692 25.6131291,10.3211067 26.0998979,11.0433379 L26.1341448,11.0433379 L26.1341448,6.59368151 L28.5007136,6.59368151 L28.5007136,18.7153695 Z M20.8250258,33.3966763 C17.6383601,33.3966763 17.4009476,31.0070731 17.4009476,27.295248 C17.4009476,22.7691759 17.909532,21.2606071 20.8250258,21.2606071 C23.7405197,21.2606071 24.2491041,22.7691759 24.2491041,27.295248 C24.2491041,31.0070731 24.0116916,33.3966763 20.8250258,33.3966763 L20.8250258,33.3966763 Z M16.9144225,33.2440888 L9.89722539,33.2440888 L9.89722539,31.1595387 C13.6256255,26.1932542 14.4053818,25.6169073 14.4053818,24.1422197 C14.4053818,23.5488103 14.1852756,22.9898915 13.5076505,22.9898915 C12.524363,22.9898915 12.4732974,23.9222353 12.4732974,24.6846854 L10.0835723,24.6846854 C9.91392227,22.4813071 11.1510754,21.2606071 13.3380005,21.2606071 C15.3887912,21.2606071 16.7958382,22.091429 16.7958382,24.3121135 C16.7958382,26.9728886 13.6939974,29.9899043 12.4056567,31.4135262 L16.9144225,31.4135262 L16.9144225,33.2440888 Z M10.0326285,6.59368151 L12.3998067,6.59368151 L12.3998067,11.0433379 L12.4338099,11.0433379 C12.9205786,10.3211067 13.5083818,10.0690692 14.3643099,10.0690692 C16.7479413,10.0690692 16.6810319,12.7051036 16.6810319,14.4170818 C16.6810319,16.1635506 16.7645163,18.8829476 14.3140974,18.8829476 C13.4071037,18.8829476 12.7521474,18.596907 12.3162005,17.7751038 L12.2821974,17.7751038 L12.2821974,18.7153695 L10.0326285,18.7153695 L10.0326285,6.59368151 Z M18.091857,18.7153695 L20.4586696,18.7153695 L20.4586696,10.2371348 L18.091857,10.2371348 L18.091857,18.7153695 Z M18.091857,8.45739409 L20.4586696,8.45739409 L20.4586696,6.59368151 L18.091857,6.59368151 L18.091857,8.45739409 Z M19.3699601,0.0164531257 C8.67152847,0.0164531257 0,8.68920035 0,19.3848289 C0,30.0841137 8.67152847,38.7562515 19.3699601,38.7562515 C30.0670512,38.7562515 38.7400422,30.0841137 38.7400422,19.3848289 C38.7400422,8.68920035 30.0670512,0.0164531257 19.3699601,0.0164531257 L19.3699601,0.0164531257 Z" id="Fill-7"></path>
            </g>
        </g>
    </g>
</svg>