<?xml version="1.0" encoding="UTF-8"?>
<svg width="223px" height="41px" viewBox="0 0 223 41" version="1.1" xmlns="http://www.w3.org/2000/svg" xmlns:xlink="http://www.w3.org/1999/xlink">
    <title>moda</title>
    <g id="Page-1" stroke="none" stroke-width="1" fill="none" fill-rule="evenodd">
        <g id="moda">
            <g transform="translate(0.000000, 2.000000)">
                <path d="M51.9116,18.2489991 C52.7432,18.2489991 53.3951333,18.0898658 53.8674,17.7715991 C54.3396667,17.4533325 54.6784667,17.0041658 54.8838,16.4240991 C55.0891333,15.8440325 55.1918,15.1689991 55.1918,14.3989991 L55.1918,14.3989991 L55.1918,9.44019912 C55.1918,8.71126579 55.0891333,8.06959912 54.8838,7.51519912 C54.6784667,6.96079912 54.3319667,6.53216579 53.8443,6.22929912 C53.3566333,5.92643245 52.6764667,5.77499912 51.8038,5.77499912 L51.8038,5.77499912 L49.0934,5.77499912 L49.0934,18.2489991 L51.9116,18.2489991 Z M51.8346,17.3711991 L50.2638,17.3711991 L50.2638,6.68359912 L51.7884,6.68359912 C52.4146667,6.68359912 52.8843667,6.79396579 53.1975,7.01469912 C53.5106333,7.23543245 53.7211,7.55883245 53.8289,7.98489912 C53.9367,8.41096579 53.9906,8.93713245 53.9906,9.56339912 L53.9906,9.56339912 L53.9906,14.2141991 C53.9906,14.8199325 53.9495333,15.3614991 53.8674,15.8388991 C53.7852667,16.3162991 53.5902,16.6910325 53.2822,16.9630991 C52.9742,17.2351658 52.4916667,17.3711991 51.8346,17.3711991 L51.8346,17.3711991 Z M58.1332,8.11579912 L58.1332,6.59119912 L57.009,6.59119912 L57.009,8.11579912 L58.1332,8.11579912 Z M58.1332,18.2489991 L58.1332,9.34779912 L57.009,9.34779912 L57.009,18.2489991 L58.1332,18.2489991 Z M62.0602,18.3875991 C62.5222,18.3875991 62.9226,18.3028991 63.2614,18.1334991 C63.6002,17.9640991 63.8645667,17.7228325 64.0545,17.4096991 C64.2444333,17.0965658 64.3394,16.7089991 64.3394,16.2469991 C64.3394,15.8363325 64.2675333,15.4795658 64.1238,15.1766991 C63.9800667,14.8738325 63.7952667,14.5991991 63.5694,14.3527991 C63.3435333,14.1063991 63.1074,13.8753991 62.861,13.6597991 L62.861,13.6597991 L61.5982,12.5355991 C61.321,12.2789325 61.1310667,12.0479325 61.0284,11.8425991 C60.9257333,11.6372658 60.8744,11.4011325 60.8744,11.1341991 C60.8744,10.7953991 60.9796333,10.5310325 61.1901,10.3410991 C61.4005667,10.1511658 61.6752,10.0561991 62.014,10.0561991 C62.2706667,10.0561991 62.4888333,10.1177991 62.6685,10.2409991 C62.8481667,10.3641991 62.9893333,10.5566991 63.092,10.8184991 C63.1946667,11.0802991 63.2562667,11.4113991 63.2768,11.8117991 L63.2768,11.8117991 L64.0776,11.5499991 C64.0468,10.8621325 63.8568667,10.3000325 63.5078,9.86369912 C63.1587333,9.42736579 62.6454,9.20919912 61.9678,9.20919912 C61.5468667,9.20919912 61.1772667,9.28876579 60.859,9.44789912 C60.5407333,9.60703245 60.2917667,9.83289912 60.1121,10.1254991 C59.9324333,10.4180991 59.8426,10.7799991 59.8426,11.2111991 C59.8426,11.6834658 59.9452667,12.0889991 60.1506,12.4277991 C60.3559333,12.7665991 60.6588,13.1053991 61.0592,13.4441991 L61.0592,13.4441991 L62.2758,14.4913991 C62.6454,14.8096658 62.9174667,15.1150991 63.092,15.4076991 C63.2665333,15.7002991 63.3538,15.9903325 63.3538,16.2777991 C63.3538,16.6781991 63.2485667,16.9887658 63.0381,17.2094991 C62.8276333,17.4302325 62.5273333,17.5405991 62.1372,17.5405991 C61.6752,17.5405991 61.3158667,17.3840325 61.0592,17.0708991 C60.8025333,16.7577658 60.6434,16.2572658 60.5818,15.5693991 L60.5818,15.5693991 L59.6424,15.8619991 C59.704,16.6319991 59.9452667,17.2454325 60.3662,17.7022991 C60.7871333,18.1591658 61.3518,18.3875991 62.0602,18.3875991 Z M67.8506,18.3875991 C68.7232667,18.3875991 69.3264333,18.1437658 69.6601,17.6560991 C69.9937667,17.1684325 70.1606,16.5190658 70.1606,15.7079991 L70.1606,15.7079991 L70.1606,15.2151991 L69.0672,15.2151991 L69.0672,15.8311991 C69.0672,16.2931991 69.0133,16.6499658 68.9055,16.9014991 C68.7977,17.1530325 68.6514,17.3224325 68.4666,17.4096991 C68.2818,17.4969658 68.0764667,17.5405991 67.8506,17.5405991 C67.5528667,17.5405991 67.3090333,17.4687325 67.1191,17.3249991 C66.9291667,17.1812658 66.7905667,16.9425658 66.7033,16.6088991 C66.6160333,16.2752325 66.5724,15.8209325 66.5724,15.2459991 L66.5724,15.2459991 L66.5724,13.6905991 L70.176,13.6905991 L70.176,12.8897991 C70.176,12.0479325 70.1118333,11.3574991 69.9835,10.8184991 C69.8551667,10.2794991 69.6267333,9.87653245 69.2982,9.60959912 C68.9696667,9.34266579 68.4922667,9.20919912 67.866,9.20919912 C67.3218667,9.20919912 66.8701333,9.31443245 66.5108,9.52489912 C66.1514667,9.73536579 65.8845333,10.0895658 65.71,10.5874991 C65.5354667,11.0854325 65.4482,11.7758658 65.4482,12.6587991 L65.4482,12.6587991 L65.4482,14.9071991 C65.4482,15.7593325 65.5329,16.4420658 65.7023,16.9553991 C65.8717,17.4687325 66.1335,17.8357658 66.4877,18.0564991 C66.8419,18.2772325 67.2962,18.3875991 67.8506,18.3875991 Z M69.0672,13.0437991 L66.5724,13.0437991 L66.5724,12.4431991 C66.5724,11.8066658 66.6134667,11.3164325 66.6956,10.9724991 C66.7777333,10.6285658 66.9137667,10.3898658 67.1037,10.2563991 C67.2936333,10.1229325 67.5426,10.0561991 67.8506,10.0561991 C68.2202,10.0561991 68.4897,10.1460325 68.6591,10.3256991 C68.8285,10.5053658 68.9388667,10.7620325 68.9902,11.0956991 C69.0415333,11.4293658 69.0672,11.8323325 69.0672,12.3045991 L69.0672,12.3045991 L69.0672,13.0437991 Z M74.9346,7.59219912 C75.2426,7.59219912 75.4736,7.51263245 75.6276,7.35349912 C75.7816,7.19436579 75.8817,7.00443245 75.9279,6.78369912 C75.9741,6.56296579 75.9972,6.36019912 75.9972,6.17539912 L75.9972,6.17539912 L75.3196,6.17539912 C75.3196,6.42179912 75.2785333,6.59376579 75.1964,6.69129912 C75.1142667,6.78883245 74.9859333,6.83759912 74.8114,6.83759912 C74.6266,6.83759912 74.4469333,6.77599912 74.2724,6.65279912 C74.0978667,6.52959912 73.9130667,6.40896579 73.718,6.29089912 C73.5229333,6.17283245 73.3022,6.11379912 73.0558,6.11379912 C72.7683333,6.11379912 72.5476,6.19079912 72.3936,6.34479912 C72.2396,6.49879912 72.1343667,6.68103245 72.0779,6.89149912 C72.0214333,7.10196579 71.9932,7.29446579 71.9932,7.46899912 L71.9932,7.46899912 L72.6862,7.46899912 C72.6862,7.26366579 72.7298333,7.10966579 72.8171,7.00699912 C72.9043667,6.90433245 73.0301333,6.85299912 73.1944,6.85299912 C73.3792,6.85299912 73.5563,6.91459912 73.7257,7.03779912 C73.8951,7.16099912 74.0773333,7.28419912 74.2724,7.40739912 C74.4674667,7.53059912 74.6882,7.59219912 74.9346,7.59219912 Z M72.8248,18.2489991 L72.8248,10.9185991 C73.0609333,10.6721991 73.3124667,10.4719991 73.5794,10.3179991 C73.8463333,10.1639991 74.1081333,10.0869991 74.3648,10.0869991 C74.6522667,10.0869991 74.8653,10.1819658 75.0039,10.3718991 C75.1425,10.5618325 75.2118,10.8877991 75.2118,11.3497991 L75.2118,11.3497991 L75.2118,18.2489991 L76.336,18.2489991 L76.336,11.1033991 C76.336,10.7029991 76.2846667,10.3616325 76.182,10.0792991 C76.0793333,9.79696579 75.9253333,9.58136579 75.72,9.43249912 C75.5146667,9.28363245 75.2631333,9.20919912 74.9654,9.20919912 C74.5444667,9.20919912 74.1543333,9.30929912 73.795,9.50949912 C73.4356667,9.70969912 73.1122667,9.96379912 72.8248,10.2717991 L72.8248,10.2717991 L72.8248,9.34779912 L71.7006,9.34779912 L71.7006,18.2489991 L72.8248,18.2489991 Z M80.2014,18.3875991 C80.8276667,18.3875991 81.3102,18.2566991 81.649,17.9948991 C81.9878,17.7330991 82.2290667,17.3532325 82.3728,16.8552991 C82.5165333,16.3573658 82.5884,15.7490658 82.5884,15.0303991 L82.5884,15.0303991 L82.5884,12.5663991 C82.5884,11.8477325 82.5165333,11.2394325 82.3728,10.7414991 C82.2290667,10.2435658 81.9878,9.86369912 81.649,9.60189912 C81.3102,9.34009912 80.8276667,9.20919912 80.2014,9.20919912 C79.5956667,9.20919912 79.1208333,9.34009912 78.7769,9.60189912 C78.4329667,9.86369912 78.1891333,10.2435658 78.0454,10.7414991 C77.9016667,11.2394325 77.8298,11.8477325 77.8298,12.5663991 L77.8298,12.5663991 L77.8298,15.0303991 C77.8298,15.7490658 77.9016667,16.3573658 78.0454,16.8552991 C78.1891333,17.3532325 78.4329667,17.7330991 78.7769,17.9948991 C79.1208333,18.2566991 79.5956667,18.3875991 80.2014,18.3875991 Z M80.2014,17.5405991 C79.8112667,17.5405991 79.5289333,17.4379325 79.3544,17.2325991 C79.1798667,17.0272658 79.0720667,16.7372325 79.031,16.3624991 C78.9899333,15.9877658 78.9694,15.5642658 78.9694,15.0919991 L78.9694,15.0919991 L78.9694,12.5047991 C78.9694,12.0222658 78.9899333,11.5987658 79.031,11.2342991 C79.0720667,10.8698325 79.1798667,10.5823658 79.3544,10.3718991 C79.5289333,10.1614325 79.8112667,10.0561991 80.2014,10.0561991 C80.5915333,10.0561991 80.8764333,10.1614325 81.0561,10.3718991 C81.2357667,10.5823658 81.3461333,10.8698325 81.3872,11.2342991 C81.4282667,11.5987658 81.4488,12.0222658 81.4488,12.5047991 L81.4488,12.5047991 L81.4488,15.0919991 C81.4488,15.5642658 81.4282667,15.9877658 81.3872,16.3624991 C81.3461333,16.7372325 81.2357667,17.0272658 81.0561,17.2325991 C80.8764333,17.4379325 80.5915333,17.5405991 80.2014,17.5405991 Z M89.2566,18.3875991 C89.5954,18.3875991 89.8905667,18.3080325 90.1421,18.1488991 C90.3936333,17.9897658 90.6066667,17.8126658 90.7812,17.6175991 L90.7812,17.6175991 L90.7812,18.2489991 L91.9054,18.2489991 L91.9054,5.77499912 L90.7812,5.77499912 L90.7812,9.97919912 C90.6066667,9.78413245 90.3885,9.60703245 90.1267,9.44789912 C89.8649,9.28876579 89.5594667,9.20919912 89.2104,9.20919912 C88.6457333,9.20919912 88.2119667,9.36576579 87.9091,9.67889912 C87.6062333,9.99203245 87.3983333,10.4309325 87.2854,10.9955991 C87.1724667,11.5602658 87.116,12.2327325 87.116,13.0129991 L87.116,13.0129991 L87.116,14.6607991 C87.116,15.9954658 87.2828333,16.9502658 87.6165,17.5251991 C87.9501667,18.1001325 88.4968667,18.3875991 89.2566,18.3875991 Z M89.4876,17.4943991 C89.1488,17.4943991 88.8895667,17.3917325 88.7099,17.1863991 C88.5302333,16.9810658 88.4070333,16.6730658 88.3403,16.2623991 C88.2735667,15.8517325 88.2402,15.3486658 88.2402,14.7531991 L88.2402,14.7531991 L88.2402,12.6433991 C88.2402,11.8117991 88.3197667,11.1778325 88.4789,10.7414991 C88.6380333,10.3051658 88.964,10.0869991 89.4568,10.0869991 C89.734,10.0869991 89.9855333,10.1562991 90.2114,10.2948991 C90.4372667,10.4334991 90.6272,10.5746658 90.7812,10.7183991 L90.7812,10.7183991 L90.7812,16.9091991 C90.6066667,17.0734658 90.4090333,17.2120658 90.1883,17.3249991 C89.9675667,17.4379325 89.734,17.4943991 89.4876,17.4943991 Z M95.8786,18.3875991 C96.7512667,18.3875991 97.3544333,18.1437658 97.6881,17.6560991 C98.0217667,17.1684325 98.1886,16.5190658 98.1886,15.7079991 L98.1886,15.7079991 L98.1886,15.2151991 L97.0952,15.2151991 L97.0952,15.8311991 C97.0952,16.2931991 97.0413,16.6499658 96.9335,16.9014991 C96.8257,17.1530325 96.6794,17.3224325 96.4946,17.4096991 C96.3098,17.4969658 96.1044667,17.5405991 95.8786,17.5405991 C95.5808667,17.5405991 95.3370333,17.4687325 95.1471,17.3249991 C94.9571667,17.1812658 94.8185667,16.9425658 94.7313,16.6088991 C94.6440333,16.2752325 94.6004,15.8209325 94.6004,15.2459991 L94.6004,15.2459991 L94.6004,13.6905991 L98.204,13.6905991 L98.204,12.8897991 C98.204,12.0479325 98.1398333,11.3574991 98.0115,10.8184991 C97.8831667,10.2794991 97.6547333,9.87653245 97.3262,9.60959912 C96.9976667,9.34266579 96.5202667,9.20919912 95.894,9.20919912 C95.3498667,9.20919912 94.8981333,9.31443245 94.5388,9.52489912 C94.1794667,9.73536579 93.9125333,10.0895658 93.738,10.5874991 C93.5634667,11.0854325 93.4762,11.7758658 93.4762,12.6587991 L93.4762,12.6587991 L93.4762,14.9071991 C93.4762,15.7593325 93.5609,16.4420658 93.7303,16.9553991 C93.8997,17.4687325 94.1615,17.8357658 94.5157,18.0564991 C94.8699,18.2772325 95.3242,18.3875991 95.8786,18.3875991 Z M97.0952,13.0437991 L94.6004,13.0437991 L94.6004,12.4431991 C94.6004,11.8066658 94.6414667,11.3164325 94.7236,10.9724991 C94.8057333,10.6285658 94.9417667,10.3898658 95.1317,10.2563991 C95.3216333,10.1229325 95.5706,10.0561991 95.8786,10.0561991 C96.2482,10.0561991 96.5177,10.1460325 96.6871,10.3256991 C96.8565,10.5053658 96.9668667,10.7620325 97.0182,11.0956991 C97.0695333,11.4293658 97.0952,11.8323325 97.0952,12.3045991 L97.0952,12.3045991 L97.0952,13.0437991 Z M103.9174,18.2489991 L103.9174,10.8723991 C104.174067,10.5951991 104.446133,10.3744658 104.7336,10.2101991 C105.021067,10.0459325 105.3034,9.96379912 105.5806,9.96379912 C105.837267,9.96379912 106.0503,10.0484991 106.2197,10.2178991 C106.3891,10.3872991 106.4738,10.7337991 106.4738,11.2573991 L106.4738,11.2573991 L106.4738,18.2489991 L107.5364,18.2489991 L107.5364,11.2265991 C107.5364,11.1649991 107.533833,11.1059658 107.5287,11.0494991 C107.523567,10.9930325 107.515867,10.9391325 107.5056,10.8877991 C107.762267,10.6003325 108.034333,10.3744658 108.3218,10.2101991 C108.609267,10.0459325 108.896733,9.96379912 109.1842,9.96379912 C109.440867,9.96379912 109.6539,10.0484991 109.8233,10.2178991 C109.9927,10.3872991 110.0774,10.7337991 110.0774,11.2573991 L110.0774,11.2573991 L110.0774,18.2489991 L111.1246,18.2489991 L111.1246,11.2265991 C111.1246,10.7132658 111.052733,10.3077325 110.909,10.0099991 C110.765267,9.71226579 110.5779,9.50179912 110.3469,9.37859912 C110.1159,9.25539912 109.872067,9.19379912 109.6154,9.19379912 C109.204733,9.19379912 108.8146,9.29133245 108.445,9.48639912 C108.0754,9.68146579 107.7366,9.96893245 107.4286,10.3487991 C107.315667,9.90733245 107.1283,9.60446579 106.8665,9.44019912 C106.6047,9.27593245 106.3198,9.19379912 106.0118,9.19379912 C105.631933,9.19379912 105.262333,9.28363245 104.903,9.46329912 C104.543667,9.64296579 104.215133,9.90733245 103.9174,10.2563991 L103.9174,10.2563991 L103.9174,9.34779912 L102.8702,9.34779912 L102.8702,18.2489991 L103.9174,18.2489991 Z M114.99,18.3875991 C115.616267,18.3875991 116.0988,18.2566991 116.4376,17.9948991 C116.7764,17.7330991 117.017667,17.3532325 117.1614,16.8552991 C117.305133,16.3573658 117.377,15.7490658 117.377,15.0303991 L117.377,15.0303991 L117.377,12.5663991 C117.377,11.8477325 117.305133,11.2394325 117.1614,10.7414991 C117.017667,10.2435658 116.7764,9.86369912 116.4376,9.60189912 C116.0988,9.34009912 115.616267,9.20919912 114.99,9.20919912 C114.384267,9.20919912 113.909433,9.34009912 113.5655,9.60189912 C113.221567,9.86369912 112.977733,10.2435658 112.834,10.7414991 C112.690267,11.2394325 112.6184,11.8477325 112.6184,12.5663991 L112.6184,12.5663991 L112.6184,15.0303991 C112.6184,15.7490658 112.690267,16.3573658 112.834,16.8552991 C112.977733,17.3532325 113.221567,17.7330991 113.5655,17.9948991 C113.909433,18.2566991 114.384267,18.3875991 114.99,18.3875991 Z M114.99,17.5405991 C114.599867,17.5405991 114.317533,17.4379325 114.143,17.2325991 C113.968467,17.0272658 113.860667,16.7372325 113.8196,16.3624991 C113.778533,15.9877658 113.758,15.5642658 113.758,15.0919991 L113.758,15.0919991 L113.758,12.5047991 C113.758,12.0222658 113.778533,11.5987658 113.8196,11.2342991 C113.860667,10.8698325 113.968467,10.5823658 114.143,10.3718991 C114.317533,10.1614325 114.599867,10.0561991 114.99,10.0561991 C115.380133,10.0561991 115.665033,10.1614325 115.8447,10.3718991 C116.024367,10.5823658 116.134733,10.8698325 116.1758,11.2342991 C116.216867,11.5987658 116.2374,12.0222658 116.2374,12.5047991 L116.2374,12.5047991 L116.2374,15.0919991 C116.2374,15.5642658 116.216867,15.9877658 116.1758,16.3624991 C116.134733,16.7372325 116.024367,17.0272658 115.8447,17.2325991 C115.665033,17.4379325 115.380133,17.5405991 114.99,17.5405991 Z M120.9036,18.3875991 C121.2424,18.3875991 121.537567,18.3080325 121.7891,18.1488991 C122.040633,17.9897658 122.253667,17.8126658 122.4282,17.6175991 L122.4282,17.6175991 L122.4282,18.2489991 L123.5524,18.2489991 L123.5524,5.77499912 L122.4282,5.77499912 L122.4282,9.97919912 C122.253667,9.78413245 122.0355,9.60703245 121.7737,9.44789912 C121.5119,9.28876579 121.206467,9.20919912 120.8574,9.20919912 C120.292733,9.20919912 119.858967,9.36576579 119.5561,9.67889912 C119.253233,9.99203245 119.045333,10.4309325 118.9324,10.9955991 C118.819467,11.5602658 118.763,12.2327325 118.763,13.0129991 L118.763,13.0129991 L118.763,14.6607991 C118.763,15.9954658 118.929833,16.9502658 119.2635,17.5251991 C119.597167,18.1001325 120.143867,18.3875991 120.9036,18.3875991 Z M121.1346,17.4943991 C120.7958,17.4943991 120.536567,17.3917325 120.3569,17.1863991 C120.177233,16.9810658 120.054033,16.6730658 119.9873,16.2623991 C119.920567,15.8517325 119.8872,15.3486658 119.8872,14.7531991 L119.8872,14.7531991 L119.8872,12.6433991 C119.8872,11.8117991 119.966767,11.1778325 120.1259,10.7414991 C120.285033,10.3051658 120.611,10.0869991 121.1038,10.0869991 C121.381,10.0869991 121.632533,10.1562991 121.8584,10.2948991 C122.084267,10.4334991 122.2742,10.5746658 122.4282,10.7183991 L122.4282,10.7183991 L122.4282,16.9091991 C122.253667,17.0734658 122.056033,17.2120658 121.8353,17.3249991 C121.614567,17.4379325 121.381,17.4943991 121.1346,17.4943991 Z M127.1868,17.4327991 C126.919867,17.4327991 126.683733,17.3326991 126.4784,17.1324991 C126.273067,16.9322991 126.1704,16.5960658 126.1704,16.1237991 C126.1704,15.8260658 126.2166,15.5668325 126.309,15.3460991 C126.4014,15.1253658 126.545133,14.9277325 126.7402,14.7531991 C126.935267,14.5786658 127.189367,14.3989991 127.5025,14.2141991 C127.815633,14.0293991 128.192933,13.8240658 128.6344,13.5981991 L128.6344,13.5981991 L128.6344,16.3701991 C128.552267,16.5344658 128.439333,16.6961658 128.2956,16.8552991 C128.151867,17.0144325 127.9876,17.1504658 127.8028,17.2633991 C127.618,17.3763325 127.412667,17.4327991 127.1868,17.4327991 Z M128.665,17.0180001 L128.675788,17.1339429 C128.689262,17.2600304 128.7114,17.4135491 128.7422,17.5944991 C128.783267,17.8357658 128.814067,18.0539325 128.8346,18.2489991 L128.8346,18.2489991 L129.8356,18.2489991 C129.825333,18.1360658 129.815067,17.9717991 129.8048,17.7561991 C129.794533,17.5405991 129.784267,17.3121658 129.774,17.0708991 C129.763733,16.8296325 129.7586,16.6319991 129.7586,16.4779991 L129.7586,16.4779991 L129.7586,12.1505991 C129.7586,11.1444658 129.5969,10.4026991 129.2735,9.92529912 C128.9501,9.44789912 128.388,9.20919912 127.5872,9.20919912 C126.735067,9.20919912 126.121633,9.42736579 125.7469,9.86369912 C125.372167,10.3000325 125.179667,10.9699325 125.1694,11.8733991 L125.1694,11.8733991 L126.2782,11.8887991 L126.2782,11.5807991 C126.2782,11.1906658 126.334667,10.8852325 126.4476,10.6644991 C126.560533,10.4437658 126.7094,10.2871991 126.8942,10.1947991 C127.079,10.1023991 127.289467,10.0561991 127.5256,10.0561991 C127.813067,10.0561991 128.036367,10.1229325 128.1955,10.2563991 C128.354633,10.3898658 128.467567,10.6131658 128.5343,10.9262991 C128.601033,11.2394325 128.6344,11.6680658 128.6344,12.2121991 L128.6344,12.2121991 L128.6344,12.8435991 C127.977333,13.1413325 127.420367,13.4108325 126.9635,13.6520991 C126.506633,13.8933658 126.137033,14.1397658 125.8547,14.3912991 C125.572367,14.6428325 125.367033,14.9277325 125.2387,15.2459991 C125.110367,15.5642658 125.0462,15.9492658 125.0462,16.4009991 C125.0462,16.7603325 125.120633,17.0914325 125.2695,17.3942991 C125.418367,17.6971658 125.626267,17.9384325 125.8932,18.1180991 C126.160133,18.2977658 126.473267,18.3875991 126.8326,18.3875991 C127.304867,18.3875991 127.697567,18.2489991 128.0107,17.9717991 C128.323833,17.6945991 128.542,17.3763325 128.6652,17.0169991 L128.665,17.0180001 Z M131.545,20.0353991 C131.935133,19.8403325 132.212333,19.5990658 132.3766,19.3115991 C132.540867,19.0241325 132.623,18.6288658 132.623,18.1257991 L132.623,18.1257991 L132.623,16.5703991 L131.3756,16.5703991 L131.3756,18.2489991 L132.0378,18.2489991 C132.0378,18.5569991 131.9839,18.8110991 131.8761,19.0112991 C131.7683,19.2114991 131.5758,19.3885991 131.2986,19.5425991 L131.2986,19.5425991 L131.545,20.0353991 Z M139.4452,18.3567991 C139.5992,18.3567991 139.758333,18.3490991 139.9226,18.3336991 C140.086867,18.3182991 140.246,18.2951991 140.4,18.2643991 L140.4,18.2643991 L140.4,17.4019991 C140.297333,17.4225325 140.186967,17.4404991 140.0689,17.4558991 C139.950833,17.4712991 139.8456,17.4789991 139.7532,17.4789991 C139.424667,17.4789991 139.211633,17.3891658 139.1141,17.2094991 C139.016567,17.0298325 138.9678,16.7243991 138.9678,16.2931991 L138.9678,16.2931991 L138.9678,10.0869991 L140.4462,10.0869991 L140.4462,9.34779912 L138.9678,9.34779912 L138.9678,6.59119912 L137.8436,6.59119912 L137.8436,9.34779912 L136.7502,9.34779912 L136.7502,10.0869991 L137.8436,10.0869991 L137.8436,16.4009991 C137.8436,16.7808658 137.887233,17.1170991 137.9745,17.4096991 C138.061767,17.7022991 138.2209,17.9332991 138.4519,18.1026991 C138.6829,18.2720991 139.014,18.3567991 139.4452,18.3567991 Z M143.8804,18.3875991 C144.753067,18.3875991 145.356233,18.1437658 145.6899,17.6560991 C146.023567,17.1684325 146.1904,16.5190658 146.1904,15.7079991 L146.1904,15.7079991 L146.1904,15.2151991 L145.097,15.2151991 L145.097,15.8311991 C145.097,16.2931991 145.0431,16.6499658 144.9353,16.9014991 C144.8275,17.1530325 144.6812,17.3224325 144.4964,17.4096991 C144.3116,17.4969658 144.106267,17.5405991 143.8804,17.5405991 C143.582667,17.5405991 143.338833,17.4687325 143.1489,17.3249991 C142.958967,17.1812658 142.820367,16.9425658 142.7331,16.6088991 C142.645833,16.2752325 142.6022,15.8209325 142.6022,15.2459991 L142.6022,15.2459991 L142.6022,13.6905991 L146.2058,13.6905991 L146.2058,12.8897991 C146.2058,12.0479325 146.141633,11.3574991 146.0133,10.8184991 C145.884967,10.2794991 145.656533,9.87653245 145.328,9.60959912 C144.999467,9.34266579 144.522067,9.20919912 143.8958,9.20919912 C143.351667,9.20919912 142.899933,9.31443245 142.5406,9.52489912 C142.181267,9.73536579 141.914333,10.0895658 141.7398,10.5874991 C141.565267,11.0854325 141.478,11.7758658 141.478,12.6587991 L141.478,12.6587991 L141.478,14.9071991 C141.478,15.7593325 141.5627,16.4420658 141.7321,16.9553991 C141.9015,17.4687325 142.1633,17.8357658 142.5175,18.0564991 C142.8717,18.2772325 143.326,18.3875991 143.8804,18.3875991 Z M145.097,13.0437991 L142.6022,13.0437991 L142.6022,12.4431991 C142.6022,11.8066658 142.643267,11.3164325 142.7254,10.9724991 C142.807533,10.6285658 142.943567,10.3898658 143.1335,10.2563991 C143.323433,10.1229325 143.5724,10.0561991 143.8804,10.0561991 C144.25,10.0561991 144.5195,10.1460325 144.6889,10.3256991 C144.8583,10.5053658 144.968667,10.7620325 145.02,11.0956991 C145.071333,11.4293658 145.097,11.8323325 145.097,12.3045991 L145.097,12.3045991 L145.097,13.0437991 Z M148.1308,18.2489991 L149.6862,14.7531991 L151.3494,18.2489991 L152.4274,18.2489991 L150.3176,13.7213991 L152.3966,9.34779912 L151.257,9.34779912 L149.794,12.6125991 L148.2694,9.34779912 L147.1606,9.34779912 L149.1626,13.5981991 L147.0528,18.2489991 L148.1308,18.2489991 Z M155.6306,18.3567991 C155.7846,18.3567991 155.943733,18.3490991 156.108,18.3336991 C156.272267,18.3182991 156.4314,18.2951991 156.5854,18.2643991 L156.5854,18.2643991 L156.5854,17.4019991 C156.482733,17.4225325 156.372367,17.4404991 156.2543,17.4558991 C156.136233,17.4712991 156.031,17.4789991 155.9386,17.4789991 C155.610067,17.4789991 155.397033,17.3891658 155.2995,17.2094991 C155.201967,17.0298325 155.1532,16.7243991 155.1532,16.2931991 L155.1532,16.2931991 L155.1532,10.0869991 L156.6316,10.0869991 L156.6316,9.34779912 L155.1532,9.34779912 L155.1532,6.59119912 L154.029,6.59119912 L154.029,9.34779912 L152.9356,9.34779912 L152.9356,10.0869991 L154.029,10.0869991 L154.029,16.4009991 C154.029,16.7808658 154.072633,17.1170991 154.1599,17.4096991 C154.247167,17.7022991 154.4063,17.9332991 154.6373,18.1026991 C154.8683,18.2720991 155.1994,18.3567991 155.6306,18.3567991 Z M159.0802,8.11579912 L159.0802,6.59119912 L157.956,6.59119912 L157.956,8.11579912 L159.0802,8.11579912 Z M159.0802,18.2489991 L159.0802,9.34779912 L157.956,9.34779912 L157.956,18.2489991 L159.0802,18.2489991 Z M162.2526,18.2489991 L162.2526,5.77499912 L161.1284,5.77499912 L161.1284,18.2489991 L162.2526,18.2489991 Z M166.3182,18.3875991 C167.190867,18.3875991 167.794033,18.1437658 168.1277,17.6560991 C168.461367,17.1684325 168.6282,16.5190658 168.6282,15.7079991 L168.6282,15.7079991 L168.6282,15.2151991 L167.5348,15.2151991 L167.5348,15.8311991 C167.5348,16.2931991 167.4809,16.6499658 167.3731,16.9014991 C167.2653,17.1530325 167.119,17.3224325 166.9342,17.4096991 C166.7494,17.4969658 166.544067,17.5405991 166.3182,17.5405991 C166.020467,17.5405991 165.776633,17.4687325 165.5867,17.3249991 C165.396767,17.1812658 165.258167,16.9425658 165.1709,16.6088991 C165.083633,16.2752325 165.04,15.8209325 165.04,15.2459991 L165.04,15.2459991 L165.04,13.6905991 L168.6436,13.6905991 L168.6436,12.8897991 C168.6436,12.0479325 168.579433,11.3574991 168.4511,10.8184991 C168.322767,10.2794991 168.094333,9.87653245 167.7658,9.60959912 C167.437267,9.34266579 166.959867,9.20919912 166.3336,9.20919912 C165.789467,9.20919912 165.337733,9.31443245 164.9784,9.52489912 C164.619067,9.73536579 164.352133,10.0895658 164.1776,10.5874991 C164.003067,11.0854325 163.9158,11.7758658 163.9158,12.6587991 L163.9158,12.6587991 L163.9158,14.9071991 C163.9158,15.7593325 164.0005,16.4420658 164.1699,16.9553991 C164.3393,17.4687325 164.6011,17.8357658 164.9553,18.0564991 C165.3095,18.2772325 165.7638,18.3875991 166.3182,18.3875991 Z M167.5348,13.0437991 L165.04,13.0437991 L165.04,12.4431991 C165.04,11.8066658 165.081067,11.3164325 165.1632,10.9724991 C165.245333,10.6285658 165.381367,10.3898658 165.5713,10.2563991 C165.761233,10.1229325 166.0102,10.0561991 166.3182,10.0561991 C166.6878,10.0561991 166.9573,10.1460325 167.1267,10.3256991 C167.2961,10.5053658 167.406467,10.7620325 167.4578,11.0956991 C167.509133,11.4293658 167.5348,11.8323325 167.5348,12.3045991 L167.5348,12.3045991 L167.5348,13.0437991 Z M172.201,18.3875991 C172.663,18.3875991 173.0634,18.3028991 173.4022,18.1334991 C173.741,17.9640991 174.005367,17.7228325 174.1953,17.4096991 C174.385233,17.0965658 174.4802,16.7089991 174.4802,16.2469991 C174.4802,15.8363325 174.408333,15.4795658 174.2646,15.1766991 C174.120867,14.8738325 173.936067,14.5991991 173.7102,14.3527991 C173.484333,14.1063991 173.2482,13.8753991 173.0018,13.6597991 L173.0018,13.6597991 L171.739,12.5355991 C171.4618,12.2789325 171.271867,12.0479325 171.1692,11.8425991 C171.066533,11.6372658 171.0152,11.4011325 171.0152,11.1341991 C171.0152,10.7953991 171.120433,10.5310325 171.3309,10.3410991 C171.541367,10.1511658 171.816,10.0561991 172.1548,10.0561991 C172.411467,10.0561991 172.629633,10.1177991 172.8093,10.2409991 C172.988967,10.3641991 173.130133,10.5566991 173.2328,10.8184991 C173.335467,11.0802991 173.397067,11.4113991 173.4176,11.8117991 L173.4176,11.8117991 L174.2184,11.5499991 C174.1876,10.8621325 173.997667,10.3000325 173.6486,9.86369912 C173.299533,9.42736579 172.7862,9.20919912 172.1086,9.20919912 C171.687667,9.20919912 171.318067,9.28876579 170.9998,9.44789912 C170.681533,9.60703245 170.432567,9.83289912 170.2529,10.1254991 C170.073233,10.4180991 169.9834,10.7799991 169.9834,11.2111991 C169.9834,11.6834658 170.086067,12.0889991 170.2914,12.4277991 C170.496733,12.7665991 170.7996,13.1053991 171.2,13.4441991 L171.2,13.4441991 L172.4166,14.4913991 C172.7862,14.8096658 173.058267,15.1150991 173.2328,15.4076991 C173.407333,15.7002991 173.4946,15.9903325 173.4946,16.2777991 C173.4946,16.6781991 173.389367,16.9887658 173.1789,17.2094991 C172.968433,17.4302325 172.668133,17.5405991 172.278,17.5405991 C171.816,17.5405991 171.456667,17.3840325 171.2,17.0708991 C170.943333,16.7577658 170.7842,16.2572658 170.7226,15.5693991 L170.7226,15.5693991 L169.7832,15.8619991 C169.8448,16.6319991 170.086067,17.2454325 170.507,17.7022991 C170.927933,18.1591658 171.4926,18.3875991 172.201,18.3875991 Z M48.9086,36.7155981 C49.4116667,36.7155981 49.8351667,36.6616981 50.1791,36.5538981 C50.5230333,36.4460981 50.8002333,36.2766981 51.0107,36.0456981 C51.2211667,35.8146981 51.3674667,35.5092648 51.4496,35.1293981 L51.4496,35.1293981 L53.6056,25.5967981 L52.466,25.5967981 L50.9722,33.1735981 L49.4322,25.5967981 L48.308,25.5967981 L50.1406,33.4353981 C50.2124667,33.7228648 50.2792,34.0000648 50.3408,34.2669981 C50.4024,34.5339315 50.4332,34.7495315 50.4332,34.9137981 C50.4332,35.0985981 50.3895667,35.2602981 50.3023,35.3988981 C50.2150333,35.5374981 50.0405,35.6452981 49.7787,35.7222981 C49.5169,35.7992981 49.1293333,35.8377981 48.616,35.8377981 L48.616,35.8377981 L48.616,36.7155981 L48.9086,36.7155981 Z M60.089,34.6365981 C60.7255333,34.6365981 61.2080667,34.5056981 61.5366,34.2438981 C61.8651333,33.9820981 62.0833,33.6227648 62.1911,33.1658981 C62.2989,32.7090315 62.3528,32.1828648 62.3528,31.5873981 L62.3528,31.5873981 L62.3528,31.1561981 L61.3056,31.1561981 L61.3056,31.6489981 C61.3056,32.1212648 61.2799333,32.5165315 61.2286,32.8347981 C61.1772667,33.1530648 61.0643333,33.3917648 60.8898,33.5508981 C60.7152667,33.7100315 60.4534667,33.7895981 60.1044,33.7895981 C59.6013333,33.7895981 59.2625333,33.6073648 59.088,33.2428981 C58.9134667,32.8784315 58.8262,32.2495981 58.8262,31.3563981 L58.8262,31.3563981 L58.8262,28.8615981 C58.8262,28.2353315 58.857,27.7348315 58.9186,27.3600981 C58.9802,26.9853648 59.1034,26.7158648 59.2882,26.5515981 C59.473,26.3873315 59.7399333,26.3051981 60.089,26.3051981 C60.3867333,26.3051981 60.6254333,26.3642315 60.8051,26.4822981 C60.9847667,26.6003648 61.1131,26.8031315 61.1901,27.0905981 C61.2671,27.3780648 61.3056,27.7835981 61.3056,28.3071981 L61.3056,28.3071981 L61.3056,28.7383981 L62.3528,28.7383981 L62.3528,28.3071981 C62.3528,27.7425315 62.2963333,27.2445981 62.1834,26.8133981 C62.0704667,26.3821981 61.8497333,26.0485315 61.5212,25.8123981 C61.1926667,25.5762648 60.7152667,25.4581981 60.089,25.4581981 C59.4524667,25.4581981 58.9622333,25.5865315 58.6183,25.8431981 C58.2743667,26.0998648 58.0356667,26.4925648 57.9022,27.0212981 C57.7687333,27.5500315 57.702,28.2250648 57.702,29.0463981 L57.702,29.0463981 L57.702,31.1253981 C57.702,31.7927315 57.7559,32.3907648 57.8637,32.9194981 C57.9715,33.4482315 58.1948,33.8665981 58.5336,34.1745981 C58.8724,34.4825981 59.3908667,34.6365981 60.089,34.6365981 Z M66.0642,34.6365981 C66.6904667,34.6365981 67.173,34.5056981 67.5118,34.2438981 C67.8506,33.9820981 68.0918667,33.6022315 68.2356,33.1042981 C68.3793333,32.6063648 68.4512,31.9980648 68.4512,31.2793981 L68.4512,31.2793981 L68.4512,28.8153981 C68.4512,28.0967315 68.3793333,27.4884315 68.2356,26.9904981 C68.0918667,26.4925648 67.8506,26.1126981 67.5118,25.8508981 C67.173,25.5890981 66.6904667,25.4581981 66.0642,25.4581981 C65.4584667,25.4581981 64.9836333,25.5890981 64.6397,25.8508981 C64.2957667,26.1126981 64.0519333,26.4925648 63.9082,26.9904981 C63.7644667,27.4884315 63.6926,28.0967315 63.6926,28.8153981 L63.6926,28.8153981 L63.6926,31.2793981 C63.6926,31.9980648 63.7644667,32.6063648 63.9082,33.1042981 C64.0519333,33.6022315 64.2957667,33.9820981 64.6397,34.2438981 C64.9836333,34.5056981 65.4584667,34.6365981 66.0642,34.6365981 Z M66.0642,33.7895981 C65.6740667,33.7895981 65.3917333,33.6869315 65.2172,33.4815981 C65.0426667,33.2762648 64.9348667,32.9862315 64.8938,32.6114981 C64.8527333,32.2367648 64.8322,31.8132648 64.8322,31.3409981 L64.8322,31.3409981 L64.8322,28.7537981 C64.8322,28.2712648 64.8527333,27.8477648 64.8938,27.4832981 C64.9348667,27.1188315 65.0426667,26.8313648 65.2172,26.6208981 C65.3917333,26.4104315 65.6740667,26.3051981 66.0642,26.3051981 C66.4543333,26.3051981 66.7392333,26.4104315 66.9189,26.6208981 C67.0985667,26.8313648 67.2089333,27.1188315 67.25,27.4832981 C67.2910667,27.8477648 67.3116,28.2712648 67.3116,28.7537981 L67.3116,28.7537981 L67.3116,31.3409981 C67.3116,31.8132648 67.2910667,32.2367648 67.25,32.6114981 C67.2089333,32.9862315 67.0985667,33.2762648 66.9189,33.4815981 C66.7392333,33.6869315 66.4543333,33.7895981 66.0642,33.7895981 Z M71.0538,34.4979981 L71.0538,27.1213981 C71.3104667,26.8441981 71.5825333,26.6234648 71.87,26.4591981 C72.1574667,26.2949315 72.4398,26.2127981 72.717,26.2127981 C72.9736667,26.2127981 73.1867,26.2974981 73.3561,26.4668981 C73.5255,26.6362981 73.6102,26.9827981 73.6102,27.5063981 L73.6102,27.5063981 L73.6102,34.4979981 L74.6728,34.4979981 L74.6728,27.4755981 C74.6728,27.4139981 74.6702333,27.3549648 74.6651,27.2984981 C74.6599667,27.2420315 74.6522667,27.1881315 74.642,27.1367981 C74.8986667,26.8493315 75.1707333,26.6234648 75.4582,26.4591981 C75.7456667,26.2949315 76.0331333,26.2127981 76.3206,26.2127981 C76.5772667,26.2127981 76.7903,26.2974981 76.9597,26.4668981 C77.1291,26.6362981 77.2138,26.9827981 77.2138,27.5063981 L77.2138,27.5063981 L77.2138,34.4979981 L78.261,34.4979981 L78.261,27.4755981 C78.261,26.9622648 78.1891333,26.5567315 78.0454,26.2589981 C77.9016667,25.9612648 77.7143,25.7507981 77.4833,25.6275981 C77.2523,25.5043981 77.0084667,25.4427981 76.7518,25.4427981 C76.3411333,25.4427981 75.951,25.5403315 75.5814,25.7353981 C75.2118,25.9304648 74.873,26.2179315 74.565,26.5977981 C74.4520667,26.1563315 74.2647,25.8534648 74.0029,25.6891981 C73.7411,25.5249315 73.4562,25.4427981 73.1482,25.4427981 C72.7683333,25.4427981 72.3987333,25.5326315 72.0394,25.7122981 C71.6800667,25.8919648 71.3515333,26.1563315 71.0538,26.5053981 L71.0538,26.5053981 L71.0538,25.5967981 L70.0066,25.5967981 L70.0066,34.4979981 L71.0538,34.4979981 Z M81.0484,37.4239981 L81.0484,33.7895981 C81.2229333,33.9846648 81.4411,34.1745981 81.7029,34.3593981 C81.9647,34.5441981 82.2752667,34.6365981 82.6346,34.6365981 C83.189,34.6365981 83.6227667,34.4800315 83.9359,34.1668981 C84.2490333,33.8537648 84.4672,33.4174315 84.5904,32.8578981 C84.7136,32.2983648 84.7752,31.6387315 84.7752,30.8789981 L84.7752,30.8789981 L84.7752,29.0001981 C84.7752,28.5587315 84.7495333,28.1275315 84.6982,27.7065981 C84.6468667,27.2856648 84.5493333,26.9057981 84.4056,26.5669981 C84.2618667,26.2281981 84.0591,25.9586981 83.7973,25.7584981 C83.5355,25.5582981 83.189,25.4581981 82.7578,25.4581981 C82.3574,25.4581981 82.0186,25.5480315 81.7414,25.7276981 C81.4642,25.9073648 81.2332,26.1101315 81.0484,26.3359981 L81.0484,26.3359981 L81.0484,25.5967981 L79.9242,25.5967981 L79.9242,37.4239981 L81.0484,37.4239981 Z M82.4652,33.7433981 C82.1674667,33.7433981 81.8979667,33.6792315 81.6567,33.5508981 C81.4154333,33.4225648 81.2126667,33.2711315 81.0484,33.0965981 L81.0484,33.0965981 L81.0484,27.0289981 C81.2024,26.8749981 81.4000333,26.7209981 81.6413,26.5669981 C81.8825667,26.4129981 82.1469333,26.3359981 82.4344,26.3359981 C82.7834667,26.3359981 83.0452667,26.4386648 83.2198,26.6439981 C83.3943333,26.8493315 83.5098333,27.1496315 83.5663,27.5448981 C83.6227667,27.9401648 83.651,28.4252648 83.651,29.0001981 L83.651,29.0001981 L83.651,30.9097981 C83.651,31.5155315 83.6227667,32.0314315 83.5663,32.4574981 C83.5098333,32.8835648 83.3969,33.2043981 83.2275,33.4199981 C83.0581,33.6355981 82.804,33.7433981 82.4652,33.7433981 Z M87.6242,34.4979981 L87.6242,22.0239981 L86.5,22.0239981 L86.5,34.4979981 L87.6242,34.4979981 Z M91.6898,34.6365981 C92.5624667,34.6365981 93.1656333,34.3927648 93.4993,33.9050981 C93.8329667,33.4174315 93.9998,32.7680648 93.9998,31.9569981 L93.9998,31.9569981 L93.9998,31.4641981 L92.9064,31.4641981 L92.9064,32.0801981 C92.9064,32.5421981 92.8525,32.8989648 92.7447,33.1504981 C92.6369,33.4020315 92.4906,33.5714315 92.3058,33.6586981 C92.121,33.7459648 91.9156667,33.7895981 91.6898,33.7895981 C91.3920667,33.7895981 91.1482333,33.7177315 90.9583,33.5739981 C90.7683667,33.4302648 90.6297667,33.1915648 90.5425,32.8578981 C90.4552333,32.5242315 90.4116,32.0699315 90.4116,31.4949981 L90.4116,31.4949981 L90.4116,29.9395981 L94.0152,29.9395981 L94.0152,29.1387981 C94.0152,28.2969315 93.9510333,27.6064981 93.8227,27.0674981 C93.6943667,26.5284981 93.4659333,26.1255315 93.1374,25.8585981 C92.8088667,25.5916648 92.3314667,25.4581981 91.7052,25.4581981 C91.1610667,25.4581981 90.7093333,25.5634315 90.35,25.7738981 C89.9906667,25.9843648 89.7237333,26.3385648 89.5492,26.8364981 C89.3746667,27.3344315 89.2874,28.0248648 89.2874,28.9077981 L89.2874,28.9077981 L89.2874,31.1561981 C89.2874,32.0083315 89.3721,32.6910648 89.5415,33.2043981 C89.7109,33.7177315 89.9727,34.0847648 90.3269,34.3054981 C90.6811,34.5262315 91.1354,34.6365981 91.6898,34.6365981 Z M92.9064,29.2927981 L90.4116,29.2927981 L90.4116,28.6921981 C90.4116,28.0556648 90.4526667,27.5654315 90.5348,27.2214981 C90.6169333,26.8775648 90.7529667,26.6388648 90.9429,26.5053981 C91.1328333,26.3719315 91.3818,26.3051981 91.6898,26.3051981 C92.0594,26.3051981 92.3289,26.3950315 92.4983,26.5746981 C92.6677,26.7543648 92.7780667,27.0110315 92.8294,27.3446981 C92.8807333,27.6783648 92.9064,28.0813315 92.9064,28.5535981 L92.9064,28.5535981 L92.9064,29.2927981 Z M96.587,34.4979981 L96.587,27.1213981 C96.8436667,26.8441981 97.1157333,26.6234648 97.4032,26.4591981 C97.6906667,26.2949315 97.973,26.2127981 98.2502,26.2127981 C98.5068667,26.2127981 98.7199,26.2974981 98.8893,26.4668981 C99.0587,26.6362981 99.1434,26.9827981 99.1434,27.5063981 L99.1434,27.5063981 L99.1434,34.4979981 L100.206,34.4979981 L100.206,27.4755981 C100.206,27.4139981 100.203433,27.3549648 100.1983,27.2984981 C100.193167,27.2420315 100.185467,27.1881315 100.1752,27.1367981 C100.431867,26.8493315 100.703933,26.6234648 100.9914,26.4591981 C101.278867,26.2949315 101.566333,26.2127981 101.8538,26.2127981 C102.110467,26.2127981 102.3235,26.2974981 102.4929,26.4668981 C102.6623,26.6362981 102.747,26.9827981 102.747,27.5063981 L102.747,27.5063981 L102.747,34.4979981 L103.7942,34.4979981 L103.7942,27.4755981 C103.7942,26.9622648 103.722333,26.5567315 103.5786,26.2589981 C103.434867,25.9612648 103.2475,25.7507981 103.0165,25.6275981 C102.7855,25.5043981 102.541667,25.4427981 102.285,25.4427981 C101.874333,25.4427981 101.4842,25.5403315 101.1146,25.7353981 C100.745,25.9304648 100.4062,26.2179315 100.0982,26.5977981 C99.9852667,26.1563315 99.7979,25.8534648 99.5361,25.6891981 C99.2743,25.5249315 98.9894,25.4427981 98.6814,25.4427981 C98.3015333,25.4427981 97.9319333,25.5326315 97.5726,25.7122981 C97.2132667,25.8919648 96.8847333,26.1563315 96.587,26.5053981 L96.587,26.5053981 L96.587,25.5967981 L95.5398,25.5967981 L95.5398,34.4979981 L96.587,34.4979981 Z M107.6904,34.6365981 C108.563067,34.6365981 109.166233,34.3927648 109.4999,33.9050981 C109.833567,33.4174315 110.0004,32.7680648 110.0004,31.9569981 L110.0004,31.9569981 L110.0004,31.4641981 L108.907,31.4641981 L108.907,32.0801981 C108.907,32.5421981 108.8531,32.8989648 108.7453,33.1504981 C108.6375,33.4020315 108.4912,33.5714315 108.3064,33.6586981 C108.1216,33.7459648 107.916267,33.7895981 107.6904,33.7895981 C107.392667,33.7895981 107.148833,33.7177315 106.9589,33.5739981 C106.768967,33.4302648 106.630367,33.1915648 106.5431,32.8578981 C106.455833,32.5242315 106.4122,32.0699315 106.4122,31.4949981 L106.4122,31.4949981 L106.4122,29.9395981 L110.0158,29.9395981 L110.0158,29.1387981 C110.0158,28.2969315 109.951633,27.6064981 109.8233,27.0674981 C109.694967,26.5284981 109.466533,26.1255315 109.138,25.8585981 C108.809467,25.5916648 108.332067,25.4581981 107.7058,25.4581981 C107.161667,25.4581981 106.709933,25.5634315 106.3506,25.7738981 C105.991267,25.9843648 105.724333,26.3385648 105.5498,26.8364981 C105.375267,27.3344315 105.288,28.0248648 105.288,28.9077981 L105.288,28.9077981 L105.288,31.1561981 C105.288,32.0083315 105.3727,32.6910648 105.5421,33.2043981 C105.7115,33.7177315 105.9733,34.0847648 106.3275,34.3054981 C106.6817,34.5262315 107.136,34.6365981 107.6904,34.6365981 Z M108.907,29.2927981 L106.4122,29.2927981 L106.4122,28.6921981 C106.4122,28.0556648 106.453267,27.5654315 106.5354,27.2214981 C106.617533,26.8775648 106.753567,26.6388648 106.9435,26.5053981 C107.133433,26.3719315 107.3824,26.3051981 107.6904,26.3051981 C108.06,26.3051981 108.3295,26.3950315 108.4989,26.5746981 C108.6683,26.7543648 108.778667,27.0110315 108.83,27.3446981 C108.881333,27.6783648 108.907,28.0813315 108.907,28.5535981 L108.907,28.5535981 L108.907,29.2927981 Z M112.6646,34.4979981 L112.6646,27.1675981 C112.900733,26.9211981 113.152267,26.7209981 113.4192,26.5669981 C113.686133,26.4129981 113.947933,26.3359981 114.2046,26.3359981 C114.492067,26.3359981 114.7051,26.4309648 114.8437,26.6208981 C114.9823,26.8108315 115.0516,27.1367981 115.0516,27.5987981 L115.0516,27.5987981 L115.0516,34.4979981 L116.1758,34.4979981 L116.1758,27.3523981 C116.1758,26.9519981 116.124467,26.6106315 116.0218,26.3282981 C115.919133,26.0459648 115.765133,25.8303648 115.5598,25.6814981 C115.354467,25.5326315 115.102933,25.4581981 114.8052,25.4581981 C114.384267,25.4581981 113.994133,25.5582981 113.6348,25.7584981 C113.275467,25.9586981 112.952067,26.2127981 112.6646,26.5207981 L112.6646,26.5207981 L112.6646,25.5967981 L111.5404,25.5967981 L111.5404,34.4979981 L112.6646,34.4979981 Z M119.9488,34.6057981 C120.1028,34.6057981 120.261933,34.5980981 120.4262,34.5826981 C120.590467,34.5672981 120.7496,34.5441981 120.9036,34.5133981 L120.9036,34.5133981 L120.9036,33.6509981 C120.800933,33.6715315 120.690567,33.6894981 120.5725,33.7048981 C120.454433,33.7202981 120.3492,33.7279981 120.2568,33.7279981 C119.928267,33.7279981 119.715233,33.6381648 119.6177,33.4584981 C119.520167,33.2788315 119.4714,32.9733981 119.4714,32.5421981 L119.4714,32.5421981 L119.4714,26.3359981 L120.9498,26.3359981 L120.9498,25.5967981 L119.4714,25.5967981 L119.4714,22.8401981 L118.3472,22.8401981 L118.3472,25.5967981 L117.2538,25.5967981 L117.2538,26.3359981 L118.3472,26.3359981 L118.3472,32.6499981 C118.3472,33.0298648 118.390833,33.3660981 118.4781,33.6586981 C118.565367,33.9512981 118.7245,34.1822981 118.9555,34.3516981 C119.1865,34.5210981 119.5176,34.6057981 119.9488,34.6057981 Z M124.3532,34.6365981 C124.979467,34.6365981 125.462,34.5056981 125.8008,34.2438981 C126.1396,33.9820981 126.380867,33.6022315 126.5246,33.1042981 C126.668333,32.6063648 126.7402,31.9980648 126.7402,31.2793981 L126.7402,31.2793981 L126.7402,28.8153981 C126.7402,28.0967315 126.668333,27.4884315 126.5246,26.9904981 C126.380867,26.4925648 126.1396,26.1126981 125.8008,25.8508981 C125.462,25.5890981 124.979467,25.4581981 124.3532,25.4581981 C123.747467,25.4581981 123.272633,25.5890981 122.9287,25.8508981 C122.584767,26.1126981 122.340933,26.4925648 122.1972,26.9904981 C122.053467,27.4884315 121.9816,28.0967315 121.9816,28.8153981 L121.9816,28.8153981 L121.9816,31.2793981 C121.9816,31.9980648 122.053467,32.6063648 122.1972,33.1042981 C122.340933,33.6022315 122.584767,33.9820981 122.9287,34.2438981 C123.272633,34.5056981 123.747467,34.6365981 124.3532,34.6365981 Z M124.3532,33.7895981 C123.963067,33.7895981 123.680733,33.6869315 123.5062,33.4815981 C123.331667,33.2762648 123.223867,32.9862315 123.1828,32.6114981 C123.141733,32.2367648 123.1212,31.8132648 123.1212,31.3409981 L123.1212,31.3409981 L123.1212,28.7537981 C123.1212,28.2712648 123.141733,27.8477648 123.1828,27.4832981 C123.223867,27.1188315 123.331667,26.8313648 123.5062,26.6208981 C123.680733,26.4104315 123.963067,26.3051981 124.3532,26.3051981 C124.743333,26.3051981 125.028233,26.4104315 125.2079,26.6208981 C125.387567,26.8313648 125.497933,27.1188315 125.539,27.4832981 C125.580067,27.8477648 125.6006,28.2712648 125.6006,28.7537981 L125.6006,28.7537981 L125.6006,31.3409981 C125.6006,31.8132648 125.580067,32.2367648 125.539,32.6114981 C125.497933,32.9862315 125.387567,33.2762648 125.2079,33.4815981 C125.028233,33.6869315 124.743333,33.7895981 124.3532,33.7895981 Z M130.3284,34.6365981 C130.7904,34.6365981 131.1908,34.5518981 131.5296,34.3824981 C131.8684,34.2130981 132.132767,33.9718315 132.3227,33.6586981 C132.512633,33.3455648 132.6076,32.9579981 132.6076,32.4959981 C132.6076,32.0853315 132.535733,31.7285648 132.392,31.4256981 C132.248267,31.1228315 132.063467,30.8481981 131.8376,30.6017981 C131.611733,30.3553981 131.3756,30.1243981 131.1292,29.9087981 L131.1292,29.9087981 L129.8664,28.7845981 C129.5892,28.5279315 129.399267,28.2969315 129.2966,28.0915981 C129.193933,27.8862648 129.1426,27.6501315 129.1426,27.3831981 C129.1426,27.0443981 129.247833,26.7800315 129.4583,26.5900981 C129.668767,26.4001648 129.9434,26.3051981 130.2822,26.3051981 C130.538867,26.3051981 130.757033,26.3667981 130.9367,26.4899981 C131.116367,26.6131981 131.257533,26.8056981 131.3602,27.0674981 C131.462867,27.3292981 131.524467,27.6603981 131.545,28.0607981 L131.545,28.0607981 L132.3458,27.7989981 C132.315,27.1111315 132.125067,26.5490315 131.776,26.1126981 C131.426933,25.6763648 130.9136,25.4581981 130.236,25.4581981 C129.815067,25.4581981 129.445467,25.5377648 129.1272,25.6968981 C128.808933,25.8560315 128.559967,26.0818981 128.3803,26.3744981 C128.200633,26.6670981 128.1108,27.0289981 128.1108,27.4601981 C128.1108,27.9324648 128.213467,28.3379981 128.4188,28.6767981 C128.624133,29.0155981 128.927,29.3543981 129.3274,29.6931981 L129.3274,29.6931981 L130.544,30.7403981 C130.9136,31.0586648 131.185667,31.3640981 131.3602,31.6566981 C131.534733,31.9492981 131.622,32.2393315 131.622,32.5267981 C131.622,32.9271981 131.516767,33.2377648 131.3063,33.4584981 C131.095833,33.6792315 130.795533,33.7895981 130.4054,33.7895981 C129.9434,33.7895981 129.584067,33.6330315 129.3274,33.3198981 C129.070733,33.0067648 128.9116,32.5062648 128.85,31.8183981 L128.85,31.8183981 L127.9106,32.1109981 C127.9722,32.8809981 128.213467,33.4944315 128.6344,33.9512981 C129.055333,34.4081648 129.62,34.6365981 130.3284,34.6365981 Z" id="Diseñodemoda,textilesycomplementos" fill="#000000" fill-rule="nonzero"></path>
                <g id="Group-9" fill="#8769A6">
                    <path d="M20.8250502,22.9899281 C19.8078814,22.9899281 19.7914283,23.6847375 19.7914283,27.3290439 C19.7914283,30.9048565 19.875522,31.6680378 20.8250502,31.6680378 C21.7738471,31.6680378 21.8586721,30.9048565 21.8586721,27.3290439 C21.8586721,23.6847375 21.842219,22.9899281 20.8250502,22.9899281" id="Fill-1"></path>
                    <path d="M25.1764876,11.529997 C24.1531031,11.529997 24.1692972,12.7051158 24.1692972,14.4007628 C24.1692972,16.5323566 24.3208032,17.4219223 25.1764876,17.4219223 C25.9825688,17.4219223 26.1340759,16.5323566 26.1340759,14.4007628 C26.1340759,12.7051158 26.150147,11.529997 25.1764876,11.529997" id="Fill-3"></path>
                    <path d="M13.3565133,17.4218857 C14.2128071,17.4218857 14.3644333,16.53232 14.3644333,14.4007262 C14.3644333,12.7050793 14.3800196,11.5299605 13.3565133,11.5299605 C12.3833414,11.5299605 12.399777,12.7050793 12.399777,14.4007262 C12.399777,16.53232 12.5507977,17.4218857 13.3565133,17.4218857" id="Fill-5"></path>
                    <path d="M29.7539543,20.6913289 L35.1675201,20.6913289 L35.1675201,19.8553883 L29.7539543,19.8553883 L29.7539543,20.6913289 Z M28.5007136,18.7153695 L26.2502917,18.7153695 L26.2502917,17.7751038 L26.2181167,17.7751038 C25.7811948,18.596907 25.1266041,18.8829476 24.2196103,18.8829476 C21.7688259,18.8829476 21.8526759,16.1635506 21.8526759,14.4170818 C21.8526759,12.7051036 21.7858884,10.0690692 24.1693978,10.0690692 C25.025326,10.0690692 25.6131291,10.3211067 26.0998979,11.0433379 L26.1341448,11.0433379 L26.1341448,6.59368151 L28.5007136,6.59368151 L28.5007136,18.7153695 Z M20.8250258,33.3966763 C17.6383601,33.3966763 17.4009476,31.0070731 17.4009476,27.295248 C17.4009476,22.7691759 17.909532,21.2606071 20.8250258,21.2606071 C23.7405197,21.2606071 24.2491041,22.7691759 24.2491041,27.295248 C24.2491041,31.0070731 24.0116916,33.3966763 20.8250258,33.3966763 L20.8250258,33.3966763 Z M16.9144225,33.2440888 L9.89722539,33.2440888 L9.89722539,31.1595387 C13.6256255,26.1932542 14.4053818,25.6169073 14.4053818,24.1422197 C14.4053818,23.5488103 14.1852756,22.9898915 13.5076505,22.9898915 C12.524363,22.9898915 12.4732974,23.9222353 12.4732974,24.6846854 L10.0835723,24.6846854 C9.91392227,22.4813071 11.1510754,21.2606071 13.3380005,21.2606071 C15.3887912,21.2606071 16.7958382,22.091429 16.7958382,24.3121135 C16.7958382,26.9728886 13.6939974,29.9899043 12.4056567,31.4135262 L16.9144225,31.4135262 L16.9144225,33.2440888 Z M10.0326285,6.59368151 L12.3998067,6.59368151 L12.3998067,11.0433379 L12.4338099,11.0433379 C12.9205786,10.3211067 13.5083818,10.0690692 14.3643099,10.0690692 C16.7479413,10.0690692 16.6810319,12.7051036 16.6810319,14.4170818 C16.6810319,16.1635506 16.7645163,18.8829476 14.3140974,18.8829476 C13.4071037,18.8829476 12.7521474,18.596907 12.3162005,17.7751038 L12.2821974,17.7751038 L12.2821974,18.7153695 L10.0326285,18.7153695 L10.0326285,6.59368151 Z M18.091857,18.7153695 L20.4586696,18.7153695 L20.4586696,10.2371348 L18.091857,10.2371348 L18.091857,18.7153695 Z M18.091857,8.45739409 L20.4586696,8.45739409 L20.4586696,6.59368151 L18.091857,6.59368151 L18.091857,8.45739409 Z M19.3699601,0.0164531257 C8.67152847,0.0164531257 0,8.68920035 0,19.3848289 C0,30.0841137 8.67152847,38.7562515 19.3699601,38.7562515 C30.0670512,38.7562515 38.7400422,30.0841137 38.7400422,19.3848289 C38.7400422,8.68920035 30.0670512,0.0164531257 19.3699601,0.0164531257 L19.3699601,0.0164531257 Z" id="Fill-7"></path>
                </g>
            </g>
            <line x1="47.55" y1="0.5" x2="222.340882" y2="0.5" id="Path-5-Copy-14" stroke="#000000" stroke-width="0.5"></line>
        </g>
    </g>
</svg>