<?xml version="1.0" encoding="UTF-8"?>
<svg width="223px" height="41px" viewBox="0 0 223 41" version="1.1" xmlns="http://www.w3.org/2000/svg" xmlns:xlink="http://www.w3.org/1999/xlink">
    <title>participacion_ciudadana</title>
    <g id="Page-1" stroke="none" stroke-width="1" fill="none" fill-rule="evenodd">
        <g id="participacion_ciudadana">
            <g id="participacionciudadana" transform="translate(0.000000, 2.000000)">
                <path d="M51.9116,18.248999 C52.7432,18.248999 53.3951333,18.0898657 53.8674,17.771599 C54.3396667,17.4533323 54.6784667,17.0041657 54.8838,16.424099 C55.0891333,15.8440323 55.1918,15.168999 55.1918,14.398999 L55.1918,14.398999 L55.1918,9.440199 C55.1918,8.71126567 55.0891333,8.069599 54.8838,7.515199 C54.6784667,6.960799 54.3319667,6.53216567 53.8443,6.229299 C53.3566333,5.92643233 52.6764667,5.774999 51.8038,5.774999 L51.8038,5.774999 L49.0934,5.774999 L49.0934,18.248999 L51.9116,18.248999 Z M51.8346,17.371199 L50.2638,17.371199 L50.2638,6.683599 L51.7884,6.683599 C52.4146667,6.683599 52.8843667,6.79396567 53.1975,7.014699 C53.5106333,7.23543233 53.7211,7.55883233 53.8289,7.984899 C53.9367,8.41096567 53.9906,8.93713233 53.9906,9.563399 L53.9906,9.563399 L53.9906,14.214199 C53.9906,14.8199323 53.9495333,15.361499 53.8674,15.838899 C53.7852667,16.316299 53.5902,16.6910323 53.2822,16.963099 C52.9742,17.2351657 52.4916667,17.371199 51.8346,17.371199 L51.8346,17.371199 Z M58.1332,8.115799 L58.1332,6.591199 L57.009,6.591199 L57.009,8.115799 L58.1332,8.115799 Z M58.1332,18.248999 L58.1332,9.347799 L57.009,9.347799 L57.009,18.248999 L58.1332,18.248999 Z M62.0602,18.387599 C62.5222,18.387599 62.9226,18.302899 63.2614,18.133499 C63.6002,17.964099 63.8645667,17.7228323 64.0545,17.409699 C64.2444333,17.0965657 64.3394,16.708999 64.3394,16.246999 C64.3394,15.8363323 64.2675333,15.4795657 64.1238,15.176699 C63.9800667,14.8738323 63.7952667,14.599199 63.5694,14.352799 C63.3435333,14.106399 63.1074,13.875399 62.861,13.659799 L62.861,13.659799 L61.5982,12.535599 C61.321,12.2789323 61.1310667,12.0479323 61.0284,11.842599 C60.9257333,11.6372657 60.8744,11.4011323 60.8744,11.134199 C60.8744,10.795399 60.9796333,10.5310323 61.1901,10.341099 C61.4005667,10.1511657 61.6752,10.056199 62.014,10.056199 C62.2706667,10.056199 62.4888333,10.117799 62.6685,10.240999 C62.8481667,10.364199 62.9893333,10.556699 63.092,10.818499 C63.1946667,11.080299 63.2562667,11.411399 63.2768,11.811799 L63.2768,11.811799 L64.0776,11.549999 C64.0468,10.8621323 63.8568667,10.3000323 63.5078,9.863699 C63.1587333,9.42736567 62.6454,9.209199 61.9678,9.209199 C61.5468667,9.209199 61.1772667,9.28876567 60.859,9.447899 C60.5407333,9.60703233 60.2917667,9.832899 60.1121,10.125499 C59.9324333,10.418099 59.8426,10.779999 59.8426,11.211199 C59.8426,11.6834657 59.9452667,12.088999 60.1506,12.427799 C60.3559333,12.766599 60.6588,13.105399 61.0592,13.444199 L61.0592,13.444199 L62.2758,14.491399 C62.6454,14.8096657 62.9174667,15.115099 63.092,15.407699 C63.2665333,15.700299 63.3538,15.9903323 63.3538,16.277799 C63.3538,16.678199 63.2485667,16.9887657 63.0381,17.209499 C62.8276333,17.4302323 62.5273333,17.540599 62.1372,17.540599 C61.6752,17.540599 61.3158667,17.3840323 61.0592,17.070899 C60.8025333,16.7577657 60.6434,16.2572657 60.5818,15.569399 L60.5818,15.569399 L59.6424,15.861999 C59.704,16.631999 59.9452667,17.2454323 60.3662,17.702299 C60.7871333,18.1591657 61.3518,18.387599 62.0602,18.387599 Z M67.8506,18.387599 C68.7232667,18.387599 69.3264333,18.1437657 69.6601,17.656099 C69.9937667,17.1684323 70.1606,16.5190657 70.1606,15.707999 L70.1606,15.707999 L70.1606,15.215199 L69.0672,15.215199 L69.0672,15.831199 C69.0672,16.293199 69.0133,16.6499657 68.9055,16.901499 C68.7977,17.1530323 68.6514,17.3224323 68.4666,17.409699 C68.2818,17.4969657 68.0764667,17.540599 67.8506,17.540599 C67.5528667,17.540599 67.3090333,17.4687323 67.1191,17.324999 C66.9291667,17.1812657 66.7905667,16.9425657 66.7033,16.608899 C66.6160333,16.2752323 66.5724,15.8209323 66.5724,15.245999 L66.5724,15.245999 L66.5724,13.690599 L70.176,13.690599 L70.176,12.889799 C70.176,12.0479323 70.1118333,11.357499 69.9835,10.818499 C69.8551667,10.279499 69.6267333,9.87653233 69.2982,9.609599 C68.9696667,9.34266567 68.4922667,9.209199 67.866,9.209199 C67.3218667,9.209199 66.8701333,9.31443233 66.5108,9.524899 C66.1514667,9.73536567 65.8845333,10.0895657 65.71,10.587499 C65.5354667,11.0854323 65.4482,11.7758657 65.4482,12.658799 L65.4482,12.658799 L65.4482,14.907199 C65.4482,15.7593323 65.5329,16.4420657 65.7023,16.955399 C65.8717,17.4687323 66.1335,17.8357657 66.4877,18.056499 C66.8419,18.2772323 67.2962,18.387599 67.8506,18.387599 Z M69.0672,13.043799 L66.5724,13.043799 L66.5724,12.443199 C66.5724,11.8066657 66.6134667,11.3164323 66.6956,10.972499 C66.7777333,10.6285657 66.9137667,10.3898657 67.1037,10.256399 C67.2936333,10.1229323 67.5426,10.056199 67.8506,10.056199 C68.2202,10.056199 68.4897,10.1460323 68.6591,10.325699 C68.8285,10.5053657 68.9388667,10.7620323 68.9902,11.095699 C69.0415333,11.4293657 69.0672,11.8323323 69.0672,12.304599 L69.0672,12.304599 L69.0672,13.043799 Z M74.9346,7.592199 C75.2426,7.592199 75.4736,7.51263233 75.6276,7.353499 C75.7816,7.19436567 75.8817,7.00443233 75.9279,6.783699 C75.9741,6.56296567 75.9972,6.360199 75.9972,6.175399 L75.9972,6.175399 L75.3196,6.175399 C75.3196,6.421799 75.2785333,6.59376567 75.1964,6.691299 C75.1142667,6.78883233 74.9859333,6.837599 74.8114,6.837599 C74.6266,6.837599 74.4469333,6.775999 74.2724,6.652799 C74.0978667,6.529599 73.9130667,6.40896567 73.718,6.290899 C73.5229333,6.17283233 73.3022,6.113799 73.0558,6.113799 C72.7683333,6.113799 72.5476,6.190799 72.3936,6.344799 C72.2396,6.498799 72.1343667,6.68103233 72.0779,6.891499 C72.0214333,7.10196567 71.9932,7.29446567 71.9932,7.468999 L71.9932,7.468999 L72.6862,7.468999 C72.6862,7.26366567 72.7298333,7.10966567 72.8171,7.006999 C72.9043667,6.90433233 73.0301333,6.852999 73.1944,6.852999 C73.3792,6.852999 73.5563,6.914599 73.7257,7.037799 C73.8951,7.160999 74.0773333,7.284199 74.2724,7.407399 C74.4674667,7.530599 74.6882,7.592199 74.9346,7.592199 Z M72.8248,18.248999 L72.8248,10.918599 C73.0609333,10.672199 73.3124667,10.471999 73.5794,10.317999 C73.8463333,10.163999 74.1081333,10.086999 74.3648,10.086999 C74.6522667,10.086999 74.8653,10.1819657 75.0039,10.371899 C75.1425,10.5618323 75.2118,10.887799 75.2118,11.349799 L75.2118,11.349799 L75.2118,18.248999 L76.336,18.248999 L76.336,11.103399 C76.336,10.702999 76.2846667,10.3616323 76.182,10.079299 C76.0793333,9.79696567 75.9253333,9.58136567 75.72,9.432499 C75.5146667,9.28363233 75.2631333,9.209199 74.9654,9.209199 C74.5444667,9.209199 74.1543333,9.309299 73.795,9.509499 C73.4356667,9.709699 73.1122667,9.963799 72.8248,10.271799 L72.8248,10.271799 L72.8248,9.347799 L71.7006,9.347799 L71.7006,18.248999 L72.8248,18.248999 Z M80.2014,18.387599 C80.8276667,18.387599 81.3102,18.256699 81.649,17.994899 C81.9878,17.733099 82.2290667,17.3532323 82.3728,16.855299 C82.5165333,16.3573657 82.5884,15.7490657 82.5884,15.030399 L82.5884,15.030399 L82.5884,12.566399 C82.5884,11.8477323 82.5165333,11.2394323 82.3728,10.741499 C82.2290667,10.2435657 81.9878,9.863699 81.649,9.601899 C81.3102,9.340099 80.8276667,9.209199 80.2014,9.209199 C79.5956667,9.209199 79.1208333,9.340099 78.7769,9.601899 C78.4329667,9.863699 78.1891333,10.2435657 78.0454,10.741499 C77.9016667,11.2394323 77.8298,11.8477323 77.8298,12.566399 L77.8298,12.566399 L77.8298,15.030399 C77.8298,15.7490657 77.9016667,16.3573657 78.0454,16.855299 C78.1891333,17.3532323 78.4329667,17.733099 78.7769,17.994899 C79.1208333,18.256699 79.5956667,18.387599 80.2014,18.387599 Z M80.2014,17.540599 C79.8112667,17.540599 79.5289333,17.4379323 79.3544,17.232599 C79.1798667,17.0272657 79.0720667,16.7372323 79.031,16.362499 C78.9899333,15.9877657 78.9694,15.5642657 78.9694,15.091999 L78.9694,15.091999 L78.9694,12.504799 C78.9694,12.0222657 78.9899333,11.5987657 79.031,11.234299 C79.0720667,10.8698323 79.1798667,10.5823657 79.3544,10.371899 C79.5289333,10.1614323 79.8112667,10.056199 80.2014,10.056199 C80.5915333,10.056199 80.8764333,10.1614323 81.0561,10.371899 C81.2357667,10.5823657 81.3461333,10.8698323 81.3872,11.234299 C81.4282667,11.5987657 81.4488,12.0222657 81.4488,12.504799 L81.4488,12.504799 L81.4488,15.091999 C81.4488,15.5642657 81.4282667,15.9877657 81.3872,16.362499 C81.3461333,16.7372323 81.2357667,17.0272657 81.0561,17.232599 C80.8764333,17.4379323 80.5915333,17.540599 80.2014,17.540599 Z M87.3316,20.466599 C87.8346667,20.466599 88.2581667,20.412699 88.6021,20.304899 C88.9460333,20.197099 89.2232333,20.027699 89.4337,19.796699 C89.6441667,19.565699 89.7904667,19.2602657 89.8726,18.880399 L89.8726,18.880399 L92.0286,9.347799 L90.889,9.347799 L89.3952,16.924599 L87.8552,9.347799 L86.731,9.347799 L88.5636,17.186399 C88.6354667,17.4738657 88.7022,17.7510657 88.7638,18.017999 C88.8254,18.2849323 88.8562,18.5005323 88.8562,18.664799 C88.8562,18.849599 88.8125667,19.011299 88.7253,19.149899 C88.6380333,19.288499 88.4635,19.396299 88.2017,19.473299 C87.9399,19.550299 87.5523333,19.588799 87.039,19.588799 L87.039,19.588799 L87.039,20.466599 L87.3316,20.466599 Z M97.6958,18.248999 L97.6958,12.350799 L99.5284,12.350799 C100.2368,12.350799 100.809167,12.2019323 101.2455,11.904199 C101.681833,11.6064657 101.994967,11.2086323 102.1849,10.710699 C102.374833,10.2127657 102.4698,9.671199 102.4698,9.085999 C102.4698,8.41866567 102.379967,7.838599 102.2003,7.345799 C102.020633,6.852999 101.7152,6.467999 101.284,6.190799 C100.8528,5.913599 100.262467,5.774999 99.513,5.774999 L99.513,5.774999 L96.5254,5.774999 L96.5254,18.248999 L97.6958,18.248999 Z M99.1896,11.472999 L97.6958,11.472999 L97.6958,6.652799 L99.205,6.652799 C99.7594,6.652799 100.188033,6.722099 100.4909,6.860699 C100.793767,6.999299 101.0068,7.245699 101.13,7.599899 C101.2532,7.954099 101.3148,8.44946567 101.3148,9.085999 C101.3148,9.68146567 101.242933,10.1537323 101.0992,10.502799 C100.955467,10.8518657 100.727033,11.1008323 100.4139,11.249699 C100.100767,11.3985657 99.6926667,11.472999 99.1896,11.472999 L99.1896,11.472999 Z M105.5498,17.432799 C105.282867,17.432799 105.046733,17.332699 104.8414,17.132499 C104.636067,16.932299 104.5334,16.5960657 104.5334,16.123799 C104.5334,15.8260657 104.5796,15.5668323 104.672,15.346099 C104.7644,15.1253657 104.908133,14.9277323 105.1032,14.753199 C105.298267,14.5786657 105.552367,14.398999 105.8655,14.214199 C106.178633,14.029399 106.555933,13.8240657 106.9974,13.598199 L106.9974,13.598199 L106.9974,16.370199 C106.915267,16.5344657 106.802333,16.6961657 106.6586,16.855299 C106.514867,17.0144323 106.3506,17.1504657 106.1658,17.263399 C105.981,17.3763323 105.775667,17.432799 105.5498,17.432799 Z M107.028,17.018 L107.038788,17.1339427 C107.052263,17.2600302 107.0744,17.413549 107.1052,17.594499 C107.146267,17.8357657 107.177067,18.0539323 107.1976,18.248999 L107.1976,18.248999 L108.1986,18.248999 C108.188333,18.1360657 108.178067,17.971799 108.1678,17.756199 C108.157533,17.540599 108.147267,17.3121657 108.137,17.070899 C108.126733,16.8296323 108.1216,16.631999 108.1216,16.477999 L108.1216,16.477999 L108.1216,12.150599 C108.1216,11.1444657 107.9599,10.402699 107.6365,9.925299 C107.3131,9.447899 106.751,9.209199 105.9502,9.209199 C105.098067,9.209199 104.484633,9.42736567 104.1099,9.863699 C103.735167,10.3000323 103.542667,10.9699323 103.5324,11.873399 L103.5324,11.873399 L104.6412,11.888799 L104.6412,11.580799 C104.6412,11.1906657 104.697667,10.8852323 104.8106,10.664499 C104.923533,10.4437657 105.0724,10.287199 105.2572,10.194799 C105.442,10.102399 105.652467,10.056199 105.8886,10.056199 C106.176067,10.056199 106.399367,10.1229323 106.5585,10.256399 C106.717633,10.3898657 106.830567,10.6131657 106.8973,10.926299 C106.964033,11.2394323 106.9974,11.6680657 106.9974,12.212199 L106.9974,12.212199 L106.9974,12.843599 C106.340333,13.1413323 105.783367,13.4108323 105.3265,13.652099 C104.869633,13.8933657 104.500033,14.1397657 104.2177,14.391299 C103.935367,14.6428323 103.730033,14.9277323 103.6017,15.245999 C103.473367,15.5642657 103.4092,15.9492657 103.4092,16.400999 C103.4092,16.7603323 103.483633,17.0914323 103.6325,17.394299 C103.781367,17.6971657 103.989267,17.9384323 104.2562,18.118099 C104.523133,18.2977657 104.836267,18.387599 105.1956,18.387599 C105.667867,18.387599 106.060567,18.248999 106.3737,17.971799 C106.686833,17.694599 106.905,17.3763323 107.0282,17.016999 L107.028,17.018 Z M110.986,18.248999 L110.986,11.411399 C111.2016,11.0520657 111.450567,10.7902657 111.7329,10.625999 C112.015233,10.4617323 112.330933,10.379599 112.68,10.379599 C112.7724,10.379599 112.869933,10.387299 112.9726,10.402699 C113.075267,10.418099 113.162533,10.441199 113.2344,10.471999 L113.2344,10.471999 L113.2344,9.270799 C113.193333,9.26053233 113.1574,9.255399 113.1266,9.255399 L113.1266,9.255399 L113.0342,9.255399 C112.6954,9.255399 112.3412,9.355499 111.9716,9.555699 C111.602,9.755899 111.273467,10.0921323 110.986,10.564399 L110.986,10.564399 L110.986,9.347799 L109.8464,9.347799 L109.8464,18.248999 L110.986,18.248999 Z M116.453,18.356799 C116.607,18.356799 116.766133,18.349099 116.9304,18.333699 C117.094667,18.318299 117.2538,18.295199 117.4078,18.264399 L117.4078,18.264399 L117.4078,17.401999 C117.305133,17.4225323 117.194767,17.440499 117.0767,17.455899 C116.958633,17.471299 116.8534,17.478999 116.761,17.478999 C116.432467,17.478999 116.219433,17.3891657 116.1219,17.209499 C116.024367,17.0298323 115.9756,16.724399 115.9756,16.293199 L115.9756,16.293199 L115.9756,10.086999 L117.454,10.086999 L117.454,9.347799 L115.9756,9.347799 L115.9756,6.591199 L114.8514,6.591199 L114.8514,9.347799 L113.758,9.347799 L113.758,10.086999 L114.8514,10.086999 L114.8514,16.400999 C114.8514,16.7808657 114.895033,17.117099 114.9823,17.409699 C115.069567,17.702299 115.2287,17.933299 115.4597,18.102699 C115.6907,18.272099 116.0218,18.356799 116.453,18.356799 Z M119.9026,8.115799 L119.9026,6.591199 L118.7784,6.591199 L118.7784,8.115799 L119.9026,8.115799 Z M119.9026,18.248999 L119.9026,9.347799 L118.7784,9.347799 L118.7784,18.248999 L119.9026,18.248999 Z M124.0144,18.387599 C124.650933,18.387599 125.133467,18.256699 125.462,17.994899 C125.790533,17.733099 126.0087,17.3737657 126.1165,16.916899 C126.2243,16.4600323 126.2782,15.9338657 126.2782,15.338399 L126.2782,15.338399 L126.2782,14.907199 L125.231,14.907199 L125.231,15.399999 C125.231,15.8722657 125.205333,16.2675323 125.154,16.585799 C125.102667,16.9040657 124.989733,17.1427657 124.8152,17.301899 C124.640667,17.4610323 124.378867,17.540599 124.0298,17.540599 C123.526733,17.540599 123.187933,17.3583657 123.0134,16.993899 C122.838867,16.6294323 122.7516,16.000599 122.7516,15.107399 L122.7516,15.107399 L122.7516,12.612599 C122.7516,11.9863323 122.7824,11.4858323 122.844,11.111099 C122.9056,10.7363657 123.0288,10.4668657 123.2136,10.302599 C123.3984,10.1383323 123.665333,10.056199 124.0144,10.056199 C124.312133,10.056199 124.550833,10.1152323 124.7305,10.233299 C124.910167,10.3513657 125.0385,10.5541323 125.1155,10.841599 C125.1925,11.1290657 125.231,11.534599 125.231,12.058199 L125.231,12.058199 L125.231,12.489399 L126.2782,12.489399 L126.2782,12.058199 C126.2782,11.4935323 126.221733,10.995599 126.1088,10.564399 C125.995867,10.133199 125.775133,9.79953233 125.4466,9.563399 C125.118067,9.32726567 124.640667,9.209199 124.0144,9.209199 C123.377867,9.209199 122.887633,9.33753233 122.5437,9.594199 C122.199767,9.85086567 121.961067,10.2435657 121.8276,10.772299 C121.694133,11.3010323 121.6274,11.9760657 121.6274,12.797399 L121.6274,12.797399 L121.6274,14.876399 C121.6274,15.5437323 121.6813,16.1417657 121.7891,16.670499 C121.8969,17.1992323 122.1202,17.617599 122.459,17.925599 C122.7978,18.233599 123.316267,18.387599 124.0144,18.387599 Z M129.0348,8.115799 L129.0348,6.591199 L127.9106,6.591199 L127.9106,8.115799 L129.0348,8.115799 Z M129.0348,18.248999 L129.0348,9.347799 L127.9106,9.347799 L127.9106,18.248999 L129.0348,18.248999 Z M132.0532,21.174999 L132.0532,17.540599 C132.227733,17.7356657 132.4459,17.925599 132.7077,18.110399 C132.9695,18.295199 133.280067,18.387599 133.6394,18.387599 C134.1938,18.387599 134.627567,18.2310323 134.9407,17.917899 C135.253833,17.6047657 135.472,17.1684323 135.5952,16.608899 C135.7184,16.0493657 135.78,15.3897323 135.78,14.629999 L135.78,14.629999 L135.78,12.751199 C135.78,12.3097323 135.754333,11.8785323 135.703,11.457599 C135.651667,11.0366657 135.554133,10.656799 135.4104,10.317999 C135.266667,9.979199 135.0639,9.709699 134.8021,9.509499 C134.5403,9.309299 134.1938,9.209199 133.7626,9.209199 C133.3622,9.209199 133.0234,9.29903233 132.7462,9.478699 C132.469,9.65836567 132.238,9.86113233 132.0532,10.086999 L132.0532,10.086999 L132.0532,9.347799 L130.929,9.347799 L130.929,21.174999 L132.0532,21.174999 Z M133.47,17.494399 C133.172267,17.494399 132.902767,17.4302323 132.6615,17.301899 C132.420233,17.1735657 132.217467,17.0221323 132.0532,16.847599 L132.0532,16.847599 L132.0532,10.779999 C132.2072,10.625999 132.404833,10.471999 132.6461,10.317999 C132.887367,10.163999 133.151733,10.086999 133.4392,10.086999 C133.788267,10.086999 134.050067,10.1896657 134.2246,10.394999 C134.399133,10.6003323 134.514633,10.9006323 134.5711,11.295899 C134.627567,11.6911657 134.6558,12.1762657 134.6558,12.751199 L134.6558,12.751199 L134.6558,14.660799 C134.6558,15.2665323 134.627567,15.7824323 134.5711,16.208499 C134.514633,16.6345657 134.4017,16.955399 134.2323,17.170999 C134.0629,17.386599 133.8088,17.494399 133.47,17.494399 Z M139.245,17.432799 C138.978067,17.432799 138.741933,17.332699 138.5366,17.132499 C138.331267,16.932299 138.2286,16.5960657 138.2286,16.123799 C138.2286,15.8260657 138.2748,15.5668323 138.3672,15.346099 C138.4596,15.1253657 138.603333,14.9277323 138.7984,14.753199 C138.993467,14.5786657 139.247567,14.398999 139.5607,14.214199 C139.873833,14.029399 140.251133,13.8240657 140.6926,13.598199 L140.6926,13.598199 L140.6926,16.370199 C140.610467,16.5344657 140.497533,16.6961657 140.3538,16.855299 C140.210067,17.0144323 140.0458,17.1504657 139.861,17.263399 C139.6762,17.3763323 139.470867,17.432799 139.245,17.432799 Z M140.723,17.018 L140.733988,17.1339427 C140.747463,17.2600302 140.7696,17.413549 140.8004,17.594499 C140.841467,17.8357657 140.872267,18.0539323 140.8928,18.248999 L140.8928,18.248999 L141.8938,18.248999 C141.883533,18.1360657 141.873267,17.971799 141.863,17.756199 C141.852733,17.540599 141.842467,17.3121657 141.8322,17.070899 C141.821933,16.8296323 141.8168,16.631999 141.8168,16.477999 L141.8168,16.477999 L141.8168,12.150599 C141.8168,11.1444657 141.6551,10.402699 141.3317,9.925299 C141.0083,9.447899 140.4462,9.209199 139.6454,9.209199 C138.793267,9.209199 138.179833,9.42736567 137.8051,9.863699 C137.430367,10.3000323 137.237867,10.9699323 137.2276,11.873399 L137.2276,11.873399 L138.3364,11.888799 L138.3364,11.580799 C138.3364,11.1906657 138.392867,10.8852323 138.5058,10.664499 C138.618733,10.4437657 138.7676,10.287199 138.9524,10.194799 C139.1372,10.102399 139.347667,10.056199 139.5838,10.056199 C139.871267,10.056199 140.094567,10.1229323 140.2537,10.256399 C140.412833,10.3898657 140.525767,10.6131657 140.5925,10.926299 C140.659233,11.2394323 140.6926,11.6680657 140.6926,12.212199 L140.6926,12.212199 L140.6926,12.843599 C140.035533,13.1413323 139.478567,13.4108323 139.0217,13.652099 C138.564833,13.8933657 138.195233,14.1397657 137.9129,14.391299 C137.630567,14.6428323 137.425233,14.9277323 137.2969,15.245999 C137.168567,15.5642657 137.1044,15.9492657 137.1044,16.400999 C137.1044,16.7603323 137.178833,17.0914323 137.3277,17.394299 C137.476567,17.6971657 137.684467,17.9384323 137.9514,18.118099 C138.218333,18.2977657 138.531467,18.387599 138.8908,18.387599 C139.363067,18.387599 139.755767,18.248999 140.0689,17.971799 C140.382033,17.694599 140.6002,17.3763323 140.7234,17.016999 L140.723,17.018 Z M145.6822,18.387599 C146.318733,18.387599 146.801267,18.256699 147.1298,17.994899 C147.458333,17.733099 147.6765,17.3737657 147.7843,16.916899 C147.8921,16.4600323 147.946,15.9338657 147.946,15.338399 L147.946,15.338399 L147.946,14.907199 L146.8988,14.907199 L146.8988,15.399999 C146.8988,15.8722657 146.873133,16.2675323 146.8218,16.585799 C146.770467,16.9040657 146.657533,17.1427657 146.483,17.301899 C146.308467,17.4610323 146.046667,17.540599 145.6976,17.540599 C145.194533,17.540599 144.855733,17.3583657 144.6812,16.993899 C144.506667,16.6294323 144.4194,16.000599 144.4194,15.107399 L144.4194,15.107399 L144.4194,12.612599 C144.4194,11.9863323 144.4502,11.4858323 144.5118,11.111099 C144.5734,10.7363657 144.6966,10.4668657 144.8814,10.302599 C145.0662,10.1383323 145.333133,10.056199 145.6822,10.056199 C145.979933,10.056199 146.218633,10.1152323 146.3983,10.233299 C146.577967,10.3513657 146.7063,10.5541323 146.7833,10.841599 C146.8603,11.1290657 146.8988,11.534599 146.8988,12.058199 L146.8988,12.058199 L146.8988,12.489399 L147.946,12.489399 L147.946,12.058199 C147.946,11.4935323 147.889533,10.995599 147.7766,10.564399 C147.663667,10.133199 147.442933,9.79953233 147.1144,9.563399 C146.785867,9.32726567 146.308467,9.209199 145.6822,9.209199 C145.045667,9.209199 144.555433,9.33753233 144.2115,9.594199 C143.867567,9.85086567 143.628867,10.2435657 143.4954,10.772299 C143.361933,11.3010323 143.2952,11.9760657 143.2952,12.797399 L143.2952,12.797399 L143.2952,14.876399 C143.2952,15.5437323 143.3491,16.1417657 143.4569,16.670499 C143.5647,17.1992323 143.788,17.617599 144.1268,17.925599 C144.4656,18.233599 144.984067,18.387599 145.6822,18.387599 Z M150.7026,8.115799 L150.7026,6.591199 L149.5784,6.591199 L149.5784,8.115799 L150.7026,8.115799 Z M150.7026,18.248999 L150.7026,9.347799 L149.5784,9.347799 L149.5784,18.248999 L150.7026,18.248999 Z M155.107,8.608599 L156.6162,5.590199 L155.492,5.590199 L154.5218,8.608599 L155.107,8.608599 Z M154.799,18.387599 C155.425267,18.387599 155.9078,18.256699 156.2466,17.994899 C156.5854,17.733099 156.826667,17.3532323 156.9704,16.855299 C157.114133,16.3573657 157.186,15.7490657 157.186,15.030399 L157.186,15.030399 L157.186,12.566399 C157.186,11.8477323 157.114133,11.2394323 156.9704,10.741499 C156.826667,10.2435657 156.5854,9.863699 156.2466,9.601899 C155.9078,9.340099 155.425267,9.209199 154.799,9.209199 C154.193267,9.209199 153.718433,9.340099 153.3745,9.601899 C153.030567,9.863699 152.786733,10.2435657 152.643,10.741499 C152.499267,11.2394323 152.4274,11.8477323 152.4274,12.566399 L152.4274,12.566399 L152.4274,15.030399 C152.4274,15.7490657 152.499267,16.3573657 152.643,16.855299 C152.786733,17.3532323 153.030567,17.733099 153.3745,17.994899 C153.718433,18.256699 154.193267,18.387599 154.799,18.387599 Z M154.799,17.540599 C154.408867,17.540599 154.126533,17.4379323 153.952,17.232599 C153.777467,17.0272657 153.669667,16.7372323 153.6286,16.362499 C153.587533,15.9877657 153.567,15.5642657 153.567,15.091999 L153.567,15.091999 L153.567,12.504799 C153.567,12.0222657 153.587533,11.5987657 153.6286,11.234299 C153.669667,10.8698323 153.777467,10.5823657 153.952,10.371899 C154.126533,10.1614323 154.408867,10.056199 154.799,10.056199 C155.189133,10.056199 155.474033,10.1614323 155.6537,10.371899 C155.833367,10.5823657 155.943733,10.8698323 155.9848,11.234299 C156.025867,11.5987657 156.0464,12.0222657 156.0464,12.504799 L156.0464,12.504799 L156.0464,15.091999 C156.0464,15.5642657 156.025867,15.9877657 155.9848,16.362499 C155.943733,16.7372323 155.833367,17.0272657 155.6537,17.232599 C155.474033,17.4379323 155.189133,17.540599 154.799,17.540599 Z M159.8656,18.248999 L159.8656,10.918599 C160.101733,10.672199 160.353267,10.471999 160.6202,10.317999 C160.887133,10.163999 161.148933,10.086999 161.4056,10.086999 C161.693067,10.086999 161.9061,10.1819657 162.0447,10.371899 C162.1833,10.5618323 162.2526,10.887799 162.2526,11.349799 L162.2526,11.349799 L162.2526,18.248999 L163.3768,18.248999 L163.3768,11.103399 C163.3768,10.702999 163.325467,10.3616323 163.2228,10.079299 C163.120133,9.79696567 162.966133,9.58136567 162.7608,9.432499 C162.555467,9.28363233 162.303933,9.209199 162.0062,9.209199 C161.585267,9.209199 161.195133,9.309299 160.8358,9.509499 C160.476467,9.709699 160.153067,9.963799 159.8656,10.271799 L159.8656,10.271799 L159.8656,9.347799 L158.7414,9.347799 L158.7414,18.248999 L159.8656,18.248999 Z M51.9886,34.651998 C52.7688667,34.651998 53.3720333,34.4928647 53.7981,34.174598 C54.2241667,33.8563313 54.5219,33.4174313 54.6913,32.857898 C54.8607,32.2983647 54.9454,31.6541313 54.9454,30.925198 L54.9454,30.925198 L54.9454,30.185998 L53.8366,30.185998 L53.8366,31.002198 C53.8366,31.5463313 53.7929667,32.0211647 53.7057,32.426698 C53.6184333,32.8322313 53.4439,33.1479313 53.1821,33.373798 C52.9203,33.5996647 52.5276,33.712598 52.004,33.712598 C51.4906667,33.712598 51.0902667,33.6099313 50.8028,33.404598 C50.5153333,33.1992647 50.3125667,32.8912647 50.1945,32.480598 C50.0764333,32.0699313 50.0174,31.556598 50.0174,30.940598 L50.0174,30.940598 L50.0174,25.627598 C50.0174,25.073198 50.0661667,24.5855313 50.1637,24.164598 C50.2612333,23.7436647 50.4511667,23.417698 50.7335,23.186698 C51.0158333,22.955698 51.4393333,22.840198 52.004,22.840198 C52.5173333,22.840198 52.9074667,22.947998 53.1744,23.163598 C53.4413333,23.379198 53.6184333,23.6820647 53.7057,24.072198 C53.7929667,24.4623313 53.8366,24.9294647 53.8366,25.473598 L53.8366,25.473598 L53.8366,26.197398 L54.9454,26.197398 L54.9454,25.442798 C54.9454,24.7138647 54.853,24.0850313 54.6682,23.556298 C54.4834,23.0275647 54.1779667,22.6194647 53.7519,22.331998 C53.3258333,22.0445313 52.7380667,21.900798 51.9886,21.900798 C51.1672667,21.900798 50.5256,22.0650647 50.0636,22.393598 C49.6016,22.7221313 49.2807667,23.178998 49.1011,23.764198 C48.9214333,24.349398 48.8316,25.026998 48.8316,25.796998 L48.8316,25.796998 L48.8316,30.755798 C48.8316,31.4744647 48.9188667,32.1289647 49.0934,32.719298 C49.2679333,33.3096313 49.5836333,33.7793313 50.0405,34.128398 C50.4973667,34.4774647 51.1467333,34.651998 51.9886,34.651998 Z M57.7944,24.364798 L57.7944,22.840198 L56.6702,22.840198 L56.6702,24.364798 L57.7944,24.364798 Z M57.7944,34.497998 L57.7944,25.596798 L56.6702,25.596798 L56.6702,34.497998 L57.7944,34.497998 Z M60.9976,34.636598 C61.4185333,34.636598 61.8138,34.5313647 62.1834,34.320898 C62.553,34.1104313 62.8815333,33.8409313 63.169,33.512398 L63.169,33.512398 L63.169,34.497998 L64.2932,34.497998 L64.2932,25.596798 L63.169,25.596798 L63.169,32.865598 C62.9328667,33.1222647 62.6787667,33.3327313 62.4067,33.496998 C62.1346333,33.6612647 61.8651333,33.743398 61.5982,33.743398 C61.3107333,33.743398 61.0977,33.650998 60.9591,33.466198 C60.8205,33.281398 60.7512,32.957998 60.7512,32.495998 L60.7512,32.495998 L60.7512,25.596798 L59.6116,25.596798 L59.6116,32.742398 C59.6116,33.142798 59.6655,33.481598 59.7733,33.758798 C59.8811,34.035998 60.0376667,34.251598 60.243,34.405598 C60.4483333,34.559598 60.6998667,34.636598 60.9976,34.636598 Z M68.0046,34.636598 C68.3434,34.636598 68.6385667,34.5570313 68.8901,34.397898 C69.1416333,34.2387647 69.3546667,34.0616647 69.5292,33.866598 L69.5292,33.866598 L69.5292,34.497998 L70.6534,34.497998 L70.6534,22.023998 L69.5292,22.023998 L69.5292,26.228198 C69.3546667,26.0331313 69.1365,25.8560313 68.8747,25.696898 C68.6129,25.5377647 68.3074667,25.458198 67.9584,25.458198 C67.3937333,25.458198 66.9599667,25.6147647 66.6571,25.927898 C66.3542333,26.2410313 66.1463333,26.6799313 66.0334,27.244598 C65.9204667,27.8092647 65.864,28.4817313 65.864,29.261998 L65.864,29.261998 L65.864,30.909798 C65.864,32.2444647 66.0308333,33.1992647 66.3645,33.774198 C66.6981667,34.3491313 67.2448667,34.636598 68.0046,34.636598 Z M68.2356,33.743398 C67.8968,33.743398 67.6375667,33.6407313 67.4579,33.435398 C67.2782333,33.2300647 67.1550333,32.9220647 67.0883,32.511398 C67.0215667,32.1007313 66.9882,31.5976647 66.9882,31.002198 L66.9882,31.002198 L66.9882,28.892398 C66.9882,28.060798 67.0677667,27.4268313 67.2269,26.990498 C67.3860333,26.5541647 67.712,26.335998 68.2048,26.335998 C68.482,26.335998 68.7335333,26.405298 68.9594,26.543898 C69.1852667,26.682498 69.3752,26.8236647 69.5292,26.967398 L69.5292,26.967398 L69.5292,33.158198 C69.3546667,33.3224647 69.1570333,33.4610647 68.9363,33.573998 C68.7155667,33.6869313 68.482,33.743398 68.2356,33.743398 Z M74.2878,33.681798 C74.0208667,33.681798 73.7847333,33.581698 73.5794,33.381498 C73.3740667,33.181298 73.2714,32.8450647 73.2714,32.372798 C73.2714,32.0750647 73.3176,31.8158313 73.41,31.595098 C73.5024,31.3743647 73.6461333,31.1767313 73.8412,31.002198 C74.0362667,30.8276647 74.2903667,30.647998 74.6035,30.463198 C74.9166333,30.278398 75.2939333,30.0730647 75.7354,29.847198 L75.7354,29.847198 L75.7354,32.619198 C75.6532667,32.7834647 75.5403333,32.9451647 75.3966,33.104298 C75.2528667,33.2634313 75.0886,33.3994647 74.9038,33.512398 C74.719,33.6253313 74.5136667,33.681798 74.2878,33.681798 Z M75.766,33.267 L75.7767875,33.3829417 C75.7902625,33.5090292 75.8124,33.662548 75.8432,33.843498 C75.8842667,34.0847647 75.9150667,34.3029313 75.9356,34.497998 L75.9356,34.497998 L76.9366,34.497998 C76.9263333,34.3850647 76.9160667,34.220798 76.9058,34.005198 C76.8955333,33.789598 76.8852667,33.5611647 76.875,33.319898 C76.8647333,33.0786313 76.8596,32.880998 76.8596,32.726998 L76.8596,32.726998 L76.8596,28.399598 C76.8596,27.3934647 76.6979,26.651698 76.3745,26.174298 C76.0511,25.696898 75.489,25.458198 74.6882,25.458198 C73.8360667,25.458198 73.2226333,25.6763647 72.8479,26.112698 C72.4731667,26.5490313 72.2806667,27.2189313 72.2704,28.122398 L72.2704,28.122398 L73.3792,28.137798 L73.3792,27.829798 C73.3792,27.4396647 73.4356667,27.1342313 73.5486,26.913498 C73.6615333,26.6927647 73.8104,26.536198 73.9952,26.443798 C74.18,26.351398 74.3904667,26.305198 74.6266,26.305198 C74.9140667,26.305198 75.1373667,26.3719313 75.2965,26.505398 C75.4556333,26.6388647 75.5685667,26.8621647 75.6353,27.175298 C75.7020333,27.4884313 75.7354,27.9170647 75.7354,28.461198 L75.7354,28.461198 L75.7354,29.092598 C75.0783333,29.3903313 74.5213667,29.6598313 74.0645,29.901098 C73.6076333,30.1423647 73.2380333,30.3887647 72.9557,30.640298 C72.6733667,30.8918313 72.4680333,31.1767313 72.3397,31.494998 C72.2113667,31.8132647 72.1472,32.1982647 72.1472,32.649998 C72.1472,33.0093313 72.2216333,33.3404313 72.3705,33.643298 C72.5193667,33.9461647 72.7272667,34.1874313 72.9942,34.367098 C73.2611333,34.5467647 73.5742667,34.636598 73.9336,34.636598 C74.4058667,34.636598 74.7985667,34.497998 75.1117,34.220798 C75.4248333,33.943598 75.643,33.6253313 75.7662,33.265998 L75.766,33.267 Z M80.4786,34.636598 C80.8174,34.636598 81.1125667,34.5570313 81.3641,34.397898 C81.6156333,34.2387647 81.8286667,34.0616647 82.0032,33.866598 L82.0032,33.866598 L82.0032,34.497998 L83.1274,34.497998 L83.1274,22.023998 L82.0032,22.023998 L82.0032,26.228198 C81.8286667,26.0331313 81.6105,25.8560313 81.3487,25.696898 C81.0869,25.5377647 80.7814667,25.458198 80.4324,25.458198 C79.8677333,25.458198 79.4339667,25.6147647 79.1311,25.927898 C78.8282333,26.2410313 78.6203333,26.6799313 78.5074,27.244598 C78.3944667,27.8092647 78.338,28.4817313 78.338,29.261998 L78.338,29.261998 L78.338,30.909798 C78.338,32.2444647 78.5048333,33.1992647 78.8385,33.774198 C79.1721667,34.3491313 79.7188667,34.636598 80.4786,34.636598 Z M80.7096,33.743398 C80.3708,33.743398 80.1115667,33.6407313 79.9319,33.435398 C79.7522333,33.2300647 79.6290333,32.9220647 79.5623,32.511398 C79.4955667,32.1007313 79.4622,31.5976647 79.4622,31.002198 L79.4622,31.002198 L79.4622,28.892398 C79.4622,28.060798 79.5417667,27.4268313 79.7009,26.990498 C79.8600333,26.5541647 80.186,26.335998 80.6788,26.335998 C80.956,26.335998 81.2075333,26.405298 81.4334,26.543898 C81.6592667,26.682498 81.8492,26.8236647 82.0032,26.967398 L82.0032,26.967398 L82.0032,33.158198 C81.8286667,33.3224647 81.6310333,33.4610647 81.4103,33.573998 C81.1895667,33.6869313 80.956,33.743398 80.7096,33.743398 Z M86.7618,33.681798 C86.4948667,33.681798 86.2587333,33.581698 86.0534,33.381498 C85.8480667,33.181298 85.7454,32.8450647 85.7454,32.372798 C85.7454,32.0750647 85.7916,31.8158313 85.884,31.595098 C85.9764,31.3743647 86.1201333,31.1767313 86.3152,31.002198 C86.5102667,30.8276647 86.7643667,30.647998 87.0775,30.463198 C87.3906333,30.278398 87.7679333,30.0730647 88.2094,29.847198 L88.2094,29.847198 L88.2094,32.619198 C88.1272667,32.7834647 88.0143333,32.9451647 87.8706,33.104298 C87.7268667,33.2634313 87.5626,33.3994647 87.3778,33.512398 C87.193,33.6253313 86.9876667,33.681798 86.7618,33.681798 Z M88.24,33.267 L88.2507875,33.3829417 C88.2642625,33.5090292 88.2864,33.662548 88.3172,33.843498 C88.3582667,34.0847647 88.3890667,34.3029313 88.4096,34.497998 L88.4096,34.497998 L89.4106,34.497998 C89.4003333,34.3850647 89.3900667,34.220798 89.3798,34.005198 C89.3695333,33.789598 89.3592667,33.5611647 89.349,33.319898 C89.3387333,33.0786313 89.3336,32.880998 89.3336,32.726998 L89.3336,32.726998 L89.3336,28.399598 C89.3336,27.3934647 89.1719,26.651698 88.8485,26.174298 C88.5251,25.696898 87.963,25.458198 87.1622,25.458198 C86.3100667,25.458198 85.6966333,25.6763647 85.3219,26.112698 C84.9471667,26.5490313 84.7546667,27.2189313 84.7444,28.122398 L84.7444,28.122398 L85.8532,28.137798 L85.8532,27.829798 C85.8532,27.4396647 85.9096667,27.1342313 86.0226,26.913498 C86.1355333,26.6927647 86.2844,26.536198 86.4692,26.443798 C86.654,26.351398 86.8644667,26.305198 87.1006,26.305198 C87.3880667,26.305198 87.6113667,26.3719313 87.7705,26.505398 C87.9296333,26.6388647 88.0425667,26.8621647 88.1093,27.175298 C88.1760333,27.4884313 88.2094,27.9170647 88.2094,28.461198 L88.2094,28.461198 L88.2094,29.092598 C87.5523333,29.3903313 86.9953667,29.6598313 86.5385,29.901098 C86.0816333,30.1423647 85.7120333,30.3887647 85.4297,30.640298 C85.1473667,30.8918313 84.9420333,31.1767313 84.8137,31.494998 C84.6853667,31.8132647 84.6212,32.1982647 84.6212,32.649998 C84.6212,33.0093313 84.6956333,33.3404313 84.8445,33.643298 C84.9933667,33.9461647 85.2012667,34.1874313 85.4682,34.367098 C85.7351333,34.5467647 86.0482667,34.636598 86.4076,34.636598 C86.8798667,34.636598 87.2725667,34.497998 87.5857,34.220798 C87.8988333,33.943598 88.117,33.6253313 88.2402,33.265998 L88.24,33.267 Z M92.1056,34.497998 L92.1056,27.167598 C92.3417333,26.921198 92.5932667,26.720998 92.8602,26.566998 C93.1271333,26.412998 93.3889333,26.335998 93.6456,26.335998 C93.9330667,26.335998 94.1461,26.4309647 94.2847,26.620898 C94.4233,26.8108313 94.4926,27.136798 94.4926,27.598798 L94.4926,27.598798 L94.4926,34.497998 L95.6168,34.497998 L95.6168,27.352398 C95.6168,26.951998 95.5654667,26.6106313 95.4628,26.328298 C95.3601333,26.0459647 95.2061333,25.8303647 95.0008,25.681498 C94.7954667,25.5326313 94.5439333,25.458198 94.2462,25.458198 C93.8252667,25.458198 93.4351333,25.558298 93.0758,25.758498 C92.7164667,25.958698 92.3930667,26.212798 92.1056,26.520798 L92.1056,26.520798 L92.1056,25.596798 L90.9814,25.596798 L90.9814,34.497998 L92.1056,34.497998 Z M99.1742,33.681798 C98.9072667,33.681798 98.6711333,33.581698 98.4658,33.381498 C98.2604667,33.181298 98.1578,32.8450647 98.1578,32.372798 C98.1578,32.0750647 98.204,31.8158313 98.2964,31.595098 C98.3888,31.3743647 98.5325333,31.1767313 98.7276,31.002198 C98.9226667,30.8276647 99.1767667,30.647998 99.4899,30.463198 C99.8030333,30.278398 100.180333,30.0730647 100.6218,29.847198 L100.6218,29.847198 L100.6218,32.619198 C100.539667,32.7834647 100.426733,32.9451647 100.283,33.104298 C100.139267,33.2634313 99.975,33.3994647 99.7902,33.512398 C99.6054,33.6253313 99.4000667,33.681798 99.1742,33.681798 Z M100.652,33.267 L100.663188,33.3829417 C100.676663,33.5090292 100.6988,33.662548 100.7296,33.843498 C100.770667,34.0847647 100.801467,34.3029313 100.822,34.497998 L100.822,34.497998 L101.823,34.497998 C101.812733,34.3850647 101.802467,34.220798 101.7922,34.005198 C101.781933,33.789598 101.771667,33.5611647 101.7614,33.319898 C101.751133,33.0786313 101.746,32.880998 101.746,32.726998 L101.746,28.399598 C101.746,27.3934647 101.5843,26.651698 101.2609,26.174298 C100.9375,25.696898 100.3754,25.458198 99.5746,25.458198 C98.7224667,25.458198 98.1090333,25.6763647 97.7343,26.112698 C97.3595667,26.5490313 97.1670667,27.2189313 97.1568,28.122398 L97.1568,28.122398 L98.2656,28.137798 L98.2656,27.829798 C98.2656,27.4396647 98.3220667,27.1342313 98.435,26.913498 C98.5479333,26.6927647 98.6968,26.536198 98.8816,26.443798 C99.0664,26.351398 99.2768667,26.305198 99.513,26.305198 C99.8004667,26.305198 100.023767,26.3719313 100.1829,26.505398 C100.342033,26.6388647 100.454967,26.8621647 100.5217,27.175298 C100.588433,27.4884313 100.6218,27.9170647 100.6218,28.461198 L100.6218,28.461198 L100.6218,29.092598 C99.9647333,29.3903313 99.4077667,29.6598313 98.9509,29.901098 C98.4940333,30.1423647 98.1244333,30.3887647 97.8421,30.640298 C97.5597667,30.8918313 97.3544333,31.1767313 97.2261,31.494998 C97.0977667,31.8132647 97.0336,32.1982647 97.0336,32.649998 C97.0336,33.0093313 97.1080333,33.3404313 97.2569,33.643298 C97.4057667,33.9461647 97.6136667,34.1874313 97.8806,34.367098 C98.1475333,34.5467647 98.4606667,34.636598 98.82,34.636598 C99.2922667,34.636598 99.6849667,34.497998 99.9981,34.220798 C100.311233,33.943598 100.5294,33.6253313 100.6526,33.265998 L100.652,33.267 Z" id="DiseñoyParticipaciónCiudadana" fill="#000000" fill-rule="nonzero"></path>
                <g id="Group-9-Copy-14" fill="#A4A49B">
                    <path d="M20.8250502,22.9899281 C19.8078814,22.9899281 19.7914283,23.6847375 19.7914283,27.3290439 C19.7914283,30.9048565 19.875522,31.6680378 20.8250502,31.6680378 C21.7738471,31.6680378 21.8586721,30.9048565 21.8586721,27.3290439 C21.8586721,23.6847375 21.842219,22.9899281 20.8250502,22.9899281" id="Fill-1"></path>
                    <path d="M25.1764876,11.529997 C24.1531031,11.529997 24.1692972,12.7051158 24.1692972,14.4007628 C24.1692972,16.5323566 24.3208032,17.4219223 25.1764876,17.4219223 C25.9825688,17.4219223 26.1340759,16.5323566 26.1340759,14.4007628 C26.1340759,12.7051158 26.150147,11.529997 25.1764876,11.529997" id="Fill-3"></path>
                    <path d="M13.3565133,17.4218857 C14.2128071,17.4218857 14.3644333,16.53232 14.3644333,14.4007262 C14.3644333,12.7050793 14.3800196,11.5299605 13.3565133,11.5299605 C12.3833414,11.5299605 12.399777,12.7050793 12.399777,14.4007262 C12.399777,16.53232 12.5507977,17.4218857 13.3565133,17.4218857" id="Fill-5"></path>
                    <path d="M29.7539543,20.6913289 L35.1675201,20.6913289 L35.1675201,19.8553883 L29.7539543,19.8553883 L29.7539543,20.6913289 Z M28.5007136,18.7153695 L26.2502917,18.7153695 L26.2502917,17.7751038 L26.2181167,17.7751038 C25.7811948,18.596907 25.1266041,18.8829476 24.2196103,18.8829476 C21.7688259,18.8829476 21.8526759,16.1635506 21.8526759,14.4170818 C21.8526759,12.7051036 21.7858884,10.0690692 24.1693978,10.0690692 C25.025326,10.0690692 25.6131291,10.3211067 26.0998979,11.0433379 L26.1341448,11.0433379 L26.1341448,6.59368151 L28.5007136,6.59368151 L28.5007136,18.7153695 Z M20.8250258,33.3966763 C17.6383601,33.3966763 17.4009476,31.0070731 17.4009476,27.295248 C17.4009476,22.7691759 17.909532,21.2606071 20.8250258,21.2606071 C23.7405197,21.2606071 24.2491041,22.7691759 24.2491041,27.295248 C24.2491041,31.0070731 24.0116916,33.3966763 20.8250258,33.3966763 L20.8250258,33.3966763 Z M16.9144225,33.2440888 L9.89722539,33.2440888 L9.89722539,31.1595387 C13.6256255,26.1932542 14.4053818,25.6169073 14.4053818,24.1422197 C14.4053818,23.5488103 14.1852756,22.9898915 13.5076505,22.9898915 C12.524363,22.9898915 12.4732974,23.9222353 12.4732974,24.6846854 L10.0835723,24.6846854 C9.91392227,22.4813071 11.1510754,21.2606071 13.3380005,21.2606071 C15.3887912,21.2606071 16.7958382,22.091429 16.7958382,24.3121135 C16.7958382,26.9728886 13.6939974,29.9899043 12.4056567,31.4135262 L16.9144225,31.4135262 L16.9144225,33.2440888 Z M10.0326285,6.59368151 L12.3998067,6.59368151 L12.3998067,11.0433379 L12.4338099,11.0433379 C12.9205786,10.3211067 13.5083818,10.0690692 14.3643099,10.0690692 C16.7479413,10.0690692 16.6810319,12.7051036 16.6810319,14.4170818 C16.6810319,16.1635506 16.7645163,18.8829476 14.3140974,18.8829476 C13.4071037,18.8829476 12.7521474,18.596907 12.3162005,17.7751038 L12.2821974,17.7751038 L12.2821974,18.7153695 L10.0326285,18.7153695 L10.0326285,6.59368151 Z M18.091857,18.7153695 L20.4586696,18.7153695 L20.4586696,10.2371348 L18.091857,10.2371348 L18.091857,18.7153695 Z M18.091857,8.45739409 L20.4586696,8.45739409 L20.4586696,6.59368151 L18.091857,6.59368151 L18.091857,8.45739409 Z M19.3699601,0.0164531257 C8.67152847,0.0164531257 0,8.68920035 0,19.3848289 C0,30.0841137 8.67152847,38.7562515 19.3699601,38.7562515 C30.0670512,38.7562515 38.7400422,30.0841137 38.7400422,19.3848289 C38.7400422,8.68920035 30.0670512,0.0164531257 19.3699601,0.0164531257 L19.3699601,0.0164531257 Z" id="Fill-7"></path>
                </g>
            </g>
            <line x1="47.55" y1="0.5" x2="222.340882" y2="0.5" id="Path-5-Copy-28" stroke="#000000" stroke-width="0.5"></line>
        </g>
    </g>
</svg>