<?xml version="1.0" encoding="UTF-8"?>
<svg width="223px" height="41px" viewBox="0 0 223 41" version="1.1" xmlns="http://www.w3.org/2000/svg" xmlns:xlink="http://www.w3.org/1999/xlink">
    <title>para_todaslaspersonas</title>
    <g id="Page-1" stroke="none" stroke-width="1" fill="none" fill-rule="evenodd">
        <g id="para_todaslaspersonas">
            <g id="personas" transform="translate(0.000000, 2.000000)">
                <path d="M51.9116,18.248999 C52.7432,18.248999 53.3951333,18.0898657 53.8674,17.771599 C54.3396667,17.4533323 54.6784667,17.0041657 54.8838,16.424099 C55.0891333,15.8440323 55.1918,15.168999 55.1918,14.398999 L55.1918,14.398999 L55.1918,9.440199 C55.1918,8.71126567 55.0891333,8.069599 54.8838,7.515199 C54.6784667,6.960799 54.3319667,6.53216567 53.8443,6.229299 C53.3566333,5.92643233 52.6764667,5.774999 51.8038,5.774999 L51.8038,5.774999 L49.0934,5.774999 L49.0934,18.248999 L51.9116,18.248999 Z M51.8346,17.371199 L50.2638,17.371199 L50.2638,6.683599 L51.7884,6.683599 C52.4146667,6.683599 52.8843667,6.79396567 53.1975,7.014699 C53.5106333,7.23543233 53.7211,7.55883233 53.8289,7.984899 C53.9367,8.41096567 53.9906,8.93713233 53.9906,9.563399 L53.9906,9.563399 L53.9906,14.214199 C53.9906,14.8199323 53.9495333,15.361499 53.8674,15.838899 C53.7852667,16.316299 53.5902,16.6910323 53.2822,16.963099 C52.9742,17.2351657 52.4916667,17.371199 51.8346,17.371199 L51.8346,17.371199 Z M58.1332,8.115799 L58.1332,6.591199 L57.009,6.591199 L57.009,8.115799 L58.1332,8.115799 Z M58.1332,18.248999 L58.1332,9.347799 L57.009,9.347799 L57.009,18.248999 L58.1332,18.248999 Z M62.0602,18.387599 C62.5222,18.387599 62.9226,18.302899 63.2614,18.133499 C63.6002,17.964099 63.8645667,17.7228323 64.0545,17.409699 C64.2444333,17.0965657 64.3394,16.708999 64.3394,16.246999 C64.3394,15.8363323 64.2675333,15.4795657 64.1238,15.176699 C63.9800667,14.8738323 63.7952667,14.599199 63.5694,14.352799 C63.3435333,14.106399 63.1074,13.875399 62.861,13.659799 L62.861,13.659799 L61.5982,12.535599 C61.321,12.2789323 61.1310667,12.0479323 61.0284,11.842599 C60.9257333,11.6372657 60.8744,11.4011323 60.8744,11.134199 C60.8744,10.795399 60.9796333,10.5310323 61.1901,10.341099 C61.4005667,10.1511657 61.6752,10.056199 62.014,10.056199 C62.2706667,10.056199 62.4888333,10.117799 62.6685,10.240999 C62.8481667,10.364199 62.9893333,10.556699 63.092,10.818499 C63.1946667,11.080299 63.2562667,11.411399 63.2768,11.811799 L63.2768,11.811799 L64.0776,11.549999 C64.0468,10.8621323 63.8568667,10.3000323 63.5078,9.863699 C63.1587333,9.42736567 62.6454,9.209199 61.9678,9.209199 C61.5468667,9.209199 61.1772667,9.28876567 60.859,9.447899 C60.5407333,9.60703233 60.2917667,9.832899 60.1121,10.125499 C59.9324333,10.418099 59.8426,10.779999 59.8426,11.211199 C59.8426,11.6834657 59.9452667,12.088999 60.1506,12.427799 C60.3559333,12.766599 60.6588,13.105399 61.0592,13.444199 L61.0592,13.444199 L62.2758,14.491399 C62.6454,14.8096657 62.9174667,15.115099 63.092,15.407699 C63.2665333,15.700299 63.3538,15.9903323 63.3538,16.277799 C63.3538,16.678199 63.2485667,16.9887657 63.0381,17.209499 C62.8276333,17.4302323 62.5273333,17.540599 62.1372,17.540599 C61.6752,17.540599 61.3158667,17.3840323 61.0592,17.070899 C60.8025333,16.7577657 60.6434,16.2572657 60.5818,15.569399 L60.5818,15.569399 L59.6424,15.861999 C59.704,16.631999 59.9452667,17.2454323 60.3662,17.702299 C60.7871333,18.1591657 61.3518,18.387599 62.0602,18.387599 Z M67.8506,18.387599 C68.7232667,18.387599 69.3264333,18.1437657 69.6601,17.656099 C69.9937667,17.1684323 70.1606,16.5190657 70.1606,15.707999 L70.1606,15.707999 L70.1606,15.215199 L69.0672,15.215199 L69.0672,15.831199 C69.0672,16.293199 69.0133,16.6499657 68.9055,16.901499 C68.7977,17.1530323 68.6514,17.3224323 68.4666,17.409699 C68.2818,17.4969657 68.0764667,17.540599 67.8506,17.540599 C67.5528667,17.540599 67.3090333,17.4687323 67.1191,17.324999 C66.9291667,17.1812657 66.7905667,16.9425657 66.7033,16.608899 C66.6160333,16.2752323 66.5724,15.8209323 66.5724,15.245999 L66.5724,15.245999 L66.5724,13.690599 L70.176,13.690599 L70.176,12.889799 C70.176,12.0479323 70.1118333,11.357499 69.9835,10.818499 C69.8551667,10.279499 69.6267333,9.87653233 69.2982,9.609599 C68.9696667,9.34266567 68.4922667,9.209199 67.866,9.209199 C67.3218667,9.209199 66.8701333,9.31443233 66.5108,9.524899 C66.1514667,9.73536567 65.8845333,10.0895657 65.71,10.587499 C65.5354667,11.0854323 65.4482,11.7758657 65.4482,12.658799 L65.4482,12.658799 L65.4482,14.907199 C65.4482,15.7593323 65.5329,16.4420657 65.7023,16.955399 C65.8717,17.4687323 66.1335,17.8357657 66.4877,18.056499 C66.8419,18.2772323 67.2962,18.387599 67.8506,18.387599 Z M69.0672,13.043799 L66.5724,13.043799 L66.5724,12.443199 C66.5724,11.8066657 66.6134667,11.3164323 66.6956,10.972499 C66.7777333,10.6285657 66.9137667,10.3898657 67.1037,10.256399 C67.2936333,10.1229323 67.5426,10.056199 67.8506,10.056199 C68.2202,10.056199 68.4897,10.1460323 68.6591,10.325699 C68.8285,10.5053657 68.9388667,10.7620323 68.9902,11.095699 C69.0415333,11.4293657 69.0672,11.8323323 69.0672,12.304599 L69.0672,12.304599 L69.0672,13.043799 Z M74.9346,7.592199 C75.2426,7.592199 75.4736,7.51263233 75.6276,7.353499 C75.7816,7.19436567 75.8817,7.00443233 75.9279,6.783699 C75.9741,6.56296567 75.9972,6.360199 75.9972,6.175399 L75.9972,6.175399 L75.3196,6.175399 C75.3196,6.421799 75.2785333,6.59376567 75.1964,6.691299 C75.1142667,6.78883233 74.9859333,6.837599 74.8114,6.837599 C74.6266,6.837599 74.4469333,6.775999 74.2724,6.652799 C74.0978667,6.529599 73.9130667,6.40896567 73.718,6.290899 C73.5229333,6.17283233 73.3022,6.113799 73.0558,6.113799 C72.7683333,6.113799 72.5476,6.190799 72.3936,6.344799 C72.2396,6.498799 72.1343667,6.68103233 72.0779,6.891499 C72.0214333,7.10196567 71.9932,7.29446567 71.9932,7.468999 L71.9932,7.468999 L72.6862,7.468999 C72.6862,7.26366567 72.7298333,7.10966567 72.8171,7.006999 C72.9043667,6.90433233 73.0301333,6.852999 73.1944,6.852999 C73.3792,6.852999 73.5563,6.914599 73.7257,7.037799 C73.8951,7.160999 74.0773333,7.284199 74.2724,7.407399 C74.4674667,7.530599 74.6882,7.592199 74.9346,7.592199 Z M72.8248,18.248999 L72.8248,10.918599 C73.0609333,10.672199 73.3124667,10.471999 73.5794,10.317999 C73.8463333,10.163999 74.1081333,10.086999 74.3648,10.086999 C74.6522667,10.086999 74.8653,10.1819657 75.0039,10.371899 C75.1425,10.5618323 75.2118,10.887799 75.2118,11.349799 L75.2118,11.349799 L75.2118,18.248999 L76.336,18.248999 L76.336,11.103399 C76.336,10.702999 76.2846667,10.3616323 76.182,10.079299 C76.0793333,9.79696567 75.9253333,9.58136567 75.72,9.432499 C75.5146667,9.28363233 75.2631333,9.209199 74.9654,9.209199 C74.5444667,9.209199 74.1543333,9.309299 73.795,9.509499 C73.4356667,9.709699 73.1122667,9.963799 72.8248,10.271799 L72.8248,10.271799 L72.8248,9.347799 L71.7006,9.347799 L71.7006,18.248999 L72.8248,18.248999 Z M80.2014,18.387599 C80.8276667,18.387599 81.3102,18.256699 81.649,17.994899 C81.9878,17.733099 82.2290667,17.3532323 82.3728,16.855299 C82.5165333,16.3573657 82.5884,15.7490657 82.5884,15.030399 L82.5884,15.030399 L82.5884,12.566399 C82.5884,11.8477323 82.5165333,11.2394323 82.3728,10.741499 C82.2290667,10.2435657 81.9878,9.863699 81.649,9.601899 C81.3102,9.340099 80.8276667,9.209199 80.2014,9.209199 C79.5956667,9.209199 79.1208333,9.340099 78.7769,9.601899 C78.4329667,9.863699 78.1891333,10.2435657 78.0454,10.741499 C77.9016667,11.2394323 77.8298,11.8477323 77.8298,12.566399 L77.8298,12.566399 L77.8298,15.030399 C77.8298,15.7490657 77.9016667,16.3573657 78.0454,16.855299 C78.1891333,17.3532323 78.4329667,17.733099 78.7769,17.994899 C79.1208333,18.256699 79.5956667,18.387599 80.2014,18.387599 Z M80.2014,17.540599 C79.8112667,17.540599 79.5289333,17.4379323 79.3544,17.232599 C79.1798667,17.0272657 79.0720667,16.7372323 79.031,16.362499 C78.9899333,15.9877657 78.9694,15.5642657 78.9694,15.091999 L78.9694,15.091999 L78.9694,12.504799 C78.9694,12.0222657 78.9899333,11.5987657 79.031,11.234299 C79.0720667,10.8698323 79.1798667,10.5823657 79.3544,10.371899 C79.5289333,10.1614323 79.8112667,10.056199 80.2014,10.056199 C80.5915333,10.056199 80.8764333,10.1614323 81.0561,10.371899 C81.2357667,10.5823657 81.3461333,10.8698323 81.3872,11.234299 C81.4282667,11.5987657 81.4488,12.0222657 81.4488,12.504799 L81.4488,12.504799 L81.4488,15.091999 C81.4488,15.5642657 81.4282667,15.9877657 81.3872,16.362499 C81.3461333,16.7372323 81.2357667,17.0272657 81.0561,17.232599 C80.8764333,17.4379323 80.5915333,17.540599 80.2014,17.540599 Z M88.4096,21.174999 L88.4096,17.540599 C88.5841333,17.7356657 88.8023,17.925599 89.0641,18.110399 C89.3259,18.295199 89.6364667,18.387599 89.9958,18.387599 C90.5502,18.387599 90.9839667,18.2310323 91.2971,17.917899 C91.6102333,17.6047657 91.8284,17.1684323 91.9516,16.608899 C92.0748,16.0493657 92.1364,15.3897323 92.1364,14.629999 L92.1364,14.629999 L92.1364,12.751199 C92.1364,12.3097323 92.1107333,11.8785323 92.0594,11.457599 C92.0080667,11.0366657 91.9105333,10.656799 91.7668,10.317999 C91.6230667,9.979199 91.4203,9.709699 91.1585,9.509499 C90.8967,9.309299 90.5502,9.209199 90.119,9.209199 C89.7186,9.209199 89.3798,9.29903233 89.1026,9.478699 C88.8254,9.65836567 88.5944,9.86113233 88.4096,10.086999 L88.4096,10.086999 L88.4096,9.347799 L87.2854,9.347799 L87.2854,21.174999 L88.4096,21.174999 Z M89.8264,17.494399 C89.5286667,17.494399 89.2591667,17.4302323 89.0179,17.301899 C88.7766333,17.1735657 88.5738667,17.0221323 88.4096,16.847599 L88.4096,16.847599 L88.4096,10.779999 C88.5636,10.625999 88.7612333,10.471999 89.0025,10.317999 C89.2437667,10.163999 89.5081333,10.086999 89.7956,10.086999 C90.1446667,10.086999 90.4064667,10.1896657 90.581,10.394999 C90.7555333,10.6003323 90.8710333,10.9006323 90.9275,11.295899 C90.9839667,11.6911657 91.0122,12.1762657 91.0122,12.751199 L91.0122,12.751199 L91.0122,14.660799 C91.0122,15.2665323 90.9839667,15.7824323 90.9275,16.208499 C90.8710333,16.6345657 90.7581,16.955399 90.5887,17.170999 C90.4193,17.386599 90.1652,17.494399 89.8264,17.494399 Z M95.6014,17.432799 C95.3344667,17.432799 95.0983333,17.332699 94.893,17.132499 C94.6876667,16.932299 94.585,16.5960657 94.585,16.123799 C94.585,15.8260657 94.6312,15.5668323 94.7236,15.346099 C94.816,15.1253657 94.9597333,14.9277323 95.1548,14.753199 C95.3498667,14.5786657 95.6039667,14.398999 95.9171,14.214199 C96.2302333,14.029399 96.6075333,13.8240657 97.049,13.598199 L97.049,13.598199 L97.049,16.370199 C96.9668667,16.5344657 96.8539333,16.6961657 96.7102,16.855299 C96.5664667,17.0144323 96.4022,17.1504657 96.2174,17.263399 C96.0326,17.3763323 95.8272667,17.432799 95.6014,17.432799 Z M97.079,17.018 L97.0903875,17.1339427 C97.1038625,17.2600302 97.126,17.413549 97.1568,17.594499 C97.1978667,17.8357657 97.2286667,18.0539323 97.2492,18.248999 L97.2492,18.248999 L98.2502,18.248999 C98.2450667,18.1925323 98.2399333,18.1232323 98.2348,18.041099 L98.2194,17.756199 C98.2091333,17.540599 98.1988667,17.3121657 98.1886,17.070899 C98.1783333,16.8296323 98.1732,16.631999 98.1732,16.477999 L98.1732,16.477999 L98.1732,12.150599 C98.1732,11.1444657 98.0115,10.402699 97.6881,9.925299 C97.3647,9.447899 96.8026,9.209199 96.0018,9.209199 C95.1496667,9.209199 94.5362333,9.42736567 94.1615,9.863699 C93.7867667,10.3000323 93.5942667,10.9699323 93.584,11.873399 L93.584,11.873399 L94.6928,11.888799 L94.6928,11.580799 C94.6928,11.1906657 94.7492667,10.8852323 94.8622,10.664499 C94.9751333,10.4437657 95.124,10.287199 95.3088,10.194799 C95.4936,10.102399 95.7040667,10.056199 95.9402,10.056199 C96.2276667,10.056199 96.4509667,10.1229323 96.6101,10.256399 C96.7692333,10.3898657 96.8821667,10.6131657 96.9489,10.926299 C97.0156333,11.2394323 97.049,11.6680657 97.049,12.212199 L97.049,12.212199 L97.049,12.843599 C96.3919333,13.1413323 95.8349667,13.4108323 95.3781,13.652099 C94.9212333,13.8933657 94.5516333,14.1397657 94.2693,14.391299 C93.9869667,14.6428323 93.7816333,14.9277323 93.6533,15.245999 C93.5249667,15.5642657 93.4608,15.9492657 93.4608,16.400999 C93.4608,16.7603323 93.5352333,17.0914323 93.6841,17.394299 C93.8329667,17.6971657 94.0408667,17.9384323 94.3078,18.118099 C94.5747333,18.2977657 94.8878667,18.387599 95.2472,18.387599 C95.7194667,18.387599 96.1121667,18.248999 96.4253,17.971799 C96.7384333,17.694599 96.9566,17.3763323 97.0798,17.016999 L97.079,17.018 Z M101.0376,18.248999 L101.0376,11.411399 C101.2532,11.0520657 101.502167,10.7902657 101.7845,10.625999 C102.066833,10.4617323 102.382533,10.379599 102.7316,10.379599 C102.824,10.379599 102.921533,10.387299 103.0242,10.402699 C103.126867,10.418099 103.214133,10.441199 103.286,10.471999 L103.286,10.471999 L103.286,9.270799 C103.244933,9.26053233 103.209,9.255399 103.1782,9.255399 L103.1782,9.255399 L103.0858,9.255399 C102.747,9.255399 102.3928,9.355499 102.0232,9.555699 C101.6536,9.755899 101.325067,10.0921323 101.0376,10.564399 L101.0376,10.564399 L101.0376,9.347799 L99.898,9.347799 L99.898,18.248999 L101.0376,18.248999 Z M106.2582,17.432799 C105.991267,17.432799 105.755133,17.332699 105.5498,17.132499 C105.344467,16.932299 105.2418,16.5960657 105.2418,16.123799 C105.2418,15.8260657 105.288,15.5668323 105.3804,15.346099 C105.4728,15.1253657 105.616533,14.9277323 105.8116,14.753199 C106.006667,14.5786657 106.260767,14.398999 106.5739,14.214199 C106.887033,14.029399 107.264333,13.8240657 107.7058,13.598199 L107.7058,13.598199 L107.7058,16.370199 C107.623667,16.5344657 107.510733,16.6961657 107.367,16.855299 C107.223267,17.0144323 107.059,17.1504657 106.8742,17.263399 C106.6894,17.3763323 106.484067,17.432799 106.2582,17.432799 Z M107.736,17.018 L107.747187,17.1339427 C107.760662,17.2600302 107.7828,17.413549 107.8136,17.594499 C107.854667,17.8357657 107.885467,18.0539323 107.906,18.248999 L107.906,18.248999 L108.907,18.248999 C108.896733,18.1360657 108.886467,17.971799 108.8762,17.756199 C108.865933,17.540599 108.855667,17.3121657 108.8454,17.070899 C108.835133,16.8296323 108.83,16.631999 108.83,16.477999 L108.83,12.150599 C108.83,11.1444657 108.6683,10.402699 108.3449,9.925299 C108.0215,9.447899 107.4594,9.209199 106.6586,9.209199 C105.806467,9.209199 105.193033,9.42736567 104.8183,9.863699 C104.443567,10.3000323 104.251067,10.9699323 104.2408,11.873399 L104.2408,11.873399 L105.3496,11.888799 L105.3496,11.580799 C105.3496,11.1906657 105.406067,10.8852323 105.519,10.664499 C105.631933,10.4437657 105.7808,10.287199 105.9656,10.194799 C106.1504,10.102399 106.360867,10.056199 106.597,10.056199 C106.884467,10.056199 107.107767,10.1229323 107.2669,10.256399 C107.426033,10.3898657 107.538967,10.6131657 107.6057,10.926299 C107.672433,11.2394323 107.7058,11.6680657 107.7058,12.212199 L107.7058,12.212199 L107.7058,12.843599 C107.048733,13.1413323 106.491767,13.4108323 106.0349,13.652099 C105.578033,13.8933657 105.208433,14.1397657 104.9261,14.391299 C104.643767,14.6428323 104.438433,14.9277323 104.3101,15.245999 C104.181767,15.5642657 104.1176,15.9492657 104.1176,16.400999 C104.1176,16.7603323 104.192033,17.0914323 104.3409,17.394299 C104.489767,17.6971657 104.697667,17.9384323 104.9646,18.118099 C105.231533,18.2977657 105.544667,18.387599 105.904,18.387599 C106.376267,18.387599 106.768967,18.248999 107.0821,17.971799 C107.395233,17.694599 107.6134,17.3763323 107.7366,17.016999 L107.736,17.018 Z M116.5608,18.248999 L116.5608,6.683599 L118.8554,6.683599 L118.8554,5.774999 L113.0342,5.774999 L113.0342,6.683599 L115.3904,6.683599 L115.3904,18.248999 L116.5608,18.248999 Z M122.0278,18.387599 C122.654067,18.387599 123.1366,18.256699 123.4754,17.994899 C123.8142,17.733099 124.055467,17.3532323 124.1992,16.855299 C124.342933,16.3573657 124.4148,15.7490657 124.4148,15.030399 L124.4148,15.030399 L124.4148,12.566399 C124.4148,11.8477323 124.342933,11.2394323 124.1992,10.741499 C124.055467,10.2435657 123.8142,9.863699 123.4754,9.601899 C123.1366,9.340099 122.654067,9.209199 122.0278,9.209199 C121.422067,9.209199 120.947233,9.340099 120.6033,9.601899 C120.259367,9.863699 120.015533,10.2435657 119.8718,10.741499 C119.728067,11.2394323 119.6562,11.8477323 119.6562,12.566399 L119.6562,12.566399 L119.6562,15.030399 C119.6562,15.7490657 119.728067,16.3573657 119.8718,16.855299 C120.015533,17.3532323 120.259367,17.733099 120.6033,17.994899 C120.947233,18.256699 121.422067,18.387599 122.0278,18.387599 Z M122.0278,17.540599 C121.637667,17.540599 121.355333,17.4379323 121.1808,17.232599 C121.006267,17.0272657 120.898467,16.7372323 120.8574,16.362499 C120.816333,15.9877657 120.7958,15.5642657 120.7958,15.091999 L120.7958,15.091999 L120.7958,12.504799 C120.7958,12.0222657 120.816333,11.5987657 120.8574,11.234299 C120.898467,10.8698323 121.006267,10.5823657 121.1808,10.371899 C121.355333,10.1614323 121.637667,10.056199 122.0278,10.056199 C122.417933,10.056199 122.702833,10.1614323 122.8825,10.371899 C123.062167,10.5823657 123.172533,10.8698323 123.2136,11.234299 C123.254667,11.5987657 123.2752,12.0222657 123.2752,12.504799 L123.2752,12.504799 L123.2752,15.091999 C123.2752,15.5642657 123.254667,15.9877657 123.2136,16.362499 C123.172533,16.7372323 123.062167,17.0272657 122.8825,17.232599 C122.702833,17.4379323 122.417933,17.540599 122.0278,17.540599 Z M127.9414,18.387599 C128.2802,18.387599 128.575367,18.3080323 128.8269,18.148899 C129.078433,17.9897657 129.291467,17.8126657 129.466,17.617599 L129.466,17.617599 L129.466,18.248999 L130.5902,18.248999 L130.5902,5.774999 L129.466,5.774999 L129.466,9.979199 C129.291467,9.78413233 129.0733,9.60703233 128.8115,9.447899 C128.5497,9.28876567 128.244267,9.209199 127.8952,9.209199 C127.330533,9.209199 126.896767,9.36576567 126.5939,9.678899 C126.291033,9.99203233 126.083133,10.4309323 125.9702,10.995599 C125.857267,11.5602657 125.8008,12.2327323 125.8008,13.012999 L125.8008,13.012999 L125.8008,14.660799 C125.8008,15.9954657 125.967633,16.9502657 126.3013,17.525199 C126.634967,18.1001323 127.181667,18.387599 127.9414,18.387599 Z M128.1724,17.494399 C127.8336,17.494399 127.574367,17.3917323 127.3947,17.186399 C127.215033,16.9810657 127.091833,16.6730657 127.0251,16.262399 C126.958367,15.8517323 126.925,15.3486657 126.925,14.753199 L126.925,14.753199 L126.925,12.643399 C126.925,11.811799 127.004567,11.1778323 127.1637,10.741499 C127.322833,10.3051657 127.6488,10.086999 128.1416,10.086999 C128.4188,10.086999 128.670333,10.156299 128.8962,10.294899 C129.122067,10.433499 129.312,10.5746657 129.466,10.718399 L129.466,10.718399 L129.466,16.909199 C129.291467,17.0734657 129.093833,17.2120657 128.8731,17.324999 C128.652367,17.4379323 128.4188,17.494399 128.1724,17.494399 Z M134.2246,17.432799 C133.957667,17.432799 133.721533,17.332699 133.5162,17.132499 C133.310867,16.932299 133.2082,16.5960657 133.2082,16.123799 C133.2082,15.8260657 133.2544,15.5668323 133.3468,15.346099 C133.4392,15.1253657 133.582933,14.9277323 133.778,14.753199 C133.973067,14.5786657 134.227167,14.398999 134.5403,14.214199 C134.853433,14.029399 135.230733,13.8240657 135.6722,13.598199 L135.6722,13.598199 L135.6722,16.370199 C135.590067,16.5344657 135.477133,16.6961657 135.3334,16.855299 C135.189667,17.0144323 135.0254,17.1504657 134.8406,17.263399 C134.6558,17.3763323 134.450467,17.432799 134.2246,17.432799 Z M135.702,17.018 L135.713587,17.1339427 C135.727062,17.2600302 135.7492,17.413549 135.78,17.594499 C135.821067,17.8357657 135.851867,18.0539323 135.8724,18.248999 L135.8724,18.248999 L136.8734,18.248999 C136.868267,18.1925323 136.863133,18.1232323 136.858,18.041099 L136.8426,17.756199 C136.832333,17.540599 136.822067,17.3121657 136.8118,17.070899 C136.801533,16.8296323 136.7964,16.631999 136.7964,16.477999 L136.7964,16.477999 L136.7964,12.150599 C136.7964,11.1444657 136.6347,10.402699 136.3113,9.925299 C135.9879,9.447899 135.4258,9.209199 134.625,9.209199 C133.772867,9.209199 133.159433,9.42736567 132.7847,9.863699 C132.409967,10.3000323 132.217467,10.9699323 132.2072,11.873399 L132.2072,11.873399 L133.316,11.888799 L133.316,11.580799 C133.316,11.1906657 133.372467,10.8852323 133.4854,10.664499 C133.598333,10.4437657 133.7472,10.287199 133.932,10.194799 C134.1168,10.102399 134.327267,10.056199 134.5634,10.056199 C134.850867,10.056199 135.074167,10.1229323 135.2333,10.256399 C135.392433,10.3898657 135.505367,10.6131657 135.5721,10.926299 C135.638833,11.2394323 135.6722,11.6680657 135.6722,12.212199 L135.6722,12.212199 L135.6722,12.843599 C135.015133,13.1413323 134.458167,13.4108323 134.0013,13.652099 C133.544433,13.8933657 133.174833,14.1397657 132.8925,14.391299 C132.610167,14.6428323 132.404833,14.9277323 132.2765,15.245999 C132.148167,15.5642657 132.084,15.9492657 132.084,16.400999 C132.084,16.7603323 132.158433,17.0914323 132.3073,17.394299 C132.456167,17.6971657 132.664067,17.9384323 132.931,18.118099 C133.197933,18.2977657 133.511067,18.387599 133.8704,18.387599 C134.342667,18.387599 134.735367,18.248999 135.0485,17.971799 C135.361633,17.694599 135.5798,17.3763323 135.703,17.016999 L135.702,17.018 Z M140.477,18.387599 C140.939,18.387599 141.3394,18.302899 141.6782,18.133499 C142.017,17.964099 142.281367,17.7228323 142.4713,17.409699 C142.661233,17.0965657 142.7562,16.708999 142.7562,16.246999 C142.7562,15.8363323 142.684333,15.4795657 142.5406,15.176699 C142.396867,14.8738323 142.212067,14.599199 141.9862,14.352799 C141.760333,14.106399 141.5242,13.875399 141.2778,13.659799 L141.2778,13.659799 L140.015,12.535599 C139.7378,12.2789323 139.547867,12.0479323 139.4452,11.842599 C139.342533,11.6372657 139.2912,11.4011323 139.2912,11.134199 C139.2912,10.795399 139.396433,10.5310323 139.6069,10.341099 C139.817367,10.1511657 140.092,10.056199 140.4308,10.056199 C140.687467,10.056199 140.905633,10.117799 141.0853,10.240999 C141.264967,10.364199 141.406133,10.556699 141.5088,10.818499 C141.611467,11.080299 141.673067,11.411399 141.6936,11.811799 L141.6936,11.811799 L142.4944,11.549999 C142.4636,10.8621323 142.273667,10.3000323 141.9246,9.863699 C141.575533,9.42736567 141.0622,9.209199 140.3846,9.209199 C139.963667,9.209199 139.594067,9.28876567 139.2758,9.447899 C138.957533,9.60703233 138.708567,9.832899 138.5289,10.125499 C138.349233,10.418099 138.2594,10.779999 138.2594,11.211199 C138.2594,11.6834657 138.362067,12.088999 138.5674,12.427799 C138.772733,12.766599 139.0756,13.105399 139.476,13.444199 L139.476,13.444199 L140.6926,14.491399 C141.0622,14.8096657 141.334267,15.115099 141.5088,15.407699 C141.683333,15.700299 141.7706,15.9903323 141.7706,16.277799 C141.7706,16.678199 141.665367,16.9887657 141.4549,17.209499 C141.244433,17.4302323 140.944133,17.540599 140.554,17.540599 C140.092,17.540599 139.732667,17.3840323 139.476,17.070899 C139.219333,16.7577657 139.0602,16.2572657 138.9986,15.569399 L138.9986,15.569399 L138.0592,15.861999 C138.1208,16.631999 138.362067,17.2454323 138.783,17.702299 C139.203933,18.1591657 139.7686,18.387599 140.477,18.387599 Z M50.1406,34.497998 L50.1406,22.023998 L49.0164,22.023998 L49.0164,34.497998 L50.1406,34.497998 Z M53.8674,33.681798 C53.6004667,33.681798 53.3643333,33.581698 53.159,33.381498 C52.9536667,33.181298 52.851,32.8450647 52.851,32.372798 C52.851,32.0750647 52.8972,31.8158313 52.9896,31.595098 C53.082,31.3743647 53.2257333,31.1767313 53.4208,31.002198 C53.6158667,30.8276647 53.8699667,30.647998 54.1831,30.463198 C54.4962333,30.278398 54.8735333,30.0730647 55.315,29.847198 L55.315,29.847198 L55.315,32.619198 C55.2328667,32.7834647 55.1199333,32.9451647 54.9762,33.104298 C54.8324667,33.2634313 54.6682,33.3994647 54.4834,33.512398 C54.2986,33.6253313 54.0932667,33.681798 53.8674,33.681798 Z M55.345,33.267 L55.3563875,33.3829418 C55.3698625,33.5090293 55.392,33.662548 55.4228,33.843498 C55.4638667,34.0847647 55.4946667,34.3029313 55.5152,34.497998 L55.5152,34.497998 L56.5162,34.497998 C56.5110667,34.4415313 56.5059333,34.3722313 56.5008,34.290098 L56.4854,34.005198 C56.4751333,33.789598 56.4648667,33.5611647 56.4546,33.319898 C56.4443333,33.0786313 56.4392,32.880998 56.4392,32.726998 L56.4392,32.726998 L56.4392,28.399598 C56.4392,27.3934647 56.2775,26.651698 55.9541,26.174298 C55.6307,25.696898 55.0686,25.458198 54.2678,25.458198 C53.4156667,25.458198 52.8022333,25.6763647 52.4275,26.112698 C52.0527667,26.5490313 51.8602667,27.2189313 51.85,28.122398 L51.85,28.122398 L52.9588,28.137798 L52.9588,27.829798 C52.9588,27.4396647 53.0152667,27.1342313 53.1282,26.913498 C53.2411333,26.6927647 53.39,26.536198 53.5748,26.443798 C53.7596,26.351398 53.9700667,26.305198 54.2062,26.305198 C54.4936667,26.305198 54.7169667,26.3719313 54.8761,26.505398 C55.0352333,26.6388647 55.1481667,26.8621647 55.2149,27.175298 C55.2816333,27.4884313 55.315,27.9170647 55.315,28.461198 L55.315,28.461198 L55.315,29.092598 C54.6579333,29.3903313 54.1009667,29.6598313 53.6441,29.901098 C53.1872333,30.1423647 52.8176333,30.3887647 52.5353,30.640298 C52.2529667,30.8918313 52.0476333,31.1767313 51.9193,31.494998 C51.7909667,31.8132647 51.7268,32.1982647 51.7268,32.649998 C51.7268,33.0093313 51.8012333,33.3404313 51.9501,33.643298 C52.0989667,33.9461647 52.3068667,34.1874313 52.5738,34.367098 C52.8407333,34.5467647 53.1538667,34.636598 53.5132,34.636598 C53.9854667,34.636598 54.3781667,34.497998 54.6913,34.220798 C55.0044333,33.943598 55.2226,33.6253313 55.3458,33.265998 L55.345,33.267 Z M60.1198,34.636598 C60.5818,34.636598 60.9822,34.551898 61.321,34.382498 C61.6598,34.213098 61.9241667,33.9718313 62.1141,33.658698 C62.3040333,33.3455647 62.399,32.957998 62.399,32.495998 C62.399,32.0853313 62.3271333,31.7285647 62.1834,31.425698 C62.0396667,31.1228313 61.8548667,30.848198 61.629,30.601798 C61.4031333,30.355398 61.167,30.124398 60.9206,29.908798 L60.9206,29.908798 L59.6578,28.784598 C59.3806,28.5279313 59.1906667,28.2969313 59.088,28.091598 C58.9853333,27.8862647 58.934,27.6501313 58.934,27.383198 C58.934,27.044398 59.0392333,26.7800313 59.2497,26.590098 C59.4601667,26.4001647 59.7348,26.305198 60.0736,26.305198 C60.3302667,26.305198 60.5484333,26.366798 60.7281,26.489998 C60.9077667,26.613198 61.0489333,26.805698 61.1516,27.067498 C61.2542667,27.329298 61.3158667,27.660398 61.3364,28.060798 L61.3364,28.060798 L62.1372,27.798998 C62.1064,27.1111313 61.9164667,26.5490313 61.5674,26.112698 C61.2183333,25.6763647 60.705,25.458198 60.0274,25.458198 C59.6064667,25.458198 59.2368667,25.5377647 58.9186,25.696898 C58.6003333,25.8560313 58.3513667,26.081898 58.1717,26.374498 C57.9920333,26.667098 57.9022,27.028998 57.9022,27.460198 C57.9022,27.9324647 58.0048667,28.337998 58.2102,28.676798 C58.4155333,29.015598 58.7184,29.354398 59.1188,29.693198 L59.1188,29.693198 L60.3354,30.740398 C60.705,31.0586647 60.9770667,31.364098 61.1516,31.656698 C61.3261333,31.949298 61.4134,32.2393313 61.4134,32.526798 C61.4134,32.927198 61.3081667,33.2377647 61.0977,33.458498 C60.8872333,33.6792313 60.5869333,33.789598 60.1968,33.789598 C59.7348,33.789598 59.3754667,33.6330313 59.1188,33.319898 C58.8621333,33.0067647 58.703,32.5062647 58.6414,31.818398 L58.6414,31.818398 L57.702,32.110998 C57.7636,32.880998 58.0048667,33.4944313 58.4258,33.951298 C58.8467333,34.4081647 59.4114,34.636598 60.1198,34.636598 Z M68.2202,34.497998 L68.2202,28.599798 L70.0528,28.599798 C70.7612,28.599798 71.3335667,28.4509313 71.7699,28.153198 C72.2062333,27.8554647 72.5193667,27.4576313 72.7093,26.959698 C72.8992333,26.4617647 72.9942,25.920198 72.9942,25.334998 C72.9942,24.6676647 72.9043667,24.087598 72.7247,23.594798 C72.5450333,23.101998 72.2396,22.716998 71.8084,22.439798 C71.3772,22.162598 70.7868667,22.023998 70.0374,22.023998 L70.0374,22.023998 L67.0498,22.023998 L67.0498,34.497998 L68.2202,34.497998 Z M69.714,27.721998 L68.2202,27.721998 L68.2202,22.901798 L69.7294,22.901798 C70.2838,22.901798 70.7124333,22.971098 71.0153,23.109698 C71.3181667,23.248298 71.5312,23.494698 71.6544,23.848898 C71.7776,24.203098 71.8392,24.6984647 71.8392,25.334998 C71.8392,25.9304647 71.7673333,26.4027313 71.6236,26.751798 C71.4798667,27.1008647 71.2514333,27.3498313 70.9383,27.498698 C70.6251667,27.6475647 70.2170667,27.721998 69.714,27.721998 L69.714,27.721998 Z M76.3822,34.636598 C77.2548667,34.636598 77.8580333,34.3927647 78.1917,33.905098 C78.5253667,33.4174313 78.6922,32.7680647 78.6922,31.956998 L78.6922,31.956998 L78.6922,31.464198 L77.5988,31.464198 L77.5988,32.080198 C77.5988,32.542198 77.5449,32.8989647 77.4371,33.150498 C77.3293,33.4020313 77.183,33.5714313 76.9982,33.658698 C76.8134,33.7459647 76.6080667,33.789598 76.3822,33.789598 C76.0844667,33.789598 75.8406333,33.7177313 75.6507,33.573998 C75.4607667,33.4302647 75.3221667,33.1915647 75.2349,32.857898 C75.1476333,32.5242313 75.104,32.0699313 75.104,31.494998 L75.104,31.494998 L75.104,29.939598 L78.7076,29.939598 L78.7076,29.138798 C78.7076,28.2969313 78.6434333,27.606498 78.5151,27.067498 C78.3867667,26.528498 78.1583333,26.1255313 77.8298,25.858598 C77.5012667,25.5916647 77.0238667,25.458198 76.3976,25.458198 C75.8534667,25.458198 75.4017333,25.5634313 75.0424,25.773898 C74.6830667,25.9843647 74.4161333,26.3385647 74.2416,26.836498 C74.0670667,27.3344313 73.9798,28.0248647 73.9798,28.907798 L73.9798,28.907798 L73.9798,31.156198 C73.9798,32.0083313 74.0645,32.6910647 74.2339,33.204398 C74.4033,33.7177313 74.6651,34.0847647 75.0193,34.305498 C75.3735,34.5262313 75.8278,34.636598 76.3822,34.636598 Z M77.5988,29.292798 L75.104,29.292798 L75.104,28.692198 C75.104,28.0556647 75.1450667,27.5654313 75.2272,27.221498 C75.3093333,26.8775647 75.4453667,26.6388647 75.6353,26.505398 C75.8252333,26.3719313 76.0742,26.305198 76.3822,26.305198 C76.7518,26.305198 77.0213,26.3950313 77.1907,26.574698 C77.3601,26.7543647 77.4704667,27.0110313 77.5218,27.344698 C77.5731333,27.6783647 77.5988,28.0813313 77.5988,28.553598 L77.5988,28.553598 L77.5988,29.292798 Z M81.4488,34.497998 L81.4488,27.660398 C81.6644,27.3010647 81.9133667,27.0392647 82.1957,26.874998 C82.4780333,26.7107313 82.7937333,26.628598 83.1428,26.628598 C83.2352,26.628598 83.3327333,26.636298 83.4354,26.651698 C83.5380667,26.667098 83.6253333,26.690198 83.6972,26.720998 L83.6972,26.720998 L83.6972,25.519798 C83.6561333,25.5095313 83.6202,25.504398 83.5894,25.504398 L83.5894,25.504398 L83.497,25.504398 C83.1582,25.504398 82.804,25.604498 82.4344,25.804698 C82.0648,26.004898 81.7362667,26.3411313 81.4488,26.813398 L81.4488,26.813398 L81.4488,25.596798 L80.3092,25.596798 L80.3092,34.497998 L81.4488,34.497998 Z M86.8388,34.636598 C87.3008,34.636598 87.7012,34.551898 88.04,34.382498 C88.3788,34.213098 88.6431667,33.9718313 88.8331,33.658698 C89.0230333,33.3455647 89.118,32.957998 89.118,32.495998 C89.118,32.0853313 89.0461333,31.7285647 88.9024,31.425698 C88.7586667,31.1228313 88.5738667,30.848198 88.348,30.601798 C88.1221333,30.355398 87.886,30.124398 87.6396,29.908798 L87.6396,29.908798 L86.3768,28.784598 C86.0996,28.5279313 85.9096667,28.2969313 85.807,28.091598 C85.7043333,27.8862647 85.653,27.6501313 85.653,27.383198 C85.653,27.044398 85.7582333,26.7800313 85.9687,26.590098 C86.1791667,26.4001647 86.4538,26.305198 86.7926,26.305198 C87.0492667,26.305198 87.2674333,26.366798 87.4471,26.489998 C87.6267667,26.613198 87.7679333,26.805698 87.8706,27.067498 C87.9732667,27.329298 88.0348667,27.660398 88.0554,28.060798 L88.0554,28.060798 L88.8562,27.798998 C88.8254,27.1111313 88.6354667,26.5490313 88.2864,26.112698 C87.9373333,25.6763647 87.424,25.458198 86.7464,25.458198 C86.3254667,25.458198 85.9558667,25.5377647 85.6376,25.696898 C85.3193333,25.8560313 85.0703667,26.081898 84.8907,26.374498 C84.7110333,26.667098 84.6212,27.028998 84.6212,27.460198 C84.6212,27.9324647 84.7238667,28.337998 84.9292,28.676798 C85.1345333,29.015598 85.4374,29.354398 85.8378,29.693198 L85.8378,29.693198 L87.0544,30.740398 C87.424,31.0586647 87.6960667,31.364098 87.8706,31.656698 C88.0451333,31.949298 88.1324,32.2393313 88.1324,32.526798 C88.1324,32.927198 88.0271667,33.2377647 87.8167,33.458498 C87.6062333,33.6792313 87.3059333,33.789598 86.9158,33.789598 C86.4538,33.789598 86.0944667,33.6330313 85.8378,33.319898 C85.5811333,33.0067647 85.422,32.5062647 85.3604,31.818398 L85.3604,31.818398 L84.421,32.110998 C84.4826,32.880998 84.7238667,33.4944313 85.1448,33.951298 C85.5657333,34.4081647 86.1304,34.636598 86.8388,34.636598 Z M92.5984,34.636598 C93.2246667,34.636598 93.7072,34.505698 94.046,34.243898 C94.3848,33.982098 94.6260667,33.6022313 94.7698,33.104298 C94.9135333,32.6063647 94.9854,31.9980647 94.9854,31.279398 L94.9854,31.279398 L94.9854,28.815398 C94.9854,28.0967313 94.9135333,27.4884313 94.7698,26.990498 C94.6260667,26.4925647 94.3848,26.112698 94.046,25.850898 C93.7072,25.589098 93.2246667,25.458198 92.5984,25.458198 C91.9926667,25.458198 91.5178333,25.589098 91.1739,25.850898 C90.8299667,26.112698 90.5861333,26.4925647 90.4424,26.990498 C90.2986667,27.4884313 90.2268,28.0967313 90.2268,28.815398 L90.2268,28.815398 L90.2268,31.279398 C90.2268,31.9980647 90.2986667,32.6063647 90.4424,33.104298 C90.5861333,33.6022313 90.8299667,33.982098 91.1739,34.243898 C91.5178333,34.505698 91.9926667,34.636598 92.5984,34.636598 Z M92.5984,33.789598 C92.2082667,33.789598 91.9259333,33.6869313 91.7514,33.481598 C91.5768667,33.2762647 91.4690667,32.9862313 91.428,32.611498 C91.3869333,32.2367647 91.3664,31.8132647 91.3664,31.340998 L91.3664,31.340998 L91.3664,28.753798 C91.3664,28.2712647 91.3869333,27.8477647 91.428,27.483298 C91.4690667,27.1188313 91.5768667,26.8313647 91.7514,26.620898 C91.9259333,26.4104313 92.2082667,26.305198 92.5984,26.305198 C92.9885333,26.305198 93.2734333,26.4104313 93.4531,26.620898 C93.6327667,26.8313647 93.7431333,27.1188313 93.7842,27.483298 C93.8252667,27.8477647 93.8458,28.2712647 93.8458,28.753798 L93.8458,28.753798 L93.8458,31.340998 C93.8458,31.8132647 93.8252667,32.2367647 93.7842,32.611498 C93.7431333,32.9862313 93.6327667,33.2762647 93.4531,33.481598 C93.2734333,33.6869313 92.9885333,33.789598 92.5984,33.789598 Z M97.665,34.497998 L97.665,27.167598 C97.9011333,26.921198 98.1526667,26.720998 98.4196,26.566998 C98.6865333,26.412998 98.9483333,26.335998 99.205,26.335998 C99.4924667,26.335998 99.7055,26.4309647 99.8441,26.620898 C99.9827,26.8108313 100.052,27.136798 100.052,27.598798 L100.052,27.598798 L100.052,34.497998 L101.1762,34.497998 L101.1762,27.352398 C101.1762,26.951998 101.124867,26.6106313 101.0222,26.328298 C100.919533,26.0459647 100.765533,25.8303647 100.5602,25.681498 C100.354867,25.5326313 100.103333,25.458198 99.8056,25.458198 C99.3846667,25.458198 98.9945333,25.558298 98.6352,25.758498 C98.2758667,25.958698 97.9524667,26.212798 97.665,26.520798 L97.665,26.520798 L97.665,25.596798 L96.5408,25.596798 L96.5408,34.497998 L97.665,34.497998 Z M104.7336,33.681798 C104.466667,33.681798 104.230533,33.581698 104.0252,33.381498 C103.819867,33.181298 103.7172,32.8450647 103.7172,32.372798 C103.7172,32.0750647 103.7634,31.8158313 103.8558,31.595098 C103.9482,31.3743647 104.091933,31.1767313 104.287,31.002198 C104.482067,30.8276647 104.736167,30.647998 105.0493,30.463198 C105.362433,30.278398 105.739733,30.0730647 106.1812,29.847198 L106.1812,29.847198 L106.1812,32.619198 C106.099067,32.7834647 105.986133,32.9451647 105.8424,33.104298 C105.698667,33.2634313 105.5344,33.3994647 105.3496,33.512398 C105.1648,33.6253313 104.959467,33.681798 104.7336,33.681798 Z M106.212,33.267 L106.222587,33.3829418 C106.236062,33.5090293 106.2582,33.662548 106.289,33.843498 C106.330067,34.0847647 106.360867,34.3029313 106.3814,34.497998 L106.3814,34.497998 L107.3824,34.497998 C107.372133,34.3850647 107.361867,34.220798 107.3516,34.005198 C107.341333,33.789598 107.331067,33.5611647 107.3208,33.319898 C107.310533,33.0786313 107.3054,32.880998 107.3054,32.726998 L107.3054,32.726998 L107.3054,28.399598 C107.3054,27.3934647 107.1437,26.651698 106.8203,26.174298 C106.4969,25.696898 105.9348,25.458198 105.134,25.458198 C104.281867,25.458198 103.668433,25.6763647 103.2937,26.112698 C102.918967,26.5490313 102.726467,27.2189313 102.7162,28.122398 L102.7162,28.122398 L103.825,28.137798 L103.825,27.829798 C103.825,27.4396647 103.881467,27.1342313 103.9944,26.913498 C104.107333,26.6927647 104.2562,26.536198 104.441,26.443798 C104.6258,26.351398 104.836267,26.305198 105.0724,26.305198 C105.359867,26.305198 105.583167,26.3719313 105.7423,26.505398 C105.901433,26.6388647 106.014367,26.8621647 106.0811,27.175298 C106.147833,27.4884313 106.1812,27.9170647 106.1812,28.461198 L106.1812,28.461198 L106.1812,29.092598 C105.524133,29.3903313 104.967167,29.6598313 104.5103,29.901098 C104.053433,30.1423647 103.683833,30.3887647 103.4015,30.640298 C103.119167,30.8918313 102.913833,31.1767313 102.7855,31.494998 C102.657167,31.8132647 102.593,32.1982647 102.593,32.649998 C102.593,33.0093313 102.667433,33.3404313 102.8163,33.643298 C102.965167,33.9461647 103.173067,34.1874313 103.44,34.367098 C103.706933,34.5467647 104.020067,34.636598 104.3794,34.636598 C104.851667,34.636598 105.244367,34.497998 105.5575,34.220798 C105.870633,33.943598 106.0888,33.6253313 106.212,33.265998 L106.212,33.267 Z M110.986,34.636598 C111.448,34.636598 111.8484,34.551898 112.1872,34.382498 C112.526,34.213098 112.790367,33.9718313 112.9803,33.658698 C113.170233,33.3455647 113.2652,32.957998 113.2652,32.495998 C113.2652,32.0853313 113.193333,31.7285647 113.0496,31.425698 C112.905867,31.1228313 112.721067,30.848198 112.4952,30.601798 C112.269333,30.355398 112.0332,30.124398 111.7868,29.908798 L111.7868,29.908798 L110.524,28.784598 C110.2468,28.5279313 110.056867,28.2969313 109.9542,28.091598 C109.851533,27.8862647 109.8002,27.6501313 109.8002,27.383198 C109.8002,27.044398 109.905433,26.7800313 110.1159,26.590098 C110.326367,26.4001647 110.601,26.305198 110.9398,26.305198 C111.196467,26.305198 111.414633,26.366798 111.5943,26.489998 C111.773967,26.613198 111.915133,26.805698 112.0178,27.067498 C112.120467,27.329298 112.182067,27.660398 112.2026,28.060798 L112.2026,28.060798 L113.0034,27.798998 C112.9726,27.1111313 112.782667,26.5490313 112.4336,26.112698 C112.084533,25.6763647 111.5712,25.458198 110.8936,25.458198 C110.472667,25.458198 110.103067,25.5377647 109.7848,25.696898 C109.466533,25.8560313 109.217567,26.081898 109.0379,26.374498 C108.858233,26.667098 108.7684,27.028998 108.7684,27.460198 C108.7684,27.9324647 108.871067,28.337998 109.0764,28.676798 C109.281733,29.015598 109.5846,29.354398 109.985,29.693198 L109.985,29.693198 L111.2016,30.740398 C111.5712,31.0586647 111.843267,31.364098 112.0178,31.656698 C112.192333,31.949298 112.2796,32.2393313 112.2796,32.526798 C112.2796,32.927198 112.174367,33.2377647 111.9639,33.458498 C111.753433,33.6792313 111.453133,33.789598 111.063,33.789598 C110.601,33.789598 110.241667,33.6330313 109.985,33.319898 C109.728333,33.0067647 109.5692,32.5062647 109.5076,31.818398 L109.5076,31.818398 L108.5682,32.110998 C108.6298,32.880998 108.871067,33.4944313 109.292,33.951298 C109.712933,34.4081647 110.2776,34.636598 110.986,34.636598 Z" id="DiseñoparaTodaslasPersonas" fill="#000000" fill-rule="nonzero"></path>
                <g id="Group-9-Copy-13" fill="#A4A49B">
                    <path d="M20.8250502,22.9899281 C19.8078814,22.9899281 19.7914283,23.6847375 19.7914283,27.3290439 C19.7914283,30.9048565 19.875522,31.6680378 20.8250502,31.6680378 C21.7738471,31.6680378 21.8586721,30.9048565 21.8586721,27.3290439 C21.8586721,23.6847375 21.842219,22.9899281 20.8250502,22.9899281" id="Fill-1"></path>
                    <path d="M25.1764876,11.529997 C24.1531031,11.529997 24.1692972,12.7051158 24.1692972,14.4007628 C24.1692972,16.5323566 24.3208032,17.4219223 25.1764876,17.4219223 C25.9825688,17.4219223 26.1340759,16.5323566 26.1340759,14.4007628 C26.1340759,12.7051158 26.150147,11.529997 25.1764876,11.529997" id="Fill-3"></path>
                    <path d="M13.3565133,17.4218857 C14.2128071,17.4218857 14.3644333,16.53232 14.3644333,14.4007262 C14.3644333,12.7050793 14.3800196,11.5299605 13.3565133,11.5299605 C12.3833414,11.5299605 12.399777,12.7050793 12.399777,14.4007262 C12.399777,16.53232 12.5507977,17.4218857 13.3565133,17.4218857" id="Fill-5"></path>
                    <path d="M29.7539543,20.6913289 L35.1675201,20.6913289 L35.1675201,19.8553883 L29.7539543,19.8553883 L29.7539543,20.6913289 Z M28.5007136,18.7153695 L26.2502917,18.7153695 L26.2502917,17.7751038 L26.2181167,17.7751038 C25.7811948,18.596907 25.1266041,18.8829476 24.2196103,18.8829476 C21.7688259,18.8829476 21.8526759,16.1635506 21.8526759,14.4170818 C21.8526759,12.7051036 21.7858884,10.0690692 24.1693978,10.0690692 C25.025326,10.0690692 25.6131291,10.3211067 26.0998979,11.0433379 L26.1341448,11.0433379 L26.1341448,6.59368151 L28.5007136,6.59368151 L28.5007136,18.7153695 Z M20.8250258,33.3966763 C17.6383601,33.3966763 17.4009476,31.0070731 17.4009476,27.295248 C17.4009476,22.7691759 17.909532,21.2606071 20.8250258,21.2606071 C23.7405197,21.2606071 24.2491041,22.7691759 24.2491041,27.295248 C24.2491041,31.0070731 24.0116916,33.3966763 20.8250258,33.3966763 L20.8250258,33.3966763 Z M16.9144225,33.2440888 L9.89722539,33.2440888 L9.89722539,31.1595387 C13.6256255,26.1932542 14.4053818,25.6169073 14.4053818,24.1422197 C14.4053818,23.5488103 14.1852756,22.9898915 13.5076505,22.9898915 C12.524363,22.9898915 12.4732974,23.9222353 12.4732974,24.6846854 L10.0835723,24.6846854 C9.91392227,22.4813071 11.1510754,21.2606071 13.3380005,21.2606071 C15.3887912,21.2606071 16.7958382,22.091429 16.7958382,24.3121135 C16.7958382,26.9728886 13.6939974,29.9899043 12.4056567,31.4135262 L16.9144225,31.4135262 L16.9144225,33.2440888 Z M10.0326285,6.59368151 L12.3998067,6.59368151 L12.3998067,11.0433379 L12.4338099,11.0433379 C12.9205786,10.3211067 13.5083818,10.0690692 14.3643099,10.0690692 C16.7479413,10.0690692 16.6810319,12.7051036 16.6810319,14.4170818 C16.6810319,16.1635506 16.7645163,18.8829476 14.3140974,18.8829476 C13.4071037,18.8829476 12.7521474,18.596907 12.3162005,17.7751038 L12.2821974,17.7751038 L12.2821974,18.7153695 L10.0326285,18.7153695 L10.0326285,6.59368151 Z M18.091857,18.7153695 L20.4586696,18.7153695 L20.4586696,10.2371348 L18.091857,10.2371348 L18.091857,18.7153695 Z M18.091857,8.45739409 L20.4586696,8.45739409 L20.4586696,6.59368151 L18.091857,6.59368151 L18.091857,8.45739409 Z M19.3699601,0.0164531257 C8.67152847,0.0164531257 0,8.68920035 0,19.3848289 C0,30.0841137 8.67152847,38.7562515 19.3699601,38.7562515 C30.0670512,38.7562515 38.7400422,30.0841137 38.7400422,19.3848289 C38.7400422,8.68920035 30.0670512,0.0164531257 19.3699601,0.0164531257 L19.3699601,0.0164531257 Z" id="Fill-7"></path>
                </g>
            </g>
            <line x1="47.55" y1="0.5" x2="222.340882" y2="0.5" id="Path-5-Copy-21" stroke="#000000" stroke-width="0.5"></line>
        </g>
    </g>
</svg>