<?xml version="1.0" encoding="UTF-8"?>
<svg width="223px" height="41px" viewBox="0 0 223 41" version="1.1" xmlns="http://www.w3.org/2000/svg" xmlns:xlink="http://www.w3.org/1999/xlink">
    <title>producto</title>
    <g id="Page-1" stroke="none" stroke-width="1" fill="none" fill-rule="evenodd">
        <g id="producto">
            <g transform="translate(0.000000, 2.000000)">
                <path d="M51.9116,18.2489991 C52.7432,18.2489991 53.3951333,18.0898658 53.8674,17.7715991 C54.3396667,17.4533325 54.6784667,17.0041658 54.8838,16.4240991 C55.0891333,15.8440325 55.1918,15.1689991 55.1918,14.3989991 L55.1918,14.3989991 L55.1918,9.44019912 C55.1918,8.71126579 55.0891333,8.06959912 54.8838,7.51519912 C54.6784667,6.96079912 54.3319667,6.53216579 53.8443,6.22929912 C53.3566333,5.92643245 52.6764667,5.77499912 51.8038,5.77499912 L51.8038,5.77499912 L49.0934,5.77499912 L49.0934,18.2489991 L51.9116,18.2489991 Z M51.8346,17.3711991 L50.2638,17.3711991 L50.2638,6.68359912 L51.7884,6.68359912 C52.4146667,6.68359912 52.8843667,6.79396579 53.1975,7.01469912 C53.5106333,7.23543245 53.7211,7.55883245 53.8289,7.98489912 C53.9367,8.41096579 53.9906,8.93713245 53.9906,9.56339912 L53.9906,9.56339912 L53.9906,14.2141991 C53.9906,14.8199325 53.9495333,15.3614991 53.8674,15.8388991 C53.7852667,16.3162991 53.5902,16.6910325 53.2822,16.9630991 C52.9742,17.2351658 52.4916667,17.3711991 51.8346,17.3711991 L51.8346,17.3711991 Z M58.1332,8.11579912 L58.1332,6.59119912 L57.009,6.59119912 L57.009,8.11579912 L58.1332,8.11579912 Z M58.1332,18.2489991 L58.1332,9.34779912 L57.009,9.34779912 L57.009,18.2489991 L58.1332,18.2489991 Z M62.0602,18.3875991 C62.5222,18.3875991 62.9226,18.3028991 63.2614,18.1334991 C63.6002,17.9640991 63.8645667,17.7228325 64.0545,17.4096991 C64.2444333,17.0965658 64.3394,16.7089991 64.3394,16.2469991 C64.3394,15.8363325 64.2675333,15.4795658 64.1238,15.1766991 C63.9800667,14.8738325 63.7952667,14.5991991 63.5694,14.3527991 C63.3435333,14.1063991 63.1074,13.8753991 62.861,13.6597991 L62.861,13.6597991 L61.5982,12.5355991 C61.321,12.2789325 61.1310667,12.0479325 61.0284,11.8425991 C60.9257333,11.6372658 60.8744,11.4011325 60.8744,11.1341991 C60.8744,10.7953991 60.9796333,10.5310325 61.1901,10.3410991 C61.4005667,10.1511658 61.6752,10.0561991 62.014,10.0561991 C62.2706667,10.0561991 62.4888333,10.1177991 62.6685,10.2409991 C62.8481667,10.3641991 62.9893333,10.5566991 63.092,10.8184991 C63.1946667,11.0802991 63.2562667,11.4113991 63.2768,11.8117991 L63.2768,11.8117991 L64.0776,11.5499991 C64.0468,10.8621325 63.8568667,10.3000325 63.5078,9.86369912 C63.1587333,9.42736579 62.6454,9.20919912 61.9678,9.20919912 C61.5468667,9.20919912 61.1772667,9.28876579 60.859,9.44789912 C60.5407333,9.60703245 60.2917667,9.83289912 60.1121,10.1254991 C59.9324333,10.4180991 59.8426,10.7799991 59.8426,11.2111991 C59.8426,11.6834658 59.9452667,12.0889991 60.1506,12.4277991 C60.3559333,12.7665991 60.6588,13.1053991 61.0592,13.4441991 L61.0592,13.4441991 L62.2758,14.4913991 C62.6454,14.8096658 62.9174667,15.1150991 63.092,15.4076991 C63.2665333,15.7002991 63.3538,15.9903325 63.3538,16.2777991 C63.3538,16.6781991 63.2485667,16.9887658 63.0381,17.2094991 C62.8276333,17.4302325 62.5273333,17.5405991 62.1372,17.5405991 C61.6752,17.5405991 61.3158667,17.3840325 61.0592,17.0708991 C60.8025333,16.7577658 60.6434,16.2572658 60.5818,15.5693991 L60.5818,15.5693991 L59.6424,15.8619991 C59.704,16.6319991 59.9452667,17.2454325 60.3662,17.7022991 C60.7871333,18.1591658 61.3518,18.3875991 62.0602,18.3875991 Z M67.8506,18.3875991 C68.7232667,18.3875991 69.3264333,18.1437658 69.6601,17.6560991 C69.9937667,17.1684325 70.1606,16.5190658 70.1606,15.7079991 L70.1606,15.7079991 L70.1606,15.2151991 L69.0672,15.2151991 L69.0672,15.8311991 C69.0672,16.2931991 69.0133,16.6499658 68.9055,16.9014991 C68.7977,17.1530325 68.6514,17.3224325 68.4666,17.4096991 C68.2818,17.4969658 68.0764667,17.5405991 67.8506,17.5405991 C67.5528667,17.5405991 67.3090333,17.4687325 67.1191,17.3249991 C66.9291667,17.1812658 66.7905667,16.9425658 66.7033,16.6088991 C66.6160333,16.2752325 66.5724,15.8209325 66.5724,15.2459991 L66.5724,15.2459991 L66.5724,13.6905991 L70.176,13.6905991 L70.176,12.8897991 C70.176,12.0479325 70.1118333,11.3574991 69.9835,10.8184991 C69.8551667,10.2794991 69.6267333,9.87653245 69.2982,9.60959912 C68.9696667,9.34266579 68.4922667,9.20919912 67.866,9.20919912 C67.3218667,9.20919912 66.8701333,9.31443245 66.5108,9.52489912 C66.1514667,9.73536579 65.8845333,10.0895658 65.71,10.5874991 C65.5354667,11.0854325 65.4482,11.7758658 65.4482,12.6587991 L65.4482,12.6587991 L65.4482,14.9071991 C65.4482,15.7593325 65.5329,16.4420658 65.7023,16.9553991 C65.8717,17.4687325 66.1335,17.8357658 66.4877,18.0564991 C66.8419,18.2772325 67.2962,18.3875991 67.8506,18.3875991 Z M69.0672,13.0437991 L66.5724,13.0437991 L66.5724,12.4431991 C66.5724,11.8066658 66.6134667,11.3164325 66.6956,10.9724991 C66.7777333,10.6285658 66.9137667,10.3898658 67.1037,10.2563991 C67.2936333,10.1229325 67.5426,10.0561991 67.8506,10.0561991 C68.2202,10.0561991 68.4897,10.1460325 68.6591,10.3256991 C68.8285,10.5053658 68.9388667,10.7620325 68.9902,11.0956991 C69.0415333,11.4293658 69.0672,11.8323325 69.0672,12.3045991 L69.0672,12.3045991 L69.0672,13.0437991 Z M74.9346,7.59219912 C75.2426,7.59219912 75.4736,7.51263245 75.6276,7.35349912 C75.7816,7.19436579 75.8817,7.00443245 75.9279,6.78369912 C75.9741,6.56296579 75.9972,6.36019912 75.9972,6.17539912 L75.9972,6.17539912 L75.3196,6.17539912 C75.3196,6.42179912 75.2785333,6.59376579 75.1964,6.69129912 C75.1142667,6.78883245 74.9859333,6.83759912 74.8114,6.83759912 C74.6266,6.83759912 74.4469333,6.77599912 74.2724,6.65279912 C74.0978667,6.52959912 73.9130667,6.40896579 73.718,6.29089912 C73.5229333,6.17283245 73.3022,6.11379912 73.0558,6.11379912 C72.7683333,6.11379912 72.5476,6.19079912 72.3936,6.34479912 C72.2396,6.49879912 72.1343667,6.68103245 72.0779,6.89149912 C72.0214333,7.10196579 71.9932,7.29446579 71.9932,7.46899912 L71.9932,7.46899912 L72.6862,7.46899912 C72.6862,7.26366579 72.7298333,7.10966579 72.8171,7.00699912 C72.9043667,6.90433245 73.0301333,6.85299912 73.1944,6.85299912 C73.3792,6.85299912 73.5563,6.91459912 73.7257,7.03779912 C73.8951,7.16099912 74.0773333,7.28419912 74.2724,7.40739912 C74.4674667,7.53059912 74.6882,7.59219912 74.9346,7.59219912 Z M72.8248,18.2489991 L72.8248,10.9185991 C73.0609333,10.6721991 73.3124667,10.4719991 73.5794,10.3179991 C73.8463333,10.1639991 74.1081333,10.0869991 74.3648,10.0869991 C74.6522667,10.0869991 74.8653,10.1819658 75.0039,10.3718991 C75.1425,10.5618325 75.2118,10.8877991 75.2118,11.3497991 L75.2118,11.3497991 L75.2118,18.2489991 L76.336,18.2489991 L76.336,11.1033991 C76.336,10.7029991 76.2846667,10.3616325 76.182,10.0792991 C76.0793333,9.79696579 75.9253333,9.58136579 75.72,9.43249912 C75.5146667,9.28363245 75.2631333,9.20919912 74.9654,9.20919912 C74.5444667,9.20919912 74.1543333,9.30929912 73.795,9.50949912 C73.4356667,9.70969912 73.1122667,9.96379912 72.8248,10.2717991 L72.8248,10.2717991 L72.8248,9.34779912 L71.7006,9.34779912 L71.7006,18.2489991 L72.8248,18.2489991 Z M80.2014,18.3875991 C80.8276667,18.3875991 81.3102,18.2566991 81.649,17.9948991 C81.9878,17.7330991 82.2290667,17.3532325 82.3728,16.8552991 C82.5165333,16.3573658 82.5884,15.7490658 82.5884,15.0303991 L82.5884,15.0303991 L82.5884,12.5663991 C82.5884,11.8477325 82.5165333,11.2394325 82.3728,10.7414991 C82.2290667,10.2435658 81.9878,9.86369912 81.649,9.60189912 C81.3102,9.34009912 80.8276667,9.20919912 80.2014,9.20919912 C79.5956667,9.20919912 79.1208333,9.34009912 78.7769,9.60189912 C78.4329667,9.86369912 78.1891333,10.2435658 78.0454,10.7414991 C77.9016667,11.2394325 77.8298,11.8477325 77.8298,12.5663991 L77.8298,12.5663991 L77.8298,15.0303991 C77.8298,15.7490658 77.9016667,16.3573658 78.0454,16.8552991 C78.1891333,17.3532325 78.4329667,17.7330991 78.7769,17.9948991 C79.1208333,18.2566991 79.5956667,18.3875991 80.2014,18.3875991 Z M80.2014,17.5405991 C79.8112667,17.5405991 79.5289333,17.4379325 79.3544,17.2325991 C79.1798667,17.0272658 79.0720667,16.7372325 79.031,16.3624991 C78.9899333,15.9877658 78.9694,15.5642658 78.9694,15.0919991 L78.9694,15.0919991 L78.9694,12.5047991 C78.9694,12.0222658 78.9899333,11.5987658 79.031,11.2342991 C79.0720667,10.8698325 79.1798667,10.5823658 79.3544,10.3718991 C79.5289333,10.1614325 79.8112667,10.0561991 80.2014,10.0561991 C80.5915333,10.0561991 80.8764333,10.1614325 81.0561,10.3718991 C81.2357667,10.5823658 81.3461333,10.8698325 81.3872,11.2342991 C81.4282667,11.5987658 81.4488,12.0222658 81.4488,12.5047991 L81.4488,12.5047991 L81.4488,15.0919991 C81.4488,15.5642658 81.4282667,15.9877658 81.3872,16.3624991 C81.3461333,16.7372325 81.2357667,17.0272658 81.0561,17.2325991 C80.8764333,17.4379325 80.5915333,17.5405991 80.2014,17.5405991 Z M89.2566,18.3875991 C89.5954,18.3875991 89.8905667,18.3080325 90.1421,18.1488991 C90.3936333,17.9897658 90.6066667,17.8126658 90.7812,17.6175991 L90.7812,17.6175991 L90.7812,18.2489991 L91.9054,18.2489991 L91.9054,5.77499912 L90.7812,5.77499912 L90.7812,9.97919912 C90.6066667,9.78413245 90.3885,9.60703245 90.1267,9.44789912 C89.8649,9.28876579 89.5594667,9.20919912 89.2104,9.20919912 C88.6457333,9.20919912 88.2119667,9.36576579 87.9091,9.67889912 C87.6062333,9.99203245 87.3983333,10.4309325 87.2854,10.9955991 C87.1724667,11.5602658 87.116,12.2327325 87.116,13.0129991 L87.116,13.0129991 L87.116,14.6607991 C87.116,15.9954658 87.2828333,16.9502658 87.6165,17.5251991 C87.9501667,18.1001325 88.4968667,18.3875991 89.2566,18.3875991 Z M89.4876,17.4943991 C89.1488,17.4943991 88.8895667,17.3917325 88.7099,17.1863991 C88.5302333,16.9810658 88.4070333,16.6730658 88.3403,16.2623991 C88.2735667,15.8517325 88.2402,15.3486658 88.2402,14.7531991 L88.2402,14.7531991 L88.2402,12.6433991 C88.2402,11.8117991 88.3197667,11.1778325 88.4789,10.7414991 C88.6380333,10.3051658 88.964,10.0869991 89.4568,10.0869991 C89.734,10.0869991 89.9855333,10.1562991 90.2114,10.2948991 C90.4372667,10.4334991 90.6272,10.5746658 90.7812,10.7183991 L90.7812,10.7183991 L90.7812,16.9091991 C90.6066667,17.0734658 90.4090333,17.2120658 90.1883,17.3249991 C89.9675667,17.4379325 89.734,17.4943991 89.4876,17.4943991 Z M95.8786,18.3875991 C96.7512667,18.3875991 97.3544333,18.1437658 97.6881,17.6560991 C98.0217667,17.1684325 98.1886,16.5190658 98.1886,15.7079991 L98.1886,15.7079991 L98.1886,15.2151991 L97.0952,15.2151991 L97.0952,15.8311991 C97.0952,16.2931991 97.0413,16.6499658 96.9335,16.9014991 C96.8257,17.1530325 96.6794,17.3224325 96.4946,17.4096991 C96.3098,17.4969658 96.1044667,17.5405991 95.8786,17.5405991 C95.5808667,17.5405991 95.3370333,17.4687325 95.1471,17.3249991 C94.9571667,17.1812658 94.8185667,16.9425658 94.7313,16.6088991 C94.6440333,16.2752325 94.6004,15.8209325 94.6004,15.2459991 L94.6004,15.2459991 L94.6004,13.6905991 L98.204,13.6905991 L98.204,12.8897991 C98.204,12.0479325 98.1398333,11.3574991 98.0115,10.8184991 C97.8831667,10.2794991 97.6547333,9.87653245 97.3262,9.60959912 C96.9976667,9.34266579 96.5202667,9.20919912 95.894,9.20919912 C95.3498667,9.20919912 94.8981333,9.31443245 94.5388,9.52489912 C94.1794667,9.73536579 93.9125333,10.0895658 93.738,10.5874991 C93.5634667,11.0854325 93.4762,11.7758658 93.4762,12.6587991 L93.4762,12.6587991 L93.4762,14.9071991 C93.4762,15.7593325 93.5609,16.4420658 93.7303,16.9553991 C93.8997,17.4687325 94.1615,17.8357658 94.5157,18.0564991 C94.8699,18.2772325 95.3242,18.3875991 95.8786,18.3875991 Z M97.0952,13.0437991 L94.6004,13.0437991 L94.6004,12.4431991 C94.6004,11.8066658 94.6414667,11.3164325 94.7236,10.9724991 C94.8057333,10.6285658 94.9417667,10.3898658 95.1317,10.2563991 C95.3216333,10.1229325 95.5706,10.0561991 95.8786,10.0561991 C96.2482,10.0561991 96.5177,10.1460325 96.6871,10.3256991 C96.8565,10.5053658 96.9668667,10.7620325 97.0182,11.0956991 C97.0695333,11.4293658 97.0952,11.8323325 97.0952,12.3045991 L97.0952,12.3045991 L97.0952,13.0437991 Z M103.9944,21.1749991 L103.9944,17.5405991 C104.168933,17.7356658 104.3871,17.9255991 104.6489,18.1103991 C104.9107,18.2951991 105.221267,18.3875991 105.5806,18.3875991 C106.135,18.3875991 106.568767,18.2310325 106.8819,17.9178991 C107.195033,17.6047658 107.4132,17.1684325 107.5364,16.6088991 C107.6596,16.0493658 107.7212,15.3897325 107.7212,14.6299991 L107.7212,14.6299991 L107.7212,12.7511991 C107.7212,12.3097325 107.695533,11.8785325 107.6442,11.4575991 C107.592867,11.0366658 107.495333,10.6567991 107.3516,10.3179991 C107.207867,9.97919912 107.0051,9.70969912 106.7433,9.50949912 C106.4815,9.30929912 106.135,9.20919912 105.7038,9.20919912 C105.3034,9.20919912 104.9646,9.29903245 104.6874,9.47869912 C104.4102,9.65836579 104.1792,9.86113245 103.9944,10.0869991 L103.9944,10.0869991 L103.9944,9.34779912 L102.8702,9.34779912 L102.8702,21.1749991 L103.9944,21.1749991 Z M105.4112,17.4943991 C105.113467,17.4943991 104.843967,17.4302325 104.6027,17.3018991 C104.361433,17.1735658 104.158667,17.0221325 103.9944,16.8475991 L103.9944,16.8475991 L103.9944,10.7799991 C104.1484,10.6259991 104.346033,10.4719991 104.5873,10.3179991 C104.828567,10.1639991 105.092933,10.0869991 105.3804,10.0869991 C105.729467,10.0869991 105.991267,10.1896658 106.1658,10.3949991 C106.340333,10.6003325 106.455833,10.9006325 106.5123,11.2958991 C106.568767,11.6911658 106.597,12.1762658 106.597,12.7511991 L106.597,12.7511991 L106.597,14.6607991 C106.597,15.2665325 106.568767,15.7824325 106.5123,16.2084991 C106.455833,16.6345658 106.3429,16.9553991 106.1735,17.1709991 C106.0041,17.3865991 105.75,17.4943991 105.4112,17.4943991 Z M110.5086,18.2489991 L110.5086,11.4113991 C110.7242,11.0520658 110.973167,10.7902658 111.2555,10.6259991 C111.537833,10.4617325 111.853533,10.3795991 112.2026,10.3795991 C112.295,10.3795991 112.392533,10.3872991 112.4952,10.4026991 C112.597867,10.4180991 112.685133,10.4411991 112.757,10.4719991 L112.757,10.4719991 L112.757,9.27079912 C112.715933,9.26053245 112.68,9.25539912 112.6492,9.25539912 L112.6492,9.25539912 L112.5568,9.25539912 C112.218,9.25539912 111.8638,9.35549912 111.4942,9.55569912 C111.1246,9.75589912 110.796067,10.0921325 110.5086,10.5643991 L110.5086,10.5643991 L110.5086,9.34779912 L109.369,9.34779912 L109.369,18.2489991 L110.5086,18.2489991 Z M116.0372,18.3875991 C116.663467,18.3875991 117.146,18.2566991 117.4848,17.9948991 C117.8236,17.7330991 118.064867,17.3532325 118.2086,16.8552991 C118.352333,16.3573658 118.4242,15.7490658 118.4242,15.0303991 L118.4242,15.0303991 L118.4242,12.5663991 C118.4242,11.8477325 118.352333,11.2394325 118.2086,10.7414991 C118.064867,10.2435658 117.8236,9.86369912 117.4848,9.60189912 C117.146,9.34009912 116.663467,9.20919912 116.0372,9.20919912 C115.431467,9.20919912 114.956633,9.34009912 114.6127,9.60189912 C114.268767,9.86369912 114.024933,10.2435658 113.8812,10.7414991 C113.737467,11.2394325 113.6656,11.8477325 113.6656,12.5663991 L113.6656,12.5663991 L113.6656,15.0303991 C113.6656,15.7490658 113.737467,16.3573658 113.8812,16.8552991 C114.024933,17.3532325 114.268767,17.7330991 114.6127,17.9948991 C114.956633,18.2566991 115.431467,18.3875991 116.0372,18.3875991 Z M116.0372,17.5405991 C115.647067,17.5405991 115.364733,17.4379325 115.1902,17.2325991 C115.015667,17.0272658 114.907867,16.7372325 114.8668,16.3624991 C114.825733,15.9877658 114.8052,15.5642658 114.8052,15.0919991 L114.8052,15.0919991 L114.8052,12.5047991 C114.8052,12.0222658 114.825733,11.5987658 114.8668,11.2342991 C114.907867,10.8698325 115.015667,10.5823658 115.1902,10.3718991 C115.364733,10.1614325 115.647067,10.0561991 116.0372,10.0561991 C116.427333,10.0561991 116.712233,10.1614325 116.8919,10.3718991 C117.071567,10.5823658 117.181933,10.8698325 117.223,11.2342991 C117.264067,11.5987658 117.2846,12.0222658 117.2846,12.5047991 L117.2846,12.5047991 L117.2846,15.0919991 C117.2846,15.5642658 117.264067,15.9877658 117.223,16.3624991 C117.181933,16.7372325 117.071567,17.0272658 116.8919,17.2325991 C116.712233,17.4379325 116.427333,17.5405991 116.0372,17.5405991 Z M121.9508,18.3875991 C122.2896,18.3875991 122.584767,18.3080325 122.8363,18.1488991 C123.087833,17.9897658 123.300867,17.8126658 123.4754,17.6175991 L123.4754,17.6175991 L123.4754,18.2489991 L124.5996,18.2489991 L124.5996,5.77499912 L123.4754,5.77499912 L123.4754,9.97919912 C123.300867,9.78413245 123.0827,9.60703245 122.8209,9.44789912 C122.5591,9.28876579 122.253667,9.20919912 121.9046,9.20919912 C121.339933,9.20919912 120.906167,9.36576579 120.6033,9.67889912 C120.300433,9.99203245 120.092533,10.4309325 119.9796,10.9955991 C119.866667,11.5602658 119.8102,12.2327325 119.8102,13.0129991 L119.8102,13.0129991 L119.8102,14.6607991 C119.8102,15.9954658 119.977033,16.9502658 120.3107,17.5251991 C120.644367,18.1001325 121.191067,18.3875991 121.9508,18.3875991 Z M122.1818,17.4943991 C121.843,17.4943991 121.583767,17.3917325 121.4041,17.1863991 C121.224433,16.9810658 121.101233,16.6730658 121.0345,16.2623991 C120.967767,15.8517325 120.9344,15.3486658 120.9344,14.7531991 L120.9344,14.7531991 L120.9344,12.6433991 C120.9344,11.8117991 121.013967,11.1778325 121.1731,10.7414991 C121.332233,10.3051658 121.6582,10.0869991 122.151,10.0869991 C122.4282,10.0869991 122.679733,10.1562991 122.9056,10.2948991 C123.131467,10.4334991 123.3214,10.5746658 123.4754,10.7183991 L123.4754,10.7183991 L123.4754,16.9091991 C123.300867,17.0734658 123.103233,17.2120658 122.8825,17.3249991 C122.661767,17.4379325 122.4282,17.4943991 122.1818,17.4943991 Z M127.6488,18.3875991 C128.069733,18.3875991 128.465,18.2823658 128.8346,18.0718991 C129.2042,17.8614325 129.532733,17.5919325 129.8202,17.2633991 L129.8202,17.2633991 L129.8202,18.2489991 L130.9444,18.2489991 L130.9444,9.34779912 L129.8202,9.34779912 L129.8202,16.6165991 C129.584067,16.8732658 129.329967,17.0837325 129.0579,17.2479991 C128.785833,17.4122658 128.516333,17.4943991 128.2494,17.4943991 C127.961933,17.4943991 127.7489,17.4019991 127.6103,17.2171991 C127.4717,17.0323991 127.4024,16.7089991 127.4024,16.2469991 L127.4024,16.2469991 L127.4024,9.34779912 L126.2628,9.34779912 L126.2628,16.4933991 C126.2628,16.8937991 126.3167,17.2325991 126.4245,17.5097991 C126.5323,17.7869991 126.688867,18.0025991 126.8942,18.1565991 C127.099533,18.3105991 127.351067,18.3875991 127.6488,18.3875991 Z M134.9022,18.3875991 C135.538733,18.3875991 136.021267,18.2566991 136.3498,17.9948991 C136.678333,17.7330991 136.8965,17.3737658 137.0043,16.9168991 C137.1121,16.4600325 137.166,15.9338658 137.166,15.3383991 L137.166,15.3383991 L137.166,14.9071991 L136.1188,14.9071991 L136.1188,15.3999991 C136.1188,15.8722658 136.093133,16.2675325 136.0418,16.5857991 C135.990467,16.9040658 135.877533,17.1427658 135.703,17.3018991 C135.528467,17.4610325 135.266667,17.5405991 134.9176,17.5405991 C134.414533,17.5405991 134.075733,17.3583658 133.9012,16.9938991 C133.726667,16.6294325 133.6394,16.0005991 133.6394,15.1073991 L133.6394,15.1073991 L133.6394,12.6125991 C133.6394,11.9863325 133.6702,11.4858325 133.7318,11.1110991 C133.7934,10.7363658 133.9166,10.4668658 134.1014,10.3025991 C134.2862,10.1383325 134.553133,10.0561991 134.9022,10.0561991 C135.199933,10.0561991 135.438633,10.1152325 135.6183,10.2332991 C135.797967,10.3513658 135.9263,10.5541325 136.0033,10.8415991 C136.0803,11.1290658 136.1188,11.5345991 136.1188,12.0581991 L136.1188,12.0581991 L136.1188,12.4893991 L137.166,12.4893991 L137.166,12.0581991 C137.166,11.4935325 137.109533,10.9955991 136.9966,10.5643991 C136.883667,10.1331991 136.662933,9.79953245 136.3344,9.56339912 C136.005867,9.32726579 135.528467,9.20919912 134.9022,9.20919912 C134.265667,9.20919912 133.775433,9.33753245 133.4315,9.59419912 C133.087567,9.85086579 132.848867,10.2435658 132.7154,10.7722991 C132.581933,11.3010325 132.5152,11.9760658 132.5152,12.7973991 L132.5152,12.7973991 L132.5152,14.8763991 C132.5152,15.5437325 132.5691,16.1417658 132.6769,16.6704991 C132.7847,17.1992325 133.008,17.6175991 133.3468,17.9255991 C133.6856,18.2335991 134.204067,18.3875991 134.9022,18.3875991 Z M140.785,18.3567991 C140.939,18.3567991 141.098133,18.3490991 141.2624,18.3336991 C141.426667,18.3182991 141.5858,18.2951991 141.7398,18.2643991 L141.7398,18.2643991 L141.7398,17.4019991 C141.637133,17.4225325 141.526767,17.4404991 141.4087,17.4558991 C141.290633,17.4712991 141.1854,17.4789991 141.093,17.4789991 C140.764467,17.4789991 140.551433,17.3891658 140.4539,17.2094991 C140.356367,17.0298325 140.3076,16.7243991 140.3076,16.2931991 L140.3076,16.2931991 L140.3076,10.0869991 L141.786,10.0869991 L141.786,9.34779912 L140.3076,9.34779912 L140.3076,6.59119912 L139.1834,6.59119912 L139.1834,9.34779912 L138.09,9.34779912 L138.09,10.0869991 L139.1834,10.0869991 L139.1834,16.4009991 C139.1834,16.7808658 139.227033,17.1170991 139.3143,17.4096991 C139.401567,17.7022991 139.5607,17.9332991 139.7917,18.1026991 C140.0227,18.2720991 140.3538,18.3567991 140.785,18.3567991 Z M145.1894,18.3875991 C145.815667,18.3875991 146.2982,18.2566991 146.637,17.9948991 C146.9758,17.7330991 147.217067,17.3532325 147.3608,16.8552991 C147.504533,16.3573658 147.5764,15.7490658 147.5764,15.0303991 L147.5764,15.0303991 L147.5764,12.5663991 C147.5764,11.8477325 147.504533,11.2394325 147.3608,10.7414991 C147.217067,10.2435658 146.9758,9.86369912 146.637,9.60189912 C146.2982,9.34009912 145.815667,9.20919912 145.1894,9.20919912 C144.583667,9.20919912 144.108833,9.34009912 143.7649,9.60189912 C143.420967,9.86369912 143.177133,10.2435658 143.0334,10.7414991 C142.889667,11.2394325 142.8178,11.8477325 142.8178,12.5663991 L142.8178,12.5663991 L142.8178,15.0303991 C142.8178,15.7490658 142.889667,16.3573658 143.0334,16.8552991 C143.177133,17.3532325 143.420967,17.7330991 143.7649,17.9948991 C144.108833,18.2566991 144.583667,18.3875991 145.1894,18.3875991 Z M145.1894,17.5405991 C144.799267,17.5405991 144.516933,17.4379325 144.3424,17.2325991 C144.167867,17.0272658 144.060067,16.7372325 144.019,16.3624991 C143.977933,15.9877658 143.9574,15.5642658 143.9574,15.0919991 L143.9574,15.0919991 L143.9574,12.5047991 C143.9574,12.0222658 143.977933,11.5987658 144.019,11.2342991 C144.060067,10.8698325 144.167867,10.5823658 144.3424,10.3718991 C144.516933,10.1614325 144.799267,10.0561991 145.1894,10.0561991 C145.579533,10.0561991 145.864433,10.1614325 146.0441,10.3718991 C146.223767,10.5823658 146.334133,10.8698325 146.3752,11.2342991 C146.416267,11.5987658 146.4368,12.0222658 146.4368,12.5047991 L146.4368,12.5047991 L146.4368,15.0919991 C146.4368,15.5642658 146.416267,15.9877658 146.3752,16.3624991 C146.334133,16.7372325 146.223767,17.0272658 146.0441,17.2325991 C145.864433,17.4379325 145.579533,17.5405991 145.1894,17.5405991 Z M49.3706,34.4979981 L52.9126,22.0239981 L51.927,22.0239981 L48.3696,34.4979981 L49.3706,34.4979981 Z M58.549,24.3647981 L58.549,22.8401981 L57.4248,22.8401981 L57.4248,24.3647981 L58.549,24.3647981 Z M58.549,34.4979981 L58.549,25.5967981 L57.4248,25.5967981 L57.4248,34.4979981 L58.549,34.4979981 Z M61.5674,34.4979981 L61.5674,27.1675981 C61.8035333,26.9211981 62.0550667,26.7209981 62.322,26.5669981 C62.5889333,26.4129981 62.8507333,26.3359981 63.1074,26.3359981 C63.3948667,26.3359981 63.6079,26.4309648 63.7465,26.6208981 C63.8851,26.8108315 63.9544,27.1367981 63.9544,27.5987981 L63.9544,27.5987981 L63.9544,34.4979981 L65.0786,34.4979981 L65.0786,27.3523981 C65.0786,26.9519981 65.0272667,26.6106315 64.9246,26.3282981 C64.8219333,26.0459648 64.6679333,25.8303648 64.4626,25.6814981 C64.2572667,25.5326315 64.0057333,25.4581981 63.708,25.4581981 C63.2870667,25.4581981 62.8969333,25.5582981 62.5376,25.7584981 C62.1782667,25.9586981 61.8548667,26.2127981 61.5674,26.5207981 L61.5674,26.5207981 L61.5674,25.5967981 L60.4432,25.5967981 L60.4432,34.4979981 L61.5674,34.4979981 Z M68.713,34.6365981 C69.0518,34.6365981 69.3469667,34.5570315 69.5985,34.3978981 C69.8500333,34.2387648 70.0630667,34.0616648 70.2376,33.8665981 L70.2376,33.8665981 L70.2376,34.4979981 L71.3618,34.4979981 L71.3618,22.0239981 L70.2376,22.0239981 L70.2376,26.2281981 C70.0630667,26.0331315 69.8449,25.8560315 69.5831,25.6968981 C69.3213,25.5377648 69.0158667,25.4581981 68.6668,25.4581981 C68.1021333,25.4581981 67.6683667,25.6147648 67.3655,25.9278981 C67.0626333,26.2410315 66.8547333,26.6799315 66.7418,27.2445981 C66.6288667,27.8092648 66.5724,28.4817315 66.5724,29.2619981 L66.5724,29.2619981 L66.5724,30.9097981 C66.5724,32.2444648 66.7392333,33.1992648 67.0729,33.7741981 C67.4065667,34.3491315 67.9532667,34.6365981 68.713,34.6365981 Z M68.944,33.7433981 C68.6052,33.7433981 68.3459667,33.6407315 68.1663,33.4353981 C67.9866333,33.2300648 67.8634333,32.9220648 67.7967,32.5113981 C67.7299667,32.1007315 67.6966,31.5976648 67.6966,31.0021981 L67.6966,31.0021981 L67.6966,28.8923981 C67.6966,28.0607981 67.7761667,27.4268315 67.9353,26.9904981 C68.0944333,26.5541648 68.4204,26.3359981 68.9132,26.3359981 C69.1904,26.3359981 69.4419333,26.4052981 69.6678,26.5438981 C69.8936667,26.6824981 70.0836,26.8236648 70.2376,26.9673981 L70.2376,26.9673981 L70.2376,33.1581981 C70.0630667,33.3224648 69.8654333,33.4610648 69.6447,33.5739981 C69.4239667,33.6869315 69.1904,33.7433981 68.944,33.7433981 Z M74.411,34.6365981 C74.8319333,34.6365981 75.2272,34.5313648 75.5968,34.3208981 C75.9664,34.1104315 76.2949333,33.8409315 76.5824,33.5123981 L76.5824,33.5123981 L76.5824,34.4979981 L77.7066,34.4979981 L77.7066,25.5967981 L76.5824,25.5967981 L76.5824,32.8655981 C76.3462667,33.1222648 76.0921667,33.3327315 75.8201,33.4969981 C75.5480333,33.6612648 75.2785333,33.7433981 75.0116,33.7433981 C74.7241333,33.7433981 74.5111,33.6509981 74.3725,33.4661981 C74.2339,33.2813981 74.1646,32.9579981 74.1646,32.4959981 L74.1646,32.4959981 L74.1646,25.5967981 L73.025,25.5967981 L73.025,32.7423981 C73.025,33.1427981 73.0789,33.4815981 73.1867,33.7587981 C73.2945,34.0359981 73.4510667,34.2515981 73.6564,34.4055981 C73.8617333,34.5595981 74.1132667,34.6365981 74.411,34.6365981 Z M81.4796,34.6365981 C81.9416,34.6365981 82.342,34.5518981 82.6808,34.3824981 C83.0196,34.2130981 83.2839667,33.9718315 83.4739,33.6586981 C83.6638333,33.3455648 83.7588,32.9579981 83.7588,32.4959981 C83.7588,32.0853315 83.6869333,31.7285648 83.5432,31.4256981 C83.3994667,31.1228315 83.2146667,30.8481981 82.9888,30.6017981 C82.7629333,30.3553981 82.5268,30.1243981 82.2804,29.9087981 L82.2804,29.9087981 L81.0176,28.7845981 C80.7404,28.5279315 80.5504667,28.2969315 80.4478,28.0915981 C80.3451333,27.8862648 80.2938,27.6501315 80.2938,27.3831981 C80.2938,27.0443981 80.3990333,26.7800315 80.6095,26.5900981 C80.8199667,26.4001648 81.0946,26.3051981 81.4334,26.3051981 C81.6900667,26.3051981 81.9082333,26.3667981 82.0879,26.4899981 C82.2675667,26.6131981 82.4087333,26.8056981 82.5114,27.0674981 C82.6140667,27.3292981 82.6756667,27.6603981 82.6962,28.0607981 L82.6962,28.0607981 L83.497,27.7989981 C83.4662,27.1111315 83.2762667,26.5490315 82.9272,26.1126981 C82.5781333,25.6763648 82.0648,25.4581981 81.3872,25.4581981 C80.9662667,25.4581981 80.5966667,25.5377648 80.2784,25.6968981 C79.9601333,25.8560315 79.7111667,26.0818981 79.5315,26.3744981 C79.3518333,26.6670981 79.262,27.0289981 79.262,27.4601981 C79.262,27.9324648 79.3646667,28.3379981 79.57,28.6767981 C79.7753333,29.0155981 80.0782,29.3543981 80.4786,29.6931981 L80.4786,29.6931981 L81.6952,30.7403981 C82.0648,31.0586648 82.3368667,31.3640981 82.5114,31.6566981 C82.6859333,31.9492981 82.7732,32.2393315 82.7732,32.5267981 C82.7732,32.9271981 82.6679667,33.2377648 82.4575,33.4584981 C82.2470333,33.6792315 81.9467333,33.7895981 81.5566,33.7895981 C81.0946,33.7895981 80.7352667,33.6330315 80.4786,33.3198981 C80.2219333,33.0067648 80.0628,32.5062648 80.0012,31.8183981 L80.0012,31.8183981 L79.0618,32.1109981 C79.1234,32.8809981 79.3646667,33.4944315 79.7856,33.9512981 C80.2065333,34.4081648 80.7712,34.6365981 81.4796,34.6365981 Z M87.1468,34.6057981 C87.3008,34.6057981 87.4599333,34.5980981 87.6242,34.5826981 C87.7884667,34.5672981 87.9476,34.5441981 88.1016,34.5133981 L88.1016,34.5133981 L88.1016,33.6509981 C87.9989333,33.6715315 87.8885667,33.6894981 87.7705,33.7048981 C87.6524333,33.7202981 87.5472,33.7279981 87.4548,33.7279981 C87.1262667,33.7279981 86.9132333,33.6381648 86.8157,33.4584981 C86.7181667,33.2788315 86.6694,32.9733981 86.6694,32.5421981 L86.6694,32.5421981 L86.6694,26.3359981 L88.1478,26.3359981 L88.1478,25.5967981 L86.6694,25.5967981 L86.6694,22.8401981 L85.5452,22.8401981 L85.5452,25.5967981 L84.4518,25.5967981 L84.4518,26.3359981 L85.5452,26.3359981 L85.5452,32.6499981 C85.5452,33.0298648 85.5888333,33.3660981 85.6761,33.6586981 C85.7633667,33.9512981 85.9225,34.1822981 86.1535,34.3516981 C86.3845,34.5210981 86.7156,34.6057981 87.1468,34.6057981 Z M90.5656,34.4979981 L90.5656,27.6603981 C90.7812,27.3010648 91.0301667,27.0392648 91.3125,26.8749981 C91.5948333,26.7107315 91.9105333,26.6285981 92.2596,26.6285981 C92.352,26.6285981 92.4495333,26.6362981 92.5522,26.6516981 C92.6548667,26.6670981 92.7421333,26.6901981 92.814,26.7209981 L92.814,26.7209981 L92.814,25.5197981 C92.7729333,25.5095315 92.737,25.5043981 92.7062,25.5043981 L92.7062,25.5043981 L92.6138,25.5043981 C92.275,25.5043981 91.9208,25.6044981 91.5512,25.8046981 C91.1816,26.0048981 90.8530667,26.3411315 90.5656,26.8133981 L90.5656,26.8133981 L90.5656,25.5967981 L89.426,25.5967981 L89.426,34.4979981 L90.5656,34.4979981 Z M95.1702,24.3647981 L95.1702,22.8401981 L94.046,22.8401981 L94.046,24.3647981 L95.1702,24.3647981 Z M95.1702,34.4979981 L95.1702,25.5967981 L94.046,25.5967981 L94.046,34.4979981 L95.1702,34.4979981 Z M98.9586,33.6817981 C98.6916667,33.6817981 98.4555333,33.5816981 98.2502,33.3814981 C98.0448667,33.1812981 97.9422,32.8450648 97.9422,32.3727981 C97.9422,32.0750648 97.9884,31.8158315 98.0808,31.5950981 C98.1732,31.3743648 98.3169333,31.1767315 98.512,31.0021981 C98.7070667,30.8276648 98.9611667,30.6479981 99.2743,30.4631981 C99.5874333,30.2783981 99.9647333,30.0730648 100.4062,29.8471981 L100.4062,29.8471981 L100.4062,32.6191981 C100.324067,32.7834648 100.211133,32.9451648 100.0674,33.1042981 C99.9236667,33.2634315 99.7594,33.3994648 99.5746,33.5123981 C99.3898,33.6253315 99.1844667,33.6817981 98.9586,33.6817981 Z M100.436,33.2670001 L100.447587,33.3829419 C100.461062,33.5090294 100.4832,33.6625481 100.514,33.8434981 C100.555067,34.0847648 100.585867,34.3029315 100.6064,34.4979981 L100.6064,34.4979981 L101.6074,34.4979981 C101.602267,34.4415315 101.597133,34.3722315 101.592,34.2900981 L101.5766,34.0051981 C101.566333,33.7895981 101.556067,33.5611648 101.5458,33.3198981 C101.535533,33.0786315 101.5304,32.8809981 101.5304,32.7269981 L101.5304,32.7269981 L101.5304,28.3995981 C101.5304,27.3934648 101.3687,26.6516981 101.0453,26.1742981 C100.7219,25.6968981 100.1598,25.4581981 99.359,25.4581981 C98.5068667,25.4581981 97.8934333,25.6763648 97.5187,26.1126981 C97.1439667,26.5490315 96.9514667,27.2189315 96.9412,28.1223981 L96.9412,28.1223981 L98.05,28.1377981 L98.05,27.8297981 C98.05,27.4396648 98.1064667,27.1342315 98.2194,26.9134981 C98.3323333,26.6927648 98.4812,26.5361981 98.666,26.4437981 C98.8508,26.3513981 99.0612667,26.3051981 99.2974,26.3051981 C99.5848667,26.3051981 99.8081667,26.3719315 99.9673,26.5053981 C100.126433,26.6388648 100.239367,26.8621648 100.3061,27.1752981 C100.372833,27.4884315 100.4062,27.9170648 100.4062,28.4611981 L100.4062,28.4611981 L100.4062,29.0925981 C99.7491333,29.3903315 99.1921667,29.6598315 98.7353,29.9010981 C98.2784333,30.1423648 97.9088333,30.3887648 97.6265,30.6402981 C97.3441667,30.8918315 97.1388333,31.1767315 97.0105,31.4949981 C96.8821667,31.8132648 96.818,32.1982648 96.818,32.6499981 C96.818,33.0093315 96.8924333,33.3404315 97.0413,33.6432981 C97.1901667,33.9461648 97.3980667,34.1874315 97.665,34.3670981 C97.9319333,34.5467648 98.2450667,34.6365981 98.6044,34.6365981 C99.0766667,34.6365981 99.4693667,34.4979981 99.7825,34.2207981 C100.095633,33.9435981 100.3138,33.6253315 100.437,33.2659981 L100.436,33.2670001 Z M104.4564,34.4979981 L104.4564,22.0239981 L103.3322,22.0239981 L103.3322,34.4979981 L104.4564,34.4979981 Z" id="Diseñodeproducto/industrial" fill="#000000" fill-rule="nonzero"></path>
                <g id="Group-9" fill="#7FAB3E">
                    <path d="M20.8250502,22.9899281 C19.8078814,22.9899281 19.7914283,23.6847375 19.7914283,27.3290439 C19.7914283,30.9048565 19.875522,31.6680378 20.8250502,31.6680378 C21.7738471,31.6680378 21.8586721,30.9048565 21.8586721,27.3290439 C21.8586721,23.6847375 21.842219,22.9899281 20.8250502,22.9899281" id="Fill-1"></path>
                    <path d="M25.1764876,11.529997 C24.1531031,11.529997 24.1692972,12.7051158 24.1692972,14.4007628 C24.1692972,16.5323566 24.3208032,17.4219223 25.1764876,17.4219223 C25.9825688,17.4219223 26.1340759,16.5323566 26.1340759,14.4007628 C26.1340759,12.7051158 26.150147,11.529997 25.1764876,11.529997" id="Fill-3"></path>
                    <path d="M13.3565133,17.4218857 C14.2128071,17.4218857 14.3644333,16.53232 14.3644333,14.4007262 C14.3644333,12.7050793 14.3800196,11.5299605 13.3565133,11.5299605 C12.3833414,11.5299605 12.399777,12.7050793 12.399777,14.4007262 C12.399777,16.53232 12.5507977,17.4218857 13.3565133,17.4218857" id="Fill-5"></path>
                    <path d="M29.7539543,20.6913289 L35.1675201,20.6913289 L35.1675201,19.8553883 L29.7539543,19.8553883 L29.7539543,20.6913289 Z M28.5007136,18.7153695 L26.2502917,18.7153695 L26.2502917,17.7751038 L26.2181167,17.7751038 C25.7811948,18.596907 25.1266041,18.8829476 24.2196103,18.8829476 C21.7688259,18.8829476 21.8526759,16.1635506 21.8526759,14.4170818 C21.8526759,12.7051036 21.7858884,10.0690692 24.1693978,10.0690692 C25.025326,10.0690692 25.6131291,10.3211067 26.0998979,11.0433379 L26.1341448,11.0433379 L26.1341448,6.59368151 L28.5007136,6.59368151 L28.5007136,18.7153695 Z M20.8250258,33.3966763 C17.6383601,33.3966763 17.4009476,31.0070731 17.4009476,27.295248 C17.4009476,22.7691759 17.909532,21.2606071 20.8250258,21.2606071 C23.7405197,21.2606071 24.2491041,22.7691759 24.2491041,27.295248 C24.2491041,31.0070731 24.0116916,33.3966763 20.8250258,33.3966763 L20.8250258,33.3966763 Z M16.9144225,33.2440888 L9.89722539,33.2440888 L9.89722539,31.1595387 C13.6256255,26.1932542 14.4053818,25.6169073 14.4053818,24.1422197 C14.4053818,23.5488103 14.1852756,22.9898915 13.5076505,22.9898915 C12.524363,22.9898915 12.4732974,23.9222353 12.4732974,24.6846854 L10.0835723,24.6846854 C9.91392227,22.4813071 11.1510754,21.2606071 13.3380005,21.2606071 C15.3887912,21.2606071 16.7958382,22.091429 16.7958382,24.3121135 C16.7958382,26.9728886 13.6939974,29.9899043 12.4056567,31.4135262 L16.9144225,31.4135262 L16.9144225,33.2440888 Z M10.0326285,6.59368151 L12.3998067,6.59368151 L12.3998067,11.0433379 L12.4338099,11.0433379 C12.9205786,10.3211067 13.5083818,10.0690692 14.3643099,10.0690692 C16.7479413,10.0690692 16.6810319,12.7051036 16.6810319,14.4170818 C16.6810319,16.1635506 16.7645163,18.8829476 14.3140974,18.8829476 C13.4071037,18.8829476 12.7521474,18.596907 12.3162005,17.7751038 L12.2821974,17.7751038 L12.2821974,18.7153695 L10.0326285,18.7153695 L10.0326285,6.59368151 Z M18.091857,18.7153695 L20.4586696,18.7153695 L20.4586696,10.2371348 L18.091857,10.2371348 L18.091857,18.7153695 Z M18.091857,8.45739409 L20.4586696,8.45739409 L20.4586696,6.59368151 L18.091857,6.59368151 L18.091857,8.45739409 Z M19.3699601,0.0164531257 C8.67152847,0.0164531257 0,8.68920035 0,19.3848289 C0,30.0841137 8.67152847,38.7562515 19.3699601,38.7562515 C30.0670512,38.7562515 38.7400422,30.0841137 38.7400422,19.3848289 C38.7400422,8.68920035 30.0670512,0.0164531257 19.3699601,0.0164531257 L19.3699601,0.0164531257 Z" id="Fill-7"></path>
                </g>
            </g>
            <line x1="47.55" y1="0.5" x2="222.340882" y2="0.5" id="Path-5-Copy-15" stroke="#000000" stroke-width="0.5"></line>
        </g>
    </g>
</svg>