<?xml version="1.0" encoding="UTF-8"?>
<svg width="223px" height="41px" viewBox="0 0 223 41" version="1.1" xmlns="http://www.w3.org/2000/svg" xmlns:xlink="http://www.w3.org/1999/xlink">
    <title>publicaciones</title>
    <g id="Page-1" stroke="none" stroke-width="1" fill="none" fill-rule="evenodd">
        <g id="publicaciones">
            <g transform="translate(0.000000, 2.000000)">
                <path d="M51.9116,17.248999 C52.7432,17.248999 53.3951333,17.0898657 53.8674,16.771599 C54.3396667,16.4533323 54.6784667,16.0041657 54.8838,15.424099 C55.0891333,14.8440323 55.1918,14.168999 55.1918,13.398999 L55.1918,13.398999 L55.1918,8.440199 C55.1918,7.71126567 55.0891333,7.069599 54.8838,6.515199 C54.6784667,5.960799 54.3319667,5.53216567 53.8443,5.229299 C53.3566333,4.92643233 52.6764667,4.774999 51.8038,4.774999 L51.8038,4.774999 L49.0934,4.774999 L49.0934,17.248999 L51.9116,17.248999 Z M51.8346,16.371199 L50.2638,16.371199 L50.2638,5.683599 L51.7884,5.683599 C52.4146667,5.683599 52.8843667,5.79396567 53.1975,6.014699 C53.5106333,6.23543233 53.7211,6.55883233 53.8289,6.984899 C53.9367,7.41096567 53.9906,7.93713233 53.9906,8.563399 L53.9906,8.563399 L53.9906,13.214199 C53.9906,13.8199323 53.9495333,14.361499 53.8674,14.838899 C53.7852667,15.316299 53.5902,15.6910323 53.2822,15.963099 C52.9742,16.2351657 52.4916667,16.371199 51.8346,16.371199 L51.8346,16.371199 Z M58.1332,7.115799 L58.1332,5.591199 L57.009,5.591199 L57.009,7.115799 L58.1332,7.115799 Z M58.1332,17.248999 L58.1332,8.347799 L57.009,8.347799 L57.009,17.248999 L58.1332,17.248999 Z M62.0602,17.387599 C62.5222,17.387599 62.9226,17.302899 63.2614,17.133499 C63.6002,16.964099 63.8645667,16.7228323 64.0545,16.409699 C64.2444333,16.0965657 64.3394,15.708999 64.3394,15.246999 C64.3394,14.8363323 64.2675333,14.4795657 64.1238,14.176699 C63.9800667,13.8738323 63.7952667,13.599199 63.5694,13.352799 C63.3435333,13.106399 63.1074,12.875399 62.861,12.659799 L62.861,12.659799 L61.5982,11.535599 C61.321,11.2789323 61.1310667,11.0479323 61.0284,10.842599 C60.9257333,10.6372657 60.8744,10.4011323 60.8744,10.134199 C60.8744,9.795399 60.9796333,9.53103233 61.1901,9.341099 C61.4005667,9.15116567 61.6752,9.056199 62.014,9.056199 C62.2706667,9.056199 62.4888333,9.117799 62.6685,9.240999 C62.8481667,9.364199 62.9893333,9.556699 63.092,9.818499 C63.1946667,10.080299 63.2562667,10.411399 63.2768,10.811799 L63.2768,10.811799 L64.0776,10.549999 C64.0468,9.86213233 63.8568667,9.30003233 63.5078,8.863699 C63.1587333,8.42736567 62.6454,8.209199 61.9678,8.209199 C61.5468667,8.209199 61.1772667,8.28876567 60.859,8.447899 C60.5407333,8.60703233 60.2917667,8.832899 60.1121,9.125499 C59.9324333,9.418099 59.8426,9.779999 59.8426,10.211199 C59.8426,10.6834657 59.9452667,11.088999 60.1506,11.427799 C60.3559333,11.766599 60.6588,12.105399 61.0592,12.444199 L61.0592,12.444199 L62.2758,13.491399 C62.6454,13.8096657 62.9174667,14.115099 63.092,14.407699 C63.2665333,14.700299 63.3538,14.9903323 63.3538,15.277799 C63.3538,15.678199 63.2485667,15.9887657 63.0381,16.209499 C62.8276333,16.4302323 62.5273333,16.540599 62.1372,16.540599 C61.6752,16.540599 61.3158667,16.3840323 61.0592,16.070899 C60.8025333,15.7577657 60.6434,15.2572657 60.5818,14.569399 L60.5818,14.569399 L59.6424,14.861999 C59.704,15.631999 59.9452667,16.2454323 60.3662,16.702299 C60.7871333,17.1591657 61.3518,17.387599 62.0602,17.387599 Z M67.8506,17.387599 C68.7232667,17.387599 69.3264333,17.1437657 69.6601,16.656099 C69.9937667,16.1684323 70.1606,15.5190657 70.1606,14.707999 L70.1606,14.707999 L70.1606,14.215199 L69.0672,14.215199 L69.0672,14.831199 C69.0672,15.293199 69.0133,15.6499657 68.9055,15.901499 C68.7977,16.1530323 68.6514,16.3224323 68.4666,16.409699 C68.2818,16.4969657 68.0764667,16.540599 67.8506,16.540599 C67.5528667,16.540599 67.3090333,16.4687323 67.1191,16.324999 C66.9291667,16.1812657 66.7905667,15.9425657 66.7033,15.608899 C66.6160333,15.2752323 66.5724,14.8209323 66.5724,14.245999 L66.5724,14.245999 L66.5724,12.690599 L70.176,12.690599 L70.176,11.889799 C70.176,11.0479323 70.1118333,10.357499 69.9835,9.818499 C69.8551667,9.279499 69.6267333,8.87653233 69.2982,8.609599 C68.9696667,8.34266567 68.4922667,8.209199 67.866,8.209199 C67.3218667,8.209199 66.8701333,8.31443233 66.5108,8.524899 C66.1514667,8.73536567 65.8845333,9.08956567 65.71,9.587499 C65.5354667,10.0854323 65.4482,10.7758657 65.4482,11.658799 L65.4482,11.658799 L65.4482,13.907199 C65.4482,14.7593323 65.5329,15.4420657 65.7023,15.955399 C65.8717,16.4687323 66.1335,16.8357657 66.4877,17.056499 C66.8419,17.2772323 67.2962,17.387599 67.8506,17.387599 Z M69.0672,12.043799 L66.5724,12.043799 L66.5724,11.443199 C66.5724,10.8066657 66.6134667,10.3164323 66.6956,9.972499 C66.7777333,9.62856567 66.9137667,9.38986567 67.1037,9.256399 C67.2936333,9.12293233 67.5426,9.056199 67.8506,9.056199 C68.2202,9.056199 68.4897,9.14603233 68.6591,9.325699 C68.8285,9.50536567 68.9388667,9.76203233 68.9902,10.095699 C69.0415333,10.4293657 69.0672,10.8323323 69.0672,11.304599 L69.0672,11.304599 L69.0672,12.043799 Z M74.9346,6.592199 C75.2426,6.592199 75.4736,6.51263233 75.6276,6.353499 C75.7816,6.19436567 75.8817,6.00443233 75.9279,5.783699 C75.9741,5.56296567 75.9972,5.360199 75.9972,5.175399 L75.9972,5.175399 L75.3196,5.175399 C75.3196,5.421799 75.2785333,5.59376567 75.1964,5.691299 C75.1142667,5.78883233 74.9859333,5.837599 74.8114,5.837599 C74.6266,5.837599 74.4469333,5.775999 74.2724,5.652799 C74.0978667,5.529599 73.9130667,5.40896567 73.718,5.290899 C73.5229333,5.17283233 73.3022,5.113799 73.0558,5.113799 C72.7683333,5.113799 72.5476,5.190799 72.3936,5.344799 C72.2396,5.498799 72.1343667,5.68103233 72.0779,5.891499 C72.0214333,6.10196567 71.9932,6.29446567 71.9932,6.468999 L71.9932,6.468999 L72.6862,6.468999 C72.6862,6.26366567 72.7298333,6.10966567 72.8171,6.006999 C72.9043667,5.90433233 73.0301333,5.852999 73.1944,5.852999 C73.3792,5.852999 73.5563,5.914599 73.7257,6.037799 C73.8951,6.160999 74.0773333,6.284199 74.2724,6.407399 C74.4674667,6.530599 74.6882,6.592199 74.9346,6.592199 Z M72.8248,17.248999 L72.8248,9.918599 C73.0609333,9.672199 73.3124667,9.471999 73.5794,9.317999 C73.8463333,9.163999 74.1081333,9.086999 74.3648,9.086999 C74.6522667,9.086999 74.8653,9.18196567 75.0039,9.371899 C75.1425,9.56183233 75.2118,9.887799 75.2118,10.349799 L75.2118,10.349799 L75.2118,17.248999 L76.336,17.248999 L76.336,10.103399 C76.336,9.702999 76.2846667,9.36163233 76.182,9.079299 C76.0793333,8.79696567 75.9253333,8.58136567 75.72,8.432499 C75.5146667,8.28363233 75.2631333,8.209199 74.9654,8.209199 C74.5444667,8.209199 74.1543333,8.309299 73.795,8.509499 C73.4356667,8.709699 73.1122667,8.963799 72.8248,9.271799 L72.8248,9.271799 L72.8248,8.347799 L71.7006,8.347799 L71.7006,17.248999 L72.8248,17.248999 Z M80.2014,17.387599 C80.8276667,17.387599 81.3102,17.256699 81.649,16.994899 C81.9878,16.733099 82.2290667,16.3532323 82.3728,15.855299 C82.5165333,15.3573657 82.5884,14.7490657 82.5884,14.030399 L82.5884,14.030399 L82.5884,11.566399 C82.5884,10.8477323 82.5165333,10.2394323 82.3728,9.741499 C82.2290667,9.24356567 81.9878,8.863699 81.649,8.601899 C81.3102,8.340099 80.8276667,8.209199 80.2014,8.209199 C79.5956667,8.209199 79.1208333,8.340099 78.7769,8.601899 C78.4329667,8.863699 78.1891333,9.24356567 78.0454,9.741499 C77.9016667,10.2394323 77.8298,10.8477323 77.8298,11.566399 L77.8298,11.566399 L77.8298,14.030399 C77.8298,14.7490657 77.9016667,15.3573657 78.0454,15.855299 C78.1891333,16.3532323 78.4329667,16.733099 78.7769,16.994899 C79.1208333,17.256699 79.5956667,17.387599 80.2014,17.387599 Z M80.2014,16.540599 C79.8112667,16.540599 79.5289333,16.4379323 79.3544,16.232599 C79.1798667,16.0272657 79.0720667,15.7372323 79.031,15.362499 C78.9899333,14.9877657 78.9694,14.5642657 78.9694,14.091999 L78.9694,14.091999 L78.9694,11.504799 C78.9694,11.0222657 78.9899333,10.5987657 79.031,10.234299 C79.0720667,9.86983233 79.1798667,9.58236567 79.3544,9.371899 C79.5289333,9.16143233 79.8112667,9.056199 80.2014,9.056199 C80.5915333,9.056199 80.8764333,9.16143233 81.0561,9.371899 C81.2357667,9.58236567 81.3461333,9.86983233 81.3872,10.234299 C81.4282667,10.5987657 81.4488,11.0222657 81.4488,11.504799 L81.4488,11.504799 L81.4488,14.091999 C81.4488,14.5642657 81.4282667,14.9877657 81.3872,15.362499 C81.3461333,15.7372323 81.2357667,16.0272657 81.0561,16.232599 C80.8764333,16.4379323 80.5915333,16.540599 80.2014,16.540599 Z M87.3316,19.466599 C87.8346667,19.466599 88.2581667,19.412699 88.6021,19.304899 C88.9460333,19.197099 89.2232333,19.027699 89.4337,18.796699 C89.6441667,18.565699 89.7904667,18.2602657 89.8726,17.880399 L89.8726,17.880399 L92.0286,8.347799 L90.889,8.347799 L89.3952,15.924599 L87.8552,8.347799 L86.731,8.347799 L88.5636,16.186399 C88.6354667,16.4738657 88.7022,16.7510657 88.7638,17.017999 C88.8254,17.2849323 88.8562,17.5005323 88.8562,17.664799 C88.8562,17.849599 88.8125667,18.011299 88.7253,18.149899 C88.6380333,18.288499 88.4635,18.396299 88.2017,18.473299 C87.9399,18.550299 87.5523333,18.588799 87.039,18.588799 L87.039,18.588799 L87.039,19.466599 L87.3316,19.466599 Z M97.6958,17.248999 L97.6958,11.350799 L99.5284,11.350799 C100.2368,11.350799 100.809167,11.2019323 101.2455,10.904199 C101.681833,10.6064657 101.994967,10.2086323 102.1849,9.710699 C102.374833,9.21276567 102.4698,8.671199 102.4698,8.085999 C102.4698,7.41866567 102.379967,6.838599 102.2003,6.345799 C102.020633,5.852999 101.7152,5.467999 101.284,5.190799 C100.8528,4.913599 100.262467,4.774999 99.513,4.774999 L99.513,4.774999 L96.5254,4.774999 L96.5254,17.248999 L97.6958,17.248999 Z M99.1896,10.472999 L97.6958,10.472999 L97.6958,5.652799 L99.205,5.652799 C99.7594,5.652799 100.188033,5.722099 100.4909,5.860699 C100.793767,5.999299 101.0068,6.245699 101.13,6.599899 C101.2532,6.954099 101.3148,7.44946567 101.3148,8.085999 C101.3148,8.68146567 101.242933,9.15373233 101.0992,9.502799 C100.955467,9.85186567 100.727033,10.1008323 100.4139,10.249699 C100.100767,10.3985657 99.6926667,10.472999 99.1896,10.472999 L99.1896,10.472999 Z M105.0416,17.387599 C105.462533,17.387599 105.8578,17.2823657 106.2274,17.071899 C106.597,16.8614323 106.925533,16.5919323 107.213,16.263399 L107.213,16.263399 L107.213,17.248999 L108.3372,17.248999 L108.3372,8.347799 L107.213,8.347799 L107.213,15.616599 C106.976867,15.8732657 106.722767,16.0837323 106.4507,16.247999 C106.178633,16.4122657 105.909133,16.494399 105.6422,16.494399 C105.354733,16.494399 105.1417,16.401999 105.0031,16.217199 C104.8645,16.032399 104.7952,15.708999 104.7952,15.246999 L104.7952,15.246999 L104.7952,8.347799 L103.6556,8.347799 L103.6556,15.493399 C103.6556,15.893799 103.7095,16.232599 103.8173,16.509799 C103.9251,16.786999 104.081667,17.002599 104.287,17.156599 C104.492333,17.310599 104.743867,17.387599 105.0416,17.387599 Z M112.8032,17.387599 C113.3576,17.387599 113.7888,17.2310323 114.0968,16.917899 C114.4048,16.6047657 114.622967,16.1684323 114.7513,15.608899 C114.879633,15.0493657 114.9438,14.3897323 114.9438,13.629999 L114.9438,13.629999 L114.9438,11.751199 C114.9438,11.3097323 114.918133,10.8785323 114.8668,10.457599 C114.815467,10.0366657 114.717933,9.656799 114.5742,9.317999 C114.430467,8.979199 114.225133,8.709699 113.9582,8.509499 C113.691267,8.309299 113.3422,8.209199 112.911,8.209199 C112.5106,8.209199 112.1718,8.29903233 111.8946,8.478699 C111.6174,8.65836567 111.391533,8.86113233 111.217,9.086999 L111.217,9.086999 L111.217,4.774999 L110.0928,4.774999 L110.0928,17.248999 L111.217,17.248999 L111.217,16.540599 C111.391533,16.7356657 111.6097,16.925599 111.8715,17.110399 C112.1333,17.295199 112.443867,17.387599 112.8032,17.387599 Z M112.603,16.494399 C112.315533,16.494399 112.053733,16.4302323 111.8176,16.301899 C111.581467,16.1735657 111.381267,16.0221323 111.217,15.847599 L111.217,15.847599 L111.217,9.779999 C111.371,9.625999 111.568633,9.471999 111.8099,9.317999 C112.051167,9.163999 112.3104,9.086999 112.5876,9.086999 C112.946933,9.086999 113.2113,9.18966567 113.3807,9.394999 C113.5501,9.60033233 113.663033,9.90063233 113.7195,10.295899 C113.775967,10.6911657 113.8042,11.1762657 113.8042,11.751199 L113.8042,11.751199 L113.8042,13.660799 C113.8042,14.2665323 113.775967,14.7824323 113.7195,15.208499 C113.663033,15.6345657 113.5501,15.955399 113.3807,16.170999 C113.2113,16.386599 112.952067,16.494399 112.603,16.494399 Z M117.762,17.248999 L117.762,4.774999 L116.6378,4.774999 L116.6378,17.248999 L117.762,17.248999 Z M120.842,7.115799 L120.842,5.591199 L119.7178,5.591199 L119.7178,7.115799 L120.842,7.115799 Z M120.842,17.248999 L120.842,8.347799 L119.7178,8.347799 L119.7178,17.248999 L120.842,17.248999 Z M124.9538,17.387599 C125.590333,17.387599 126.072867,17.256699 126.4014,16.994899 C126.729933,16.733099 126.9481,16.3737657 127.0559,15.916899 C127.1637,15.4600323 127.2176,14.9338657 127.2176,14.338399 L127.2176,14.338399 L127.2176,13.907199 L126.1704,13.907199 L126.1704,14.399999 C126.1704,14.8722657 126.144733,15.2675323 126.0934,15.585799 C126.042067,15.9040657 125.929133,16.1427657 125.7546,16.301899 C125.580067,16.4610323 125.318267,16.540599 124.9692,16.540599 C124.466133,16.540599 124.127333,16.3583657 123.9528,15.993899 C123.778267,15.6294323 123.691,15.000599 123.691,14.107399 L123.691,14.107399 L123.691,11.612599 C123.691,10.9863323 123.7218,10.4858323 123.7834,10.111099 C123.845,9.73636567 123.9682,9.46686567 124.153,9.302599 C124.3378,9.13833233 124.604733,9.056199 124.9538,9.056199 C125.251533,9.056199 125.490233,9.11523233 125.6699,9.233299 C125.849567,9.35136567 125.9779,9.55413233 126.0549,9.841599 C126.1319,10.1290657 126.1704,10.534599 126.1704,11.058199 L126.1704,11.058199 L126.1704,11.489399 L127.2176,11.489399 L127.2176,11.058199 C127.2176,10.4935323 127.161133,9.995599 127.0482,9.564399 C126.935267,9.133199 126.714533,8.79953233 126.386,8.563399 C126.057467,8.32726567 125.580067,8.209199 124.9538,8.209199 C124.317267,8.209199 123.827033,8.33753233 123.4831,8.594199 C123.139167,8.85086567 122.900467,9.24356567 122.767,9.772299 C122.633533,10.3010323 122.5668,10.9760657 122.5668,11.797399 L122.5668,11.797399 L122.5668,13.876399 C122.5668,14.5437323 122.6207,15.1417657 122.7285,15.670499 C122.8363,16.1992323 123.0596,16.617599 123.3984,16.925599 C123.7372,17.233599 124.255667,17.387599 124.9538,17.387599 Z M130.621,16.432799 C130.354067,16.432799 130.117933,16.332699 129.9126,16.132499 C129.707267,15.932299 129.6046,15.5960657 129.6046,15.123799 C129.6046,14.8260657 129.6508,14.5668323 129.7432,14.346099 C129.8356,14.1253657 129.979333,13.9277323 130.1744,13.753199 C130.369467,13.5786657 130.623567,13.398999 130.9367,13.214199 C131.249833,13.029399 131.627133,12.8240657 132.0686,12.598199 L132.0686,12.598199 L132.0686,15.370199 C131.986467,15.5344657 131.873533,15.6961657 131.7298,15.855299 C131.586067,16.0144323 131.4218,16.1504657 131.237,16.263399 C131.0522,16.3763323 130.846867,16.432799 130.621,16.432799 Z M132.099,16.018 L132.109987,16.1339427 C132.123462,16.2600302 132.1456,16.413549 132.1764,16.594499 C132.217467,16.8357657 132.248267,17.0539323 132.2688,17.248999 L132.2688,17.248999 L133.2698,17.248999 C133.259533,17.1360657 133.249267,16.971799 133.239,16.756199 C133.228733,16.540599 133.218467,16.3121657 133.2082,16.070899 C133.197933,15.8296323 133.1928,15.631999 133.1928,15.477999 L133.1928,15.477999 L133.1928,11.150599 C133.1928,10.1444657 133.0311,9.402699 132.7077,8.925299 C132.3843,8.447899 131.8222,8.209199 131.0214,8.209199 C130.169267,8.209199 129.555833,8.42736567 129.1811,8.863699 C128.806367,9.30003233 128.613867,9.96993233 128.6036,10.873399 L128.6036,10.873399 L129.7124,10.888799 L129.7124,10.580799 C129.7124,10.1906657 129.768867,9.88523233 129.8818,9.664499 C129.994733,9.44376567 130.1436,9.287199 130.3284,9.194799 C130.5132,9.102399 130.723667,9.056199 130.9598,9.056199 C131.247267,9.056199 131.470567,9.12293233 131.6297,9.256399 C131.788833,9.38986567 131.901767,9.61316567 131.9685,9.926299 C132.035233,10.2394323 132.0686,10.6680657 132.0686,11.212199 L132.0686,11.212199 L132.0686,11.843599 C131.411533,12.1413323 130.854567,12.4108323 130.3977,12.652099 C129.940833,12.8933657 129.571233,13.1397657 129.2889,13.391299 C129.006567,13.6428323 128.801233,13.9277323 128.6729,14.245999 C128.544567,14.5642657 128.4804,14.9492657 128.4804,15.400999 C128.4804,15.7603323 128.554833,16.0914323 128.7037,16.394299 C128.852567,16.6971657 129.060467,16.9384323 129.3274,17.118099 C129.594333,17.2977657 129.907467,17.387599 130.2668,17.387599 C130.739067,17.387599 131.131767,17.248999 131.4449,16.971799 C131.758033,16.694599 131.9762,16.3763323 132.0994,16.016999 L132.099,16.018 Z M137.0582,17.387599 C137.694733,17.387599 138.177267,17.256699 138.5058,16.994899 C138.834333,16.733099 139.0525,16.3737657 139.1603,15.916899 C139.2681,15.4600323 139.322,14.9338657 139.322,14.338399 L139.322,14.338399 L139.322,13.907199 L138.2748,13.907199 L138.2748,14.399999 C138.2748,14.8722657 138.249133,15.2675323 138.1978,15.585799 C138.146467,15.9040657 138.033533,16.1427657 137.859,16.301899 C137.684467,16.4610323 137.422667,16.540599 137.0736,16.540599 C136.570533,16.540599 136.231733,16.3583657 136.0572,15.993899 C135.882667,15.6294323 135.7954,15.000599 135.7954,14.107399 L135.7954,14.107399 L135.7954,11.612599 C135.7954,10.9863323 135.8262,10.4858323 135.8878,10.111099 C135.9494,9.73636567 136.0726,9.46686567 136.2574,9.302599 C136.4422,9.13833233 136.709133,9.056199 137.0582,9.056199 C137.355933,9.056199 137.594633,9.11523233 137.7743,9.233299 C137.953967,9.35136567 138.0823,9.55413233 138.1593,9.841599 C138.2363,10.1290657 138.2748,10.534599 138.2748,11.058199 L138.2748,11.058199 L138.2748,11.489399 L139.322,11.489399 L139.322,11.058199 C139.322,10.4935323 139.265533,9.995599 139.1526,9.564399 C139.039667,9.133199 138.818933,8.79953233 138.4904,8.563399 C138.161867,8.32726567 137.684467,8.209199 137.0582,8.209199 C136.421667,8.209199 135.931433,8.33753233 135.5875,8.594199 C135.243567,8.85086567 135.004867,9.24356567 134.8714,9.772299 C134.737933,10.3010323 134.6712,10.9760657 134.6712,11.797399 L134.6712,11.797399 L134.6712,13.876399 C134.6712,14.5437323 134.7251,15.1417657 134.8329,15.670499 C134.9407,16.1992323 135.164,16.617599 135.5028,16.925599 C135.8416,17.233599 136.360067,17.387599 137.0582,17.387599 Z M142.0786,7.115799 L142.0786,5.591199 L140.9544,5.591199 L140.9544,7.115799 L142.0786,7.115799 Z M142.0786,17.248999 L142.0786,8.347799 L140.9544,8.347799 L140.9544,17.248999 L142.0786,17.248999 Z M146.175,17.387599 C146.801267,17.387599 147.2838,17.256699 147.6226,16.994899 C147.9614,16.733099 148.202667,16.3532323 148.3464,15.855299 C148.490133,15.3573657 148.562,14.7490657 148.562,14.030399 L148.562,14.030399 L148.562,11.566399 C148.562,10.8477323 148.490133,10.2394323 148.3464,9.741499 C148.202667,9.24356567 147.9614,8.863699 147.6226,8.601899 C147.2838,8.340099 146.801267,8.209199 146.175,8.209199 C145.569267,8.209199 145.094433,8.340099 144.7505,8.601899 C144.406567,8.863699 144.162733,9.24356567 144.019,9.741499 C143.875267,10.2394323 143.8034,10.8477323 143.8034,11.566399 L143.8034,11.566399 L143.8034,14.030399 C143.8034,14.7490657 143.875267,15.3573657 144.019,15.855299 C144.162733,16.3532323 144.406567,16.733099 144.7505,16.994899 C145.094433,17.256699 145.569267,17.387599 146.175,17.387599 Z M146.175,16.540599 C145.784867,16.540599 145.502533,16.4379323 145.328,16.232599 C145.153467,16.0272657 145.045667,15.7372323 145.0046,15.362499 C144.963533,14.9877657 144.943,14.5642657 144.943,14.091999 L144.943,14.091999 L144.943,11.504799 C144.943,11.0222657 144.963533,10.5987657 145.0046,10.234299 C145.045667,9.86983233 145.153467,9.58236567 145.328,9.371899 C145.502533,9.16143233 145.784867,9.056199 146.175,9.056199 C146.565133,9.056199 146.850033,9.16143233 147.0297,9.371899 C147.209367,9.58236567 147.319733,9.86983233 147.3608,10.234299 C147.401867,10.5987657 147.4224,11.0222657 147.4224,11.504799 L147.4224,11.504799 L147.4224,14.091999 C147.4224,14.5642657 147.401867,14.9877657 147.3608,15.362499 C147.319733,15.7372323 147.209367,16.0272657 147.0297,16.232599 C146.850033,16.4379323 146.565133,16.540599 146.175,16.540599 Z M151.2416,17.248999 L151.2416,9.918599 C151.477733,9.672199 151.729267,9.471999 151.9962,9.317999 C152.263133,9.163999 152.524933,9.086999 152.7816,9.086999 C153.069067,9.086999 153.2821,9.18196567 153.4207,9.371899 C153.5593,9.56183233 153.6286,9.887799 153.6286,10.349799 L153.6286,10.349799 L153.6286,17.248999 L154.7528,17.248999 L154.7528,10.103399 C154.7528,9.702999 154.701467,9.36163233 154.5988,9.079299 C154.496133,8.79696567 154.342133,8.58136567 154.1368,8.432499 C153.931467,8.28363233 153.679933,8.209199 153.3822,8.209199 C152.961267,8.209199 152.571133,8.309299 152.2118,8.509499 C151.852467,8.709699 151.529067,8.963799 151.2416,9.271799 L151.2416,9.271799 L151.2416,8.347799 L150.1174,8.347799 L150.1174,17.248999 L151.2416,17.248999 Z M158.649,17.387599 C159.521667,17.387599 160.124833,17.1437657 160.4585,16.656099 C160.792167,16.1684323 160.959,15.5190657 160.959,14.707999 L160.959,14.707999 L160.959,14.215199 L159.8656,14.215199 L159.8656,14.831199 C159.8656,15.293199 159.8117,15.6499657 159.7039,15.901499 C159.5961,16.1530323 159.4498,16.3224323 159.265,16.409699 C159.0802,16.4969657 158.874867,16.540599 158.649,16.540599 C158.351267,16.540599 158.107433,16.4687323 157.9175,16.324999 C157.727567,16.1812657 157.588967,15.9425657 157.5017,15.608899 C157.414433,15.2752323 157.3708,14.8209323 157.3708,14.245999 L157.3708,14.245999 L157.3708,12.690599 L160.9744,12.690599 L160.9744,11.889799 C160.9744,11.0479323 160.910233,10.357499 160.7819,9.818499 C160.653567,9.279499 160.425133,8.87653233 160.0966,8.609599 C159.768067,8.34266567 159.290667,8.209199 158.6644,8.209199 C158.120267,8.209199 157.668533,8.31443233 157.3092,8.524899 C156.949867,8.73536567 156.682933,9.08956567 156.5084,9.587499 C156.333867,10.0854323 156.2466,10.7758657 156.2466,11.658799 L156.2466,11.658799 L156.2466,13.907199 C156.2466,14.7593323 156.3313,15.4420657 156.5007,15.955399 C156.6701,16.4687323 156.9319,16.8357657 157.2861,17.056499 C157.6403,17.2772323 158.0946,17.387599 158.649,17.387599 Z M159.8656,12.043799 L157.3708,12.043799 L157.3708,11.443199 C157.3708,10.8066657 157.411867,10.3164323 157.494,9.972499 C157.576133,9.62856567 157.712167,9.38986567 157.9021,9.256399 C158.092033,9.12293233 158.341,9.056199 158.649,9.056199 C159.0186,9.056199 159.2881,9.14603233 159.4575,9.325699 C159.6269,9.50536567 159.737267,9.76203233 159.7886,10.095699 C159.839933,10.4293657 159.8656,10.8323323 159.8656,11.304599 L159.8656,11.304599 L159.8656,12.043799 Z M164.5318,17.387599 C164.9938,17.387599 165.3942,17.302899 165.733,17.133499 C166.0718,16.964099 166.336167,16.7228323 166.5261,16.409699 C166.716033,16.0965657 166.811,15.708999 166.811,15.246999 C166.811,14.8363323 166.739133,14.4795657 166.5954,14.176699 C166.451667,13.8738323 166.266867,13.599199 166.041,13.352799 C165.815133,13.106399 165.579,12.875399 165.3326,12.659799 L165.3326,12.659799 L164.0698,11.535599 C163.7926,11.2789323 163.602667,11.0479323 163.5,10.842599 C163.397333,10.6372657 163.346,10.4011323 163.346,10.134199 C163.346,9.795399 163.451233,9.53103233 163.6617,9.341099 C163.872167,9.15116567 164.1468,9.056199 164.4856,9.056199 C164.742267,9.056199 164.960433,9.117799 165.1401,9.240999 C165.319767,9.364199 165.460933,9.556699 165.5636,9.818499 C165.666267,10.080299 165.727867,10.411399 165.7484,10.811799 L165.7484,10.811799 L166.5492,10.549999 C166.5184,9.86213233 166.328467,9.30003233 165.9794,8.863699 C165.630333,8.42736567 165.117,8.209199 164.4394,8.209199 C164.018467,8.209199 163.648867,8.28876567 163.3306,8.447899 C163.012333,8.60703233 162.763367,8.832899 162.5837,9.125499 C162.404033,9.418099 162.3142,9.779999 162.3142,10.211199 C162.3142,10.6834657 162.416867,11.088999 162.6222,11.427799 C162.827533,11.766599 163.1304,12.105399 163.5308,12.444199 L163.5308,12.444199 L164.7474,13.491399 C165.117,13.8096657 165.389067,14.115099 165.5636,14.407699 C165.738133,14.700299 165.8254,14.9903323 165.8254,15.277799 C165.8254,15.678199 165.720167,15.9887657 165.5097,16.209499 C165.299233,16.4302323 164.998933,16.540599 164.6088,16.540599 C164.1468,16.540599 163.787467,16.3840323 163.5308,16.070899 C163.274133,15.7577657 163.115,15.2572657 163.0534,14.569399 L163.0534,14.569399 L162.114,14.861999 C162.1756,15.631999 162.416867,16.2454323 162.8378,16.702299 C163.258733,17.1591657 163.8234,17.387599 164.5318,17.387599 Z M50.8336,33.636598 C51.1724,33.636598 51.4675667,33.5570313 51.7191,33.397898 C51.9706333,33.2387647 52.1836667,33.0616647 52.3582,32.866598 L52.3582,32.866598 L52.3582,33.497998 L53.4824,33.497998 L53.4824,21.023998 L52.3582,21.023998 L52.3582,25.228198 C52.1836667,25.0331313 51.9655,24.8560313 51.7037,24.696898 C51.4419,24.5377647 51.1364667,24.458198 50.7874,24.458198 C50.2227333,24.458198 49.7889667,24.6147647 49.4861,24.927898 C49.1832333,25.2410313 48.9753333,25.6799313 48.8624,26.244598 C48.7494667,26.8092647 48.693,27.4817313 48.693,28.261998 L48.693,28.261998 L48.693,29.909798 C48.693,31.2444647 48.8598333,32.1992647 49.1935,32.774198 C49.5271667,33.3491313 50.0738667,33.636598 50.8336,33.636598 Z M51.0646,32.743398 C50.7258,32.743398 50.4665667,32.6407313 50.2869,32.435398 C50.1072333,32.2300647 49.9840333,31.9220647 49.9173,31.511398 C49.8505667,31.1007313 49.8172,30.5976647 49.8172,30.002198 L49.8172,30.002198 L49.8172,27.892398 C49.8172,27.060798 49.8967667,26.4268313 50.0559,25.990498 C50.2150333,25.5541647 50.541,25.335998 51.0338,25.335998 C51.311,25.335998 51.5625333,25.405298 51.7884,25.543898 C52.0142667,25.682498 52.2042,25.8236647 52.3582,25.967398 L52.3582,25.967398 L52.3582,32.158198 C52.1836667,32.3224647 51.9860333,32.4610647 51.7653,32.573998 C51.5445667,32.6869313 51.311,32.743398 51.0646,32.743398 Z M57.4556,33.636598 C58.3282667,33.636598 58.9314333,33.3927647 59.2651,32.905098 C59.5987667,32.4174313 59.7656,31.7680647 59.7656,30.956998 L59.7656,30.956998 L59.7656,30.464198 L58.6722,30.464198 L58.6722,31.080198 C58.6722,31.542198 58.6183,31.8989647 58.5105,32.150498 C58.4027,32.4020313 58.2564,32.5714313 58.0716,32.658698 C57.8868,32.7459647 57.6814667,32.789598 57.4556,32.789598 C57.1578667,32.789598 56.9140333,32.7177313 56.7241,32.573998 C56.5341667,32.4302647 56.3955667,32.1915647 56.3083,31.857898 C56.2210333,31.5242313 56.1774,31.0699313 56.1774,30.494998 L56.1774,30.494998 L56.1774,28.939598 L59.781,28.939598 L59.781,28.138798 C59.781,27.2969313 59.7168333,26.606498 59.5885,26.067498 C59.4601667,25.528498 59.2317333,25.1255313 58.9032,24.858598 C58.5746667,24.5916647 58.0972667,24.458198 57.471,24.458198 C56.9268667,24.458198 56.4751333,24.5634313 56.1158,24.773898 C55.7564667,24.9843647 55.4895333,25.3385647 55.315,25.836498 C55.1404667,26.3344313 55.0532,27.0248647 55.0532,27.907798 L55.0532,27.907798 L55.0532,30.156198 C55.0532,31.0083313 55.1379,31.6910647 55.3073,32.204398 C55.4767,32.7177313 55.7385,33.0847647 56.0927,33.305498 C56.4469,33.5262313 56.9012,33.636598 57.4556,33.636598 Z M58.6722,28.292798 L56.1774,28.292798 L56.1774,27.692198 C56.1774,27.0556647 56.2184667,26.5654313 56.3006,26.221498 C56.3827333,25.8775647 56.5187667,25.6388647 56.7087,25.505398 C56.8986333,25.3719313 57.1476,25.305198 57.4556,25.305198 C57.8252,25.305198 58.0947,25.3950313 58.2641,25.574698 C58.4335,25.7543647 58.5438667,26.0110313 58.5952,26.344698 C58.6465333,26.6783647 58.6722,27.0813313 58.6722,27.553598 L58.6722,27.553598 L58.6722,28.292798 Z M67.4964,33.497998 C68.328,33.497998 68.9799333,33.3388647 69.4522,33.020598 C69.9244667,32.7023313 70.2632667,32.2531647 70.4686,31.673098 C70.6739333,31.0930313 70.7766,30.417998 70.7766,29.647998 L70.7766,29.647998 L70.7766,24.689198 C70.7766,23.9602647 70.6739333,23.318598 70.4686,22.764198 C70.2632667,22.209798 69.9167667,21.7811647 69.4291,21.478298 C68.9414333,21.1754313 68.2612667,21.023998 67.3886,21.023998 L67.3886,21.023998 L64.6782,21.023998 L64.6782,33.497998 L67.4964,33.497998 Z M67.4194,32.620198 L65.8486,32.620198 L65.8486,21.932598 L67.3732,21.932598 C67.9994667,21.932598 68.4691667,22.0429647 68.7823,22.263698 C69.0954333,22.4844313 69.3059,22.8078313 69.4137,23.233898 C69.5215,23.6599647 69.5754,24.1861313 69.5754,24.812398 L69.5754,24.812398 L69.5754,29.463198 C69.5754,30.0689313 69.5343333,30.610498 69.4522,31.087898 C69.3700667,31.565298 69.175,31.9400313 68.867,32.212098 C68.559,32.4841647 68.0764667,32.620198 67.4194,32.620198 L67.4194,32.620198 Z M73.718,23.364798 L73.718,21.840198 L72.5938,21.840198 L72.5938,23.364798 L73.718,23.364798 Z M73.718,33.497998 L73.718,24.596798 L72.5938,24.596798 L72.5938,33.497998 L73.718,33.497998 Z M77.645,33.636598 C78.107,33.636598 78.5074,33.551898 78.8462,33.382498 C79.185,33.213098 79.4493667,32.9718313 79.6393,32.658698 C79.8292333,32.3455647 79.9242,31.957998 79.9242,31.495998 C79.9242,31.0853313 79.8523333,30.7285647 79.7086,30.425698 C79.5648667,30.1228313 79.3800667,29.848198 79.1542,29.601798 C78.9283333,29.355398 78.6922,29.124398 78.4458,28.908798 L78.4458,28.908798 L77.183,27.784598 C76.9058,27.5279313 76.7158667,27.2969313 76.6132,27.091598 C76.5105333,26.8862647 76.4592,26.6501313 76.4592,26.383198 C76.4592,26.044398 76.5644333,25.7800313 76.7749,25.590098 C76.9853667,25.4001647 77.26,25.305198 77.5988,25.305198 C77.8554667,25.305198 78.0736333,25.366798 78.2533,25.489998 C78.4329667,25.613198 78.5741333,25.805698 78.6768,26.067498 C78.7794667,26.329298 78.8410667,26.660398 78.8616,27.060798 L78.8616,27.060798 L79.6624,26.798998 C79.6316,26.1111313 79.4416667,25.5490313 79.0926,25.112698 C78.7435333,24.6763647 78.2302,24.458198 77.5526,24.458198 C77.1316667,24.458198 76.7620667,24.5377647 76.4438,24.696898 C76.1255333,24.8560313 75.8765667,25.081898 75.6969,25.374498 C75.5172333,25.667098 75.4274,26.028998 75.4274,26.460198 C75.4274,26.9324647 75.5300667,27.337998 75.7354,27.676798 C75.9407333,28.015598 76.2436,28.354398 76.644,28.693198 L76.644,28.693198 L77.8606,29.740398 C78.2302,30.0586647 78.5022667,30.364098 78.6768,30.656698 C78.8513333,30.949298 78.9386,31.2393313 78.9386,31.526798 C78.9386,31.927198 78.8333667,32.2377647 78.6229,32.458498 C78.4124333,32.6792313 78.1121333,32.789598 77.722,32.789598 C77.26,32.789598 76.9006667,32.6330313 76.644,32.319898 C76.3873333,32.0067647 76.2282,31.5062647 76.1666,30.818398 L76.1666,30.818398 L75.2272,31.110998 C75.2888,31.880998 75.5300667,32.4944313 75.951,32.951298 C76.3719333,33.4081647 76.9366,33.636598 77.645,33.636598 Z M83.4354,33.636598 C84.3080667,33.636598 84.9112333,33.3927647 85.2449,32.905098 C85.5785667,32.4174313 85.7454,31.7680647 85.7454,30.956998 L85.7454,30.956998 L85.7454,30.464198 L84.652,30.464198 L84.652,31.080198 C84.652,31.542198 84.5981,31.8989647 84.4903,32.150498 C84.3825,32.4020313 84.2362,32.5714313 84.0514,32.658698 C83.8666,32.7459647 83.6612667,32.789598 83.4354,32.789598 C83.1376667,32.789598 82.8938333,32.7177313 82.7039,32.573998 C82.5139667,32.4302647 82.3753667,32.1915647 82.2881,31.857898 C82.2008333,31.5242313 82.1572,31.0699313 82.1572,30.494998 L82.1572,30.494998 L82.1572,28.939598 L85.7608,28.939598 L85.7608,28.138798 C85.7608,27.2969313 85.6966333,26.606498 85.5683,26.067498 C85.4399667,25.528498 85.2115333,25.1255313 84.883,24.858598 C84.5544667,24.5916647 84.0770667,24.458198 83.4508,24.458198 C82.9066667,24.458198 82.4549333,24.5634313 82.0956,24.773898 C81.7362667,24.9843647 81.4693333,25.3385647 81.2948,25.836498 C81.1202667,26.3344313 81.033,27.0248647 81.033,27.907798 L81.033,27.907798 L81.033,30.156198 C81.033,31.0083313 81.1177,31.6910647 81.2871,32.204398 C81.4565,32.7177313 81.7183,33.0847647 82.0725,33.305498 C82.4267,33.5262313 82.881,33.636598 83.4354,33.636598 Z M84.652,28.292798 L82.1572,28.292798 L82.1572,27.692198 C82.1572,27.0556647 82.1982667,26.5654313 82.2804,26.221498 C82.3625333,25.8775647 82.4985667,25.6388647 82.6885,25.505398 C82.8784333,25.3719313 83.1274,25.305198 83.4354,25.305198 C83.805,25.305198 84.0745,25.3950313 84.2439,25.574698 C84.4133,25.7543647 84.5236667,26.0110313 84.575,26.344698 C84.6263333,26.6783647 84.652,27.0813313 84.652,27.553598 L84.652,27.553598 L84.652,28.292798 Z M90.5194,22.841198 C90.8274,22.841198 91.0584,22.7616313 91.2124,22.602498 C91.3664,22.4433647 91.4665,22.2534313 91.5127,22.032698 C91.5589,21.8119647 91.582,21.609198 91.582,21.424398 L91.582,21.424398 L90.9044,21.424398 C90.9044,21.670798 90.8633333,21.8427647 90.7812,21.940298 C90.6990667,22.0378313 90.5707333,22.086598 90.3962,22.086598 C90.2114,22.086598 90.0317333,22.024998 89.8572,21.901798 C89.6826667,21.778598 89.4978667,21.6579647 89.3028,21.539898 C89.1077333,21.4218313 88.887,21.362798 88.6406,21.362798 C88.3531333,21.362798 88.1324,21.439798 87.9784,21.593798 C87.8244,21.747798 87.7191667,21.9300313 87.6627,22.140498 C87.6062333,22.3509647 87.578,22.5434647 87.578,22.717998 L87.578,22.717998 L88.271,22.717998 C88.271,22.5126647 88.3146333,22.3586647 88.4019,22.255998 C88.4891667,22.1533313 88.6149333,22.101998 88.7792,22.101998 C88.964,22.101998 89.1411,22.163598 89.3105,22.286798 C89.4799,22.409998 89.6621333,22.533198 89.8572,22.656398 C90.0522667,22.779598 90.273,22.841198 90.5194,22.841198 Z M88.4096,33.497998 L88.4096,26.167598 C88.6457333,25.921198 88.8972667,25.720998 89.1642,25.566998 C89.4311333,25.412998 89.6929333,25.335998 89.9496,25.335998 C90.2370667,25.335998 90.4501,25.4309647 90.5887,25.620898 C90.7273,25.8108313 90.7966,26.136798 90.7966,26.598798 L90.7966,26.598798 L90.7966,33.497998 L91.9208,33.497998 L91.9208,26.352398 C91.9208,25.951998 91.8694667,25.6106313 91.7668,25.328298 C91.6641333,25.0459647 91.5101333,24.8303647 91.3048,24.681498 C91.0994667,24.5326313 90.8479333,24.458198 90.5502,24.458198 C90.1292667,24.458198 89.7391333,24.558298 89.3798,24.758498 C89.0204667,24.958698 88.6970667,25.212798 88.4096,25.520798 L88.4096,25.520798 L88.4096,24.596798 L87.2854,24.596798 L87.2854,33.497998 L88.4096,33.497998 Z M95.7862,33.636598 C96.4124667,33.636598 96.895,33.505698 97.2338,33.243898 C97.5726,32.982098 97.8138667,32.6022313 97.9576,32.104298 C98.1013333,31.6063647 98.1732,30.9980647 98.1732,30.279398 L98.1732,30.279398 L98.1732,27.815398 C98.1732,27.0967313 98.1013333,26.4884313 97.9576,25.990498 C97.8138667,25.4925647 97.5726,25.112698 97.2338,24.850898 C96.895,24.589098 96.4124667,24.458198 95.7862,24.458198 C95.1804667,24.458198 94.7056333,24.589098 94.3617,24.850898 C94.0177667,25.112698 93.7739333,25.4925647 93.6302,25.990498 C93.4864667,26.4884313 93.4146,27.0967313 93.4146,27.815398 L93.4146,27.815398 L93.4146,30.279398 C93.4146,30.9980647 93.4864667,31.6063647 93.6302,32.104298 C93.7739333,32.6022313 94.0177667,32.982098 94.3617,33.243898 C94.7056333,33.505698 95.1804667,33.636598 95.7862,33.636598 Z M95.7862,32.789598 C95.3960667,32.789598 95.1137333,32.6869313 94.9392,32.481598 C94.7646667,32.2762647 94.6568667,31.9862313 94.6158,31.611498 C94.5747333,31.2367647 94.5542,30.8132647 94.5542,30.340998 L94.5542,30.340998 L94.5542,27.753798 C94.5542,27.2712647 94.5747333,26.8477647 94.6158,26.483298 C94.6568667,26.1188313 94.7646667,25.8313647 94.9392,25.620898 C95.1137333,25.4104313 95.3960667,25.305198 95.7862,25.305198 C96.1763333,25.305198 96.4612333,25.4104313 96.6409,25.620898 C96.8205667,25.8313647 96.9309333,26.1188313 96.972,26.483298 C97.0130667,26.8477647 97.0336,27.2712647 97.0336,27.753798 L97.0336,27.753798 L97.0336,30.340998 C97.0336,30.8132647 97.0130667,31.2367647 96.972,31.611498 C96.9309333,31.9862313 96.8205667,32.2762647 96.6409,32.481598 C96.4612333,32.6869313 96.1763333,32.789598 95.7862,32.789598 Z" id="DiseñoyPublicacionesdeDiseño" fill="#000000" fill-rule="nonzero"></path>
                <g id="Group-9-Copy-4" fill="#A4A49B">
                    <path d="M20.8250502,22.9899281 C19.8078814,22.9899281 19.7914283,23.6847375 19.7914283,27.3290439 C19.7914283,30.9048565 19.875522,31.6680378 20.8250502,31.6680378 C21.7738471,31.6680378 21.8586721,30.9048565 21.8586721,27.3290439 C21.8586721,23.6847375 21.842219,22.9899281 20.8250502,22.9899281" id="Fill-1"></path>
                    <path d="M25.1764876,11.529997 C24.1531031,11.529997 24.1692972,12.7051158 24.1692972,14.4007628 C24.1692972,16.5323566 24.3208032,17.4219223 25.1764876,17.4219223 C25.9825688,17.4219223 26.1340759,16.5323566 26.1340759,14.4007628 C26.1340759,12.7051158 26.150147,11.529997 25.1764876,11.529997" id="Fill-3"></path>
                    <path d="M13.3565133,17.4218857 C14.2128071,17.4218857 14.3644333,16.53232 14.3644333,14.4007262 C14.3644333,12.7050793 14.3800196,11.5299605 13.3565133,11.5299605 C12.3833414,11.5299605 12.399777,12.7050793 12.399777,14.4007262 C12.399777,16.53232 12.5507977,17.4218857 13.3565133,17.4218857" id="Fill-5"></path>
                    <path d="M29.7539543,20.6913289 L35.1675201,20.6913289 L35.1675201,19.8553883 L29.7539543,19.8553883 L29.7539543,20.6913289 Z M28.5007136,18.7153695 L26.2502917,18.7153695 L26.2502917,17.7751038 L26.2181167,17.7751038 C25.7811948,18.596907 25.1266041,18.8829476 24.2196103,18.8829476 C21.7688259,18.8829476 21.8526759,16.1635506 21.8526759,14.4170818 C21.8526759,12.7051036 21.7858884,10.0690692 24.1693978,10.0690692 C25.025326,10.0690692 25.6131291,10.3211067 26.0998979,11.0433379 L26.1341448,11.0433379 L26.1341448,6.59368151 L28.5007136,6.59368151 L28.5007136,18.7153695 Z M20.8250258,33.3966763 C17.6383601,33.3966763 17.4009476,31.0070731 17.4009476,27.295248 C17.4009476,22.7691759 17.909532,21.2606071 20.8250258,21.2606071 C23.7405197,21.2606071 24.2491041,22.7691759 24.2491041,27.295248 C24.2491041,31.0070731 24.0116916,33.3966763 20.8250258,33.3966763 L20.8250258,33.3966763 Z M16.9144225,33.2440888 L9.89722539,33.2440888 L9.89722539,31.1595387 C13.6256255,26.1932542 14.4053818,25.6169073 14.4053818,24.1422197 C14.4053818,23.5488103 14.1852756,22.9898915 13.5076505,22.9898915 C12.524363,22.9898915 12.4732974,23.9222353 12.4732974,24.6846854 L10.0835723,24.6846854 C9.91392227,22.4813071 11.1510754,21.2606071 13.3380005,21.2606071 C15.3887912,21.2606071 16.7958382,22.091429 16.7958382,24.3121135 C16.7958382,26.9728886 13.6939974,29.9899043 12.4056567,31.4135262 L16.9144225,31.4135262 L16.9144225,33.2440888 Z M10.0326285,6.59368151 L12.3998067,6.59368151 L12.3998067,11.0433379 L12.4338099,11.0433379 C12.9205786,10.3211067 13.5083818,10.0690692 14.3643099,10.0690692 C16.7479413,10.0690692 16.6810319,12.7051036 16.6810319,14.4170818 C16.6810319,16.1635506 16.7645163,18.8829476 14.3140974,18.8829476 C13.4071037,18.8829476 12.7521474,18.596907 12.3162005,17.7751038 L12.2821974,17.7751038 L12.2821974,18.7153695 L10.0326285,18.7153695 L10.0326285,6.59368151 Z M18.091857,18.7153695 L20.4586696,18.7153695 L20.4586696,10.2371348 L18.091857,10.2371348 L18.091857,18.7153695 Z M18.091857,8.45739409 L20.4586696,8.45739409 L20.4586696,6.59368151 L18.091857,6.59368151 L18.091857,8.45739409 Z M19.3699601,0.0164531257 C8.67152847,0.0164531257 0,8.68920035 0,19.3848289 C0,30.0841137 8.67152847,38.7562515 19.3699601,38.7562515 C30.0670512,38.7562515 38.7400422,30.0841137 38.7400422,19.3848289 C38.7400422,8.68920035 30.0670512,0.0164531257 19.3699601,0.0164531257 L19.3699601,0.0164531257 Z" id="Fill-7"></path>
                </g>
            </g>
            <line x1="47.55" y1="0.5" x2="222.340882" y2="0.5" id="Path-5-Copy-17" stroke="#000000" stroke-width="0.5"></line>
        </g>
    </g>
</svg>