<?xml version="1.0" encoding="UTF-8"?>
<svg width="148px" height="39px" viewBox="0 0 148 39" version="1.1" xmlns="http://www.w3.org/2000/svg" xmlns:xlink="http://www.w3.org/1999/xlink">
    <title>servicios</title>
    <g id="Page-1" stroke="none" stroke-width="1" fill="none" fill-rule="evenodd">
        <g id="servicios" transform="translate(-0.000000, 0.000000)">
            <path d="M51.9116,25.248999 C52.7432,25.248999 53.3951333,25.0898657 53.8674,24.771599 C54.3396667,24.4533323 54.6784667,24.0041657 54.8838,23.424099 C55.0891333,22.8440323 55.1918,22.168999 55.1918,21.398999 L55.1918,21.398999 L55.1918,16.440199 C55.1918,15.7112657 55.0891333,15.069599 54.8838,14.515199 C54.6784667,13.960799 54.3319667,13.5321657 53.8443,13.229299 C53.3566333,12.9264323 52.6764667,12.774999 51.8038,12.774999 L51.8038,12.774999 L49.0934,12.774999 L49.0934,25.248999 L51.9116,25.248999 Z M51.8346,24.371199 L50.2638,24.371199 L50.2638,13.683599 L51.7884,13.683599 C52.4146667,13.683599 52.8843667,13.7939657 53.1975,14.014699 C53.5106333,14.2354323 53.7211,14.5588323 53.8289,14.984899 C53.9367,15.4109657 53.9906,15.9371323 53.9906,16.563399 L53.9906,16.563399 L53.9906,21.214199 C53.9906,21.8199323 53.9495333,22.361499 53.8674,22.838899 C53.7852667,23.316299 53.5902,23.6910323 53.2822,23.963099 C52.9742,24.2351657 52.4916667,24.371199 51.8346,24.371199 L51.8346,24.371199 Z M58.1332,15.115799 L58.1332,13.591199 L57.009,13.591199 L57.009,15.115799 L58.1332,15.115799 Z M58.1332,25.248999 L58.1332,16.347799 L57.009,16.347799 L57.009,25.248999 L58.1332,25.248999 Z M62.0602,25.387599 C62.5222,25.387599 62.9226,25.302899 63.2614,25.133499 C63.6002,24.964099 63.8645667,24.7228323 64.0545,24.409699 C64.2444333,24.0965657 64.3394,23.708999 64.3394,23.246999 C64.3394,22.8363323 64.2675333,22.4795657 64.1238,22.176699 C63.9800667,21.8738323 63.7952667,21.599199 63.5694,21.352799 C63.3435333,21.106399 63.1074,20.875399 62.861,20.659799 L62.861,20.659799 L61.5982,19.535599 C61.321,19.2789323 61.1310667,19.0479323 61.0284,18.842599 C60.9257333,18.6372657 60.8744,18.4011323 60.8744,18.134199 C60.8744,17.795399 60.9796333,17.5310323 61.1901,17.341099 C61.4005667,17.1511657 61.6752,17.056199 62.014,17.056199 C62.2706667,17.056199 62.4888333,17.117799 62.6685,17.240999 C62.8481667,17.364199 62.9893333,17.556699 63.092,17.818499 C63.1946667,18.080299 63.2562667,18.411399 63.2768,18.811799 L63.2768,18.811799 L64.0776,18.549999 C64.0468,17.8621323 63.8568667,17.3000323 63.5078,16.863699 C63.1587333,16.4273657 62.6454,16.209199 61.9678,16.209199 C61.5468667,16.209199 61.1772667,16.2887657 60.859,16.447899 C60.5407333,16.6070323 60.2917667,16.832899 60.1121,17.125499 C59.9324333,17.418099 59.8426,17.779999 59.8426,18.211199 C59.8426,18.6834657 59.9452667,19.088999 60.1506,19.427799 C60.3559333,19.766599 60.6588,20.105399 61.0592,20.444199 L61.0592,20.444199 L62.2758,21.491399 C62.6454,21.8096657 62.9174667,22.115099 63.092,22.407699 C63.2665333,22.700299 63.3538,22.9903323 63.3538,23.277799 C63.3538,23.678199 63.2485667,23.9887657 63.0381,24.209499 C62.8276333,24.4302323 62.5273333,24.540599 62.1372,24.540599 C61.6752,24.540599 61.3158667,24.3840323 61.0592,24.070899 C60.8025333,23.7577657 60.6434,23.2572657 60.5818,22.569399 L60.5818,22.569399 L59.6424,22.861999 C59.704,23.631999 59.9452667,24.2454323 60.3662,24.702299 C60.7871333,25.1591657 61.3518,25.387599 62.0602,25.387599 Z M67.8506,25.387599 C68.7232667,25.387599 69.3264333,25.1437657 69.6601,24.656099 C69.9937667,24.1684323 70.1606,23.5190657 70.1606,22.707999 L70.1606,22.707999 L70.1606,22.215199 L69.0672,22.215199 L69.0672,22.831199 C69.0672,23.293199 69.0133,23.6499657 68.9055,23.901499 C68.7977,24.1530323 68.6514,24.3224323 68.4666,24.409699 C68.2818,24.4969657 68.0764667,24.540599 67.8506,24.540599 C67.5528667,24.540599 67.3090333,24.4687323 67.1191,24.324999 C66.9291667,24.1812657 66.7905667,23.9425657 66.7033,23.608899 C66.6160333,23.2752323 66.5724,22.8209323 66.5724,22.245999 L66.5724,22.245999 L66.5724,20.690599 L70.176,20.690599 L70.176,19.889799 C70.176,19.0479323 70.1118333,18.357499 69.9835,17.818499 C69.8551667,17.279499 69.6267333,16.8765323 69.2982,16.609599 C68.9696667,16.3426657 68.4922667,16.209199 67.866,16.209199 C67.3218667,16.209199 66.8701333,16.3144323 66.5108,16.524899 C66.1514667,16.7353657 65.8845333,17.0895657 65.71,17.587499 C65.5354667,18.0854323 65.4482,18.7758657 65.4482,19.658799 L65.4482,19.658799 L65.4482,21.907199 C65.4482,22.7593323 65.5329,23.4420657 65.7023,23.955399 C65.8717,24.4687323 66.1335,24.8357657 66.4877,25.056499 C66.8419,25.2772323 67.2962,25.387599 67.8506,25.387599 Z M69.0672,20.043799 L66.5724,20.043799 L66.5724,19.443199 C66.5724,18.8066657 66.6134667,18.3164323 66.6956,17.972499 C66.7777333,17.6285657 66.9137667,17.3898657 67.1037,17.256399 C67.2936333,17.1229323 67.5426,17.056199 67.8506,17.056199 C68.2202,17.056199 68.4897,17.1460323 68.6591,17.325699 C68.8285,17.5053657 68.9388667,17.7620323 68.9902,18.095699 C69.0415333,18.4293657 69.0672,18.8323323 69.0672,19.304599 L69.0672,19.304599 L69.0672,20.043799 Z M74.9346,14.592199 C75.2426,14.592199 75.4736,14.5126323 75.6276,14.353499 C75.7816,14.1943657 75.8817,14.0044323 75.9279,13.783699 C75.9741,13.5629657 75.9972,13.360199 75.9972,13.175399 L75.9972,13.175399 L75.3196,13.175399 C75.3196,13.421799 75.2785333,13.5937657 75.1964,13.691299 C75.1142667,13.7888323 74.9859333,13.837599 74.8114,13.837599 C74.6266,13.837599 74.4469333,13.775999 74.2724,13.652799 C74.0978667,13.529599 73.9130667,13.4089657 73.718,13.290899 C73.5229333,13.1728323 73.3022,13.113799 73.0558,13.113799 C72.7683333,13.113799 72.5476,13.190799 72.3936,13.344799 C72.2396,13.498799 72.1343667,13.6810323 72.0779,13.891499 C72.0214333,14.1019657 71.9932,14.2944657 71.9932,14.468999 L71.9932,14.468999 L72.6862,14.468999 C72.6862,14.2636657 72.7298333,14.1096657 72.8171,14.006999 C72.9043667,13.9043323 73.0301333,13.852999 73.1944,13.852999 C73.3792,13.852999 73.5563,13.914599 73.7257,14.037799 C73.8951,14.160999 74.0773333,14.284199 74.2724,14.407399 C74.4674667,14.530599 74.6882,14.592199 74.9346,14.592199 Z M72.8248,25.248999 L72.8248,17.918599 C73.0609333,17.672199 73.3124667,17.471999 73.5794,17.317999 C73.8463333,17.163999 74.1081333,17.086999 74.3648,17.086999 C74.6522667,17.086999 74.8653,17.1819657 75.0039,17.371899 C75.1425,17.5618323 75.2118,17.887799 75.2118,18.349799 L75.2118,18.349799 L75.2118,25.248999 L76.336,25.248999 L76.336,18.103399 C76.336,17.702999 76.2846667,17.3616323 76.182,17.079299 C76.0793333,16.7969657 75.9253333,16.5813657 75.72,16.432499 C75.5146667,16.2836323 75.2631333,16.209199 74.9654,16.209199 C74.5444667,16.209199 74.1543333,16.309299 73.795,16.509499 C73.4356667,16.709699 73.1122667,16.963799 72.8248,17.271799 L72.8248,17.271799 L72.8248,16.347799 L71.7006,16.347799 L71.7006,25.248999 L72.8248,25.248999 Z M80.2014,25.387599 C80.8276667,25.387599 81.3102,25.256699 81.649,24.994899 C81.9878,24.733099 82.2290667,24.3532323 82.3728,23.855299 C82.5165333,23.3573657 82.5884,22.7490657 82.5884,22.030399 L82.5884,22.030399 L82.5884,19.566399 C82.5884,18.8477323 82.5165333,18.2394323 82.3728,17.741499 C82.2290667,17.2435657 81.9878,16.863699 81.649,16.601899 C81.3102,16.340099 80.8276667,16.209199 80.2014,16.209199 C79.5956667,16.209199 79.1208333,16.340099 78.7769,16.601899 C78.4329667,16.863699 78.1891333,17.2435657 78.0454,17.741499 C77.9016667,18.2394323 77.8298,18.8477323 77.8298,19.566399 L77.8298,19.566399 L77.8298,22.030399 C77.8298,22.7490657 77.9016667,23.3573657 78.0454,23.855299 C78.1891333,24.3532323 78.4329667,24.733099 78.7769,24.994899 C79.1208333,25.256699 79.5956667,25.387599 80.2014,25.387599 Z M80.2014,24.540599 C79.8112667,24.540599 79.5289333,24.4379323 79.3544,24.232599 C79.1798667,24.0272657 79.0720667,23.7372323 79.031,23.362499 C78.9899333,22.9877657 78.9694,22.5642657 78.9694,22.091999 L78.9694,22.091999 L78.9694,19.504799 C78.9694,19.0222657 78.9899333,18.5987657 79.031,18.234299 C79.0720667,17.8698323 79.1798667,17.5823657 79.3544,17.371899 C79.5289333,17.1614323 79.8112667,17.056199 80.2014,17.056199 C80.5915333,17.056199 80.8764333,17.1614323 81.0561,17.371899 C81.2357667,17.5823657 81.3461333,17.8698323 81.3872,18.234299 C81.4282667,18.5987657 81.4488,19.0222657 81.4488,19.504799 L81.4488,19.504799 L81.4488,22.091999 C81.4488,22.5642657 81.4282667,22.9877657 81.3872,23.362499 C81.3461333,23.7372323 81.2357667,24.0272657 81.0561,24.232599 C80.8764333,24.4379323 80.5915333,24.540599 80.2014,24.540599 Z M89.2566,25.387599 C89.5954,25.387599 89.8905667,25.3080323 90.1421,25.148899 C90.3936333,24.9897657 90.6066667,24.8126657 90.7812,24.617599 L90.7812,24.617599 L90.7812,25.248999 L91.9054,25.248999 L91.9054,12.774999 L90.7812,12.774999 L90.7812,16.979199 C90.6066667,16.7841323 90.3885,16.6070323 90.1267,16.447899 C89.8649,16.2887657 89.5594667,16.209199 89.2104,16.209199 C88.6457333,16.209199 88.2119667,16.3657657 87.9091,16.678899 C87.6062333,16.9920323 87.3983333,17.4309323 87.2854,17.995599 C87.1724667,18.5602657 87.116,19.2327323 87.116,20.012999 L87.116,20.012999 L87.116,21.660799 C87.116,22.9954657 87.2828333,23.9502657 87.6165,24.525199 C87.9501667,25.1001323 88.4968667,25.387599 89.2566,25.387599 Z M89.4876,24.494399 C89.1488,24.494399 88.8895667,24.3917323 88.7099,24.186399 C88.5302333,23.9810657 88.4070333,23.6730657 88.3403,23.262399 C88.2735667,22.8517323 88.2402,22.3486657 88.2402,21.753199 L88.2402,21.753199 L88.2402,19.643399 C88.2402,18.811799 88.3197667,18.1778323 88.4789,17.741499 C88.6380333,17.3051657 88.964,17.086999 89.4568,17.086999 C89.734,17.086999 89.9855333,17.156299 90.2114,17.294899 C90.4372667,17.433499 90.6272,17.5746657 90.7812,17.718399 L90.7812,17.718399 L90.7812,23.909199 C90.6066667,24.0734657 90.4090333,24.2120657 90.1883,24.324999 C89.9675667,24.4379323 89.734,24.494399 89.4876,24.494399 Z M95.8786,25.387599 C96.7512667,25.387599 97.3544333,25.1437657 97.6881,24.656099 C98.0217667,24.1684323 98.1886,23.5190657 98.1886,22.707999 L98.1886,22.707999 L98.1886,22.215199 L97.0952,22.215199 L97.0952,22.831199 C97.0952,23.293199 97.0413,23.6499657 96.9335,23.901499 C96.8257,24.1530323 96.6794,24.3224323 96.4946,24.409699 C96.3098,24.4969657 96.1044667,24.540599 95.8786,24.540599 C95.5808667,24.540599 95.3370333,24.4687323 95.1471,24.324999 C94.9571667,24.1812657 94.8185667,23.9425657 94.7313,23.608899 C94.6440333,23.2752323 94.6004,22.8209323 94.6004,22.245999 L94.6004,22.245999 L94.6004,20.690599 L98.204,20.690599 L98.204,19.889799 C98.204,19.0479323 98.1398333,18.357499 98.0115,17.818499 C97.8831667,17.279499 97.6547333,16.8765323 97.3262,16.609599 C96.9976667,16.3426657 96.5202667,16.209199 95.894,16.209199 C95.3498667,16.209199 94.8981333,16.3144323 94.5388,16.524899 C94.1794667,16.7353657 93.9125333,17.0895657 93.738,17.587499 C93.5634667,18.0854323 93.4762,18.7758657 93.4762,19.658799 L93.4762,19.658799 L93.4762,21.907199 C93.4762,22.7593323 93.5609,23.4420657 93.7303,23.955399 C93.8997,24.4687323 94.1615,24.8357657 94.5157,25.056499 C94.8699,25.2772323 95.3242,25.387599 95.8786,25.387599 Z M97.0952,20.043799 L94.6004,20.043799 L94.6004,19.443199 C94.6004,18.8066657 94.6414667,18.3164323 94.7236,17.972499 C94.8057333,17.6285657 94.9417667,17.3898657 95.1317,17.256399 C95.3216333,17.1229323 95.5706,17.056199 95.8786,17.056199 C96.2482,17.056199 96.5177,17.1460323 96.6871,17.325699 C96.8565,17.5053657 96.9668667,17.7620323 97.0182,18.095699 C97.0695333,18.4293657 97.0952,18.8323323 97.0952,19.304599 L97.0952,19.304599 L97.0952,20.043799 Z M104.903,25.387599 C105.365,25.387599 105.7654,25.302899 106.1042,25.133499 C106.443,24.964099 106.707367,24.7228323 106.8973,24.409699 C107.087233,24.0965657 107.1822,23.708999 107.1822,23.246999 C107.1822,22.8363323 107.110333,22.4795657 106.9666,22.176699 C106.822867,21.8738323 106.638067,21.599199 106.4122,21.352799 C106.186333,21.106399 105.9502,20.875399 105.7038,20.659799 L105.7038,20.659799 L104.441,19.535599 C104.1638,19.2789323 103.973867,19.0479323 103.8712,18.842599 C103.768533,18.6372657 103.7172,18.4011323 103.7172,18.134199 C103.7172,17.795399 103.822433,17.5310323 104.0329,17.341099 C104.243367,17.1511657 104.518,17.056199 104.8568,17.056199 C105.113467,17.056199 105.331633,17.117799 105.5113,17.240999 C105.690967,17.364199 105.832133,17.556699 105.9348,17.818499 C106.037467,18.080299 106.099067,18.411399 106.1196,18.811799 L106.1196,18.811799 L106.9204,18.549999 C106.8896,17.8621323 106.699667,17.3000323 106.3506,16.863699 C106.001533,16.4273657 105.4882,16.209199 104.8106,16.209199 C104.389667,16.209199 104.020067,16.2887657 103.7018,16.447899 C103.383533,16.6070323 103.134567,16.832899 102.9549,17.125499 C102.775233,17.418099 102.6854,17.779999 102.6854,18.211199 C102.6854,18.6834657 102.788067,19.088999 102.9934,19.427799 C103.198733,19.766599 103.5016,20.105399 103.902,20.444199 L103.902,20.444199 L105.1186,21.491399 C105.4882,21.8096657 105.760267,22.115099 105.9348,22.407699 C106.109333,22.700299 106.1966,22.9903323 106.1966,23.277799 C106.1966,23.678199 106.091367,23.9887657 105.8809,24.209499 C105.670433,24.4302323 105.370133,24.540599 104.98,24.540599 C104.518,24.540599 104.158667,24.3840323 103.902,24.070899 C103.645333,23.7577657 103.4862,23.2572657 103.4246,22.569399 L103.4246,22.569399 L102.4852,22.861999 C102.5468,23.631999 102.788067,24.2454323 103.209,24.702299 C103.629933,25.1591657 104.1946,25.387599 104.903,25.387599 Z M110.6934,25.387599 C111.566067,25.387599 112.169233,25.1437657 112.5029,24.656099 C112.836567,24.1684323 113.0034,23.5190657 113.0034,22.707999 L113.0034,22.707999 L113.0034,22.215199 L111.91,22.215199 L111.91,22.831199 C111.91,23.293199 111.8561,23.6499657 111.7483,23.901499 C111.6405,24.1530323 111.4942,24.3224323 111.3094,24.409699 C111.1246,24.4969657 110.919267,24.540599 110.6934,24.540599 C110.395667,24.540599 110.151833,24.4687323 109.9619,24.324999 C109.771967,24.1812657 109.633367,23.9425657 109.5461,23.608899 C109.458833,23.2752323 109.4152,22.8209323 109.4152,22.245999 L109.4152,22.245999 L109.4152,20.690599 L113.0188,20.690599 L113.0188,19.889799 C113.0188,19.0479323 112.954633,18.357499 112.8263,17.818499 C112.697967,17.279499 112.469533,16.8765323 112.141,16.609599 C111.812467,16.3426657 111.335067,16.209199 110.7088,16.209199 C110.164667,16.209199 109.712933,16.3144323 109.3536,16.524899 C108.994267,16.7353657 108.727333,17.0895657 108.5528,17.587499 C108.378267,18.0854323 108.291,18.7758657 108.291,19.658799 L108.291,19.658799 L108.291,21.907199 C108.291,22.7593323 108.3757,23.4420657 108.5451,23.955399 C108.7145,24.4687323 108.9763,24.8357657 109.3305,25.056499 C109.6847,25.2772323 110.139,25.387599 110.6934,25.387599 Z M111.91,20.043799 L109.4152,20.043799 L109.4152,19.443199 C109.4152,18.8066657 109.456267,18.3164323 109.5384,17.972499 C109.620533,17.6285657 109.756567,17.3898657 109.9465,17.256399 C110.136433,17.1229323 110.3854,17.056199 110.6934,17.056199 C111.063,17.056199 111.3325,17.1460323 111.5019,17.325699 C111.6713,17.5053657 111.781667,17.7620323 111.833,18.095699 C111.884333,18.4293657 111.91,18.8323323 111.91,19.304599 L111.91,19.304599 L111.91,20.043799 Z M115.76,25.248999 L115.76,18.411399 C115.9756,18.0520657 116.224567,17.7902657 116.5069,17.625999 C116.789233,17.4617323 117.104933,17.379599 117.454,17.379599 C117.5464,17.379599 117.643933,17.387299 117.7466,17.402699 C117.849267,17.418099 117.936533,17.441199 118.0084,17.471999 L118.0084,17.471999 L118.0084,16.270799 C117.967333,16.2605323 117.9314,16.255399 117.9006,16.255399 L117.9006,16.255399 L117.8082,16.255399 C117.4694,16.255399 117.1152,16.355499 116.7456,16.555699 C116.376,16.755899 116.047467,17.0921323 115.76,17.564399 L115.76,17.564399 L115.76,16.347799 L114.6204,16.347799 L114.6204,25.248999 L115.76,25.248999 Z M121.7814,25.248999 L123.6448,16.347799 L122.5514,16.347799 L121.1192,23.955399 L119.6716,16.347799 L118.532,16.347799 L120.457,25.248999 L121.7814,25.248999 Z M126.0318,15.115799 L126.0318,13.591199 L124.9076,13.591199 L124.9076,15.115799 L126.0318,15.115799 Z M126.0318,25.248999 L126.0318,16.347799 L124.9076,16.347799 L124.9076,25.248999 L126.0318,25.248999 Z M130.1436,25.387599 C130.780133,25.387599 131.262667,25.256699 131.5912,24.994899 C131.919733,24.733099 132.1379,24.3737657 132.2457,23.916899 C132.3535,23.4600323 132.4074,22.9338657 132.4074,22.338399 L132.4074,22.338399 L132.4074,21.907199 L131.3602,21.907199 L131.3602,22.399999 C131.3602,22.8722657 131.334533,23.2675323 131.2832,23.585799 C131.231867,23.9040657 131.118933,24.1427657 130.9444,24.301899 C130.769867,24.4610323 130.508067,24.540599 130.159,24.540599 C129.655933,24.540599 129.317133,24.3583657 129.1426,23.993899 C128.968067,23.6294323 128.8808,23.000599 128.8808,22.107399 L128.8808,22.107399 L128.8808,19.612599 C128.8808,18.9863323 128.9116,18.4858323 128.9732,18.111099 C129.0348,17.7363657 129.158,17.4668657 129.3428,17.302599 C129.5276,17.1383323 129.794533,17.056199 130.1436,17.056199 C130.441333,17.056199 130.680033,17.1152323 130.8597,17.233299 C131.039367,17.3513657 131.1677,17.5541323 131.2447,17.841599 C131.3217,18.1290657 131.3602,18.534599 131.3602,19.058199 L131.3602,19.058199 L131.3602,19.489399 L132.4074,19.489399 L132.4074,19.058199 C132.4074,18.4935323 132.350933,17.995599 132.238,17.564399 C132.125067,17.133199 131.904333,16.7995323 131.5758,16.563399 C131.247267,16.3272657 130.769867,16.209199 130.1436,16.209199 C129.507067,16.209199 129.016833,16.3375323 128.6729,16.594199 C128.328967,16.8508657 128.090267,17.2435657 127.9568,17.772299 C127.823333,18.3010323 127.7566,18.9760657 127.7566,19.797399 L127.7566,19.797399 L127.7566,21.876399 C127.7566,22.5437323 127.8105,23.1417657 127.9183,23.670499 C128.0261,24.1992323 128.2494,24.617599 128.5882,24.925599 C128.927,25.233599 129.445467,25.387599 130.1436,25.387599 Z M135.164,15.115799 L135.164,13.591199 L134.0398,13.591199 L134.0398,15.115799 L135.164,15.115799 Z M135.164,25.248999 L135.164,16.347799 L134.0398,16.347799 L134.0398,25.248999 L135.164,25.248999 Z M139.2604,25.387599 C139.886667,25.387599 140.3692,25.256699 140.708,24.994899 C141.0468,24.733099 141.288067,24.3532323 141.4318,23.855299 C141.575533,23.3573657 141.6474,22.7490657 141.6474,22.030399 L141.6474,22.030399 L141.6474,19.566399 C141.6474,18.8477323 141.575533,18.2394323 141.4318,17.741499 C141.288067,17.2435657 141.0468,16.863699 140.708,16.601899 C140.3692,16.340099 139.886667,16.209199 139.2604,16.209199 C138.654667,16.209199 138.179833,16.340099 137.8359,16.601899 C137.491967,16.863699 137.248133,17.2435657 137.1044,17.741499 C136.960667,18.2394323 136.8888,18.8477323 136.8888,19.566399 L136.8888,19.566399 L136.8888,22.030399 C136.8888,22.7490657 136.960667,23.3573657 137.1044,23.855299 C137.248133,24.3532323 137.491967,24.733099 137.8359,24.994899 C138.179833,25.256699 138.654667,25.387599 139.2604,25.387599 Z M139.2604,24.540599 C138.870267,24.540599 138.587933,24.4379323 138.4134,24.232599 C138.238867,24.0272657 138.131067,23.7372323 138.09,23.362499 C138.048933,22.9877657 138.0284,22.5642657 138.0284,22.091999 L138.0284,22.091999 L138.0284,19.504799 C138.0284,19.0222657 138.048933,18.5987657 138.09,18.234299 C138.131067,17.8698323 138.238867,17.5823657 138.4134,17.371899 C138.587933,17.1614323 138.870267,17.056199 139.2604,17.056199 C139.650533,17.056199 139.935433,17.1614323 140.1151,17.371899 C140.294767,17.5823657 140.405133,17.8698323 140.4462,18.234299 C140.487267,18.5987657 140.5078,19.0222657 140.5078,19.504799 L140.5078,19.504799 L140.5078,22.091999 C140.5078,22.5642657 140.487267,22.9877657 140.4462,23.362499 C140.405133,23.7372323 140.294767,24.0272657 140.1151,24.232599 C139.935433,24.4379323 139.650533,24.540599 139.2604,24.540599 Z M145.2356,25.387599 C145.6976,25.387599 146.098,25.302899 146.4368,25.133499 C146.7756,24.964099 147.039967,24.7228323 147.2299,24.409699 C147.419833,24.0965657 147.5148,23.708999 147.5148,23.246999 C147.5148,22.8363323 147.442933,22.4795657 147.2992,22.176699 C147.155467,21.8738323 146.970667,21.599199 146.7448,21.352799 C146.518933,21.106399 146.2828,20.875399 146.0364,20.659799 L146.0364,20.659799 L144.7736,19.535599 C144.4964,19.2789323 144.306467,19.0479323 144.2038,18.842599 C144.101133,18.6372657 144.0498,18.4011323 144.0498,18.134199 C144.0498,17.795399 144.155033,17.5310323 144.3655,17.341099 C144.575967,17.1511657 144.8506,17.056199 145.1894,17.056199 C145.446067,17.056199 145.664233,17.117799 145.8439,17.240999 C146.023567,17.364199 146.164733,17.556699 146.2674,17.818499 C146.370067,18.080299 146.431667,18.411399 146.4522,18.811799 L146.4522,18.811799 L147.253,18.549999 C147.2222,17.8621323 147.032267,17.3000323 146.6832,16.863699 C146.334133,16.4273657 145.8208,16.209199 145.1432,16.209199 C144.722267,16.209199 144.352667,16.2887657 144.0344,16.447899 C143.716133,16.6070323 143.467167,16.832899 143.2875,17.125499 C143.107833,17.418099 143.018,17.779999 143.018,18.211199 C143.018,18.6834657 143.120667,19.088999 143.326,19.427799 C143.531333,19.766599 143.8342,20.105399 144.2346,20.444199 L144.2346,20.444199 L145.4512,21.491399 C145.8208,21.8096657 146.092867,22.115099 146.2674,22.407699 C146.441933,22.700299 146.5292,22.9903323 146.5292,23.277799 C146.5292,23.678199 146.423967,23.9887657 146.2135,24.209499 C146.003033,24.4302323 145.702733,24.540599 145.3126,24.540599 C144.8506,24.540599 144.491267,24.3840323 144.2346,24.070899 C143.977933,23.7577657 143.8188,23.2572657 143.7572,22.569399 L143.7572,22.569399 L142.8178,22.861999 C142.8794,23.631999 143.120667,24.2454323 143.5416,24.702299 C143.962533,25.1591657 144.5272,25.387599 145.2356,25.387599 Z" id="Diseñodeservicios" fill="#000000" fill-rule="nonzero"></path>
            <g id="Group-9" fill="#DE9A1B">
                <path d="M20.8250502,22.9899281 C19.8078814,22.9899281 19.7914283,23.6847375 19.7914283,27.3290439 C19.7914283,30.9048565 19.875522,31.6680378 20.8250502,31.6680378 C21.7738471,31.6680378 21.8586721,30.9048565 21.8586721,27.3290439 C21.8586721,23.6847375 21.842219,22.9899281 20.8250502,22.9899281" id="Fill-1"></path>
                <path d="M25.1764876,11.529997 C24.1531031,11.529997 24.1692972,12.7051158 24.1692972,14.4007628 C24.1692972,16.5323566 24.3208032,17.4219223 25.1764876,17.4219223 C25.9825688,17.4219223 26.1340759,16.5323566 26.1340759,14.4007628 C26.1340759,12.7051158 26.150147,11.529997 25.1764876,11.529997" id="Fill-3"></path>
                <path d="M13.3565133,17.4218857 C14.2128071,17.4218857 14.3644333,16.53232 14.3644333,14.4007262 C14.3644333,12.7050793 14.3800196,11.5299605 13.3565133,11.5299605 C12.3833414,11.5299605 12.399777,12.7050793 12.399777,14.4007262 C12.399777,16.53232 12.5507977,17.4218857 13.3565133,17.4218857" id="Fill-5"></path>
                <path d="M29.7539543,20.6913289 L35.1675201,20.6913289 L35.1675201,19.8553883 L29.7539543,19.8553883 L29.7539543,20.6913289 Z M28.5007136,18.7153695 L26.2502917,18.7153695 L26.2502917,17.7751038 L26.2181167,17.7751038 C25.7811948,18.596907 25.1266041,18.8829476 24.2196103,18.8829476 C21.7688259,18.8829476 21.8526759,16.1635506 21.8526759,14.4170818 C21.8526759,12.7051036 21.7858884,10.0690692 24.1693978,10.0690692 C25.025326,10.0690692 25.6131291,10.3211067 26.0998979,11.0433379 L26.1341448,11.0433379 L26.1341448,6.59368151 L28.5007136,6.59368151 L28.5007136,18.7153695 Z M20.8250258,33.3966763 C17.6383601,33.3966763 17.4009476,31.0070731 17.4009476,27.295248 C17.4009476,22.7691759 17.909532,21.2606071 20.8250258,21.2606071 C23.7405197,21.2606071 24.2491041,22.7691759 24.2491041,27.295248 C24.2491041,31.0070731 24.0116916,33.3966763 20.8250258,33.3966763 L20.8250258,33.3966763 Z M16.9144225,33.2440888 L9.89722539,33.2440888 L9.89722539,31.1595387 C13.6256255,26.1932542 14.4053818,25.6169073 14.4053818,24.1422197 C14.4053818,23.5488103 14.1852756,22.9898915 13.5076505,22.9898915 C12.524363,22.9898915 12.4732974,23.9222353 12.4732974,24.6846854 L10.0835723,24.6846854 C9.91392227,22.4813071 11.1510754,21.2606071 13.3380005,21.2606071 C15.3887912,21.2606071 16.7958382,22.091429 16.7958382,24.3121135 C16.7958382,26.9728886 13.6939974,29.9899043 12.4056567,31.4135262 L16.9144225,31.4135262 L16.9144225,33.2440888 Z M10.0326285,6.59368151 L12.3998067,6.59368151 L12.3998067,11.0433379 L12.4338099,11.0433379 C12.9205786,10.3211067 13.5083818,10.0690692 14.3643099,10.0690692 C16.7479413,10.0690692 16.6810319,12.7051036 16.6810319,14.4170818 C16.6810319,16.1635506 16.7645163,18.8829476 14.3140974,18.8829476 C13.4071037,18.8829476 12.7521474,18.596907 12.3162005,17.7751038 L12.2821974,17.7751038 L12.2821974,18.7153695 L10.0326285,18.7153695 L10.0326285,6.59368151 Z M18.091857,18.7153695 L20.4586696,18.7153695 L20.4586696,10.2371348 L18.091857,10.2371348 L18.091857,18.7153695 Z M18.091857,8.45739409 L20.4586696,8.45739409 L20.4586696,6.59368151 L18.091857,6.59368151 L18.091857,8.45739409 Z M19.3699601,0.0164531257 C8.67152847,0.0164531257 0,8.68920035 0,19.3848289 C0,30.0841137 8.67152847,38.7562515 19.3699601,38.7562515 C30.0670512,38.7562515 38.7400422,30.0841137 38.7400422,19.3848289 C38.7400422,8.68920035 30.0670512,0.0164531257 19.3699601,0.0164531257 L19.3699601,0.0164531257 Z" id="Fill-7"></path>
            </g>
        </g>
    </g>
</svg>