<?xml version="1.0" encoding="UTF-8"?>
<svg width="168px" height="39px" viewBox="0 0 168 39" version="1.1" xmlns="http://www.w3.org/2000/svg" xmlns:xlink="http://www.w3.org/1999/xlink">
    <title>sostenibilidad</title>
    <g id="Page-1" stroke="none" stroke-width="1" fill="none" fill-rule="evenodd">
        <g id="sostenibilidad" transform="translate(-0.000000, 0.000000)">
            <path d="M51.9116,24.248999 C52.7432,24.248999 53.3951333,24.0898657 53.8674,23.771599 C54.3396667,23.4533323 54.6784667,23.0041657 54.8838,22.424099 C55.0891333,21.8440323 55.1918,21.168999 55.1918,20.398999 L55.1918,20.398999 L55.1918,15.440199 C55.1918,14.7112657 55.0891333,14.069599 54.8838,13.515199 C54.6784667,12.960799 54.3319667,12.5321657 53.8443,12.229299 C53.3566333,11.9264323 52.6764667,11.774999 51.8038,11.774999 L51.8038,11.774999 L49.0934,11.774999 L49.0934,24.248999 L51.9116,24.248999 Z M51.8346,23.371199 L50.2638,23.371199 L50.2638,12.683599 L51.7884,12.683599 C52.4146667,12.683599 52.8843667,12.7939657 53.1975,13.014699 C53.5106333,13.2354323 53.7211,13.5588323 53.8289,13.984899 C53.9367,14.4109657 53.9906,14.9371323 53.9906,15.563399 L53.9906,15.563399 L53.9906,20.214199 C53.9906,20.8199323 53.9495333,21.361499 53.8674,21.838899 C53.7852667,22.316299 53.5902,22.6910323 53.2822,22.963099 C52.9742,23.2351657 52.4916667,23.371199 51.8346,23.371199 L51.8346,23.371199 Z M58.1332,14.115799 L58.1332,12.591199 L57.009,12.591199 L57.009,14.115799 L58.1332,14.115799 Z M58.1332,24.248999 L58.1332,15.347799 L57.009,15.347799 L57.009,24.248999 L58.1332,24.248999 Z M62.0602,24.387599 C62.5222,24.387599 62.9226,24.302899 63.2614,24.133499 C63.6002,23.964099 63.8645667,23.7228323 64.0545,23.409699 C64.2444333,23.0965657 64.3394,22.708999 64.3394,22.246999 C64.3394,21.8363323 64.2675333,21.4795657 64.1238,21.176699 C63.9800667,20.8738323 63.7952667,20.599199 63.5694,20.352799 C63.3435333,20.106399 63.1074,19.875399 62.861,19.659799 L62.861,19.659799 L61.5982,18.535599 C61.321,18.2789323 61.1310667,18.0479323 61.0284,17.842599 C60.9257333,17.6372657 60.8744,17.4011323 60.8744,17.134199 C60.8744,16.795399 60.9796333,16.5310323 61.1901,16.341099 C61.4005667,16.1511657 61.6752,16.056199 62.014,16.056199 C62.2706667,16.056199 62.4888333,16.117799 62.6685,16.240999 C62.8481667,16.364199 62.9893333,16.556699 63.092,16.818499 C63.1946667,17.080299 63.2562667,17.411399 63.2768,17.811799 L63.2768,17.811799 L64.0776,17.549999 C64.0468,16.8621323 63.8568667,16.3000323 63.5078,15.863699 C63.1587333,15.4273657 62.6454,15.209199 61.9678,15.209199 C61.5468667,15.209199 61.1772667,15.2887657 60.859,15.447899 C60.5407333,15.6070323 60.2917667,15.832899 60.1121,16.125499 C59.9324333,16.418099 59.8426,16.779999 59.8426,17.211199 C59.8426,17.6834657 59.9452667,18.088999 60.1506,18.427799 C60.3559333,18.766599 60.6588,19.105399 61.0592,19.444199 L61.0592,19.444199 L62.2758,20.491399 C62.6454,20.8096657 62.9174667,21.115099 63.092,21.407699 C63.2665333,21.700299 63.3538,21.9903323 63.3538,22.277799 C63.3538,22.678199 63.2485667,22.9887657 63.0381,23.209499 C62.8276333,23.4302323 62.5273333,23.540599 62.1372,23.540599 C61.6752,23.540599 61.3158667,23.3840323 61.0592,23.070899 C60.8025333,22.7577657 60.6434,22.2572657 60.5818,21.569399 L60.5818,21.569399 L59.6424,21.861999 C59.704,22.631999 59.9452667,23.2454323 60.3662,23.702299 C60.7871333,24.1591657 61.3518,24.387599 62.0602,24.387599 Z M67.8506,24.387599 C68.7232667,24.387599 69.3264333,24.1437657 69.6601,23.656099 C69.9937667,23.1684323 70.1606,22.5190657 70.1606,21.707999 L70.1606,21.707999 L70.1606,21.215199 L69.0672,21.215199 L69.0672,21.831199 C69.0672,22.293199 69.0133,22.6499657 68.9055,22.901499 C68.7977,23.1530323 68.6514,23.3224323 68.4666,23.409699 C68.2818,23.4969657 68.0764667,23.540599 67.8506,23.540599 C67.5528667,23.540599 67.3090333,23.4687323 67.1191,23.324999 C66.9291667,23.1812657 66.7905667,22.9425657 66.7033,22.608899 C66.6160333,22.2752323 66.5724,21.8209323 66.5724,21.245999 L66.5724,21.245999 L66.5724,19.690599 L70.176,19.690599 L70.176,18.889799 C70.176,18.0479323 70.1118333,17.357499 69.9835,16.818499 C69.8551667,16.279499 69.6267333,15.8765323 69.2982,15.609599 C68.9696667,15.3426657 68.4922667,15.209199 67.866,15.209199 C67.3218667,15.209199 66.8701333,15.3144323 66.5108,15.524899 C66.1514667,15.7353657 65.8845333,16.0895657 65.71,16.587499 C65.5354667,17.0854323 65.4482,17.7758657 65.4482,18.658799 L65.4482,18.658799 L65.4482,20.907199 C65.4482,21.7593323 65.5329,22.4420657 65.7023,22.955399 C65.8717,23.4687323 66.1335,23.8357657 66.4877,24.056499 C66.8419,24.2772323 67.2962,24.387599 67.8506,24.387599 Z M69.0672,19.043799 L66.5724,19.043799 L66.5724,18.443199 C66.5724,17.8066657 66.6134667,17.3164323 66.6956,16.972499 C66.7777333,16.6285657 66.9137667,16.3898657 67.1037,16.256399 C67.2936333,16.1229323 67.5426,16.056199 67.8506,16.056199 C68.2202,16.056199 68.4897,16.1460323 68.6591,16.325699 C68.8285,16.5053657 68.9388667,16.7620323 68.9902,17.095699 C69.0415333,17.4293657 69.0672,17.8323323 69.0672,18.304599 L69.0672,18.304599 L69.0672,19.043799 Z M74.9346,13.592199 C75.2426,13.592199 75.4736,13.5126323 75.6276,13.353499 C75.7816,13.1943657 75.8817,13.0044323 75.9279,12.783699 C75.9741,12.5629657 75.9972,12.360199 75.9972,12.175399 L75.9972,12.175399 L75.3196,12.175399 C75.3196,12.421799 75.2785333,12.5937657 75.1964,12.691299 C75.1142667,12.7888323 74.9859333,12.837599 74.8114,12.837599 C74.6266,12.837599 74.4469333,12.775999 74.2724,12.652799 C74.0978667,12.529599 73.9130667,12.4089657 73.718,12.290899 C73.5229333,12.1728323 73.3022,12.113799 73.0558,12.113799 C72.7683333,12.113799 72.5476,12.190799 72.3936,12.344799 C72.2396,12.498799 72.1343667,12.6810323 72.0779,12.891499 C72.0214333,13.1019657 71.9932,13.2944657 71.9932,13.468999 L71.9932,13.468999 L72.6862,13.468999 C72.6862,13.2636657 72.7298333,13.1096657 72.8171,13.006999 C72.9043667,12.9043323 73.0301333,12.852999 73.1944,12.852999 C73.3792,12.852999 73.5563,12.914599 73.7257,13.037799 C73.8951,13.160999 74.0773333,13.284199 74.2724,13.407399 C74.4674667,13.530599 74.6882,13.592199 74.9346,13.592199 Z M72.8248,24.248999 L72.8248,16.918599 C73.0609333,16.672199 73.3124667,16.471999 73.5794,16.317999 C73.8463333,16.163999 74.1081333,16.086999 74.3648,16.086999 C74.6522667,16.086999 74.8653,16.1819657 75.0039,16.371899 C75.1425,16.5618323 75.2118,16.887799 75.2118,17.349799 L75.2118,17.349799 L75.2118,24.248999 L76.336,24.248999 L76.336,17.103399 C76.336,16.702999 76.2846667,16.3616323 76.182,16.079299 C76.0793333,15.7969657 75.9253333,15.5813657 75.72,15.432499 C75.5146667,15.2836323 75.2631333,15.209199 74.9654,15.209199 C74.5444667,15.209199 74.1543333,15.309299 73.795,15.509499 C73.4356667,15.709699 73.1122667,15.963799 72.8248,16.271799 L72.8248,16.271799 L72.8248,15.347799 L71.7006,15.347799 L71.7006,24.248999 L72.8248,24.248999 Z M80.2014,24.387599 C80.8276667,24.387599 81.3102,24.256699 81.649,23.994899 C81.9878,23.733099 82.2290667,23.3532323 82.3728,22.855299 C82.5165333,22.3573657 82.5884,21.7490657 82.5884,21.030399 L82.5884,21.030399 L82.5884,18.566399 C82.5884,17.8477323 82.5165333,17.2394323 82.3728,16.741499 C82.2290667,16.2435657 81.9878,15.863699 81.649,15.601899 C81.3102,15.340099 80.8276667,15.209199 80.2014,15.209199 C79.5956667,15.209199 79.1208333,15.340099 78.7769,15.601899 C78.4329667,15.863699 78.1891333,16.2435657 78.0454,16.741499 C77.9016667,17.2394323 77.8298,17.8477323 77.8298,18.566399 L77.8298,18.566399 L77.8298,21.030399 C77.8298,21.7490657 77.9016667,22.3573657 78.0454,22.855299 C78.1891333,23.3532323 78.4329667,23.733099 78.7769,23.994899 C79.1208333,24.256699 79.5956667,24.387599 80.2014,24.387599 Z M80.2014,23.540599 C79.8112667,23.540599 79.5289333,23.4379323 79.3544,23.232599 C79.1798667,23.0272657 79.0720667,22.7372323 79.031,22.362499 C78.9899333,21.9877657 78.9694,21.5642657 78.9694,21.091999 L78.9694,21.091999 L78.9694,18.504799 C78.9694,18.0222657 78.9899333,17.5987657 79.031,17.234299 C79.0720667,16.8698323 79.1798667,16.5823657 79.3544,16.371899 C79.5289333,16.1614323 79.8112667,16.056199 80.2014,16.056199 C80.5915333,16.056199 80.8764333,16.1614323 81.0561,16.371899 C81.2357667,16.5823657 81.3461333,16.8698323 81.3872,17.234299 C81.4282667,17.5987657 81.4488,18.0222657 81.4488,18.504799 L81.4488,18.504799 L81.4488,21.091999 C81.4488,21.5642657 81.4282667,21.9877657 81.3872,22.362499 C81.3461333,22.7372323 81.2357667,23.0272657 81.0561,23.232599 C80.8764333,23.4379323 80.5915333,23.540599 80.2014,23.540599 Z M87.3316,26.466599 C87.8346667,26.466599 88.2581667,26.412699 88.6021,26.304899 C88.9460333,26.197099 89.2232333,26.027699 89.4337,25.796699 C89.6441667,25.565699 89.7904667,25.2602657 89.8726,24.880399 L89.8726,24.880399 L92.0286,15.347799 L90.889,15.347799 L89.3952,22.924599 L87.8552,15.347799 L86.731,15.347799 L88.5636,23.186399 C88.6354667,23.4738657 88.7022,23.7510657 88.7638,24.017999 C88.8254,24.2849323 88.8562,24.5005323 88.8562,24.664799 C88.8562,24.849599 88.8125667,25.011299 88.7253,25.149899 C88.6380333,25.288499 88.4635,25.396299 88.2017,25.473299 C87.9399,25.550299 87.5523333,25.588799 87.039,25.588799 L87.039,25.588799 L87.039,26.466599 L87.3316,26.466599 Z M99.1742,24.402999 C99.7388667,24.402999 100.2368,24.2977657 100.668,24.087299 C101.0992,23.8768323 101.435433,23.5611323 101.6767,23.140199 C101.917967,22.7192657 102.0386,22.1956657 102.0386,21.569399 C102.0386,20.860999 101.858933,20.2244657 101.4996,19.659799 C101.140267,19.0951323 100.7142,18.581799 100.2214,18.119799 L100.2214,18.119799 L98.0192,16.040799 C97.6906667,15.7225323 97.4622333,15.424799 97.3339,15.147599 C97.2055667,14.870399 97.1414,14.562399 97.1414,14.223599 C97.1414,13.6589323 97.3056667,13.2431323 97.6342,12.976199 C97.9627333,12.7092657 98.3836667,12.575799 98.897,12.575799 C99.3795333,12.575799 99.7568333,12.6733323 100.0289,12.868399 C100.300967,13.0634657 100.501167,13.3483657 100.6295,13.723099 C100.757833,14.0978323 100.842533,14.546999 100.8836,15.070599 L100.8836,15.070599 L101.8846,14.808799 C101.833267,14.2338657 101.735733,13.746199 101.592,13.345799 C101.448267,12.945399 101.250633,12.6194323 100.9991,12.367899 C100.747567,12.1163657 100.4447,11.9341323 100.0905,11.821199 C99.7363,11.7082657 99.3384667,11.651799 98.897,11.651799 C98.0448667,11.651799 97.3621333,11.882799 96.8488,12.344799 C96.3354667,12.806799 96.0788,13.468999 96.0788,14.331399 C96.0788,14.8139323 96.1712,15.2579657 96.356,15.663499 C96.5408,16.0690323 96.8282667,16.4617323 97.2184,16.841599 L97.2184,16.841599 L99.4206,18.951399 C99.8928667,19.3928657 100.265033,19.813799 100.5371,20.214199 C100.809167,20.614599 100.9452,21.091999 100.9452,21.646399 C100.9452,22.2726657 100.7912,22.7295323 100.4832,23.016999 C100.1752,23.3044657 99.744,23.448199 99.1896,23.448199 C98.6865333,23.448199 98.2912667,23.3275657 98.0038,23.086299 C97.7163333,22.8450323 97.5058667,22.516499 97.3724,22.100699 C97.2389333,21.684899 97.1465333,21.2203323 97.0952,20.706999 L97.0952,20.706999 L96.0634,21.014999 C96.1147333,21.692599 96.2533333,22.285499 96.4792,22.793699 C96.7050667,23.301899 97.0413,23.6971657 97.4879,23.979499 C97.9345,24.2618323 98.4966,24.402999 99.1742,24.402999 Z M105.5806,24.387599 C106.206867,24.387599 106.6894,24.256699 107.0282,23.994899 C107.367,23.733099 107.608267,23.3532323 107.752,22.855299 C107.895733,22.3573657 107.9676,21.7490657 107.9676,21.030399 L107.9676,21.030399 L107.9676,18.566399 C107.9676,17.8477323 107.895733,17.2394323 107.752,16.741499 C107.608267,16.2435657 107.367,15.863699 107.0282,15.601899 C106.6894,15.340099 106.206867,15.209199 105.5806,15.209199 C104.974867,15.209199 104.500033,15.340099 104.1561,15.601899 C103.812167,15.863699 103.568333,16.2435657 103.4246,16.741499 C103.280867,17.2394323 103.209,17.8477323 103.209,18.566399 L103.209,18.566399 L103.209,21.030399 C103.209,21.7490657 103.280867,22.3573657 103.4246,22.855299 C103.568333,23.3532323 103.812167,23.733099 104.1561,23.994899 C104.500033,24.256699 104.974867,24.387599 105.5806,24.387599 Z M105.5806,23.540599 C105.190467,23.540599 104.908133,23.4379323 104.7336,23.232599 C104.559067,23.0272657 104.451267,22.7372323 104.4102,22.362499 C104.369133,21.9877657 104.3486,21.5642657 104.3486,21.091999 L104.3486,21.091999 L104.3486,18.504799 C104.3486,18.0222657 104.369133,17.5987657 104.4102,17.234299 C104.451267,16.8698323 104.559067,16.5823657 104.7336,16.371899 C104.908133,16.1614323 105.190467,16.056199 105.5806,16.056199 C105.970733,16.056199 106.255633,16.1614323 106.4353,16.371899 C106.614967,16.5823657 106.725333,16.8698323 106.7664,17.234299 C106.807467,17.5987657 106.828,18.0222657 106.828,18.504799 L106.828,18.504799 L106.828,21.091999 C106.828,21.5642657 106.807467,21.9877657 106.7664,22.362499 C106.725333,22.7372323 106.614967,23.0272657 106.4353,23.232599 C106.255633,23.4379323 105.970733,23.540599 105.5806,23.540599 Z M111.5558,24.387599 C112.0178,24.387599 112.4182,24.302899 112.757,24.133499 C113.0958,23.964099 113.360167,23.7228323 113.5501,23.409699 C113.740033,23.0965657 113.835,22.708999 113.835,22.246999 C113.835,21.8363323 113.763133,21.4795657 113.6194,21.176699 C113.475667,20.8738323 113.290867,20.599199 113.065,20.352799 C112.839133,20.106399 112.603,19.875399 112.3566,19.659799 L112.3566,19.659799 L111.0938,18.535599 C110.8166,18.2789323 110.626667,18.0479323 110.524,17.842599 C110.421333,17.6372657 110.37,17.4011323 110.37,17.134199 C110.37,16.795399 110.475233,16.5310323 110.6857,16.341099 C110.896167,16.1511657 111.1708,16.056199 111.5096,16.056199 C111.766267,16.056199 111.984433,16.117799 112.1641,16.240999 C112.343767,16.364199 112.484933,16.556699 112.5876,16.818499 C112.690267,17.080299 112.751867,17.411399 112.7724,17.811799 L112.7724,17.811799 L113.5732,17.549999 C113.5424,16.8621323 113.352467,16.3000323 113.0034,15.863699 C112.654333,15.4273657 112.141,15.209199 111.4634,15.209199 C111.042467,15.209199 110.672867,15.2887657 110.3546,15.447899 C110.036333,15.6070323 109.787367,15.832899 109.6077,16.125499 C109.428033,16.418099 109.3382,16.779999 109.3382,17.211199 C109.3382,17.6834657 109.440867,18.088999 109.6462,18.427799 C109.851533,18.766599 110.1544,19.105399 110.5548,19.444199 L110.5548,19.444199 L111.7714,20.491399 C112.141,20.8096657 112.413067,21.115099 112.5876,21.407699 C112.762133,21.700299 112.8494,21.9903323 112.8494,22.277799 C112.8494,22.678199 112.744167,22.9887657 112.5337,23.209499 C112.323233,23.4302323 112.022933,23.540599 111.6328,23.540599 C111.1708,23.540599 110.811467,23.3840323 110.5548,23.070899 C110.298133,22.7577657 110.139,22.2572657 110.0774,21.569399 L110.0774,21.569399 L109.138,21.861999 C109.1996,22.631999 109.440867,23.2454323 109.8618,23.702299 C110.282733,24.1591657 110.8474,24.387599 111.5558,24.387599 Z M117.223,24.356799 C117.377,24.356799 117.536133,24.349099 117.7004,24.333699 C117.864667,24.318299 118.0238,24.295199 118.1778,24.264399 L118.1778,24.264399 L118.1778,23.401999 C118.075133,23.4225323 117.964767,23.440499 117.8467,23.455899 C117.728633,23.471299 117.6234,23.478999 117.531,23.478999 C117.202467,23.478999 116.989433,23.3891657 116.8919,23.209499 C116.794367,23.0298323 116.7456,22.724399 116.7456,22.293199 L116.7456,22.293199 L116.7456,16.086999 L118.224,16.086999 L118.224,15.347799 L116.7456,15.347799 L116.7456,12.591199 L115.6214,12.591199 L115.6214,15.347799 L114.528,15.347799 L114.528,16.086999 L115.6214,16.086999 L115.6214,22.400999 C115.6214,22.7808657 115.665033,23.117099 115.7523,23.409699 C115.839567,23.702299 115.9987,23.933299 116.2297,24.102699 C116.4607,24.272099 116.7918,24.356799 117.223,24.356799 Z M121.6582,24.387599 C122.530867,24.387599 123.134033,24.1437657 123.4677,23.656099 C123.801367,23.1684323 123.9682,22.5190657 123.9682,21.707999 L123.9682,21.707999 L123.9682,21.215199 L122.8748,21.215199 L122.8748,21.831199 C122.8748,22.293199 122.8209,22.6499657 122.7131,22.901499 C122.6053,23.1530323 122.459,23.3224323 122.2742,23.409699 C122.0894,23.4969657 121.884067,23.540599 121.6582,23.540599 C121.360467,23.540599 121.116633,23.4687323 120.9267,23.324999 C120.736767,23.1812657 120.598167,22.9425657 120.5109,22.608899 C120.423633,22.2752323 120.38,21.8209323 120.38,21.245999 L120.38,21.245999 L120.38,19.690599 L123.9836,19.690599 L123.9836,18.889799 C123.9836,18.0479323 123.919433,17.357499 123.7911,16.818499 C123.662767,16.279499 123.434333,15.8765323 123.1058,15.609599 C122.777267,15.3426657 122.299867,15.209199 121.6736,15.209199 C121.129467,15.209199 120.677733,15.3144323 120.3184,15.524899 C119.959067,15.7353657 119.692133,16.0895657 119.5176,16.587499 C119.343067,17.0854323 119.2558,17.7758657 119.2558,18.658799 L119.2558,18.658799 L119.2558,20.907199 C119.2558,21.7593323 119.3405,22.4420657 119.5099,22.955399 C119.6793,23.4687323 119.9411,23.8357657 120.2953,24.056499 C120.6495,24.2772323 121.1038,24.387599 121.6582,24.387599 Z M122.8748,19.043799 L120.38,19.043799 L120.38,18.443199 C120.38,17.8066657 120.421067,17.3164323 120.5032,16.972499 C120.585333,16.6285657 120.721367,16.3898657 120.9113,16.256399 C121.101233,16.1229323 121.3502,16.056199 121.6582,16.056199 C122.0278,16.056199 122.2973,16.1460323 122.4667,16.325699 C122.6361,16.5053657 122.746467,16.7620323 122.7978,17.095699 C122.849133,17.4293657 122.8748,17.8323323 122.8748,18.304599 L122.8748,18.304599 L122.8748,19.043799 Z M126.6324,24.248999 L126.6324,16.918599 C126.868533,16.672199 127.120067,16.471999 127.387,16.317999 C127.653933,16.163999 127.915733,16.086999 128.1724,16.086999 C128.459867,16.086999 128.6729,16.1819657 128.8115,16.371899 C128.9501,16.5618323 129.0194,16.887799 129.0194,17.349799 L129.0194,17.349799 L129.0194,24.248999 L130.1436,24.248999 L130.1436,17.103399 C130.1436,16.702999 130.092267,16.3616323 129.9896,16.079299 C129.886933,15.7969657 129.732933,15.5813657 129.5276,15.432499 C129.322267,15.2836323 129.070733,15.209199 128.773,15.209199 C128.352067,15.209199 127.961933,15.309299 127.6026,15.509499 C127.243267,15.709699 126.919867,15.963799 126.6324,16.271799 L126.6324,16.271799 L126.6324,15.347799 L125.5082,15.347799 L125.5082,24.248999 L126.6324,24.248999 Z M133.0542,14.115799 L133.0542,12.591199 L131.93,12.591199 L131.93,14.115799 L133.0542,14.115799 Z M133.0542,24.248999 L133.0542,15.347799 L131.93,15.347799 L131.93,24.248999 L133.0542,24.248999 Z M137.6742,24.387599 C138.2286,24.387599 138.6598,24.2310323 138.9678,23.917899 C139.2758,23.6047657 139.493967,23.1684323 139.6223,22.608899 C139.750633,22.0493657 139.8148,21.3897323 139.8148,20.629999 L139.8148,20.629999 L139.8148,18.751199 C139.8148,18.3097323 139.789133,17.8785323 139.7378,17.457599 C139.686467,17.0366657 139.588933,16.656799 139.4452,16.317999 C139.301467,15.979199 139.096133,15.709699 138.8292,15.509499 C138.562267,15.309299 138.2132,15.209199 137.782,15.209199 C137.3816,15.209199 137.0428,15.2990323 136.7656,15.478699 C136.4884,15.6583657 136.262533,15.8611323 136.088,16.086999 L136.088,16.086999 L136.088,11.774999 L134.9638,11.774999 L134.9638,24.248999 L136.088,24.248999 L136.088,23.540599 C136.262533,23.7356657 136.4807,23.925599 136.7425,24.110399 C137.0043,24.295199 137.314867,24.387599 137.6742,24.387599 Z M137.474,23.494399 C137.186533,23.494399 136.924733,23.4302323 136.6886,23.301899 C136.452467,23.1735657 136.252267,23.0221323 136.088,22.847599 L136.088,22.847599 L136.088,16.779999 C136.242,16.625999 136.439633,16.471999 136.6809,16.317999 C136.922167,16.163999 137.1814,16.086999 137.4586,16.086999 C137.817933,16.086999 138.0823,16.1896657 138.2517,16.394999 C138.4211,16.6003323 138.534033,16.9006323 138.5905,17.295899 C138.646967,17.6911657 138.6752,18.1762657 138.6752,18.751199 L138.6752,18.751199 L138.6752,20.660799 C138.6752,21.2665323 138.646967,21.7824323 138.5905,22.208499 C138.534033,22.6345657 138.4211,22.955399 138.2517,23.170999 C138.0823,23.386599 137.823067,23.494399 137.474,23.494399 Z M142.6022,14.115799 L142.6022,12.591199 L141.478,12.591199 L141.478,14.115799 L142.6022,14.115799 Z M142.6022,24.248999 L142.6022,15.347799 L141.478,15.347799 L141.478,24.248999 L142.6022,24.248999 Z M145.7746,24.248999 L145.7746,11.774999 L144.6504,11.774999 L144.6504,24.248999 L145.7746,24.248999 Z M148.8546,14.115799 L148.8546,12.591199 L147.7304,12.591199 L147.7304,14.115799 L148.8546,14.115799 Z M148.8546,24.248999 L148.8546,15.347799 L147.7304,15.347799 L147.7304,24.248999 L148.8546,24.248999 Z M152.72,24.387599 C153.0588,24.387599 153.353967,24.3080323 153.6055,24.148899 C153.857033,23.9897657 154.070067,23.8126657 154.2446,23.617599 L154.2446,23.617599 L154.2446,24.248999 L155.3688,24.248999 L155.3688,11.774999 L154.2446,11.774999 L154.2446,15.979199 C154.070067,15.7841323 153.8519,15.6070323 153.5901,15.447899 C153.3283,15.2887657 153.022867,15.209199 152.6738,15.209199 C152.109133,15.209199 151.675367,15.3657657 151.3725,15.678899 C151.069633,15.9920323 150.861733,16.4309323 150.7488,16.995599 C150.635867,17.5602657 150.5794,18.2327323 150.5794,19.012999 L150.5794,19.012999 L150.5794,20.660799 C150.5794,21.9954657 150.746233,22.9502657 151.0799,23.525199 C151.413567,24.1001323 151.960267,24.387599 152.72,24.387599 Z M152.951,23.494399 C152.6122,23.494399 152.352967,23.3917323 152.1733,23.186399 C151.993633,22.9810657 151.870433,22.6730657 151.8037,22.262399 C151.736967,21.8517323 151.7036,21.3486657 151.7036,20.753199 L151.7036,20.753199 L151.7036,18.643399 C151.7036,17.811799 151.783167,17.1778323 151.9423,16.741499 C152.101433,16.3051657 152.4274,16.086999 152.9202,16.086999 C153.1974,16.086999 153.448933,16.156299 153.6748,16.294899 C153.900667,16.433499 154.0906,16.5746657 154.2446,16.718399 L154.2446,16.718399 L154.2446,22.909199 C154.070067,23.0734657 153.872433,23.2120657 153.6517,23.324999 C153.430967,23.4379323 153.1974,23.494399 152.951,23.494399 Z M159.0032,23.432799 C158.736267,23.432799 158.500133,23.332699 158.2948,23.132499 C158.089467,22.932299 157.9868,22.5960657 157.9868,22.123799 C157.9868,21.8260657 158.033,21.5668323 158.1254,21.346099 C158.2178,21.1253657 158.361533,20.9277323 158.5566,20.753199 C158.751667,20.5786657 159.005767,20.398999 159.3189,20.214199 C159.632033,20.029399 160.009333,19.8240657 160.4508,19.598199 L160.4508,19.598199 L160.4508,22.370199 C160.368667,22.5344657 160.255733,22.6961657 160.112,22.855299 C159.968267,23.0144323 159.804,23.1504657 159.6192,23.263399 C159.4344,23.3763323 159.229067,23.432799 159.0032,23.432799 Z M160.481,23.018 L160.492188,23.1339427 C160.505662,23.2600302 160.5278,23.413549 160.5586,23.594499 C160.599667,23.8357657 160.630467,24.0539323 160.651,24.248999 L160.651,24.248999 L161.652,24.248999 C161.641733,24.1360657 161.631467,23.971799 161.6212,23.756199 C161.610933,23.540599 161.600667,23.3121657 161.5904,23.070899 C161.580133,22.8296323 161.575,22.631999 161.575,22.477999 L161.575,18.150599 C161.575,17.1444657 161.4133,16.402699 161.0899,15.925299 C160.7665,15.447899 160.2044,15.209199 159.4036,15.209199 C158.551467,15.209199 157.938033,15.4273657 157.5633,15.863699 C157.188567,16.3000323 156.996067,16.9699323 156.9858,17.873399 L156.9858,17.873399 L158.0946,17.888799 L158.0946,17.580799 C158.0946,17.1906657 158.151067,16.8852323 158.264,16.664499 C158.376933,16.4437657 158.5258,16.287199 158.7106,16.194799 C158.8954,16.102399 159.105867,16.056199 159.342,16.056199 C159.629467,16.056199 159.852767,16.1229323 160.0119,16.256399 C160.171033,16.3898657 160.283967,16.6131657 160.3507,16.926299 C160.417433,17.2394323 160.4508,17.6680657 160.4508,18.212199 L160.4508,18.212199 L160.4508,18.843599 C159.793733,19.1413323 159.236767,19.4108323 158.7799,19.652099 C158.323033,19.8933657 157.953433,20.1397657 157.6711,20.391299 C157.388767,20.6428323 157.183433,20.9277323 157.0551,21.245999 C156.926767,21.5642657 156.8626,21.9492657 156.8626,22.400999 C156.8626,22.7603323 156.937033,23.0914323 157.0859,23.394299 C157.234767,23.6971657 157.442667,23.9384323 157.7096,24.118099 C157.976533,24.2977657 158.289667,24.387599 158.649,24.387599 C159.121267,24.387599 159.513967,24.248999 159.8271,23.971799 C160.140233,23.694599 160.3584,23.3763323 160.4816,23.016999 L160.481,23.018 Z M165.194,24.387599 C165.5328,24.387599 165.827967,24.3080323 166.0795,24.148899 C166.331033,23.9897657 166.544067,23.8126657 166.7186,23.617599 L166.7186,23.617599 L166.7186,24.248999 L167.8428,24.248999 L167.8428,11.774999 L166.7186,11.774999 L166.7186,15.979199 C166.544067,15.7841323 166.3259,15.6070323 166.0641,15.447899 C165.8023,15.2887657 165.496867,15.209199 165.1478,15.209199 C164.583133,15.209199 164.149367,15.3657657 163.8465,15.678899 C163.543633,15.9920323 163.335733,16.4309323 163.2228,16.995599 C163.109867,17.5602657 163.0534,18.2327323 163.0534,19.012999 L163.0534,19.012999 L163.0534,20.660799 C163.0534,21.9954657 163.220233,22.9502657 163.5539,23.525199 C163.887567,24.1001323 164.434267,24.387599 165.194,24.387599 Z M165.425,23.494399 C165.0862,23.494399 164.826967,23.3917323 164.6473,23.186399 C164.467633,22.9810657 164.344433,22.6730657 164.2777,22.262399 C164.210967,21.8517323 164.1776,21.3486657 164.1776,20.753199 L164.1776,20.753199 L164.1776,18.643399 C164.1776,17.811799 164.257167,17.1778323 164.4163,16.741499 C164.575433,16.3051657 164.9014,16.086999 165.3942,16.086999 C165.6714,16.086999 165.922933,16.156299 166.1488,16.294899 C166.374667,16.433499 166.5646,16.5746657 166.7186,16.718399 L166.7186,16.718399 L166.7186,22.909199 C166.544067,23.0734657 166.346433,23.2120657 166.1257,23.324999 C165.904967,23.4379323 165.6714,23.494399 165.425,23.494399 Z" id="DiseñoySostenibilidad" fill="#000000" fill-rule="nonzero"></path>
            <g id="Group-9-Copy-15" fill="#A4A49B">
                <path d="M20.8250502,22.9899281 C19.8078814,22.9899281 19.7914283,23.6847375 19.7914283,27.3290439 C19.7914283,30.9048565 19.875522,31.6680378 20.8250502,31.6680378 C21.7738471,31.6680378 21.8586721,30.9048565 21.8586721,27.3290439 C21.8586721,23.6847375 21.842219,22.9899281 20.8250502,22.9899281" id="Fill-1"></path>
                <path d="M25.1764876,11.529997 C24.1531031,11.529997 24.1692972,12.7051158 24.1692972,14.4007628 C24.1692972,16.5323566 24.3208032,17.4219223 25.1764876,17.4219223 C25.9825688,17.4219223 26.1340759,16.5323566 26.1340759,14.4007628 C26.1340759,12.7051158 26.150147,11.529997 25.1764876,11.529997" id="Fill-3"></path>
                <path d="M13.3565133,17.4218857 C14.2128071,17.4218857 14.3644333,16.53232 14.3644333,14.4007262 C14.3644333,12.7050793 14.3800196,11.5299605 13.3565133,11.5299605 C12.3833414,11.5299605 12.399777,12.7050793 12.399777,14.4007262 C12.399777,16.53232 12.5507977,17.4218857 13.3565133,17.4218857" id="Fill-5"></path>
                <path d="M29.7539543,20.6913289 L35.1675201,20.6913289 L35.1675201,19.8553883 L29.7539543,19.8553883 L29.7539543,20.6913289 Z M28.5007136,18.7153695 L26.2502917,18.7153695 L26.2502917,17.7751038 L26.2181167,17.7751038 C25.7811948,18.596907 25.1266041,18.8829476 24.2196103,18.8829476 C21.7688259,18.8829476 21.8526759,16.1635506 21.8526759,14.4170818 C21.8526759,12.7051036 21.7858884,10.0690692 24.1693978,10.0690692 C25.025326,10.0690692 25.6131291,10.3211067 26.0998979,11.0433379 L26.1341448,11.0433379 L26.1341448,6.59368151 L28.5007136,6.59368151 L28.5007136,18.7153695 Z M20.8250258,33.3966763 C17.6383601,33.3966763 17.4009476,31.0070731 17.4009476,27.295248 C17.4009476,22.7691759 17.909532,21.2606071 20.8250258,21.2606071 C23.7405197,21.2606071 24.2491041,22.7691759 24.2491041,27.295248 C24.2491041,31.0070731 24.0116916,33.3966763 20.8250258,33.3966763 L20.8250258,33.3966763 Z M16.9144225,33.2440888 L9.89722539,33.2440888 L9.89722539,31.1595387 C13.6256255,26.1932542 14.4053818,25.6169073 14.4053818,24.1422197 C14.4053818,23.5488103 14.1852756,22.9898915 13.5076505,22.9898915 C12.524363,22.9898915 12.4732974,23.9222353 12.4732974,24.6846854 L10.0835723,24.6846854 C9.91392227,22.4813071 11.1510754,21.2606071 13.3380005,21.2606071 C15.3887912,21.2606071 16.7958382,22.091429 16.7958382,24.3121135 C16.7958382,26.9728886 13.6939974,29.9899043 12.4056567,31.4135262 L16.9144225,31.4135262 L16.9144225,33.2440888 Z M10.0326285,6.59368151 L12.3998067,6.59368151 L12.3998067,11.0433379 L12.4338099,11.0433379 C12.9205786,10.3211067 13.5083818,10.0690692 14.3643099,10.0690692 C16.7479413,10.0690692 16.6810319,12.7051036 16.6810319,14.4170818 C16.6810319,16.1635506 16.7645163,18.8829476 14.3140974,18.8829476 C13.4071037,18.8829476 12.7521474,18.596907 12.3162005,17.7751038 L12.2821974,17.7751038 L12.2821974,18.7153695 L10.0326285,18.7153695 L10.0326285,6.59368151 Z M18.091857,18.7153695 L20.4586696,18.7153695 L20.4586696,10.2371348 L18.091857,10.2371348 L18.091857,18.7153695 Z M18.091857,8.45739409 L20.4586696,8.45739409 L20.4586696,6.59368151 L18.091857,6.59368151 L18.091857,8.45739409 Z M19.3699601,0.0164531257 C8.67152847,0.0164531257 0,8.68920035 0,19.3848289 C0,30.0841137 8.67152847,38.7562515 19.3699601,38.7562515 C30.0670512,38.7562515 38.7400422,30.0841137 38.7400422,19.3848289 C38.7400422,8.68920035 30.0670512,0.0164531257 19.3699601,0.0164531257 L19.3699601,0.0164531257 Z" id="Fill-7"></path>
            </g>
        </g>
    </g>
</svg>