<?xml version="1.0" encoding="UTF-8"?>
<svg width="77px" height="109px" viewBox="0 0 77 109" version="1.1" xmlns="http://www.w3.org/2000/svg" xmlns:xlink="http://www.w3.org/1999/xlink">
    <title>Group 15</title>
    <g id="Page-1" stroke="none" stroke-width="1" fill="none" fill-rule="evenodd">
        <g id="Home_vista_inicial" transform="translate(-88.000000, -69.000000)">
            <g id="Group-15" transform="translate(88.000000, 69.000000)">
                <polygon id="Fill-1" fill="#008ED7" points="0 25.9882415 76.6268148 25.9882415 76.6268148 22.8052889 0 22.8052889"></polygon>
                <polygon id="Fill-2" fill="#008ED7" points="0 21.4273357 76.6268148 21.4273357 76.6268148 18.2443832 0 18.2443832"></polygon>
                <polygon id="Fill-3" fill="#008ED7" points="0 30.549654 76.6268148 30.549654 76.6268148 27.366448 0 27.366448"></polygon>
                <polygon id="Fill-4" fill="#008ED7" points="0 16.8661766 76.6268148 16.8661766 76.6268148 13.683224 0 13.683224"></polygon>
                <polygon id="Fill-5" fill="#008ED7" points="0 3.18320603 76.6268148 3.18320603 76.6268148 0 0 0"></polygon>
                <polygon id="Fill-6" fill="#008ED7" points="0 12.3052709 76.6268148 12.3052709 76.6268148 9.1223183 0 9.1223183"></polygon>
                <polygon id="Fill-7" fill="#008ED7" points="0 7.74436518 76.6268148 7.74436518 76.6268148 4.56115915 0 4.56115915"></polygon>
                <polygon id="Fill-8" fill="#000000" points="52.4260347 31.8020277 0.00197683177 84.0327109 -5.06879941e-05 84.0628702 -5.06879941e-05 88.6361945 57.0404163 31.8020277"></polygon>
                <polygon id="Fill-9" fill="#000000" points="58.955282 31.8020277 7.60319911e-05 90.5456112 7.60319911e-05 95.1480811 63.5694101 31.8020277"></polygon>
                <polygon id="Fill-10" fill="#000000" points="45.8961032 31.8020277 -0.000101375988 77.524119 -0.000101375988 82.1253216 50.5107382 31.8020277"></polygon>
                <polygon id="Fill-11" fill="#000000" points="65.4843011 31.8020277 -2.5343997e-05 97.0577513 -2.5343997e-05 101.660981 70.0984292 31.8020277"></polygon>
                <polygon id="Fill-12" fill="#000000" points="72.0130922 31.8020277 -0.000101375988 103.570652 -0.000101375988 108.174135 76.6267134 31.8020277"></polygon>
                <polygon id="Fill-13" fill="#000000" points="39.3661717 31.8020277 0.000101375988 71.0142599 0.000101375988 75.6149557 43.9813135 31.8020277"></polygon>
                <polygon id="Fill-14" fill="#000000" points="32.835784 31.8020277 0.000101375988 64.505668 0.000101375988 69.1058569 37.4509258 31.8020277"></polygon>
            </g>
        </g>
    </g>
</svg>